<?xml version="1.0" encoding="utf-8" standalone="no"?>
<!DOCTYPE svg PUBLIC "-//W3C//DTD SVG 1.1//EN"
  "http://www.w3.org/Graphics/SVG/1.1/DTD/svg11.dtd">
<!-- Created with matplotlib (https://matplotlib.org/) -->
<svg height="585.25pt" version="1.1" viewBox="0 0 716 585.25" width="716pt" xmlns="http://www.w3.org/2000/svg" xmlns:xlink="http://www.w3.org/1999/xlink">
 <defs>
  <style type="text/css">
*{stroke-linecap:butt;stroke-linejoin:round;}
  </style>
 </defs>
 <g id="figure_1">
  <g id="patch_1">
   <path d="M 0 585.25 
L 716 585.25 
L 716 0 
L 0 0 
z
" style="fill:#ffffff;"/>
  </g>
  <g id="axes_1">
   <g id="patch_2">
    <path d="M 39.2 254.290909 
L 708.8 254.290909 
L 708.8 7.2 
L 39.2 7.2 
z
" style="fill:#eaeaf2;"/>
   </g>
   <g id="matplotlib.axis_1">
    <g id="xtick_1">
     <g id="line2d_1">
      <path clip-path="url(#p82ad8c917e)" d="M 69.636364 254.290909 
L 69.636364 7.2 
" style="fill:none;stroke:#ffffff;stroke-linecap:round;stroke-width:0.8;"/>
     </g>
     <g id="text_1">
      <!-- 2017-11-26 -->
      <defs>
       <path d="M 4.6875 3.90625 
Q 5.078125 9.765625 10.15625 14.453125 
Q 15.234375 19.140625 23.046875 29.09375 
Q 30.859375 39.0625 33.203125 44.53125 
Q 35.546875 50 34.953125 53.90625 
Q 34.375 57.8125 31.25 60.34375 
Q 28.125 62.890625 24.015625 62.5 
Q 19.921875 62.109375 16.203125 59.375 
Q 12.5 56.640625 10.546875 51.171875 
L 3.125 52.34375 
Q 6.25 61.328125 11.125 65.421875 
Q 16.015625 69.53125 22.65625 69.921875 
Q 26.5625 70.3125 29.6875 69.71875 
Q 32.8125 69.140625 36.125 66.984375 
Q 39.453125 64.84375 41.59375 60.546875 
Q 43.75 56.25 43.15625 50.1875 
Q 42.578125 44.140625 37.109375 35.734375 
Q 31.640625 27.34375 16.015625 9.375 
L 44.140625 9.375 
L 44.140625 2.34375 
L 4.6875 2.34375 
z
" id="SimHei-50"/>
       <path d="M 3.125 29.296875 
Q 3.90625 50 6.4375 56.046875 
Q 8.984375 62.109375 13.671875 66.015625 
Q 18.359375 69.921875 25.1875 69.921875 
Q 32.03125 69.921875 37.109375 64.25 
Q 42.1875 58.59375 43.75 50 
Q 45.3125 41.40625 44.71875 30.265625 
Q 44.140625 19.140625 40.8125 12.109375 
Q 37.5 5.078125 30.859375 2.34375 
Q 24.21875 -0.390625 17.578125 2.921875 
Q 10.9375 6.25 8.203125 11.71875 
Q 5.46875 17.1875 4.296875 23.234375 
Q 3.125 29.296875 3.90625 50 
z
M 12.890625 52.734375 
Q 10.546875 31.25 12.5 22.84375 
Q 14.453125 14.453125 18.9375 10.9375 
Q 23.4375 7.421875 28.125 9.5625 
Q 32.8125 11.71875 34.953125 18.15625 
Q 37.109375 24.609375 37.109375 32.21875 
Q 37.109375 39.84375 36.515625 46.09375 
Q 35.9375 52.34375 33 57.421875 
Q 30.078125 62.5 25.1875 62.6875 
Q 20.3125 62.890625 16.59375 57.8125 
Q 12.890625 52.734375 10.546875 31.25 
z
" id="SimHei-48"/>
       <path d="M 21.875 56.25 
Q 16.796875 51.171875 8.984375 46.484375 
L 8.984375 53.90625 
Q 18.75 60.546875 25 69.53125 
L 29.6875 69.53125 
L 29.6875 2.34375 
L 21.875 2.34375 
z
" id="SimHei-49"/>
       <path d="M 13.28125 2.34375 
Q 20.3125 32.03125 37.890625 61.328125 
L 4.296875 61.328125 
L 4.296875 68.359375 
L 46.09375 68.359375 
L 46.09375 61.71875 
Q 27.734375 32.03125 21.875 2.34375 
L 13.28125 2.34375 
z
" id="SimHei-55"/>
       <path d="M 46.484375 33.203125 
L 1.953125 33.203125 
L 1.953125 39.453125 
L 46.484375 39.453125 
z
" id="SimHei-45"/>
       <path d="M 3.515625 19.53125 
Q 4.296875 30.859375 6.046875 34.765625 
Q 7.8125 38.671875 11.328125 44.53125 
L 27.34375 69.53125 
L 36.328125 69.53125 
L 19.921875 43.75 
Q 30.46875 46.484375 36.71875 42.96875 
Q 42.96875 39.453125 45.109375 34.953125 
Q 47.265625 30.46875 47.453125 25.1875 
Q 47.65625 19.921875 45.890625 14.84375 
Q 44.140625 9.765625 39.640625 5.65625 
Q 35.15625 1.5625 27.140625 1.171875 
Q 19.140625 0.78125 13.46875 4.09375 
Q 7.8125 7.421875 5.65625 13.46875 
Q 3.515625 19.53125 4.296875 30.859375 
z
M 12.5 16.015625 
Q 19.53125 8.59375 25.390625 8.203125 
Q 31.25 7.8125 35.15625 12.109375 
Q 39.0625 16.40625 39.0625 24.609375 
Q 39.0625 32.8125 34.171875 35.9375 
Q 29.296875 39.0625 23.234375 38.28125 
Q 17.1875 37.5 14.453125 32.421875 
Q 11.71875 27.34375 12.109375 21.671875 
Q 12.5 16.015625 19.53125 8.59375 
z
" id="SimHei-54"/>
      </defs>
      <g style="fill:#262626;" transform="translate(44.636364 268.165909)scale(0.1 -0.1)">
       <use xlink:href="#SimHei-50"/>
       <use x="50" xlink:href="#SimHei-48"/>
       <use x="100" xlink:href="#SimHei-49"/>
       <use x="150" xlink:href="#SimHei-55"/>
       <use x="200" xlink:href="#SimHei-45"/>
       <use x="250" xlink:href="#SimHei-49"/>
       <use x="300" xlink:href="#SimHei-49"/>
       <use x="350" xlink:href="#SimHei-45"/>
       <use x="400" xlink:href="#SimHei-50"/>
       <use x="450" xlink:href="#SimHei-54"/>
      </g>
     </g>
    </g>
    <g id="xtick_2">
     <g id="line2d_2">
      <path clip-path="url(#p82ad8c917e)" d="M 156.597403 254.290909 
L 156.597403 7.2 
" style="fill:none;stroke:#ffffff;stroke-linecap:round;stroke-width:0.8;"/>
     </g>
     <g id="text_2">
      <!-- 2017-11-27 -->
      <g style="fill:#262626;" transform="translate(131.597403 268.165909)scale(0.1 -0.1)">
       <use xlink:href="#SimHei-50"/>
       <use x="50" xlink:href="#SimHei-48"/>
       <use x="100" xlink:href="#SimHei-49"/>
       <use x="150" xlink:href="#SimHei-55"/>
       <use x="200" xlink:href="#SimHei-45"/>
       <use x="250" xlink:href="#SimHei-49"/>
       <use x="300" xlink:href="#SimHei-49"/>
       <use x="350" xlink:href="#SimHei-45"/>
       <use x="400" xlink:href="#SimHei-50"/>
       <use x="450" xlink:href="#SimHei-55"/>
      </g>
     </g>
    </g>
    <g id="xtick_3">
     <g id="line2d_3">
      <path clip-path="url(#p82ad8c917e)" d="M 243.558442 254.290909 
L 243.558442 7.2 
" style="fill:none;stroke:#ffffff;stroke-linecap:round;stroke-width:0.8;"/>
     </g>
     <g id="text_3">
      <!-- 2017-11-28 -->
      <defs>
       <path d="M 2.734375 16.796875 
Q 2.734375 26.171875 5.078125 30.65625 
Q 7.421875 35.15625 12.890625 37.890625 
Q 8.203125 40.625 6.640625 43.9375 
Q 5.078125 47.265625 4.875 51.5625 
Q 4.6875 55.859375 6.046875 58.984375 
Q 7.421875 62.109375 10.15625 64.84375 
Q 12.890625 67.578125 16.203125 68.546875 
Q 19.53125 69.53125 23.4375 69.53125 
Q 27.34375 69.53125 30.46875 68.75 
Q 33.59375 67.96875 37.109375 65.421875 
Q 40.625 62.890625 42.1875 58.203125 
Q 43.75 53.515625 41.984375 47.265625 
Q 40.234375 41.015625 32.8125 37.5 
Q 39.453125 35.546875 42.1875 31.4375 
Q 44.921875 27.34375 44.921875 21.484375 
Q 44.921875 15.625 43.15625 12.109375 
Q 41.40625 8.59375 39.25 6.25 
Q 37.109375 3.90625 33.390625 2.53125 
Q 29.6875 1.171875 24.015625 1.171875 
Q 18.359375 1.171875 14.25 2.53125 
Q 10.15625 3.90625 7.421875 6.640625 
Q 4.6875 9.375 3.703125 13.078125 
Q 2.734375 16.796875 2.734375 26.171875 
z
M 10.9375 26.5625 
Q 10.546875 17.1875 12.296875 13.671875 
Q 14.0625 10.15625 18.75 9.171875 
Q 23.4375 8.203125 28.515625 9.375 
Q 33.59375 10.546875 35.546875 14.84375 
Q 37.5 19.140625 36.90625 23.4375 
Q 36.328125 27.734375 32.03125 30.65625 
Q 27.734375 33.59375 22.65625 33.203125 
Q 17.578125 32.8125 14.25 29.6875 
Q 10.9375 26.5625 10.546875 17.1875 
z
M 12.109375 56.25 
Q 12.109375 48.4375 14.84375 44.921875 
Q 17.578125 41.40625 23.4375 41.40625 
Q 29.296875 41.40625 32.21875 44.921875 
Q 35.15625 48.4375 34.953125 53.3125 
Q 34.765625 58.203125 31.4375 60.546875 
Q 28.125 62.890625 22.453125 62.5 
Q 16.796875 62.109375 14.453125 59.171875 
Q 12.109375 56.25 12.109375 48.4375 
z
" id="SimHei-56"/>
      </defs>
      <g style="fill:#262626;" transform="translate(218.558442 268.165909)scale(0.1 -0.1)">
       <use xlink:href="#SimHei-50"/>
       <use x="50" xlink:href="#SimHei-48"/>
       <use x="100" xlink:href="#SimHei-49"/>
       <use x="150" xlink:href="#SimHei-55"/>
       <use x="200" xlink:href="#SimHei-45"/>
       <use x="250" xlink:href="#SimHei-49"/>
       <use x="300" xlink:href="#SimHei-49"/>
       <use x="350" xlink:href="#SimHei-45"/>
       <use x="400" xlink:href="#SimHei-50"/>
       <use x="450" xlink:href="#SimHei-56"/>
      </g>
     </g>
    </g>
    <g id="xtick_4">
     <g id="line2d_4">
      <path clip-path="url(#p82ad8c917e)" d="M 330.519481 254.290909 
L 330.519481 7.2 
" style="fill:none;stroke:#ffffff;stroke-linecap:round;stroke-width:0.8;"/>
     </g>
     <g id="text_4">
      <!-- 2017-11-29 -->
      <defs>
       <path d="M 12.5 1.171875 
Q 21.09375 15.625 26.5625 27.34375 
Q 16.796875 25.78125 10.34375 29.875 
Q 3.90625 33.984375 2.53125 41.015625 
Q 1.171875 48.046875 2.734375 53.703125 
Q 4.296875 59.375 7.609375 63.078125 
Q 10.9375 66.796875 15.625 68.359375 
Q 20.3125 69.921875 24.015625 69.921875 
Q 27.734375 69.921875 31.640625 68.359375 
Q 35.546875 66.796875 38.671875 63.671875 
Q 41.796875 60.546875 42.96875 57.21875 
Q 44.140625 53.90625 44.140625 48.625 
Q 44.140625 43.359375 40.234375 35.15625 
Q 36.328125 26.953125 21.09375 1.171875 
z
M 9.765625 50 
Q 10.9375 39.84375 14.640625 36.515625 
Q 18.359375 33.203125 22.65625 33.59375 
Q 26.953125 33.984375 29.484375 35.9375 
Q 32.03125 37.890625 34.375 42.578125 
Q 35.9375 48.4375 35.15625 52.53125 
Q 34.375 56.640625 31.046875 59.375 
Q 27.734375 62.109375 23.828125 62.109375 
Q 21.484375 62.5 17.765625 60.9375 
Q 14.0625 59.375 11.90625 54.6875 
Q 9.765625 50 10.9375 39.84375 
z
" id="SimHei-57"/>
      </defs>
      <g style="fill:#262626;" transform="translate(305.519481 268.165909)scale(0.1 -0.1)">
       <use xlink:href="#SimHei-50"/>
       <use x="50" xlink:href="#SimHei-48"/>
       <use x="100" xlink:href="#SimHei-49"/>
       <use x="150" xlink:href="#SimHei-55"/>
       <use x="200" xlink:href="#SimHei-45"/>
       <use x="250" xlink:href="#SimHei-49"/>
       <use x="300" xlink:href="#SimHei-49"/>
       <use x="350" xlink:href="#SimHei-45"/>
       <use x="400" xlink:href="#SimHei-50"/>
       <use x="450" xlink:href="#SimHei-57"/>
      </g>
     </g>
    </g>
    <g id="xtick_5">
     <g id="line2d_5">
      <path clip-path="url(#p82ad8c917e)" d="M 417.480519 254.290909 
L 417.480519 7.2 
" style="fill:none;stroke:#ffffff;stroke-linecap:round;stroke-width:0.8;"/>
     </g>
     <g id="text_5">
      <!-- 2017-11-30 -->
      <defs>
       <path d="M 3.90625 19.140625 
L 10.9375 20.3125 
Q 12.5 15.234375 16.015625 11.90625 
Q 19.53125 8.59375 24.796875 8.78125 
Q 30.078125 8.984375 33.203125 13.078125 
Q 36.328125 17.1875 35.9375 22.453125 
Q 35.546875 27.734375 31.828125 30.65625 
Q 28.125 33.59375 19.921875 34.765625 
L 19.921875 39.84375 
Q 28.125 40.625 31.828125 44.140625 
Q 35.546875 47.65625 35.15625 53.3125 
Q 34.765625 58.984375 30.078125 61.515625 
Q 25.390625 64.0625 20.109375 62.109375 
Q 14.84375 60.15625 11.71875 51.171875 
L 4.6875 52.34375 
Q 7.03125 59.375 11.125 64.0625 
Q 15.234375 68.75 22.265625 69.53125 
Q 29.296875 70.3125 34.5625 67.765625 
Q 39.84375 65.234375 41.984375 59.953125 
Q 44.140625 54.6875 42.578125 48.4375 
Q 41.015625 42.1875 33.59375 37.5 
Q 39.0625 35.15625 41.984375 30.46875 
Q 44.921875 25.78125 43.9375 18.15625 
Q 42.96875 10.546875 37.109375 5.859375 
Q 31.25 1.171875 23.828125 1.359375 
Q 16.40625 1.5625 10.9375 6.046875 
Q 5.46875 10.546875 3.90625 19.140625 
z
" id="SimHei-51"/>
      </defs>
      <g style="fill:#262626;" transform="translate(392.480519 268.165909)scale(0.1 -0.1)">
       <use xlink:href="#SimHei-50"/>
       <use x="50" xlink:href="#SimHei-48"/>
       <use x="100" xlink:href="#SimHei-49"/>
       <use x="150" xlink:href="#SimHei-55"/>
       <use x="200" xlink:href="#SimHei-45"/>
       <use x="250" xlink:href="#SimHei-49"/>
       <use x="300" xlink:href="#SimHei-49"/>
       <use x="350" xlink:href="#SimHei-45"/>
       <use x="400" xlink:href="#SimHei-51"/>
       <use x="450" xlink:href="#SimHei-48"/>
      </g>
     </g>
    </g>
    <g id="xtick_6">
     <g id="line2d_6">
      <path clip-path="url(#p82ad8c917e)" d="M 504.441558 254.290909 
L 504.441558 7.2 
" style="fill:none;stroke:#ffffff;stroke-linecap:round;stroke-width:0.8;"/>
     </g>
     <g id="text_6">
      <!-- 2017-12-01 -->
      <g style="fill:#262626;" transform="translate(479.441558 268.165909)scale(0.1 -0.1)">
       <use xlink:href="#SimHei-50"/>
       <use x="50" xlink:href="#SimHei-48"/>
       <use x="100" xlink:href="#SimHei-49"/>
       <use x="150" xlink:href="#SimHei-55"/>
       <use x="200" xlink:href="#SimHei-45"/>
       <use x="250" xlink:href="#SimHei-49"/>
       <use x="300" xlink:href="#SimHei-50"/>
       <use x="350" xlink:href="#SimHei-45"/>
       <use x="400" xlink:href="#SimHei-48"/>
       <use x="450" xlink:href="#SimHei-49"/>
      </g>
     </g>
    </g>
    <g id="xtick_7">
     <g id="line2d_7">
      <path clip-path="url(#p82ad8c917e)" d="M 591.402597 254.290909 
L 591.402597 7.2 
" style="fill:none;stroke:#ffffff;stroke-linecap:round;stroke-width:0.8;"/>
     </g>
     <g id="text_7">
      <!-- 2017-12-02 -->
      <g style="fill:#262626;" transform="translate(566.402597 268.165909)scale(0.1 -0.1)">
       <use xlink:href="#SimHei-50"/>
       <use x="50" xlink:href="#SimHei-48"/>
       <use x="100" xlink:href="#SimHei-49"/>
       <use x="150" xlink:href="#SimHei-55"/>
       <use x="200" xlink:href="#SimHei-45"/>
       <use x="250" xlink:href="#SimHei-49"/>
       <use x="300" xlink:href="#SimHei-50"/>
       <use x="350" xlink:href="#SimHei-45"/>
       <use x="400" xlink:href="#SimHei-48"/>
       <use x="450" xlink:href="#SimHei-50"/>
      </g>
     </g>
    </g>
    <g id="xtick_8">
     <g id="line2d_8">
      <path clip-path="url(#p82ad8c917e)" d="M 678.363636 254.290909 
L 678.363636 7.2 
" style="fill:none;stroke:#ffffff;stroke-linecap:round;stroke-width:0.8;"/>
     </g>
     <g id="text_8">
      <!-- 2017-12-03 -->
      <g style="fill:#262626;" transform="translate(653.363636 268.165909)scale(0.1 -0.1)">
       <use xlink:href="#SimHei-50"/>
       <use x="50" xlink:href="#SimHei-48"/>
       <use x="100" xlink:href="#SimHei-49"/>
       <use x="150" xlink:href="#SimHei-55"/>
       <use x="200" xlink:href="#SimHei-45"/>
       <use x="250" xlink:href="#SimHei-49"/>
       <use x="300" xlink:href="#SimHei-50"/>
       <use x="350" xlink:href="#SimHei-45"/>
       <use x="400" xlink:href="#SimHei-48"/>
       <use x="450" xlink:href="#SimHei-51"/>
      </g>
     </g>
    </g>
    <g id="text_9">
     <!-- timestamp -->
     <defs>
      <path d="M 42.96875 3.125 
Q 41.015625 2.34375 38.46875 1.75 
Q 35.9375 1.171875 31.640625 1.171875 
Q 24.609375 1.171875 20.3125 5.078125 
Q 16.015625 8.984375 16.015625 16.015625 
L 16.015625 39.453125 
L 2.734375 39.453125 
L 2.734375 45.703125 
L 16.015625 45.703125 
L 16.015625 60.9375 
L 23.828125 60.9375 
L 23.828125 45.703125 
L 39.84375 45.703125 
L 39.84375 39.453125 
L 23.828125 39.453125 
L 23.828125 15.625 
Q 23.828125 12.5 25.390625 10.34375 
Q 26.953125 8.203125 31.25 8.203125 
Q 35.546875 8.203125 38.28125 8.984375 
Q 41.015625 9.765625 42.96875 10.9375 
z
" id="SimHei-116"/>
      <path d="M 28.125 58.203125 
L 20.3125 58.203125 
L 20.3125 68.359375 
L 28.125 68.359375 
z
M 28.125 1.953125 
L 20.3125 1.953125 
L 20.3125 45.703125 
L 28.125 45.703125 
z
" id="SimHei-105"/>
      <path d="M 47.65625 1.953125 
L 39.84375 1.953125 
L 39.84375 33.59375 
Q 39.84375 35.9375 39.0625 37.5 
Q 38.28125 39.0625 35.9375 39.0625 
Q 33.203125 39.0625 30.859375 36.125 
Q 28.515625 33.203125 28.515625 28.515625 
L 28.515625 1.953125 
L 20.703125 1.953125 
L 20.703125 33.59375 
Q 20.703125 35.9375 19.921875 37.5 
Q 19.140625 39.0625 16.796875 39.0625 
Q 14.0625 39.0625 11.71875 36.125 
Q 9.375 33.203125 9.375 28.515625 
L 9.375 1.953125 
L 1.5625 1.953125 
L 1.5625 45.703125 
L 9.375 45.703125 
L 9.375 39.84375 
Q 11.328125 42.96875 14.0625 44.71875 
Q 16.796875 46.484375 19.921875 46.484375 
Q 23.046875 46.484375 25.1875 44.71875 
Q 27.34375 42.96875 28.125 39.84375 
Q 30.078125 42.96875 32.609375 44.71875 
Q 35.15625 46.484375 38.28125 46.484375 
Q 42.96875 46.484375 45.3125 43.9375 
Q 47.65625 41.40625 47.65625 36.71875 
z
" id="SimHei-109"/>
      <path d="M 44.53125 16.796875 
Q 43.75 9.765625 38.28125 5.46875 
Q 32.8125 1.171875 25.390625 1.171875 
Q 16.015625 1.171875 9.953125 7.21875 
Q 3.90625 13.28125 3.90625 23.828125 
Q 3.90625 34.375 9.953125 40.421875 
Q 16.015625 46.484375 25.390625 46.484375 
Q 33.59375 46.484375 38.859375 41.203125 
Q 44.140625 35.9375 44.140625 23.828125 
L 12.5 23.828125 
Q 12.5 15.234375 16.203125 11.71875 
Q 19.921875 8.203125 25.390625 8.203125 
Q 29.6875 8.203125 32.421875 10.34375 
Q 35.15625 12.5 35.9375 16.796875 
z
M 35.15625 30.078125 
Q 34.375 35.546875 31.640625 37.6875 
Q 28.90625 39.84375 24.609375 39.84375 
Q 20.703125 39.84375 17.578125 37.6875 
Q 14.453125 35.546875 12.890625 30.078125 
z
" id="SimHei-101"/>
      <path d="M 42.96875 14.0625 
Q 42.96875 7.8125 38.078125 4.484375 
Q 33.203125 1.171875 25.78125 1.171875 
Q 16.40625 1.171875 11.328125 4.875 
Q 6.25 8.59375 6.25 15.625 
L 14.0625 15.625 
Q 14.0625 10.9375 17.375 9.375 
Q 20.703125 7.8125 25.390625 7.8125 
Q 30.078125 7.8125 32.421875 9.5625 
Q 34.765625 11.328125 34.765625 14.0625 
Q 34.765625 16.015625 32.8125 17.96875 
Q 30.859375 19.921875 23.046875 21.09375 
Q 14.0625 22.265625 10.734375 25.578125 
Q 7.421875 28.90625 7.421875 34.375 
Q 7.421875 39.0625 11.90625 42.765625 
Q 16.40625 46.484375 25 46.484375 
Q 32.8125 46.484375 37.296875 42.96875 
Q 41.796875 39.453125 41.796875 33.59375 
L 33.984375 33.59375 
Q 33.984375 37.109375 31.4375 38.46875 
Q 28.90625 39.84375 25 39.84375 
Q 19.921875 39.84375 17.765625 38.078125 
Q 15.625 36.328125 15.625 33.984375 
Q 15.625 31.25 17.578125 29.6875 
Q 19.53125 28.125 25.78125 27.34375 
Q 35.9375 25.78125 39.453125 22.453125 
Q 42.96875 19.140625 42.96875 14.0625 
z
" id="SimHei-115"/>
      <path d="M 44.921875 1.953125 
L 35.546875 1.953125 
Q 34.765625 2.734375 34.375 4.09375 
Q 33.984375 5.46875 33.984375 7.421875 
Q 31.25 4.296875 27.34375 2.734375 
Q 23.4375 1.171875 19.140625 1.171875 
Q 12.890625 1.171875 8.59375 4.296875 
Q 4.296875 7.421875 4.296875 13.28125 
Q 4.296875 19.140625 8.203125 22.65625 
Q 12.109375 26.171875 20.3125 27.34375 
Q 25.78125 28.125 29.875 29.296875 
Q 33.984375 30.46875 33.984375 32.421875 
Q 33.984375 34.765625 32.21875 37.109375 
Q 30.46875 39.453125 24.609375 39.453125 
Q 19.921875 39.453125 17.765625 37.6875 
Q 15.625 35.9375 14.84375 32.8125 
L 6.25 32.8125 
Q 7.03125 39.0625 11.90625 42.765625 
Q 16.796875 46.484375 24.609375 46.484375 
Q 33.203125 46.484375 37.5 42.578125 
Q 41.796875 38.671875 41.796875 31.640625 
L 41.796875 10.15625 
Q 41.796875 7.8125 42.578125 5.859375 
Q 43.359375 3.90625 44.921875 1.953125 
z
M 33.984375 16.40625 
L 33.984375 24.21875 
Q 31.640625 23.4375 29.484375 22.84375 
Q 27.34375 22.265625 22.265625 21.484375 
Q 16.40625 20.703125 14.640625 18.75 
Q 12.890625 16.796875 12.890625 14.0625 
Q 12.890625 11.71875 14.640625 9.953125 
Q 16.40625 8.203125 19.921875 8.203125 
Q 23.4375 8.203125 27.53125 10.15625 
Q 31.640625 12.109375 33.984375 16.40625 
z
" id="SimHei-97"/>
      <path d="M 44.140625 23.828125 
Q 44.140625 12.5 38.671875 6.640625 
Q 33.203125 0.78125 25.390625 0.78125 
Q 21.09375 0.78125 17.96875 2.53125 
Q 14.84375 4.296875 12.5 7.8125 
L 12.5 -12.5 
L 4.6875 -12.5 
L 4.6875 45.703125 
L 12.5 45.703125 
L 12.5 39.84375 
Q 14.84375 43.359375 17.96875 44.921875 
Q 21.09375 46.484375 25.390625 46.484375 
Q 33.203125 46.484375 38.671875 40.8125 
Q 44.140625 35.15625 44.140625 23.828125 
z
M 35.546875 23.828125 
Q 35.546875 31.25 32.609375 35.34375 
Q 29.6875 39.453125 23.828125 39.453125 
Q 19.140625 39.453125 15.8125 35.34375 
Q 12.5 31.25 12.5 23.828125 
Q 12.5 16.40625 15.8125 12.109375 
Q 19.140625 7.8125 23.828125 7.8125 
Q 29.6875 7.8125 32.609375 12.109375 
Q 35.546875 16.40625 35.546875 23.828125 
z
" id="SimHei-112"/>
     </defs>
     <g style="fill:#262626;" transform="translate(351.5 280.290909)scale(0.1 -0.1)">
      <use xlink:href="#SimHei-116"/>
      <use x="50" xlink:href="#SimHei-105"/>
      <use x="100" xlink:href="#SimHei-109"/>
      <use x="150" xlink:href="#SimHei-101"/>
      <use x="200" xlink:href="#SimHei-115"/>
      <use x="250" xlink:href="#SimHei-116"/>
      <use x="300" xlink:href="#SimHei-97"/>
      <use x="350" xlink:href="#SimHei-109"/>
      <use x="400" xlink:href="#SimHei-112"/>
     </g>
    </g>
   </g>
   <g id="matplotlib.axis_2">
    <g id="ytick_1">
     <g id="line2d_9">
      <path clip-path="url(#p82ad8c917e)" d="M 39.2 212.179366 
L 708.8 212.179366 
" style="fill:none;stroke:#ffffff;stroke-linecap:round;stroke-width:0.8;"/>
     </g>
     <g id="text_10">
      <!-- -0.1 -->
      <defs>
       <path d="M 16.796875 1.953125 
L 7.8125 1.953125 
L 7.8125 10.546875 
L 16.796875 10.546875 
z
" id="SimHei-46"/>
      </defs>
      <g style="fill:#262626;" transform="translate(12.2 215.616866)scale(0.1 -0.1)">
       <use xlink:href="#SimHei-45"/>
       <use x="50" xlink:href="#SimHei-48"/>
       <use x="100" xlink:href="#SimHei-46"/>
       <use x="150" xlink:href="#SimHei-49"/>
      </g>
     </g>
    </g>
    <g id="ytick_2">
     <g id="line2d_10">
      <path clip-path="url(#p82ad8c917e)" d="M 39.2 162.372692 
L 708.8 162.372692 
" style="fill:none;stroke:#ffffff;stroke-linecap:round;stroke-width:0.8;"/>
     </g>
     <g id="text_11">
      <!-- 0.0 -->
      <g style="fill:#262626;" transform="translate(17.2 165.810192)scale(0.1 -0.1)">
       <use xlink:href="#SimHei-48"/>
       <use x="50" xlink:href="#SimHei-46"/>
       <use x="100" xlink:href="#SimHei-48"/>
      </g>
     </g>
    </g>
    <g id="ytick_3">
     <g id="line2d_11">
      <path clip-path="url(#p82ad8c917e)" d="M 39.2 112.566019 
L 708.8 112.566019 
" style="fill:none;stroke:#ffffff;stroke-linecap:round;stroke-width:0.8;"/>
     </g>
     <g id="text_12">
      <!-- 0.1 -->
      <g style="fill:#262626;" transform="translate(17.2 116.003519)scale(0.1 -0.1)">
       <use xlink:href="#SimHei-48"/>
       <use x="50" xlink:href="#SimHei-46"/>
       <use x="100" xlink:href="#SimHei-49"/>
      </g>
     </g>
    </g>
    <g id="ytick_4">
     <g id="line2d_12">
      <path clip-path="url(#p82ad8c917e)" d="M 39.2 62.759345 
L 708.8 62.759345 
" style="fill:none;stroke:#ffffff;stroke-linecap:round;stroke-width:0.8;"/>
     </g>
     <g id="text_13">
      <!-- 0.2 -->
      <g style="fill:#262626;" transform="translate(17.2 66.196845)scale(0.1 -0.1)">
       <use xlink:href="#SimHei-48"/>
       <use x="50" xlink:href="#SimHei-46"/>
       <use x="100" xlink:href="#SimHei-50"/>
      </g>
     </g>
    </g>
    <g id="ytick_5">
     <g id="line2d_13">
      <path clip-path="url(#p82ad8c917e)" d="M 39.2 12.952671 
L 708.8 12.952671 
" style="fill:none;stroke:#ffffff;stroke-linecap:round;stroke-width:0.8;"/>
     </g>
     <g id="text_14">
      <!-- 0.3 -->
      <g style="fill:#262626;" transform="translate(17.2 16.390171)scale(0.1 -0.1)">
       <use xlink:href="#SimHei-48"/>
       <use x="50" xlink:href="#SimHei-46"/>
       <use x="100" xlink:href="#SimHei-51"/>
      </g>
     </g>
    </g>
   </g>
   <g id="line2d_14">
    <path clip-path="url(#p82ad8c917e)" d="M 69.636364 129.998354 
L 156.597403 152.909424 
L 243.558442 177.314695 
L 330.519481 135.975155 
L 417.480519 164.364959 
L 504.441558 183.291495 
L 591.402597 53.296077 
L 678.363636 208.692899 
" style="fill:none;stroke:#1f77b4;stroke-linecap:round;stroke-width:1.5;"/>
   </g>
   <g id="line2d_15">
    <path clip-path="url(#p82ad8c917e)" d="M 69.636364 156.893958 
L 156.597403 193.750897 
L 243.558442 167.35336 
L 330.519481 142.94809 
L 417.480519 145.93649 
L 504.441558 102.106617 
L 591.402597 38.852141 
L 678.363636 239.573037 
" style="fill:none;stroke:#ff7f0e;stroke-linecap:round;stroke-width:1.5;"/>
   </g>
   <g id="line2d_16">
    <path clip-path="url(#p82ad8c917e)" d="M 69.636364 162.372692 
L 156.597403 188.77023 
L 243.558442 162.372692 
L 330.519481 144.940357 
L 417.480519 154.403625 
L 504.441558 146.434557 
L 591.402597 18.431405 
L 678.363636 243.059504 
" style="fill:none;stroke:#2ca02c;stroke-linecap:round;stroke-width:1.5;"/>
   </g>
   <g id="line2d_17">
    <path clip-path="url(#p82ad8c917e)" d="M 69.636364 160.380426 
L 156.597403 189.268296 
L 243.558442 168.84756 
L 330.519481 140.457756 
L 417.480519 151.415224 
L 504.441558 132.986755 
L 591.402597 39.350208 
L 678.363636 233.098169 
" style="fill:none;stroke:#d62728;stroke-linecap:round;stroke-width:1.5;"/>
   </g>
   <g id="patch_3">
    <path d="M 39.2 254.290909 
L 39.2 7.2 
" style="fill:none;stroke:#ffffff;stroke-linecap:square;stroke-linejoin:miter;stroke-width:0.8;"/>
   </g>
   <g id="patch_4">
    <path d="M 708.8 254.290909 
L 708.8 7.2 
" style="fill:none;stroke:#ffffff;stroke-linecap:square;stroke-linejoin:miter;stroke-width:0.8;"/>
   </g>
   <g id="patch_5">
    <path d="M 39.2 254.290909 
L 708.8 254.290909 
" style="fill:none;stroke:#ffffff;stroke-linecap:square;stroke-linejoin:miter;stroke-width:0.8;"/>
   </g>
   <g id="patch_6">
    <path d="M 39.2 7.2 
L 708.8 7.2 
" style="fill:none;stroke:#ffffff;stroke-linecap:square;stroke-linejoin:miter;stroke-width:0.8;"/>
   </g>
   <g id="legend_1">
    <g id="patch_7">
     <path d="M 632.8 81.325 
L 701.8 81.325 
Q 703.8 81.325 703.8 79.325 
L 703.8 14.2 
Q 703.8 12.2 701.8 12.2 
L 632.8 12.2 
Q 630.8 12.2 630.8 14.2 
L 630.8 79.325 
Q 630.8 81.325 632.8 81.325 
z
" style="fill:#eaeaf2;opacity:0.8;stroke:#cccccc;stroke-linejoin:miter;"/>
    </g>
    <g id="text_15">
     <!-- behavior type -->
     <defs>
      <path d="M 44.140625 23.828125 
Q 44.140625 12.5 38.671875 6.828125 
Q 33.203125 1.171875 25.390625 1.171875 
Q 21.09375 1.171875 17.96875 2.734375 
Q 14.84375 4.296875 12.5 7.8125 
L 12.5 1.953125 
L 4.6875 1.953125 
L 4.6875 68.75 
L 12.5 68.75 
L 12.5 39.84375 
Q 14.84375 43.359375 17.96875 45.109375 
Q 21.09375 46.875 25.390625 46.875 
Q 33.203125 46.875 38.671875 41.015625 
Q 44.140625 35.15625 44.140625 23.828125 
z
M 35.546875 23.828125 
Q 35.546875 31.25 32.609375 35.546875 
Q 29.6875 39.84375 23.828125 39.84375 
Q 19.140625 39.84375 15.8125 35.546875 
Q 12.5 31.25 12.5 23.828125 
Q 12.5 16.40625 15.8125 12.296875 
Q 19.140625 8.203125 23.828125 8.203125 
Q 29.6875 8.203125 32.609375 12.296875 
Q 35.546875 16.40625 35.546875 23.828125 
z
" id="SimHei-98"/>
      <path d="M 43.75 1.953125 
L 35.9375 1.953125 
L 35.9375 30.078125 
Q 35.9375 34.765625 33.59375 37.5 
Q 31.25 40.234375 27.34375 40.234375 
Q 22.265625 40.234375 17.765625 34.953125 
Q 13.28125 29.6875 13.28125 21.875 
L 13.28125 1.953125 
L 5.46875 1.953125 
L 5.46875 68.75 
L 13.28125 68.75 
L 13.28125 37.5 
Q 16.40625 41.796875 20.109375 44.140625 
Q 23.828125 46.484375 29.6875 46.484375 
Q 36.71875 46.484375 40.234375 42.578125 
Q 43.75 38.671875 43.75 32.8125 
z
" id="SimHei-104"/>
      <path d="M 44.921875 45.703125 
L 28.515625 1.171875 
L 19.921875 1.171875 
L 3.515625 45.703125 
L 11.71875 45.703125 
L 23.828125 11.71875 
L 24.609375 11.71875 
L 36.71875 45.703125 
z
" id="SimHei-118"/>
      <path d="M 45.703125 23.828125 
Q 45.703125 13.671875 39.453125 7.421875 
Q 33.203125 1.171875 24.609375 1.171875 
Q 16.015625 1.171875 9.765625 7.421875 
Q 3.515625 13.671875 3.515625 23.828125 
Q 3.515625 33.984375 9.765625 40.234375 
Q 16.015625 46.484375 24.609375 46.484375 
Q 33.203125 46.484375 39.453125 40.234375 
Q 45.703125 33.984375 45.703125 23.828125 
z
M 37.109375 23.828125 
Q 37.109375 31.640625 33.203125 35.546875 
Q 29.296875 39.453125 24.609375 39.453125 
Q 19.921875 39.453125 16.015625 35.546875 
Q 12.109375 31.640625 12.109375 23.828125 
Q 12.109375 16.015625 16.015625 12.109375 
Q 19.921875 8.203125 24.609375 8.203125 
Q 29.296875 8.203125 33.203125 12.109375 
Q 37.109375 16.015625 37.109375 23.828125 
z
" id="SimHei-111"/>
      <path d="M 39.0625 37.890625 
Q 31.640625 39.0625 26.5625 35.734375 
Q 21.484375 32.421875 17.96875 24.21875 
L 17.96875 1.953125 
L 10.15625 1.953125 
L 10.15625 45.703125 
L 17.96875 45.703125 
L 17.96875 34.375 
Q 21.484375 40.625 26.75 43.546875 
Q 32.03125 46.484375 39.0625 46.484375 
z
" id="SimHei-114"/>
      <path id="SimHei-32"/>
      <path d="M 45.3125 45.703125 
L 27.34375 -1.5625 
Q 25.78125 -7.03125 22.65625 -9.765625 
Q 19.53125 -12.5 14.84375 -12.5 
Q 12.890625 -12.5 11.125 -12.296875 
Q 9.375 -12.109375 7.8125 -11.328125 
L 7.8125 -3.515625 
Q 9.375 -4.296875 10.9375 -4.6875 
Q 12.5 -5.078125 13.671875 -5.078125 
Q 16.796875 -5.078125 17.96875 -4.09375 
Q 19.140625 -3.125 20.3125 0.390625 
L 3.125 45.703125 
L 11.71875 45.703125 
L 24.21875 11.328125 
L 24.609375 11.328125 
L 36.71875 45.703125 
z
" id="SimHei-121"/>
     </defs>
     <g style="fill:#262626;" transform="translate(634.8 23.075)scale(0.1 -0.1)">
      <use xlink:href="#SimHei-98"/>
      <use x="50" xlink:href="#SimHei-101"/>
      <use x="100" xlink:href="#SimHei-104"/>
      <use x="150" xlink:href="#SimHei-97"/>
      <use x="200" xlink:href="#SimHei-118"/>
      <use x="250" xlink:href="#SimHei-105"/>
      <use x="300" xlink:href="#SimHei-111"/>
      <use x="350" xlink:href="#SimHei-114"/>
      <use x="400" xlink:href="#SimHei-32"/>
      <use x="450" xlink:href="#SimHei-116"/>
      <use x="500" xlink:href="#SimHei-121"/>
      <use x="550" xlink:href="#SimHei-112"/>
      <use x="600" xlink:href="#SimHei-101"/>
     </g>
    </g>
    <g id="line2d_18">
     <path d="M 643.3 32.825 
L 663.3 32.825 
" style="fill:none;stroke:#1f77b4;stroke-linecap:round;stroke-width:1.5;"/>
    </g>
    <g id="line2d_19"/>
    <g id="text_16">
     <!-- buy -->
     <defs>
      <path d="M 43.75 1.953125 
L 35.9375 1.953125 
L 35.9375 10.15625 
Q 32.8125 5.859375 29.09375 3.515625 
Q 25.390625 1.171875 19.53125 1.171875 
Q 12.5 1.171875 8.984375 5.078125 
Q 5.46875 8.984375 5.46875 14.84375 
L 5.46875 45.703125 
L 13.28125 45.703125 
L 13.28125 17.578125 
Q 13.28125 12.890625 15.625 10.15625 
Q 17.96875 7.421875 21.875 7.421875 
Q 26.953125 7.421875 31.4375 12.6875 
Q 35.9375 17.96875 35.9375 25.78125 
L 35.9375 45.703125 
L 43.75 45.703125 
z
" id="SimHei-117"/>
     </defs>
     <g style="fill:#262626;" transform="translate(671.3 36.325)scale(0.1 -0.1)">
      <use xlink:href="#SimHei-98"/>
      <use x="50" xlink:href="#SimHei-117"/>
      <use x="100" xlink:href="#SimHei-121"/>
     </g>
    </g>
    <g id="line2d_20">
     <path d="M 643.3 46.075 
L 663.3 46.075 
" style="fill:none;stroke:#ff7f0e;stroke-linecap:round;stroke-width:1.5;"/>
    </g>
    <g id="line2d_21"/>
    <g id="text_17">
     <!-- cart -->
     <defs>
      <path d="M 44.53125 19.53125 
Q 44.53125 11.328125 38.859375 6.25 
Q 33.203125 1.171875 24.609375 1.171875 
Q 16.015625 1.171875 9.765625 7.21875 
Q 3.515625 13.28125 3.515625 23.828125 
Q 3.515625 34.375 9.765625 40.421875 
Q 16.015625 46.484375 24.609375 46.484375 
Q 33.203125 46.484375 38.28125 41.984375 
Q 43.359375 37.5 43.359375 31.25 
L 34.765625 31.25 
Q 34.375 35.9375 31.4375 37.6875 
Q 28.515625 39.453125 24.609375 39.453125 
Q 19.921875 39.453125 16.015625 35.734375 
Q 12.109375 32.03125 12.109375 23.828125 
Q 12.109375 15.625 16.015625 11.90625 
Q 19.921875 8.203125 24.609375 8.203125 
Q 29.6875 8.203125 32.8125 10.9375 
Q 35.9375 13.671875 35.9375 19.53125 
z
" id="SimHei-99"/>
     </defs>
     <g style="fill:#262626;" transform="translate(671.3 49.575)scale(0.1 -0.1)">
      <use xlink:href="#SimHei-99"/>
      <use x="50" xlink:href="#SimHei-97"/>
      <use x="100" xlink:href="#SimHei-114"/>
      <use x="150" xlink:href="#SimHei-116"/>
     </g>
    </g>
    <g id="line2d_22">
     <path d="M 643.3 59.325 
L 663.3 59.325 
" style="fill:none;stroke:#2ca02c;stroke-linecap:round;stroke-width:1.5;"/>
    </g>
    <g id="line2d_23"/>
    <g id="text_18">
     <!-- fav -->
     <defs>
      <path d="M 44.53125 59.765625 
Q 42.578125 60.9375 39.84375 61.71875 
Q 37.109375 62.5 32.8125 62.5 
Q 28.515625 62.5 26.953125 60.34375 
Q 25.390625 58.203125 25.390625 55.078125 
L 25.390625 45.703125 
L 41.40625 45.703125 
L 41.40625 39.453125 
L 25.390625 39.453125 
L 25.390625 1.953125 
L 17.578125 1.953125 
L 17.578125 39.453125 
L 4.296875 39.453125 
L 4.296875 45.703125 
L 17.578125 45.703125 
L 17.578125 54.6875 
Q 17.578125 61.71875 21.875 65.625 
Q 26.171875 69.53125 33.203125 69.53125 
Q 37.5 69.53125 40.03125 68.9375 
Q 42.578125 68.359375 44.53125 67.578125 
z
" id="SimHei-102"/>
     </defs>
     <g style="fill:#262626;" transform="translate(671.3 62.825)scale(0.1 -0.1)">
      <use xlink:href="#SimHei-102"/>
      <use x="50" xlink:href="#SimHei-97"/>
      <use x="100" xlink:href="#SimHei-118"/>
     </g>
    </g>
    <g id="line2d_24">
     <path d="M 643.3 72.575 
L 663.3 72.575 
" style="fill:none;stroke:#d62728;stroke-linecap:round;stroke-width:1.5;"/>
    </g>
    <g id="line2d_25"/>
    <g id="text_19">
     <!-- pv -->
     <g style="fill:#262626;" transform="translate(671.3 76.075)scale(0.1 -0.1)">
      <use xlink:href="#SimHei-112"/>
      <use x="50" xlink:href="#SimHei-118"/>
     </g>
    </g>
   </g>
  </g>
  <g id="axes_2">
   <g id="patch_8">
    <path d="M 39.2 550.8 
L 708.8 550.8 
L 708.8 303.709091 
L 39.2 303.709091 
z
" style="fill:#eaeaf2;"/>
   </g>
   <g id="matplotlib.axis_3">
    <g id="xtick_9">
     <g id="line2d_26">
      <path clip-path="url(#pb1f41a563e)" d="M 41.966942 550.8 
L 41.966942 303.709091 
" style="fill:none;stroke:#ffffff;stroke-linecap:round;stroke-width:0.8;"/>
     </g>
     <g id="text_20">
      <!-- 0 -->
      <g style="fill:#262626;" transform="translate(39.466942 564.675)scale(0.1 -0.1)">
       <use xlink:href="#SimHei-48"/>
      </g>
     </g>
    </g>
    <g id="xtick_10">
     <g id="line2d_27">
      <path clip-path="url(#pb1f41a563e)" d="M 69.636364 550.8 
L 69.636364 303.709091 
" style="fill:none;stroke:#ffffff;stroke-linecap:round;stroke-width:0.8;"/>
     </g>
     <g id="text_21">
      <!-- 1 -->
      <g style="fill:#262626;" transform="translate(67.136364 564.675)scale(0.1 -0.1)">
       <use xlink:href="#SimHei-49"/>
      </g>
     </g>
    </g>
    <g id="xtick_11">
     <g id="line2d_28">
      <path clip-path="url(#pb1f41a563e)" d="M 97.305785 550.8 
L 97.305785 303.709091 
" style="fill:none;stroke:#ffffff;stroke-linecap:round;stroke-width:0.8;"/>
     </g>
     <g id="text_22">
      <!-- 2 -->
      <g style="fill:#262626;" transform="translate(94.805785 564.675)scale(0.1 -0.1)">
       <use xlink:href="#SimHei-50"/>
      </g>
     </g>
    </g>
    <g id="xtick_12">
     <g id="line2d_29">
      <path clip-path="url(#pb1f41a563e)" d="M 124.975207 550.8 
L 124.975207 303.709091 
" style="fill:none;stroke:#ffffff;stroke-linecap:round;stroke-width:0.8;"/>
     </g>
     <g id="text_23">
      <!-- 3 -->
      <g style="fill:#262626;" transform="translate(122.475207 564.675)scale(0.1 -0.1)">
       <use xlink:href="#SimHei-51"/>
      </g>
     </g>
    </g>
    <g id="xtick_13">
     <g id="line2d_30">
      <path clip-path="url(#pb1f41a563e)" d="M 152.644628 550.8 
L 152.644628 303.709091 
" style="fill:none;stroke:#ffffff;stroke-linecap:round;stroke-width:0.8;"/>
     </g>
     <g id="text_24">
      <!-- 4 -->
      <defs>
       <path d="M 31.25 17.1875 
L 1.171875 17.1875 
L 1.171875 23.828125 
L 32.8125 69.53125 
L 38.671875 69.53125 
L 38.671875 23.828125 
L 48.046875 23.828125 
L 48.046875 17.1875 
L 38.671875 17.1875 
L 38.671875 2.34375 
L 31.25 2.34375 
z
M 31.25 23.828125 
L 31.25 54.6875 
L 9.375 23.828125 
z
" id="SimHei-52"/>
      </defs>
      <g style="fill:#262626;" transform="translate(150.144628 564.675)scale(0.1 -0.1)">
       <use xlink:href="#SimHei-52"/>
      </g>
     </g>
    </g>
    <g id="xtick_14">
     <g id="line2d_31">
      <path clip-path="url(#pb1f41a563e)" d="M 180.31405 550.8 
L 180.31405 303.709091 
" style="fill:none;stroke:#ffffff;stroke-linecap:round;stroke-width:0.8;"/>
     </g>
     <g id="text_25">
      <!-- 5 -->
      <defs>
       <path d="M 8.59375 20.703125 
Q 11.328125 10.15625 17.96875 8.984375 
Q 24.609375 7.8125 28.703125 10.34375 
Q 32.8125 12.890625 34.5625 16.984375 
Q 36.328125 21.09375 36.125 26.171875 
Q 35.9375 31.25 33.390625 34.765625 
Q 30.859375 38.28125 26.953125 39.453125 
Q 23.046875 40.625 18.15625 39.453125 
Q 13.28125 38.28125 10.15625 33.984375 
L 3.515625 34.765625 
Q 4.296875 37.109375 10.9375 68.359375 
L 41.796875 68.359375 
L 41.796875 61.328125 
L 16.796875 61.328125 
Q 14.84375 50.78125 12.890625 44.53125 
Q 18.75 47.265625 23.828125 47.0625 
Q 28.90625 46.875 33.59375 44.71875 
Q 38.28125 42.578125 40.421875 38.859375 
Q 42.578125 35.15625 43.546875 31.4375 
Q 44.53125 27.734375 44.328125 23.4375 
Q 44.140625 19.140625 42.578125 14.640625 
Q 41.015625 10.15625 37.890625 7.21875 
Q 34.765625 4.296875 30.265625 2.53125 
Q 25.78125 0.78125 19.921875 1.171875 
Q 14.0625 1.5625 8.78125 5.46875 
Q 3.515625 9.375 1.5625 18.75 
z
" id="SimHei-53"/>
      </defs>
      <g style="fill:#262626;" transform="translate(177.81405 564.675)scale(0.1 -0.1)">
       <use xlink:href="#SimHei-53"/>
      </g>
     </g>
    </g>
    <g id="xtick_15">
     <g id="line2d_32">
      <path clip-path="url(#pb1f41a563e)" d="M 207.983471 550.8 
L 207.983471 303.709091 
" style="fill:none;stroke:#ffffff;stroke-linecap:round;stroke-width:0.8;"/>
     </g>
     <g id="text_26">
      <!-- 6 -->
      <g style="fill:#262626;" transform="translate(205.483471 564.675)scale(0.1 -0.1)">
       <use xlink:href="#SimHei-54"/>
      </g>
     </g>
    </g>
    <g id="xtick_16">
     <g id="line2d_33">
      <path clip-path="url(#pb1f41a563e)" d="M 235.652893 550.8 
L 235.652893 303.709091 
" style="fill:none;stroke:#ffffff;stroke-linecap:round;stroke-width:0.8;"/>
     </g>
     <g id="text_27">
      <!-- 7 -->
      <g style="fill:#262626;" transform="translate(233.152893 564.675)scale(0.1 -0.1)">
       <use xlink:href="#SimHei-55"/>
      </g>
     </g>
    </g>
    <g id="xtick_17">
     <g id="line2d_34">
      <path clip-path="url(#pb1f41a563e)" d="M 263.322314 550.8 
L 263.322314 303.709091 
" style="fill:none;stroke:#ffffff;stroke-linecap:round;stroke-width:0.8;"/>
     </g>
     <g id="text_28">
      <!-- 8 -->
      <g style="fill:#262626;" transform="translate(260.822314 564.675)scale(0.1 -0.1)">
       <use xlink:href="#SimHei-56"/>
      </g>
     </g>
    </g>
    <g id="xtick_18">
     <g id="line2d_35">
      <path clip-path="url(#pb1f41a563e)" d="M 290.991736 550.8 
L 290.991736 303.709091 
" style="fill:none;stroke:#ffffff;stroke-linecap:round;stroke-width:0.8;"/>
     </g>
     <g id="text_29">
      <!-- 9 -->
      <g style="fill:#262626;" transform="translate(288.491736 564.675)scale(0.1 -0.1)">
       <use xlink:href="#SimHei-57"/>
      </g>
     </g>
    </g>
    <g id="xtick_19">
     <g id="line2d_36">
      <path clip-path="url(#pb1f41a563e)" d="M 318.661157 550.8 
L 318.661157 303.709091 
" style="fill:none;stroke:#ffffff;stroke-linecap:round;stroke-width:0.8;"/>
     </g>
     <g id="text_30">
      <!-- 10 -->
      <g style="fill:#262626;" transform="translate(313.661157 564.675)scale(0.1 -0.1)">
       <use xlink:href="#SimHei-49"/>
       <use x="50" xlink:href="#SimHei-48"/>
      </g>
     </g>
    </g>
    <g id="xtick_20">
     <g id="line2d_37">
      <path clip-path="url(#pb1f41a563e)" d="M 346.330579 550.8 
L 346.330579 303.709091 
" style="fill:none;stroke:#ffffff;stroke-linecap:round;stroke-width:0.8;"/>
     </g>
     <g id="text_31">
      <!-- 11 -->
      <g style="fill:#262626;" transform="translate(341.330579 564.675)scale(0.1 -0.1)">
       <use xlink:href="#SimHei-49"/>
       <use x="50" xlink:href="#SimHei-49"/>
      </g>
     </g>
    </g>
    <g id="xtick_21">
     <g id="line2d_38">
      <path clip-path="url(#pb1f41a563e)" d="M 374 550.8 
L 374 303.709091 
" style="fill:none;stroke:#ffffff;stroke-linecap:round;stroke-width:0.8;"/>
     </g>
     <g id="text_32">
      <!-- 12 -->
      <g style="fill:#262626;" transform="translate(369 564.675)scale(0.1 -0.1)">
       <use xlink:href="#SimHei-49"/>
       <use x="50" xlink:href="#SimHei-50"/>
      </g>
     </g>
    </g>
    <g id="xtick_22">
     <g id="line2d_39">
      <path clip-path="url(#pb1f41a563e)" d="M 401.669421 550.8 
L 401.669421 303.709091 
" style="fill:none;stroke:#ffffff;stroke-linecap:round;stroke-width:0.8;"/>
     </g>
     <g id="text_33">
      <!-- 13 -->
      <g style="fill:#262626;" transform="translate(396.669421 564.675)scale(0.1 -0.1)">
       <use xlink:href="#SimHei-49"/>
       <use x="50" xlink:href="#SimHei-51"/>
      </g>
     </g>
    </g>
    <g id="xtick_23">
     <g id="line2d_40">
      <path clip-path="url(#pb1f41a563e)" d="M 429.338843 550.8 
L 429.338843 303.709091 
" style="fill:none;stroke:#ffffff;stroke-linecap:round;stroke-width:0.8;"/>
     </g>
     <g id="text_34">
      <!-- 14 -->
      <g style="fill:#262626;" transform="translate(424.338843 564.675)scale(0.1 -0.1)">
       <use xlink:href="#SimHei-49"/>
       <use x="50" xlink:href="#SimHei-52"/>
      </g>
     </g>
    </g>
    <g id="xtick_24">
     <g id="line2d_41">
      <path clip-path="url(#pb1f41a563e)" d="M 457.008264 550.8 
L 457.008264 303.709091 
" style="fill:none;stroke:#ffffff;stroke-linecap:round;stroke-width:0.8;"/>
     </g>
     <g id="text_35">
      <!-- 15 -->
      <g style="fill:#262626;" transform="translate(452.008264 564.675)scale(0.1 -0.1)">
       <use xlink:href="#SimHei-49"/>
       <use x="50" xlink:href="#SimHei-53"/>
      </g>
     </g>
    </g>
    <g id="xtick_25">
     <g id="line2d_42">
      <path clip-path="url(#pb1f41a563e)" d="M 484.677686 550.8 
L 484.677686 303.709091 
" style="fill:none;stroke:#ffffff;stroke-linecap:round;stroke-width:0.8;"/>
     </g>
     <g id="text_36">
      <!-- 16 -->
      <g style="fill:#262626;" transform="translate(479.677686 564.675)scale(0.1 -0.1)">
       <use xlink:href="#SimHei-49"/>
       <use x="50" xlink:href="#SimHei-54"/>
      </g>
     </g>
    </g>
    <g id="xtick_26">
     <g id="line2d_43">
      <path clip-path="url(#pb1f41a563e)" d="M 512.347107 550.8 
L 512.347107 303.709091 
" style="fill:none;stroke:#ffffff;stroke-linecap:round;stroke-width:0.8;"/>
     </g>
     <g id="text_37">
      <!-- 17 -->
      <g style="fill:#262626;" transform="translate(507.347107 564.675)scale(0.1 -0.1)">
       <use xlink:href="#SimHei-49"/>
       <use x="50" xlink:href="#SimHei-55"/>
      </g>
     </g>
    </g>
    <g id="xtick_27">
     <g id="line2d_44">
      <path clip-path="url(#pb1f41a563e)" d="M 540.016529 550.8 
L 540.016529 303.709091 
" style="fill:none;stroke:#ffffff;stroke-linecap:round;stroke-width:0.8;"/>
     </g>
     <g id="text_38">
      <!-- 18 -->
      <g style="fill:#262626;" transform="translate(535.016529 564.675)scale(0.1 -0.1)">
       <use xlink:href="#SimHei-49"/>
       <use x="50" xlink:href="#SimHei-56"/>
      </g>
     </g>
    </g>
    <g id="xtick_28">
     <g id="line2d_45">
      <path clip-path="url(#pb1f41a563e)" d="M 567.68595 550.8 
L 567.68595 303.709091 
" style="fill:none;stroke:#ffffff;stroke-linecap:round;stroke-width:0.8;"/>
     </g>
     <g id="text_39">
      <!-- 19 -->
      <g style="fill:#262626;" transform="translate(562.68595 564.675)scale(0.1 -0.1)">
       <use xlink:href="#SimHei-49"/>
       <use x="50" xlink:href="#SimHei-57"/>
      </g>
     </g>
    </g>
    <g id="xtick_29">
     <g id="line2d_46">
      <path clip-path="url(#pb1f41a563e)" d="M 595.355372 550.8 
L 595.355372 303.709091 
" style="fill:none;stroke:#ffffff;stroke-linecap:round;stroke-width:0.8;"/>
     </g>
     <g id="text_40">
      <!-- 20 -->
      <g style="fill:#262626;" transform="translate(590.355372 564.675)scale(0.1 -0.1)">
       <use xlink:href="#SimHei-50"/>
       <use x="50" xlink:href="#SimHei-48"/>
      </g>
     </g>
    </g>
    <g id="xtick_30">
     <g id="line2d_47">
      <path clip-path="url(#pb1f41a563e)" d="M 623.024793 550.8 
L 623.024793 303.709091 
" style="fill:none;stroke:#ffffff;stroke-linecap:round;stroke-width:0.8;"/>
     </g>
     <g id="text_41">
      <!-- 21 -->
      <g style="fill:#262626;" transform="translate(618.024793 564.675)scale(0.1 -0.1)">
       <use xlink:href="#SimHei-50"/>
       <use x="50" xlink:href="#SimHei-49"/>
      </g>
     </g>
    </g>
    <g id="xtick_31">
     <g id="line2d_48">
      <path clip-path="url(#pb1f41a563e)" d="M 650.694215 550.8 
L 650.694215 303.709091 
" style="fill:none;stroke:#ffffff;stroke-linecap:round;stroke-width:0.8;"/>
     </g>
     <g id="text_42">
      <!-- 22 -->
      <g style="fill:#262626;" transform="translate(645.694215 564.675)scale(0.1 -0.1)">
       <use xlink:href="#SimHei-50"/>
       <use x="50" xlink:href="#SimHei-50"/>
      </g>
     </g>
    </g>
    <g id="xtick_32">
     <g id="line2d_49">
      <path clip-path="url(#pb1f41a563e)" d="M 678.363636 550.8 
L 678.363636 303.709091 
" style="fill:none;stroke:#ffffff;stroke-linecap:round;stroke-width:0.8;"/>
     </g>
     <g id="text_43">
      <!-- 23 -->
      <g style="fill:#262626;" transform="translate(673.363636 564.675)scale(0.1 -0.1)">
       <use xlink:href="#SimHei-50"/>
       <use x="50" xlink:href="#SimHei-51"/>
      </g>
     </g>
    </g>
    <g id="text_44">
     <!-- timestamp -->
     <g style="fill:#262626;" transform="translate(351.5 576.8)scale(0.1 -0.1)">
      <use xlink:href="#SimHei-116"/>
      <use x="50" xlink:href="#SimHei-105"/>
      <use x="100" xlink:href="#SimHei-109"/>
      <use x="150" xlink:href="#SimHei-101"/>
      <use x="200" xlink:href="#SimHei-115"/>
      <use x="250" xlink:href="#SimHei-116"/>
      <use x="300" xlink:href="#SimHei-97"/>
      <use x="350" xlink:href="#SimHei-109"/>
      <use x="400" xlink:href="#SimHei-112"/>
     </g>
    </g>
   </g>
   <g id="matplotlib.axis_4">
    <g id="ytick_6">
     <g id="line2d_50">
      <path clip-path="url(#pb1f41a563e)" d="M 39.2 527.302637 
L 708.8 527.302637 
" style="fill:none;stroke:#ffffff;stroke-linecap:round;stroke-width:0.8;"/>
     </g>
     <g id="text_45">
      <!-- -0.50 -->
      <g style="fill:#262626;" transform="translate(7.2 530.740137)scale(0.1 -0.1)">
       <use xlink:href="#SimHei-45"/>
       <use x="50" xlink:href="#SimHei-48"/>
       <use x="100" xlink:href="#SimHei-46"/>
       <use x="150" xlink:href="#SimHei-53"/>
       <use x="200" xlink:href="#SimHei-48"/>
      </g>
     </g>
    </g>
    <g id="ytick_7">
     <g id="line2d_51">
      <path clip-path="url(#pb1f41a563e)" d="M 39.2 496.327996 
L 708.8 496.327996 
" style="fill:none;stroke:#ffffff;stroke-linecap:round;stroke-width:0.8;"/>
     </g>
     <g id="text_46">
      <!-- -0.25 -->
      <g style="fill:#262626;" transform="translate(7.2 499.765496)scale(0.1 -0.1)">
       <use xlink:href="#SimHei-45"/>
       <use x="50" xlink:href="#SimHei-48"/>
       <use x="100" xlink:href="#SimHei-46"/>
       <use x="150" xlink:href="#SimHei-50"/>
       <use x="200" xlink:href="#SimHei-53"/>
      </g>
     </g>
    </g>
    <g id="ytick_8">
     <g id="line2d_52">
      <path clip-path="url(#pb1f41a563e)" d="M 39.2 465.353354 
L 708.8 465.353354 
" style="fill:none;stroke:#ffffff;stroke-linecap:round;stroke-width:0.8;"/>
     </g>
     <g id="text_47">
      <!-- 0.00 -->
      <g style="fill:#262626;" transform="translate(12.2 468.790854)scale(0.1 -0.1)">
       <use xlink:href="#SimHei-48"/>
       <use x="50" xlink:href="#SimHei-46"/>
       <use x="100" xlink:href="#SimHei-48"/>
       <use x="150" xlink:href="#SimHei-48"/>
      </g>
     </g>
    </g>
    <g id="ytick_9">
     <g id="line2d_53">
      <path clip-path="url(#pb1f41a563e)" d="M 39.2 434.378713 
L 708.8 434.378713 
" style="fill:none;stroke:#ffffff;stroke-linecap:round;stroke-width:0.8;"/>
     </g>
     <g id="text_48">
      <!-- 0.25 -->
      <g style="fill:#262626;" transform="translate(12.2 437.816213)scale(0.1 -0.1)">
       <use xlink:href="#SimHei-48"/>
       <use x="50" xlink:href="#SimHei-46"/>
       <use x="100" xlink:href="#SimHei-50"/>
       <use x="150" xlink:href="#SimHei-53"/>
      </g>
     </g>
    </g>
    <g id="ytick_10">
     <g id="line2d_54">
      <path clip-path="url(#pb1f41a563e)" d="M 39.2 403.404072 
L 708.8 403.404072 
" style="fill:none;stroke:#ffffff;stroke-linecap:round;stroke-width:0.8;"/>
     </g>
     <g id="text_49">
      <!-- 0.50 -->
      <g style="fill:#262626;" transform="translate(12.2 406.841572)scale(0.1 -0.1)">
       <use xlink:href="#SimHei-48"/>
       <use x="50" xlink:href="#SimHei-46"/>
       <use x="100" xlink:href="#SimHei-53"/>
       <use x="150" xlink:href="#SimHei-48"/>
      </g>
     </g>
    </g>
    <g id="ytick_11">
     <g id="line2d_55">
      <path clip-path="url(#pb1f41a563e)" d="M 39.2 372.42943 
L 708.8 372.42943 
" style="fill:none;stroke:#ffffff;stroke-linecap:round;stroke-width:0.8;"/>
     </g>
     <g id="text_50">
      <!-- 0.75 -->
      <g style="fill:#262626;" transform="translate(12.2 375.86693)scale(0.1 -0.1)">
       <use xlink:href="#SimHei-48"/>
       <use x="50" xlink:href="#SimHei-46"/>
       <use x="100" xlink:href="#SimHei-55"/>
       <use x="150" xlink:href="#SimHei-53"/>
      </g>
     </g>
    </g>
    <g id="ytick_12">
     <g id="line2d_56">
      <path clip-path="url(#pb1f41a563e)" d="M 39.2 341.454789 
L 708.8 341.454789 
" style="fill:none;stroke:#ffffff;stroke-linecap:round;stroke-width:0.8;"/>
     </g>
     <g id="text_51">
      <!-- 1.00 -->
      <g style="fill:#262626;" transform="translate(12.2 344.892289)scale(0.1 -0.1)">
       <use xlink:href="#SimHei-49"/>
       <use x="50" xlink:href="#SimHei-46"/>
       <use x="100" xlink:href="#SimHei-48"/>
       <use x="150" xlink:href="#SimHei-48"/>
      </g>
     </g>
    </g>
    <g id="ytick_13">
     <g id="line2d_57">
      <path clip-path="url(#pb1f41a563e)" d="M 39.2 310.480148 
L 708.8 310.480148 
" style="fill:none;stroke:#ffffff;stroke-linecap:round;stroke-width:0.8;"/>
     </g>
     <g id="text_52">
      <!-- 1.25 -->
      <g style="fill:#262626;" transform="translate(12.2 313.917648)scale(0.1 -0.1)">
       <use xlink:href="#SimHei-49"/>
       <use x="50" xlink:href="#SimHei-46"/>
       <use x="100" xlink:href="#SimHei-50"/>
       <use x="150" xlink:href="#SimHei-53"/>
      </g>
     </g>
    </g>
   </g>
   <g id="line2d_58">
    <path clip-path="url(#pb1f41a563e)" d="M 69.636364 405.758144 
L 97.305785 424.342929 
L 124.975207 471.052688 
L 152.644628 468.822514 
L 180.31405 460.273513 
L 207.983471 466.59234 
L 235.652893 464.733862 
L 263.322314 471.672181 
L 290.991736 481.460168 
L 318.661157 471.919978 
L 346.330579 440.69754 
L 374 445.03399 
L 401.669421 454.698078 
L 429.338843 471.424384 
L 457.008264 499.549358 
L 484.677686 517.762448 
L 512.347107 539.568595 
L 540.016529 525.072463 
L 567.68595 506.487678 
L 595.355372 485.053226 
L 623.024793 439.83025 
L 650.694215 314.940496 
L 678.363636 330.056121 
" style="fill:none;stroke:#1f77b4;stroke-linecap:round;stroke-width:1.5;"/>
   </g>
   <g id="line2d_59">
    <path clip-path="url(#pb1f41a563e)" d="M 69.636364 440.945337 
L 97.305785 445.405685 
L 124.975207 468.203021 
L 152.644628 467.707427 
L 180.31405 453.706889 
L 207.983471 466.59234 
L 235.652893 462.131992 
L 263.322314 467.583529 
L 290.991736 475.884732 
L 318.661157 466.344543 
L 346.330579 435.246003 
L 374 434.502612 
L 401.669421 442.43212 
L 429.338843 459.901817 
L 457.008264 488.398488 
L 484.677686 532.382478 
L 512.347107 531.019594 
L 540.016529 522.346694 
L 567.68595 501.903431 
L 595.355372 480.592878 
L 623.024793 427.440393 
L 650.694215 318.90525 
L 678.363636 365.119415 
" style="fill:none;stroke:#ff7f0e;stroke-linecap:round;stroke-width:1.5;"/>
   </g>
   <g id="line2d_60">
    <path clip-path="url(#pb1f41a563e)" d="M 69.636364 436.36109 
L 97.305785 446.149077 
L 124.975207 467.335731 
L 152.644628 469.19421 
L 180.31405 456.556556 
L 207.983471 467.211833 
L 235.652893 462.999282 
L 263.322314 467.45963 
L 290.991736 474.645747 
L 318.661157 469.318108 
L 346.330579 439.458554 
L 374 442.060424 
L 401.669421 446.892468 
L 429.338843 458.415035 
L 457.008264 485.053226 
L 484.677686 522.222796 
L 512.347107 529.037217 
L 540.016529 522.222796 
L 567.68595 507.231069 
L 595.355372 489.513575 
L 623.024793 430.166162 
L 650.694215 324.852381 
L 678.363636 360.906864 
" style="fill:none;stroke:#2ca02c;stroke-linecap:round;stroke-width:1.5;"/>
   </g>
   <g id="line2d_61">
    <path clip-path="url(#pb1f41a563e)" d="M 69.636364 437.352279 
L 97.305785 445.157888 
L 124.975207 468.822514 
L 152.644628 464.114369 
L 180.31405 453.706889 
L 207.983471 465.72505 
L 235.652893 460.893006 
L 263.322314 470.433196 
L 290.991736 476.256428 
L 318.661157 462.131992 
L 346.330579 433.263626 
L 374 438.96296 
L 401.669421 447.388062 
L 429.338843 466.840137 
L 457.008264 495.9563 
L 484.677686 521.727202 
L 512.347107 531.639087 
L 540.016529 522.222796 
L 567.68595 504.753098 
L 595.355372 483.194748 
L 623.024793 428.927176 
L 650.694215 327.949845 
L 678.363636 364.128226 
" style="fill:none;stroke:#d62728;stroke-linecap:round;stroke-width:1.5;"/>
   </g>
   <g id="patch_9">
    <path d="M 39.2 550.8 
L 39.2 303.709091 
" style="fill:none;stroke:#ffffff;stroke-linecap:square;stroke-linejoin:miter;stroke-width:0.8;"/>
   </g>
   <g id="patch_10">
    <path d="M 708.8 550.8 
L 708.8 303.709091 
" style="fill:none;stroke:#ffffff;stroke-linecap:square;stroke-linejoin:miter;stroke-width:0.8;"/>
   </g>
   <g id="patch_11">
    <path d="M 39.2 550.8 
L 708.8 550.8 
" style="fill:none;stroke:#ffffff;stroke-linecap:square;stroke-linejoin:miter;stroke-width:0.8;"/>
   </g>
   <g id="patch_12">
    <path d="M 39.2 303.709091 
L 708.8 303.709091 
" style="fill:none;stroke:#ffffff;stroke-linecap:square;stroke-linejoin:miter;stroke-width:0.8;"/>
   </g>
   <g id="legend_2">
    <g id="patch_13">
     <path d="M 46.2 377.834091 
L 115.2 377.834091 
Q 117.2 377.834091 117.2 375.834091 
L 117.2 310.709091 
Q 117.2 308.709091 115.2 308.709091 
L 46.2 308.709091 
Q 44.2 308.709091 44.2 310.709091 
L 44.2 375.834091 
Q 44.2 377.834091 46.2 377.834091 
z
" style="fill:#eaeaf2;opacity:0.8;stroke:#cccccc;stroke-linejoin:miter;"/>
    </g>
    <g id="text_53">
     <!-- behavior type -->
     <g style="fill:#262626;" transform="translate(48.2 319.584091)scale(0.1 -0.1)">
      <use xlink:href="#SimHei-98"/>
      <use x="50" xlink:href="#SimHei-101"/>
      <use x="100" xlink:href="#SimHei-104"/>
      <use x="150" xlink:href="#SimHei-97"/>
      <use x="200" xlink:href="#SimHei-118"/>
      <use x="250" xlink:href="#SimHei-105"/>
      <use x="300" xlink:href="#SimHei-111"/>
      <use x="350" xlink:href="#SimHei-114"/>
      <use x="400" xlink:href="#SimHei-32"/>
      <use x="450" xlink:href="#SimHei-116"/>
      <use x="500" xlink:href="#SimHei-121"/>
      <use x="550" xlink:href="#SimHei-112"/>
      <use x="600" xlink:href="#SimHei-101"/>
     </g>
    </g>
    <g id="line2d_62">
     <path d="M 56.7 329.334091 
L 76.7 329.334091 
" style="fill:none;stroke:#1f77b4;stroke-linecap:round;stroke-width:1.5;"/>
    </g>
    <g id="line2d_63"/>
    <g id="text_54">
     <!-- buy -->
     <g style="fill:#262626;" transform="translate(84.7 332.834091)scale(0.1 -0.1)">
      <use xlink:href="#SimHei-98"/>
      <use x="50" xlink:href="#SimHei-117"/>
      <use x="100" xlink:href="#SimHei-121"/>
     </g>
    </g>
    <g id="line2d_64">
     <path d="M 56.7 342.584091 
L 76.7 342.584091 
" style="fill:none;stroke:#ff7f0e;stroke-linecap:round;stroke-width:1.5;"/>
    </g>
    <g id="line2d_65"/>
    <g id="text_55">
     <!-- cart -->
     <g style="fill:#262626;" transform="translate(84.7 346.084091)scale(0.1 -0.1)">
      <use xlink:href="#SimHei-99"/>
      <use x="50" xlink:href="#SimHei-97"/>
      <use x="100" xlink:href="#SimHei-114"/>
      <use x="150" xlink:href="#SimHei-116"/>
     </g>
    </g>
    <g id="line2d_66">
     <path d="M 56.7 355.834091 
L 76.7 355.834091 
" style="fill:none;stroke:#2ca02c;stroke-linecap:round;stroke-width:1.5;"/>
    </g>
    <g id="line2d_67"/>
    <g id="text_56">
     <!-- fav -->
     <g style="fill:#262626;" transform="translate(84.7 359.334091)scale(0.1 -0.1)">
      <use xlink:href="#SimHei-102"/>
      <use x="50" xlink:href="#SimHei-97"/>
      <use x="100" xlink:href="#SimHei-118"/>
     </g>
    </g>
    <g id="line2d_68">
     <path d="M 56.7 369.084091 
L 76.7 369.084091 
" style="fill:none;stroke:#d62728;stroke-linecap:round;stroke-width:1.5;"/>
    </g>
    <g id="line2d_69"/>
    <g id="text_57">
     <!-- pv -->
     <g style="fill:#262626;" transform="translate(84.7 372.584091)scale(0.1 -0.1)">
      <use xlink:href="#SimHei-112"/>
      <use x="50" xlink:href="#SimHei-118"/>
     </g>
    </g>
   </g>
  </g>
 </g>
 <defs>
  <clipPath id="p82ad8c917e">
   <rect height="247.090909" width="669.6" x="39.2" y="7.2"/>
  </clipPath>
  <clipPath id="pb1f41a563e">
   <rect height="247.090909" width="669.6" x="39.2" y="303.709091"/>
  </clipPath>
 </defs>
</svg>
