<?xml version="1.0" encoding="utf-8" standalone="no"?>
<!DOCTYPE svg PUBLIC "-//W3C//DTD SVG 1.1//EN"
  "http://www.w3.org/Graphics/SVG/1.1/DTD/svg11.dtd">
<!-- Created with matplotlib (https://matplotlib.org/) -->
<svg height="595.69pt" version="1.1" viewBox="0 0 711 595.69" width="711pt" xmlns="http://www.w3.org/2000/svg" xmlns:xlink="http://www.w3.org/1999/xlink">
 <defs>
  <style type="text/css">
*{stroke-linecap:butt;stroke-linejoin:round;}
  </style>
 </defs>
 <g id="figure_1">
  <g id="patch_1">
   <path d="M 0 595.69 
L 711 595.69 
L 711 0 
L 0 0 
z
" style="fill:#ffffff;"/>
  </g>
  <g id="axes_1">
   <g id="patch_2">
    <path d="M 34.2 215.894118 
L 703.8 215.894118 
L 703.8 72 
L 34.2 72 
z
" style="fill:#eaeaf2;"/>
   </g>
   <g id="matplotlib.axis_1">
    <g id="xtick_1">
     <g id="line2d_1">
      <path clip-path="url(#pa5e0c48a4a)" d="M 64.636364 215.894118 
L 64.636364 72 
" style="fill:none;stroke:#ffffff;stroke-linecap:round;stroke-width:0.8;"/>
     </g>
     <g id="text_1">
      <!-- 0 -->
      <defs>
       <path d="M 3.125 29.296875 
Q 3.90625 50 6.4375 56.046875 
Q 8.984375 62.109375 13.671875 66.015625 
Q 18.359375 69.921875 25.1875 69.921875 
Q 32.03125 69.921875 37.109375 64.25 
Q 42.1875 58.59375 43.75 50 
Q 45.3125 41.40625 44.71875 30.265625 
Q 44.140625 19.140625 40.8125 12.109375 
Q 37.5 5.078125 30.859375 2.34375 
Q 24.21875 -0.390625 17.578125 2.921875 
Q 10.9375 6.25 8.203125 11.71875 
Q 5.46875 17.1875 4.296875 23.234375 
Q 3.125 29.296875 3.90625 50 
z
M 12.890625 52.734375 
Q 10.546875 31.25 12.5 22.84375 
Q 14.453125 14.453125 18.9375 10.9375 
Q 23.4375 7.421875 28.125 9.5625 
Q 32.8125 11.71875 34.953125 18.15625 
Q 37.109375 24.609375 37.109375 32.21875 
Q 37.109375 39.84375 36.515625 46.09375 
Q 35.9375 52.34375 33 57.421875 
Q 30.078125 62.5 25.1875 62.6875 
Q 20.3125 62.890625 16.59375 57.8125 
Q 12.890625 52.734375 10.546875 31.25 
z
" id="SimHei-48"/>
      </defs>
      <g style="fill:#262626;" transform="translate(62.136364 229.769118)scale(0.1 -0.1)">
       <use xlink:href="#SimHei-48"/>
      </g>
     </g>
    </g>
    <g id="xtick_2">
     <g id="line2d_2">
      <path clip-path="url(#pa5e0c48a4a)" d="M 196.968379 215.894118 
L 196.968379 72 
" style="fill:none;stroke:#ffffff;stroke-linecap:round;stroke-width:0.8;"/>
     </g>
     <g id="text_2">
      <!-- 5 -->
      <defs>
       <path d="M 8.59375 20.703125 
Q 11.328125 10.15625 17.96875 8.984375 
Q 24.609375 7.8125 28.703125 10.34375 
Q 32.8125 12.890625 34.5625 16.984375 
Q 36.328125 21.09375 36.125 26.171875 
Q 35.9375 31.25 33.390625 34.765625 
Q 30.859375 38.28125 26.953125 39.453125 
Q 23.046875 40.625 18.15625 39.453125 
Q 13.28125 38.28125 10.15625 33.984375 
L 3.515625 34.765625 
Q 4.296875 37.109375 10.9375 68.359375 
L 41.796875 68.359375 
L 41.796875 61.328125 
L 16.796875 61.328125 
Q 14.84375 50.78125 12.890625 44.53125 
Q 18.75 47.265625 23.828125 47.0625 
Q 28.90625 46.875 33.59375 44.71875 
Q 38.28125 42.578125 40.421875 38.859375 
Q 42.578125 35.15625 43.546875 31.4375 
Q 44.53125 27.734375 44.328125 23.4375 
Q 44.140625 19.140625 42.578125 14.640625 
Q 41.015625 10.15625 37.890625 7.21875 
Q 34.765625 4.296875 30.265625 2.53125 
Q 25.78125 0.78125 19.921875 1.171875 
Q 14.0625 1.5625 8.78125 5.46875 
Q 3.515625 9.375 1.5625 18.75 
z
" id="SimHei-53"/>
      </defs>
      <g style="fill:#262626;" transform="translate(194.468379 229.769118)scale(0.1 -0.1)">
       <use xlink:href="#SimHei-53"/>
      </g>
     </g>
    </g>
    <g id="xtick_3">
     <g id="line2d_3">
      <path clip-path="url(#pa5e0c48a4a)" d="M 329.300395 215.894118 
L 329.300395 72 
" style="fill:none;stroke:#ffffff;stroke-linecap:round;stroke-width:0.8;"/>
     </g>
     <g id="text_3">
      <!-- 10 -->
      <defs>
       <path d="M 21.875 56.25 
Q 16.796875 51.171875 8.984375 46.484375 
L 8.984375 53.90625 
Q 18.75 60.546875 25 69.53125 
L 29.6875 69.53125 
L 29.6875 2.34375 
L 21.875 2.34375 
z
" id="SimHei-49"/>
      </defs>
      <g style="fill:#262626;" transform="translate(324.300395 229.769118)scale(0.1 -0.1)">
       <use xlink:href="#SimHei-49"/>
       <use x="50" xlink:href="#SimHei-48"/>
      </g>
     </g>
    </g>
    <g id="xtick_4">
     <g id="line2d_4">
      <path clip-path="url(#pa5e0c48a4a)" d="M 461.632411 215.894118 
L 461.632411 72 
" style="fill:none;stroke:#ffffff;stroke-linecap:round;stroke-width:0.8;"/>
     </g>
     <g id="text_4">
      <!-- 15 -->
      <g style="fill:#262626;" transform="translate(456.632411 229.769118)scale(0.1 -0.1)">
       <use xlink:href="#SimHei-49"/>
       <use x="50" xlink:href="#SimHei-53"/>
      </g>
     </g>
    </g>
    <g id="xtick_5">
     <g id="line2d_5">
      <path clip-path="url(#pa5e0c48a4a)" d="M 593.964427 215.894118 
L 593.964427 72 
" style="fill:none;stroke:#ffffff;stroke-linecap:round;stroke-width:0.8;"/>
     </g>
     <g id="text_5">
      <!-- 20 -->
      <defs>
       <path d="M 4.6875 3.90625 
Q 5.078125 9.765625 10.15625 14.453125 
Q 15.234375 19.140625 23.046875 29.09375 
Q 30.859375 39.0625 33.203125 44.53125 
Q 35.546875 50 34.953125 53.90625 
Q 34.375 57.8125 31.25 60.34375 
Q 28.125 62.890625 24.015625 62.5 
Q 19.921875 62.109375 16.203125 59.375 
Q 12.5 56.640625 10.546875 51.171875 
L 3.125 52.34375 
Q 6.25 61.328125 11.125 65.421875 
Q 16.015625 69.53125 22.65625 69.921875 
Q 26.5625 70.3125 29.6875 69.71875 
Q 32.8125 69.140625 36.125 66.984375 
Q 39.453125 64.84375 41.59375 60.546875 
Q 43.75 56.25 43.15625 50.1875 
Q 42.578125 44.140625 37.109375 35.734375 
Q 31.640625 27.34375 16.015625 9.375 
L 44.140625 9.375 
L 44.140625 2.34375 
L 4.6875 2.34375 
z
" id="SimHei-50"/>
      </defs>
      <g style="fill:#262626;" transform="translate(588.964427 229.769118)scale(0.1 -0.1)">
       <use xlink:href="#SimHei-50"/>
       <use x="50" xlink:href="#SimHei-48"/>
      </g>
     </g>
    </g>
    <g id="text_6">
     <!-- date -->
     <defs>
      <path d="M 42.96875 1.953125 
L 35.15625 1.953125 
L 35.15625 7.8125 
Q 32.8125 4.296875 29.6875 2.734375 
Q 26.5625 1.171875 22.265625 1.171875 
Q 14.453125 1.171875 8.984375 6.828125 
Q 3.515625 12.5 3.515625 23.828125 
Q 3.515625 35.15625 8.984375 41.015625 
Q 14.453125 46.875 22.265625 46.875 
Q 26.5625 46.875 29.6875 45.109375 
Q 32.8125 43.359375 35.15625 39.84375 
L 35.15625 68.75 
L 42.96875 68.75 
z
M 35.15625 23.828125 
Q 35.15625 31.25 31.828125 35.546875 
Q 28.515625 39.84375 23.828125 39.84375 
Q 17.96875 39.84375 15.03125 35.546875 
Q 12.109375 31.25 12.109375 23.828125 
Q 12.109375 16.40625 15.03125 12.296875 
Q 17.96875 8.203125 23.828125 8.203125 
Q 28.515625 8.203125 31.828125 12.296875 
Q 35.15625 16.40625 35.15625 23.828125 
z
" id="SimHei-100"/>
      <path d="M 44.921875 1.953125 
L 35.546875 1.953125 
Q 34.765625 2.734375 34.375 4.09375 
Q 33.984375 5.46875 33.984375 7.421875 
Q 31.25 4.296875 27.34375 2.734375 
Q 23.4375 1.171875 19.140625 1.171875 
Q 12.890625 1.171875 8.59375 4.296875 
Q 4.296875 7.421875 4.296875 13.28125 
Q 4.296875 19.140625 8.203125 22.65625 
Q 12.109375 26.171875 20.3125 27.34375 
Q 25.78125 28.125 29.875 29.296875 
Q 33.984375 30.46875 33.984375 32.421875 
Q 33.984375 34.765625 32.21875 37.109375 
Q 30.46875 39.453125 24.609375 39.453125 
Q 19.921875 39.453125 17.765625 37.6875 
Q 15.625 35.9375 14.84375 32.8125 
L 6.25 32.8125 
Q 7.03125 39.0625 11.90625 42.765625 
Q 16.796875 46.484375 24.609375 46.484375 
Q 33.203125 46.484375 37.5 42.578125 
Q 41.796875 38.671875 41.796875 31.640625 
L 41.796875 10.15625 
Q 41.796875 7.8125 42.578125 5.859375 
Q 43.359375 3.90625 44.921875 1.953125 
z
M 33.984375 16.40625 
L 33.984375 24.21875 
Q 31.640625 23.4375 29.484375 22.84375 
Q 27.34375 22.265625 22.265625 21.484375 
Q 16.40625 20.703125 14.640625 18.75 
Q 12.890625 16.796875 12.890625 14.0625 
Q 12.890625 11.71875 14.640625 9.953125 
Q 16.40625 8.203125 19.921875 8.203125 
Q 23.4375 8.203125 27.53125 10.15625 
Q 31.640625 12.109375 33.984375 16.40625 
z
" id="SimHei-97"/>
      <path d="M 42.96875 3.125 
Q 41.015625 2.34375 38.46875 1.75 
Q 35.9375 1.171875 31.640625 1.171875 
Q 24.609375 1.171875 20.3125 5.078125 
Q 16.015625 8.984375 16.015625 16.015625 
L 16.015625 39.453125 
L 2.734375 39.453125 
L 2.734375 45.703125 
L 16.015625 45.703125 
L 16.015625 60.9375 
L 23.828125 60.9375 
L 23.828125 45.703125 
L 39.84375 45.703125 
L 39.84375 39.453125 
L 23.828125 39.453125 
L 23.828125 15.625 
Q 23.828125 12.5 25.390625 10.34375 
Q 26.953125 8.203125 31.25 8.203125 
Q 35.546875 8.203125 38.28125 8.984375 
Q 41.015625 9.765625 42.96875 10.9375 
z
" id="SimHei-116"/>
      <path d="M 44.53125 16.796875 
Q 43.75 9.765625 38.28125 5.46875 
Q 32.8125 1.171875 25.390625 1.171875 
Q 16.015625 1.171875 9.953125 7.21875 
Q 3.90625 13.28125 3.90625 23.828125 
Q 3.90625 34.375 9.953125 40.421875 
Q 16.015625 46.484375 25.390625 46.484375 
Q 33.59375 46.484375 38.859375 41.203125 
Q 44.140625 35.9375 44.140625 23.828125 
L 12.5 23.828125 
Q 12.5 15.234375 16.203125 11.71875 
Q 19.921875 8.203125 25.390625 8.203125 
Q 29.6875 8.203125 32.421875 10.34375 
Q 35.15625 12.5 35.9375 16.796875 
z
M 35.15625 30.078125 
Q 34.375 35.546875 31.640625 37.6875 
Q 28.90625 39.84375 24.609375 39.84375 
Q 20.703125 39.84375 17.578125 37.6875 
Q 14.453125 35.546875 12.890625 30.078125 
z
" id="SimHei-101"/>
     </defs>
     <g style="fill:#262626;" transform="translate(359 241.894118)scale(0.1 -0.1)">
      <use xlink:href="#SimHei-100"/>
      <use x="50" xlink:href="#SimHei-97"/>
      <use x="100" xlink:href="#SimHei-116"/>
      <use x="150" xlink:href="#SimHei-101"/>
     </g>
    </g>
   </g>
   <g id="matplotlib.axis_2">
    <g id="ytick_1">
     <g id="line2d_6">
      <path clip-path="url(#pa5e0c48a4a)" d="M 34.2 209.458441 
L 703.8 209.458441 
" style="fill:none;stroke:#ffffff;stroke-linecap:round;stroke-width:0.8;"/>
     </g>
     <g id="text_7">
      <!-- 0 -->
      <g style="fill:#262626;" transform="translate(22.2 212.895941)scale(0.1 -0.1)">
       <use xlink:href="#SimHei-48"/>
      </g>
     </g>
    </g>
    <g id="ytick_2">
     <g id="line2d_7">
      <path clip-path="url(#pa5e0c48a4a)" d="M 34.2 174.724785 
L 703.8 174.724785 
" style="fill:none;stroke:#ffffff;stroke-linecap:round;stroke-width:0.8;"/>
     </g>
     <g id="text_8">
      <!-- 2 -->
      <g style="fill:#262626;" transform="translate(22.2 178.162285)scale(0.1 -0.1)">
       <use xlink:href="#SimHei-50"/>
      </g>
     </g>
    </g>
    <g id="ytick_3">
     <g id="line2d_8">
      <path clip-path="url(#pa5e0c48a4a)" d="M 34.2 139.99113 
L 703.8 139.99113 
" style="fill:none;stroke:#ffffff;stroke-linecap:round;stroke-width:0.8;"/>
     </g>
     <g id="text_9">
      <!-- 4 -->
      <defs>
       <path d="M 31.25 17.1875 
L 1.171875 17.1875 
L 1.171875 23.828125 
L 32.8125 69.53125 
L 38.671875 69.53125 
L 38.671875 23.828125 
L 48.046875 23.828125 
L 48.046875 17.1875 
L 38.671875 17.1875 
L 38.671875 2.34375 
L 31.25 2.34375 
z
M 31.25 23.828125 
L 31.25 54.6875 
L 9.375 23.828125 
z
" id="SimHei-52"/>
      </defs>
      <g style="fill:#262626;" transform="translate(22.2 143.42863)scale(0.1 -0.1)">
       <use xlink:href="#SimHei-52"/>
      </g>
     </g>
    </g>
    <g id="ytick_4">
     <g id="line2d_9">
      <path clip-path="url(#pa5e0c48a4a)" d="M 34.2 105.257474 
L 703.8 105.257474 
" style="fill:none;stroke:#ffffff;stroke-linecap:round;stroke-width:0.8;"/>
     </g>
     <g id="text_10">
      <!-- 6 -->
      <defs>
       <path d="M 3.515625 19.53125 
Q 4.296875 30.859375 6.046875 34.765625 
Q 7.8125 38.671875 11.328125 44.53125 
L 27.34375 69.53125 
L 36.328125 69.53125 
L 19.921875 43.75 
Q 30.46875 46.484375 36.71875 42.96875 
Q 42.96875 39.453125 45.109375 34.953125 
Q 47.265625 30.46875 47.453125 25.1875 
Q 47.65625 19.921875 45.890625 14.84375 
Q 44.140625 9.765625 39.640625 5.65625 
Q 35.15625 1.5625 27.140625 1.171875 
Q 19.140625 0.78125 13.46875 4.09375 
Q 7.8125 7.421875 5.65625 13.46875 
Q 3.515625 19.53125 4.296875 30.859375 
z
M 12.5 16.015625 
Q 19.53125 8.59375 25.390625 8.203125 
Q 31.25 7.8125 35.15625 12.109375 
Q 39.0625 16.40625 39.0625 24.609375 
Q 39.0625 32.8125 34.171875 35.9375 
Q 29.296875 39.0625 23.234375 38.28125 
Q 17.1875 37.5 14.453125 32.421875 
Q 11.71875 27.34375 12.109375 21.671875 
Q 12.5 16.015625 19.53125 8.59375 
z
" id="SimHei-54"/>
      </defs>
      <g style="fill:#262626;" transform="translate(22.2 108.694974)scale(0.1 -0.1)">
       <use xlink:href="#SimHei-54"/>
      </g>
     </g>
    </g>
    <g id="text_11">
     <!-- 1e6 -->
     <g style="fill:#262626;" transform="translate(34.2 69)scale(0.1 -0.1)">
      <use xlink:href="#SimHei-49"/>
      <use x="50" xlink:href="#SimHei-101"/>
      <use x="100" xlink:href="#SimHei-54"/>
     </g>
    </g>
   </g>
   <g id="line2d_10">
    <path clip-path="url(#pa5e0c48a4a)" d="M 64.636364 208.331039 
L 91.102767 207.788898 
L 117.56917 207.236651 
L 144.035573 207.338854 
L 170.501976 207.398892 
L 196.968379 207.314906 
L 223.434783 207.336701 
L 249.901186 207.326958 
L 276.367589 207.436143 
L 302.833992 207.699164 
L 329.300395 207.792841 
L 355.766798 207.4607 
L 382.233202 207.133665 
L 408.699605 206.932731 
L 435.166008 207.057164 
L 461.632411 207.720456 
L 488.098814 208.54802 
L 514.565217 209.094641 
L 541.031621 209.271782 
L 567.498024 209.333174 
L 593.964427 209.353476 
L 620.43083 209.330777 
L 646.897233 209.176213 
L 673.363636 208.872866 
" style="fill:none;stroke:#1f77b4;stroke-linecap:round;stroke-width:1.5;"/>
   </g>
   <g id="line2d_11">
    <path clip-path="url(#pa5e0c48a4a)" d="M 64.636364 206.123385 
L 91.102767 205.465981 
L 117.56917 204.822141 
L 144.035573 204.928634 
L 170.501976 205.015815 
L 196.968379 204.598699 
L 223.434783 204.646215 
L 249.901186 204.52159 
L 276.367589 204.612488 
L 302.833992 205.023961 
L 329.300395 205.061282 
L 355.766798 203.991815 
L 382.233202 202.629648 
L 408.699605 201.366819 
L 435.166008 201.013838 
L 461.632411 202.582567 
L 488.098814 206.596805 
L 514.565217 208.121994 
L 541.031621 208.737006 
L 567.498024 208.94902 
L 593.964427 209.014475 
L 620.43083 208.877312 
L 646.897233 208.190419 
L 673.363636 207.181546 
" style="fill:none;stroke:#ff7f0e;stroke-linecap:round;stroke-width:1.5;"/>
   </g>
   <g id="line2d_12">
    <path clip-path="url(#pa5e0c48a4a)" d="M 64.636364 207.657136 
L 91.102767 207.235904 
L 117.56917 206.892458 
L 144.035573 206.933096 
L 170.501976 207.012115 
L 196.968379 206.838759 
L 223.434783 206.878408 
L 249.901186 206.830475 
L 276.367589 206.875612 
L 302.833992 207.068227 
L 329.300395 207.144103 
L 355.766798 206.661392 
L 382.233202 206.134326 
L 408.699605 205.63819 
L 435.166008 205.425482 
L 461.632411 206.066179 
L 488.098814 207.809808 
L 514.565217 208.655416 
L 541.031621 209.022898 
L 567.498024 209.166835 
L 593.964427 209.228157 
L 620.43083 209.160461 
L 646.897233 208.826497 
L 673.363636 208.30115 
" style="fill:none;stroke:#2ca02c;stroke-linecap:round;stroke-width:1.5;"/>
   </g>
   <g id="line2d_13">
    <path clip-path="url(#pa5e0c48a4a)" d="M 64.636364 156.622611 
L 91.102767 144.706258 
L 117.56917 134.176542 
L 144.035573 136.283 
L 170.501976 135.5488 
L 196.968379 128.634371 
L 223.434783 128.840654 
L 249.901186 125.981206 
L 276.367589 129.436527 
L 302.833992 136.458769 
L 329.300395 134.546352 
L 355.766798 115.141318 
L 382.233202 95.074765 
L 408.699605 78.540642 
L 435.166008 80.195874 
L 461.632411 112.20589 
L 488.098814 161.74916 
L 514.565217 187.249516 
L 541.031621 197.436428 
L 567.498024 201.261628 
L 593.964427 202.446324 
L 620.43083 200.391863 
L 646.897233 190.396125 
L 673.363636 175.030806 
" style="fill:none;stroke:#d62728;stroke-linecap:round;stroke-width:1.5;"/>
   </g>
   <g id="patch_3">
    <path d="M 34.2 215.894118 
L 34.2 72 
" style="fill:none;stroke:#ffffff;stroke-linecap:square;stroke-linejoin:miter;stroke-width:0.8;"/>
   </g>
   <g id="patch_4">
    <path d="M 703.8 215.894118 
L 703.8 72 
" style="fill:none;stroke:#ffffff;stroke-linecap:square;stroke-linejoin:miter;stroke-width:0.8;"/>
   </g>
   <g id="patch_5">
    <path d="M 34.2 215.894118 
L 703.8 215.894118 
" style="fill:none;stroke:#ffffff;stroke-linecap:square;stroke-linejoin:miter;stroke-width:0.8;"/>
   </g>
   <g id="patch_6">
    <path d="M 34.2 72 
L 703.8 72 
" style="fill:none;stroke:#ffffff;stroke-linecap:square;stroke-linejoin:miter;stroke-width:0.8;"/>
   </g>
   <g id="legend_1">
    <g id="patch_7">
     <path d="M 644.8 133 
L 696.8 133 
Q 698.8 133 698.8 131 
L 698.8 79 
Q 698.8 77 696.8 77 
L 644.8 77 
Q 642.8 77 642.8 79 
L 642.8 131 
Q 642.8 133 644.8 133 
z
" style="fill:#eaeaf2;opacity:0.8;stroke:#cccccc;stroke-linejoin:miter;"/>
    </g>
    <g id="line2d_14">
     <path d="M 646.8 84.5 
L 666.8 84.5 
" style="fill:none;stroke:#1f77b4;stroke-linecap:round;stroke-width:1.5;"/>
    </g>
    <g id="line2d_15"/>
    <g id="text_12">
     <!-- buy -->
     <defs>
      <path d="M 44.140625 23.828125 
Q 44.140625 12.5 38.671875 6.828125 
Q 33.203125 1.171875 25.390625 1.171875 
Q 21.09375 1.171875 17.96875 2.734375 
Q 14.84375 4.296875 12.5 7.8125 
L 12.5 1.953125 
L 4.6875 1.953125 
L 4.6875 68.75 
L 12.5 68.75 
L 12.5 39.84375 
Q 14.84375 43.359375 17.96875 45.109375 
Q 21.09375 46.875 25.390625 46.875 
Q 33.203125 46.875 38.671875 41.015625 
Q 44.140625 35.15625 44.140625 23.828125 
z
M 35.546875 23.828125 
Q 35.546875 31.25 32.609375 35.546875 
Q 29.6875 39.84375 23.828125 39.84375 
Q 19.140625 39.84375 15.8125 35.546875 
Q 12.5 31.25 12.5 23.828125 
Q 12.5 16.40625 15.8125 12.296875 
Q 19.140625 8.203125 23.828125 8.203125 
Q 29.6875 8.203125 32.609375 12.296875 
Q 35.546875 16.40625 35.546875 23.828125 
z
" id="SimHei-98"/>
      <path d="M 43.75 1.953125 
L 35.9375 1.953125 
L 35.9375 10.15625 
Q 32.8125 5.859375 29.09375 3.515625 
Q 25.390625 1.171875 19.53125 1.171875 
Q 12.5 1.171875 8.984375 5.078125 
Q 5.46875 8.984375 5.46875 14.84375 
L 5.46875 45.703125 
L 13.28125 45.703125 
L 13.28125 17.578125 
Q 13.28125 12.890625 15.625 10.15625 
Q 17.96875 7.421875 21.875 7.421875 
Q 26.953125 7.421875 31.4375 12.6875 
Q 35.9375 17.96875 35.9375 25.78125 
L 35.9375 45.703125 
L 43.75 45.703125 
z
" id="SimHei-117"/>
      <path d="M 45.3125 45.703125 
L 27.34375 -1.5625 
Q 25.78125 -7.03125 22.65625 -9.765625 
Q 19.53125 -12.5 14.84375 -12.5 
Q 12.890625 -12.5 11.125 -12.296875 
Q 9.375 -12.109375 7.8125 -11.328125 
L 7.8125 -3.515625 
Q 9.375 -4.296875 10.9375 -4.6875 
Q 12.5 -5.078125 13.671875 -5.078125 
Q 16.796875 -5.078125 17.96875 -4.09375 
Q 19.140625 -3.125 20.3125 0.390625 
L 3.125 45.703125 
L 11.71875 45.703125 
L 24.21875 11.328125 
L 24.609375 11.328125 
L 36.71875 45.703125 
z
" id="SimHei-121"/>
     </defs>
     <g style="fill:#262626;" transform="translate(674.8 88)scale(0.1 -0.1)">
      <use xlink:href="#SimHei-98"/>
      <use x="50" xlink:href="#SimHei-117"/>
      <use x="100" xlink:href="#SimHei-121"/>
     </g>
    </g>
    <g id="line2d_16">
     <path d="M 646.8 97.75 
L 666.8 97.75 
" style="fill:none;stroke:#ff7f0e;stroke-linecap:round;stroke-width:1.5;"/>
    </g>
    <g id="line2d_17"/>
    <g id="text_13">
     <!-- cart -->
     <defs>
      <path d="M 44.53125 19.53125 
Q 44.53125 11.328125 38.859375 6.25 
Q 33.203125 1.171875 24.609375 1.171875 
Q 16.015625 1.171875 9.765625 7.21875 
Q 3.515625 13.28125 3.515625 23.828125 
Q 3.515625 34.375 9.765625 40.421875 
Q 16.015625 46.484375 24.609375 46.484375 
Q 33.203125 46.484375 38.28125 41.984375 
Q 43.359375 37.5 43.359375 31.25 
L 34.765625 31.25 
Q 34.375 35.9375 31.4375 37.6875 
Q 28.515625 39.453125 24.609375 39.453125 
Q 19.921875 39.453125 16.015625 35.734375 
Q 12.109375 32.03125 12.109375 23.828125 
Q 12.109375 15.625 16.015625 11.90625 
Q 19.921875 8.203125 24.609375 8.203125 
Q 29.6875 8.203125 32.8125 10.9375 
Q 35.9375 13.671875 35.9375 19.53125 
z
" id="SimHei-99"/>
      <path d="M 39.0625 37.890625 
Q 31.640625 39.0625 26.5625 35.734375 
Q 21.484375 32.421875 17.96875 24.21875 
L 17.96875 1.953125 
L 10.15625 1.953125 
L 10.15625 45.703125 
L 17.96875 45.703125 
L 17.96875 34.375 
Q 21.484375 40.625 26.75 43.546875 
Q 32.03125 46.484375 39.0625 46.484375 
z
" id="SimHei-114"/>
     </defs>
     <g style="fill:#262626;" transform="translate(674.8 101.25)scale(0.1 -0.1)">
      <use xlink:href="#SimHei-99"/>
      <use x="50" xlink:href="#SimHei-97"/>
      <use x="100" xlink:href="#SimHei-114"/>
      <use x="150" xlink:href="#SimHei-116"/>
     </g>
    </g>
    <g id="line2d_18">
     <path d="M 646.8 111 
L 666.8 111 
" style="fill:none;stroke:#2ca02c;stroke-linecap:round;stroke-width:1.5;"/>
    </g>
    <g id="line2d_19"/>
    <g id="text_14">
     <!-- fav -->
     <defs>
      <path d="M 44.53125 59.765625 
Q 42.578125 60.9375 39.84375 61.71875 
Q 37.109375 62.5 32.8125 62.5 
Q 28.515625 62.5 26.953125 60.34375 
Q 25.390625 58.203125 25.390625 55.078125 
L 25.390625 45.703125 
L 41.40625 45.703125 
L 41.40625 39.453125 
L 25.390625 39.453125 
L 25.390625 1.953125 
L 17.578125 1.953125 
L 17.578125 39.453125 
L 4.296875 39.453125 
L 4.296875 45.703125 
L 17.578125 45.703125 
L 17.578125 54.6875 
Q 17.578125 61.71875 21.875 65.625 
Q 26.171875 69.53125 33.203125 69.53125 
Q 37.5 69.53125 40.03125 68.9375 
Q 42.578125 68.359375 44.53125 67.578125 
z
" id="SimHei-102"/>
      <path d="M 44.921875 45.703125 
L 28.515625 1.171875 
L 19.921875 1.171875 
L 3.515625 45.703125 
L 11.71875 45.703125 
L 23.828125 11.71875 
L 24.609375 11.71875 
L 36.71875 45.703125 
z
" id="SimHei-118"/>
     </defs>
     <g style="fill:#262626;" transform="translate(674.8 114.5)scale(0.1 -0.1)">
      <use xlink:href="#SimHei-102"/>
      <use x="50" xlink:href="#SimHei-97"/>
      <use x="100" xlink:href="#SimHei-118"/>
     </g>
    </g>
    <g id="line2d_20">
     <path d="M 646.8 124.25 
L 666.8 124.25 
" style="fill:none;stroke:#d62728;stroke-linecap:round;stroke-width:1.5;"/>
    </g>
    <g id="line2d_21"/>
    <g id="text_15">
     <!-- pv -->
     <defs>
      <path d="M 44.140625 23.828125 
Q 44.140625 12.5 38.671875 6.640625 
Q 33.203125 0.78125 25.390625 0.78125 
Q 21.09375 0.78125 17.96875 2.53125 
Q 14.84375 4.296875 12.5 7.8125 
L 12.5 -12.5 
L 4.6875 -12.5 
L 4.6875 45.703125 
L 12.5 45.703125 
L 12.5 39.84375 
Q 14.84375 43.359375 17.96875 44.921875 
Q 21.09375 46.484375 25.390625 46.484375 
Q 33.203125 46.484375 38.671875 40.8125 
Q 44.140625 35.15625 44.140625 23.828125 
z
M 35.546875 23.828125 
Q 35.546875 31.25 32.609375 35.34375 
Q 29.6875 39.453125 23.828125 39.453125 
Q 19.140625 39.453125 15.8125 35.34375 
Q 12.5 31.25 12.5 23.828125 
Q 12.5 16.40625 15.8125 12.109375 
Q 19.140625 7.8125 23.828125 7.8125 
Q 29.6875 7.8125 32.609375 12.109375 
Q 35.546875 16.40625 35.546875 23.828125 
z
" id="SimHei-112"/>
     </defs>
     <g style="fill:#262626;" transform="translate(674.8 127.75)scale(0.1 -0.1)">
      <use xlink:href="#SimHei-112"/>
      <use x="50" xlink:href="#SimHei-118"/>
     </g>
    </g>
   </g>
  </g>
  <g id="axes_2">
   <g id="patch_8">
    <path d="M 34.2 388.567059 
L 703.8 388.567059 
L 703.8 244.672941 
L 34.2 244.672941 
z
" style="fill:#eaeaf2;"/>
   </g>
   <g id="matplotlib.axis_3">
    <g id="xtick_6">
     <g id="line2d_22">
      <path clip-path="url(#p661337b448)" d="M 36.966942 388.567059 
L 36.966942 244.672941 
" style="fill:none;stroke:#ffffff;stroke-linecap:round;stroke-width:0.8;"/>
     </g>
     <g id="text_16">
      <!-- 0 -->
      <g style="fill:#262626;" transform="translate(34.466942 402.442059)scale(0.1 -0.1)">
       <use xlink:href="#SimHei-48"/>
      </g>
     </g>
    </g>
    <g id="xtick_7">
     <g id="line2d_23">
      <path clip-path="url(#p661337b448)" d="M 175.31405 388.567059 
L 175.31405 244.672941 
" style="fill:none;stroke:#ffffff;stroke-linecap:round;stroke-width:0.8;"/>
     </g>
     <g id="text_17">
      <!-- 5 -->
      <g style="fill:#262626;" transform="translate(172.81405 402.442059)scale(0.1 -0.1)">
       <use xlink:href="#SimHei-53"/>
      </g>
     </g>
    </g>
    <g id="xtick_8">
     <g id="line2d_24">
      <path clip-path="url(#p661337b448)" d="M 313.661157 388.567059 
L 313.661157 244.672941 
" style="fill:none;stroke:#ffffff;stroke-linecap:round;stroke-width:0.8;"/>
     </g>
     <g id="text_18">
      <!-- 10 -->
      <g style="fill:#262626;" transform="translate(308.661157 402.442059)scale(0.1 -0.1)">
       <use xlink:href="#SimHei-49"/>
       <use x="50" xlink:href="#SimHei-48"/>
      </g>
     </g>
    </g>
    <g id="xtick_9">
     <g id="line2d_25">
      <path clip-path="url(#p661337b448)" d="M 452.008264 388.567059 
L 452.008264 244.672941 
" style="fill:none;stroke:#ffffff;stroke-linecap:round;stroke-width:0.8;"/>
     </g>
     <g id="text_19">
      <!-- 15 -->
      <g style="fill:#262626;" transform="translate(447.008264 402.442059)scale(0.1 -0.1)">
       <use xlink:href="#SimHei-49"/>
       <use x="50" xlink:href="#SimHei-53"/>
      </g>
     </g>
    </g>
    <g id="xtick_10">
     <g id="line2d_26">
      <path clip-path="url(#p661337b448)" d="M 590.355372 388.567059 
L 590.355372 244.672941 
" style="fill:none;stroke:#ffffff;stroke-linecap:round;stroke-width:0.8;"/>
     </g>
     <g id="text_20">
      <!-- 20 -->
      <g style="fill:#262626;" transform="translate(585.355372 402.442059)scale(0.1 -0.1)">
       <use xlink:href="#SimHei-50"/>
       <use x="50" xlink:href="#SimHei-48"/>
      </g>
     </g>
    </g>
    <g id="text_21">
     <!-- date -->
     <g style="fill:#262626;" transform="translate(359 414.567059)scale(0.1 -0.1)">
      <use xlink:href="#SimHei-100"/>
      <use x="50" xlink:href="#SimHei-97"/>
      <use x="100" xlink:href="#SimHei-116"/>
      <use x="150" xlink:href="#SimHei-101"/>
     </g>
    </g>
   </g>
   <g id="matplotlib.axis_4">
    <g id="ytick_5">
     <g id="line2d_27">
      <path clip-path="url(#p661337b448)" d="M 34.2 374.774687 
L 703.8 374.774687 
" style="fill:none;stroke:#ffffff;stroke-linecap:round;stroke-width:0.8;"/>
     </g>
     <g id="text_22">
      <!-- -0.5 -->
      <defs>
       <path d="M 46.484375 33.203125 
L 1.953125 33.203125 
L 1.953125 39.453125 
L 46.484375 39.453125 
z
" id="SimHei-45"/>
       <path d="M 16.796875 1.953125 
L 7.8125 1.953125 
L 7.8125 10.546875 
L 16.796875 10.546875 
z
" id="SimHei-46"/>
      </defs>
      <g style="fill:#262626;" transform="translate(7.2 378.212187)scale(0.1 -0.1)">
       <use xlink:href="#SimHei-45"/>
       <use x="50" xlink:href="#SimHei-48"/>
       <use x="100" xlink:href="#SimHei-46"/>
       <use x="150" xlink:href="#SimHei-53"/>
      </g>
     </g>
    </g>
    <g id="ytick_6">
     <g id="line2d_28">
      <path clip-path="url(#p661337b448)" d="M 34.2 338.660493 
L 703.8 338.660493 
" style="fill:none;stroke:#ffffff;stroke-linecap:round;stroke-width:0.8;"/>
     </g>
     <g id="text_23">
      <!-- 0.0 -->
      <g style="fill:#262626;" transform="translate(12.2 342.097993)scale(0.1 -0.1)">
       <use xlink:href="#SimHei-48"/>
       <use x="50" xlink:href="#SimHei-46"/>
       <use x="100" xlink:href="#SimHei-48"/>
      </g>
     </g>
    </g>
    <g id="ytick_7">
     <g id="line2d_29">
      <path clip-path="url(#p661337b448)" d="M 34.2 302.546299 
L 703.8 302.546299 
" style="fill:none;stroke:#ffffff;stroke-linecap:round;stroke-width:0.8;"/>
     </g>
     <g id="text_24">
      <!-- 0.5 -->
      <g style="fill:#262626;" transform="translate(12.2 305.983799)scale(0.1 -0.1)">
       <use xlink:href="#SimHei-48"/>
       <use x="50" xlink:href="#SimHei-46"/>
       <use x="100" xlink:href="#SimHei-53"/>
      </g>
     </g>
    </g>
    <g id="ytick_8">
     <g id="line2d_30">
      <path clip-path="url(#p661337b448)" d="M 34.2 266.432104 
L 703.8 266.432104 
" style="fill:none;stroke:#ffffff;stroke-linecap:round;stroke-width:0.8;"/>
     </g>
     <g id="text_25">
      <!-- 1.0 -->
      <g style="fill:#262626;" transform="translate(12.2 269.869604)scale(0.1 -0.1)">
       <use xlink:href="#SimHei-49"/>
       <use x="50" xlink:href="#SimHei-46"/>
       <use x="100" xlink:href="#SimHei-48"/>
      </g>
     </g>
    </g>
   </g>
   <g id="line2d_31">
    <path clip-path="url(#p661337b448)" d="M 64.636364 303.925861 
L 92.305785 314.767342 
L 119.975207 341.982999 
L 147.644628 340.704556 
L 175.31405 335.713574 
L 202.983471 339.397222 
L 230.652893 338.328242 
L 258.322314 342.358586 
L 285.991736 348.057406 
L 313.661157 342.503043 
L 341.330579 324.258152 
L 369 326.836706 
L 396.669421 332.41996 
L 424.338843 342.221352 
L 452.008264 358.609974 
L 479.677686 373.055651 
L 507.347107 382.026417 
L 535.016529 373.828495 
L 562.68595 362.41641 
L 590.355372 350.368714 
L 618.024793 323.044715 
L 645.694215 251.213583 
L 673.363636 261.029421 
" style="fill:none;stroke:#1f77b4;stroke-linecap:round;stroke-width:1.5;"/>
   </g>
   <g id="line2d_32">
    <path clip-path="url(#p661337b448)" d="M 64.636364 324.424277 
L 92.305785 327.010054 
L 119.975207 340.321746 
L 147.644628 340.047278 
L 175.31405 331.878247 
L 202.983471 339.368331 
L 230.652893 336.789777 
L 258.322314 339.989495 
L 285.991736 344.792683 
L 313.661157 339.267211 
L 341.330579 321.094549 
L 369 320.661178 
L 396.669421 325.305464 
L 424.338843 335.511335 
L 452.008264 352.080527 
L 479.677686 380.827426 
L 507.347107 377.158224 
L 535.016529 371.899997 
L 562.68595 359.888416 
L 590.355372 347.941841 
L 618.024793 316.341921 
L 645.694215 253.286538 
L 673.363636 281.195587 
" style="fill:none;stroke:#ff7f0e;stroke-linecap:round;stroke-width:1.5;"/>
   </g>
   <g id="line2d_33">
    <path clip-path="url(#p661337b448)" d="M 64.636364 321.773496 
L 92.305785 327.501207 
L 119.975207 339.801701 
L 147.644628 340.921241 
L 175.31405 333.5395 
L 202.983471 339.751141 
L 230.652893 337.317045 
L 258.322314 339.902821 
L 285.991736 344.04873 
L 313.661157 340.950133 
L 341.330579 323.593651 
L 369 325.052664 
L 396.669421 327.876794 
L 424.338843 334.637371 
L 452.008264 350.137584 
L 479.677686 375.785884 
L 507.347107 375.706433 
L 535.016529 371.712203 
L 562.68595 362.531975 
L 590.355372 353.850123 
L 618.024793 317.425347 
L 645.694215 257.706915 
L 673.363636 278.617033 
" style="fill:none;stroke:#2ca02c;stroke-linecap:round;stroke-width:1.5;"/>
   </g>
   <g id="line2d_34">
    <path clip-path="url(#p661337b448)" d="M 64.636364 322.372991 
L 92.305785 326.916157 
L 119.975207 340.682888 
L 147.644628 337.938209 
L 175.31405 331.899916 
L 202.983471 338.848287 
L 230.652893 336.096385 
L 258.322314 341.650748 
L 285.991736 345.002145 
L 313.661157 336.768109 
L 341.330579 319.95334 
L 369 323.290292 
L 396.669421 328.223491 
L 424.338843 339.57057 
L 452.008264 356.544242 
L 479.677686 375.453634 
L 507.347107 377.266566 
L 535.016529 371.791654 
L 562.68595 361.643566 
L 590.355372 349.097495 
L 618.024793 317.497575 
L 645.694215 259.028695 
L 673.363636 280.437189 
" style="fill:none;stroke:#d62728;stroke-linecap:round;stroke-width:1.5;"/>
   </g>
   <g id="patch_9">
    <path d="M 34.2 388.567059 
L 34.2 244.672941 
" style="fill:none;stroke:#ffffff;stroke-linecap:square;stroke-linejoin:miter;stroke-width:0.8;"/>
   </g>
   <g id="patch_10">
    <path d="M 703.8 388.567059 
L 703.8 244.672941 
" style="fill:none;stroke:#ffffff;stroke-linecap:square;stroke-linejoin:miter;stroke-width:0.8;"/>
   </g>
   <g id="patch_11">
    <path d="M 34.2 388.567059 
L 703.8 388.567059 
" style="fill:none;stroke:#ffffff;stroke-linecap:square;stroke-linejoin:miter;stroke-width:0.8;"/>
   </g>
   <g id="patch_12">
    <path d="M 34.2 244.672941 
L 703.8 244.672941 
" style="fill:none;stroke:#ffffff;stroke-linecap:square;stroke-linejoin:miter;stroke-width:0.8;"/>
   </g>
   <g id="legend_2">
    <g id="patch_13">
     <path d="M 325.5 309.235441 
L 412.5 309.235441 
Q 414.5 309.235441 414.5 307.235441 
L 414.5 251.672941 
Q 414.5 249.672941 412.5 249.672941 
L 325.5 249.672941 
Q 323.5 249.672941 323.5 251.672941 
L 323.5 307.235441 
Q 323.5 309.235441 325.5 309.235441 
z
" style="fill:#eaeaf2;opacity:0.8;stroke:#cccccc;stroke-linejoin:miter;"/>
    </g>
    <g id="line2d_35">
     <path d="M 327.5 257.985441 
L 347.5 257.985441 
" style="fill:none;stroke:#1f77b4;stroke-linecap:round;stroke-width:1.5;"/>
    </g>
    <g id="line2d_36"/>
    <g id="text_26">
     <!-- buy_y/t(%) -->
     <defs>
      <path d="M 49.21875 -13.28125 
L 0 -13.28125 
L 0 -8.59375 
L 49.21875 -8.59375 
z
" id="SimHei-95"/>
      <path d="M 46.875 71.09375 
L 5.46875 -2.734375 
L 1.5625 -0.390625 
L 42.96875 73.4375 
z
" id="SimHei-47"/>
      <path d="M 46.484375 -3.125 
L 42.1875 -7.421875 
Q 32.421875 1.953125 27.53125 12.109375 
Q 22.65625 22.265625 22.65625 35.15625 
Q 22.65625 48.046875 27.53125 58.203125 
Q 32.421875 68.359375 42.1875 78.125 
L 46.484375 73.828125 
Q 37.5 65.234375 33 56.046875 
Q 28.515625 46.875 28.515625 35.15625 
Q 28.515625 23.4375 33 14.25 
Q 37.5 5.078125 46.484375 -3.125 
z
" id="SimHei-40"/>
      <path d="M 21.875 51.953125 
Q 21.875 40.625 18.546875 37.5 
Q 15.234375 34.375 12.109375 34.375 
Q 8.984375 34.375 5.65625 37.5 
Q 2.34375 40.625 2.34375 51.953125 
Q 2.34375 63.28125 5.65625 66.40625 
Q 8.984375 69.53125 12.109375 69.53125 
Q 15.234375 69.53125 18.546875 66.40625 
Q 21.875 63.28125 21.875 51.953125 
z
M 41.015625 68.359375 
L 10.9375 1.171875 
L 7.8125 2.34375 
L 37.890625 69.53125 
z
M 46.484375 18.75 
Q 46.484375 7.421875 43.15625 4.296875 
Q 39.84375 1.171875 36.71875 1.171875 
Q 33.59375 1.171875 30.265625 4.296875 
Q 26.953125 7.421875 26.953125 18.75 
Q 26.953125 30.078125 30.265625 33.203125 
Q 33.59375 36.328125 36.71875 36.328125 
Q 39.84375 36.328125 43.15625 33.203125 
Q 46.484375 30.078125 46.484375 18.75 
z
M 15.625 51.953125 
Q 15.625 58.984375 14.84375 61.328125 
Q 14.0625 63.671875 12.109375 63.671875 
Q 10.15625 63.671875 9.375 61.328125 
Q 8.59375 58.984375 8.59375 51.953125 
Q 8.59375 44.921875 9.375 42.578125 
Q 10.15625 40.234375 12.109375 40.234375 
Q 14.0625 40.234375 14.84375 42.578125 
Q 15.625 44.921875 15.625 51.953125 
z
M 40.234375 18.75 
Q 40.234375 25.78125 39.453125 28.125 
Q 38.671875 30.46875 36.71875 30.46875 
Q 34.765625 30.46875 33.984375 28.125 
Q 33.203125 25.78125 33.203125 18.75 
Q 33.203125 11.71875 33.984375 9.375 
Q 34.765625 7.03125 36.71875 7.03125 
Q 38.671875 7.03125 39.453125 9.375 
Q 40.234375 11.71875 40.234375 18.75 
z
" id="SimHei-37"/>
      <path d="M 26.171875 35.15625 
Q 26.171875 22.265625 21.28125 12.109375 
Q 16.40625 1.953125 6.640625 -7.421875 
L 2.34375 -3.125 
Q 11.328125 5.078125 15.8125 14.25 
Q 20.3125 23.4375 20.3125 35.15625 
Q 20.3125 46.875 15.8125 56.046875 
Q 11.328125 65.234375 2.34375 73.828125 
L 6.640625 78.125 
Q 16.40625 68.359375 21.28125 58.203125 
Q 26.171875 48.046875 26.171875 35.15625 
z
" id="SimHei-41"/>
     </defs>
     <g style="fill:#262626;" transform="translate(355.5 261.485441)scale(0.1 -0.1)">
      <use xlink:href="#SimHei-98"/>
      <use x="50" xlink:href="#SimHei-117"/>
      <use x="100" xlink:href="#SimHei-121"/>
      <use x="150" xlink:href="#SimHei-95"/>
      <use x="200" xlink:href="#SimHei-121"/>
      <use x="250" xlink:href="#SimHei-47"/>
      <use x="300" xlink:href="#SimHei-116"/>
      <use x="350" xlink:href="#SimHei-40"/>
      <use x="400" xlink:href="#SimHei-37"/>
      <use x="450" xlink:href="#SimHei-41"/>
     </g>
    </g>
    <g id="line2d_37">
     <path d="M 327.5 272.126066 
L 347.5 272.126066 
" style="fill:none;stroke:#ff7f0e;stroke-linecap:round;stroke-width:1.5;"/>
    </g>
    <g id="line2d_38"/>
    <g id="text_27">
     <!-- cart_y/t(%) -->
     <g style="fill:#262626;" transform="translate(355.5 275.626066)scale(0.1 -0.1)">
      <use xlink:href="#SimHei-99"/>
      <use x="50" xlink:href="#SimHei-97"/>
      <use x="100" xlink:href="#SimHei-114"/>
      <use x="150" xlink:href="#SimHei-116"/>
      <use x="200" xlink:href="#SimHei-95"/>
      <use x="250" xlink:href="#SimHei-121"/>
      <use x="300" xlink:href="#SimHei-47"/>
      <use x="350" xlink:href="#SimHei-116"/>
      <use x="400" xlink:href="#SimHei-40"/>
      <use x="450" xlink:href="#SimHei-37"/>
      <use x="500" xlink:href="#SimHei-41"/>
     </g>
    </g>
    <g id="line2d_39">
     <path d="M 327.5 286.266691 
L 347.5 286.266691 
" style="fill:none;stroke:#2ca02c;stroke-linecap:round;stroke-width:1.5;"/>
    </g>
    <g id="line2d_40"/>
    <g id="text_28">
     <!-- fav_y/t(%) -->
     <g style="fill:#262626;" transform="translate(355.5 289.766691)scale(0.1 -0.1)">
      <use xlink:href="#SimHei-102"/>
      <use x="50" xlink:href="#SimHei-97"/>
      <use x="100" xlink:href="#SimHei-118"/>
      <use x="150" xlink:href="#SimHei-95"/>
      <use x="200" xlink:href="#SimHei-121"/>
      <use x="250" xlink:href="#SimHei-47"/>
      <use x="300" xlink:href="#SimHei-116"/>
      <use x="350" xlink:href="#SimHei-40"/>
      <use x="400" xlink:href="#SimHei-37"/>
      <use x="450" xlink:href="#SimHei-41"/>
     </g>
    </g>
    <g id="line2d_41">
     <path d="M 327.5 300.407316 
L 347.5 300.407316 
" style="fill:none;stroke:#d62728;stroke-linecap:round;stroke-width:1.5;"/>
    </g>
    <g id="line2d_42"/>
    <g id="text_29">
     <!-- pv_y/t(%) -->
     <g style="fill:#262626;" transform="translate(355.5 303.907316)scale(0.1 -0.1)">
      <use xlink:href="#SimHei-112"/>
      <use x="50" xlink:href="#SimHei-118"/>
      <use x="100" xlink:href="#SimHei-95"/>
      <use x="150" xlink:href="#SimHei-121"/>
      <use x="200" xlink:href="#SimHei-47"/>
      <use x="250" xlink:href="#SimHei-116"/>
      <use x="300" xlink:href="#SimHei-40"/>
      <use x="350" xlink:href="#SimHei-37"/>
      <use x="400" xlink:href="#SimHei-41"/>
     </g>
    </g>
   </g>
  </g>
  <g id="axes_3">
   <g id="patch_14">
    <path d="M 34.2 561.24 
L 703.8 561.24 
L 703.8 417.345882 
L 34.2 417.345882 
z
" style="fill:#eaeaf2;"/>
   </g>
   <g id="matplotlib.axis_5">
    <g id="xtick_11">
     <g id="line2d_43">
      <path clip-path="url(#p8d1de1d7da)" d="M 64.636364 561.24 
L 64.636364 417.345882 
" style="fill:none;stroke:#ffffff;stroke-linecap:round;stroke-width:0.8;"/>
     </g>
     <g id="text_30">
      <!-- 0 -->
      <g style="fill:#262626;" transform="translate(62.136364 575.115)scale(0.1 -0.1)">
       <use xlink:href="#SimHei-48"/>
      </g>
     </g>
    </g>
    <g id="xtick_12">
     <g id="line2d_44">
      <path clip-path="url(#p8d1de1d7da)" d="M 196.968379 561.24 
L 196.968379 417.345882 
" style="fill:none;stroke:#ffffff;stroke-linecap:round;stroke-width:0.8;"/>
     </g>
     <g id="text_31">
      <!-- 5 -->
      <g style="fill:#262626;" transform="translate(194.468379 575.115)scale(0.1 -0.1)">
       <use xlink:href="#SimHei-53"/>
      </g>
     </g>
    </g>
    <g id="xtick_13">
     <g id="line2d_45">
      <path clip-path="url(#p8d1de1d7da)" d="M 329.300395 561.24 
L 329.300395 417.345882 
" style="fill:none;stroke:#ffffff;stroke-linecap:round;stroke-width:0.8;"/>
     </g>
     <g id="text_32">
      <!-- 10 -->
      <g style="fill:#262626;" transform="translate(324.300395 575.115)scale(0.1 -0.1)">
       <use xlink:href="#SimHei-49"/>
       <use x="50" xlink:href="#SimHei-48"/>
      </g>
     </g>
    </g>
    <g id="xtick_14">
     <g id="line2d_46">
      <path clip-path="url(#p8d1de1d7da)" d="M 461.632411 561.24 
L 461.632411 417.345882 
" style="fill:none;stroke:#ffffff;stroke-linecap:round;stroke-width:0.8;"/>
     </g>
     <g id="text_33">
      <!-- 15 -->
      <g style="fill:#262626;" transform="translate(456.632411 575.115)scale(0.1 -0.1)">
       <use xlink:href="#SimHei-49"/>
       <use x="50" xlink:href="#SimHei-53"/>
      </g>
     </g>
    </g>
    <g id="xtick_15">
     <g id="line2d_47">
      <path clip-path="url(#p8d1de1d7da)" d="M 593.964427 561.24 
L 593.964427 417.345882 
" style="fill:none;stroke:#ffffff;stroke-linecap:round;stroke-width:0.8;"/>
     </g>
     <g id="text_34">
      <!-- 20 -->
      <g style="fill:#262626;" transform="translate(588.964427 575.115)scale(0.1 -0.1)">
       <use xlink:href="#SimHei-50"/>
       <use x="50" xlink:href="#SimHei-48"/>
      </g>
     </g>
    </g>
    <g id="text_35">
     <!-- date -->
     <g style="fill:#262626;" transform="translate(359 587.24)scale(0.1 -0.1)">
      <use xlink:href="#SimHei-100"/>
      <use x="50" xlink:href="#SimHei-97"/>
      <use x="100" xlink:href="#SimHei-116"/>
      <use x="150" xlink:href="#SimHei-101"/>
     </g>
    </g>
   </g>
   <g id="matplotlib.axis_6">
    <g id="ytick_9">
     <g id="line2d_48">
      <path clip-path="url(#p8d1de1d7da)" d="M 34.2 556.864727 
L 703.8 556.864727 
" style="fill:none;stroke:#ffffff;stroke-linecap:round;stroke-width:0.8;"/>
     </g>
     <g id="text_36">
      <!-- 0.0 -->
      <g style="fill:#262626;" transform="translate(12.2 560.302227)scale(0.1 -0.1)">
       <use xlink:href="#SimHei-48"/>
       <use x="50" xlink:href="#SimHei-46"/>
       <use x="100" xlink:href="#SimHei-48"/>
      </g>
     </g>
    </g>
    <g id="ytick_10">
     <g id="line2d_49">
      <path clip-path="url(#p8d1de1d7da)" d="M 34.2 526.150279 
L 703.8 526.150279 
" style="fill:none;stroke:#ffffff;stroke-linecap:round;stroke-width:0.8;"/>
     </g>
     <g id="text_37">
      <!-- 0.2 -->
      <g style="fill:#262626;" transform="translate(12.2 529.587779)scale(0.1 -0.1)">
       <use xlink:href="#SimHei-48"/>
       <use x="50" xlink:href="#SimHei-46"/>
       <use x="100" xlink:href="#SimHei-50"/>
      </g>
     </g>
    </g>
    <g id="ytick_11">
     <g id="line2d_50">
      <path clip-path="url(#p8d1de1d7da)" d="M 34.2 495.435831 
L 703.8 495.435831 
" style="fill:none;stroke:#ffffff;stroke-linecap:round;stroke-width:0.8;"/>
     </g>
     <g id="text_38">
      <!-- 0.4 -->
      <g style="fill:#262626;" transform="translate(12.2 498.873331)scale(0.1 -0.1)">
       <use xlink:href="#SimHei-48"/>
       <use x="50" xlink:href="#SimHei-46"/>
       <use x="100" xlink:href="#SimHei-52"/>
      </g>
     </g>
    </g>
    <g id="ytick_12">
     <g id="line2d_51">
      <path clip-path="url(#p8d1de1d7da)" d="M 34.2 464.721383 
L 703.8 464.721383 
" style="fill:none;stroke:#ffffff;stroke-linecap:round;stroke-width:0.8;"/>
     </g>
     <g id="text_39">
      <!-- 0.6 -->
      <g style="fill:#262626;" transform="translate(12.2 468.158883)scale(0.1 -0.1)">
       <use xlink:href="#SimHei-48"/>
       <use x="50" xlink:href="#SimHei-46"/>
       <use x="100" xlink:href="#SimHei-54"/>
      </g>
     </g>
    </g>
    <g id="ytick_13">
     <g id="line2d_52">
      <path clip-path="url(#p8d1de1d7da)" d="M 34.2 434.006935 
L 703.8 434.006935 
" style="fill:none;stroke:#ffffff;stroke-linecap:round;stroke-width:0.8;"/>
     </g>
     <g id="text_40">
      <!-- 0.8 -->
      <defs>
       <path d="M 2.734375 16.796875 
Q 2.734375 26.171875 5.078125 30.65625 
Q 7.421875 35.15625 12.890625 37.890625 
Q 8.203125 40.625 6.640625 43.9375 
Q 5.078125 47.265625 4.875 51.5625 
Q 4.6875 55.859375 6.046875 58.984375 
Q 7.421875 62.109375 10.15625 64.84375 
Q 12.890625 67.578125 16.203125 68.546875 
Q 19.53125 69.53125 23.4375 69.53125 
Q 27.34375 69.53125 30.46875 68.75 
Q 33.59375 67.96875 37.109375 65.421875 
Q 40.625 62.890625 42.1875 58.203125 
Q 43.75 53.515625 41.984375 47.265625 
Q 40.234375 41.015625 32.8125 37.5 
Q 39.453125 35.546875 42.1875 31.4375 
Q 44.921875 27.34375 44.921875 21.484375 
Q 44.921875 15.625 43.15625 12.109375 
Q 41.40625 8.59375 39.25 6.25 
Q 37.109375 3.90625 33.390625 2.53125 
Q 29.6875 1.171875 24.015625 1.171875 
Q 18.359375 1.171875 14.25 2.53125 
Q 10.15625 3.90625 7.421875 6.640625 
Q 4.6875 9.375 3.703125 13.078125 
Q 2.734375 16.796875 2.734375 26.171875 
z
M 10.9375 26.5625 
Q 10.546875 17.1875 12.296875 13.671875 
Q 14.0625 10.15625 18.75 9.171875 
Q 23.4375 8.203125 28.515625 9.375 
Q 33.59375 10.546875 35.546875 14.84375 
Q 37.5 19.140625 36.90625 23.4375 
Q 36.328125 27.734375 32.03125 30.65625 
Q 27.734375 33.59375 22.65625 33.203125 
Q 17.578125 32.8125 14.25 29.6875 
Q 10.9375 26.5625 10.546875 17.1875 
z
M 12.109375 56.25 
Q 12.109375 48.4375 14.84375 44.921875 
Q 17.578125 41.40625 23.4375 41.40625 
Q 29.296875 41.40625 32.21875 44.921875 
Q 35.15625 48.4375 34.953125 53.3125 
Q 34.765625 58.203125 31.4375 60.546875 
Q 28.125 62.890625 22.453125 62.5 
Q 16.796875 62.109375 14.453125 59.171875 
Q 12.109375 56.25 12.109375 48.4375 
z
" id="SimHei-56"/>
      </defs>
      <g style="fill:#262626;" transform="translate(12.2 437.444435)scale(0.1 -0.1)">
       <use xlink:href="#SimHei-48"/>
       <use x="50" xlink:href="#SimHei-46"/>
       <use x="100" xlink:href="#SimHei-56"/>
      </g>
     </g>
    </g>
   </g>
   <g id="line2d_53">
    <path clip-path="url(#p8d1de1d7da)" d="M 64.636364 504.95731 
L 91.102767 492.640816 
L 117.56917 483.272909 
L 144.035573 485.008276 
L 170.501976 485.668636 
L 196.968379 489.124012 
L 223.434783 489.154726 
L 249.901186 490.567591 
L 276.367589 492.779031 
L 302.833992 495.942619 
L 329.300395 498.691562 
L 355.766798 500.74943 
L 382.233202 504.588736 
L 408.699605 508.934831 
L 435.166008 513.188782 
L 461.632411 518.041665 
L 488.098814 508.013397 
L 514.565217 515.062363 
L 541.031621 517.135588 
L 567.498024 519.101313 
L 593.964427 520.560249 
L 620.43083 523.124906 
L 646.897233 522.679546 
L 673.363636 517.365947 
" style="fill:none;stroke:#1f77b4;stroke-linecap:round;stroke-width:1.5;"/>
   </g>
   <g id="line2d_54">
    <path clip-path="url(#p8d1de1d7da)" d="M 64.636364 460.743862 
L 91.102767 441.50126 
L 117.56917 423.886524 
L 144.035573 427.971546 
L 170.501976 427.572258 
L 196.968379 431.21192 
L 223.434783 430.566917 
L 249.901186 432.302283 
L 276.367589 436.617663 
L 302.833992 443.835558 
L 329.300395 446.338786 
L 355.766798 447.183433 
L 382.233202 449.456302 
L 408.699605 455.338119 
L 435.166008 465.427815 
L 461.632411 478.189668 
L 488.098814 472.062136 
L 514.565217 487.296502 
L 541.031621 491.043665 
L 567.498024 490.890092 
L 593.964427 486.8665 
L 620.43083 491.074379 
L 646.897233 488.279364 
L 673.363636 479.157173 
" style="fill:none;stroke:#ff7f0e;stroke-linecap:round;stroke-width:1.5;"/>
   </g>
   <g id="line2d_55">
    <path clip-path="url(#p8d1de1d7da)" d="M 64.636364 553.593638 
L 91.102767 552.902563 
L 117.56917 552.334346 
L 144.035573 552.411132 
L 170.501976 552.580061 
L 196.968379 552.795063 
L 223.434783 552.825777 
L 249.901186 552.948635 
L 276.367589 552.979349 
L 302.833992 553.163636 
L 329.300395 553.455423 
L 355.766798 553.608995 
L 382.233202 553.74721 
L 408.699605 553.900783 
L 435.166008 554.008283 
L 461.632411 554.115784 
L 488.098814 553.931497 
L 514.565217 554.346142 
L 541.031621 554.484357 
L 567.498024 554.515072 
L 593.964427 554.561143 
L 620.43083 554.699358 
L 646.897233 554.591858 
L 673.363636 554.253999 
" style="fill:none;stroke:#2ca02c;stroke-linecap:round;stroke-width:1.5;"/>
   </g>
   <g id="patch_15">
    <path d="M 34.2 561.24 
L 34.2 417.345882 
" style="fill:none;stroke:#ffffff;stroke-linecap:square;stroke-linejoin:miter;stroke-width:0.8;"/>
   </g>
   <g id="patch_16">
    <path d="M 703.8 561.24 
L 703.8 417.345882 
" style="fill:none;stroke:#ffffff;stroke-linecap:square;stroke-linejoin:miter;stroke-width:0.8;"/>
   </g>
   <g id="patch_17">
    <path d="M 34.2 561.24 
L 703.8 561.24 
" style="fill:none;stroke:#ffffff;stroke-linecap:square;stroke-linejoin:miter;stroke-width:0.8;"/>
   </g>
   <g id="patch_18">
    <path d="M 34.2 417.345882 
L 703.8 417.345882 
" style="fill:none;stroke:#ffffff;stroke-linecap:square;stroke-linejoin:miter;stroke-width:0.8;"/>
   </g>
   <g id="legend_3">
    <g id="patch_19">
     <path d="M 609.8 467.533382 
L 696.8 467.533382 
Q 698.8 467.533382 698.8 465.533382 
L 698.8 424.345882 
Q 698.8 422.345882 696.8 422.345882 
L 609.8 422.345882 
Q 607.8 422.345882 607.8 424.345882 
L 607.8 465.533382 
Q 607.8 467.533382 609.8 467.533382 
z
" style="fill:#eaeaf2;opacity:0.8;stroke:#cccccc;stroke-linejoin:miter;"/>
    </g>
    <g id="line2d_56">
     <path d="M 611.8 430.658382 
L 631.8 430.658382 
" style="fill:none;stroke:#1f77b4;stroke-linecap:round;stroke-width:1.5;"/>
    </g>
    <g id="line2d_57"/>
    <g id="text_41">
     <!-- buy/cart(%) -->
     <g style="fill:#262626;" transform="translate(639.8 434.158382)scale(0.1 -0.1)">
      <use xlink:href="#SimHei-98"/>
      <use x="50" xlink:href="#SimHei-117"/>
      <use x="100" xlink:href="#SimHei-121"/>
      <use x="150" xlink:href="#SimHei-47"/>
      <use x="200" xlink:href="#SimHei-99"/>
      <use x="250" xlink:href="#SimHei-97"/>
      <use x="300" xlink:href="#SimHei-114"/>
      <use x="350" xlink:href="#SimHei-116"/>
      <use x="400" xlink:href="#SimHei-40"/>
      <use x="450" xlink:href="#SimHei-37"/>
      <use x="500" xlink:href="#SimHei-41"/>
     </g>
    </g>
    <g id="line2d_58">
     <path d="M 611.8 444.720882 
L 631.8 444.720882 
" style="fill:none;stroke:#ff7f0e;stroke-linecap:round;stroke-width:1.5;"/>
    </g>
    <g id="line2d_59"/>
    <g id="text_42">
     <!-- buy/fav(%) -->
     <g style="fill:#262626;" transform="translate(639.8 448.220882)scale(0.1 -0.1)">
      <use xlink:href="#SimHei-98"/>
      <use x="50" xlink:href="#SimHei-117"/>
      <use x="100" xlink:href="#SimHei-121"/>
      <use x="150" xlink:href="#SimHei-47"/>
      <use x="200" xlink:href="#SimHei-102"/>
      <use x="250" xlink:href="#SimHei-97"/>
      <use x="300" xlink:href="#SimHei-118"/>
      <use x="350" xlink:href="#SimHei-40"/>
      <use x="400" xlink:href="#SimHei-37"/>
      <use x="450" xlink:href="#SimHei-41"/>
     </g>
    </g>
    <g id="line2d_60">
     <path d="M 611.8 458.783382 
L 631.8 458.783382 
" style="fill:none;stroke:#2ca02c;stroke-linecap:round;stroke-width:1.5;"/>
    </g>
    <g id="line2d_61"/>
    <g id="text_43">
     <!-- buy/pv(%) -->
     <g style="fill:#262626;" transform="translate(639.8 462.283382)scale(0.1 -0.1)">
      <use xlink:href="#SimHei-98"/>
      <use x="50" xlink:href="#SimHei-117"/>
      <use x="100" xlink:href="#SimHei-121"/>
      <use x="150" xlink:href="#SimHei-47"/>
      <use x="200" xlink:href="#SimHei-112"/>
      <use x="250" xlink:href="#SimHei-118"/>
      <use x="300" xlink:href="#SimHei-40"/>
      <use x="350" xlink:href="#SimHei-37"/>
      <use x="400" xlink:href="#SimHei-41"/>
     </g>
    </g>
   </g>
  </g>
  <g id="text_44">
   <!--  -->
   <defs>
    <path d="M 39.453125 71.484375 
Q 39.0625 57.421875 39.0625 37.5 
Q 39.0625 17.578125 39.453125 6.25 
L 31.25 6.25 
L 31.25 13.671875 
L 15.625 13.671875 
L 15.625 0.78125 
L 7.421875 0.78125 
Q 7.8125 18.75 7.8125 36.71875 
Q 7.8125 55.078125 7.421875 71.484375 
L 39.453125 71.484375 
z
M 76.171875 59.765625 
Q 76.171875 71.484375 75.78125 81.640625 
L 84.375 81.640625 
Q 83.984375 71.484375 83.984375 59.765625 
Q 89.84375 59.765625 96.484375 60.15625 
L 96.484375 52.734375 
Q 89.84375 53.125 83.984375 53.125 
L 83.984375 0.78125 
Q 83.984375 -5.078125 79.296875 -6.640625 
Q 74.609375 -8.203125 67.1875 -8.984375 
Q 67.1875 -4.296875 62.890625 0 
Q 70.3125 -0.78125 73.234375 -0.390625 
Q 76.171875 0 76.171875 4.6875 
L 76.171875 53.125 
Q 56.640625 53.125 43.359375 52.734375 
L 43.359375 60.15625 
Q 55.859375 59.765625 76.171875 59.765625 
z
M 31.25 20.3125 
L 31.25 39.84375 
L 15.625 39.84375 
L 15.625 20.3125 
z
M 31.25 46.484375 
L 31.25 64.84375 
L 15.625 64.84375 
L 15.625 46.484375 
z
M 55.46875 42.578125 
Q 60.546875 34.375 65.234375 25 
Q 61.328125 23.828125 57.03125 21.484375 
Q 53.90625 30.859375 48.046875 39.0625 
Q 51.5625 40.625 55.46875 42.578125 
z
" id="SimHei-26102"/>
    <path d="M 69.53125 55.46875 
Q 69.140625 48.046875 69.140625 42.578125 
L 69.140625 21.875 
Q 69.140625 16.796875 69.53125 9.765625 
L 30.078125 9.765625 
Q 30.46875 16.796875 30.46875 22.265625 
L 30.46875 42.578125 
Q 30.46875 48.046875 30.078125 55.46875 
L 69.53125 55.46875 
z
M 90.625 76.171875 
Q 90.234375 68.75 90.234375 61.328125 
L 90.234375 3.90625 
Q 90.625 -5.078125 85.34375 -7.03125 
Q 80.078125 -8.984375 73.828125 -9.765625 
Q 73.4375 -5.078125 70.703125 -0.390625 
Q 78.125 -0.78125 80.265625 0.390625 
Q 82.421875 1.5625 82.421875 5.46875 
L 82.421875 69.53125 
L 58.984375 69.53125 
Q 49.609375 69.53125 41.40625 69.140625 
L 41.40625 76.5625 
Q 49.609375 76.171875 58.984375 76.171875 
z
M 8.59375 -8.203125 
Q 9.375 -0.390625 9.375 8.203125 
L 9.375 49.21875 
Q 9.375 57.421875 8.59375 62.890625 
L 17.578125 62.890625 
Q 17.1875 57.03125 17.1875 51.5625 
L 17.1875 7.8125 
Q 17.1875 0 17.578125 -8.203125 
z
M 61.71875 16.015625 
L 61.71875 30.46875 
L 37.890625 30.46875 
L 37.890625 16.015625 
z
M 61.71875 36.71875 
L 61.71875 49.21875 
L 37.890625 49.21875 
L 37.890625 36.71875 
z
M 23.828125 82.8125 
Q 27.34375 78.125 34.765625 67.96875 
Q 30.46875 66.015625 26.5625 63.671875 
Q 22.65625 71.484375 16.796875 78.515625 
Q 21.09375 81.640625 23.828125 82.8125 
z
" id="SimHei-38388"/>
    <path d="M 8.203125 66.40625 
Q 14.0625 66.015625 21.875 66.015625 
L 44.140625 66.015625 
Q 40.234375 41.015625 34.375 27.34375 
Q 44.140625 13.671875 48.828125 6.25 
Q 46.09375 4.296875 42.578125 1.171875 
Q 34.375 15.234375 30.46875 20.3125 
Q 25.78125 12.109375 21.09375 6.640625 
Q 16.40625 1.171875 9.375 -5.46875 
Q 6.640625 -1.953125 3.125 -0.390625 
Q 9.765625 4.296875 15.234375 10.546875 
Q 20.703125 16.796875 25.78125 26.5625 
Q 16.40625 37.890625 8.59375 45.3125 
Q 10.9375 47.265625 14.0625 50.390625 
Q 25.390625 37.890625 29.296875 33.59375 
Q 34.375 47.65625 35.9375 59.765625 
L 21.875 59.765625 
Q 14.0625 59.765625 8.203125 59.375 
z
M 45.703125 57.8125 
Q 55.078125 57.421875 58.59375 57.421875 
L 75.390625 57.421875 
L 75.390625 69.140625 
Q 75.390625 74.21875 74.609375 80.078125 
L 83.59375 80.078125 
Q 83.203125 75.390625 83.203125 68.359375 
L 83.203125 57.421875 
Q 87.109375 57.421875 96.09375 57.8125 
L 96.09375 50.78125 
Q 87.109375 51.171875 83.203125 51.171875 
L 83.203125 1.953125 
Q 83.59375 -5.46875 78.3125 -7.421875 
Q 73.046875 -9.375 66.40625 -10.15625 
Q 65.234375 -5.46875 62.890625 -1.5625 
Q 71.484375 -1.5625 73.625 -0.578125 
Q 75.78125 0.390625 75.390625 5.078125 
L 75.390625 51.171875 
L 58.984375 51.171875 
Q 55.46875 51.171875 45.703125 50.390625 
z
M 53.90625 42.578125 
Q 60.546875 30.859375 65.234375 20.703125 
Q 60.15625 18.75 57.8125 16.796875 
Q 54.296875 27.34375 47.65625 38.671875 
Q 50.390625 39.84375 53.90625 42.578125 
z
" id="SimHei-23545"/>
    <path d="M 5.46875 -4.6875 
Q 10.15625 1.953125 12.6875 9.375 
Q 15.234375 16.796875 15.8125 24.21875 
Q 16.40625 31.640625 16.40625 49.21875 
Q 16.40625 66.796875 16.015625 77.34375 
L 85.9375 77.34375 
Q 85.546875 66.015625 85.546875 57.03125 
L 85.546875 5.859375 
Q 85.546875 -2.34375 80.859375 -4.296875 
Q 76.171875 -6.25 69.921875 -7.03125 
Q 69.140625 -1.171875 67.1875 1.953125 
Q 75 1.5625 76.359375 2.53125 
Q 77.734375 3.515625 77.734375 6.25 
L 77.734375 25.78125 
L 53.90625 25.78125 
L 53.90625 10.546875 
Q 53.90625 1.953125 54.296875 -5.078125 
L 45.703125 -5.078125 
Q 46.09375 1.5625 46.09375 10.15625 
L 46.09375 25.78125 
L 23.828125 25.78125 
Q 22.265625 8.984375 13.28125 -8.203125 
Q 8.984375 -5.46875 5.46875 -4.6875 
z
M 77.734375 54.296875 
L 77.734375 71.09375 
L 53.90625 71.09375 
L 53.90625 54.296875 
z
M 77.734375 32.03125 
L 77.734375 48.4375 
L 53.90625 48.4375 
L 53.90625 32.03125 
z
M 46.09375 54.296875 
L 46.09375 71.09375 
L 23.828125 71.09375 
L 23.828125 54.296875 
z
M 46.09375 32.03125 
L 46.09375 48.4375 
L 23.828125 48.4375 
L 23.828125 32.03125 
z
" id="SimHei-29992"/>
    <path d="M 90.234375 63.28125 
Q 89.84375 53.90625 89.84375 41.796875 
Q 89.84375 30.078125 90.234375 23.4375 
L 81.640625 23.4375 
L 81.640625 29.296875 
L 27.34375 29.296875 
Q 25.78125 16.796875 23.4375 10.546875 
Q 21.09375 4.296875 18.359375 -0.578125 
Q 15.625 -5.46875 12.5 -9.765625 
Q 8.59375 -6.640625 3.90625 -5.078125 
Q 11.71875 3.125 14.640625 10.34375 
Q 17.578125 17.578125 18.546875 24.015625 
Q 19.53125 30.46875 19.53125 37.890625 
Q 19.53125 45.3125 19.140625 63.28125 
L 90.234375 63.28125 
z
M 81.25 36.328125 
L 81.25 56.25 
L 26.953125 56.25 
L 26.953125 36.328125 
z
M 53.125 82.421875 
Q 57.8125 73.046875 59.765625 67.578125 
Q 54.6875 66.40625 51.953125 64.84375 
Q 49.21875 73.046875 45.703125 79.296875 
Q 49.609375 80.46875 53.125 82.421875 
z
" id="SimHei-25143"/>
    <path d="M 82.8125 48.4375 
Q 90.234375 48.4375 96.484375 48.828125 
L 96.484375 41.015625 
Q 90.234375 41.40625 83.203125 41.40625 
L 77.734375 41.40625 
L 77.734375 -1.171875 
Q 78.125 -5.859375 74.796875 -7.609375 
Q 71.484375 -9.375 61.71875 -10.546875 
Q 60.9375 -5.859375 57.421875 -1.171875 
Q 64.0625 -1.953125 66.796875 -1.75 
Q 69.53125 -1.5625 69.921875 2.34375 
L 69.921875 41.40625 
L 54.296875 41.40625 
Q 46.875 41.40625 40.234375 41.015625 
L 40.234375 48.828125 
Q 47.265625 48.4375 54.296875 48.4375 
z
M 35.9375 53.125 
Q 32.421875 51.171875 30.65625 48.046875 
Q 28.90625 44.921875 25.78125 40.234375 
L 25.78125 5.078125 
Q 25.78125 0 26.171875 -10.546875 
L 17.96875 -10.546875 
Q 18.359375 1.171875 18.359375 7.03125 
L 18.359375 32.03125 
Q 14.84375 26.171875 8.984375 20.3125 
Q 6.25 24.21875 3.90625 26.953125 
Q 12.890625 35.546875 17.96875 43.359375 
Q 23.046875 51.171875 26.953125 58.203125 
Q 30.859375 55.859375 35.9375 53.125 
z
M 76.171875 75 
Q 82.8125 75 89.84375 75.390625 
L 89.84375 67.96875 
Q 82.8125 68.359375 75.390625 68.359375 
L 60.9375 68.359375 
Q 52.34375 68.359375 46.09375 67.96875 
L 46.09375 75.390625 
Q 52.34375 75 60.9375 75 
z
M 32.421875 76.953125 
Q 29.296875 76.5625 24.21875 68.546875 
Q 19.140625 60.546875 10.15625 50.78125 
Q 7.8125 53.90625 5.078125 56.640625 
Q 11.328125 62.890625 16.40625 70.109375 
Q 21.484375 77.34375 23.828125 82.8125 
Q 27.734375 80.46875 32.421875 76.953125 
z
" id="SimHei-34892"/>
    <path d="M 55.078125 80.078125 
Q 53.515625 76.5625 52.921875 69.921875 
Q 52.34375 63.28125 51.171875 52.34375 
L 91.40625 52.34375 
Q 90.625 45.703125 90.234375 41.015625 
L 85.9375 1.953125 
Q 84.765625 -5.078125 78.515625 -7.03125 
Q 72.265625 -8.984375 62.890625 -9.375 
Q 61.71875 -3.90625 58.984375 0 
Q 70.703125 -0.78125 74.21875 0.390625 
Q 77.734375 1.5625 78.515625 7.421875 
L 82.421875 45.703125 
L 50.390625 45.703125 
Q 46.875 27.734375 37.296875 14.453125 
Q 27.734375 1.171875 13.28125 -9.375 
Q 9.375 -4.296875 6.25 -2.34375 
Q 18.75 3.90625 28.703125 16.203125 
Q 38.671875 28.515625 42.1875 45.703125 
L 29.296875 45.703125 
Q 22.65625 45.703125 12.109375 45.3125 
L 12.109375 52.734375 
Q 22.65625 52.34375 26.5625 52.34375 
L 43.359375 52.34375 
Q 44.921875 65.625 44.921875 81.640625 
Q 51.171875 80.46875 55.078125 80.078125 
z
M 54.6875 33.984375 
Q 64.453125 27.734375 74.21875 21.09375 
Q 71.875 18.75 68.75 13.28125 
Q 60.15625 21.09375 50.78125 26.953125 
Q 53.515625 31.25 54.6875 33.984375 
z
M 17.578125 71.09375 
Q 21.09375 73.828125 23.4375 76.5625 
Q 34.375 66.015625 38.28125 61.328125 
Q 35.15625 58.59375 31.640625 55.46875 
Q 27.34375 61.71875 17.578125 71.09375 
z
" id="SimHei-20026"/>
    <path d="M 55.46875 78.515625 
Q 54.6875 72.265625 54.875 65.421875 
Q 55.078125 58.59375 55.46875 51.953125 
L 12.109375 51.953125 
Q 12.5 58.59375 12.296875 65.421875 
Q 12.109375 72.265625 12.109375 78.515625 
L 55.46875 78.515625 
z
M 22.65625 -1.5625 
Q 32.03125 -1.171875 30.859375 3.125 
L 30.859375 17.1875 
L 12.109375 17.1875 
Q 12.5 21.484375 12.296875 25.78125 
Q 12.109375 30.078125 12.109375 34.765625 
L 55.46875 34.765625 
Q 55.078125 30.078125 54.875 25.78125 
Q 54.6875 21.484375 55.46875 17.1875 
L 38.671875 17.1875 
L 38.671875 2.734375 
Q 39.0625 -3.90625 35.9375 -5.859375 
Q 32.8125 -7.8125 25.390625 -9.375 
Q 24.609375 -5.078125 22.65625 -1.5625 
z
M 37.109375 50.78125 
Q 37.5 48.046875 37.890625 44.921875 
L 49.609375 44.921875 
Q 56.25 44.921875 63.28125 45.3125 
L 63.28125 38.671875 
Q 56.25 39.0625 49.609375 39.0625 
L 18.75 39.0625 
Q 10.9375 39.0625 4.296875 38.671875 
L 4.296875 45.3125 
Q 10.9375 44.921875 18.75 44.921875 
L 29.6875 44.921875 
Q 29.296875 47.265625 28.90625 50 
Q 32.8125 50.78125 37.109375 50.78125 
z
M 96.09375 21.09375 
Q 88.671875 12.109375 78.125 3.515625 
Q 67.578125 -5.078125 58.203125 -10.15625 
Q 55.859375 -6.25 53.125 -3.90625 
Q 62.109375 0.390625 71.875 7.8125 
Q 81.640625 15.234375 90.234375 26.953125 
Q 92.96875 23.828125 96.09375 21.09375 
z
M 92.578125 48.828125 
Q 87.890625 44.53125 81.4375 36.90625 
Q 75 29.296875 65.625 22.265625 
Q 62.890625 25.390625 59.375 26.953125 
Q 68.359375 32.03125 74.796875 39.453125 
Q 81.25 46.875 86.328125 54.6875 
Q 88.671875 51.953125 92.578125 48.828125 
z
M 89.453125 75.390625 
Q 83.203125 71.09375 78.703125 65.03125 
Q 74.21875 58.984375 65.234375 51.171875 
Q 62.109375 53.90625 59.375 55.46875 
Q 65.234375 59.765625 71.09375 66.203125 
Q 76.953125 72.65625 81.640625 80.859375 
Q 84.765625 78.125 89.453125 75.390625 
z
M 48.046875 23.046875 
L 48.046875 28.90625 
L 19.53125 28.90625 
L 19.53125 23.046875 
z
M 48.046875 57.8125 
L 48.046875 62.5 
L 19.53125 62.5 
L 19.53125 57.8125 
z
M 48.046875 68.359375 
L 48.046875 73.046875 
L 19.53125 73.046875 
L 19.53125 68.359375 
z
M 23.4375 7.8125 
Q 16.796875 1.171875 8.984375 -5.078125 
Q 7.421875 -2.734375 4.296875 -0.390625 
Q 10.9375 3.90625 17.578125 12.890625 
Q 20.3125 9.765625 23.4375 7.8125 
z
M 50.78125 -0.78125 
Q 47.65625 4.296875 42.96875 8.59375 
Q 45.3125 10.9375 48.046875 13.28125 
Q 53.125 8.203125 56.25 3.90625 
L 50.78125 -0.78125 
z
" id="SimHei-24433"/>
    <path d="M 64.84375 80.078125 
Q 62.5 77.734375 60.15625 67.578125 
L 91.796875 67.578125 
Q 91.40625 59.375 91.40625 51.953125 
L 91.40625 0.78125 
Q 91.015625 -3.515625 87.890625 -5.46875 
Q 84.765625 -7.421875 75.78125 -8.59375 
Q 75.78125 -5.078125 71.875 0.390625 
Q 80.078125 0.390625 81.828125 0.96875 
Q 83.59375 1.5625 83.59375 3.515625 
L 83.59375 61.71875 
L 46.09375 61.71875 
L 46.09375 -8.984375 
L 38.28125 -8.984375 
Q 38.671875 -1.171875 38.671875 7.03125 
L 38.671875 48.828125 
Q 38.671875 58.59375 38.28125 67.578125 
L 52.34375 67.578125 
Q 54.296875 74.609375 55.078125 82.03125 
Q 61.71875 80.46875 64.84375 80.078125 
z
M 76.171875 14.0625 
L 53.515625 14.0625 
L 53.515625 48.4375 
L 76.171875 48.4375 
z
M 69.53125 19.921875 
L 69.53125 42.1875 
L 60.546875 42.1875 
L 60.546875 19.921875 
z
M 32.421875 70.3125 
Q 32.03125 62.109375 32.03125 53.515625 
L 32.03125 27.34375 
Q 32.03125 19.53125 32.421875 9.375 
L 25.78125 9.375 
L 25.78125 16.40625 
L 14.84375 16.40625 
L 14.84375 4.296875 
L 7.8125 4.296875 
Q 8.203125 11.71875 8.203125 19.921875 
L 8.203125 53.515625 
Q 8.203125 62.109375 7.8125 70.3125 
L 32.421875 70.3125 
z
M 25.78125 21.875 
L 25.78125 64.453125 
L 14.84375 64.453125 
L 14.84375 21.875 
z
" id="SimHei-21709"/>
    <path d="M 84.765625 79.6875 
L 89.0625 74.609375 
Q 66.796875 58.203125 67.578125 36.71875 
Q 67.96875 16.015625 88.671875 0.78125 
L 84.375 -4.296875 
Q 60.546875 12.890625 61.328125 39.0625 
Q 61.328125 60.546875 84.765625 79.6875 
z
" id="SimHei-65288"/>
    <path d="M 15.625 79.6875 
Q 39.0625 60.546875 39.0625 39.0625 
Q 39.84375 12.890625 16.015625 -4.296875 
L 11.71875 0.78125 
Q 32.421875 16.015625 32.8125 36.71875 
Q 33.59375 58.203125 11.328125 74.609375 
L 15.625 79.6875 
z
" id="SimHei-65289"/>
   </defs>
   <g style="fill:#262626;" transform="translate(268.2 19.328906)scale(0.15 -0.15)">
    <use xlink:href="#SimHei-26102"/>
    <use x="100" xlink:href="#SimHei-38388"/>
    <use x="200" xlink:href="#SimHei-23545"/>
    <use x="300" xlink:href="#SimHei-29992"/>
    <use x="400" xlink:href="#SimHei-25143"/>
    <use x="500" xlink:href="#SimHei-34892"/>
    <use x="600" xlink:href="#SimHei-20026"/>
    <use x="700" xlink:href="#SimHei-24433"/>
    <use x="800" xlink:href="#SimHei-21709"/>
    <use x="900" xlink:href="#SimHei-65288"/>
    <use x="1000" xlink:href="#SimHei-26102"/>
    <use x="1100" xlink:href="#SimHei-65289"/>
   </g>
  </g>
 </g>
 <defs>
  <clipPath id="pa5e0c48a4a">
   <rect height="143.894118" width="669.6" x="34.2" y="72"/>
  </clipPath>
  <clipPath id="p661337b448">
   <rect height="143.894118" width="669.6" x="34.2" y="244.672941"/>
  </clipPath>
  <clipPath id="p8d1de1d7da">
   <rect height="143.894118" width="669.6" x="34.2" y="417.345882"/>
  </clipPath>
 </defs>
</svg>
