<?xml version="1.0" encoding="utf-8" standalone="no"?>
<!DOCTYPE svg PUBLIC "-//W3C//DTD SVG 1.1//EN"
  "http://www.w3.org/Graphics/SVG/1.1/DTD/svg11.dtd">
<!-- Created with matplotlib (https://matplotlib.org/) -->
<svg height="384.2975pt" version="1.1" viewBox="0 0 882.7 384.2975" width="882.7pt" xmlns="http://www.w3.org/2000/svg" xmlns:xlink="http://www.w3.org/1999/xlink">
 <defs>
  <style type="text/css">
*{stroke-linecap:butt;stroke-linejoin:round;}
  </style>
 </defs>
 <g id="figure_1">
  <g id="patch_1">
   <path d="M 0 384.2975 
L 882.7 384.2975 
L 882.7 0 
L 0 0 
z
" style="fill:#ffffff;"/>
  </g>
  <g id="axes_1">
   <g id="patch_2">
    <path d="M 38.5 347.16 
L 875.5 347.16 
L 875.5 21 
L 38.5 21 
z
" style="fill:#ffffff;"/>
   </g>
   <g id="matplotlib.axis_1">
    <g id="xtick_1">
     <g id="line2d_1">
      <path clip-path="url(#p3230dc840e)" d="M 102.338983 347.16 
L 102.338983 21 
" style="fill:none;stroke:#cccccc;stroke-linecap:round;stroke-width:0.8;"/>
     </g>
     <g id="text_1">
      <!-- (-0.072, 6.0] -->
      <defs>
       <path d="M 46.484375 -3.125 
L 42.1875 -7.421875 
Q 32.421875 1.953125 27.53125 12.109375 
Q 22.65625 22.265625 22.65625 35.15625 
Q 22.65625 48.046875 27.53125 58.203125 
Q 32.421875 68.359375 42.1875 78.125 
L 46.484375 73.828125 
Q 37.5 65.234375 33 56.046875 
Q 28.515625 46.875 28.515625 35.15625 
Q 28.515625 23.4375 33 14.25 
Q 37.5 5.078125 46.484375 -3.125 
z
" id="SimHei-40"/>
       <path d="M 46.484375 33.203125 
L 1.953125 33.203125 
L 1.953125 39.453125 
L 46.484375 39.453125 
z
" id="SimHei-45"/>
       <path d="M 3.125 29.296875 
Q 3.90625 50 6.4375 56.046875 
Q 8.984375 62.109375 13.671875 66.015625 
Q 18.359375 69.921875 25.1875 69.921875 
Q 32.03125 69.921875 37.109375 64.25 
Q 42.1875 58.59375 43.75 50 
Q 45.3125 41.40625 44.71875 30.265625 
Q 44.140625 19.140625 40.8125 12.109375 
Q 37.5 5.078125 30.859375 2.34375 
Q 24.21875 -0.390625 17.578125 2.921875 
Q 10.9375 6.25 8.203125 11.71875 
Q 5.46875 17.1875 4.296875 23.234375 
Q 3.125 29.296875 3.90625 50 
z
M 12.890625 52.734375 
Q 10.546875 31.25 12.5 22.84375 
Q 14.453125 14.453125 18.9375 10.9375 
Q 23.4375 7.421875 28.125 9.5625 
Q 32.8125 11.71875 34.953125 18.15625 
Q 37.109375 24.609375 37.109375 32.21875 
Q 37.109375 39.84375 36.515625 46.09375 
Q 35.9375 52.34375 33 57.421875 
Q 30.078125 62.5 25.1875 62.6875 
Q 20.3125 62.890625 16.59375 57.8125 
Q 12.890625 52.734375 10.546875 31.25 
z
" id="SimHei-48"/>
       <path d="M 16.796875 1.953125 
L 7.8125 1.953125 
L 7.8125 10.546875 
L 16.796875 10.546875 
z
" id="SimHei-46"/>
       <path d="M 13.28125 2.34375 
Q 20.3125 32.03125 37.890625 61.328125 
L 4.296875 61.328125 
L 4.296875 68.359375 
L 46.09375 68.359375 
L 46.09375 61.71875 
Q 27.734375 32.03125 21.875 2.34375 
L 13.28125 2.34375 
z
" id="SimHei-55"/>
       <path d="M 4.6875 3.90625 
Q 5.078125 9.765625 10.15625 14.453125 
Q 15.234375 19.140625 23.046875 29.09375 
Q 30.859375 39.0625 33.203125 44.53125 
Q 35.546875 50 34.953125 53.90625 
Q 34.375 57.8125 31.25 60.34375 
Q 28.125 62.890625 24.015625 62.5 
Q 19.921875 62.109375 16.203125 59.375 
Q 12.5 56.640625 10.546875 51.171875 
L 3.125 52.34375 
Q 6.25 61.328125 11.125 65.421875 
Q 16.015625 69.53125 22.65625 69.921875 
Q 26.5625 70.3125 29.6875 69.71875 
Q 32.8125 69.140625 36.125 66.984375 
Q 39.453125 64.84375 41.59375 60.546875 
Q 43.75 56.25 43.15625 50.1875 
Q 42.578125 44.140625 37.109375 35.734375 
Q 31.640625 27.34375 16.015625 9.375 
L 44.140625 9.375 
L 44.140625 2.34375 
L 4.6875 2.34375 
z
" id="SimHei-50"/>
       <path d="M 17.1875 1.953125 
L 12.109375 -8.59375 
L 8.203125 -8.59375 
L 12.109375 1.953125 
L 8.203125 1.953125 
L 8.203125 10.546875 
L 17.1875 10.546875 
z
" id="SimHei-44"/>
       <path id="SimHei-32"/>
       <path d="M 3.515625 19.53125 
Q 4.296875 30.859375 6.046875 34.765625 
Q 7.8125 38.671875 11.328125 44.53125 
L 27.34375 69.53125 
L 36.328125 69.53125 
L 19.921875 43.75 
Q 30.46875 46.484375 36.71875 42.96875 
Q 42.96875 39.453125 45.109375 34.953125 
Q 47.265625 30.46875 47.453125 25.1875 
Q 47.65625 19.921875 45.890625 14.84375 
Q 44.140625 9.765625 39.640625 5.65625 
Q 35.15625 1.5625 27.140625 1.171875 
Q 19.140625 0.78125 13.46875 4.09375 
Q 7.8125 7.421875 5.65625 13.46875 
Q 3.515625 19.53125 4.296875 30.859375 
z
M 12.5 16.015625 
Q 19.53125 8.59375 25.390625 8.203125 
Q 31.25 7.8125 35.15625 12.109375 
Q 39.0625 16.40625 39.0625 24.609375 
Q 39.0625 32.8125 34.171875 35.9375 
Q 29.296875 39.0625 23.234375 38.28125 
Q 17.1875 37.5 14.453125 32.421875 
Q 11.71875 27.34375 12.109375 21.671875 
Q 12.5 16.015625 19.53125 8.59375 
z
" id="SimHei-54"/>
       <path d="M 29.296875 -8.203125 
L 4.6875 -8.203125 
L 4.6875 -1.953125 
L 22.65625 -1.953125 
L 22.65625 72.65625 
L 4.6875 72.65625 
L 4.6875 78.90625 
L 29.296875 78.90625 
z
" id="SimHei-93"/>
      </defs>
      <g style="fill:#262626;" transform="translate(69.838983 362.96)scale(0.1 -0.1)">
       <use xlink:href="#SimHei-40"/>
       <use x="50" xlink:href="#SimHei-45"/>
       <use x="100" xlink:href="#SimHei-48"/>
       <use x="150" xlink:href="#SimHei-46"/>
       <use x="200" xlink:href="#SimHei-48"/>
       <use x="250" xlink:href="#SimHei-55"/>
       <use x="300" xlink:href="#SimHei-50"/>
       <use x="350" xlink:href="#SimHei-44"/>
       <use x="400" xlink:href="#SimHei-32"/>
       <use x="450" xlink:href="#SimHei-54"/>
       <use x="500" xlink:href="#SimHei-46"/>
       <use x="550" xlink:href="#SimHei-48"/>
       <use x="600" xlink:href="#SimHei-93"/>
      </g>
     </g>
    </g>
    <g id="xtick_2">
     <g id="line2d_2">
      <path clip-path="url(#p3230dc840e)" d="M 166.822804 347.16 
L 166.822804 21 
" style="fill:none;stroke:#cccccc;stroke-linecap:round;stroke-width:0.8;"/>
     </g>
     <g id="text_2">
      <!-- (6.0, 12.0] -->
      <defs>
       <path d="M 21.875 56.25 
Q 16.796875 51.171875 8.984375 46.484375 
L 8.984375 53.90625 
Q 18.75 60.546875 25 69.53125 
L 29.6875 69.53125 
L 29.6875 2.34375 
L 21.875 2.34375 
z
" id="SimHei-49"/>
      </defs>
      <g style="fill:#262626;" transform="translate(139.322804 362.96)scale(0.1 -0.1)">
       <use xlink:href="#SimHei-40"/>
       <use x="50" xlink:href="#SimHei-54"/>
       <use x="100" xlink:href="#SimHei-46"/>
       <use x="150" xlink:href="#SimHei-48"/>
       <use x="200" xlink:href="#SimHei-44"/>
       <use x="250" xlink:href="#SimHei-32"/>
       <use x="300" xlink:href="#SimHei-49"/>
       <use x="350" xlink:href="#SimHei-50"/>
       <use x="400" xlink:href="#SimHei-46"/>
       <use x="450" xlink:href="#SimHei-48"/>
       <use x="500" xlink:href="#SimHei-93"/>
      </g>
     </g>
    </g>
    <g id="xtick_3">
     <g id="line2d_3">
      <path clip-path="url(#p3230dc840e)" d="M 231.306626 347.16 
L 231.306626 21 
" style="fill:none;stroke:#cccccc;stroke-linecap:round;stroke-width:0.8;"/>
     </g>
     <g id="text_3">
      <!-- (12.0, 18.0] -->
      <defs>
       <path d="M 2.734375 16.796875 
Q 2.734375 26.171875 5.078125 30.65625 
Q 7.421875 35.15625 12.890625 37.890625 
Q 8.203125 40.625 6.640625 43.9375 
Q 5.078125 47.265625 4.875 51.5625 
Q 4.6875 55.859375 6.046875 58.984375 
Q 7.421875 62.109375 10.15625 64.84375 
Q 12.890625 67.578125 16.203125 68.546875 
Q 19.53125 69.53125 23.4375 69.53125 
Q 27.34375 69.53125 30.46875 68.75 
Q 33.59375 67.96875 37.109375 65.421875 
Q 40.625 62.890625 42.1875 58.203125 
Q 43.75 53.515625 41.984375 47.265625 
Q 40.234375 41.015625 32.8125 37.5 
Q 39.453125 35.546875 42.1875 31.4375 
Q 44.921875 27.34375 44.921875 21.484375 
Q 44.921875 15.625 43.15625 12.109375 
Q 41.40625 8.59375 39.25 6.25 
Q 37.109375 3.90625 33.390625 2.53125 
Q 29.6875 1.171875 24.015625 1.171875 
Q 18.359375 1.171875 14.25 2.53125 
Q 10.15625 3.90625 7.421875 6.640625 
Q 4.6875 9.375 3.703125 13.078125 
Q 2.734375 16.796875 2.734375 26.171875 
z
M 10.9375 26.5625 
Q 10.546875 17.1875 12.296875 13.671875 
Q 14.0625 10.15625 18.75 9.171875 
Q 23.4375 8.203125 28.515625 9.375 
Q 33.59375 10.546875 35.546875 14.84375 
Q 37.5 19.140625 36.90625 23.4375 
Q 36.328125 27.734375 32.03125 30.65625 
Q 27.734375 33.59375 22.65625 33.203125 
Q 17.578125 32.8125 14.25 29.6875 
Q 10.9375 26.5625 10.546875 17.1875 
z
M 12.109375 56.25 
Q 12.109375 48.4375 14.84375 44.921875 
Q 17.578125 41.40625 23.4375 41.40625 
Q 29.296875 41.40625 32.21875 44.921875 
Q 35.15625 48.4375 34.953125 53.3125 
Q 34.765625 58.203125 31.4375 60.546875 
Q 28.125 62.890625 22.453125 62.5 
Q 16.796875 62.109375 14.453125 59.171875 
Q 12.109375 56.25 12.109375 48.4375 
z
" id="SimHei-56"/>
      </defs>
      <g style="fill:#262626;" transform="translate(201.306626 362.96)scale(0.1 -0.1)">
       <use xlink:href="#SimHei-40"/>
       <use x="50" xlink:href="#SimHei-49"/>
       <use x="100" xlink:href="#SimHei-50"/>
       <use x="150" xlink:href="#SimHei-46"/>
       <use x="200" xlink:href="#SimHei-48"/>
       <use x="250" xlink:href="#SimHei-44"/>
       <use x="300" xlink:href="#SimHei-32"/>
       <use x="350" xlink:href="#SimHei-49"/>
       <use x="400" xlink:href="#SimHei-56"/>
       <use x="450" xlink:href="#SimHei-46"/>
       <use x="500" xlink:href="#SimHei-48"/>
       <use x="550" xlink:href="#SimHei-93"/>
      </g>
     </g>
    </g>
    <g id="xtick_4">
     <g id="line2d_4">
      <path clip-path="url(#p3230dc840e)" d="M 295.790447 347.16 
L 295.790447 21 
" style="fill:none;stroke:#cccccc;stroke-linecap:round;stroke-width:0.8;"/>
     </g>
     <g id="text_4">
      <!-- (18.0, 24.0] -->
      <defs>
       <path d="M 31.25 17.1875 
L 1.171875 17.1875 
L 1.171875 23.828125 
L 32.8125 69.53125 
L 38.671875 69.53125 
L 38.671875 23.828125 
L 48.046875 23.828125 
L 48.046875 17.1875 
L 38.671875 17.1875 
L 38.671875 2.34375 
L 31.25 2.34375 
z
M 31.25 23.828125 
L 31.25 54.6875 
L 9.375 23.828125 
z
" id="SimHei-52"/>
      </defs>
      <g style="fill:#262626;" transform="translate(265.790447 362.96)scale(0.1 -0.1)">
       <use xlink:href="#SimHei-40"/>
       <use x="50" xlink:href="#SimHei-49"/>
       <use x="100" xlink:href="#SimHei-56"/>
       <use x="150" xlink:href="#SimHei-46"/>
       <use x="200" xlink:href="#SimHei-48"/>
       <use x="250" xlink:href="#SimHei-44"/>
       <use x="300" xlink:href="#SimHei-32"/>
       <use x="350" xlink:href="#SimHei-50"/>
       <use x="400" xlink:href="#SimHei-52"/>
       <use x="450" xlink:href="#SimHei-46"/>
       <use x="500" xlink:href="#SimHei-48"/>
       <use x="550" xlink:href="#SimHei-93"/>
      </g>
     </g>
    </g>
    <g id="xtick_5">
     <g id="line2d_5">
      <path clip-path="url(#p3230dc840e)" d="M 360.274268 347.16 
L 360.274268 21 
" style="fill:none;stroke:#cccccc;stroke-linecap:round;stroke-width:0.8;"/>
     </g>
     <g id="text_5">
      <!-- (24.0, 30.0] -->
      <defs>
       <path d="M 3.90625 19.140625 
L 10.9375 20.3125 
Q 12.5 15.234375 16.015625 11.90625 
Q 19.53125 8.59375 24.796875 8.78125 
Q 30.078125 8.984375 33.203125 13.078125 
Q 36.328125 17.1875 35.9375 22.453125 
Q 35.546875 27.734375 31.828125 30.65625 
Q 28.125 33.59375 19.921875 34.765625 
L 19.921875 39.84375 
Q 28.125 40.625 31.828125 44.140625 
Q 35.546875 47.65625 35.15625 53.3125 
Q 34.765625 58.984375 30.078125 61.515625 
Q 25.390625 64.0625 20.109375 62.109375 
Q 14.84375 60.15625 11.71875 51.171875 
L 4.6875 52.34375 
Q 7.03125 59.375 11.125 64.0625 
Q 15.234375 68.75 22.265625 69.53125 
Q 29.296875 70.3125 34.5625 67.765625 
Q 39.84375 65.234375 41.984375 59.953125 
Q 44.140625 54.6875 42.578125 48.4375 
Q 41.015625 42.1875 33.59375 37.5 
Q 39.0625 35.15625 41.984375 30.46875 
Q 44.921875 25.78125 43.9375 18.15625 
Q 42.96875 10.546875 37.109375 5.859375 
Q 31.25 1.171875 23.828125 1.359375 
Q 16.40625 1.5625 10.9375 6.046875 
Q 5.46875 10.546875 3.90625 19.140625 
z
" id="SimHei-51"/>
      </defs>
      <g style="fill:#262626;" transform="translate(330.274268 362.96)scale(0.1 -0.1)">
       <use xlink:href="#SimHei-40"/>
       <use x="50" xlink:href="#SimHei-50"/>
       <use x="100" xlink:href="#SimHei-52"/>
       <use x="150" xlink:href="#SimHei-46"/>
       <use x="200" xlink:href="#SimHei-48"/>
       <use x="250" xlink:href="#SimHei-44"/>
       <use x="300" xlink:href="#SimHei-32"/>
       <use x="350" xlink:href="#SimHei-51"/>
       <use x="400" xlink:href="#SimHei-48"/>
       <use x="450" xlink:href="#SimHei-46"/>
       <use x="500" xlink:href="#SimHei-48"/>
       <use x="550" xlink:href="#SimHei-93"/>
      </g>
     </g>
    </g>
    <g id="xtick_6">
     <g id="line2d_6">
      <path clip-path="url(#p3230dc840e)" d="M 424.758089 347.16 
L 424.758089 21 
" style="fill:none;stroke:#cccccc;stroke-linecap:round;stroke-width:0.8;"/>
     </g>
     <g id="text_6">
      <!-- (30.0, 36.0] -->
      <g style="fill:#262626;" transform="translate(394.758089 362.96)scale(0.1 -0.1)">
       <use xlink:href="#SimHei-40"/>
       <use x="50" xlink:href="#SimHei-51"/>
       <use x="100" xlink:href="#SimHei-48"/>
       <use x="150" xlink:href="#SimHei-46"/>
       <use x="200" xlink:href="#SimHei-48"/>
       <use x="250" xlink:href="#SimHei-44"/>
       <use x="300" xlink:href="#SimHei-32"/>
       <use x="350" xlink:href="#SimHei-51"/>
       <use x="400" xlink:href="#SimHei-54"/>
       <use x="450" xlink:href="#SimHei-46"/>
       <use x="500" xlink:href="#SimHei-48"/>
       <use x="550" xlink:href="#SimHei-93"/>
      </g>
     </g>
    </g>
    <g id="xtick_7">
     <g id="line2d_7">
      <path clip-path="url(#p3230dc840e)" d="M 489.241911 347.16 
L 489.241911 21 
" style="fill:none;stroke:#cccccc;stroke-linecap:round;stroke-width:0.8;"/>
     </g>
     <g id="text_7">
      <!-- (36.0, 42.0] -->
      <g style="fill:#262626;" transform="translate(459.241911 362.96)scale(0.1 -0.1)">
       <use xlink:href="#SimHei-40"/>
       <use x="50" xlink:href="#SimHei-51"/>
       <use x="100" xlink:href="#SimHei-54"/>
       <use x="150" xlink:href="#SimHei-46"/>
       <use x="200" xlink:href="#SimHei-48"/>
       <use x="250" xlink:href="#SimHei-44"/>
       <use x="300" xlink:href="#SimHei-32"/>
       <use x="350" xlink:href="#SimHei-52"/>
       <use x="400" xlink:href="#SimHei-50"/>
       <use x="450" xlink:href="#SimHei-46"/>
       <use x="500" xlink:href="#SimHei-48"/>
       <use x="550" xlink:href="#SimHei-93"/>
      </g>
     </g>
    </g>
    <g id="xtick_8">
     <g id="line2d_8">
      <path clip-path="url(#p3230dc840e)" d="M 553.725732 347.16 
L 553.725732 21 
" style="fill:none;stroke:#cccccc;stroke-linecap:round;stroke-width:0.8;"/>
     </g>
     <g id="text_8">
      <!-- (42.0, 48.0] -->
      <g style="fill:#262626;" transform="translate(523.725732 362.96)scale(0.1 -0.1)">
       <use xlink:href="#SimHei-40"/>
       <use x="50" xlink:href="#SimHei-52"/>
       <use x="100" xlink:href="#SimHei-50"/>
       <use x="150" xlink:href="#SimHei-46"/>
       <use x="200" xlink:href="#SimHei-48"/>
       <use x="250" xlink:href="#SimHei-44"/>
       <use x="300" xlink:href="#SimHei-32"/>
       <use x="350" xlink:href="#SimHei-52"/>
       <use x="400" xlink:href="#SimHei-56"/>
       <use x="450" xlink:href="#SimHei-46"/>
       <use x="500" xlink:href="#SimHei-48"/>
       <use x="550" xlink:href="#SimHei-93"/>
      </g>
     </g>
    </g>
    <g id="xtick_9">
     <g id="line2d_9">
      <path clip-path="url(#p3230dc840e)" d="M 618.209553 347.16 
L 618.209553 21 
" style="fill:none;stroke:#cccccc;stroke-linecap:round;stroke-width:0.8;"/>
     </g>
     <g id="text_9">
      <!-- (48.0, 54.0] -->
      <defs>
       <path d="M 8.59375 20.703125 
Q 11.328125 10.15625 17.96875 8.984375 
Q 24.609375 7.8125 28.703125 10.34375 
Q 32.8125 12.890625 34.5625 16.984375 
Q 36.328125 21.09375 36.125 26.171875 
Q 35.9375 31.25 33.390625 34.765625 
Q 30.859375 38.28125 26.953125 39.453125 
Q 23.046875 40.625 18.15625 39.453125 
Q 13.28125 38.28125 10.15625 33.984375 
L 3.515625 34.765625 
Q 4.296875 37.109375 10.9375 68.359375 
L 41.796875 68.359375 
L 41.796875 61.328125 
L 16.796875 61.328125 
Q 14.84375 50.78125 12.890625 44.53125 
Q 18.75 47.265625 23.828125 47.0625 
Q 28.90625 46.875 33.59375 44.71875 
Q 38.28125 42.578125 40.421875 38.859375 
Q 42.578125 35.15625 43.546875 31.4375 
Q 44.53125 27.734375 44.328125 23.4375 
Q 44.140625 19.140625 42.578125 14.640625 
Q 41.015625 10.15625 37.890625 7.21875 
Q 34.765625 4.296875 30.265625 2.53125 
Q 25.78125 0.78125 19.921875 1.171875 
Q 14.0625 1.5625 8.78125 5.46875 
Q 3.515625 9.375 1.5625 18.75 
z
" id="SimHei-53"/>
      </defs>
      <g style="fill:#262626;" transform="translate(588.209553 362.96)scale(0.1 -0.1)">
       <use xlink:href="#SimHei-40"/>
       <use x="50" xlink:href="#SimHei-52"/>
       <use x="100" xlink:href="#SimHei-56"/>
       <use x="150" xlink:href="#SimHei-46"/>
       <use x="200" xlink:href="#SimHei-48"/>
       <use x="250" xlink:href="#SimHei-44"/>
       <use x="300" xlink:href="#SimHei-32"/>
       <use x="350" xlink:href="#SimHei-53"/>
       <use x="400" xlink:href="#SimHei-52"/>
       <use x="450" xlink:href="#SimHei-46"/>
       <use x="500" xlink:href="#SimHei-48"/>
       <use x="550" xlink:href="#SimHei-93"/>
      </g>
     </g>
    </g>
    <g id="xtick_10">
     <g id="line2d_10">
      <path clip-path="url(#p3230dc840e)" d="M 682.693374 347.16 
L 682.693374 21 
" style="fill:none;stroke:#cccccc;stroke-linecap:round;stroke-width:0.8;"/>
     </g>
     <g id="text_10">
      <!-- (54.0, 60.0] -->
      <g style="fill:#262626;" transform="translate(652.693374 362.96)scale(0.1 -0.1)">
       <use xlink:href="#SimHei-40"/>
       <use x="50" xlink:href="#SimHei-53"/>
       <use x="100" xlink:href="#SimHei-52"/>
       <use x="150" xlink:href="#SimHei-46"/>
       <use x="200" xlink:href="#SimHei-48"/>
       <use x="250" xlink:href="#SimHei-44"/>
       <use x="300" xlink:href="#SimHei-32"/>
       <use x="350" xlink:href="#SimHei-54"/>
       <use x="400" xlink:href="#SimHei-48"/>
       <use x="450" xlink:href="#SimHei-46"/>
       <use x="500" xlink:href="#SimHei-48"/>
       <use x="550" xlink:href="#SimHei-93"/>
      </g>
     </g>
    </g>
    <g id="xtick_11">
     <g id="line2d_11">
      <path clip-path="url(#p3230dc840e)" d="M 747.177196 347.16 
L 747.177196 21 
" style="fill:none;stroke:#cccccc;stroke-linecap:round;stroke-width:0.8;"/>
     </g>
     <g id="text_11">
      <!-- (60.0, 66.0] -->
      <g style="fill:#262626;" transform="translate(717.177196 362.96)scale(0.1 -0.1)">
       <use xlink:href="#SimHei-40"/>
       <use x="50" xlink:href="#SimHei-54"/>
       <use x="100" xlink:href="#SimHei-48"/>
       <use x="150" xlink:href="#SimHei-46"/>
       <use x="200" xlink:href="#SimHei-48"/>
       <use x="250" xlink:href="#SimHei-44"/>
       <use x="300" xlink:href="#SimHei-32"/>
       <use x="350" xlink:href="#SimHei-54"/>
       <use x="400" xlink:href="#SimHei-54"/>
       <use x="450" xlink:href="#SimHei-46"/>
       <use x="500" xlink:href="#SimHei-48"/>
       <use x="550" xlink:href="#SimHei-93"/>
      </g>
     </g>
    </g>
    <g id="xtick_12">
     <g id="line2d_12">
      <path clip-path="url(#p3230dc840e)" d="M 811.661017 347.16 
L 811.661017 21 
" style="fill:none;stroke:#cccccc;stroke-linecap:round;stroke-width:0.8;"/>
     </g>
     <g id="text_12">
      <!-- (66.0, 72.0] -->
      <g style="fill:#262626;" transform="translate(781.661017 362.96)scale(0.1 -0.1)">
       <use xlink:href="#SimHei-40"/>
       <use x="50" xlink:href="#SimHei-54"/>
       <use x="100" xlink:href="#SimHei-54"/>
       <use x="150" xlink:href="#SimHei-46"/>
       <use x="200" xlink:href="#SimHei-48"/>
       <use x="250" xlink:href="#SimHei-44"/>
       <use x="300" xlink:href="#SimHei-32"/>
       <use x="350" xlink:href="#SimHei-55"/>
       <use x="400" xlink:href="#SimHei-50"/>
       <use x="450" xlink:href="#SimHei-46"/>
       <use x="500" xlink:href="#SimHei-48"/>
       <use x="550" xlink:href="#SimHei-93"/>
      </g>
     </g>
    </g>
    <g id="text_13">
     <!-- 时间 -->
     <defs>
      <path d="M 39.453125 71.484375 
Q 39.0625 57.421875 39.0625 37.5 
Q 39.0625 17.578125 39.453125 6.25 
L 31.25 6.25 
L 31.25 13.671875 
L 15.625 13.671875 
L 15.625 0.78125 
L 7.421875 0.78125 
Q 7.8125 18.75 7.8125 36.71875 
Q 7.8125 55.078125 7.421875 71.484375 
L 39.453125 71.484375 
z
M 76.171875 59.765625 
Q 76.171875 71.484375 75.78125 81.640625 
L 84.375 81.640625 
Q 83.984375 71.484375 83.984375 59.765625 
Q 89.84375 59.765625 96.484375 60.15625 
L 96.484375 52.734375 
Q 89.84375 53.125 83.984375 53.125 
L 83.984375 0.78125 
Q 83.984375 -5.078125 79.296875 -6.640625 
Q 74.609375 -8.203125 67.1875 -8.984375 
Q 67.1875 -4.296875 62.890625 0 
Q 70.3125 -0.78125 73.234375 -0.390625 
Q 76.171875 0 76.171875 4.6875 
L 76.171875 53.125 
Q 56.640625 53.125 43.359375 52.734375 
L 43.359375 60.15625 
Q 55.859375 59.765625 76.171875 59.765625 
z
M 31.25 20.3125 
L 31.25 39.84375 
L 15.625 39.84375 
L 15.625 20.3125 
z
M 31.25 46.484375 
L 31.25 64.84375 
L 15.625 64.84375 
L 15.625 46.484375 
z
M 55.46875 42.578125 
Q 60.546875 34.375 65.234375 25 
Q 61.328125 23.828125 57.03125 21.484375 
Q 53.90625 30.859375 48.046875 39.0625 
Q 51.5625 40.625 55.46875 42.578125 
z
" id="SimHei-26102"/>
      <path d="M 69.53125 55.46875 
Q 69.140625 48.046875 69.140625 42.578125 
L 69.140625 21.875 
Q 69.140625 16.796875 69.53125 9.765625 
L 30.078125 9.765625 
Q 30.46875 16.796875 30.46875 22.265625 
L 30.46875 42.578125 
Q 30.46875 48.046875 30.078125 55.46875 
L 69.53125 55.46875 
z
M 90.625 76.171875 
Q 90.234375 68.75 90.234375 61.328125 
L 90.234375 3.90625 
Q 90.625 -5.078125 85.34375 -7.03125 
Q 80.078125 -8.984375 73.828125 -9.765625 
Q 73.4375 -5.078125 70.703125 -0.390625 
Q 78.125 -0.78125 80.265625 0.390625 
Q 82.421875 1.5625 82.421875 5.46875 
L 82.421875 69.53125 
L 58.984375 69.53125 
Q 49.609375 69.53125 41.40625 69.140625 
L 41.40625 76.5625 
Q 49.609375 76.171875 58.984375 76.171875 
z
M 8.59375 -8.203125 
Q 9.375 -0.390625 9.375 8.203125 
L 9.375 49.21875 
Q 9.375 57.421875 8.59375 62.890625 
L 17.578125 62.890625 
Q 17.1875 57.03125 17.1875 51.5625 
L 17.1875 7.8125 
Q 17.1875 0 17.578125 -8.203125 
z
M 61.71875 16.015625 
L 61.71875 30.46875 
L 37.890625 30.46875 
L 37.890625 16.015625 
z
M 61.71875 36.71875 
L 61.71875 49.21875 
L 37.890625 49.21875 
L 37.890625 36.71875 
z
M 23.828125 82.8125 
Q 27.34375 78.125 34.765625 67.96875 
Q 30.46875 66.015625 26.5625 63.671875 
Q 22.65625 71.484375 16.796875 78.515625 
Q 21.09375 81.640625 23.828125 82.8125 
z
" id="SimHei-38388"/>
     </defs>
     <g style="fill:#262626;" transform="translate(447.4 375.8975)scale(0.096 -0.096)">
      <use xlink:href="#SimHei-26102"/>
      <use x="100" xlink:href="#SimHei-38388"/>
     </g>
    </g>
   </g>
   <g id="matplotlib.axis_2">
    <g id="ytick_1">
     <g id="line2d_13">
      <path clip-path="url(#p3230dc840e)" d="M 38.5 347.16 
L 875.5 347.16 
" style="fill:none;stroke:#cccccc;stroke-linecap:round;stroke-width:0.8;"/>
     </g>
     <g id="text_14">
      <!-- 0 -->
      <g style="fill:#262626;" transform="translate(25.2 350.5975)scale(0.1 -0.1)">
       <use xlink:href="#SimHei-48"/>
      </g>
     </g>
    </g>
    <g id="ytick_2">
     <g id="line2d_14">
      <path clip-path="url(#p3230dc840e)" d="M 38.5 288.48441 
L 875.5 288.48441 
" style="fill:none;stroke:#cccccc;stroke-linecap:round;stroke-width:0.8;"/>
     </g>
     <g id="text_15">
      <!-- 10 -->
      <g style="fill:#262626;" transform="translate(20.2 291.92191)scale(0.1 -0.1)">
       <use xlink:href="#SimHei-49"/>
       <use x="50" xlink:href="#SimHei-48"/>
      </g>
     </g>
    </g>
    <g id="ytick_3">
     <g id="line2d_15">
      <path clip-path="url(#p3230dc840e)" d="M 38.5 229.808821 
L 875.5 229.808821 
" style="fill:none;stroke:#cccccc;stroke-linecap:round;stroke-width:0.8;"/>
     </g>
     <g id="text_16">
      <!-- 20 -->
      <g style="fill:#262626;" transform="translate(20.2 233.246321)scale(0.1 -0.1)">
       <use xlink:href="#SimHei-50"/>
       <use x="50" xlink:href="#SimHei-48"/>
      </g>
     </g>
    </g>
    <g id="ytick_4">
     <g id="line2d_16">
      <path clip-path="url(#p3230dc840e)" d="M 38.5 171.133231 
L 875.5 171.133231 
" style="fill:none;stroke:#cccccc;stroke-linecap:round;stroke-width:0.8;"/>
     </g>
     <g id="text_17">
      <!-- 30 -->
      <g style="fill:#262626;" transform="translate(20.2 174.570731)scale(0.1 -0.1)">
       <use xlink:href="#SimHei-51"/>
       <use x="50" xlink:href="#SimHei-48"/>
      </g>
     </g>
    </g>
    <g id="ytick_5">
     <g id="line2d_17">
      <path clip-path="url(#p3230dc840e)" d="M 38.5 112.457642 
L 875.5 112.457642 
" style="fill:none;stroke:#cccccc;stroke-linecap:round;stroke-width:0.8;"/>
     </g>
     <g id="text_18">
      <!-- 40 -->
      <g style="fill:#262626;" transform="translate(20.2 115.895142)scale(0.1 -0.1)">
       <use xlink:href="#SimHei-52"/>
       <use x="50" xlink:href="#SimHei-48"/>
      </g>
     </g>
    </g>
    <g id="ytick_6">
     <g id="line2d_18">
      <path clip-path="url(#p3230dc840e)" d="M 38.5 53.782052 
L 875.5 53.782052 
" style="fill:none;stroke:#cccccc;stroke-linecap:round;stroke-width:0.8;"/>
     </g>
     <g id="text_19">
      <!-- 50 -->
      <g style="fill:#262626;" transform="translate(20.2 57.219552)scale(0.1 -0.1)">
       <use xlink:href="#SimHei-53"/>
       <use x="50" xlink:href="#SimHei-48"/>
      </g>
     </g>
    </g>
    <g id="text_20">
     <!-- 客户流失率 -->
     <defs>
      <path d="M 80.078125 4.296875 
Q 80.078125 -1.5625 80.859375 -9.765625 
L 72.65625 -9.765625 
L 72.65625 -3.90625 
L 32.421875 -3.90625 
L 32.421875 -10.15625 
L 24.21875 -10.15625 
Q 24.609375 -1.953125 24.609375 3.515625 
L 24.609375 12.5 
Q 24.609375 14.84375 24.21875 19.53125 
Q 21.484375 18.359375 7.421875 14.0625 
Q 6.25 18.75 3.515625 23.046875 
Q 17.578125 25 26.953125 27.34375 
Q 36.328125 29.6875 44.53125 33.984375 
Q 39.84375 36.328125 30.46875 44.140625 
Q 25.78125 39.453125 19.921875 34.765625 
Q 17.1875 38.671875 13.28125 40.625 
Q 21.484375 45.703125 27.53125 52.140625 
Q 33.59375 58.59375 36.328125 65.234375 
Q 41.40625 62.890625 46.484375 61.328125 
Q 44.140625 59.765625 41.015625 56.25 
L 78.515625 56.25 
Q 74.21875 49.609375 70.3125 45.109375 
Q 66.40625 40.625 58.203125 33.984375 
Q 63.671875 31.640625 72.84375 29.296875 
Q 82.03125 26.953125 96.484375 26.171875 
Q 93.75 21.484375 92.96875 16.40625 
Q 85.546875 18.359375 80.859375 19.53125 
Q 80.078125 15.625 80.078125 11.328125 
z
M 92.96875 73.4375 
Q 92.578125 66.796875 92.578125 63.671875 
Q 92.578125 60.9375 92.96875 55.078125 
L 84.765625 55.078125 
L 84.765625 66.40625 
L 16.40625 66.40625 
L 16.40625 54.6875 
L 7.8125 54.6875 
Q 8.203125 58.59375 8.203125 62.109375 
Q 8.203125 65.625 7.8125 73.4375 
L 47.265625 73.4375 
Q 46.09375 77.34375 44.140625 80.859375 
Q 50 82.03125 53.515625 82.8125 
Q 56.25 75 56.640625 73.4375 
z
M 72.65625 1.953125 
L 72.65625 13.28125 
L 32.421875 13.28125 
L 32.421875 1.953125 
z
M 37.890625 23.4375 
Q 31.640625 21.09375 25 19.53125 
L 80.078125 19.53125 
Q 67.96875 22.265625 61.90625 24.609375 
Q 55.859375 26.953125 50.78125 28.90625 
Q 44.140625 25.78125 37.890625 23.4375 
z
M 35.9375 50 
Q 35.546875 49.609375 35.15625 48.828125 
Q 44.921875 40.625 51.953125 37.890625 
Q 59.375 43.359375 64.84375 50 
L 35.9375 50 
z
" id="SimHei-23458"/>
      <path d="M 90.234375 63.28125 
Q 89.84375 53.90625 89.84375 41.796875 
Q 89.84375 30.078125 90.234375 23.4375 
L 81.640625 23.4375 
L 81.640625 29.296875 
L 27.34375 29.296875 
Q 25.78125 16.796875 23.4375 10.546875 
Q 21.09375 4.296875 18.359375 -0.578125 
Q 15.625 -5.46875 12.5 -9.765625 
Q 8.59375 -6.640625 3.90625 -5.078125 
Q 11.71875 3.125 14.640625 10.34375 
Q 17.578125 17.578125 18.546875 24.015625 
Q 19.53125 30.46875 19.53125 37.890625 
Q 19.53125 45.3125 19.140625 63.28125 
L 90.234375 63.28125 
z
M 81.25 36.328125 
L 81.25 56.25 
L 26.953125 56.25 
L 26.953125 36.328125 
z
M 53.125 82.421875 
Q 57.8125 73.046875 59.765625 67.578125 
Q 54.6875 66.40625 51.953125 64.84375 
Q 49.21875 73.046875 45.703125 79.296875 
Q 49.609375 80.46875 53.125 82.421875 
z
" id="SimHei-25143"/>
      <path d="M 58.203125 82.03125 
Q 62.109375 76.171875 66.015625 69.53125 
L 78.515625 69.53125 
Q 84.765625 69.53125 92.578125 69.921875 
L 92.578125 62.890625 
Q 83.203125 63.28125 78.515625 63.28125 
L 53.515625 63.28125 
Q 56.640625 60.9375 58.984375 59.765625 
Q 57.03125 58.203125 53.90625 54.296875 
Q 50.78125 50.390625 44.53125 43.359375 
Q 58.59375 43.75 74.609375 44.53125 
Q 70.703125 49.21875 66.796875 52.734375 
Q 70.703125 55.46875 72.265625 57.421875 
Q 83.203125 46.09375 90.625 37.109375 
Q 87.109375 34.375 84.375 32.03125 
Q 81.25 36.328125 78.90625 39.453125 
Q 70.3125 38.671875 55.65625 37.6875 
Q 41.015625 36.71875 35.9375 35.15625 
Q 34.765625 38.671875 32.421875 41.796875 
Q 36.328125 42.96875 41.796875 49.609375 
Q 47.265625 56.25 50.78125 63.28125 
L 46.484375 63.28125 
Q 39.453125 63.28125 32.03125 62.5 
L 32.03125 69.921875 
Q 39.453125 69.53125 46.484375 69.53125 
L 57.421875 69.53125 
Q 54.296875 75 51.953125 78.125 
Q 55.859375 80.078125 58.203125 82.03125 
z
M 78.515625 31.640625 
Q 78.125 26.5625 78.125 21.484375 
L 78.125 2.34375 
Q 78.125 -1.171875 81.640625 -1.171875 
L 85.546875 -1.171875 
Q 88.671875 -1.171875 89.0625 7.8125 
Q 92.1875 5.46875 96.875 4.296875 
Q 94.53125 -5.46875 91.984375 -6.640625 
Q 89.453125 -7.8125 85.9375 -7.8125 
L 78.515625 -7.8125 
Q 71.09375 -7.8125 71.09375 -0.390625 
L 71.09375 22.265625 
Q 71.09375 26.953125 70.703125 31.640625 
L 78.515625 31.640625 
z
M 48.828125 30.859375 
Q 48.046875 26.953125 47.453125 18.9375 
Q 46.875 10.9375 43.9375 3.515625 
Q 41.015625 -3.90625 30.46875 -10.9375 
Q 27.734375 -7.421875 24.609375 -5.078125 
Q 32.421875 -1.5625 36.125 4.484375 
Q 39.84375 10.546875 40.234375 18.15625 
Q 40.625 25.78125 40.234375 31.640625 
Q 44.140625 30.859375 48.828125 30.859375 
z
M 62.5 31.640625 
Q 62.109375 29.296875 62.109375 21.875 
L 62.109375 4.6875 
Q 62.109375 -0.390625 62.5 -7.8125 
L 54.296875 -7.8125 
Q 54.6875 -0.78125 54.6875 4.6875 
L 54.6875 21.875 
Q 54.6875 28.515625 54.296875 31.640625 
L 62.5 31.640625 
z
M 29.6875 25.390625 
Q 25.78125 18.75 21.09375 8.78125 
Q 16.40625 -1.171875 13.28125 -6.640625 
Q 9.765625 -3.90625 5.078125 -1.953125 
Q 8.984375 2.734375 14.0625 11.71875 
Q 19.140625 20.703125 22.65625 30.46875 
Q 25.78125 27.734375 29.6875 25.390625 
z
M 9.765625 53.90625 
Q 18.75 48.4375 26.953125 42.578125 
Q 23.828125 39.453125 21.484375 35.546875 
Q 14.453125 42.1875 5.078125 46.875 
Q 7.421875 50 9.765625 53.90625 
z
M 14.453125 77.734375 
Q 23.4375 72.265625 29.6875 67.1875 
Q 26.953125 63.671875 24.21875 60.546875 
Q 17.96875 66.796875 9.765625 71.484375 
Q 12.5 75 14.453125 77.734375 
z
" id="SimHei-27969"/>
      <path d="M 32.03125 69.53125 
Q 30.078125 67.578125 26.171875 58.59375 
L 46.09375 58.59375 
Q 46.09375 72.65625 45.703125 79.6875 
Q 49.609375 79.296875 54.6875 78.90625 
Q 53.90625 73.4375 53.703125 69.140625 
Q 53.515625 64.84375 53.515625 58.59375 
L 71.875 58.59375 
Q 78.125 58.59375 84.765625 58.984375 
L 84.765625 51.5625 
Q 78.515625 51.953125 71.875 51.953125 
L 53.515625 51.953125 
Q 53.515625 43.359375 52.734375 34.375 
L 78.90625 34.375 
Q 84.765625 34.375 91.796875 34.765625 
L 91.796875 27.34375 
Q 84.765625 27.734375 78.90625 27.734375 
L 55.859375 27.734375 
Q 60.546875 17.1875 71.875 10.546875 
Q 83.203125 3.90625 94.140625 1.5625 
Q 91.015625 -2.34375 88.671875 -7.421875 
Q 77.34375 -3.125 66.40625 4.484375 
Q 55.46875 12.109375 50 23.046875 
Q 45.3125 12.890625 36.328125 4.6875 
Q 27.34375 -3.515625 12.109375 -10.15625 
Q 10.15625 -6.25 6.25 -2.734375 
Q 19.53125 0.78125 29.875 9.171875 
Q 40.234375 17.578125 43.359375 27.734375 
L 20.703125 27.734375 
Q 14.453125 27.734375 7.03125 27.34375 
L 7.03125 34.765625 
Q 14.453125 34.375 20.703125 34.375 
L 44.921875 34.375 
Q 46.09375 42.578125 46.09375 51.953125 
L 23.4375 51.953125 
Q 18.75 43.75 15.234375 38.28125 
Q 12.109375 40.234375 7.8125 41.796875 
Q 14.84375 50.390625 18.546875 58.59375 
Q 22.265625 66.796875 23.4375 73.046875 
Q 28.125 70.703125 32.03125 69.53125 
z
" id="SimHei-22833"/>
      <path d="M 51.953125 80.46875 
Q 53.515625 76.5625 55.46875 70.703125 
L 75 70.703125 
Q 82.03125 70.703125 90.625 71.09375 
L 90.625 64.453125 
Q 82.03125 65.234375 74.609375 65.234375 
L 43.75 65.234375 
Q 46.484375 63.28125 51.5625 60.9375 
Q 48.046875 58.59375 44.921875 55.265625 
Q 41.796875 51.953125 38.671875 48.828125 
L 51.171875 48.828125 
Q 55.859375 53.515625 58.984375 58.984375 
Q 62.5 56.25 66.796875 53.515625 
Q 61.71875 50.78125 56.25 44.921875 
Q 50.78125 39.0625 41.015625 31.25 
L 60.15625 32.8125 
Q 58.203125 35.15625 56.25 37.890625 
Q 58.59375 38.671875 62.5 41.40625 
Q 66.40625 36.71875 73.4375 26.5625 
Q 69.921875 25.390625 66.015625 22.65625 
Q 65.234375 25 62.890625 27.734375 
Q 57.8125 27.34375 53.515625 27.34375 
L 53.515625 16.40625 
L 80.46875 16.40625 
Q 88.671875 16.40625 95.3125 16.796875 
L 95.3125 10.15625 
Q 89.0625 10.546875 80.078125 10.546875 
L 53.515625 10.546875 
L 53.515625 2.734375 
Q 53.515625 -4.6875 53.90625 -9.765625 
L 45.3125 -9.765625 
Q 45.703125 -4.6875 45.703125 2.734375 
L 45.703125 10.546875 
L 20.703125 10.546875 
Q 12.890625 10.546875 5.078125 10.15625 
L 5.078125 16.796875 
Q 12.890625 16.40625 21.09375 16.40625 
L 45.703125 16.40625 
L 45.703125 26.5625 
Q 42.1875 26.171875 38.671875 25.578125 
Q 35.15625 25 31.640625 23.828125 
Q 30.46875 27.734375 28.90625 31.25 
Q 32.421875 31.640625 36.328125 34.375 
Q 40.234375 37.109375 46.484375 43.75 
Q 35.9375 42.578125 31.640625 41.015625 
Q 30.859375 44.921875 28.90625 49.609375 
Q 32.421875 49.609375 36.328125 54.484375 
Q 40.234375 59.375 42.96875 65.234375 
L 26.5625 65.234375 
Q 17.96875 65.234375 10.15625 64.453125 
L 10.15625 71.09375 
Q 17.96875 70.703125 24.21875 70.703125 
L 46.484375 70.703125 
Q 45.3125 75.390625 43.75 78.515625 
Q 47.265625 79.296875 51.953125 80.46875 
z
M 25.390625 40.234375 
Q 26.953125 37.5 28.515625 34.375 
Q 24.609375 32.03125 20.703125 29.09375 
Q 16.796875 26.171875 12.5 22.265625 
Q 9.765625 26.171875 7.421875 29.296875 
Q 12.5 31.640625 17.1875 34.5625 
Q 21.875 37.5 25.390625 40.234375 
z
M 75.78125 41.40625 
Q 80.078125 38.671875 83.390625 36.515625 
Q 86.71875 34.375 91.796875 30.46875 
Q 88.671875 28.125 85.9375 25 
Q 82.8125 27.734375 79.09375 30.859375 
Q 75.390625 33.984375 71.484375 36.328125 
Q 73.828125 38.671875 75.78125 41.40625 
z
M 89.453125 55.078125 
Q 86.71875 53.90625 82.8125 50.96875 
Q 78.90625 48.046875 75 44.140625 
Q 72.265625 47.65625 69.921875 49.609375 
Q 73.4375 51.953125 76.171875 54.484375 
Q 78.90625 57.03125 82.8125 61.328125 
Q 86.328125 57.8125 89.453125 55.078125 
z
M 16.40625 60.15625 
Q 22.265625 56.25 27.734375 51.171875 
Q 24.609375 48.4375 22.265625 45.703125 
Q 16.796875 51.5625 10.546875 55.078125 
Q 13.671875 57.8125 16.40625 60.15625 
z
" id="SimHei-29575"/>
     </defs>
     <g style="fill:#262626;" transform="translate(15 208.08)rotate(-90)scale(0.096 -0.096)">
      <use xlink:href="#SimHei-23458"/>
      <use x="100" xlink:href="#SimHei-25143"/>
      <use x="200" xlink:href="#SimHei-27969"/>
      <use x="300" xlink:href="#SimHei-22833"/>
      <use x="400" xlink:href="#SimHei-29575"/>
     </g>
    </g>
   </g>
   <g id="patch_3">
    <path clip-path="url(#p3230dc840e)" d="M 76.545455 347.16 
L 128.132512 347.16 
L 128.132512 36.531429 
L 76.545455 36.531429 
z
" style="fill:#1f77b4;opacity:0.7;stroke:#ffffff;stroke-linejoin:miter;stroke-width:0.8;"/>
   </g>
   <g id="patch_4">
    <path clip-path="url(#p3230dc840e)" d="M 141.029276 347.16 
L 192.616333 347.16 
L 192.616333 136.573309 
L 141.029276 136.573309 
z
" style="fill:#1f77b4;opacity:0.7;stroke:#ffffff;stroke-linejoin:miter;stroke-width:0.8;"/>
   </g>
   <g id="patch_5">
    <path clip-path="url(#p3230dc840e)" d="M 205.513097 347.16 
L 257.100154 347.16 
L 257.100154 157.637846 
L 205.513097 157.637846 
z
" style="fill:#1f77b4;opacity:0.7;stroke:#ffffff;stroke-linejoin:miter;stroke-width:0.8;"/>
   </g>
   <g id="patch_6">
    <path clip-path="url(#p3230dc840e)" d="M 269.996918 347.16 
L 321.583975 347.16 
L 321.583975 202.935401 
L 269.996918 202.935401 
z
" style="fill:#1f77b4;opacity:0.7;stroke:#ffffff;stroke-linejoin:miter;stroke-width:0.8;"/>
   </g>
   <g id="patch_7">
    <path clip-path="url(#p3230dc840e)" d="M 334.48074 347.16 
L 386.067797 347.16 
L 386.067797 219.188539 
L 334.48074 219.188539 
z
" style="fill:#1f77b4;opacity:0.7;stroke:#ffffff;stroke-linejoin:miter;stroke-width:0.8;"/>
   </g>
   <g id="patch_8">
    <path clip-path="url(#p3230dc840e)" d="M 398.964561 347.16 
L 450.551618 347.16 
L 450.551618 221.30086 
L 398.964561 221.30086 
z
" style="fill:#1f77b4;opacity:0.7;stroke:#ffffff;stroke-linejoin:miter;stroke-width:0.8;"/>
   </g>
   <g id="patch_9">
    <path clip-path="url(#p3230dc840e)" d="M 463.448382 347.16 
L 515.035439 347.16 
L 515.035439 218.660459 
L 463.448382 218.660459 
z
" style="fill:#1f77b4;opacity:0.7;stroke:#ffffff;stroke-linejoin:miter;stroke-width:0.8;"/>
   </g>
   <g id="patch_10">
    <path clip-path="url(#p3230dc840e)" d="M 527.932203 347.16 
L 579.51926 347.16 
L 579.51926 252.16422 
L 527.932203 252.16422 
z
" style="fill:#1f77b4;opacity:0.7;stroke:#ffffff;stroke-linejoin:miter;stroke-width:0.8;"/>
   </g>
   <g id="patch_11">
    <path clip-path="url(#p3230dc840e)" d="M 592.416025 347.16 
L 644.003082 347.16 
L 644.003082 252.16422 
L 592.416025 252.16422 
z
" style="fill:#1f77b4;opacity:0.7;stroke:#ffffff;stroke-linejoin:miter;stroke-width:0.8;"/>
   </g>
   <g id="patch_12">
    <path clip-path="url(#p3230dc840e)" d="M 656.899846 347.16 
L 708.486903 347.16 
L 708.486903 273.111406 
L 656.899846 273.111406 
z
" style="fill:#1f77b4;opacity:0.7;stroke:#ffffff;stroke-linejoin:miter;stroke-width:0.8;"/>
   </g>
   <g id="patch_13">
    <path clip-path="url(#p3230dc840e)" d="M 721.383667 347.16 
L 772.970724 347.16 
L 772.970724 292.650377 
L 721.383667 292.650377 
z
" style="fill:#1f77b4;opacity:0.7;stroke:#ffffff;stroke-linejoin:miter;stroke-width:0.8;"/>
   </g>
   <g id="patch_14">
    <path clip-path="url(#p3230dc840e)" d="M 785.867488 347.16 
L 837.454545 347.16 
L 837.454545 316.061938 
L 785.867488 316.061938 
z
" style="fill:#1f77b4;opacity:0.7;stroke:#ffffff;stroke-linejoin:miter;stroke-width:0.8;"/>
   </g>
   <g id="patch_15">
    <path d="M 38.5 347.16 
L 38.5 21 
" style="fill:none;stroke:#cccccc;stroke-linecap:square;stroke-linejoin:miter;"/>
   </g>
   <g id="patch_16">
    <path d="M 875.5 347.16 
L 875.5 21 
" style="fill:none;stroke:#cccccc;stroke-linecap:square;stroke-linejoin:miter;"/>
   </g>
   <g id="patch_17">
    <path d="M 38.5 347.16 
L 875.5 347.16 
" style="fill:none;stroke:#cccccc;stroke-linecap:square;stroke-linejoin:miter;"/>
   </g>
   <g id="patch_18">
    <path d="M 38.5 21 
L 875.5 21 
" style="fill:none;stroke:#cccccc;stroke-linecap:square;stroke-linejoin:miter;"/>
   </g>
   <g id="text_21">
    <!-- 53% -->
    <defs>
     <path d="M 21.875 51.953125 
Q 21.875 40.625 18.546875 37.5 
Q 15.234375 34.375 12.109375 34.375 
Q 8.984375 34.375 5.65625 37.5 
Q 2.34375 40.625 2.34375 51.953125 
Q 2.34375 63.28125 5.65625 66.40625 
Q 8.984375 69.53125 12.109375 69.53125 
Q 15.234375 69.53125 18.546875 66.40625 
Q 21.875 63.28125 21.875 51.953125 
z
M 41.015625 68.359375 
L 10.9375 1.171875 
L 7.8125 2.34375 
L 37.890625 69.53125 
z
M 46.484375 18.75 
Q 46.484375 7.421875 43.15625 4.296875 
Q 39.84375 1.171875 36.71875 1.171875 
Q 33.59375 1.171875 30.265625 4.296875 
Q 26.953125 7.421875 26.953125 18.75 
Q 26.953125 30.078125 30.265625 33.203125 
Q 33.59375 36.328125 36.71875 36.328125 
Q 39.84375 36.328125 43.15625 33.203125 
Q 46.484375 30.078125 46.484375 18.75 
z
M 15.625 51.953125 
Q 15.625 58.984375 14.84375 61.328125 
Q 14.0625 63.671875 12.109375 63.671875 
Q 10.15625 63.671875 9.375 61.328125 
Q 8.59375 58.984375 8.59375 51.953125 
Q 8.59375 44.921875 9.375 42.578125 
Q 10.15625 40.234375 12.109375 40.234375 
Q 14.0625 40.234375 14.84375 42.578125 
Q 15.625 44.921875 15.625 51.953125 
z
M 40.234375 18.75 
Q 40.234375 25.78125 39.453125 28.125 
Q 38.671875 30.46875 36.71875 30.46875 
Q 34.765625 30.46875 33.984375 28.125 
Q 33.203125 25.78125 33.203125 18.75 
Q 33.203125 11.71875 33.984375 9.375 
Q 34.765625 7.03125 36.71875 7.03125 
Q 38.671875 7.03125 39.453125 9.375 
Q 40.234375 11.71875 40.234375 18.75 
z
" id="SimHei-37"/>
    </defs>
    <g style="fill:#262626;" transform="translate(94.278505 36.531429)scale(0.1 -0.1)">
     <use xlink:href="#SimHei-53"/>
     <use x="50" xlink:href="#SimHei-51"/>
     <use x="100" xlink:href="#SimHei-37"/>
    </g>
   </g>
   <g id="text_22">
    <!-- 36% -->
    <g style="fill:#262626;" transform="translate(158.762327 136.573309)scale(0.1 -0.1)">
     <use xlink:href="#SimHei-51"/>
     <use x="50" xlink:href="#SimHei-54"/>
     <use x="100" xlink:href="#SimHei-37"/>
    </g>
   </g>
   <g id="text_23">
    <!-- 32% -->
    <g style="fill:#262626;" transform="translate(223.246148 157.637846)scale(0.1 -0.1)">
     <use xlink:href="#SimHei-51"/>
     <use x="50" xlink:href="#SimHei-50"/>
     <use x="100" xlink:href="#SimHei-37"/>
    </g>
   </g>
   <g id="text_24">
    <!-- 25% -->
    <g style="fill:#262626;" transform="translate(287.729969 202.935401)scale(0.1 -0.1)">
     <use xlink:href="#SimHei-50"/>
     <use x="50" xlink:href="#SimHei-53"/>
     <use x="100" xlink:href="#SimHei-37"/>
    </g>
   </g>
   <g id="text_25">
    <!-- 22% -->
    <g style="fill:#262626;" transform="translate(352.21379 219.188539)scale(0.1 -0.1)">
     <use xlink:href="#SimHei-50"/>
     <use x="50" xlink:href="#SimHei-50"/>
     <use x="100" xlink:href="#SimHei-37"/>
    </g>
   </g>
   <g id="text_26">
    <!-- 21% -->
    <g style="fill:#262626;" transform="translate(416.697612 221.30086)scale(0.1 -0.1)">
     <use xlink:href="#SimHei-50"/>
     <use x="50" xlink:href="#SimHei-49"/>
     <use x="100" xlink:href="#SimHei-37"/>
    </g>
   </g>
   <g id="text_27">
    <!-- 22% -->
    <g style="fill:#262626;" transform="translate(481.181433 218.660459)scale(0.1 -0.1)">
     <use xlink:href="#SimHei-50"/>
     <use x="50" xlink:href="#SimHei-50"/>
     <use x="100" xlink:href="#SimHei-37"/>
    </g>
   </g>
   <g id="text_28">
    <!-- 16% -->
    <g style="fill:#262626;" transform="translate(545.665254 252.16422)scale(0.1 -0.1)">
     <use xlink:href="#SimHei-49"/>
     <use x="50" xlink:href="#SimHei-54"/>
     <use x="100" xlink:href="#SimHei-37"/>
    </g>
   </g>
   <g id="text_29">
    <!-- 16% -->
    <g style="fill:#262626;" transform="translate(610.149076 252.16422)scale(0.1 -0.1)">
     <use xlink:href="#SimHei-49"/>
     <use x="50" xlink:href="#SimHei-54"/>
     <use x="100" xlink:href="#SimHei-37"/>
    </g>
   </g>
   <g id="text_30">
    <!-- 13% -->
    <g style="fill:#262626;" transform="translate(674.632897 273.111406)scale(0.1 -0.1)">
     <use xlink:href="#SimHei-49"/>
     <use x="50" xlink:href="#SimHei-51"/>
     <use x="100" xlink:href="#SimHei-37"/>
    </g>
   </g>
   <g id="text_31">
    <!-- 9% -->
    <defs>
     <path d="M 12.5 1.171875 
Q 21.09375 15.625 26.5625 27.34375 
Q 16.796875 25.78125 10.34375 29.875 
Q 3.90625 33.984375 2.53125 41.015625 
Q 1.171875 48.046875 2.734375 53.703125 
Q 4.296875 59.375 7.609375 63.078125 
Q 10.9375 66.796875 15.625 68.359375 
Q 20.3125 69.921875 24.015625 69.921875 
Q 27.734375 69.921875 31.640625 68.359375 
Q 35.546875 66.796875 38.671875 63.671875 
Q 41.796875 60.546875 42.96875 57.21875 
Q 44.140625 53.90625 44.140625 48.625 
Q 44.140625 43.359375 40.234375 35.15625 
Q 36.328125 26.953125 21.09375 1.171875 
z
M 9.765625 50 
Q 10.9375 39.84375 14.640625 36.515625 
Q 18.359375 33.203125 22.65625 33.59375 
Q 26.953125 33.984375 29.484375 35.9375 
Q 32.03125 37.890625 34.375 42.578125 
Q 35.9375 48.4375 35.15625 52.53125 
Q 34.375 56.640625 31.046875 59.375 
Q 27.734375 62.109375 23.828125 62.109375 
Q 21.484375 62.5 17.765625 60.9375 
Q 14.0625 59.375 11.90625 54.6875 
Q 9.765625 50 10.9375 39.84375 
z
" id="SimHei-57"/>
    </defs>
    <g style="fill:#262626;" transform="translate(739.116718 292.650377)scale(0.1 -0.1)">
     <use xlink:href="#SimHei-57"/>
     <use x="50" xlink:href="#SimHei-37"/>
    </g>
   </g>
   <g id="text_32">
    <!-- 5% -->
    <g style="fill:#262626;" transform="translate(803.600539 316.061938)scale(0.1 -0.1)">
     <use xlink:href="#SimHei-53"/>
     <use x="50" xlink:href="#SimHei-37"/>
    </g>
   </g>
   <g id="text_33">
    <!-- 入网客户流失率时间图 -->
    <defs>
     <path d="M 88.28125 -5.859375 
Q 78.90625 0.390625 70.3125 10.15625 
Q 61.71875 19.921875 51.171875 47.65625 
Q 40.234375 15.234375 10.546875 -7.421875 
Q 8.984375 -3.515625 3.515625 0.78125 
Q 28.90625 12.890625 46.484375 55.078125 
Q 45.3125 58.203125 39.453125 64.453125 
Q 33.59375 70.703125 27.34375 73.046875 
Q 31.640625 76.5625 33.984375 80.078125 
Q 43.75 72.65625 49.609375 66.015625 
Q 55.46875 59.375 64.453125 37.109375 
Q 73.4375 14.84375 95.703125 3.90625 
Q 90.234375 0 88.28125 -5.859375 
z
" id="SimHei-20837"/>
     <path d="M 91.796875 76.5625 
Q 91.015625 71.484375 91.015625 62.109375 
L 91.015625 0 
Q 91.015625 -6.25 86.515625 -7.21875 
Q 82.03125 -8.203125 74.609375 -9.375 
Q 73.828125 -5.46875 70.703125 -0.78125 
Q 78.515625 -1.171875 80.859375 -0.390625 
Q 83.203125 0.390625 83.203125 3.90625 
L 83.203125 69.921875 
L 17.1875 69.921875 
L 17.1875 -9.375 
L 8.59375 -9.375 
Q 9.375 -1.5625 9.375 3.90625 
L 9.375 62.109375 
Q 9.375 68.359375 8.59375 76.5625 
L 91.796875 76.5625 
z
M 57.421875 55.078125 
Q 63.28125 43.75 65.234375 40.625 
Q 69.921875 56.640625 71.09375 63.28125 
Q 75.390625 60.9375 79.6875 58.984375 
Q 77.734375 56.25 75.390625 49.21875 
Q 73.046875 42.1875 69.53125 32.8125 
Q 73.828125 24.609375 80.078125 13.671875 
Q 75.78125 12.5 72.265625 10.546875 
L 65.234375 24.609375 
Q 62.5 19.140625 59.765625 15.03125 
Q 57.03125 10.9375 52.34375 4.6875 
Q 49.609375 7.8125 44.53125 8.984375 
Q 48.046875 12.5 52.140625 17.578125 
Q 56.25 22.65625 61.328125 32.421875 
Q 55.859375 43.75 50 51.5625 
Q 53.125 52.734375 57.421875 55.078125 
z
M 26.953125 59.375 
Q 29.296875 55.078125 31.828125 50.578125 
Q 34.375 46.09375 37.109375 41.796875 
Q 41.796875 57.421875 42.578125 63.28125 
Q 46.875 61.71875 51.953125 60.15625 
Q 49.609375 57.421875 47.65625 51.75 
Q 45.703125 46.09375 41.40625 34.375 
Q 44.921875 28.90625 50 20.3125 
Q 46.09375 17.96875 43.359375 15.234375 
Q 39.453125 23.4375 37.5 26.5625 
Q 30.46875 12.109375 25 5.078125 
Q 21.875 7.8125 18.359375 8.984375 
Q 24.609375 15.625 33.59375 33.984375 
Q 24.21875 50.78125 19.53125 56.25 
Q 23.046875 57.8125 26.953125 59.375 
z
" id="SimHei-32593"/>
     <path d="M 90.625 77.734375 
Q 90.234375 67.96875 90.234375 56.25 
L 90.234375 14.453125 
Q 90.234375 2.34375 90.625 -9.375 
L 82.8125 -9.375 
L 82.8125 -4.296875 
L 17.578125 -4.296875 
L 17.578125 -10.15625 
L 9.765625 -10.15625 
Q 10.15625 1.953125 10.15625 14.84375 
L 10.15625 56.25 
Q 10.15625 67.578125 9.765625 77.734375 
L 90.625 77.734375 
z
M 82.8125 2.34375 
L 82.8125 71.484375 
L 17.578125 71.484375 
L 17.578125 2.34375 
z
M 50.390625 66.40625 
Q 48.046875 64.0625 46.09375 61.328125 
L 72.265625 61.328125 
Q 70.703125 57.8125 67.1875 52.734375 
Q 63.671875 47.65625 56.25 40.625 
Q 67.96875 34.765625 79.296875 33.59375 
Q 76.5625 30.078125 74.609375 26.171875 
Q 60.15625 30.46875 50.390625 36.71875 
Q 39.0625 29.296875 26.171875 25.78125 
Q 25 29.296875 21.875 32.421875 
Q 34.375 34.375 44.921875 40.625 
Q 39.453125 45.703125 37.109375 49.21875 
Q 33.59375 45.3125 29.6875 41.40625 
Q 26.953125 44.53125 23.828125 46.09375 
Q 30.46875 51.5625 35.15625 58.390625 
Q 39.84375 65.234375 41.796875 69.921875 
Q 45.703125 67.96875 50.390625 66.40625 
z
M 38.28125 19.921875 
Q 55.46875 14.84375 64.0625 11.328125 
Q 62.109375 8.203125 60.15625 4.6875 
Q 44.140625 11.328125 35.546875 13.28125 
Q 37.109375 16.40625 38.28125 19.921875 
z
M 45.703125 32.03125 
Q 58.984375 26.5625 63.671875 25 
Q 61.71875 21.875 60.15625 17.96875 
Q 46.875 24.21875 42.1875 25.78125 
Q 44.140625 28.515625 45.703125 32.03125 
z
M 41.015625 53.90625 
Q 46.875 47.265625 51.171875 44.53125 
Q 56.25 48.4375 60.546875 55.078125 
L 41.796875 55.078125 
L 41.015625 53.90625 
z
" id="SimHei-22270"/>
    </defs>
    <g style="fill:#262626;" transform="translate(409 15)scale(0.096 -0.096)">
     <use xlink:href="#SimHei-20837"/>
     <use x="100" xlink:href="#SimHei-32593"/>
     <use x="200" xlink:href="#SimHei-23458"/>
     <use x="300" xlink:href="#SimHei-25143"/>
     <use x="400" xlink:href="#SimHei-27969"/>
     <use x="500" xlink:href="#SimHei-22833"/>
     <use x="600" xlink:href="#SimHei-29575"/>
     <use x="700" xlink:href="#SimHei-26102"/>
     <use x="800" xlink:href="#SimHei-38388"/>
     <use x="900" xlink:href="#SimHei-22270"/>
    </g>
   </g>
  </g>
 </g>
 <defs>
  <clipPath id="p3230dc840e">
   <rect height="326.16" width="837" x="38.5" y="21"/>
  </clipPath>
 </defs>
</svg>
