<?xml version="1.0" encoding="utf-8" standalone="no"?>
<!DOCTYPE svg PUBLIC "-//W3C//DTD SVG 1.1//EN"
  "http://www.w3.org/Graphics/SVG/1.1/DTD/svg11.dtd">
<!-- Created with matplotlib (https://matplotlib.org/) -->
<svg height="254.838352pt" version="1.1" viewBox="0 0 753.125 254.838352" width="753.125pt" xmlns="http://www.w3.org/2000/svg" xmlns:xlink="http://www.w3.org/1999/xlink">
 <defs>
  <style type="text/css">
*{stroke-linecap:butt;stroke-linejoin:round;}
  </style>
 </defs>
 <g id="figure_1">
  <g id="patch_1">
   <path d="M 0 254.838352 
L 753.125 254.838352 
L 753.125 0 
L 0 0 
z
" style="fill:#ffffff;"/>
  </g>
  <g id="axes_1">
   <g id="patch_2">
    <path d="M 76.325 220.388352 
L 745.925 220.388352 
L 745.925 22.715625 
L 76.325 22.715625 
z
" style="fill:#eaeaf2;"/>
   </g>
   <g id="matplotlib.axis_1">
    <g id="xtick_1">
     <g id="text_1">
      <!-- 2017-11-25 -->
      <defs>
       <path d="M 4.6875 3.90625 
Q 5.078125 9.765625 10.15625 14.453125 
Q 15.234375 19.140625 23.046875 29.09375 
Q 30.859375 39.0625 33.203125 44.53125 
Q 35.546875 50 34.953125 53.90625 
Q 34.375 57.8125 31.25 60.34375 
Q 28.125 62.890625 24.015625 62.5 
Q 19.921875 62.109375 16.203125 59.375 
Q 12.5 56.640625 10.546875 51.171875 
L 3.125 52.34375 
Q 6.25 61.328125 11.125 65.421875 
Q 16.015625 69.53125 22.65625 69.921875 
Q 26.5625 70.3125 29.6875 69.71875 
Q 32.8125 69.140625 36.125 66.984375 
Q 39.453125 64.84375 41.59375 60.546875 
Q 43.75 56.25 43.15625 50.1875 
Q 42.578125 44.140625 37.109375 35.734375 
Q 31.640625 27.34375 16.015625 9.375 
L 44.140625 9.375 
L 44.140625 2.34375 
L 4.6875 2.34375 
z
" id="SimHei-50"/>
       <path d="M 3.125 29.296875 
Q 3.90625 50 6.4375 56.046875 
Q 8.984375 62.109375 13.671875 66.015625 
Q 18.359375 69.921875 25.1875 69.921875 
Q 32.03125 69.921875 37.109375 64.25 
Q 42.1875 58.59375 43.75 50 
Q 45.3125 41.40625 44.71875 30.265625 
Q 44.140625 19.140625 40.8125 12.109375 
Q 37.5 5.078125 30.859375 2.34375 
Q 24.21875 -0.390625 17.578125 2.921875 
Q 10.9375 6.25 8.203125 11.71875 
Q 5.46875 17.1875 4.296875 23.234375 
Q 3.125 29.296875 3.90625 50 
z
M 12.890625 52.734375 
Q 10.546875 31.25 12.5 22.84375 
Q 14.453125 14.453125 18.9375 10.9375 
Q 23.4375 7.421875 28.125 9.5625 
Q 32.8125 11.71875 34.953125 18.15625 
Q 37.109375 24.609375 37.109375 32.21875 
Q 37.109375 39.84375 36.515625 46.09375 
Q 35.9375 52.34375 33 57.421875 
Q 30.078125 62.5 25.1875 62.6875 
Q 20.3125 62.890625 16.59375 57.8125 
Q 12.890625 52.734375 10.546875 31.25 
z
" id="SimHei-48"/>
       <path d="M 21.875 56.25 
Q 16.796875 51.171875 8.984375 46.484375 
L 8.984375 53.90625 
Q 18.75 60.546875 25 69.53125 
L 29.6875 69.53125 
L 29.6875 2.34375 
L 21.875 2.34375 
z
" id="SimHei-49"/>
       <path d="M 13.28125 2.34375 
Q 20.3125 32.03125 37.890625 61.328125 
L 4.296875 61.328125 
L 4.296875 68.359375 
L 46.09375 68.359375 
L 46.09375 61.71875 
Q 27.734375 32.03125 21.875 2.34375 
L 13.28125 2.34375 
z
" id="SimHei-55"/>
       <path d="M 46.484375 33.203125 
L 1.953125 33.203125 
L 1.953125 39.453125 
L 46.484375 39.453125 
z
" id="SimHei-45"/>
       <path d="M 8.59375 20.703125 
Q 11.328125 10.15625 17.96875 8.984375 
Q 24.609375 7.8125 28.703125 10.34375 
Q 32.8125 12.890625 34.5625 16.984375 
Q 36.328125 21.09375 36.125 26.171875 
Q 35.9375 31.25 33.390625 34.765625 
Q 30.859375 38.28125 26.953125 39.453125 
Q 23.046875 40.625 18.15625 39.453125 
Q 13.28125 38.28125 10.15625 33.984375 
L 3.515625 34.765625 
Q 4.296875 37.109375 10.9375 68.359375 
L 41.796875 68.359375 
L 41.796875 61.328125 
L 16.796875 61.328125 
Q 14.84375 50.78125 12.890625 44.53125 
Q 18.75 47.265625 23.828125 47.0625 
Q 28.90625 46.875 33.59375 44.71875 
Q 38.28125 42.578125 40.421875 38.859375 
Q 42.578125 35.15625 43.546875 31.4375 
Q 44.53125 27.734375 44.328125 23.4375 
Q 44.140625 19.140625 42.578125 14.640625 
Q 41.015625 10.15625 37.890625 7.21875 
Q 34.765625 4.296875 30.265625 2.53125 
Q 25.78125 0.78125 19.921875 1.171875 
Q 14.0625 1.5625 8.78125 5.46875 
Q 3.515625 9.375 1.5625 18.75 
z
" id="SimHei-53"/>
      </defs>
      <g style="fill:#262626;" transform="translate(88.525 234.263352)scale(0.1 -0.1)">
       <use xlink:href="#SimHei-50"/>
       <use x="50" xlink:href="#SimHei-48"/>
       <use x="100" xlink:href="#SimHei-49"/>
       <use x="150" xlink:href="#SimHei-55"/>
       <use x="200" xlink:href="#SimHei-45"/>
       <use x="250" xlink:href="#SimHei-49"/>
       <use x="300" xlink:href="#SimHei-49"/>
       <use x="350" xlink:href="#SimHei-45"/>
       <use x="400" xlink:href="#SimHei-50"/>
       <use x="450" xlink:href="#SimHei-53"/>
      </g>
     </g>
    </g>
    <g id="xtick_2">
     <g id="text_2">
      <!-- 2017-11-26 -->
      <defs>
       <path d="M 3.515625 19.53125 
Q 4.296875 30.859375 6.046875 34.765625 
Q 7.8125 38.671875 11.328125 44.53125 
L 27.34375 69.53125 
L 36.328125 69.53125 
L 19.921875 43.75 
Q 30.46875 46.484375 36.71875 42.96875 
Q 42.96875 39.453125 45.109375 34.953125 
Q 47.265625 30.46875 47.453125 25.1875 
Q 47.65625 19.921875 45.890625 14.84375 
Q 44.140625 9.765625 39.640625 5.65625 
Q 35.15625 1.5625 27.140625 1.171875 
Q 19.140625 0.78125 13.46875 4.09375 
Q 7.8125 7.421875 5.65625 13.46875 
Q 3.515625 19.53125 4.296875 30.859375 
z
M 12.5 16.015625 
Q 19.53125 8.59375 25.390625 8.203125 
Q 31.25 7.8125 35.15625 12.109375 
Q 39.0625 16.40625 39.0625 24.609375 
Q 39.0625 32.8125 34.171875 35.9375 
Q 29.296875 39.0625 23.234375 38.28125 
Q 17.1875 37.5 14.453125 32.421875 
Q 11.71875 27.34375 12.109375 21.671875 
Q 12.5 16.015625 19.53125 8.59375 
z
" id="SimHei-54"/>
      </defs>
      <g style="fill:#262626;" transform="translate(162.925 234.263352)scale(0.1 -0.1)">
       <use xlink:href="#SimHei-50"/>
       <use x="50" xlink:href="#SimHei-48"/>
       <use x="100" xlink:href="#SimHei-49"/>
       <use x="150" xlink:href="#SimHei-55"/>
       <use x="200" xlink:href="#SimHei-45"/>
       <use x="250" xlink:href="#SimHei-49"/>
       <use x="300" xlink:href="#SimHei-49"/>
       <use x="350" xlink:href="#SimHei-45"/>
       <use x="400" xlink:href="#SimHei-50"/>
       <use x="450" xlink:href="#SimHei-54"/>
      </g>
     </g>
    </g>
    <g id="xtick_3">
     <g id="text_3">
      <!-- 2017-11-27 -->
      <g style="fill:#262626;" transform="translate(237.325 234.263352)scale(0.1 -0.1)">
       <use xlink:href="#SimHei-50"/>
       <use x="50" xlink:href="#SimHei-48"/>
       <use x="100" xlink:href="#SimHei-49"/>
       <use x="150" xlink:href="#SimHei-55"/>
       <use x="200" xlink:href="#SimHei-45"/>
       <use x="250" xlink:href="#SimHei-49"/>
       <use x="300" xlink:href="#SimHei-49"/>
       <use x="350" xlink:href="#SimHei-45"/>
       <use x="400" xlink:href="#SimHei-50"/>
       <use x="450" xlink:href="#SimHei-55"/>
      </g>
     </g>
    </g>
    <g id="xtick_4">
     <g id="text_4">
      <!-- 2017-11-28 -->
      <defs>
       <path d="M 2.734375 16.796875 
Q 2.734375 26.171875 5.078125 30.65625 
Q 7.421875 35.15625 12.890625 37.890625 
Q 8.203125 40.625 6.640625 43.9375 
Q 5.078125 47.265625 4.875 51.5625 
Q 4.6875 55.859375 6.046875 58.984375 
Q 7.421875 62.109375 10.15625 64.84375 
Q 12.890625 67.578125 16.203125 68.546875 
Q 19.53125 69.53125 23.4375 69.53125 
Q 27.34375 69.53125 30.46875 68.75 
Q 33.59375 67.96875 37.109375 65.421875 
Q 40.625 62.890625 42.1875 58.203125 
Q 43.75 53.515625 41.984375 47.265625 
Q 40.234375 41.015625 32.8125 37.5 
Q 39.453125 35.546875 42.1875 31.4375 
Q 44.921875 27.34375 44.921875 21.484375 
Q 44.921875 15.625 43.15625 12.109375 
Q 41.40625 8.59375 39.25 6.25 
Q 37.109375 3.90625 33.390625 2.53125 
Q 29.6875 1.171875 24.015625 1.171875 
Q 18.359375 1.171875 14.25 2.53125 
Q 10.15625 3.90625 7.421875 6.640625 
Q 4.6875 9.375 3.703125 13.078125 
Q 2.734375 16.796875 2.734375 26.171875 
z
M 10.9375 26.5625 
Q 10.546875 17.1875 12.296875 13.671875 
Q 14.0625 10.15625 18.75 9.171875 
Q 23.4375 8.203125 28.515625 9.375 
Q 33.59375 10.546875 35.546875 14.84375 
Q 37.5 19.140625 36.90625 23.4375 
Q 36.328125 27.734375 32.03125 30.65625 
Q 27.734375 33.59375 22.65625 33.203125 
Q 17.578125 32.8125 14.25 29.6875 
Q 10.9375 26.5625 10.546875 17.1875 
z
M 12.109375 56.25 
Q 12.109375 48.4375 14.84375 44.921875 
Q 17.578125 41.40625 23.4375 41.40625 
Q 29.296875 41.40625 32.21875 44.921875 
Q 35.15625 48.4375 34.953125 53.3125 
Q 34.765625 58.203125 31.4375 60.546875 
Q 28.125 62.890625 22.453125 62.5 
Q 16.796875 62.109375 14.453125 59.171875 
Q 12.109375 56.25 12.109375 48.4375 
z
" id="SimHei-56"/>
      </defs>
      <g style="fill:#262626;" transform="translate(311.725 234.263352)scale(0.1 -0.1)">
       <use xlink:href="#SimHei-50"/>
       <use x="50" xlink:href="#SimHei-48"/>
       <use x="100" xlink:href="#SimHei-49"/>
       <use x="150" xlink:href="#SimHei-55"/>
       <use x="200" xlink:href="#SimHei-45"/>
       <use x="250" xlink:href="#SimHei-49"/>
       <use x="300" xlink:href="#SimHei-49"/>
       <use x="350" xlink:href="#SimHei-45"/>
       <use x="400" xlink:href="#SimHei-50"/>
       <use x="450" xlink:href="#SimHei-56"/>
      </g>
     </g>
    </g>
    <g id="xtick_5">
     <g id="text_5">
      <!-- 2017-11-29 -->
      <defs>
       <path d="M 12.5 1.171875 
Q 21.09375 15.625 26.5625 27.34375 
Q 16.796875 25.78125 10.34375 29.875 
Q 3.90625 33.984375 2.53125 41.015625 
Q 1.171875 48.046875 2.734375 53.703125 
Q 4.296875 59.375 7.609375 63.078125 
Q 10.9375 66.796875 15.625 68.359375 
Q 20.3125 69.921875 24.015625 69.921875 
Q 27.734375 69.921875 31.640625 68.359375 
Q 35.546875 66.796875 38.671875 63.671875 
Q 41.796875 60.546875 42.96875 57.21875 
Q 44.140625 53.90625 44.140625 48.625 
Q 44.140625 43.359375 40.234375 35.15625 
Q 36.328125 26.953125 21.09375 1.171875 
z
M 9.765625 50 
Q 10.9375 39.84375 14.640625 36.515625 
Q 18.359375 33.203125 22.65625 33.59375 
Q 26.953125 33.984375 29.484375 35.9375 
Q 32.03125 37.890625 34.375 42.578125 
Q 35.9375 48.4375 35.15625 52.53125 
Q 34.375 56.640625 31.046875 59.375 
Q 27.734375 62.109375 23.828125 62.109375 
Q 21.484375 62.5 17.765625 60.9375 
Q 14.0625 59.375 11.90625 54.6875 
Q 9.765625 50 10.9375 39.84375 
z
" id="SimHei-57"/>
      </defs>
      <g style="fill:#262626;" transform="translate(386.125 234.263352)scale(0.1 -0.1)">
       <use xlink:href="#SimHei-50"/>
       <use x="50" xlink:href="#SimHei-48"/>
       <use x="100" xlink:href="#SimHei-49"/>
       <use x="150" xlink:href="#SimHei-55"/>
       <use x="200" xlink:href="#SimHei-45"/>
       <use x="250" xlink:href="#SimHei-49"/>
       <use x="300" xlink:href="#SimHei-49"/>
       <use x="350" xlink:href="#SimHei-45"/>
       <use x="400" xlink:href="#SimHei-50"/>
       <use x="450" xlink:href="#SimHei-57"/>
      </g>
     </g>
    </g>
    <g id="xtick_6">
     <g id="text_6">
      <!-- 2017-11-30 -->
      <defs>
       <path d="M 3.90625 19.140625 
L 10.9375 20.3125 
Q 12.5 15.234375 16.015625 11.90625 
Q 19.53125 8.59375 24.796875 8.78125 
Q 30.078125 8.984375 33.203125 13.078125 
Q 36.328125 17.1875 35.9375 22.453125 
Q 35.546875 27.734375 31.828125 30.65625 
Q 28.125 33.59375 19.921875 34.765625 
L 19.921875 39.84375 
Q 28.125 40.625 31.828125 44.140625 
Q 35.546875 47.65625 35.15625 53.3125 
Q 34.765625 58.984375 30.078125 61.515625 
Q 25.390625 64.0625 20.109375 62.109375 
Q 14.84375 60.15625 11.71875 51.171875 
L 4.6875 52.34375 
Q 7.03125 59.375 11.125 64.0625 
Q 15.234375 68.75 22.265625 69.53125 
Q 29.296875 70.3125 34.5625 67.765625 
Q 39.84375 65.234375 41.984375 59.953125 
Q 44.140625 54.6875 42.578125 48.4375 
Q 41.015625 42.1875 33.59375 37.5 
Q 39.0625 35.15625 41.984375 30.46875 
Q 44.921875 25.78125 43.9375 18.15625 
Q 42.96875 10.546875 37.109375 5.859375 
Q 31.25 1.171875 23.828125 1.359375 
Q 16.40625 1.5625 10.9375 6.046875 
Q 5.46875 10.546875 3.90625 19.140625 
z
" id="SimHei-51"/>
      </defs>
      <g style="fill:#262626;" transform="translate(460.525 234.263352)scale(0.1 -0.1)">
       <use xlink:href="#SimHei-50"/>
       <use x="50" xlink:href="#SimHei-48"/>
       <use x="100" xlink:href="#SimHei-49"/>
       <use x="150" xlink:href="#SimHei-55"/>
       <use x="200" xlink:href="#SimHei-45"/>
       <use x="250" xlink:href="#SimHei-49"/>
       <use x="300" xlink:href="#SimHei-49"/>
       <use x="350" xlink:href="#SimHei-45"/>
       <use x="400" xlink:href="#SimHei-51"/>
       <use x="450" xlink:href="#SimHei-48"/>
      </g>
     </g>
    </g>
    <g id="xtick_7">
     <g id="text_7">
      <!-- 2017-12-01 -->
      <g style="fill:#262626;" transform="translate(534.925 234.263352)scale(0.1 -0.1)">
       <use xlink:href="#SimHei-50"/>
       <use x="50" xlink:href="#SimHei-48"/>
       <use x="100" xlink:href="#SimHei-49"/>
       <use x="150" xlink:href="#SimHei-55"/>
       <use x="200" xlink:href="#SimHei-45"/>
       <use x="250" xlink:href="#SimHei-49"/>
       <use x="300" xlink:href="#SimHei-50"/>
       <use x="350" xlink:href="#SimHei-45"/>
       <use x="400" xlink:href="#SimHei-48"/>
       <use x="450" xlink:href="#SimHei-49"/>
      </g>
     </g>
    </g>
    <g id="xtick_8">
     <g id="text_8">
      <!-- 2017-12-02 -->
      <g style="fill:#262626;" transform="translate(609.325 234.263352)scale(0.1 -0.1)">
       <use xlink:href="#SimHei-50"/>
       <use x="50" xlink:href="#SimHei-48"/>
       <use x="100" xlink:href="#SimHei-49"/>
       <use x="150" xlink:href="#SimHei-55"/>
       <use x="200" xlink:href="#SimHei-45"/>
       <use x="250" xlink:href="#SimHei-49"/>
       <use x="300" xlink:href="#SimHei-50"/>
       <use x="350" xlink:href="#SimHei-45"/>
       <use x="400" xlink:href="#SimHei-48"/>
       <use x="450" xlink:href="#SimHei-50"/>
      </g>
     </g>
    </g>
    <g id="xtick_9">
     <g id="text_9">
      <!-- 2017-12-03 -->
      <g style="fill:#262626;" transform="translate(683.725 234.263352)scale(0.1 -0.1)">
       <use xlink:href="#SimHei-50"/>
       <use x="50" xlink:href="#SimHei-48"/>
       <use x="100" xlink:href="#SimHei-49"/>
       <use x="150" xlink:href="#SimHei-55"/>
       <use x="200" xlink:href="#SimHei-45"/>
       <use x="250" xlink:href="#SimHei-49"/>
       <use x="300" xlink:href="#SimHei-50"/>
       <use x="350" xlink:href="#SimHei-45"/>
       <use x="400" xlink:href="#SimHei-48"/>
       <use x="450" xlink:href="#SimHei-51"/>
      </g>
     </g>
    </g>
    <g id="text_10">
     <!-- date -->
     <defs>
      <path d="M 42.96875 1.953125 
L 35.15625 1.953125 
L 35.15625 7.8125 
Q 32.8125 4.296875 29.6875 2.734375 
Q 26.5625 1.171875 22.265625 1.171875 
Q 14.453125 1.171875 8.984375 6.828125 
Q 3.515625 12.5 3.515625 23.828125 
Q 3.515625 35.15625 8.984375 41.015625 
Q 14.453125 46.875 22.265625 46.875 
Q 26.5625 46.875 29.6875 45.109375 
Q 32.8125 43.359375 35.15625 39.84375 
L 35.15625 68.75 
L 42.96875 68.75 
z
M 35.15625 23.828125 
Q 35.15625 31.25 31.828125 35.546875 
Q 28.515625 39.84375 23.828125 39.84375 
Q 17.96875 39.84375 15.03125 35.546875 
Q 12.109375 31.25 12.109375 23.828125 
Q 12.109375 16.40625 15.03125 12.296875 
Q 17.96875 8.203125 23.828125 8.203125 
Q 28.515625 8.203125 31.828125 12.296875 
Q 35.15625 16.40625 35.15625 23.828125 
z
" id="SimHei-100"/>
      <path d="M 44.921875 1.953125 
L 35.546875 1.953125 
Q 34.765625 2.734375 34.375 4.09375 
Q 33.984375 5.46875 33.984375 7.421875 
Q 31.25 4.296875 27.34375 2.734375 
Q 23.4375 1.171875 19.140625 1.171875 
Q 12.890625 1.171875 8.59375 4.296875 
Q 4.296875 7.421875 4.296875 13.28125 
Q 4.296875 19.140625 8.203125 22.65625 
Q 12.109375 26.171875 20.3125 27.34375 
Q 25.78125 28.125 29.875 29.296875 
Q 33.984375 30.46875 33.984375 32.421875 
Q 33.984375 34.765625 32.21875 37.109375 
Q 30.46875 39.453125 24.609375 39.453125 
Q 19.921875 39.453125 17.765625 37.6875 
Q 15.625 35.9375 14.84375 32.8125 
L 6.25 32.8125 
Q 7.03125 39.0625 11.90625 42.765625 
Q 16.796875 46.484375 24.609375 46.484375 
Q 33.203125 46.484375 37.5 42.578125 
Q 41.796875 38.671875 41.796875 31.640625 
L 41.796875 10.15625 
Q 41.796875 7.8125 42.578125 5.859375 
Q 43.359375 3.90625 44.921875 1.953125 
z
M 33.984375 16.40625 
L 33.984375 24.21875 
Q 31.640625 23.4375 29.484375 22.84375 
Q 27.34375 22.265625 22.265625 21.484375 
Q 16.40625 20.703125 14.640625 18.75 
Q 12.890625 16.796875 12.890625 14.0625 
Q 12.890625 11.71875 14.640625 9.953125 
Q 16.40625 8.203125 19.921875 8.203125 
Q 23.4375 8.203125 27.53125 10.15625 
Q 31.640625 12.109375 33.984375 16.40625 
z
" id="SimHei-97"/>
      <path d="M 42.96875 3.125 
Q 41.015625 2.34375 38.46875 1.75 
Q 35.9375 1.171875 31.640625 1.171875 
Q 24.609375 1.171875 20.3125 5.078125 
Q 16.015625 8.984375 16.015625 16.015625 
L 16.015625 39.453125 
L 2.734375 39.453125 
L 2.734375 45.703125 
L 16.015625 45.703125 
L 16.015625 60.9375 
L 23.828125 60.9375 
L 23.828125 45.703125 
L 39.84375 45.703125 
L 39.84375 39.453125 
L 23.828125 39.453125 
L 23.828125 15.625 
Q 23.828125 12.5 25.390625 10.34375 
Q 26.953125 8.203125 31.25 8.203125 
Q 35.546875 8.203125 38.28125 8.984375 
Q 41.015625 9.765625 42.96875 10.9375 
z
" id="SimHei-116"/>
      <path d="M 44.53125 16.796875 
Q 43.75 9.765625 38.28125 5.46875 
Q 32.8125 1.171875 25.390625 1.171875 
Q 16.015625 1.171875 9.953125 7.21875 
Q 3.90625 13.28125 3.90625 23.828125 
Q 3.90625 34.375 9.953125 40.421875 
Q 16.015625 46.484375 25.390625 46.484375 
Q 33.59375 46.484375 38.859375 41.203125 
Q 44.140625 35.9375 44.140625 23.828125 
L 12.5 23.828125 
Q 12.5 15.234375 16.203125 11.71875 
Q 19.921875 8.203125 25.390625 8.203125 
Q 29.6875 8.203125 32.421875 10.34375 
Q 35.15625 12.5 35.9375 16.796875 
z
M 35.15625 30.078125 
Q 34.375 35.546875 31.640625 37.6875 
Q 28.90625 39.84375 24.609375 39.84375 
Q 20.703125 39.84375 17.578125 37.6875 
Q 14.453125 35.546875 12.890625 30.078125 
z
" id="SimHei-101"/>
     </defs>
     <g style="fill:#262626;" transform="translate(401.125 246.388352)scale(0.1 -0.1)">
      <use xlink:href="#SimHei-100"/>
      <use x="50" xlink:href="#SimHei-97"/>
      <use x="100" xlink:href="#SimHei-116"/>
      <use x="150" xlink:href="#SimHei-101"/>
     </g>
    </g>
   </g>
   <g id="matplotlib.axis_2">
    <g id="ytick_1">
     <g id="text_11">
      <!-- 2017-11-25 -->
      <g style="fill:#262626;" transform="translate(19.325 37.134943)scale(0.1 -0.1)">
       <use xlink:href="#SimHei-50"/>
       <use x="50" xlink:href="#SimHei-48"/>
       <use x="100" xlink:href="#SimHei-49"/>
       <use x="150" xlink:href="#SimHei-55"/>
       <use x="200" xlink:href="#SimHei-45"/>
       <use x="250" xlink:href="#SimHei-49"/>
       <use x="300" xlink:href="#SimHei-49"/>
       <use x="350" xlink:href="#SimHei-45"/>
       <use x="400" xlink:href="#SimHei-50"/>
       <use x="450" xlink:href="#SimHei-53"/>
      </g>
     </g>
    </g>
    <g id="ytick_2">
     <g id="text_12">
      <!-- 2017-11-26 -->
      <g style="fill:#262626;" transform="translate(19.325 59.09858)scale(0.1 -0.1)">
       <use xlink:href="#SimHei-50"/>
       <use x="50" xlink:href="#SimHei-48"/>
       <use x="100" xlink:href="#SimHei-49"/>
       <use x="150" xlink:href="#SimHei-55"/>
       <use x="200" xlink:href="#SimHei-45"/>
       <use x="250" xlink:href="#SimHei-49"/>
       <use x="300" xlink:href="#SimHei-49"/>
       <use x="350" xlink:href="#SimHei-45"/>
       <use x="400" xlink:href="#SimHei-50"/>
       <use x="450" xlink:href="#SimHei-54"/>
      </g>
     </g>
    </g>
    <g id="ytick_3">
     <g id="text_13">
      <!-- 2017-11-27 -->
      <g style="fill:#262626;" transform="translate(19.325 81.062216)scale(0.1 -0.1)">
       <use xlink:href="#SimHei-50"/>
       <use x="50" xlink:href="#SimHei-48"/>
       <use x="100" xlink:href="#SimHei-49"/>
       <use x="150" xlink:href="#SimHei-55"/>
       <use x="200" xlink:href="#SimHei-45"/>
       <use x="250" xlink:href="#SimHei-49"/>
       <use x="300" xlink:href="#SimHei-49"/>
       <use x="350" xlink:href="#SimHei-45"/>
       <use x="400" xlink:href="#SimHei-50"/>
       <use x="450" xlink:href="#SimHei-55"/>
      </g>
     </g>
    </g>
    <g id="ytick_4">
     <g id="text_14">
      <!-- 2017-11-28 -->
      <g style="fill:#262626;" transform="translate(19.325 103.025852)scale(0.1 -0.1)">
       <use xlink:href="#SimHei-50"/>
       <use x="50" xlink:href="#SimHei-48"/>
       <use x="100" xlink:href="#SimHei-49"/>
       <use x="150" xlink:href="#SimHei-55"/>
       <use x="200" xlink:href="#SimHei-45"/>
       <use x="250" xlink:href="#SimHei-49"/>
       <use x="300" xlink:href="#SimHei-49"/>
       <use x="350" xlink:href="#SimHei-45"/>
       <use x="400" xlink:href="#SimHei-50"/>
       <use x="450" xlink:href="#SimHei-56"/>
      </g>
     </g>
    </g>
    <g id="ytick_5">
     <g id="text_15">
      <!-- 2017-11-29 -->
      <g style="fill:#262626;" transform="translate(19.325 124.989489)scale(0.1 -0.1)">
       <use xlink:href="#SimHei-50"/>
       <use x="50" xlink:href="#SimHei-48"/>
       <use x="100" xlink:href="#SimHei-49"/>
       <use x="150" xlink:href="#SimHei-55"/>
       <use x="200" xlink:href="#SimHei-45"/>
       <use x="250" xlink:href="#SimHei-49"/>
       <use x="300" xlink:href="#SimHei-49"/>
       <use x="350" xlink:href="#SimHei-45"/>
       <use x="400" xlink:href="#SimHei-50"/>
       <use x="450" xlink:href="#SimHei-57"/>
      </g>
     </g>
    </g>
    <g id="ytick_6">
     <g id="text_16">
      <!-- 2017-11-30 -->
      <g style="fill:#262626;" transform="translate(19.325 146.953125)scale(0.1 -0.1)">
       <use xlink:href="#SimHei-50"/>
       <use x="50" xlink:href="#SimHei-48"/>
       <use x="100" xlink:href="#SimHei-49"/>
       <use x="150" xlink:href="#SimHei-55"/>
       <use x="200" xlink:href="#SimHei-45"/>
       <use x="250" xlink:href="#SimHei-49"/>
       <use x="300" xlink:href="#SimHei-49"/>
       <use x="350" xlink:href="#SimHei-45"/>
       <use x="400" xlink:href="#SimHei-51"/>
       <use x="450" xlink:href="#SimHei-48"/>
      </g>
     </g>
    </g>
    <g id="ytick_7">
     <g id="text_17">
      <!-- 2017-12-01 -->
      <g style="fill:#262626;" transform="translate(19.325 168.916761)scale(0.1 -0.1)">
       <use xlink:href="#SimHei-50"/>
       <use x="50" xlink:href="#SimHei-48"/>
       <use x="100" xlink:href="#SimHei-49"/>
       <use x="150" xlink:href="#SimHei-55"/>
       <use x="200" xlink:href="#SimHei-45"/>
       <use x="250" xlink:href="#SimHei-49"/>
       <use x="300" xlink:href="#SimHei-50"/>
       <use x="350" xlink:href="#SimHei-45"/>
       <use x="400" xlink:href="#SimHei-48"/>
       <use x="450" xlink:href="#SimHei-49"/>
      </g>
     </g>
    </g>
    <g id="ytick_8">
     <g id="text_18">
      <!-- 2017-12-02 -->
      <g style="fill:#262626;" transform="translate(19.325 190.880398)scale(0.1 -0.1)">
       <use xlink:href="#SimHei-50"/>
       <use x="50" xlink:href="#SimHei-48"/>
       <use x="100" xlink:href="#SimHei-49"/>
       <use x="150" xlink:href="#SimHei-55"/>
       <use x="200" xlink:href="#SimHei-45"/>
       <use x="250" xlink:href="#SimHei-49"/>
       <use x="300" xlink:href="#SimHei-50"/>
       <use x="350" xlink:href="#SimHei-45"/>
       <use x="400" xlink:href="#SimHei-48"/>
       <use x="450" xlink:href="#SimHei-50"/>
      </g>
     </g>
    </g>
    <g id="ytick_9">
     <g id="text_19">
      <!-- 2017-12-03 -->
      <g style="fill:#262626;" transform="translate(19.325 212.844034)scale(0.1 -0.1)">
       <use xlink:href="#SimHei-50"/>
       <use x="50" xlink:href="#SimHei-48"/>
       <use x="100" xlink:href="#SimHei-49"/>
       <use x="150" xlink:href="#SimHei-55"/>
       <use x="200" xlink:href="#SimHei-45"/>
       <use x="250" xlink:href="#SimHei-49"/>
       <use x="300" xlink:href="#SimHei-50"/>
       <use x="350" xlink:href="#SimHei-45"/>
       <use x="400" xlink:href="#SimHei-48"/>
       <use x="450" xlink:href="#SimHei-51"/>
      </g>
     </g>
    </g>
    <g id="text_20">
     <!-- date -->
     <g style="fill:#262626;" transform="translate(14.075 131.551989)rotate(-90)scale(0.1 -0.1)">
      <use xlink:href="#SimHei-100"/>
      <use x="50" xlink:href="#SimHei-97"/>
      <use x="100" xlink:href="#SimHei-116"/>
      <use x="150" xlink:href="#SimHei-101"/>
     </g>
    </g>
   </g>
   <g id="QuadMesh_1">
    <path clip-path="url(#pada1191e4d)" d="M 76.325 22.715625 
L 150.725 22.715625 
L 150.725 44.679261 
L 76.325 44.679261 
L 76.325 22.715625 
" style="fill:#00441b;stroke:#ffffff;stroke-width:0.2;"/>
    <path clip-path="url(#pada1191e4d)" d="M 150.725 22.715625 
L 225.125 22.715625 
L 225.125 44.679261 
L 150.725 44.679261 
L 150.725 22.715625 
" style="fill:none;stroke:#ffffff;stroke-width:0.2;"/>
    <path clip-path="url(#pada1191e4d)" d="M 225.125 22.715625 
L 299.525 22.715625 
L 299.525 44.679261 
L 225.125 44.679261 
L 225.125 22.715625 
" style="fill:none;stroke:#ffffff;stroke-width:0.2;"/>
    <path clip-path="url(#pada1191e4d)" d="M 299.525 22.715625 
L 373.925 22.715625 
L 373.925 44.679261 
L 299.525 44.679261 
L 299.525 22.715625 
" style="fill:none;stroke:#ffffff;stroke-width:0.2;"/>
    <path clip-path="url(#pada1191e4d)" d="M 373.925 22.715625 
L 448.325 22.715625 
L 448.325 44.679261 
L 373.925 44.679261 
L 373.925 22.715625 
" style="fill:none;stroke:#ffffff;stroke-width:0.2;"/>
    <path clip-path="url(#pada1191e4d)" d="M 448.325 22.715625 
L 522.725 22.715625 
L 522.725 44.679261 
L 448.325 44.679261 
L 448.325 22.715625 
" style="fill:none;stroke:#ffffff;stroke-width:0.2;"/>
    <path clip-path="url(#pada1191e4d)" d="M 522.725 22.715625 
L 597.125 22.715625 
L 597.125 44.679261 
L 522.725 44.679261 
L 522.725 22.715625 
" style="fill:none;stroke:#ffffff;stroke-width:0.2;"/>
    <path clip-path="url(#pada1191e4d)" d="M 597.125 22.715625 
L 671.525 22.715625 
L 671.525 44.679261 
L 597.125 44.679261 
L 597.125 22.715625 
" style="fill:none;stroke:#ffffff;stroke-width:0.2;"/>
    <path clip-path="url(#pada1191e4d)" d="M 671.525 22.715625 
L 745.925 22.715625 
L 745.925 44.679261 
L 671.525 44.679261 
L 671.525 22.715625 
" style="fill:none;stroke:#ffffff;stroke-width:0.2;"/>
    <path clip-path="url(#pada1191e4d)" d="M 76.325 44.679261 
L 150.725 44.679261 
L 150.725 66.642898 
L 76.325 66.642898 
L 76.325 44.679261 
" style="fill:#f0f9ec;stroke:#ffffff;stroke-width:0.2;"/>
    <path clip-path="url(#pada1191e4d)" d="M 150.725 44.679261 
L 225.125 44.679261 
L 225.125 66.642898 
L 150.725 66.642898 
L 150.725 44.679261 
" style="fill:#00441b;stroke:#ffffff;stroke-width:0.2;"/>
    <path clip-path="url(#pada1191e4d)" d="M 225.125 44.679261 
L 299.525 44.679261 
L 299.525 66.642898 
L 225.125 66.642898 
L 225.125 44.679261 
" style="fill:none;stroke:#ffffff;stroke-width:0.2;"/>
    <path clip-path="url(#pada1191e4d)" d="M 299.525 44.679261 
L 373.925 44.679261 
L 373.925 66.642898 
L 299.525 66.642898 
L 299.525 44.679261 
" style="fill:none;stroke:#ffffff;stroke-width:0.2;"/>
    <path clip-path="url(#pada1191e4d)" d="M 373.925 44.679261 
L 448.325 44.679261 
L 448.325 66.642898 
L 373.925 66.642898 
L 373.925 44.679261 
" style="fill:none;stroke:#ffffff;stroke-width:0.2;"/>
    <path clip-path="url(#pada1191e4d)" d="M 448.325 44.679261 
L 522.725 44.679261 
L 522.725 66.642898 
L 448.325 66.642898 
L 448.325 44.679261 
" style="fill:none;stroke:#ffffff;stroke-width:0.2;"/>
    <path clip-path="url(#pada1191e4d)" d="M 522.725 44.679261 
L 597.125 44.679261 
L 597.125 66.642898 
L 522.725 66.642898 
L 522.725 44.679261 
" style="fill:none;stroke:#ffffff;stroke-width:0.2;"/>
    <path clip-path="url(#pada1191e4d)" d="M 597.125 44.679261 
L 671.525 44.679261 
L 671.525 66.642898 
L 597.125 66.642898 
L 597.125 44.679261 
" style="fill:none;stroke:#ffffff;stroke-width:0.2;"/>
    <path clip-path="url(#pada1191e4d)" d="M 671.525 44.679261 
L 745.925 44.679261 
L 745.925 66.642898 
L 671.525 66.642898 
L 671.525 44.679261 
" style="fill:none;stroke:#ffffff;stroke-width:0.2;"/>
    <path clip-path="url(#pada1191e4d)" d="M 76.325 66.642898 
L 150.725 66.642898 
L 150.725 88.606534 
L 76.325 88.606534 
L 76.325 66.642898 
" style="fill:#f2faef;stroke:#ffffff;stroke-width:0.2;"/>
    <path clip-path="url(#pada1191e4d)" d="M 150.725 66.642898 
L 225.125 66.642898 
L 225.125 88.606534 
L 150.725 88.606534 
L 150.725 66.642898 
" style="fill:#f0f9ec;stroke:#ffffff;stroke-width:0.2;"/>
    <path clip-path="url(#pada1191e4d)" d="M 225.125 66.642898 
L 299.525 66.642898 
L 299.525 88.606534 
L 225.125 88.606534 
L 225.125 66.642898 
" style="fill:#00441b;stroke:#ffffff;stroke-width:0.2;"/>
    <path clip-path="url(#pada1191e4d)" d="M 299.525 66.642898 
L 373.925 66.642898 
L 373.925 88.606534 
L 299.525 88.606534 
L 299.525 66.642898 
" style="fill:none;stroke:#ffffff;stroke-width:0.2;"/>
    <path clip-path="url(#pada1191e4d)" d="M 373.925 66.642898 
L 448.325 66.642898 
L 448.325 88.606534 
L 373.925 88.606534 
L 373.925 66.642898 
" style="fill:none;stroke:#ffffff;stroke-width:0.2;"/>
    <path clip-path="url(#pada1191e4d)" d="M 448.325 66.642898 
L 522.725 66.642898 
L 522.725 88.606534 
L 448.325 88.606534 
L 448.325 66.642898 
" style="fill:none;stroke:#ffffff;stroke-width:0.2;"/>
    <path clip-path="url(#pada1191e4d)" d="M 522.725 66.642898 
L 597.125 66.642898 
L 597.125 88.606534 
L 522.725 88.606534 
L 522.725 66.642898 
" style="fill:none;stroke:#ffffff;stroke-width:0.2;"/>
    <path clip-path="url(#pada1191e4d)" d="M 597.125 66.642898 
L 671.525 66.642898 
L 671.525 88.606534 
L 597.125 88.606534 
L 597.125 66.642898 
" style="fill:none;stroke:#ffffff;stroke-width:0.2;"/>
    <path clip-path="url(#pada1191e4d)" d="M 671.525 66.642898 
L 745.925 66.642898 
L 745.925 88.606534 
L 671.525 88.606534 
L 671.525 66.642898 
" style="fill:none;stroke:#ffffff;stroke-width:0.2;"/>
    <path clip-path="url(#pada1191e4d)" d="M 76.325 88.606534 
L 150.725 88.606534 
L 150.725 110.57017 
L 76.325 110.57017 
L 76.325 88.606534 
" style="fill:#f5fbf2;stroke:#ffffff;stroke-width:0.2;"/>
    <path clip-path="url(#pada1191e4d)" d="M 150.725 88.606534 
L 225.125 88.606534 
L 225.125 110.57017 
L 150.725 110.57017 
L 150.725 88.606534 
" style="fill:#f4fbf1;stroke:#ffffff;stroke-width:0.2;"/>
    <path clip-path="url(#pada1191e4d)" d="M 225.125 88.606534 
L 299.525 88.606534 
L 299.525 110.57017 
L 225.125 110.57017 
L 225.125 88.606534 
" style="fill:#f0f9ed;stroke:#ffffff;stroke-width:0.2;"/>
    <path clip-path="url(#pada1191e4d)" d="M 299.525 88.606534 
L 373.925 88.606534 
L 373.925 110.57017 
L 299.525 110.57017 
L 299.525 88.606534 
" style="fill:#00441b;stroke:#ffffff;stroke-width:0.2;"/>
    <path clip-path="url(#pada1191e4d)" d="M 373.925 88.606534 
L 448.325 88.606534 
L 448.325 110.57017 
L 373.925 110.57017 
L 373.925 88.606534 
" style="fill:none;stroke:#ffffff;stroke-width:0.2;"/>
    <path clip-path="url(#pada1191e4d)" d="M 448.325 88.606534 
L 522.725 88.606534 
L 522.725 110.57017 
L 448.325 110.57017 
L 448.325 88.606534 
" style="fill:none;stroke:#ffffff;stroke-width:0.2;"/>
    <path clip-path="url(#pada1191e4d)" d="M 522.725 88.606534 
L 597.125 88.606534 
L 597.125 110.57017 
L 522.725 110.57017 
L 522.725 88.606534 
" style="fill:none;stroke:#ffffff;stroke-width:0.2;"/>
    <path clip-path="url(#pada1191e4d)" d="M 597.125 88.606534 
L 671.525 88.606534 
L 671.525 110.57017 
L 597.125 110.57017 
L 597.125 88.606534 
" style="fill:none;stroke:#ffffff;stroke-width:0.2;"/>
    <path clip-path="url(#pada1191e4d)" d="M 671.525 88.606534 
L 745.925 88.606534 
L 745.925 110.57017 
L 671.525 110.57017 
L 671.525 88.606534 
" style="fill:none;stroke:#ffffff;stroke-width:0.2;"/>
    <path clip-path="url(#pada1191e4d)" d="M 76.325 110.57017 
L 150.725 110.57017 
L 150.725 132.533807 
L 76.325 132.533807 
L 76.325 110.57017 
" style="fill:#f4fbf1;stroke:#ffffff;stroke-width:0.2;"/>
    <path clip-path="url(#pada1191e4d)" d="M 150.725 110.57017 
L 225.125 110.57017 
L 225.125 132.533807 
L 150.725 132.533807 
L 150.725 110.57017 
" style="fill:#f4fbf1;stroke:#ffffff;stroke-width:0.2;"/>
    <path clip-path="url(#pada1191e4d)" d="M 225.125 110.57017 
L 299.525 110.57017 
L 299.525 132.533807 
L 225.125 132.533807 
L 225.125 110.57017 
" style="fill:#f2faef;stroke:#ffffff;stroke-width:0.2;"/>
    <path clip-path="url(#pada1191e4d)" d="M 299.525 110.57017 
L 373.925 110.57017 
L 373.925 132.533807 
L 299.525 132.533807 
L 299.525 110.57017 
" style="fill:#eff9eb;stroke:#ffffff;stroke-width:0.2;"/>
    <path clip-path="url(#pada1191e4d)" d="M 373.925 110.57017 
L 448.325 110.57017 
L 448.325 132.533807 
L 373.925 132.533807 
L 373.925 110.57017 
" style="fill:#00441b;stroke:#ffffff;stroke-width:0.2;"/>
    <path clip-path="url(#pada1191e4d)" d="M 448.325 110.57017 
L 522.725 110.57017 
L 522.725 132.533807 
L 448.325 132.533807 
L 448.325 110.57017 
" style="fill:none;stroke:#ffffff;stroke-width:0.2;"/>
    <path clip-path="url(#pada1191e4d)" d="M 522.725 110.57017 
L 597.125 110.57017 
L 597.125 132.533807 
L 522.725 132.533807 
L 522.725 110.57017 
" style="fill:none;stroke:#ffffff;stroke-width:0.2;"/>
    <path clip-path="url(#pada1191e4d)" d="M 597.125 110.57017 
L 671.525 110.57017 
L 671.525 132.533807 
L 597.125 132.533807 
L 597.125 110.57017 
" style="fill:none;stroke:#ffffff;stroke-width:0.2;"/>
    <path clip-path="url(#pada1191e4d)" d="M 671.525 110.57017 
L 745.925 110.57017 
L 745.925 132.533807 
L 671.525 132.533807 
L 671.525 110.57017 
" style="fill:none;stroke:#ffffff;stroke-width:0.2;"/>
    <path clip-path="url(#pada1191e4d)" d="M 76.325 132.533807 
L 150.725 132.533807 
L 150.725 154.497443 
L 76.325 154.497443 
L 76.325 132.533807 
" style="fill:#f4fbf2;stroke:#ffffff;stroke-width:0.2;"/>
    <path clip-path="url(#pada1191e4d)" d="M 150.725 132.533807 
L 225.125 132.533807 
L 225.125 154.497443 
L 150.725 154.497443 
L 150.725 132.533807 
" style="fill:#f5fbf3;stroke:#ffffff;stroke-width:0.2;"/>
    <path clip-path="url(#pada1191e4d)" d="M 225.125 132.533807 
L 299.525 132.533807 
L 299.525 154.497443 
L 225.125 154.497443 
L 225.125 132.533807 
" style="fill:#f4fbf1;stroke:#ffffff;stroke-width:0.2;"/>
    <path clip-path="url(#pada1191e4d)" d="M 299.525 132.533807 
L 373.925 132.533807 
L 373.925 154.497443 
L 299.525 154.497443 
L 299.525 132.533807 
" style="fill:#f2faf0;stroke:#ffffff;stroke-width:0.2;"/>
    <path clip-path="url(#pada1191e4d)" d="M 373.925 132.533807 
L 448.325 132.533807 
L 448.325 154.497443 
L 373.925 154.497443 
L 373.925 132.533807 
" style="fill:#f0f9ec;stroke:#ffffff;stroke-width:0.2;"/>
    <path clip-path="url(#pada1191e4d)" d="M 448.325 132.533807 
L 522.725 132.533807 
L 522.725 154.497443 
L 448.325 154.497443 
L 448.325 132.533807 
" style="fill:#00441b;stroke:#ffffff;stroke-width:0.2;"/>
    <path clip-path="url(#pada1191e4d)" d="M 522.725 132.533807 
L 597.125 132.533807 
L 597.125 154.497443 
L 522.725 154.497443 
L 522.725 132.533807 
" style="fill:none;stroke:#ffffff;stroke-width:0.2;"/>
    <path clip-path="url(#pada1191e4d)" d="M 597.125 132.533807 
L 671.525 132.533807 
L 671.525 154.497443 
L 597.125 154.497443 
L 597.125 132.533807 
" style="fill:none;stroke:#ffffff;stroke-width:0.2;"/>
    <path clip-path="url(#pada1191e4d)" d="M 671.525 132.533807 
L 745.925 132.533807 
L 745.925 154.497443 
L 671.525 154.497443 
L 671.525 132.533807 
" style="fill:none;stroke:#ffffff;stroke-width:0.2;"/>
    <path clip-path="url(#pada1191e4d)" d="M 76.325 154.497443 
L 150.725 154.497443 
L 150.725 176.46108 
L 76.325 176.46108 
L 76.325 154.497443 
" style="fill:#f6fcf4;stroke:#ffffff;stroke-width:0.2;"/>
    <path clip-path="url(#pada1191e4d)" d="M 150.725 154.497443 
L 225.125 154.497443 
L 225.125 176.46108 
L 150.725 176.46108 
L 150.725 154.497443 
" style="fill:#f7fcf5;stroke:#ffffff;stroke-width:0.2;"/>
    <path clip-path="url(#pada1191e4d)" d="M 225.125 154.497443 
L 299.525 154.497443 
L 299.525 176.46108 
L 225.125 176.46108 
L 225.125 154.497443 
" style="fill:#f6fcf4;stroke:#ffffff;stroke-width:0.2;"/>
    <path clip-path="url(#pada1191e4d)" d="M 299.525 154.497443 
L 373.925 154.497443 
L 373.925 176.46108 
L 299.525 176.46108 
L 299.525 154.497443 
" style="fill:#f5fbf3;stroke:#ffffff;stroke-width:0.2;"/>
    <path clip-path="url(#pada1191e4d)" d="M 373.925 154.497443 
L 448.325 154.497443 
L 448.325 176.46108 
L 373.925 176.46108 
L 373.925 154.497443 
" style="fill:#f5fbf2;stroke:#ffffff;stroke-width:0.2;"/>
    <path clip-path="url(#pada1191e4d)" d="M 448.325 154.497443 
L 522.725 154.497443 
L 522.725 176.46108 
L 448.325 176.46108 
L 448.325 154.497443 
" style="fill:#f2faef;stroke:#ffffff;stroke-width:0.2;"/>
    <path clip-path="url(#pada1191e4d)" d="M 522.725 154.497443 
L 597.125 154.497443 
L 597.125 176.46108 
L 522.725 176.46108 
L 522.725 154.497443 
" style="fill:#00441b;stroke:#ffffff;stroke-width:0.2;"/>
    <path clip-path="url(#pada1191e4d)" d="M 597.125 154.497443 
L 671.525 154.497443 
L 671.525 176.46108 
L 597.125 176.46108 
L 597.125 154.497443 
" style="fill:none;stroke:#ffffff;stroke-width:0.2;"/>
    <path clip-path="url(#pada1191e4d)" d="M 671.525 154.497443 
L 745.925 154.497443 
L 745.925 176.46108 
L 671.525 176.46108 
L 671.525 154.497443 
" style="fill:none;stroke:#ffffff;stroke-width:0.2;"/>
    <path clip-path="url(#pada1191e4d)" d="M 76.325 176.46108 
L 150.725 176.46108 
L 150.725 198.424716 
L 76.325 198.424716 
L 76.325 176.46108 
" style="fill:#eff9ec;stroke:#ffffff;stroke-width:0.2;"/>
    <path clip-path="url(#pada1191e4d)" d="M 150.725 176.46108 
L 225.125 176.46108 
L 225.125 198.424716 
L 150.725 198.424716 
L 150.725 176.46108 
" style="fill:#f0f9ed;stroke:#ffffff;stroke-width:0.2;"/>
    <path clip-path="url(#pada1191e4d)" d="M 225.125 176.46108 
L 299.525 176.46108 
L 299.525 198.424716 
L 225.125 198.424716 
L 225.125 176.46108 
" style="fill:#f0f9ed;stroke:#ffffff;stroke-width:0.2;"/>
    <path clip-path="url(#pada1191e4d)" d="M 299.525 176.46108 
L 373.925 176.46108 
L 373.925 198.424716 
L 299.525 198.424716 
L 299.525 176.46108 
" style="fill:#f0f9ed;stroke:#ffffff;stroke-width:0.2;"/>
    <path clip-path="url(#pada1191e4d)" d="M 373.925 176.46108 
L 448.325 176.46108 
L 448.325 198.424716 
L 373.925 198.424716 
L 373.925 176.46108 
" style="fill:#f0f9ed;stroke:#ffffff;stroke-width:0.2;"/>
    <path clip-path="url(#pada1191e4d)" d="M 448.325 176.46108 
L 522.725 176.46108 
L 522.725 198.424716 
L 448.325 198.424716 
L 448.325 176.46108 
" style="fill:#eff9ec;stroke:#ffffff;stroke-width:0.2;"/>
    <path clip-path="url(#pada1191e4d)" d="M 522.725 176.46108 
L 597.125 176.46108 
L 597.125 198.424716 
L 522.725 198.424716 
L 522.725 176.46108 
" style="fill:#edf8e9;stroke:#ffffff;stroke-width:0.2;"/>
    <path clip-path="url(#pada1191e4d)" d="M 597.125 176.46108 
L 671.525 176.46108 
L 671.525 198.424716 
L 597.125 198.424716 
L 597.125 176.46108 
" style="fill:#00441b;stroke:#ffffff;stroke-width:0.2;"/>
    <path clip-path="url(#pada1191e4d)" d="M 671.525 176.46108 
L 745.925 176.46108 
L 745.925 198.424716 
L 671.525 198.424716 
L 671.525 176.46108 
" style="fill:none;stroke:#ffffff;stroke-width:0.2;"/>
    <path clip-path="url(#pada1191e4d)" d="M 76.325 198.424716 
L 150.725 198.424716 
L 150.725 220.388352 
L 76.325 220.388352 
L 76.325 198.424716 
" style="fill:#f2faf0;stroke:#ffffff;stroke-width:0.2;"/>
    <path clip-path="url(#pada1191e4d)" d="M 150.725 198.424716 
L 225.125 198.424716 
L 225.125 220.388352 
L 150.725 220.388352 
L 150.725 198.424716 
" style="fill:#f2faf0;stroke:#ffffff;stroke-width:0.2;"/>
    <path clip-path="url(#pada1191e4d)" d="M 225.125 198.424716 
L 299.525 198.424716 
L 299.525 220.388352 
L 225.125 220.388352 
L 225.125 198.424716 
" style="fill:#f3faf0;stroke:#ffffff;stroke-width:0.2;"/>
    <path clip-path="url(#pada1191e4d)" d="M 299.525 198.424716 
L 373.925 198.424716 
L 373.925 220.388352 
L 299.525 220.388352 
L 299.525 198.424716 
" style="fill:#f3faf0;stroke:#ffffff;stroke-width:0.2;"/>
    <path clip-path="url(#pada1191e4d)" d="M 373.925 198.424716 
L 448.325 198.424716 
L 448.325 220.388352 
L 373.925 220.388352 
L 373.925 198.424716 
" style="fill:#f3faf0;stroke:#ffffff;stroke-width:0.2;"/>
    <path clip-path="url(#pada1191e4d)" d="M 448.325 198.424716 
L 522.725 198.424716 
L 522.725 220.388352 
L 448.325 220.388352 
L 448.325 198.424716 
" style="fill:#f4fbf1;stroke:#ffffff;stroke-width:0.2;"/>
    <path clip-path="url(#pada1191e4d)" d="M 522.725 198.424716 
L 597.125 198.424716 
L 597.125 220.388352 
L 522.725 220.388352 
L 522.725 198.424716 
" style="fill:#f2faef;stroke:#ffffff;stroke-width:0.2;"/>
    <path clip-path="url(#pada1191e4d)" d="M 597.125 198.424716 
L 671.525 198.424716 
L 671.525 220.388352 
L 597.125 220.388352 
L 597.125 198.424716 
" style="fill:#f1faee;stroke:#ffffff;stroke-width:0.2;"/>
    <path clip-path="url(#pada1191e4d)" d="M 671.525 198.424716 
L 745.925 198.424716 
L 745.925 220.388352 
L 671.525 220.388352 
L 671.525 198.424716 
" style="fill:#00441b;stroke:#ffffff;stroke-width:0.2;"/>
   </g>
   <g id="text_21">
    <!-- 1.00 -->
    <defs>
     <path d="M 16.796875 1.953125 
L 7.8125 1.953125 
L 7.8125 10.546875 
L 16.796875 10.546875 
z
" id="SimHei-46"/>
    </defs>
    <g style="fill:#ffffff;" transform="translate(103.525 36.509943)scale(0.1 -0.1)">
     <use xlink:href="#SimHei-49"/>
     <use x="50" xlink:href="#SimHei-46"/>
     <use x="100" xlink:href="#SimHei-48"/>
     <use x="150" xlink:href="#SimHei-48"/>
    </g>
   </g>
   <g id="text_22">
    <!-- 0.24 -->
    <defs>
     <path d="M 31.25 17.1875 
L 1.171875 17.1875 
L 1.171875 23.828125 
L 32.8125 69.53125 
L 38.671875 69.53125 
L 38.671875 23.828125 
L 48.046875 23.828125 
L 48.046875 17.1875 
L 38.671875 17.1875 
L 38.671875 2.34375 
L 31.25 2.34375 
z
M 31.25 23.828125 
L 31.25 54.6875 
L 9.375 23.828125 
z
" id="SimHei-52"/>
    </defs>
    <g style="fill:#262626;" transform="translate(103.525 58.47358)scale(0.1 -0.1)">
     <use xlink:href="#SimHei-48"/>
     <use x="50" xlink:href="#SimHei-46"/>
     <use x="100" xlink:href="#SimHei-50"/>
     <use x="150" xlink:href="#SimHei-52"/>
    </g>
   </g>
   <g id="text_23">
    <!-- 1.00 -->
    <g style="fill:#ffffff;" transform="translate(177.925 58.47358)scale(0.1 -0.1)">
     <use xlink:href="#SimHei-49"/>
     <use x="50" xlink:href="#SimHei-46"/>
     <use x="100" xlink:href="#SimHei-48"/>
     <use x="150" xlink:href="#SimHei-48"/>
    </g>
   </g>
   <g id="text_24">
    <!-- 0.22 -->
    <g style="fill:#262626;" transform="translate(103.525 80.437216)scale(0.1 -0.1)">
     <use xlink:href="#SimHei-48"/>
     <use x="50" xlink:href="#SimHei-46"/>
     <use x="100" xlink:href="#SimHei-50"/>
     <use x="150" xlink:href="#SimHei-50"/>
    </g>
   </g>
   <g id="text_25">
    <!-- 0.24 -->
    <g style="fill:#262626;" transform="translate(177.925 80.437216)scale(0.1 -0.1)">
     <use xlink:href="#SimHei-48"/>
     <use x="50" xlink:href="#SimHei-46"/>
     <use x="100" xlink:href="#SimHei-50"/>
     <use x="150" xlink:href="#SimHei-52"/>
    </g>
   </g>
   <g id="text_26">
    <!-- 1.00 -->
    <g style="fill:#ffffff;" transform="translate(252.325 80.437216)scale(0.1 -0.1)">
     <use xlink:href="#SimHei-49"/>
     <use x="50" xlink:href="#SimHei-46"/>
     <use x="100" xlink:href="#SimHei-48"/>
     <use x="150" xlink:href="#SimHei-48"/>
    </g>
   </g>
   <g id="text_27">
    <!-- 0.21 -->
    <g style="fill:#262626;" transform="translate(103.525 102.400852)scale(0.1 -0.1)">
     <use xlink:href="#SimHei-48"/>
     <use x="50" xlink:href="#SimHei-46"/>
     <use x="100" xlink:href="#SimHei-50"/>
     <use x="150" xlink:href="#SimHei-49"/>
    </g>
   </g>
   <g id="text_28">
    <!-- 0.21 -->
    <g style="fill:#262626;" transform="translate(177.925 102.400852)scale(0.1 -0.1)">
     <use xlink:href="#SimHei-48"/>
     <use x="50" xlink:href="#SimHei-46"/>
     <use x="100" xlink:href="#SimHei-50"/>
     <use x="150" xlink:href="#SimHei-49"/>
    </g>
   </g>
   <g id="text_29">
    <!-- 0.23 -->
    <g style="fill:#262626;" transform="translate(252.325 102.400852)scale(0.1 -0.1)">
     <use xlink:href="#SimHei-48"/>
     <use x="50" xlink:href="#SimHei-46"/>
     <use x="100" xlink:href="#SimHei-50"/>
     <use x="150" xlink:href="#SimHei-51"/>
    </g>
   </g>
   <g id="text_30">
    <!-- 1.00 -->
    <g style="fill:#ffffff;" transform="translate(326.725 102.400852)scale(0.1 -0.1)">
     <use xlink:href="#SimHei-49"/>
     <use x="50" xlink:href="#SimHei-46"/>
     <use x="100" xlink:href="#SimHei-48"/>
     <use x="150" xlink:href="#SimHei-48"/>
    </g>
   </g>
   <g id="text_31">
    <!-- 0.22 -->
    <g style="fill:#262626;" transform="translate(103.525 124.364489)scale(0.1 -0.1)">
     <use xlink:href="#SimHei-48"/>
     <use x="50" xlink:href="#SimHei-46"/>
     <use x="100" xlink:href="#SimHei-50"/>
     <use x="150" xlink:href="#SimHei-50"/>
    </g>
   </g>
   <g id="text_32">
    <!-- 0.21 -->
    <g style="fill:#262626;" transform="translate(177.925 124.364489)scale(0.1 -0.1)">
     <use xlink:href="#SimHei-48"/>
     <use x="50" xlink:href="#SimHei-46"/>
     <use x="100" xlink:href="#SimHei-50"/>
     <use x="150" xlink:href="#SimHei-49"/>
    </g>
   </g>
   <g id="text_33">
    <!-- 0.23 -->
    <g style="fill:#262626;" transform="translate(252.325 124.364489)scale(0.1 -0.1)">
     <use xlink:href="#SimHei-48"/>
     <use x="50" xlink:href="#SimHei-46"/>
     <use x="100" xlink:href="#SimHei-50"/>
     <use x="150" xlink:href="#SimHei-51"/>
    </g>
   </g>
   <g id="text_34">
    <!-- 0.24 -->
    <g style="fill:#262626;" transform="translate(326.725 124.364489)scale(0.1 -0.1)">
     <use xlink:href="#SimHei-48"/>
     <use x="50" xlink:href="#SimHei-46"/>
     <use x="100" xlink:href="#SimHei-50"/>
     <use x="150" xlink:href="#SimHei-52"/>
    </g>
   </g>
   <g id="text_35">
    <!-- 1.00 -->
    <g style="fill:#ffffff;" transform="translate(401.125 124.364489)scale(0.1 -0.1)">
     <use xlink:href="#SimHei-49"/>
     <use x="50" xlink:href="#SimHei-46"/>
     <use x="100" xlink:href="#SimHei-48"/>
     <use x="150" xlink:href="#SimHei-48"/>
    </g>
   </g>
   <g id="text_36">
    <!-- 0.21 -->
    <g style="fill:#262626;" transform="translate(103.525 146.328125)scale(0.1 -0.1)">
     <use xlink:href="#SimHei-48"/>
     <use x="50" xlink:href="#SimHei-46"/>
     <use x="100" xlink:href="#SimHei-50"/>
     <use x="150" xlink:href="#SimHei-49"/>
    </g>
   </g>
   <g id="text_37">
    <!-- 0.21 -->
    <g style="fill:#262626;" transform="translate(177.925 146.328125)scale(0.1 -0.1)">
     <use xlink:href="#SimHei-48"/>
     <use x="50" xlink:href="#SimHei-46"/>
     <use x="100" xlink:href="#SimHei-50"/>
     <use x="150" xlink:href="#SimHei-49"/>
    </g>
   </g>
   <g id="text_38">
    <!-- 0.22 -->
    <g style="fill:#262626;" transform="translate(252.325 146.328125)scale(0.1 -0.1)">
     <use xlink:href="#SimHei-48"/>
     <use x="50" xlink:href="#SimHei-46"/>
     <use x="100" xlink:href="#SimHei-50"/>
     <use x="150" xlink:href="#SimHei-50"/>
    </g>
   </g>
   <g id="text_39">
    <!-- 0.22 -->
    <g style="fill:#262626;" transform="translate(326.725 146.328125)scale(0.1 -0.1)">
     <use xlink:href="#SimHei-48"/>
     <use x="50" xlink:href="#SimHei-46"/>
     <use x="100" xlink:href="#SimHei-50"/>
     <use x="150" xlink:href="#SimHei-50"/>
    </g>
   </g>
   <g id="text_40">
    <!-- 0.24 -->
    <g style="fill:#262626;" transform="translate(401.125 146.328125)scale(0.1 -0.1)">
     <use xlink:href="#SimHei-48"/>
     <use x="50" xlink:href="#SimHei-46"/>
     <use x="100" xlink:href="#SimHei-50"/>
     <use x="150" xlink:href="#SimHei-52"/>
    </g>
   </g>
   <g id="text_41">
    <!-- 1.00 -->
    <g style="fill:#ffffff;" transform="translate(475.525 146.328125)scale(0.1 -0.1)">
     <use xlink:href="#SimHei-49"/>
     <use x="50" xlink:href="#SimHei-46"/>
     <use x="100" xlink:href="#SimHei-48"/>
     <use x="150" xlink:href="#SimHei-48"/>
    </g>
   </g>
   <g id="text_42">
    <!-- 0.20 -->
    <g style="fill:#262626;" transform="translate(103.525 168.291761)scale(0.1 -0.1)">
     <use xlink:href="#SimHei-48"/>
     <use x="50" xlink:href="#SimHei-46"/>
     <use x="100" xlink:href="#SimHei-50"/>
     <use x="150" xlink:href="#SimHei-48"/>
    </g>
   </g>
   <g id="text_43">
    <!-- 0.19 -->
    <g style="fill:#262626;" transform="translate(177.925 168.291761)scale(0.1 -0.1)">
     <use xlink:href="#SimHei-48"/>
     <use x="50" xlink:href="#SimHei-46"/>
     <use x="100" xlink:href="#SimHei-49"/>
     <use x="150" xlink:href="#SimHei-57"/>
    </g>
   </g>
   <g id="text_44">
    <!-- 0.20 -->
    <g style="fill:#262626;" transform="translate(252.325 168.291761)scale(0.1 -0.1)">
     <use xlink:href="#SimHei-48"/>
     <use x="50" xlink:href="#SimHei-46"/>
     <use x="100" xlink:href="#SimHei-50"/>
     <use x="150" xlink:href="#SimHei-48"/>
    </g>
   </g>
   <g id="text_45">
    <!-- 0.20 -->
    <g style="fill:#262626;" transform="translate(326.725 168.291761)scale(0.1 -0.1)">
     <use xlink:href="#SimHei-48"/>
     <use x="50" xlink:href="#SimHei-46"/>
     <use x="100" xlink:href="#SimHei-50"/>
     <use x="150" xlink:href="#SimHei-48"/>
    </g>
   </g>
   <g id="text_46">
    <!-- 0.21 -->
    <g style="fill:#262626;" transform="translate(401.125 168.291761)scale(0.1 -0.1)">
     <use xlink:href="#SimHei-48"/>
     <use x="50" xlink:href="#SimHei-46"/>
     <use x="100" xlink:href="#SimHei-50"/>
     <use x="150" xlink:href="#SimHei-49"/>
    </g>
   </g>
   <g id="text_47">
    <!-- 0.22 -->
    <g style="fill:#262626;" transform="translate(475.525 168.291761)scale(0.1 -0.1)">
     <use xlink:href="#SimHei-48"/>
     <use x="50" xlink:href="#SimHei-46"/>
     <use x="100" xlink:href="#SimHei-50"/>
     <use x="150" xlink:href="#SimHei-50"/>
    </g>
   </g>
   <g id="text_48">
    <!-- 1.00 -->
    <g style="fill:#ffffff;" transform="translate(549.925 168.291761)scale(0.1 -0.1)">
     <use xlink:href="#SimHei-49"/>
     <use x="50" xlink:href="#SimHei-46"/>
     <use x="100" xlink:href="#SimHei-48"/>
     <use x="150" xlink:href="#SimHei-48"/>
    </g>
   </g>
   <g id="text_49">
    <!-- 0.24 -->
    <g style="fill:#262626;" transform="translate(103.525 190.255398)scale(0.1 -0.1)">
     <use xlink:href="#SimHei-48"/>
     <use x="50" xlink:href="#SimHei-46"/>
     <use x="100" xlink:href="#SimHei-50"/>
     <use x="150" xlink:href="#SimHei-52"/>
    </g>
   </g>
   <g id="text_50">
    <!-- 0.23 -->
    <g style="fill:#262626;" transform="translate(177.925 190.255398)scale(0.1 -0.1)">
     <use xlink:href="#SimHei-48"/>
     <use x="50" xlink:href="#SimHei-46"/>
     <use x="100" xlink:href="#SimHei-50"/>
     <use x="150" xlink:href="#SimHei-51"/>
    </g>
   </g>
   <g id="text_51">
    <!-- 0.23 -->
    <g style="fill:#262626;" transform="translate(252.325 190.255398)scale(0.1 -0.1)">
     <use xlink:href="#SimHei-48"/>
     <use x="50" xlink:href="#SimHei-46"/>
     <use x="100" xlink:href="#SimHei-50"/>
     <use x="150" xlink:href="#SimHei-51"/>
    </g>
   </g>
   <g id="text_52">
    <!-- 0.23 -->
    <g style="fill:#262626;" transform="translate(326.725 190.255398)scale(0.1 -0.1)">
     <use xlink:href="#SimHei-48"/>
     <use x="50" xlink:href="#SimHei-46"/>
     <use x="100" xlink:href="#SimHei-50"/>
     <use x="150" xlink:href="#SimHei-51"/>
    </g>
   </g>
   <g id="text_53">
    <!-- 0.23 -->
    <g style="fill:#262626;" transform="translate(401.125 190.255398)scale(0.1 -0.1)">
     <use xlink:href="#SimHei-48"/>
     <use x="50" xlink:href="#SimHei-46"/>
     <use x="100" xlink:href="#SimHei-50"/>
     <use x="150" xlink:href="#SimHei-51"/>
    </g>
   </g>
   <g id="text_54">
    <!-- 0.24 -->
    <g style="fill:#262626;" transform="translate(475.525 190.255398)scale(0.1 -0.1)">
     <use xlink:href="#SimHei-48"/>
     <use x="50" xlink:href="#SimHei-46"/>
     <use x="100" xlink:href="#SimHei-50"/>
     <use x="150" xlink:href="#SimHei-52"/>
    </g>
   </g>
   <g id="text_55">
    <!-- 0.25 -->
    <g style="fill:#262626;" transform="translate(549.925 190.255398)scale(0.1 -0.1)">
     <use xlink:href="#SimHei-48"/>
     <use x="50" xlink:href="#SimHei-46"/>
     <use x="100" xlink:href="#SimHei-50"/>
     <use x="150" xlink:href="#SimHei-53"/>
    </g>
   </g>
   <g id="text_56">
    <!-- 1.00 -->
    <g style="fill:#ffffff;" transform="translate(624.325 190.255398)scale(0.1 -0.1)">
     <use xlink:href="#SimHei-49"/>
     <use x="50" xlink:href="#SimHei-46"/>
     <use x="100" xlink:href="#SimHei-48"/>
     <use x="150" xlink:href="#SimHei-48"/>
    </g>
   </g>
   <g id="text_57">
    <!-- 0.22 -->
    <g style="fill:#262626;" transform="translate(103.525 212.219034)scale(0.1 -0.1)">
     <use xlink:href="#SimHei-48"/>
     <use x="50" xlink:href="#SimHei-46"/>
     <use x="100" xlink:href="#SimHei-50"/>
     <use x="150" xlink:href="#SimHei-50"/>
    </g>
   </g>
   <g id="text_58">
    <!-- 0.22 -->
    <g style="fill:#262626;" transform="translate(177.925 212.219034)scale(0.1 -0.1)">
     <use xlink:href="#SimHei-48"/>
     <use x="50" xlink:href="#SimHei-46"/>
     <use x="100" xlink:href="#SimHei-50"/>
     <use x="150" xlink:href="#SimHei-50"/>
    </g>
   </g>
   <g id="text_59">
    <!-- 0.22 -->
    <g style="fill:#262626;" transform="translate(252.325 212.219034)scale(0.1 -0.1)">
     <use xlink:href="#SimHei-48"/>
     <use x="50" xlink:href="#SimHei-46"/>
     <use x="100" xlink:href="#SimHei-50"/>
     <use x="150" xlink:href="#SimHei-50"/>
    </g>
   </g>
   <g id="text_60">
    <!-- 0.22 -->
    <g style="fill:#262626;" transform="translate(326.725 212.219034)scale(0.1 -0.1)">
     <use xlink:href="#SimHei-48"/>
     <use x="50" xlink:href="#SimHei-46"/>
     <use x="100" xlink:href="#SimHei-50"/>
     <use x="150" xlink:href="#SimHei-50"/>
    </g>
   </g>
   <g id="text_61">
    <!-- 0.22 -->
    <g style="fill:#262626;" transform="translate(401.125 212.219034)scale(0.1 -0.1)">
     <use xlink:href="#SimHei-48"/>
     <use x="50" xlink:href="#SimHei-46"/>
     <use x="100" xlink:href="#SimHei-50"/>
     <use x="150" xlink:href="#SimHei-50"/>
    </g>
   </g>
   <g id="text_62">
    <!-- 0.22 -->
    <g style="fill:#262626;" transform="translate(475.525 212.219034)scale(0.1 -0.1)">
     <use xlink:href="#SimHei-48"/>
     <use x="50" xlink:href="#SimHei-46"/>
     <use x="100" xlink:href="#SimHei-50"/>
     <use x="150" xlink:href="#SimHei-50"/>
    </g>
   </g>
   <g id="text_63">
    <!-- 0.22 -->
    <g style="fill:#262626;" transform="translate(549.925 212.219034)scale(0.1 -0.1)">
     <use xlink:href="#SimHei-48"/>
     <use x="50" xlink:href="#SimHei-46"/>
     <use x="100" xlink:href="#SimHei-50"/>
     <use x="150" xlink:href="#SimHei-50"/>
    </g>
   </g>
   <g id="text_64">
    <!-- 0.23 -->
    <g style="fill:#262626;" transform="translate(624.325 212.219034)scale(0.1 -0.1)">
     <use xlink:href="#SimHei-48"/>
     <use x="50" xlink:href="#SimHei-46"/>
     <use x="100" xlink:href="#SimHei-50"/>
     <use x="150" xlink:href="#SimHei-51"/>
    </g>
   </g>
   <g id="text_65">
    <!-- 1.00 -->
    <g style="fill:#ffffff;" transform="translate(698.725 212.219034)scale(0.1 -0.1)">
     <use xlink:href="#SimHei-49"/>
     <use x="50" xlink:href="#SimHei-46"/>
     <use x="100" xlink:href="#SimHei-48"/>
     <use x="150" xlink:href="#SimHei-48"/>
    </g>
   </g>
   <g id="text_66">
    <!--  -->
    <defs>
     <path d="M 33.203125 18.75 
Q 29.6875 15.234375 26.359375 12.296875 
Q 23.046875 9.375 17.1875 5.46875 
Q 15.625 7.421875 11.328125 10.546875 
Q 19.140625 14.84375 24.796875 19.921875 
Q 30.46875 25 33.203125 30.46875 
L 22.65625 30.46875 
Q 23.046875 35.15625 23.046875 40.234375 
L 23.046875 59.765625 
Q 18.359375 55.078125 10.9375 49.21875 
Q 8.203125 52.734375 5.078125 55.078125 
Q 14.453125 60.15625 20.890625 67.1875 
Q 27.34375 74.21875 30.859375 81.25 
Q 34.765625 78.90625 38.671875 77.734375 
Q 36.71875 76.171875 33.203125 71.875 
L 75.78125 71.875 
Q 80.46875 71.875 89.84375 72.265625 
L 89.84375 65.625 
Q 83.59375 66.015625 78.125 66.015625 
L 29.6875 66.015625 
Q 26.5625 62.890625 23.4375 60.15625 
L 81.640625 60.15625 
Q 81.25 54.6875 81.25 44.921875 
Q 81.25 35.546875 81.640625 30.46875 
L 41.796875 30.46875 
Q 40.234375 28.125 37.5 24.609375 
L 80.078125 24.609375 
Q 75.390625 17.1875 70.5 12.109375 
Q 65.625 7.03125 60.15625 3.125 
Q 66.40625 1.171875 75.578125 -0.390625 
Q 84.765625 -1.953125 95.703125 -2.34375 
Q 93.75 -5.078125 91.796875 -10.15625 
Q 75.390625 -7.8125 66.203125 -5.46875 
Q 57.03125 -3.125 52.734375 -1.171875 
Q 42.96875 -5.078125 33.78125 -7.03125 
Q 24.609375 -8.984375 11.328125 -10.546875 
Q 9.375 -5.46875 7.8125 -3.125 
Q 19.140625 -3.125 30.46875 -1.171875 
Q 41.796875 0.78125 46.09375 2.734375 
Q 37.890625 7.421875 30.078125 14.0625 
Q 33.984375 16.40625 35.546875 18.75 
z
M 74.21875 48.046875 
L 74.21875 54.296875 
L 30.078125 54.296875 
L 30.078125 48.046875 
z
M 74.21875 36.328125 
L 74.21875 42.1875 
L 30.078125 42.1875 
L 30.078125 36.328125 
z
M 36.328125 18.75 
Q 43.75 11.328125 53.515625 6.25 
Q 60.9375 10.546875 67.1875 18.75 
L 36.328125 18.75 
z
" id="SimHei-22797"/>
     <path d="M 91.40625 3.90625 
Q 90.625 -3.90625 86.328125 -5.859375 
Q 82.03125 -7.8125 73.046875 -8.984375 
Q 72.265625 -4.296875 69.53125 -0.390625 
Q 77.34375 -0.78125 80.46875 0.390625 
Q 83.59375 1.5625 83.984375 5.078125 
L 84.765625 58.59375 
L 57.421875 58.59375 
Q 53.90625 50.78125 49.609375 43.75 
Q 47.265625 45.703125 43.359375 47.265625 
Q 48.4375 54.296875 52.34375 64.640625 
Q 56.25 75 57.421875 81.25 
Q 62.109375 79.296875 65.625 78.125 
Q 63.671875 75 59.765625 65.234375 
L 92.578125 65.234375 
Q 92.1875 58.59375 92.1875 48.046875 
z
M 35.546875 18.75 
L 35.546875 68.359375 
L 15.234375 68.359375 
L 15.234375 16.40625 
L 7.8125 16.40625 
Q 8.203125 25.390625 8.203125 45.703125 
Q 8.203125 66.015625 7.8125 74.609375 
L 42.578125 74.609375 
Q 42.1875 66.015625 42.1875 46.875 
Q 42.1875 28.125 42.578125 18.75 
z
M 3.125 -3.515625 
Q 10.15625 1.5625 14.0625 8.203125 
Q 17.96875 14.84375 19.71875 22.65625 
Q 21.484375 30.46875 21.484375 40.234375 
Q 21.484375 50 21.09375 60.546875 
Q 25.390625 59.765625 29.6875 59.765625 
Q 28.515625 53.515625 28.515625 44.140625 
Q 28.515625 35.15625 27.34375 25.78125 
Q 26.171875 16.40625 22.0625 8 
Q 17.96875 -0.390625 9.375 -8.984375 
Q 5.859375 -5.078125 3.125 -3.515625 
z
M 73.828125 36.328125 
Q 78.125 23.046875 80.859375 14.0625 
Q 76.5625 12.5 73.4375 11.328125 
Q 72.65625 15.234375 71.875 17.96875 
Q 56.25 16.796875 50 13.671875 
Q 48.828125 17.578125 46.484375 21.875 
Q 49.609375 23.4375 52.921875 30.265625 
Q 56.25 37.109375 58.59375 49.609375 
Q 63.28125 47.265625 66.796875 46.484375 
Q 64.453125 42.1875 61.328125 34.953125 
Q 58.203125 27.734375 55.46875 22.65625 
Q 63.671875 23.4375 70.3125 23.828125 
Q 69.53125 27.34375 67.1875 34.375 
Q 69.140625 34.765625 73.828125 36.328125 
z
M 39.453125 -7.03125 
Q 35.546875 -0.390625 25.78125 9.375 
Q 28.90625 12.5 30.859375 14.84375 
Q 35.9375 10.9375 45.703125 -1.5625 
Q 42.578125 -3.515625 39.453125 -7.03125 
z
" id="SimHei-36141"/>
     <path d="M 51.953125 80.46875 
Q 53.515625 76.5625 55.46875 70.703125 
L 75 70.703125 
Q 82.03125 70.703125 90.625 71.09375 
L 90.625 64.453125 
Q 82.03125 65.234375 74.609375 65.234375 
L 43.75 65.234375 
Q 46.484375 63.28125 51.5625 60.9375 
Q 48.046875 58.59375 44.921875 55.265625 
Q 41.796875 51.953125 38.671875 48.828125 
L 51.171875 48.828125 
Q 55.859375 53.515625 58.984375 58.984375 
Q 62.5 56.25 66.796875 53.515625 
Q 61.71875 50.78125 56.25 44.921875 
Q 50.78125 39.0625 41.015625 31.25 
L 60.15625 32.8125 
Q 58.203125 35.15625 56.25 37.890625 
Q 58.59375 38.671875 62.5 41.40625 
Q 66.40625 36.71875 73.4375 26.5625 
Q 69.921875 25.390625 66.015625 22.65625 
Q 65.234375 25 62.890625 27.734375 
Q 57.8125 27.34375 53.515625 27.34375 
L 53.515625 16.40625 
L 80.46875 16.40625 
Q 88.671875 16.40625 95.3125 16.796875 
L 95.3125 10.15625 
Q 89.0625 10.546875 80.078125 10.546875 
L 53.515625 10.546875 
L 53.515625 2.734375 
Q 53.515625 -4.6875 53.90625 -9.765625 
L 45.3125 -9.765625 
Q 45.703125 -4.6875 45.703125 2.734375 
L 45.703125 10.546875 
L 20.703125 10.546875 
Q 12.890625 10.546875 5.078125 10.15625 
L 5.078125 16.796875 
Q 12.890625 16.40625 21.09375 16.40625 
L 45.703125 16.40625 
L 45.703125 26.5625 
Q 42.1875 26.171875 38.671875 25.578125 
Q 35.15625 25 31.640625 23.828125 
Q 30.46875 27.734375 28.90625 31.25 
Q 32.421875 31.640625 36.328125 34.375 
Q 40.234375 37.109375 46.484375 43.75 
Q 35.9375 42.578125 31.640625 41.015625 
Q 30.859375 44.921875 28.90625 49.609375 
Q 32.421875 49.609375 36.328125 54.484375 
Q 40.234375 59.375 42.96875 65.234375 
L 26.5625 65.234375 
Q 17.96875 65.234375 10.15625 64.453125 
L 10.15625 71.09375 
Q 17.96875 70.703125 24.21875 70.703125 
L 46.484375 70.703125 
Q 45.3125 75.390625 43.75 78.515625 
Q 47.265625 79.296875 51.953125 80.46875 
z
M 25.390625 40.234375 
Q 26.953125 37.5 28.515625 34.375 
Q 24.609375 32.03125 20.703125 29.09375 
Q 16.796875 26.171875 12.5 22.265625 
Q 9.765625 26.171875 7.421875 29.296875 
Q 12.5 31.640625 17.1875 34.5625 
Q 21.875 37.5 25.390625 40.234375 
z
M 75.78125 41.40625 
Q 80.078125 38.671875 83.390625 36.515625 
Q 86.71875 34.375 91.796875 30.46875 
Q 88.671875 28.125 85.9375 25 
Q 82.8125 27.734375 79.09375 30.859375 
Q 75.390625 33.984375 71.484375 36.328125 
Q 73.828125 38.671875 75.78125 41.40625 
z
M 89.453125 55.078125 
Q 86.71875 53.90625 82.8125 50.96875 
Q 78.90625 48.046875 75 44.140625 
Q 72.265625 47.65625 69.921875 49.609375 
Q 73.4375 51.953125 76.171875 54.484375 
Q 78.90625 57.03125 82.8125 61.328125 
Q 86.328125 57.8125 89.453125 55.078125 
z
M 16.40625 60.15625 
Q 22.265625 56.25 27.734375 51.171875 
Q 24.609375 48.4375 22.265625 45.703125 
Q 16.796875 51.5625 10.546875 55.078125 
Q 13.671875 57.8125 16.40625 60.15625 
z
" id="SimHei-29575"/>
    </defs>
    <g style="fill:#262626;" transform="translate(393.125 16.715625)scale(0.12 -0.12)">
     <use xlink:href="#SimHei-22797"/>
     <use x="100" xlink:href="#SimHei-36141"/>
     <use x="200" xlink:href="#SimHei-29575"/>
    </g>
   </g>
  </g>
 </g>
 <defs>
  <clipPath id="pada1191e4d">
   <rect height="197.672727" width="669.6" x="76.325" y="22.715625"/>
  </clipPath>
 </defs>
</svg>
