<?xml version="1.0" encoding="utf-8" standalone="no"?>
<!DOCTYPE svg PUBLIC "-//W3C//DTD SVG 1.1//EN"
  "http://www.w3.org/Graphics/SVG/1.1/DTD/svg11.dtd">
<!-- Created with matplotlib (https://matplotlib.org/) -->
<svg height="253.699375pt" version="1.1" viewBox="0 0 289.196081 253.699375" width="289.196081pt" xmlns="http://www.w3.org/2000/svg" xmlns:xlink="http://www.w3.org/1999/xlink">
 <defs>
  <style type="text/css">
*{stroke-linecap:butt;stroke-linejoin:round;}
  </style>
 </defs>
 <g id="figure_1">
  <g id="patch_1">
   <path d="M 0 253.699375 
L 289.196081 253.699375 
L 289.196081 0 
L 0 0 
z
" style="fill:#ffffff;"/>
  </g>
  <g id="axes_1">
   <g id="patch_2">
    <path d="M 232.51825 135.074259 
C 232.51825 119.43124 228.298051 104.074161 220.304176 90.627898 
C 212.310301 77.181635 200.834992 66.137757 187.092408 58.664777 
L 145.54225 135.074259 
L 232.51825 135.074259 
z
" style="fill:#4c0000;opacity:0.5;stroke:#4c0000;stroke-linejoin:miter;"/>
   </g>
   <g id="patch_3">
    <path d="M 179.616216 63.109413 
C 178.640383 62.578772 177.654475 62.066874 176.659034 61.573999 
C 175.663592 61.081125 174.6588 60.607365 173.645211 60.15298 
L 138.066057 139.518895 
L 179.616216 63.109413 
z
" style="fill:#002600;opacity:0.5;stroke:#002600;stroke-linejoin:miter;"/>
   </g>
   <g id="patch_4">
    <path d="M 173.645211 60.15298 
C 165.138494 56.339482 156.073721 53.918336 146.798433 52.98237 
C 137.523145 52.046403 128.157412 52.607732 119.060312 54.644834 
C 109.963213 56.681936 101.252511 60.168442 93.262172 64.97068 
C 85.271833 69.772917 78.105293 75.82872 72.037315 82.905913 
C 65.969337 89.983105 61.078472 97.99007 57.552234 106.619823 
C 54.025997 115.249577 51.910034 124.390406 51.285471 133.691853 
C 50.660908 142.993301 51.535831 152.334958 53.876694 161.358669 
C 56.217558 170.38238 59.994059 178.971331 65.06141 186.796226 
C 70.12876 194.62112 76.42136 201.580662 83.697955 207.408026 
C 90.97455 213.235389 99.140943 217.855138 107.884036 221.090153 
C 116.62713 224.325168 125.833743 226.133571 135.150898 226.446028 
C 144.468053 226.758485 153.775136 225.570951 162.715319 222.928957 
C 171.655502 220.286963 180.113051 216.224709 187.763708 210.89794 
C 195.414364 205.571172 202.159088 199.048845 207.73929 191.581024 
C 213.319491 184.113202 217.662933 175.796559 220.60309 166.949951 
C 223.543247 158.103342 225.042057 148.84129 225.042057 139.518897 
L 138.066057 139.518895 
L 173.645211 60.15298 
z
" style="fill:#283e46;opacity:0.5;stroke:#283e46;stroke-linejoin:miter;"/>
   </g>
   <g id="patch_5">
    <path d="M 234.25777 133.334739 
C 234.25777 117.69172 230.037571 102.334641 222.043696 88.888378 
C 214.049821 75.442115 202.574512 64.398237 188.831928 56.925257 
L 147.28177 133.334739 
L 234.25777 133.334739 
z
" style="fill:#ff0000;"/>
   </g>
   <g id="patch_6">
    <path d="M 181.355736 61.369893 
C 180.379903 60.839252 179.393995 60.327354 178.398554 59.834479 
C 177.403112 59.341605 176.39832 58.867845 175.384731 58.41346 
L 139.805577 137.779375 
L 181.355736 61.369893 
z
" style="fill:#008000;"/>
   </g>
   <g id="patch_7">
    <path d="M 175.384731 58.41346 
C 166.878014 54.599962 157.813241 52.178816 148.537953 51.24285 
C 139.262665 50.306883 129.896932 50.868212 120.799832 52.905314 
C 111.702733 54.942416 102.992031 58.428922 95.001692 63.23116 
C 87.011353 68.033397 79.844813 74.0892 73.776835 81.166393 
C 67.708857 88.243585 62.817992 96.25055 59.291754 104.880303 
C 55.765517 113.510057 53.649554 122.650886 53.024991 131.952333 
C 52.400428 141.253781 53.275351 150.595438 55.616214 159.619149 
C 57.957078 168.64286 61.733579 177.231811 66.80093 185.056706 
C 71.86828 192.8816 78.16088 199.841142 85.437475 205.668506 
C 92.71407 211.495869 100.880463 216.115618 109.623556 219.350633 
C 118.36665 222.585648 127.573263 224.394051 136.890418 224.706508 
C 146.207573 225.018965 155.514656 223.831431 164.454839 221.189437 
C 173.395022 218.547443 181.852571 214.485189 189.503228 209.15842 
C 197.153884 203.831652 203.898608 197.309325 209.47881 189.841504 
C 215.059011 182.373682 219.402453 174.057039 222.34261 165.210431 
C 225.282767 156.363822 226.781577 147.10177 226.781577 137.779377 
L 139.805577 137.779375 
L 175.384731 58.41346 
z
" style="fill:#87ceeb;"/>
   </g>
   <g id="matplotlib.axis_1"/>
   <g id="matplotlib.axis_2"/>
   <g id="text_1">
    <!-- 已完成-14 -->
    <defs>
     <path d="M 82.421875 73.828125 
Q 82.03125 66.796875 82.03125 60.15625 
L 82.03125 45.703125 
Q 82.03125 37.5 82.421875 29.6875 
L 73.828125 29.6875 
L 73.828125 35.546875 
L 22.265625 35.546875 
L 22.265625 9.375 
Q 21.484375 0 32.03125 0.390625 
L 70.703125 0.390625 
Q 77.34375 0 79.875 2.34375 
Q 82.421875 4.6875 83.59375 15.625 
Q 87.890625 12.890625 93.359375 11.328125 
Q 91.015625 0.78125 88.078125 -2.921875 
Q 85.15625 -6.640625 79.6875 -7.03125 
L 27.34375 -7.03125 
Q 13.28125 -7.421875 14.0625 5.078125 
L 14.0625 38.671875 
Q 14.0625 42.578125 13.671875 53.125 
L 23.046875 53.125 
Q 22.65625 47.65625 22.65625 42.1875 
L 73.828125 42.1875 
L 73.828125 66.796875 
L 30.46875 66.796875 
Q 21.484375 66.796875 10.15625 66.40625 
L 10.15625 74.21875 
Q 21.484375 73.828125 30.078125 73.828125 
z
" id="SimHei-24050"/>
     <path d="M 80.078125 35.15625 
Q 87.5 35.15625 94.140625 35.546875 
L 94.140625 28.125 
Q 87.5 28.515625 80.078125 28.515625 
L 63.28125 28.515625 
L 63.28125 3.90625 
Q 63.28125 0.390625 66.203125 0.1875 
Q 69.140625 0 74.21875 0 
Q 79.6875 0 81.828125 1.171875 
Q 83.984375 2.34375 84.765625 10.546875 
Q 90.234375 7.421875 94.53125 6.640625 
Q 92.1875 -1.171875 89.25 -3.90625 
Q 86.328125 -6.640625 82.8125 -7.03125 
L 63.28125 -7.03125 
Q 55.078125 -6.640625 55.078125 0.390625 
L 55.078125 28.515625 
L 41.015625 28.515625 
Q 40.625 19.140625 37.5 11.328125 
Q 34.375 3.515625 26.5625 -2.34375 
Q 18.75 -8.203125 10.9375 -10.9375 
Q 7.8125 -7.03125 3.90625 -3.90625 
Q 14.453125 -0.78125 20.3125 3.3125 
Q 26.171875 7.421875 28.703125 12.5 
Q 31.25 17.578125 32.421875 28.515625 
L 20.3125 28.515625 
Q 11.71875 28.515625 5.46875 28.125 
L 5.46875 35.546875 
Q 12.109375 35.15625 20.3125 35.15625 
z
M 40.625 78.125 
Q 43.359375 79.6875 47.65625 82.421875 
Q 52.734375 75.78125 55.46875 70.3125 
L 92.1875 70.3125 
Q 91.40625 64.84375 91.40625 60.15625 
Q 91.40625 55.859375 92.1875 51.5625 
L 83.59375 51.5625 
L 83.59375 63.671875 
L 16.015625 63.671875 
L 16.015625 51.5625 
L 7.03125 51.5625 
Q 7.421875 56.640625 7.421875 61.328125 
Q 7.421875 66.015625 7.03125 70.3125 
L 45.703125 70.3125 
Q 44.140625 73.046875 40.625 78.125 
z
M 60.9375 52.734375 
Q 68.359375 52.734375 75 53.125 
L 75 45.3125 
Q 68.359375 45.703125 60.9375 45.703125 
L 36.71875 45.703125 
Q 29.296875 45.703125 22.265625 45.3125 
L 22.265625 53.125 
Q 29.296875 52.734375 36.71875 52.734375 
z
" id="SimHei-23436"/>
     <path d="M 54.6875 62.5 
Q 54.296875 73.828125 53.90625 81.640625 
Q 58.59375 81.25 62.890625 80.859375 
Q 62.109375 75.78125 62.5 62.5 
L 73.828125 62.5 
Q 82.03125 62.5 91.796875 62.890625 
L 91.796875 55.46875 
Q 81.640625 55.859375 73.828125 55.859375 
L 62.890625 55.859375 
Q 63.28125 41.015625 67.96875 23.4375 
Q 75.390625 34.765625 79.6875 49.609375 
Q 83.59375 46.484375 88.671875 44.140625 
Q 85.546875 40.625 81.640625 32.421875 
Q 77.734375 24.21875 71.484375 15.234375 
Q 75 8.203125 79.09375 4.09375 
Q 83.203125 0 84.765625 0.578125 
Q 86.328125 1.171875 87.890625 14.0625 
Q 91.796875 10.9375 96.09375 9.375 
Q 93.359375 -6.640625 90.03125 -8.390625 
Q 86.71875 -10.15625 82.03125 -8.390625 
Q 77.34375 -6.640625 73.234375 -1.75 
Q 69.140625 3.125 66.40625 8.984375 
Q 57.03125 -1.171875 42.578125 -10.15625 
Q 40.625 -6.640625 36.71875 -3.90625 
Q 44.53125 -0.390625 51.75 5.46875 
Q 58.984375 11.328125 62.5 16.40625 
Q 59.765625 23.828125 57.8125 34.5625 
Q 55.859375 45.3125 55.46875 55.859375 
L 21.875 55.859375 
L 21.875 42.1875 
L 47.265625 42.1875 
Q 46.484375 35.15625 46.09375 27.734375 
L 44.921875 12.109375 
Q 44.53125 4.6875 40.8125 3.125 
Q 37.109375 1.5625 28.125 0.78125 
Q 27.734375 4.296875 25 9.375 
Q 34.765625 8.984375 36.328125 10.546875 
Q 37.890625 12.109375 38.28125 19.53125 
L 39.0625 35.15625 
L 21.875 35.15625 
Q 21.875 19.921875 19.53125 9.765625 
Q 17.1875 -0.390625 10.9375 -8.984375 
Q 6.640625 -5.859375 3.125 -4.6875 
Q 8.203125 1.5625 10.15625 7.21875 
Q 12.109375 12.890625 13.078125 19.53125 
Q 14.0625 26.171875 14.25 38.28125 
Q 14.453125 50.390625 14.0625 62.5 
L 54.6875 62.5 
z
M 74.21875 81.640625 
Q 82.03125 75.390625 87.890625 69.140625 
Q 84.375 66.40625 81.640625 63.671875 
Q 76.953125 69.921875 69.140625 76.5625 
Q 71.875 78.90625 74.21875 81.640625 
z
" id="SimHei-25104"/>
     <path d="M 46.484375 33.203125 
L 1.953125 33.203125 
L 1.953125 39.453125 
L 46.484375 39.453125 
z
" id="SimHei-45"/>
     <path d="M 21.875 56.25 
Q 16.796875 51.171875 8.984375 46.484375 
L 8.984375 53.90625 
Q 18.75 60.546875 25 69.53125 
L 29.6875 69.53125 
L 29.6875 2.34375 
L 21.875 2.34375 
z
" id="SimHei-49"/>
     <path d="M 31.25 17.1875 
L 1.171875 17.1875 
L 1.171875 23.828125 
L 32.8125 69.53125 
L 38.671875 69.53125 
L 38.671875 23.828125 
L 48.046875 23.828125 
L 48.046875 17.1875 
L 38.671875 17.1875 
L 38.671875 2.34375 
L 31.25 2.34375 
z
M 31.25 23.828125 
L 31.25 54.6875 
L 9.375 23.828125 
z
" id="SimHei-52"/>
    </defs>
    <g transform="translate(236.996081 83.417075)scale(0.1 -0.1)">
     <use xlink:href="#SimHei-24050"/>
     <use x="100" xlink:href="#SimHei-23436"/>
     <use x="200" xlink:href="#SimHei-25104"/>
     <use x="300" xlink:href="#SimHei-45"/>
     <use x="350" xlink:href="#SimHei-49"/>
     <use x="400" xlink:href="#SimHei-52"/>
    </g>
   </g>
   <g id="text_2">
    <!-- 17.07% -->
    <defs>
     <path d="M 13.28125 2.34375 
Q 20.3125 32.03125 37.890625 61.328125 
L 4.296875 61.328125 
L 4.296875 68.359375 
L 46.09375 68.359375 
L 46.09375 61.71875 
Q 27.734375 32.03125 21.875 2.34375 
L 13.28125 2.34375 
z
" id="SimHei-55"/>
     <path d="M 16.796875 1.953125 
L 7.8125 1.953125 
L 7.8125 10.546875 
L 16.796875 10.546875 
z
" id="SimHei-46"/>
     <path d="M 3.125 29.296875 
Q 3.90625 50 6.4375 56.046875 
Q 8.984375 62.109375 13.671875 66.015625 
Q 18.359375 69.921875 25.1875 69.921875 
Q 32.03125 69.921875 37.109375 64.25 
Q 42.1875 58.59375 43.75 50 
Q 45.3125 41.40625 44.71875 30.265625 
Q 44.140625 19.140625 40.8125 12.109375 
Q 37.5 5.078125 30.859375 2.34375 
Q 24.21875 -0.390625 17.578125 2.921875 
Q 10.9375 6.25 8.203125 11.71875 
Q 5.46875 17.1875 4.296875 23.234375 
Q 3.125 29.296875 3.90625 50 
z
M 12.890625 52.734375 
Q 10.546875 31.25 12.5 22.84375 
Q 14.453125 14.453125 18.9375 10.9375 
Q 23.4375 7.421875 28.125 9.5625 
Q 32.8125 11.71875 34.953125 18.15625 
Q 37.109375 24.609375 37.109375 32.21875 
Q 37.109375 39.84375 36.515625 46.09375 
Q 35.9375 52.34375 33 57.421875 
Q 30.078125 62.5 25.1875 62.6875 
Q 20.3125 62.890625 16.59375 57.8125 
Q 12.890625 52.734375 10.546875 31.25 
z
" id="SimHei-48"/>
     <path d="M 21.875 51.953125 
Q 21.875 40.625 18.546875 37.5 
Q 15.234375 34.375 12.109375 34.375 
Q 8.984375 34.375 5.65625 37.5 
Q 2.34375 40.625 2.34375 51.953125 
Q 2.34375 63.28125 5.65625 66.40625 
Q 8.984375 69.53125 12.109375 69.53125 
Q 15.234375 69.53125 18.546875 66.40625 
Q 21.875 63.28125 21.875 51.953125 
z
M 41.015625 68.359375 
L 10.9375 1.171875 
L 7.8125 2.34375 
L 37.890625 69.53125 
z
M 46.484375 18.75 
Q 46.484375 7.421875 43.15625 4.296875 
Q 39.84375 1.171875 36.71875 1.171875 
Q 33.59375 1.171875 30.265625 4.296875 
Q 26.953125 7.421875 26.953125 18.75 
Q 26.953125 30.078125 30.265625 33.203125 
Q 33.59375 36.328125 36.71875 36.328125 
Q 39.84375 36.328125 43.15625 33.203125 
Q 46.484375 30.078125 46.484375 18.75 
z
M 15.625 51.953125 
Q 15.625 58.984375 14.84375 61.328125 
Q 14.0625 63.671875 12.109375 63.671875 
Q 10.15625 63.671875 9.375 61.328125 
Q 8.59375 58.984375 8.59375 51.953125 
Q 8.59375 44.921875 9.375 42.578125 
Q 10.15625 40.234375 12.109375 40.234375 
Q 14.0625 40.234375 14.84375 42.578125 
Q 15.625 44.921875 15.625 51.953125 
z
M 40.234375 18.75 
Q 40.234375 25.78125 39.453125 28.125 
Q 38.671875 30.46875 36.71875 30.46875 
Q 34.765625 30.46875 33.984375 28.125 
Q 33.203125 25.78125 33.203125 18.75 
Q 33.203125 11.71875 33.984375 9.375 
Q 34.765625 7.03125 36.71875 7.03125 
Q 38.671875 7.03125 39.453125 9.375 
Q 40.234375 11.71875 40.234375 18.75 
z
" id="SimHei-37"/>
    </defs>
    <g transform="translate(177.138926 109.479422)scale(0.1 -0.1)">
     <use xlink:href="#SimHei-49"/>
     <use x="50" xlink:href="#SimHei-55"/>
     <use x="100" xlink:href="#SimHei-46"/>
     <use x="150" xlink:href="#SimHei-48"/>
     <use x="200" xlink:href="#SimHei-55"/>
     <use x="250" xlink:href="#SimHei-37"/>
    </g>
   </g>
   <g id="text_3">
    <!-- 已退款-1 -->
    <defs>
     <path d="M 85.15625 80.078125 
Q 84.765625 72.65625 84.765625 60.9375 
Q 84.765625 49.609375 85.15625 41.796875 
L 45.3125 41.796875 
L 45.3125 15.234375 
Q 53.125 19.53125 58.59375 22.265625 
Q 59.375 18.75 60.9375 14.453125 
Q 54.6875 12.109375 39.0625 3.515625 
L 33.984375 10.9375 
Q 37.5 13.671875 37.5 18.75 
L 37.5 65.234375 
Q 37.5 72.65625 37.109375 80.078125 
L 85.15625 80.078125 
z
M 24.609375 46.484375 
Q 23.828125 39.453125 23.828125 33.984375 
L 23.828125 9.375 
Q 36.328125 -0.390625 59.953125 -0.1875 
Q 83.59375 0 96.09375 3.125 
Q 94.140625 -1.5625 93.75 -6.640625 
Q 79.6875 -7.8125 69.53125 -8.203125 
Q 59.375 -8.59375 46.671875 -6.828125 
Q 33.984375 -5.078125 27.921875 -1.5625 
Q 21.875 1.953125 17.96875 -0.96875 
Q 14.0625 -3.90625 9.375 -9.375 
Q 6.640625 -5.078125 3.515625 -2.34375 
Q 10.546875 3.90625 16.40625 7.421875 
L 16.40625 39.0625 
Q 11.328125 39.0625 5.46875 38.671875 
L 5.46875 46.875 
Q 11.71875 46.484375 16.796875 46.484375 
z
M 90.625 34.765625 
Q 79.6875 27.734375 76.171875 23.828125 
Q 88.671875 14.84375 92.1875 12.109375 
Q 87.890625 9.375 85.546875 5.46875 
Q 78.125 12.109375 68.546875 19.328125 
Q 58.984375 26.5625 50.78125 32.421875 
Q 53.515625 34.765625 56.640625 37.5 
Q 67.1875 30.46875 70.703125 27.34375 
Q 76.171875 32.03125 82.03125 39.84375 
Q 85.546875 37.109375 90.625 34.765625 
z
M 77.34375 64.453125 
L 77.34375 73.4375 
L 45.3125 73.4375 
L 45.3125 64.453125 
z
M 77.34375 48.828125 
L 77.34375 57.8125 
L 45.3125 57.8125 
L 45.3125 48.828125 
z
M 19.921875 80.078125 
Q 25 67.1875 26.953125 60.9375 
Q 22.265625 60.546875 18.359375 58.203125 
Q 17.1875 64.84375 11.71875 78.125 
Q 15.625 78.90625 19.921875 80.078125 
z
" id="SimHei-36864"/>
     <path d="M 76.5625 42.1875 
Q 75.78125 39.0625 75.1875 34.953125 
Q 74.609375 30.859375 76.953125 22.84375 
Q 79.296875 14.84375 85.15625 8 
Q 91.015625 1.171875 96.875 -1.5625 
Q 92.1875 -5.46875 90.625 -8.203125 
Q 82.421875 -1.171875 78.515625 4.6875 
Q 74.609375 10.546875 72.265625 17.578125 
Q 69.921875 10.15625 66.015625 3.90625 
Q 62.109375 -2.34375 53.515625 -9.765625 
Q 50.390625 -4.6875 48.4375 -3.125 
Q 53.125 0 56.828125 4.296875 
Q 60.546875 8.59375 62.890625 13.46875 
Q 65.234375 18.359375 66.203125 23.234375 
Q 67.1875 28.125 67.375 33 
Q 67.578125 37.890625 67.578125 43.75 
Q 73.046875 42.578125 76.5625 42.1875 
z
M 27.734375 70.3125 
Q 27.734375 75.78125 27.34375 80.859375 
L 35.15625 80.859375 
Q 34.765625 76.171875 34.765625 70.3125 
L 41.40625 70.3125 
Q 47.65625 70.3125 54.6875 70.703125 
L 54.6875 63.671875 
Q 47.65625 64.453125 41.40625 64.453125 
L 34.765625 64.453125 
L 34.765625 55.859375 
L 38.671875 55.859375 
Q 43.75 55.859375 50.78125 56.25 
L 50.78125 49.609375 
Q 43.75 50 38.671875 50 
L 22.65625 50 
Q 17.578125 50 9.765625 49.21875 
L 9.765625 56.25 
Q 17.1875 55.859375 22.65625 55.859375 
L 27.734375 55.859375 
L 27.734375 64.453125 
L 19.53125 64.453125 
Q 14.453125 64.453125 7.03125 63.671875 
L 7.03125 70.703125 
Q 14.453125 70.3125 19.140625 70.3125 
z
M 66.40625 55.078125 
Q 63.28125 47.65625 58.59375 40.625 
Q 54.6875 43.359375 51.5625 44.53125 
Q 56.25 50.390625 58.78125 56.640625 
Q 61.328125 62.890625 63.078125 68.546875 
Q 64.84375 74.21875 65.625 79.296875 
Q 69.921875 77.34375 74.21875 76.5625 
Q 71.09375 70.3125 68.359375 61.328125 
L 96.09375 61.328125 
Q 94.53125 55.46875 93.15625 50.96875 
Q 91.796875 46.484375 90.625 42.1875 
L 82.8125 42.96875 
Q 85.15625 49.21875 86.71875 55.078125 
z
M 41.40625 28.515625 
Q 47.65625 28.515625 53.515625 28.90625 
L 53.515625 21.875 
Q 47.65625 22.65625 41.40625 22.65625 
L 34.765625 22.65625 
L 34.765625 1.5625 
Q 34.765625 -4.296875 31.828125 -5.859375 
Q 28.90625 -7.421875 21.484375 -8.984375 
Q 20.703125 -4.6875 17.578125 -0.390625 
Q 25.390625 -0.78125 26.359375 0.390625 
Q 27.34375 1.5625 27.34375 3.515625 
L 27.34375 22.65625 
L 18.359375 22.65625 
Q 12.890625 22.65625 6.25 21.875 
L 6.25 28.90625 
Q 13.28125 28.515625 18.75 28.515625 
z
M 38.28125 42.1875 
Q 43.359375 42.1875 50 42.578125 
L 50 35.546875 
Q 43.75 36.328125 38.28125 36.328125 
L 21.875 36.328125 
Q 16.40625 36.328125 10.15625 35.546875 
L 10.15625 42.578125 
Q 16.40625 42.1875 21.875 42.1875 
z
M 21.875 15.234375 
Q 19.921875 12.109375 17.1875 7.421875 
Q 14.453125 2.734375 10.546875 -2.34375 
Q 8.59375 0.390625 4.296875 2.34375 
Q 7.03125 5.46875 9.765625 9.765625 
Q 12.5 14.0625 14.453125 19.140625 
Q 18.359375 17.1875 21.875 15.234375 
z
M 45.3125 18.359375 
Q 46.875 15.625 48.828125 12.5 
Q 50.78125 9.375 53.125 5.078125 
Q 49.609375 3.125 46.484375 0.78125 
L 42.96875 7.8125 
Q 41.40625 10.9375 38.671875 14.453125 
Q 41.40625 16.015625 45.3125 18.359375 
z
" id="SimHei-27454"/>
    </defs>
    <g transform="translate(186.117149 47.52675)scale(0.1 -0.1)">
     <use xlink:href="#SimHei-24050"/>
     <use x="100" xlink:href="#SimHei-36864"/>
     <use x="200" xlink:href="#SimHei-27454"/>
     <use x="300" xlink:href="#SimHei-45"/>
     <use x="350" xlink:href="#SimHei-49"/>
    </g>
   </g>
   <g id="text_4">
    <!-- 1.22% -->
    <defs>
     <path d="M 4.6875 3.90625 
Q 5.078125 9.765625 10.15625 14.453125 
Q 15.234375 19.140625 23.046875 29.09375 
Q 30.859375 39.0625 33.203125 44.53125 
Q 35.546875 50 34.953125 53.90625 
Q 34.375 57.8125 31.25 60.34375 
Q 28.125 62.890625 24.015625 62.5 
Q 19.921875 62.109375 16.203125 59.375 
Q 12.5 56.640625 10.546875 51.171875 
L 3.125 52.34375 
Q 6.25 61.328125 11.125 65.421875 
Q 16.015625 69.53125 22.65625 69.921875 
Q 26.5625 70.3125 29.6875 69.71875 
Q 32.8125 69.140625 36.125 66.984375 
Q 39.453125 64.84375 41.59375 60.546875 
Q 43.75 56.25 43.15625 50.1875 
Q 42.578125 44.140625 37.109375 35.734375 
Q 31.640625 27.34375 16.015625 9.375 
L 44.140625 9.375 
L 44.140625 2.34375 
L 4.6875 2.34375 
z
" id="SimHei-50"/>
    </defs>
    <g transform="translate(150.461363 93.824938)scale(0.1 -0.1)">
     <use xlink:href="#SimHei-49"/>
     <use x="50" xlink:href="#SimHei-46"/>
     <use x="100" xlink:href="#SimHei-50"/>
     <use x="150" xlink:href="#SimHei-50"/>
     <use x="200" xlink:href="#SimHei-37"/>
    </g>
   </g>
   <g id="text_5">
    <!-- 待服务-67 -->
    <defs>
     <path d="M 58.203125 47.65625 
L 58.203125 60.546875 
Q 48.4375 60.546875 39.0625 60.15625 
L 39.0625 67.1875 
Q 47.265625 66.796875 58.203125 66.796875 
Q 58.203125 76.953125 57.8125 81.640625 
L 66.015625 81.640625 
Q 65.625 76.5625 65.625 66.796875 
L 74.21875 66.796875 
Q 82.03125 67.1875 86.328125 67.578125 
L 86.328125 60.15625 
Q 82.421875 60.546875 74.21875 60.546875 
L 65.625 60.546875 
L 65.625 47.65625 
L 82.8125 47.65625 
Q 90.625 47.65625 94.921875 48.046875 
L 94.921875 41.015625 
Q 86.71875 41.40625 79.6875 41.40625 
L 79.6875 30.46875 
Q 87.890625 30.46875 93.75 30.859375 
L 93.75 23.4375 
Q 87.890625 23.828125 79.6875 23.828125 
L 79.6875 3.515625 
Q 79.6875 -3.515625 76.359375 -5.078125 
Q 73.046875 -6.640625 64.0625 -8.59375 
Q 63.28125 -3.90625 60.546875 0.78125 
Q 67.1875 0.390625 69.71875 1.171875 
Q 72.265625 1.953125 72.265625 6.25 
L 72.265625 23.828125 
L 48.4375 23.828125 
Q 42.578125 23.828125 34.375 23.4375 
L 34.375 30.859375 
Q 42.578125 30.46875 48.4375 30.46875 
L 72.265625 30.46875 
L 72.265625 41.40625 
L 51.171875 41.40625 
Q 43.359375 41.40625 35.15625 40.625 
L 35.15625 48.046875 
Q 43.359375 47.65625 51.171875 47.65625 
z
M 36.71875 53.515625 
Q 31.25 48.046875 26.953125 41.015625 
L 26.953125 7.03125 
Q 26.953125 0 27.34375 -9.375 
L 19.140625 -9.375 
Q 19.53125 0 19.53125 6.640625 
L 19.53125 32.421875 
Q 14.84375 27.34375 9.375 20.703125 
Q 6.640625 23.828125 3.90625 26.5625 
Q 10.9375 32.03125 18.546875 41.984375 
Q 26.171875 51.953125 29.6875 59.375 
Q 32.421875 56.640625 36.71875 53.515625 
z
M 35.15625 76.5625 
Q 32.03125 74.21875 26.5625 67.1875 
Q 21.09375 60.15625 11.328125 50.390625 
Q 9.375 53.125 5.859375 55.859375 
Q 22.265625 71.09375 27.34375 81.640625 
Q 30.859375 78.90625 35.15625 76.5625 
z
M 48.828125 21.484375 
Q 54.6875 13.671875 58.59375 8.203125 
Q 55.078125 6.25 51.171875 3.125 
Q 46.875 10.9375 41.796875 16.40625 
Q 45.703125 18.75 48.828125 21.484375 
z
" id="SimHei-24453"/>
     <path d="M 57.8125 -8.984375 
L 50.390625 -8.984375 
Q 50.78125 0.390625 50.78125 8.59375 
L 50.78125 62.890625 
Q 50.78125 69.53125 50.390625 77.34375 
L 86.71875 77.34375 
Q 86.328125 71.875 85.9375 65.421875 
Q 85.546875 58.984375 84.765625 55.65625 
Q 83.984375 52.34375 80.078125 50.78125 
Q 76.171875 49.21875 69.921875 48.4375 
Q 68.75 53.125 66.40625 56.25 
Q 76.171875 56.25 77.34375 58.390625 
Q 78.515625 60.546875 78.515625 70.703125 
L 57.8125 70.703125 
L 57.8125 44.53125 
L 90.234375 44.53125 
Q 88.671875 34.375 86.328125 26.359375 
Q 83.984375 18.359375 80.078125 10.546875 
Q 86.71875 2.734375 95.3125 -1.171875 
Q 92.578125 -3.515625 89.84375 -7.8125 
Q 82.421875 -2.734375 75.78125 4.6875 
Q 71.09375 -1.953125 62.890625 -9.375 
Q 60.9375 -5.859375 58.59375 -3.125 
Q 64.0625 0.78125 70.703125 10.15625 
Q 65.625 16.796875 60.546875 37.890625 
L 57.8125 37.890625 
z
M 41.796875 76.953125 
Q 41.40625 73.828125 41.40625 62.5 
L 41.40625 4.6875 
Q 41.40625 -3.515625 37.890625 -5.265625 
Q 34.375 -7.03125 28.125 -8.59375 
Q 26.5625 -2.734375 24.21875 0.78125 
Q 29.6875 0.78125 32.03125 1.171875 
Q 34.375 1.5625 34.375 7.03125 
L 34.375 26.5625 
L 19.140625 26.5625 
Q 18.359375 16.796875 16.40625 8.59375 
Q 14.453125 0.390625 10.9375 -7.421875 
Q 7.8125 -4.6875 3.515625 -2.734375 
Q 8.203125 5.859375 9.953125 13.46875 
Q 11.71875 21.09375 12.296875 28.90625 
Q 12.890625 36.71875 12.890625 53.515625 
Q 12.890625 70.3125 12.5 76.953125 
L 41.796875 76.953125 
z
M 34.375 33.203125 
L 34.375 48.828125 
L 19.921875 48.828125 
L 19.53125 33.203125 
z
M 34.375 55.46875 
L 34.375 70.3125 
L 19.921875 70.3125 
L 19.921875 55.46875 
z
M 67.578125 37.890625 
Q 70.703125 23.046875 75 16.40625 
Q 79.6875 25.390625 81.640625 37.890625 
L 67.578125 37.890625 
z
" id="SimHei-26381"/>
     <path d="M 44.53125 77.34375 
Q 41.40625 74.609375 39.0625 71.09375 
L 82.421875 71.09375 
Q 78.90625 65.234375 73.234375 58.59375 
Q 67.578125 51.953125 58.984375 46.09375 
Q 64.453125 42.578125 73.828125 40.8125 
Q 83.203125 39.0625 96.09375 38.671875 
Q 92.96875 35.15625 91.796875 30.46875 
Q 80.859375 31.25 70.3125 34.375 
Q 59.765625 37.5 52.734375 41.796875 
Q 40.234375 35.9375 30.078125 33.203125 
Q 19.921875 30.46875 10.15625 28.90625 
Q 8.59375 33.59375 5.46875 37.109375 
Q 14.0625 37.109375 25 39.453125 
Q 35.9375 41.796875 46.484375 46.09375 
Q 38.28125 53.90625 32.421875 62.109375 
Q 25.78125 53.90625 18.75 48.4375 
Q 16.015625 51.5625 11.71875 53.125 
Q 22.65625 60.9375 27.734375 68.15625 
Q 32.8125 75.390625 35.15625 81.640625 
Q 40.234375 78.90625 44.53125 77.34375 
z
M 43.75 25.78125 
Q 44.53125 30.46875 44.53125 36.71875 
Q 49.21875 35.9375 53.90625 35.546875 
Q 52.734375 33.203125 51.5625 25.78125 
L 83.203125 25.78125 
Q 82.8125 21.09375 82.421875 15.03125 
Q 82.03125 8.984375 81.046875 1.953125 
Q 80.078125 -5.078125 75.390625 -6.25 
Q 70.703125 -7.421875 60.546875 -8.59375 
Q 59.765625 -3.515625 56.640625 0 
Q 67.96875 0 70.3125 0.78125 
Q 72.65625 1.5625 73.4375 5.078125 
L 74.609375 19.921875 
L 50.78125 19.921875 
Q 45.3125 3.125 35.34375 -1.953125 
Q 25.390625 -7.03125 14.0625 -10.9375 
Q 12.890625 -7.421875 8.59375 -2.734375 
Q 17.96875 -1.953125 28.125 3.125 
Q 38.28125 8.203125 42.578125 19.921875 
L 33.59375 19.921875 
Q 21.875 19.921875 16.40625 19.140625 
L 16.40625 26.171875 
Q 22.265625 25.78125 33.984375 25.78125 
z
M 53.125 50.390625 
Q 60.9375 55.078125 68.359375 65.234375 
L 39.0625 65.234375 
Q 46.484375 55.46875 53.125 50.390625 
z
" id="SimHei-21153"/>
     <path d="M 3.515625 19.53125 
Q 4.296875 30.859375 6.046875 34.765625 
Q 7.8125 38.671875 11.328125 44.53125 
L 27.34375 69.53125 
L 36.328125 69.53125 
L 19.921875 43.75 
Q 30.46875 46.484375 36.71875 42.96875 
Q 42.96875 39.453125 45.109375 34.953125 
Q 47.265625 30.46875 47.453125 25.1875 
Q 47.65625 19.921875 45.890625 14.84375 
Q 44.140625 9.765625 39.640625 5.65625 
Q 35.15625 1.5625 27.140625 1.171875 
Q 19.140625 0.78125 13.46875 4.09375 
Q 7.8125 7.421875 5.65625 13.46875 
Q 3.515625 19.53125 4.296875 30.859375 
z
M 12.5 16.015625 
Q 19.53125 8.59375 25.390625 8.203125 
Q 31.25 7.8125 35.15625 12.109375 
Q 39.0625 16.40625 39.0625 24.609375 
Q 39.0625 32.8125 34.171875 35.9375 
Q 29.296875 39.0625 23.234375 38.28125 
Q 17.1875 37.5 14.453125 32.421875 
Q 11.71875 27.34375 12.109375 21.671875 
Q 12.5 16.015625 19.53125 8.59375 
z
" id="SimHei-54"/>
    </defs>
    <g transform="translate(7.2 197.891078)scale(0.1 -0.1)">
     <use xlink:href="#SimHei-24453"/>
     <use x="100" xlink:href="#SimHei-26381"/>
     <use x="200" xlink:href="#SimHei-21153"/>
     <use x="300" xlink:href="#SimHei-45"/>
     <use x="350" xlink:href="#SimHei-54"/>
     <use x="400" xlink:href="#SimHei-55"/>
    </g>
   </g>
   <g id="text_6">
    <!-- 81.71% -->
    <defs>
     <path d="M 2.734375 16.796875 
Q 2.734375 26.171875 5.078125 30.65625 
Q 7.421875 35.15625 12.890625 37.890625 
Q 8.203125 40.625 6.640625 43.9375 
Q 5.078125 47.265625 4.875 51.5625 
Q 4.6875 55.859375 6.046875 58.984375 
Q 7.421875 62.109375 10.15625 64.84375 
Q 12.890625 67.578125 16.203125 68.546875 
Q 19.53125 69.53125 23.4375 69.53125 
Q 27.34375 69.53125 30.46875 68.75 
Q 33.59375 67.96875 37.109375 65.421875 
Q 40.625 62.890625 42.1875 58.203125 
Q 43.75 53.515625 41.984375 47.265625 
Q 40.234375 41.015625 32.8125 37.5 
Q 39.453125 35.546875 42.1875 31.4375 
Q 44.921875 27.34375 44.921875 21.484375 
Q 44.921875 15.625 43.15625 12.109375 
Q 41.40625 8.59375 39.25 6.25 
Q 37.109375 3.90625 33.390625 2.53125 
Q 29.6875 1.171875 24.015625 1.171875 
Q 18.359375 1.171875 14.25 2.53125 
Q 10.15625 3.90625 7.421875 6.640625 
Q 4.6875 9.375 3.703125 13.078125 
Q 2.734375 16.796875 2.734375 26.171875 
z
M 10.9375 26.5625 
Q 10.546875 17.1875 12.296875 13.671875 
Q 14.0625 10.15625 18.75 9.171875 
Q 23.4375 8.203125 28.515625 9.375 
Q 33.59375 10.546875 35.546875 14.84375 
Q 37.5 19.140625 36.90625 23.4375 
Q 36.328125 27.734375 32.03125 30.65625 
Q 27.734375 33.59375 22.65625 33.203125 
Q 17.578125 32.8125 14.25 29.6875 
Q 10.9375 26.5625 10.546875 17.1875 
z
M 12.109375 56.25 
Q 12.109375 48.4375 14.84375 44.921875 
Q 17.578125 41.40625 23.4375 41.40625 
Q 29.296875 41.40625 32.21875 44.921875 
Q 35.15625 48.4375 34.953125 53.3125 
Q 34.765625 58.203125 31.4375 60.546875 
Q 28.125 62.890625 22.453125 62.5 
Q 16.796875 62.109375 14.453125 59.171875 
Q 12.109375 56.25 12.109375 48.4375 
z
" id="SimHei-56"/>
    </defs>
    <g transform="translate(81.002789 168.958273)scale(0.1 -0.1)">
     <use xlink:href="#SimHei-56"/>
     <use x="50" xlink:href="#SimHei-49"/>
     <use x="100" xlink:href="#SimHei-46"/>
     <use x="150" xlink:href="#SimHei-55"/>
     <use x="200" xlink:href="#SimHei-49"/>
     <use x="250" xlink:href="#SimHei-37"/>
    </g>
   </g>
   <g id="text_7">
    <!-- 订单状态 -->
    <defs>
     <path d="M 82.03125 74.21875 
Q 86.328125 74.21875 95.703125 74.609375 
L 95.703125 67.1875 
Q 87.109375 67.578125 74.609375 67.578125 
L 74.609375 1.5625 
Q 74.609375 -5.46875 68.546875 -7.21875 
Q 62.5 -8.984375 56.25 -9.375 
Q 55.859375 -4.296875 53.125 1.171875 
Q 59.765625 0.390625 63.28125 0.78125 
Q 66.796875 1.171875 67.1875 4.6875 
L 67.1875 67.578125 
L 50.390625 67.578125 
Q 44.53125 67.578125 38.28125 67.1875 
L 38.28125 74.609375 
Q 48.046875 74.21875 50.78125 74.21875 
z
M 28.90625 6.640625 
Q 37.5 14.0625 42.96875 19.140625 
Q 44.140625 14.453125 46.09375 11.328125 
Q 40.234375 6.640625 33.984375 1.359375 
Q 27.734375 -3.90625 23.4375 -8.59375 
Q 21.09375 -5.078125 17.96875 -2.34375 
Q 21.875 0.78125 21.484375 6.25 
L 21.484375 42.578125 
L 16.015625 42.578125 
Q 9.375 42.578125 4.6875 42.1875 
L 4.6875 49.609375 
Q 9.375 49.21875 16.015625 49.21875 
L 29.296875 49.21875 
Q 29.296875 41.796875 28.90625 35.15625 
z
M 17.96875 80.078125 
Q 23.828125 74.609375 33.59375 64.0625 
Q 30.46875 61.328125 26.953125 57.8125 
Q 20.3125 66.796875 12.109375 74.21875 
Q 15.625 77.34375 17.96875 80.078125 
z
" id="SimHei-35746"/>
     <path d="M 82.421875 63.671875 
L 82.421875 23.828125 
L 53.125 23.828125 
L 53.125 14.453125 
L 78.90625 14.453125 
Q 87.5 14.453125 93.75 14.84375 
L 93.75 7.03125 
Q 87.109375 7.421875 78.90625 7.421875 
L 53.125 7.421875 
Q 53.125 -4.6875 53.515625 -9.765625 
L 44.921875 -9.765625 
Q 45.703125 -4.6875 45.703125 7.421875 
L 20.3125 7.421875 
Q 10.9375 7.421875 6.640625 7.03125 
L 6.640625 14.84375 
Q 10.546875 14.453125 19.53125 14.453125 
L 45.703125 14.453125 
L 45.703125 23.828125 
L 17.578125 23.828125 
Q 17.96875 30.46875 17.96875 42.96875 
Q 17.96875 55.46875 17.578125 63.671875 
L 56.25 63.671875 
Q 60.546875 72.65625 63.671875 82.03125 
Q 67.578125 80.078125 72.65625 77.734375 
Q 71.09375 75.78125 68.75 71.671875 
Q 66.40625 67.578125 64.0625 63.671875 
z
M 74.609375 30.078125 
L 74.609375 40.625 
L 53.125 40.625 
L 53.125 30.078125 
z
M 74.609375 46.875 
L 74.609375 57.03125 
L 53.125 57.03125 
L 53.125 46.875 
z
M 45.703125 30.078125 
L 45.703125 40.625 
L 25.390625 40.625 
L 25.390625 30.078125 
z
M 45.703125 46.875 
L 45.703125 57.03125 
L 25.390625 57.03125 
L 25.390625 46.875 
z
M 32.8125 81.640625 
Q 36.71875 77.34375 41.796875 67.96875 
Q 37.5 66.015625 34.765625 64.453125 
Q 30.859375 73.046875 26.953125 77.734375 
Q 29.6875 79.296875 32.8125 81.640625 
z
" id="SimHei-21333"/>
     <path d="M 34.765625 -4.296875 
Q 41.796875 0.390625 46.484375 7.421875 
Q 51.171875 14.453125 53.90625 21.09375 
Q 56.640625 27.734375 57.8125 33.984375 
Q 58.984375 40.234375 59.375 44.921875 
L 50.390625 44.921875 
Q 44.53125 44.921875 39.0625 44.53125 
L 39.0625 51.953125 
Q 44.53125 51.5625 50 51.5625 
L 59.765625 51.5625 
Q 59.765625 62.109375 59.5625 68.359375 
Q 59.375 74.609375 58.984375 79.296875 
L 69.140625 79.296875 
Q 67.96875 74.21875 67.765625 68.9375 
Q 67.578125 63.671875 67.578125 51.5625 
L 83.59375 51.5625 
Q 87.890625 51.5625 93.359375 51.953125 
L 93.359375 44.53125 
Q 87.890625 44.921875 83.59375 44.921875 
L 68.359375 44.921875 
Q 73.046875 22.65625 78.3125 15.03125 
Q 83.59375 7.421875 87.890625 4.09375 
Q 92.1875 0.78125 95.703125 -1.171875 
Q 90.234375 -3.515625 87.890625 -8.203125 
Q 81.640625 -3.125 77.921875 1.75 
Q 74.21875 6.640625 71.671875 11.328125 
Q 69.140625 16.015625 67.375 20.890625 
Q 65.625 25.78125 64.453125 31.25 
Q 62.5 21.875 59.5625 15.234375 
Q 56.640625 8.59375 53.515625 3.703125 
Q 50.390625 -1.171875 42.96875 -9.765625 
Q 39.453125 -6.25 34.765625 -4.296875 
z
M 34.765625 81.25 
Q 34.375 75.390625 34.375 66.40625 
L 34.375 12.109375 
Q 34.375 0.78125 34.765625 -9.765625 
L 26.171875 -9.765625 
Q 26.5625 1.171875 26.5625 12.109375 
L 26.5625 30.46875 
Q 23.828125 27.34375 18.75 21.09375 
Q 13.671875 14.84375 10.9375 11.71875 
Q 7.8125 15.625 4.296875 17.96875 
Q 8.984375 21.484375 14.25 26.75 
Q 19.53125 32.03125 26.5625 40.625 
L 26.5625 66.40625 
Q 26.5625 75.390625 26.171875 81.25 
L 34.765625 81.25 
z
M 9.765625 67.578125 
Q 12.5 64.453125 15.625 60.546875 
Q 18.75 56.640625 21.484375 52.734375 
Q 18.359375 50.390625 16.40625 48.046875 
Q 13.28125 52.34375 3.90625 63.28125 
Q 6.25 65.234375 9.765625 67.578125 
z
M 85.546875 57.03125 
Q 82.03125 62.109375 73.4375 69.921875 
Q 76.5625 72.265625 78.515625 74.21875 
Q 82.03125 71.484375 84.765625 68.546875 
Q 87.5 65.625 91.015625 62.109375 
Q 87.890625 59.375 85.546875 57.03125 
z
" id="SimHei-29366"/>
     <path d="M 40.234375 67.578125 
Q 42.1875 75 42.578125 82.03125 
Q 48.046875 80.078125 52.34375 79.6875 
Q 50.390625 76.171875 48.4375 67.578125 
L 78.515625 67.578125 
Q 83.984375 67.578125 91.015625 68.359375 
L 91.015625 60.15625 
Q 83.59375 60.546875 78.125 60.546875 
L 62.109375 60.546875 
Q 66.015625 51.5625 71.484375 46.671875 
Q 76.953125 41.796875 82.03125 39.453125 
Q 87.109375 37.109375 95.3125 35.546875 
Q 90.625 32.421875 88.671875 27.734375 
Q 76.5625 32.8125 70.703125 37.6875 
Q 64.84375 42.578125 60.9375 48.046875 
Q 57.03125 53.515625 54.6875 60.546875 
L 46.484375 60.546875 
Q 41.796875 50 34.171875 41.984375 
Q 26.5625 33.984375 11.328125 25.390625 
Q 10.15625 28.90625 4.6875 32.421875 
Q 14.0625 35.546875 23.625 42.96875 
Q 33.203125 50.390625 37.890625 60.546875 
L 20.3125 60.546875 
Q 14.0625 60.546875 7.03125 60.15625 
L 7.03125 68.359375 
Q 13.671875 67.578125 20.3125 67.578125 
z
M 39.453125 21.09375 
Q 39.0625 13.671875 39.0625 8.984375 
Q 39.0625 4.6875 39.25 2.34375 
Q 39.453125 0 43.75 0 
L 59.765625 0 
Q 62.890625 -0.390625 65.234375 0.96875 
Q 67.578125 2.34375 68.75 9.765625 
Q 72.65625 7.03125 77.734375 5.859375 
Q 74.609375 -2.34375 72.265625 -4.875 
Q 69.921875 -7.421875 62.5 -7.03125 
L 39.0625 -7.03125 
Q 32.03125 -6.25 31.4375 -2.53125 
Q 30.859375 1.171875 30.859375 6.640625 
Q 30.859375 12.5 30.46875 21.09375 
L 39.453125 21.09375 
z
M 22.265625 18.359375 
Q 18.359375 7.03125 12.890625 -5.078125 
Q 9.765625 -2.734375 5.078125 -1.953125 
Q 12.109375 9.765625 13.671875 21.484375 
Q 18.359375 19.53125 22.265625 18.359375 
z
M 80.859375 23.828125 
Q 87.5 14.84375 94.53125 5.46875 
Q 90.625 2.734375 87.5 0 
Q 81.640625 10.9375 74.21875 19.53125 
Q 78.125 21.09375 80.859375 23.828125 
z
M 42.1875 47.65625 
Q 49.609375 41.796875 54.6875 36.328125 
Q 51.171875 33.984375 48.4375 30.859375 
Q 44.140625 36.71875 36.71875 42.1875 
L 42.1875 47.65625 
z
M 52.734375 27.34375 
Q 56.640625 21.09375 59.765625 14.453125 
Q 56.640625 12.5 52.734375 10.546875 
Q 50 18.359375 46.09375 23.828125 
Q 49.609375 25 52.734375 27.34375 
z
" id="SimHei-24577"/>
    </defs>
    <g transform="translate(99.805577 23.059375)scale(0.2 -0.2)">
     <use xlink:href="#SimHei-35746"/>
     <use x="100" xlink:href="#SimHei-21333"/>
     <use x="200" xlink:href="#SimHei-29366"/>
     <use x="300" xlink:href="#SimHei-24577"/>
    </g>
   </g>
  </g>
 </g>
</svg>
