<?xml version="1.0" encoding="utf-8" standalone="no"?>
<!DOCTYPE svg PUBLIC "-//W3C//DTD SVG 1.1//EN"
  "http://www.w3.org/Graphics/SVG/1.1/DTD/svg11.dtd">
<!-- Created with matplotlib (https://matplotlib.org/) -->
<svg height="697.579375pt" version="1.1" viewBox="0 0 719.140625 697.579375" width="719.140625pt" xmlns="http://www.w3.org/2000/svg" xmlns:xlink="http://www.w3.org/1999/xlink">
 <defs>
  <style type="text/css">
*{stroke-linecap:butt;stroke-linejoin:round;}
  </style>
 </defs>
 <g id="figure_1">
  <g id="patch_1">
   <path d="M 0 697.579375 
L 719.140625 697.579375 
L 719.140625 0 
L 0 0 
z
" style="fill:#ffffff;"/>
  </g>
  <g id="axes_1">
   <g id="patch_2">
    <path d="M 42.340625 319.365341 
L 711.940625 319.365341 
L 711.940625 22.85625 
L 42.340625 22.85625 
z
" style="fill:#eaeaf2;"/>
   </g>
   <g id="matplotlib.axis_1">
    <g id="xtick_1">
     <g id="line2d_1">
      <path clip-path="url(#p03786b1808)" d="M 97.623 319.365341 
L 97.623 22.85625 
" style="fill:none;stroke:#ffffff;stroke-linecap:round;stroke-width:0.8;"/>
     </g>
     <g id="text_1">
      <!-- United Kingdom -->
      <defs>
       <path d="M 44.921875 21.484375 
Q 44.921875 12.109375 40.03125 6.640625 
Q 35.15625 1.171875 24.609375 1.171875 
Q 14.0625 1.171875 9.171875 6.640625 
Q 4.296875 12.109375 4.296875 21.484375 
L 4.296875 68.75 
L 13.28125 68.75 
L 13.28125 21.484375 
Q 13.28125 14.84375 16.40625 11.71875 
Q 19.53125 8.59375 24.609375 8.59375 
Q 29.6875 8.59375 32.8125 11.71875 
Q 35.9375 14.84375 35.9375 21.484375 
L 35.9375 68.75 
L 44.921875 68.75 
z
" id="SimHei-85"/>
       <path d="M 43.75 1.953125 
L 35.9375 1.953125 
L 35.9375 30.078125 
Q 35.9375 34.765625 33.59375 37.5 
Q 31.25 40.234375 27.34375 40.234375 
Q 22.265625 40.234375 17.765625 34.953125 
Q 13.28125 29.6875 13.28125 21.875 
L 13.28125 1.953125 
L 5.46875 1.953125 
L 5.46875 45.703125 
L 13.28125 45.703125 
L 13.28125 37.5 
Q 16.40625 41.796875 20.109375 44.140625 
Q 23.828125 46.484375 29.6875 46.484375 
Q 36.71875 46.484375 40.234375 42.578125 
Q 43.75 38.671875 43.75 32.8125 
z
" id="SimHei-110"/>
       <path d="M 28.125 58.203125 
L 20.3125 58.203125 
L 20.3125 68.359375 
L 28.125 68.359375 
z
M 28.125 1.953125 
L 20.3125 1.953125 
L 20.3125 45.703125 
L 28.125 45.703125 
z
" id="SimHei-105"/>
       <path d="M 42.96875 3.125 
Q 41.015625 2.34375 38.46875 1.75 
Q 35.9375 1.171875 31.640625 1.171875 
Q 24.609375 1.171875 20.3125 5.078125 
Q 16.015625 8.984375 16.015625 16.015625 
L 16.015625 39.453125 
L 2.734375 39.453125 
L 2.734375 45.703125 
L 16.015625 45.703125 
L 16.015625 60.9375 
L 23.828125 60.9375 
L 23.828125 45.703125 
L 39.84375 45.703125 
L 39.84375 39.453125 
L 23.828125 39.453125 
L 23.828125 15.625 
Q 23.828125 12.5 25.390625 10.34375 
Q 26.953125 8.203125 31.25 8.203125 
Q 35.546875 8.203125 38.28125 8.984375 
Q 41.015625 9.765625 42.96875 10.9375 
z
" id="SimHei-116"/>
       <path d="M 44.53125 16.796875 
Q 43.75 9.765625 38.28125 5.46875 
Q 32.8125 1.171875 25.390625 1.171875 
Q 16.015625 1.171875 9.953125 7.21875 
Q 3.90625 13.28125 3.90625 23.828125 
Q 3.90625 34.375 9.953125 40.421875 
Q 16.015625 46.484375 25.390625 46.484375 
Q 33.59375 46.484375 38.859375 41.203125 
Q 44.140625 35.9375 44.140625 23.828125 
L 12.5 23.828125 
Q 12.5 15.234375 16.203125 11.71875 
Q 19.921875 8.203125 25.390625 8.203125 
Q 29.6875 8.203125 32.421875 10.34375 
Q 35.15625 12.5 35.9375 16.796875 
z
M 35.15625 30.078125 
Q 34.375 35.546875 31.640625 37.6875 
Q 28.90625 39.84375 24.609375 39.84375 
Q 20.703125 39.84375 17.578125 37.6875 
Q 14.453125 35.546875 12.890625 30.078125 
z
" id="SimHei-101"/>
       <path d="M 42.96875 1.953125 
L 35.15625 1.953125 
L 35.15625 7.8125 
Q 32.8125 4.296875 29.6875 2.734375 
Q 26.5625 1.171875 22.265625 1.171875 
Q 14.453125 1.171875 8.984375 6.828125 
Q 3.515625 12.5 3.515625 23.828125 
Q 3.515625 35.15625 8.984375 41.015625 
Q 14.453125 46.875 22.265625 46.875 
Q 26.5625 46.875 29.6875 45.109375 
Q 32.8125 43.359375 35.15625 39.84375 
L 35.15625 68.75 
L 42.96875 68.75 
z
M 35.15625 23.828125 
Q 35.15625 31.25 31.828125 35.546875 
Q 28.515625 39.84375 23.828125 39.84375 
Q 17.96875 39.84375 15.03125 35.546875 
Q 12.109375 31.25 12.109375 23.828125 
Q 12.109375 16.40625 15.03125 12.296875 
Q 17.96875 8.203125 23.828125 8.203125 
Q 28.515625 8.203125 31.828125 12.296875 
Q 35.15625 16.40625 35.15625 23.828125 
z
" id="SimHei-100"/>
       <path id="SimHei-32"/>
       <path d="M 47.65625 1.953125 
L 37.5 1.953125 
L 19.53125 35.15625 
L 13.28125 26.953125 
L 13.28125 1.953125 
L 4.296875 1.953125 
L 4.296875 68.75 
L 13.28125 68.75 
L 13.28125 39.84375 
L 35.546875 68.75 
L 46.09375 68.75 
L 25.390625 42.578125 
z
" id="SimHei-75"/>
       <path d="M 46.484375 39.0625 
Q 43.75 39.84375 41.203125 40.03125 
Q 38.671875 40.234375 35.9375 39.453125 
Q 37.109375 38.28125 37.890625 36.515625 
Q 38.671875 34.765625 38.671875 31.25 
Q 38.671875 24.609375 34.171875 20.3125 
Q 29.6875 16.015625 23.046875 16.015625 
Q 21.484375 16.015625 18.9375 16.59375 
Q 16.40625 17.1875 14.84375 17.96875 
Q 13.671875 17.1875 13.28125 16.40625 
Q 12.890625 15.625 12.890625 14.453125 
Q 12.890625 12.5 15.625 11.515625 
Q 18.359375 10.546875 25.390625 10.546875 
Q 36.71875 10.546875 40.8125 7.421875 
Q 44.921875 4.296875 44.921875 -0.390625 
Q 44.921875 -6.640625 38.859375 -9.5625 
Q 32.8125 -12.5 24.609375 -12.5 
Q 14.0625 -12.5 8.984375 -9.765625 
Q 3.90625 -7.03125 3.90625 -2.34375 
Q 3.90625 0 5.859375 2.34375 
Q 7.8125 4.6875 10.9375 6.25 
Q 8.59375 7.421875 7.21875 9.171875 
Q 5.859375 10.9375 5.859375 13.671875 
Q 5.859375 16.015625 7.609375 17.765625 
Q 9.375 19.53125 11.71875 20.703125 
Q 9.765625 22.65625 8.59375 25.390625 
Q 7.421875 28.125 7.421875 31.25 
Q 7.421875 37.890625 11.90625 42.1875 
Q 16.40625 46.484375 23.046875 46.484375 
Q 26.5625 46.484375 29.09375 45.5 
Q 31.640625 44.53125 33.59375 42.578125 
Q 36.71875 44.921875 39.84375 45.890625 
Q 42.96875 46.875 46.484375 46.484375 
z
M 30.859375 31.25 
Q 30.859375 35.15625 28.90625 37.5 
Q 26.953125 39.84375 23.046875 39.84375 
Q 19.140625 39.84375 17.1875 37.5 
Q 15.234375 35.15625 15.234375 31.25 
Q 15.234375 27.34375 17.1875 25 
Q 19.140625 22.65625 23.046875 22.65625 
Q 26.953125 22.65625 28.90625 25 
Q 30.859375 27.34375 30.859375 31.25 
z
M 37.5 -1.171875 
Q 37.5 0.390625 35.734375 1.953125 
Q 33.984375 3.515625 26.953125 3.515625 
Q 25.390625 3.515625 22.65625 3.703125 
Q 19.921875 3.90625 16.40625 4.296875 
Q 13.28125 3.125 12.109375 1.5625 
Q 10.9375 0 10.9375 -1.5625 
Q 10.9375 -3.90625 14.0625 -5.46875 
Q 17.1875 -7.03125 25 -7.03125 
Q 31.640625 -7.03125 34.5625 -5.265625 
Q 37.5 -3.515625 37.5 -1.171875 
z
" id="SimHei-103"/>
       <path d="M 45.703125 23.828125 
Q 45.703125 13.671875 39.453125 7.421875 
Q 33.203125 1.171875 24.609375 1.171875 
Q 16.015625 1.171875 9.765625 7.421875 
Q 3.515625 13.671875 3.515625 23.828125 
Q 3.515625 33.984375 9.765625 40.234375 
Q 16.015625 46.484375 24.609375 46.484375 
Q 33.203125 46.484375 39.453125 40.234375 
Q 45.703125 33.984375 45.703125 23.828125 
z
M 37.109375 23.828125 
Q 37.109375 31.640625 33.203125 35.546875 
Q 29.296875 39.453125 24.609375 39.453125 
Q 19.921875 39.453125 16.015625 35.546875 
Q 12.109375 31.640625 12.109375 23.828125 
Q 12.109375 16.015625 16.015625 12.109375 
Q 19.921875 8.203125 24.609375 8.203125 
Q 29.296875 8.203125 33.203125 12.109375 
Q 37.109375 16.015625 37.109375 23.828125 
z
" id="SimHei-111"/>
       <path d="M 47.65625 1.953125 
L 39.84375 1.953125 
L 39.84375 33.59375 
Q 39.84375 35.9375 39.0625 37.5 
Q 38.28125 39.0625 35.9375 39.0625 
Q 33.203125 39.0625 30.859375 36.125 
Q 28.515625 33.203125 28.515625 28.515625 
L 28.515625 1.953125 
L 20.703125 1.953125 
L 20.703125 33.59375 
Q 20.703125 35.9375 19.921875 37.5 
Q 19.140625 39.0625 16.796875 39.0625 
Q 14.0625 39.0625 11.71875 36.125 
Q 9.375 33.203125 9.375 28.515625 
L 9.375 1.953125 
L 1.5625 1.953125 
L 1.5625 45.703125 
L 9.375 45.703125 
L 9.375 39.84375 
Q 11.328125 42.96875 14.0625 44.71875 
Q 16.796875 46.484375 19.921875 46.484375 
Q 23.046875 46.484375 25.1875 44.71875 
Q 27.34375 42.96875 28.125 39.84375 
Q 30.078125 42.96875 32.609375 44.71875 
Q 35.15625 46.484375 38.28125 46.484375 
Q 42.96875 46.484375 45.3125 43.9375 
Q 47.65625 41.40625 47.65625 36.71875 
z
" id="SimHei-109"/>
      </defs>
      <g style="fill:#262626;" transform="translate(62.623 333.240341)scale(0.1 -0.1)">
       <use xlink:href="#SimHei-85"/>
       <use x="50" xlink:href="#SimHei-110"/>
       <use x="100" xlink:href="#SimHei-105"/>
       <use x="150" xlink:href="#SimHei-116"/>
       <use x="200" xlink:href="#SimHei-101"/>
       <use x="250" xlink:href="#SimHei-100"/>
       <use x="300" xlink:href="#SimHei-32"/>
       <use x="350" xlink:href="#SimHei-75"/>
       <use x="400" xlink:href="#SimHei-105"/>
       <use x="450" xlink:href="#SimHei-110"/>
       <use x="500" xlink:href="#SimHei-103"/>
       <use x="550" xlink:href="#SimHei-100"/>
       <use x="600" xlink:href="#SimHei-111"/>
       <use x="650" xlink:href="#SimHei-109"/>
      </g>
     </g>
    </g>
    <g id="xtick_2">
     <g id="line2d_2">
      <path clip-path="url(#p03786b1808)" d="M 159.738028 319.365341 
L 159.738028 22.85625 
" style="fill:none;stroke:#ffffff;stroke-linecap:round;stroke-width:0.8;"/>
     </g>
     <g id="text_2">
      <!-- Germany -->
      <defs>
       <path d="M 44.53125 1.171875 
L 37.890625 1.171875 
L 36.71875 6.640625 
Q 35.15625 4.296875 31.828125 2.734375 
Q 28.515625 1.171875 24.609375 1.171875 
Q 16.40625 1.171875 9.953125 8.78125 
Q 3.515625 16.40625 3.515625 33.203125 
Q 3.515625 51.5625 9.375 60.546875 
Q 15.234375 69.53125 25.390625 69.53125 
Q 34.375 69.53125 39.453125 62.890625 
Q 44.53125 56.25 44.53125 45.703125 
L 35.9375 45.703125 
Q 35.9375 53.90625 33.203125 58 
Q 30.46875 62.109375 25.390625 62.109375 
Q 19.140625 62.109375 16.015625 55.65625 
Q 12.890625 49.21875 12.890625 33.984375 
Q 12.890625 19.53125 16.796875 14.0625 
Q 20.703125 8.59375 25.78125 8.59375 
Q 30.859375 8.59375 33.78125 12.296875 
Q 36.71875 16.015625 36.71875 23.828125 
L 36.71875 28.125 
L 24.609375 28.125 
L 24.609375 35.546875 
L 44.53125 35.546875 
z
" id="SimHei-71"/>
       <path d="M 39.0625 37.890625 
Q 31.640625 39.0625 26.5625 35.734375 
Q 21.484375 32.421875 17.96875 24.21875 
L 17.96875 1.953125 
L 10.15625 1.953125 
L 10.15625 45.703125 
L 17.96875 45.703125 
L 17.96875 34.375 
Q 21.484375 40.625 26.75 43.546875 
Q 32.03125 46.484375 39.0625 46.484375 
z
" id="SimHei-114"/>
       <path d="M 44.921875 1.953125 
L 35.546875 1.953125 
Q 34.765625 2.734375 34.375 4.09375 
Q 33.984375 5.46875 33.984375 7.421875 
Q 31.25 4.296875 27.34375 2.734375 
Q 23.4375 1.171875 19.140625 1.171875 
Q 12.890625 1.171875 8.59375 4.296875 
Q 4.296875 7.421875 4.296875 13.28125 
Q 4.296875 19.140625 8.203125 22.65625 
Q 12.109375 26.171875 20.3125 27.34375 
Q 25.78125 28.125 29.875 29.296875 
Q 33.984375 30.46875 33.984375 32.421875 
Q 33.984375 34.765625 32.21875 37.109375 
Q 30.46875 39.453125 24.609375 39.453125 
Q 19.921875 39.453125 17.765625 37.6875 
Q 15.625 35.9375 14.84375 32.8125 
L 6.25 32.8125 
Q 7.03125 39.0625 11.90625 42.765625 
Q 16.796875 46.484375 24.609375 46.484375 
Q 33.203125 46.484375 37.5 42.578125 
Q 41.796875 38.671875 41.796875 31.640625 
L 41.796875 10.15625 
Q 41.796875 7.8125 42.578125 5.859375 
Q 43.359375 3.90625 44.921875 1.953125 
z
M 33.984375 16.40625 
L 33.984375 24.21875 
Q 31.640625 23.4375 29.484375 22.84375 
Q 27.34375 22.265625 22.265625 21.484375 
Q 16.40625 20.703125 14.640625 18.75 
Q 12.890625 16.796875 12.890625 14.0625 
Q 12.890625 11.71875 14.640625 9.953125 
Q 16.40625 8.203125 19.921875 8.203125 
Q 23.4375 8.203125 27.53125 10.15625 
Q 31.640625 12.109375 33.984375 16.40625 
z
" id="SimHei-97"/>
       <path d="M 45.3125 45.703125 
L 27.34375 -1.5625 
Q 25.78125 -7.03125 22.65625 -9.765625 
Q 19.53125 -12.5 14.84375 -12.5 
Q 12.890625 -12.5 11.125 -12.296875 
Q 9.375 -12.109375 7.8125 -11.328125 
L 7.8125 -3.515625 
Q 9.375 -4.296875 10.9375 -4.6875 
Q 12.5 -5.078125 13.671875 -5.078125 
Q 16.796875 -5.078125 17.96875 -4.09375 
Q 19.140625 -3.125 20.3125 0.390625 
L 3.125 45.703125 
L 11.71875 45.703125 
L 24.21875 11.328125 
L 24.609375 11.328125 
L 36.71875 45.703125 
z
" id="SimHei-121"/>
      </defs>
      <g style="fill:#262626;" transform="translate(142.238028 333.318466)scale(0.1 -0.1)">
       <use xlink:href="#SimHei-71"/>
       <use x="50" xlink:href="#SimHei-101"/>
       <use x="100" xlink:href="#SimHei-114"/>
       <use x="150" xlink:href="#SimHei-109"/>
       <use x="200" xlink:href="#SimHei-97"/>
       <use x="250" xlink:href="#SimHei-110"/>
       <use x="300" xlink:href="#SimHei-121"/>
      </g>
     </g>
    </g>
    <g id="xtick_3">
     <g id="line2d_3">
      <path clip-path="url(#p03786b1808)" d="M 221.853055 319.365341 
L 221.853055 22.85625 
" style="fill:none;stroke:#ffffff;stroke-linecap:round;stroke-width:0.8;"/>
     </g>
     <g id="text_3">
      <!-- France -->
      <defs>
       <path d="M 45.703125 61.328125 
L 13.671875 61.328125 
L 13.671875 39.453125 
L 37.890625 39.453125 
L 37.890625 32.03125 
L 13.671875 32.03125 
L 13.671875 1.953125 
L 4.6875 1.953125 
L 4.6875 68.75 
L 45.703125 68.75 
z
" id="SimHei-70"/>
       <path d="M 44.53125 19.53125 
Q 44.53125 11.328125 38.859375 6.25 
Q 33.203125 1.171875 24.609375 1.171875 
Q 16.015625 1.171875 9.765625 7.21875 
Q 3.515625 13.28125 3.515625 23.828125 
Q 3.515625 34.375 9.765625 40.421875 
Q 16.015625 46.484375 24.609375 46.484375 
Q 33.203125 46.484375 38.28125 41.984375 
Q 43.359375 37.5 43.359375 31.25 
L 34.765625 31.25 
Q 34.375 35.9375 31.4375 37.6875 
Q 28.515625 39.453125 24.609375 39.453125 
Q 19.921875 39.453125 16.015625 35.734375 
Q 12.109375 32.03125 12.109375 23.828125 
Q 12.109375 15.625 16.015625 11.90625 
Q 19.921875 8.203125 24.609375 8.203125 
Q 29.6875 8.203125 32.8125 10.9375 
Q 35.9375 13.671875 35.9375 19.53125 
z
" id="SimHei-99"/>
      </defs>
      <g style="fill:#262626;" transform="translate(206.853055 333.240341)scale(0.1 -0.1)">
       <use xlink:href="#SimHei-70"/>
       <use x="50" xlink:href="#SimHei-114"/>
       <use x="100" xlink:href="#SimHei-97"/>
       <use x="150" xlink:href="#SimHei-110"/>
       <use x="200" xlink:href="#SimHei-99"/>
       <use x="250" xlink:href="#SimHei-101"/>
      </g>
     </g>
    </g>
    <g id="xtick_4">
     <g id="line2d_4">
      <path clip-path="url(#p03786b1808)" d="M 283.968083 319.365341 
L 283.968083 22.85625 
" style="fill:none;stroke:#ffffff;stroke-linecap:round;stroke-width:0.8;"/>
     </g>
     <g id="text_4">
      <!-- EIRE -->
      <defs>
       <path d="M 45.3125 1.953125 
L 5.46875 1.953125 
L 5.46875 68.75 
L 43.359375 68.75 
L 43.359375 61.328125 
L 14.453125 61.328125 
L 14.453125 40.625 
L 41.015625 40.625 
L 41.015625 33.203125 
L 14.453125 33.203125 
L 14.453125 9.375 
L 45.3125 9.375 
z
" id="SimHei-69"/>
       <path d="M 28.90625 1.953125 
L 19.921875 1.953125 
L 19.921875 68.75 
L 28.90625 68.75 
z
" id="SimHei-73"/>
       <path d="M 46.875 1.953125 
L 37.5 1.953125 
L 23.4375 30.859375 
L 13.28125 30.859375 
L 13.28125 1.953125 
L 4.296875 1.953125 
L 4.296875 68.75 
L 23.828125 68.75 
Q 33.203125 68.75 39.0625 64.25 
Q 44.921875 59.765625 44.921875 49.609375 
Q 44.921875 41.796875 41.015625 37.5 
Q 37.109375 33.203125 32.03125 32.03125 
z
M 35.9375 49.609375 
Q 35.9375 55.078125 32.609375 58.203125 
Q 29.296875 61.328125 21.875 61.328125 
L 13.28125 61.328125 
L 13.28125 38.28125 
L 24.21875 38.28125 
Q 28.90625 38.28125 32.421875 40.8125 
Q 35.9375 43.359375 35.9375 49.609375 
z
" id="SimHei-82"/>
      </defs>
      <g style="fill:#262626;" transform="translate(273.968083 333.240341)scale(0.1 -0.1)">
       <use xlink:href="#SimHei-69"/>
       <use x="50" xlink:href="#SimHei-73"/>
       <use x="100" xlink:href="#SimHei-82"/>
       <use x="150" xlink:href="#SimHei-69"/>
      </g>
     </g>
    </g>
    <g id="xtick_5">
     <g id="line2d_5">
      <path clip-path="url(#p03786b1808)" d="M 346.083111 319.365341 
L 346.083111 22.85625 
" style="fill:none;stroke:#ffffff;stroke-linecap:round;stroke-width:0.8;"/>
     </g>
     <g id="text_5">
      <!-- Belgium -->
      <defs>
       <path d="M 46.09375 21.875 
Q 46.09375 10.546875 39.84375 6.25 
Q 33.59375 1.953125 23.828125 1.953125 
L 4.296875 1.953125 
L 4.296875 68.75 
L 24.609375 68.75 
Q 34.375 68.75 39.25 63.671875 
Q 44.140625 58.59375 44.140625 51.5625 
Q 44.140625 44.53125 40.8125 41.203125 
Q 37.5 37.890625 33.984375 36.71875 
Q 38.671875 35.546875 42.375 31.828125 
Q 46.09375 28.125 46.09375 21.875 
z
M 35.15625 51.5625 
Q 35.15625 56.640625 32.21875 58.984375 
Q 29.296875 61.328125 25 61.328125 
L 13.28125 61.328125 
L 13.28125 40.625 
L 24.609375 40.625 
Q 28.90625 40.625 32.03125 43.15625 
Q 35.15625 45.703125 35.15625 51.5625 
z
M 36.71875 21.875 
Q 36.71875 28.125 32.609375 30.65625 
Q 28.515625 33.203125 23.4375 33.203125 
L 13.28125 33.203125 
L 13.28125 9.375 
L 22.265625 9.375 
Q 29.296875 9.375 33 12.109375 
Q 36.71875 14.84375 36.71875 21.875 
z
" id="SimHei-66"/>
       <path d="M 28.515625 1.953125 
L 20.703125 1.953125 
L 20.703125 68.75 
L 28.515625 68.75 
z
" id="SimHei-108"/>
       <path d="M 43.75 1.953125 
L 35.9375 1.953125 
L 35.9375 10.15625 
Q 32.8125 5.859375 29.09375 3.515625 
Q 25.390625 1.171875 19.53125 1.171875 
Q 12.5 1.171875 8.984375 5.078125 
Q 5.46875 8.984375 5.46875 14.84375 
L 5.46875 45.703125 
L 13.28125 45.703125 
L 13.28125 17.578125 
Q 13.28125 12.890625 15.625 10.15625 
Q 17.96875 7.421875 21.875 7.421875 
Q 26.953125 7.421875 31.4375 12.6875 
Q 35.9375 17.96875 35.9375 25.78125 
L 35.9375 45.703125 
L 43.75 45.703125 
z
" id="SimHei-117"/>
      </defs>
      <g style="fill:#262626;" transform="translate(328.583111 333.240341)scale(0.1 -0.1)">
       <use xlink:href="#SimHei-66"/>
       <use x="50" xlink:href="#SimHei-101"/>
       <use x="100" xlink:href="#SimHei-108"/>
       <use x="150" xlink:href="#SimHei-103"/>
       <use x="200" xlink:href="#SimHei-105"/>
       <use x="250" xlink:href="#SimHei-117"/>
       <use x="300" xlink:href="#SimHei-109"/>
      </g>
     </g>
    </g>
    <g id="xtick_6">
     <g id="line2d_6">
      <path clip-path="url(#p03786b1808)" d="M 408.198139 319.365341 
L 408.198139 22.85625 
" style="fill:none;stroke:#ffffff;stroke-linecap:round;stroke-width:0.8;"/>
     </g>
     <g id="text_6">
      <!-- Netherlands -->
      <defs>
       <path d="M 44.53125 1.953125 
L 34.765625 1.953125 
L 13.28125 50.390625 
L 12.890625 50.390625 
L 12.890625 1.953125 
L 3.90625 1.953125 
L 3.90625 68.75 
L 13.671875 68.75 
L 35.15625 20.3125 
L 35.546875 20.3125 
L 35.546875 68.75 
L 44.53125 68.75 
z
" id="SimHei-78"/>
       <path d="M 43.75 1.953125 
L 35.9375 1.953125 
L 35.9375 30.078125 
Q 35.9375 34.765625 33.59375 37.5 
Q 31.25 40.234375 27.34375 40.234375 
Q 22.265625 40.234375 17.765625 34.953125 
Q 13.28125 29.6875 13.28125 21.875 
L 13.28125 1.953125 
L 5.46875 1.953125 
L 5.46875 68.75 
L 13.28125 68.75 
L 13.28125 37.5 
Q 16.40625 41.796875 20.109375 44.140625 
Q 23.828125 46.484375 29.6875 46.484375 
Q 36.71875 46.484375 40.234375 42.578125 
Q 43.75 38.671875 43.75 32.8125 
z
" id="SimHei-104"/>
       <path d="M 42.96875 14.0625 
Q 42.96875 7.8125 38.078125 4.484375 
Q 33.203125 1.171875 25.78125 1.171875 
Q 16.40625 1.171875 11.328125 4.875 
Q 6.25 8.59375 6.25 15.625 
L 14.0625 15.625 
Q 14.0625 10.9375 17.375 9.375 
Q 20.703125 7.8125 25.390625 7.8125 
Q 30.078125 7.8125 32.421875 9.5625 
Q 34.765625 11.328125 34.765625 14.0625 
Q 34.765625 16.015625 32.8125 17.96875 
Q 30.859375 19.921875 23.046875 21.09375 
Q 14.0625 22.265625 10.734375 25.578125 
Q 7.421875 28.90625 7.421875 34.375 
Q 7.421875 39.0625 11.90625 42.765625 
Q 16.40625 46.484375 25 46.484375 
Q 32.8125 46.484375 37.296875 42.96875 
Q 41.796875 39.453125 41.796875 33.59375 
L 33.984375 33.59375 
Q 33.984375 37.109375 31.4375 38.46875 
Q 28.90625 39.84375 25 39.84375 
Q 19.921875 39.84375 17.765625 38.078125 
Q 15.625 36.328125 15.625 33.984375 
Q 15.625 31.25 17.578125 29.6875 
Q 19.53125 28.125 25.78125 27.34375 
Q 35.9375 25.78125 39.453125 22.453125 
Q 42.96875 19.140625 42.96875 14.0625 
z
" id="SimHei-115"/>
      </defs>
      <g style="fill:#262626;" transform="translate(380.698139 333.240341)scale(0.1 -0.1)">
       <use xlink:href="#SimHei-78"/>
       <use x="50" xlink:href="#SimHei-101"/>
       <use x="100" xlink:href="#SimHei-116"/>
       <use x="150" xlink:href="#SimHei-104"/>
       <use x="200" xlink:href="#SimHei-101"/>
       <use x="250" xlink:href="#SimHei-114"/>
       <use x="300" xlink:href="#SimHei-108"/>
       <use x="350" xlink:href="#SimHei-97"/>
       <use x="400" xlink:href="#SimHei-110"/>
       <use x="450" xlink:href="#SimHei-100"/>
       <use x="500" xlink:href="#SimHei-115"/>
      </g>
     </g>
    </g>
    <g id="xtick_7">
     <g id="line2d_7">
      <path clip-path="url(#p03786b1808)" d="M 470.313167 319.365341 
L 470.313167 22.85625 
" style="fill:none;stroke:#ffffff;stroke-linecap:round;stroke-width:0.8;"/>
     </g>
     <g id="text_7">
      <!-- Spain -->
      <defs>
       <path d="M 45.3125 20.703125 
Q 45.3125 11.71875 39.640625 6.4375 
Q 33.984375 1.171875 24.21875 1.171875 
Q 14.453125 1.171875 8.984375 6.640625 
Q 3.515625 12.109375 3.515625 20.3125 
L 3.515625 23.046875 
L 12.5 23.046875 
L 12.5 20.703125 
Q 12.5 14.84375 16.015625 11.71875 
Q 19.53125 8.59375 24.21875 8.59375 
Q 30.46875 8.59375 33.390625 11.90625 
Q 36.328125 15.234375 36.328125 19.921875 
Q 36.328125 23.828125 32.8125 27.140625 
Q 29.296875 30.46875 22.65625 33.203125 
Q 13.28125 36.71875 9.171875 41.015625 
Q 5.078125 45.3125 5.078125 51.171875 
Q 5.078125 59.375 10.734375 64.453125 
Q 16.40625 69.53125 24.21875 69.53125 
Q 34.375 69.53125 38.859375 63.46875 
Q 43.359375 57.421875 43.359375 50.390625 
L 34.375 50.390625 
Q 34.765625 54.6875 32.03125 58.203125 
Q 29.296875 61.71875 24.21875 61.71875 
Q 19.53125 61.71875 16.796875 59.171875 
Q 14.0625 56.640625 14.0625 52.34375 
Q 14.0625 48.828125 16.203125 46.28125 
Q 18.359375 43.75 27.34375 40.234375 
Q 35.9375 36.71875 40.625 31.828125 
Q 45.3125 26.953125 45.3125 20.703125 
z
" id="SimHei-83"/>
       <path d="M 44.140625 23.828125 
Q 44.140625 12.5 38.671875 6.640625 
Q 33.203125 0.78125 25.390625 0.78125 
Q 21.09375 0.78125 17.96875 2.53125 
Q 14.84375 4.296875 12.5 7.8125 
L 12.5 -12.5 
L 4.6875 -12.5 
L 4.6875 45.703125 
L 12.5 45.703125 
L 12.5 39.84375 
Q 14.84375 43.359375 17.96875 44.921875 
Q 21.09375 46.484375 25.390625 46.484375 
Q 33.203125 46.484375 38.671875 40.8125 
Q 44.140625 35.15625 44.140625 23.828125 
z
M 35.546875 23.828125 
Q 35.546875 31.25 32.609375 35.34375 
Q 29.6875 39.453125 23.828125 39.453125 
Q 19.140625 39.453125 15.8125 35.34375 
Q 12.5 31.25 12.5 23.828125 
Q 12.5 16.40625 15.8125 12.109375 
Q 19.140625 7.8125 23.828125 7.8125 
Q 29.6875 7.8125 32.609375 12.109375 
Q 35.546875 16.40625 35.546875 23.828125 
z
" id="SimHei-112"/>
      </defs>
      <g style="fill:#262626;" transform="translate(457.813167 333.318466)scale(0.1 -0.1)">
       <use xlink:href="#SimHei-83"/>
       <use x="50" xlink:href="#SimHei-112"/>
       <use x="100" xlink:href="#SimHei-97"/>
       <use x="150" xlink:href="#SimHei-105"/>
       <use x="200" xlink:href="#SimHei-110"/>
      </g>
     </g>
    </g>
    <g id="xtick_8">
     <g id="line2d_8">
      <path clip-path="url(#p03786b1808)" d="M 532.428195 319.365341 
L 532.428195 22.85625 
" style="fill:none;stroke:#ffffff;stroke-linecap:round;stroke-width:0.8;"/>
     </g>
     <g id="text_8">
      <!-- Portugal -->
      <defs>
       <path d="M 46.09375 48.4375 
Q 46.09375 39.0625 40.625 33.59375 
Q 35.15625 28.125 25.390625 28.125 
L 14.0625 28.125 
L 14.0625 1.953125 
L 5.078125 1.953125 
L 5.078125 68.75 
L 25.390625 68.75 
Q 35.15625 68.75 40.625 63.28125 
Q 46.09375 57.8125 46.09375 48.4375 
z
M 37.109375 48.4375 
Q 37.109375 55.859375 33.59375 58.59375 
Q 30.078125 61.328125 23.046875 61.328125 
L 14.0625 61.328125 
L 14.0625 35.546875 
L 23.046875 35.546875 
Q 30.078125 35.546875 33.59375 38.28125 
Q 37.109375 41.015625 37.109375 48.4375 
z
" id="SimHei-80"/>
      </defs>
      <g style="fill:#262626;" transform="translate(512.428195 333.240341)scale(0.1 -0.1)">
       <use xlink:href="#SimHei-80"/>
       <use x="50" xlink:href="#SimHei-111"/>
       <use x="100" xlink:href="#SimHei-114"/>
       <use x="150" xlink:href="#SimHei-116"/>
       <use x="200" xlink:href="#SimHei-117"/>
       <use x="250" xlink:href="#SimHei-103"/>
       <use x="300" xlink:href="#SimHei-97"/>
       <use x="350" xlink:href="#SimHei-108"/>
      </g>
     </g>
    </g>
    <g id="xtick_9">
     <g id="line2d_9">
      <path clip-path="url(#p03786b1808)" d="M 594.543222 319.365341 
L 594.543222 22.85625 
" style="fill:none;stroke:#ffffff;stroke-linecap:round;stroke-width:0.8;"/>
     </g>
     <g id="text_9">
      <!-- Australia -->
      <defs>
       <path d="M 48.046875 1.953125 
L 38.671875 1.953125 
L 33.203125 22.65625 
L 16.015625 22.65625 
L 10.546875 1.953125 
L 1.171875 1.953125 
L 20.703125 69.53125 
L 28.515625 69.53125 
z
M 31.25 30.078125 
L 25 53.90625 
L 24.21875 53.90625 
L 17.96875 30.078125 
z
" id="SimHei-65"/>
      </defs>
      <g style="fill:#262626;" transform="translate(572.043222 333.240341)scale(0.1 -0.1)">
       <use xlink:href="#SimHei-65"/>
       <use x="50" xlink:href="#SimHei-117"/>
       <use x="100" xlink:href="#SimHei-115"/>
       <use x="150" xlink:href="#SimHei-116"/>
       <use x="200" xlink:href="#SimHei-114"/>
       <use x="250" xlink:href="#SimHei-97"/>
       <use x="300" xlink:href="#SimHei-108"/>
       <use x="350" xlink:href="#SimHei-105"/>
       <use x="400" xlink:href="#SimHei-97"/>
      </g>
     </g>
    </g>
    <g id="xtick_10">
     <g id="line2d_10">
      <path clip-path="url(#p03786b1808)" d="M 656.65825 319.365341 
L 656.65825 22.85625 
" style="fill:none;stroke:#ffffff;stroke-linecap:round;stroke-width:0.8;"/>
     </g>
     <g id="text_10">
      <!-- Switzerland -->
      <defs>
       <path d="M 48.046875 45.703125 
L 38.28125 1.171875 
L 30.859375 1.171875 
L 24.609375 35.15625 
L 23.828125 35.15625 
L 17.578125 1.171875 
L 10.15625 1.171875 
L 0.390625 45.703125 
L 8.59375 45.703125 
L 13.671875 16.40625 
L 14.453125 16.40625 
L 19.921875 45.703125 
L 28.515625 45.703125 
L 33.984375 16.40625 
L 34.765625 16.40625 
L 39.84375 45.703125 
z
" id="SimHei-119"/>
       <path d="M 43.359375 1.953125 
L 5.46875 1.953125 
L 5.46875 8.203125 
L 32.03125 39.453125 
L 7.03125 39.453125 
L 7.03125 45.703125 
L 41.40625 45.703125 
L 41.40625 39.453125 
L 14.84375 8.203125 
L 43.359375 8.203125 
z
" id="SimHei-122"/>
      </defs>
      <g style="fill:#262626;" transform="translate(629.15825 333.240341)scale(0.1 -0.1)">
       <use xlink:href="#SimHei-83"/>
       <use x="50" xlink:href="#SimHei-119"/>
       <use x="100" xlink:href="#SimHei-105"/>
       <use x="150" xlink:href="#SimHei-116"/>
       <use x="200" xlink:href="#SimHei-122"/>
       <use x="250" xlink:href="#SimHei-101"/>
       <use x="300" xlink:href="#SimHei-114"/>
       <use x="350" xlink:href="#SimHei-108"/>
       <use x="400" xlink:href="#SimHei-97"/>
       <use x="450" xlink:href="#SimHei-110"/>
       <use x="500" xlink:href="#SimHei-100"/>
      </g>
     </g>
    </g>
   </g>
   <g id="matplotlib.axis_2">
    <g id="ytick_1">
     <g id="line2d_11">
      <path clip-path="url(#p03786b1808)" d="M 42.340625 319.365341 
L 711.940625 319.365341 
" style="fill:none;stroke:#ffffff;stroke-linecap:round;stroke-width:0.8;"/>
     </g>
     <g id="text_11">
      <!-- 0.0 -->
      <defs>
       <path d="M 3.125 29.296875 
Q 3.90625 50 6.4375 56.046875 
Q 8.984375 62.109375 13.671875 66.015625 
Q 18.359375 69.921875 25.1875 69.921875 
Q 32.03125 69.921875 37.109375 64.25 
Q 42.1875 58.59375 43.75 50 
Q 45.3125 41.40625 44.71875 30.265625 
Q 44.140625 19.140625 40.8125 12.109375 
Q 37.5 5.078125 30.859375 2.34375 
Q 24.21875 -0.390625 17.578125 2.921875 
Q 10.9375 6.25 8.203125 11.71875 
Q 5.46875 17.1875 4.296875 23.234375 
Q 3.125 29.296875 3.90625 50 
z
M 12.890625 52.734375 
Q 10.546875 31.25 12.5 22.84375 
Q 14.453125 14.453125 18.9375 10.9375 
Q 23.4375 7.421875 28.125 9.5625 
Q 32.8125 11.71875 34.953125 18.15625 
Q 37.109375 24.609375 37.109375 32.21875 
Q 37.109375 39.84375 36.515625 46.09375 
Q 35.9375 52.34375 33 57.421875 
Q 30.078125 62.5 25.1875 62.6875 
Q 20.3125 62.890625 16.59375 57.8125 
Q 12.890625 52.734375 10.546875 31.25 
z
" id="SimHei-48"/>
       <path d="M 16.796875 1.953125 
L 7.8125 1.953125 
L 7.8125 10.546875 
L 16.796875 10.546875 
z
" id="SimHei-46"/>
      </defs>
      <g style="fill:#262626;" transform="translate(20.340625 322.802841)scale(0.1 -0.1)">
       <use xlink:href="#SimHei-48"/>
       <use x="50" xlink:href="#SimHei-46"/>
       <use x="100" xlink:href="#SimHei-48"/>
      </g>
     </g>
    </g>
    <g id="ytick_2">
     <g id="line2d_12">
      <path clip-path="url(#p03786b1808)" d="M 42.340625 285.990418 
L 711.940625 285.990418 
" style="fill:none;stroke:#ffffff;stroke-linecap:round;stroke-width:0.8;"/>
     </g>
     <g id="text_12">
      <!-- 0.1 -->
      <defs>
       <path d="M 21.875 56.25 
Q 16.796875 51.171875 8.984375 46.484375 
L 8.984375 53.90625 
Q 18.75 60.546875 25 69.53125 
L 29.6875 69.53125 
L 29.6875 2.34375 
L 21.875 2.34375 
z
" id="SimHei-49"/>
      </defs>
      <g style="fill:#262626;" transform="translate(20.340625 289.427918)scale(0.1 -0.1)">
       <use xlink:href="#SimHei-48"/>
       <use x="50" xlink:href="#SimHei-46"/>
       <use x="100" xlink:href="#SimHei-49"/>
      </g>
     </g>
    </g>
    <g id="ytick_3">
     <g id="line2d_13">
      <path clip-path="url(#p03786b1808)" d="M 42.340625 252.615496 
L 711.940625 252.615496 
" style="fill:none;stroke:#ffffff;stroke-linecap:round;stroke-width:0.8;"/>
     </g>
     <g id="text_13">
      <!-- 0.2 -->
      <defs>
       <path d="M 4.6875 3.90625 
Q 5.078125 9.765625 10.15625 14.453125 
Q 15.234375 19.140625 23.046875 29.09375 
Q 30.859375 39.0625 33.203125 44.53125 
Q 35.546875 50 34.953125 53.90625 
Q 34.375 57.8125 31.25 60.34375 
Q 28.125 62.890625 24.015625 62.5 
Q 19.921875 62.109375 16.203125 59.375 
Q 12.5 56.640625 10.546875 51.171875 
L 3.125 52.34375 
Q 6.25 61.328125 11.125 65.421875 
Q 16.015625 69.53125 22.65625 69.921875 
Q 26.5625 70.3125 29.6875 69.71875 
Q 32.8125 69.140625 36.125 66.984375 
Q 39.453125 64.84375 41.59375 60.546875 
Q 43.75 56.25 43.15625 50.1875 
Q 42.578125 44.140625 37.109375 35.734375 
Q 31.640625 27.34375 16.015625 9.375 
L 44.140625 9.375 
L 44.140625 2.34375 
L 4.6875 2.34375 
z
" id="SimHei-50"/>
      </defs>
      <g style="fill:#262626;" transform="translate(20.340625 256.052996)scale(0.1 -0.1)">
       <use xlink:href="#SimHei-48"/>
       <use x="50" xlink:href="#SimHei-46"/>
       <use x="100" xlink:href="#SimHei-50"/>
      </g>
     </g>
    </g>
    <g id="ytick_4">
     <g id="line2d_14">
      <path clip-path="url(#p03786b1808)" d="M 42.340625 219.240573 
L 711.940625 219.240573 
" style="fill:none;stroke:#ffffff;stroke-linecap:round;stroke-width:0.8;"/>
     </g>
     <g id="text_14">
      <!-- 0.3 -->
      <defs>
       <path d="M 3.90625 19.140625 
L 10.9375 20.3125 
Q 12.5 15.234375 16.015625 11.90625 
Q 19.53125 8.59375 24.796875 8.78125 
Q 30.078125 8.984375 33.203125 13.078125 
Q 36.328125 17.1875 35.9375 22.453125 
Q 35.546875 27.734375 31.828125 30.65625 
Q 28.125 33.59375 19.921875 34.765625 
L 19.921875 39.84375 
Q 28.125 40.625 31.828125 44.140625 
Q 35.546875 47.65625 35.15625 53.3125 
Q 34.765625 58.984375 30.078125 61.515625 
Q 25.390625 64.0625 20.109375 62.109375 
Q 14.84375 60.15625 11.71875 51.171875 
L 4.6875 52.34375 
Q 7.03125 59.375 11.125 64.0625 
Q 15.234375 68.75 22.265625 69.53125 
Q 29.296875 70.3125 34.5625 67.765625 
Q 39.84375 65.234375 41.984375 59.953125 
Q 44.140625 54.6875 42.578125 48.4375 
Q 41.015625 42.1875 33.59375 37.5 
Q 39.0625 35.15625 41.984375 30.46875 
Q 44.921875 25.78125 43.9375 18.15625 
Q 42.96875 10.546875 37.109375 5.859375 
Q 31.25 1.171875 23.828125 1.359375 
Q 16.40625 1.5625 10.9375 6.046875 
Q 5.46875 10.546875 3.90625 19.140625 
z
" id="SimHei-51"/>
      </defs>
      <g style="fill:#262626;" transform="translate(20.340625 222.678073)scale(0.1 -0.1)">
       <use xlink:href="#SimHei-48"/>
       <use x="50" xlink:href="#SimHei-46"/>
       <use x="100" xlink:href="#SimHei-51"/>
      </g>
     </g>
    </g>
    <g id="ytick_5">
     <g id="line2d_15">
      <path clip-path="url(#p03786b1808)" d="M 42.340625 185.86565 
L 711.940625 185.86565 
" style="fill:none;stroke:#ffffff;stroke-linecap:round;stroke-width:0.8;"/>
     </g>
     <g id="text_15">
      <!-- 0.4 -->
      <defs>
       <path d="M 31.25 17.1875 
L 1.171875 17.1875 
L 1.171875 23.828125 
L 32.8125 69.53125 
L 38.671875 69.53125 
L 38.671875 23.828125 
L 48.046875 23.828125 
L 48.046875 17.1875 
L 38.671875 17.1875 
L 38.671875 2.34375 
L 31.25 2.34375 
z
M 31.25 23.828125 
L 31.25 54.6875 
L 9.375 23.828125 
z
" id="SimHei-52"/>
      </defs>
      <g style="fill:#262626;" transform="translate(20.340625 189.30315)scale(0.1 -0.1)">
       <use xlink:href="#SimHei-48"/>
       <use x="50" xlink:href="#SimHei-46"/>
       <use x="100" xlink:href="#SimHei-52"/>
      </g>
     </g>
    </g>
    <g id="ytick_6">
     <g id="line2d_16">
      <path clip-path="url(#p03786b1808)" d="M 42.340625 152.490727 
L 711.940625 152.490727 
" style="fill:none;stroke:#ffffff;stroke-linecap:round;stroke-width:0.8;"/>
     </g>
     <g id="text_16">
      <!-- 0.5 -->
      <defs>
       <path d="M 8.59375 20.703125 
Q 11.328125 10.15625 17.96875 8.984375 
Q 24.609375 7.8125 28.703125 10.34375 
Q 32.8125 12.890625 34.5625 16.984375 
Q 36.328125 21.09375 36.125 26.171875 
Q 35.9375 31.25 33.390625 34.765625 
Q 30.859375 38.28125 26.953125 39.453125 
Q 23.046875 40.625 18.15625 39.453125 
Q 13.28125 38.28125 10.15625 33.984375 
L 3.515625 34.765625 
Q 4.296875 37.109375 10.9375 68.359375 
L 41.796875 68.359375 
L 41.796875 61.328125 
L 16.796875 61.328125 
Q 14.84375 50.78125 12.890625 44.53125 
Q 18.75 47.265625 23.828125 47.0625 
Q 28.90625 46.875 33.59375 44.71875 
Q 38.28125 42.578125 40.421875 38.859375 
Q 42.578125 35.15625 43.546875 31.4375 
Q 44.53125 27.734375 44.328125 23.4375 
Q 44.140625 19.140625 42.578125 14.640625 
Q 41.015625 10.15625 37.890625 7.21875 
Q 34.765625 4.296875 30.265625 2.53125 
Q 25.78125 0.78125 19.921875 1.171875 
Q 14.0625 1.5625 8.78125 5.46875 
Q 3.515625 9.375 1.5625 18.75 
z
" id="SimHei-53"/>
      </defs>
      <g style="fill:#262626;" transform="translate(20.340625 155.928227)scale(0.1 -0.1)">
       <use xlink:href="#SimHei-48"/>
       <use x="50" xlink:href="#SimHei-46"/>
       <use x="100" xlink:href="#SimHei-53"/>
      </g>
     </g>
    </g>
    <g id="ytick_7">
     <g id="line2d_17">
      <path clip-path="url(#p03786b1808)" d="M 42.340625 119.115805 
L 711.940625 119.115805 
" style="fill:none;stroke:#ffffff;stroke-linecap:round;stroke-width:0.8;"/>
     </g>
     <g id="text_17">
      <!-- 0.6 -->
      <defs>
       <path d="M 3.515625 19.53125 
Q 4.296875 30.859375 6.046875 34.765625 
Q 7.8125 38.671875 11.328125 44.53125 
L 27.34375 69.53125 
L 36.328125 69.53125 
L 19.921875 43.75 
Q 30.46875 46.484375 36.71875 42.96875 
Q 42.96875 39.453125 45.109375 34.953125 
Q 47.265625 30.46875 47.453125 25.1875 
Q 47.65625 19.921875 45.890625 14.84375 
Q 44.140625 9.765625 39.640625 5.65625 
Q 35.15625 1.5625 27.140625 1.171875 
Q 19.140625 0.78125 13.46875 4.09375 
Q 7.8125 7.421875 5.65625 13.46875 
Q 3.515625 19.53125 4.296875 30.859375 
z
M 12.5 16.015625 
Q 19.53125 8.59375 25.390625 8.203125 
Q 31.25 7.8125 35.15625 12.109375 
Q 39.0625 16.40625 39.0625 24.609375 
Q 39.0625 32.8125 34.171875 35.9375 
Q 29.296875 39.0625 23.234375 38.28125 
Q 17.1875 37.5 14.453125 32.421875 
Q 11.71875 27.34375 12.109375 21.671875 
Q 12.5 16.015625 19.53125 8.59375 
z
" id="SimHei-54"/>
      </defs>
      <g style="fill:#262626;" transform="translate(20.340625 122.553305)scale(0.1 -0.1)">
       <use xlink:href="#SimHei-48"/>
       <use x="50" xlink:href="#SimHei-46"/>
       <use x="100" xlink:href="#SimHei-54"/>
      </g>
     </g>
    </g>
    <g id="ytick_8">
     <g id="line2d_18">
      <path clip-path="url(#p03786b1808)" d="M 42.340625 85.740882 
L 711.940625 85.740882 
" style="fill:none;stroke:#ffffff;stroke-linecap:round;stroke-width:0.8;"/>
     </g>
     <g id="text_18">
      <!-- 0.7 -->
      <defs>
       <path d="M 13.28125 2.34375 
Q 20.3125 32.03125 37.890625 61.328125 
L 4.296875 61.328125 
L 4.296875 68.359375 
L 46.09375 68.359375 
L 46.09375 61.71875 
Q 27.734375 32.03125 21.875 2.34375 
L 13.28125 2.34375 
z
" id="SimHei-55"/>
      </defs>
      <g style="fill:#262626;" transform="translate(20.340625 89.178382)scale(0.1 -0.1)">
       <use xlink:href="#SimHei-48"/>
       <use x="50" xlink:href="#SimHei-46"/>
       <use x="100" xlink:href="#SimHei-55"/>
      </g>
     </g>
    </g>
    <g id="ytick_9">
     <g id="line2d_19">
      <path clip-path="url(#p03786b1808)" d="M 42.340625 52.365959 
L 711.940625 52.365959 
" style="fill:none;stroke:#ffffff;stroke-linecap:round;stroke-width:0.8;"/>
     </g>
     <g id="text_19">
      <!-- 0.8 -->
      <defs>
       <path d="M 2.734375 16.796875 
Q 2.734375 26.171875 5.078125 30.65625 
Q 7.421875 35.15625 12.890625 37.890625 
Q 8.203125 40.625 6.640625 43.9375 
Q 5.078125 47.265625 4.875 51.5625 
Q 4.6875 55.859375 6.046875 58.984375 
Q 7.421875 62.109375 10.15625 64.84375 
Q 12.890625 67.578125 16.203125 68.546875 
Q 19.53125 69.53125 23.4375 69.53125 
Q 27.34375 69.53125 30.46875 68.75 
Q 33.59375 67.96875 37.109375 65.421875 
Q 40.625 62.890625 42.1875 58.203125 
Q 43.75 53.515625 41.984375 47.265625 
Q 40.234375 41.015625 32.8125 37.5 
Q 39.453125 35.546875 42.1875 31.4375 
Q 44.921875 27.34375 44.921875 21.484375 
Q 44.921875 15.625 43.15625 12.109375 
Q 41.40625 8.59375 39.25 6.25 
Q 37.109375 3.90625 33.390625 2.53125 
Q 29.6875 1.171875 24.015625 1.171875 
Q 18.359375 1.171875 14.25 2.53125 
Q 10.15625 3.90625 7.421875 6.640625 
Q 4.6875 9.375 3.703125 13.078125 
Q 2.734375 16.796875 2.734375 26.171875 
z
M 10.9375 26.5625 
Q 10.546875 17.1875 12.296875 13.671875 
Q 14.0625 10.15625 18.75 9.171875 
Q 23.4375 8.203125 28.515625 9.375 
Q 33.59375 10.546875 35.546875 14.84375 
Q 37.5 19.140625 36.90625 23.4375 
Q 36.328125 27.734375 32.03125 30.65625 
Q 27.734375 33.59375 22.65625 33.203125 
Q 17.578125 32.8125 14.25 29.6875 
Q 10.9375 26.5625 10.546875 17.1875 
z
M 12.109375 56.25 
Q 12.109375 48.4375 14.84375 44.921875 
Q 17.578125 41.40625 23.4375 41.40625 
Q 29.296875 41.40625 32.21875 44.921875 
Q 35.15625 48.4375 34.953125 53.3125 
Q 34.765625 58.203125 31.4375 60.546875 
Q 28.125 62.890625 22.453125 62.5 
Q 16.796875 62.109375 14.453125 59.171875 
Q 12.109375 56.25 12.109375 48.4375 
z
" id="SimHei-56"/>
      </defs>
      <g style="fill:#262626;" transform="translate(20.340625 55.803459)scale(0.1 -0.1)">
       <use xlink:href="#SimHei-48"/>
       <use x="50" xlink:href="#SimHei-46"/>
       <use x="100" xlink:href="#SimHei-56"/>
      </g>
     </g>
    </g>
    <g id="text_20">
     <!-- 销量占比 -->
     <defs>
      <path d="M 65.234375 67.578125 
Q 65.234375 73.4375 64.84375 80.078125 
L 72.65625 80.078125 
Q 72.265625 75.78125 72.265625 67.578125 
L 72.265625 50.390625 
L 91.015625 50.390625 
Q 90.625 44.53125 90.625 34.765625 
L 90.625 0.78125 
Q 90.625 -4.6875 86.90625 -5.859375 
Q 83.203125 -7.03125 76.953125 -8.203125 
Q 76.171875 -4.296875 73.4375 -0.390625 
Q 82.421875 0 82.8125 1.75 
Q 83.203125 3.515625 83.203125 12.890625 
L 55.859375 12.890625 
L 55.859375 -7.03125 
L 48.4375 -7.03125 
Q 48.828125 1.171875 48.828125 6.25 
L 48.828125 33.984375 
Q 48.828125 43.75 48.4375 50.390625 
L 65.234375 50.390625 
z
M 36.71875 42.1875 
Q 31.640625 42.578125 26.5625 42.578125 
L 26.5625 30.859375 
Q 33.203125 30.859375 40.625 31.25 
L 40.625 24.21875 
Q 33.203125 24.609375 26.5625 24.609375 
L 26.5625 6.640625 
Q 30.078125 8.984375 35.15625 14.453125 
Q 36.328125 10.9375 39.0625 7.421875 
Q 35.15625 4.6875 30.859375 1.359375 
Q 26.5625 -1.953125 21.875 -7.03125 
Q 19.921875 -3.515625 16.796875 -0.78125 
Q 19.140625 1.5625 19.53125 6.25 
L 19.53125 24.609375 
Q 14.84375 24.609375 8.203125 24.21875 
L 8.203125 31.25 
Q 14.84375 30.859375 19.53125 30.859375 
L 19.53125 42.578125 
Q 14.84375 42.578125 11.71875 42.1875 
L 11.71875 49.21875 
Q 16.796875 48.828125 23.4375 48.828125 
Q 30.46875 48.828125 36.71875 49.21875 
z
M 9.765625 48.046875 
Q 7.03125 51.171875 3.515625 52.734375 
Q 9.375 58.59375 13.671875 65.625 
Q 17.96875 72.65625 20.703125 80.078125 
Q 26.171875 76.953125 29.296875 75.78125 
Q 24.21875 68.75 22.65625 65.625 
Q 32.421875 65.625 39.0625 66.015625 
L 39.0625 58.59375 
Q 32.421875 58.984375 18.75 58.984375 
Q 12.890625 51.171875 9.765625 48.046875 
z
M 83.203125 34.375 
L 83.203125 44.53125 
L 55.859375 44.53125 
L 55.859375 34.375 
z
M 83.203125 18.75 
L 83.203125 28.515625 
L 55.859375 28.515625 
L 55.859375 18.75 
z
M 94.53125 71.09375 
Q 91.40625 67.1875 85.15625 55.078125 
Q 81.640625 57.03125 77.734375 58.203125 
Q 82.03125 63.28125 86.328125 74.609375 
Q 89.453125 72.65625 94.53125 71.09375 
z
M 50 74.609375 
Q 56.25 64.84375 59.375 59.375 
Q 55.859375 57.8125 52.34375 55.46875 
Q 49.609375 61.71875 43.359375 70.703125 
Q 47.265625 72.265625 50 74.609375 
z
" id="SimHei-38144"/>
      <path d="M 82.03125 39.0625 
Q 81.640625 34.375 81.640625 26.5625 
Q 81.640625 19.140625 82.03125 14.84375 
L 53.515625 14.84375 
L 53.515625 9.765625 
L 71.484375 9.765625 
Q 78.125 9.765625 83.984375 10.15625 
L 83.984375 4.296875 
Q 78.515625 4.6875 71.484375 4.6875 
L 53.515625 4.6875 
L 53.515625 -1.171875 
L 80.078125 -1.171875 
Q 86.328125 -1.171875 92.578125 -0.78125 
L 92.578125 -6.640625 
Q 86.328125 -6.25 80.078125 -6.25 
L 19.921875 -6.25 
Q 14.0625 -6.25 7.421875 -6.640625 
L 7.421875 -0.78125 
Q 14.453125 -0.78125 19.921875 -1.171875 
L 46.484375 -1.171875 
L 46.484375 4.6875 
L 26.953125 4.6875 
Q 21.09375 4.6875 15.234375 3.90625 
L 15.234375 10.15625 
Q 21.484375 9.765625 26.953125 9.765625 
L 46.484375 9.765625 
L 46.484375 14.84375 
L 17.96875 14.84375 
Q 18.359375 21.484375 18.359375 27.734375 
Q 18.359375 33.984375 17.96875 39.0625 
L 82.03125 39.0625 
z
M 81.25 77.34375 
Q 80.859375 71.484375 80.859375 66.40625 
Q 80.859375 61.328125 81.25 53.125 
L 18.75 53.125 
Q 19.140625 61.328125 19.140625 66.40625 
Q 19.140625 71.484375 18.75 77.34375 
L 81.25 77.34375 
z
M 76.5625 48.4375 
Q 85.9375 48.828125 93.75 49.21875 
L 93.75 42.96875 
Q 85.9375 43.359375 76.953125 43.359375 
L 25.78125 43.359375 
Q 15.234375 43.359375 5.078125 42.96875 
L 5.078125 49.21875 
Q 15.234375 48.828125 25.78125 48.4375 
z
M 73.828125 57.8125 
L 73.828125 62.890625 
L 26.171875 62.890625 
L 26.171875 57.8125 
z
M 73.828125 67.96875 
L 73.828125 72.65625 
L 26.171875 72.65625 
L 26.171875 67.96875 
z
M 74.21875 29.296875 
L 74.21875 33.984375 
L 53.515625 33.984375 
L 53.515625 29.296875 
z
M 46.484375 29.296875 
L 46.484375 33.984375 
L 25.78125 33.984375 
L 25.78125 29.296875 
z
M 46.484375 19.921875 
L 46.484375 24.21875 
L 25.78125 24.21875 
L 25.78125 19.921875 
z
M 74.21875 19.921875 
L 74.21875 24.21875 
L 53.515625 24.21875 
L 53.515625 19.921875 
z
" id="SimHei-37327"/>
      <path d="M 42.578125 68.75 
Q 42.578125 75 42.1875 79.296875 
L 52.734375 79.296875 
Q 52.34375 74.609375 52.34375 68.75 
L 52.34375 62.5 
L 82.03125 62.5 
Q 92.1875 62.5 96.09375 62.890625 
L 96.09375 55.078125 
Q 92.1875 55.46875 82.8125 55.46875 
L 52.34375 55.46875 
L 52.34375 36.328125 
L 85.15625 36.328125 
Q 84.375 31.25 84.375 23.828125 
L 84.375 5.078125 
Q 84.375 -3.90625 85.15625 -8.59375 
L 75.78125 -8.59375 
L 75.78125 -0.390625 
L 23.046875 -0.390625 
L 23.046875 -8.59375 
L 13.671875 -8.59375 
Q 14.0625 -2.34375 14.0625 2.734375 
L 14.0625 24.21875 
Q 14.0625 31.25 13.671875 36.328125 
L 42.578125 36.328125 
z
M 75.78125 6.640625 
L 75.78125 29.296875 
L 23.046875 29.296875 
L 23.046875 6.640625 
z
" id="SimHei-21344"/>
      <path d="M 58.984375 79.6875 
Q 58.59375 71.484375 58.59375 64.0625 
L 58.59375 47.65625 
Q 76.953125 56.25 85.546875 65.234375 
Q 88.671875 60.9375 92.1875 57.421875 
Q 87.5 54.6875 78.703125 49.796875 
Q 69.921875 44.921875 58.59375 39.84375 
L 58.59375 7.03125 
Q 58.59375 1.5625 63.28125 1.5625 
L 78.125 1.5625 
Q 80.859375 1.5625 82.21875 3.90625 
Q 83.59375 6.25 85.15625 14.0625 
Q 88.28125 12.109375 94.140625 10.546875 
Q 91.40625 0 88.28125 -2.734375 
Q 85.15625 -5.46875 81.640625 -5.46875 
L 60.9375 -5.46875 
Q 50.78125 -5.46875 50.78125 4.296875 
L 50.78125 62.5 
Q 50.78125 71.09375 50.390625 79.6875 
L 58.984375 79.6875 
z
M 19.921875 77.734375 
Q 19.53125 71.484375 19.53125 62.5 
L 19.53125 49.21875 
L 28.90625 49.21875 
Q 36.328125 49.21875 44.921875 49.609375 
L 44.921875 41.40625 
Q 36.328125 41.796875 28.90625 41.796875 
L 19.53125 41.796875 
L 19.53125 7.421875 
Q 25.78125 10.15625 30.65625 12.6875 
Q 35.546875 15.234375 44.53125 19.921875 
Q 45.3125 14.84375 46.09375 11.71875 
Q 37.109375 7.421875 27.53125 2.734375 
Q 17.96875 -1.953125 14.453125 -5.078125 
Q 11.71875 -1.5625 8.984375 3.125 
Q 10.9375 4.6875 11.71875 9.375 
L 11.71875 61.71875 
Q 11.71875 71.09375 11.328125 77.734375 
L 19.921875 77.734375 
z
" id="SimHei-27604"/>
     </defs>
     <g style="fill:#262626;" transform="translate(15.090625 191.110795)rotate(-90)scale(0.1 -0.1)">
      <use xlink:href="#SimHei-38144"/>
      <use x="100" xlink:href="#SimHei-37327"/>
      <use x="200" xlink:href="#SimHei-21344"/>
      <use x="300" xlink:href="#SimHei-27604"/>
     </g>
    </g>
   </g>
   <g id="patch_3">
    <path clip-path="url(#p03786b1808)" d="M 72.776989 319.365341 
L 122.469011 319.365341 
L 122.469011 36.975731 
L 72.776989 36.975731 
z
" style="fill:#1f77b4;stroke:#ffffff;stroke-linejoin:miter;"/>
   </g>
   <g id="patch_4">
    <path clip-path="url(#p03786b1808)" d="M 134.892016 319.365341 
L 184.584039 319.365341 
L 184.584039 312.204331 
L 134.892016 312.204331 
z
" style="fill:#1f77b4;stroke:#ffffff;stroke-linejoin:miter;"/>
   </g>
   <g id="patch_5">
    <path clip-path="url(#p03786b1808)" d="M 197.007044 319.365341 
L 246.699067 319.365341 
L 246.699067 312.803578 
L 197.007044 312.803578 
z
" style="fill:#1f77b4;stroke:#ffffff;stroke-linejoin:miter;"/>
   </g>
   <g id="patch_6">
    <path clip-path="url(#p03786b1808)" d="M 259.122072 319.365341 
L 308.814094 319.365341 
L 308.814094 310.496368 
L 259.122072 310.496368 
z
" style="fill:#1f77b4;stroke:#ffffff;stroke-linejoin:miter;"/>
   </g>
   <g id="patch_7">
    <path clip-path="url(#p03786b1808)" d="M 321.2371 319.365341 
L 370.929122 319.365341 
L 370.929122 318.076351 
L 321.2371 318.076351 
z
" style="fill:#1f77b4;stroke:#ffffff;stroke-linejoin:miter;"/>
   </g>
   <g id="patch_8">
    <path clip-path="url(#p03786b1808)" d="M 383.352128 319.365341 
L 433.04415 319.365341 
L 433.04415 310.434028 
L 383.352128 310.434028 
z
" style="fill:#1f77b4;stroke:#ffffff;stroke-linejoin:miter;"/>
   </g>
   <g id="patch_9">
    <path clip-path="url(#p03786b1808)" d="M 445.467156 319.365341 
L 495.159178 319.365341 
L 495.159178 317.438659 
L 445.467156 317.438659 
z
" style="fill:#1f77b4;stroke:#ffffff;stroke-linejoin:miter;"/>
   </g>
   <g id="patch_10">
    <path clip-path="url(#p03786b1808)" d="M 507.582183 319.365341 
L 557.274206 319.365341 
L 557.274206 318.30943 
L 507.582183 318.30943 
z
" style="fill:#1f77b4;stroke:#ffffff;stroke-linejoin:miter;"/>
   </g>
   <g id="patch_11">
    <path clip-path="url(#p03786b1808)" d="M 569.697211 319.365341 
L 619.389234 319.365341 
L 619.389234 315.031156 
L 569.697211 315.031156 
z
" style="fill:#1f77b4;stroke:#ffffff;stroke-linejoin:miter;"/>
   </g>
   <g id="patch_12">
    <path clip-path="url(#p03786b1808)" d="M 631.812239 319.365341 
L 681.504261 319.365341 
L 681.504261 317.579059 
L 631.812239 317.579059 
z
" style="fill:#1f77b4;stroke:#ffffff;stroke-linejoin:miter;"/>
   </g>
   <g id="patch_13">
    <path d="M 42.340625 319.365341 
L 42.340625 22.85625 
" style="fill:none;stroke:#ffffff;stroke-linecap:square;stroke-linejoin:miter;stroke-width:0.8;"/>
   </g>
   <g id="patch_14">
    <path d="M 711.940625 319.365341 
L 711.940625 22.85625 
" style="fill:none;stroke:#ffffff;stroke-linecap:square;stroke-linejoin:miter;stroke-width:0.8;"/>
   </g>
   <g id="patch_15">
    <path d="M 42.340625 319.365341 
L 711.940625 319.365341 
" style="fill:none;stroke:#ffffff;stroke-linecap:square;stroke-linejoin:miter;stroke-width:0.8;"/>
   </g>
   <g id="patch_16">
    <path d="M 42.340625 22.85625 
L 711.940625 22.85625 
" style="fill:none;stroke:#ffffff;stroke-linecap:square;stroke-linejoin:miter;stroke-width:0.8;"/>
   </g>
   <g id="text_21">
    <!-- 销售地理占比图 -->
    <defs>
     <path d="M 36.328125 76.953125 
Q 34.375 75.390625 30.46875 69.140625 
L 76.953125 69.140625 
Q 83.59375 69.140625 90.234375 69.53125 
L 90.234375 63.28125 
Q 83.59375 63.671875 76.953125 63.671875 
L 58.984375 63.671875 
L 58.984375 57.03125 
L 72.65625 57.03125 
Q 79.296875 57.03125 85.15625 57.421875 
L 85.15625 50.390625 
Q 79.6875 51.171875 73.046875 51.171875 
L 58.984375 51.171875 
L 58.984375 44.53125 
L 85.546875 44.53125 
L 85.546875 37.890625 
Q 80.078125 38.28125 73.4375 38.28125 
L 58.984375 38.28125 
L 58.984375 30.859375 
L 75.390625 30.859375 
Q 83.203125 30.859375 92.1875 31.25 
L 92.1875 24.21875 
Q 83.59375 25 75.390625 25 
L 28.125 25 
L 28.125 21.484375 
L 19.921875 21.484375 
Q 20.3125 30.859375 20.3125 53.125 
Q 15.234375 44.53125 10.9375 40.234375 
Q 8.203125 43.75 5.46875 45.3125 
Q 9.765625 50.390625 13.078125 55.265625 
Q 16.40625 60.15625 20.3125 66.203125 
Q 24.21875 72.265625 26.953125 81.640625 
Q 32.03125 78.90625 36.328125 76.953125 
z
M 83.59375 18.359375 
Q 83.203125 12.5 83.203125 4.296875 
Q 83.203125 -3.90625 83.59375 -10.15625 
L 75.390625 -10.15625 
L 75.390625 -5.859375 
L 26.953125 -5.859375 
L 26.953125 -10.546875 
L 18.75 -10.546875 
Q 19.53125 -3.90625 19.53125 4.296875 
Q 19.53125 12.5 18.75 18.359375 
L 83.59375 18.359375 
z
M 75.390625 0.390625 
L 75.390625 12.109375 
L 26.953125 12.109375 
L 26.953125 0.390625 
z
M 51.171875 30.859375 
L 51.171875 38.28125 
L 28.125 38.28125 
L 28.125 30.859375 
z
M 51.171875 57.03125 
L 51.171875 63.671875 
L 28.125 63.671875 
L 28.125 57.03125 
z
M 51.171875 44.53125 
L 51.171875 51.171875 
L 28.125 51.171875 
L 28.125 44.53125 
z
M 56.25 82.421875 
Q 60.15625 76.171875 61.71875 73.046875 
Q 59.375 72.265625 54.6875 70.3125 
Q 53.515625 73.4375 49.609375 79.296875 
Q 53.125 80.46875 56.25 82.421875 
z
" id="SimHei-21806"/>
     <path d="M 35.9375 35.546875 
Q 33.984375 40.234375 32.421875 42.96875 
Q 36.71875 43.75 42.96875 46.09375 
L 42.96875 55.078125 
Q 42.96875 62.109375 42.578125 71.09375 
L 50.390625 71.09375 
Q 50 62.890625 50 55.46875 
L 50 48.4375 
L 61.71875 52.734375 
L 61.71875 68.359375 
Q 61.71875 75 61.328125 81.640625 
L 69.53125 81.640625 
Q 69.140625 76.953125 69.140625 67.96875 
L 69.140625 55.078125 
Q 75 56.640625 89.453125 61.71875 
Q 89.0625 57.03125 89.0625 48.046875 
L 89.0625 32.8125 
Q 89.453125 22.65625 85.34375 19.921875 
Q 81.25 17.1875 75 15.625 
Q 73.828125 19.53125 71.484375 23.828125 
Q 78.515625 24.609375 80.265625 25.96875 
Q 82.03125 27.34375 81.640625 34.765625 
L 81.640625 51.5625 
Q 75 49.609375 69.140625 47.65625 
L 69.140625 21.484375 
Q 69.140625 14.453125 69.53125 9.765625 
L 61.328125 9.765625 
Q 61.71875 16.796875 61.71875 21.484375 
L 61.71875 45.3125 
L 50 41.015625 
L 50 8.59375 
Q 50 0.78125 55.46875 0.78125 
L 80.46875 0.78125 
Q 84.375 0.78125 85.546875 3.3125 
Q 86.71875 5.859375 87.890625 12.109375 
Q 91.796875 9.375 96.484375 8.59375 
Q 94.140625 0 91.40625 -2.921875 
Q 88.671875 -5.859375 82.8125 -5.859375 
L 51.953125 -5.859375 
Q 43.359375 -5.859375 42.96875 4.6875 
L 42.96875 38.671875 
Q 38.28125 37.109375 35.9375 35.546875 
z
M 25.390625 14.453125 
Q 30.859375 16.015625 37.890625 19.140625 
Q 37.5 14.84375 37.5 11.328125 
Q 30.859375 8.984375 22.453125 6.25 
Q 14.0625 3.515625 8.203125 0.390625 
Q 7.03125 4.296875 4.296875 8.59375 
Q 10.15625 10.15625 17.578125 12.5 
L 17.578125 46.875 
Q 10.15625 46.875 5.46875 46.484375 
L 5.46875 53.90625 
Q 10.15625 53.515625 17.578125 53.515625 
L 17.578125 66.015625 
Q 17.578125 72.65625 17.1875 79.296875 
L 25.78125 79.296875 
Q 25.390625 74.21875 25.390625 66.015625 
L 25.390625 53.515625 
Q 32.421875 53.515625 36.71875 53.90625 
L 36.71875 46.484375 
Q 32.421875 46.875 25.390625 46.875 
z
" id="SimHei-22320"/>
     <path d="M 91.015625 75.78125 
Q 90.625 70.703125 90.625 53.515625 
Q 90.625 36.71875 91.015625 29.296875 
L 69.53125 29.296875 
L 69.53125 17.578125 
L 81.25 17.578125 
Q 88.28125 17.578125 92.1875 17.96875 
L 92.1875 10.9375 
Q 87.890625 11.328125 81.25 11.328125 
L 69.53125 11.328125 
L 69.53125 -1.953125 
L 83.59375 -1.953125 
Q 91.015625 -1.953125 96.09375 -1.5625 
L 96.09375 -8.59375 
Q 91.015625 -8.203125 83.984375 -8.203125 
L 46.09375 -8.203125 
Q 39.84375 -8.203125 35.15625 -8.59375 
L 35.15625 -1.5625 
Q 40.234375 -1.953125 46.09375 -1.953125 
L 62.109375 -1.953125 
L 62.109375 11.328125 
L 49.21875 11.328125 
Q 44.140625 11.328125 40.234375 10.9375 
L 40.234375 17.96875 
Q 44.140625 17.578125 49.21875 17.578125 
L 62.109375 17.578125 
L 62.109375 29.296875 
L 41.015625 29.296875 
Q 41.40625 35.15625 41.40625 53.125 
Q 41.40625 71.09375 41.015625 75.78125 
L 91.015625 75.78125 
z
M 27.34375 70.703125 
Q 31.640625 70.703125 36.71875 71.09375 
L 36.71875 63.671875 
Q 31.25 64.0625 27.34375 64.0625 
L 23.828125 64.0625 
L 23.828125 42.96875 
Q 29.296875 42.96875 34.765625 43.359375 
L 34.765625 35.9375 
Q 29.296875 36.328125 23.828125 36.328125 
L 23.828125 11.328125 
Q 31.25 14.0625 36.328125 16.40625 
Q 37.109375 12.5 37.890625 9.765625 
Q 30.46875 7.421875 21.28125 3.703125 
Q 12.109375 0 7.03125 -3.125 
Q 5.46875 0.78125 3.515625 5.078125 
Q 8.59375 5.859375 16.796875 9.375 
L 16.796875 36.328125 
Q 9.765625 36.328125 4.6875 35.9375 
L 4.6875 43.359375 
Q 10.15625 42.96875 16.796875 42.96875 
L 16.796875 64.0625 
L 12.109375 64.0625 
Q 8.59375 64.0625 3.515625 63.671875 
L 3.515625 71.09375 
Q 8.59375 70.703125 12.109375 70.703125 
z
M 83.203125 35.546875 
L 83.203125 49.609375 
L 69.53125 49.609375 
L 69.53125 35.546875 
z
M 83.203125 55.46875 
L 83.203125 69.53125 
L 69.53125 69.53125 
L 69.53125 55.46875 
z
M 62.109375 35.546875 
L 62.109375 49.609375 
L 48.828125 49.609375 
L 48.828125 35.546875 
z
M 62.109375 55.46875 
L 62.109375 69.53125 
L 48.828125 69.53125 
L 48.828125 55.46875 
z
" id="SimHei-29702"/>
     <path d="M 90.625 77.734375 
Q 90.234375 67.96875 90.234375 56.25 
L 90.234375 14.453125 
Q 90.234375 2.34375 90.625 -9.375 
L 82.8125 -9.375 
L 82.8125 -4.296875 
L 17.578125 -4.296875 
L 17.578125 -10.15625 
L 9.765625 -10.15625 
Q 10.15625 1.953125 10.15625 14.84375 
L 10.15625 56.25 
Q 10.15625 67.578125 9.765625 77.734375 
L 90.625 77.734375 
z
M 82.8125 2.34375 
L 82.8125 71.484375 
L 17.578125 71.484375 
L 17.578125 2.34375 
z
M 50.390625 66.40625 
Q 48.046875 64.0625 46.09375 61.328125 
L 72.265625 61.328125 
Q 70.703125 57.8125 67.1875 52.734375 
Q 63.671875 47.65625 56.25 40.625 
Q 67.96875 34.765625 79.296875 33.59375 
Q 76.5625 30.078125 74.609375 26.171875 
Q 60.15625 30.46875 50.390625 36.71875 
Q 39.0625 29.296875 26.171875 25.78125 
Q 25 29.296875 21.875 32.421875 
Q 34.375 34.375 44.921875 40.625 
Q 39.453125 45.703125 37.109375 49.21875 
Q 33.59375 45.3125 29.6875 41.40625 
Q 26.953125 44.53125 23.828125 46.09375 
Q 30.46875 51.5625 35.15625 58.390625 
Q 39.84375 65.234375 41.796875 69.921875 
Q 45.703125 67.96875 50.390625 66.40625 
z
M 38.28125 19.921875 
Q 55.46875 14.84375 64.0625 11.328125 
Q 62.109375 8.203125 60.15625 4.6875 
Q 44.140625 11.328125 35.546875 13.28125 
Q 37.109375 16.40625 38.28125 19.921875 
z
M 45.703125 32.03125 
Q 58.984375 26.5625 63.671875 25 
Q 61.71875 21.875 60.15625 17.96875 
Q 46.875 24.21875 42.1875 25.78125 
Q 44.140625 28.515625 45.703125 32.03125 
z
M 41.015625 53.90625 
Q 46.875 47.265625 51.171875 44.53125 
Q 56.25 48.4375 60.546875 55.078125 
L 41.796875 55.078125 
L 41.015625 53.90625 
z
" id="SimHei-22270"/>
    </defs>
    <g style="fill:#262626;" transform="translate(335.140625 16.85625)scale(0.12 -0.12)">
     <use xlink:href="#SimHei-38144"/>
     <use x="100" xlink:href="#SimHei-21806"/>
     <use x="200" xlink:href="#SimHei-22320"/>
     <use x="300" xlink:href="#SimHei-29702"/>
     <use x="400" xlink:href="#SimHei-21344"/>
     <use x="500" xlink:href="#SimHei-27604"/>
     <use x="600" xlink:href="#SimHei-22270"/>
    </g>
   </g>
  </g>
  <g id="axes_2">
   <g id="patch_17">
    <path d="M 42.340625 675.17625 
L 711.940625 675.17625 
L 711.940625 378.667159 
L 42.340625 378.667159 
z
" style="fill:#eaeaf2;"/>
   </g>
   <g id="matplotlib.axis_3">
    <g id="xtick_11">
     <g id="line2d_20">
      <path clip-path="url(#pe60dd363f9)" d="M 93.411811 675.17625 
L 93.411811 378.667159 
" style="fill:none;stroke:#ffffff;stroke-linecap:round;stroke-width:0.8;"/>
     </g>
     <g id="text_22">
      <!-- Italy -->
      <g style="fill:#262626;" transform="translate(80.911811 689.05125)scale(0.1 -0.1)">
       <use xlink:href="#SimHei-73"/>
       <use x="50" xlink:href="#SimHei-116"/>
       <use x="100" xlink:href="#SimHei-97"/>
       <use x="150" xlink:href="#SimHei-108"/>
       <use x="200" xlink:href="#SimHei-121"/>
      </g>
     </g>
    </g>
    <g id="xtick_12">
     <g id="line2d_21">
      <path clip-path="url(#pe60dd363f9)" d="M 144.998868 675.17625 
L 144.998868 378.667159 
" style="fill:none;stroke:#ffffff;stroke-linecap:round;stroke-width:0.8;"/>
     </g>
     <g id="text_23">
      <!-- Singapore -->
      <g style="fill:#262626;" transform="translate(122.498868 689.129375)scale(0.1 -0.1)">
       <use xlink:href="#SimHei-83"/>
       <use x="50" xlink:href="#SimHei-105"/>
       <use x="100" xlink:href="#SimHei-110"/>
       <use x="150" xlink:href="#SimHei-103"/>
       <use x="200" xlink:href="#SimHei-97"/>
       <use x="250" xlink:href="#SimHei-112"/>
       <use x="300" xlink:href="#SimHei-111"/>
       <use x="350" xlink:href="#SimHei-114"/>
       <use x="400" xlink:href="#SimHei-101"/>
      </g>
     </g>
    </g>
    <g id="xtick_13">
     <g id="line2d_22">
      <path clip-path="url(#pe60dd363f9)" d="M 196.585925 675.17625 
L 196.585925 378.667159 
" style="fill:none;stroke:#ffffff;stroke-linecap:round;stroke-width:0.8;"/>
     </g>
     <g id="text_24">
      <!-- USA -->
      <g style="fill:#262626;" transform="translate(189.085925 689.05125)scale(0.1 -0.1)">
       <use xlink:href="#SimHei-85"/>
       <use x="50" xlink:href="#SimHei-83"/>
       <use x="100" xlink:href="#SimHei-65"/>
      </g>
     </g>
    </g>
    <g id="xtick_14">
     <g id="line2d_23">
      <path clip-path="url(#pe60dd363f9)" d="M 248.172982 675.17625 
L 248.172982 378.667159 
" style="fill:none;stroke:#ffffff;stroke-linecap:round;stroke-width:0.8;"/>
     </g>
     <g id="text_25">
      <!-- Switzerland -->
      <g style="fill:#262626;" transform="translate(220.672982 689.05125)scale(0.1 -0.1)">
       <use xlink:href="#SimHei-83"/>
       <use x="50" xlink:href="#SimHei-119"/>
       <use x="100" xlink:href="#SimHei-105"/>
       <use x="150" xlink:href="#SimHei-116"/>
       <use x="200" xlink:href="#SimHei-122"/>
       <use x="250" xlink:href="#SimHei-101"/>
       <use x="300" xlink:href="#SimHei-114"/>
       <use x="350" xlink:href="#SimHei-108"/>
       <use x="400" xlink:href="#SimHei-97"/>
       <use x="450" xlink:href="#SimHei-110"/>
       <use x="500" xlink:href="#SimHei-100"/>
      </g>
     </g>
    </g>
    <g id="xtick_15">
     <g id="line2d_24">
      <path clip-path="url(#pe60dd363f9)" d="M 299.760039 675.17625 
L 299.760039 378.667159 
" style="fill:none;stroke:#ffffff;stroke-linecap:round;stroke-width:0.8;"/>
     </g>
     <g id="text_26">
      <!-- Hong Kong -->
      <defs>
       <path d="M 44.53125 1.953125 
L 35.546875 1.953125 
L 35.546875 33.203125 
L 13.28125 33.203125 
L 13.28125 1.953125 
L 4.296875 1.953125 
L 4.296875 68.75 
L 13.28125 68.75 
L 13.28125 40.625 
L 35.546875 40.625 
L 35.546875 68.75 
L 44.53125 68.75 
z
" id="SimHei-72"/>
      </defs>
      <g style="fill:#262626;" transform="translate(277.260039 689.05125)scale(0.1 -0.1)">
       <use xlink:href="#SimHei-72"/>
       <use x="50" xlink:href="#SimHei-111"/>
       <use x="100" xlink:href="#SimHei-110"/>
       <use x="150" xlink:href="#SimHei-103"/>
       <use x="200" xlink:href="#SimHei-32"/>
       <use x="250" xlink:href="#SimHei-75"/>
       <use x="300" xlink:href="#SimHei-111"/>
       <use x="350" xlink:href="#SimHei-110"/>
       <use x="400" xlink:href="#SimHei-103"/>
      </g>
     </g>
    </g>
    <g id="xtick_16">
     <g id="line2d_25">
      <path clip-path="url(#pe60dd363f9)" d="M 351.347096 675.17625 
L 351.347096 378.667159 
" style="fill:none;stroke:#ffffff;stroke-linecap:round;stroke-width:0.8;"/>
     </g>
     <g id="text_27">
      <!-- Bahrain -->
      <g style="fill:#262626;" transform="translate(333.847096 689.05125)scale(0.1 -0.1)">
       <use xlink:href="#SimHei-66"/>
       <use x="50" xlink:href="#SimHei-97"/>
       <use x="100" xlink:href="#SimHei-104"/>
       <use x="150" xlink:href="#SimHei-114"/>
       <use x="200" xlink:href="#SimHei-97"/>
       <use x="250" xlink:href="#SimHei-105"/>
       <use x="300" xlink:href="#SimHei-110"/>
      </g>
     </g>
    </g>
    <g id="xtick_17">
     <g id="line2d_26">
      <path clip-path="url(#pe60dd363f9)" d="M 402.934154 675.17625 
L 402.934154 378.667159 
" style="fill:none;stroke:#ffffff;stroke-linecap:round;stroke-width:0.8;"/>
     </g>
     <g id="text_28">
      <!-- Germany -->
      <g style="fill:#262626;" transform="translate(385.434154 689.129375)scale(0.1 -0.1)">
       <use xlink:href="#SimHei-71"/>
       <use x="50" xlink:href="#SimHei-101"/>
       <use x="100" xlink:href="#SimHei-114"/>
       <use x="150" xlink:href="#SimHei-109"/>
       <use x="200" xlink:href="#SimHei-97"/>
       <use x="250" xlink:href="#SimHei-110"/>
       <use x="300" xlink:href="#SimHei-121"/>
      </g>
     </g>
    </g>
    <g id="xtick_18">
     <g id="line2d_27">
      <path clip-path="url(#pe60dd363f9)" d="M 454.521211 675.17625 
L 454.521211 378.667159 
" style="fill:none;stroke:#ffffff;stroke-linecap:round;stroke-width:0.8;"/>
     </g>
     <g id="text_29">
      <!-- Sweden -->
      <g style="fill:#262626;" transform="translate(439.521211 689.05125)scale(0.1 -0.1)">
       <use xlink:href="#SimHei-83"/>
       <use x="50" xlink:href="#SimHei-119"/>
       <use x="100" xlink:href="#SimHei-101"/>
       <use x="150" xlink:href="#SimHei-100"/>
       <use x="200" xlink:href="#SimHei-101"/>
       <use x="250" xlink:href="#SimHei-110"/>
      </g>
     </g>
    </g>
    <g id="xtick_19">
     <g id="line2d_28">
      <path clip-path="url(#pe60dd363f9)" d="M 506.108268 675.17625 
L 506.108268 378.667159 
" style="fill:none;stroke:#ffffff;stroke-linecap:round;stroke-width:0.8;"/>
     </g>
     <g id="text_30">
      <!-- Channel Islands -->
      <defs>
       <path d="M 46.484375 28.515625 
Q 46.09375 13.671875 40.234375 7.421875 
Q 34.375 1.171875 26.171875 1.171875 
Q 16.796875 1.171875 10.15625 8.78125 
Q 3.515625 16.40625 3.515625 33.203125 
Q 3.515625 51.5625 9.953125 60.546875 
Q 16.40625 69.53125 26.5625 69.53125 
Q 35.15625 69.53125 40.8125 63.078125 
Q 46.484375 56.640625 46.09375 44.921875 
L 37.5 44.921875 
Q 37.5 53.515625 34.765625 57.8125 
Q 32.03125 62.109375 26.5625 62.109375 
Q 20.3125 62.109375 16.59375 55.65625 
Q 12.890625 49.21875 12.890625 33.984375 
Q 12.890625 19.921875 16.59375 14.25 
Q 20.3125 8.59375 26.171875 8.59375 
Q 30.46875 8.59375 33.984375 12.6875 
Q 37.5 16.796875 37.5 28.515625 
z
" id="SimHei-67"/>
      </defs>
      <g style="fill:#262626;" transform="translate(468.608268 689.05125)scale(0.1 -0.1)">
       <use xlink:href="#SimHei-67"/>
       <use x="50" xlink:href="#SimHei-104"/>
       <use x="100" xlink:href="#SimHei-97"/>
       <use x="150" xlink:href="#SimHei-110"/>
       <use x="200" xlink:href="#SimHei-110"/>
       <use x="250" xlink:href="#SimHei-101"/>
       <use x="300" xlink:href="#SimHei-108"/>
       <use x="350" xlink:href="#SimHei-32"/>
       <use x="400" xlink:href="#SimHei-73"/>
       <use x="450" xlink:href="#SimHei-115"/>
       <use x="500" xlink:href="#SimHei-108"/>
       <use x="550" xlink:href="#SimHei-97"/>
       <use x="600" xlink:href="#SimHei-110"/>
       <use x="650" xlink:href="#SimHei-100"/>
       <use x="700" xlink:href="#SimHei-115"/>
      </g>
     </g>
    </g>
    <g id="xtick_20">
     <g id="line2d_29">
      <path clip-path="url(#pe60dd363f9)" d="M 557.695325 675.17625 
L 557.695325 378.667159 
" style="fill:none;stroke:#ffffff;stroke-linecap:round;stroke-width:0.8;"/>
     </g>
     <g id="text_31">
      <!-- Poland -->
      <g style="fill:#262626;" transform="translate(542.695325 689.05125)scale(0.1 -0.1)">
       <use xlink:href="#SimHei-80"/>
       <use x="50" xlink:href="#SimHei-111"/>
       <use x="100" xlink:href="#SimHei-108"/>
       <use x="150" xlink:href="#SimHei-97"/>
       <use x="200" xlink:href="#SimHei-110"/>
       <use x="250" xlink:href="#SimHei-100"/>
      </g>
     </g>
    </g>
    <g id="xtick_21">
     <g id="line2d_30">
      <path clip-path="url(#pe60dd363f9)" d="M 609.282382 675.17625 
L 609.282382 378.667159 
" style="fill:none;stroke:#ffffff;stroke-linecap:round;stroke-width:0.8;"/>
     </g>
     <g id="text_32">
      <!-- EIRE -->
      <g style="fill:#262626;" transform="translate(599.282382 689.05125)scale(0.1 -0.1)">
       <use xlink:href="#SimHei-69"/>
       <use x="50" xlink:href="#SimHei-73"/>
       <use x="100" xlink:href="#SimHei-82"/>
       <use x="150" xlink:href="#SimHei-69"/>
      </g>
     </g>
    </g>
    <g id="xtick_22">
     <g id="line2d_31">
      <path clip-path="url(#pe60dd363f9)" d="M 660.869439 675.17625 
L 660.869439 378.667159 
" style="fill:none;stroke:#ffffff;stroke-linecap:round;stroke-width:0.8;"/>
     </g>
     <g id="text_33">
      <!-- Cyprus -->
      <g style="fill:#262626;" transform="translate(645.869439 689.129375)scale(0.1 -0.1)">
       <use xlink:href="#SimHei-67"/>
       <use x="50" xlink:href="#SimHei-121"/>
       <use x="100" xlink:href="#SimHei-112"/>
       <use x="150" xlink:href="#SimHei-114"/>
       <use x="200" xlink:href="#SimHei-117"/>
       <use x="250" xlink:href="#SimHei-115"/>
      </g>
     </g>
    </g>
   </g>
   <g id="matplotlib.axis_4">
    <g id="ytick_10">
     <g id="line2d_32">
      <path clip-path="url(#pe60dd363f9)" d="M 42.340625 675.17625 
L 711.940625 675.17625 
" style="fill:none;stroke:#ffffff;stroke-linecap:round;stroke-width:0.8;"/>
     </g>
     <g id="text_34">
      <!-- 0.0 -->
      <g style="fill:#262626;" transform="translate(20.340625 678.61375)scale(0.1 -0.1)">
       <use xlink:href="#SimHei-48"/>
       <use x="50" xlink:href="#SimHei-46"/>
       <use x="100" xlink:href="#SimHei-48"/>
      </g>
     </g>
    </g>
    <g id="ytick_11">
     <g id="line2d_33">
      <path clip-path="url(#pe60dd363f9)" d="M 42.340625 612.053867 
L 711.940625 612.053867 
" style="fill:none;stroke:#ffffff;stroke-linecap:round;stroke-width:0.8;"/>
     </g>
     <g id="text_35">
      <!-- 0.1 -->
      <g style="fill:#262626;" transform="translate(20.340625 615.491367)scale(0.1 -0.1)">
       <use xlink:href="#SimHei-48"/>
       <use x="50" xlink:href="#SimHei-46"/>
       <use x="100" xlink:href="#SimHei-49"/>
      </g>
     </g>
    </g>
    <g id="ytick_12">
     <g id="line2d_34">
      <path clip-path="url(#pe60dd363f9)" d="M 42.340625 548.931483 
L 711.940625 548.931483 
" style="fill:none;stroke:#ffffff;stroke-linecap:round;stroke-width:0.8;"/>
     </g>
     <g id="text_36">
      <!-- 0.2 -->
      <g style="fill:#262626;" transform="translate(20.340625 552.368983)scale(0.1 -0.1)">
       <use xlink:href="#SimHei-48"/>
       <use x="50" xlink:href="#SimHei-46"/>
       <use x="100" xlink:href="#SimHei-50"/>
      </g>
     </g>
    </g>
    <g id="ytick_13">
     <g id="line2d_35">
      <path clip-path="url(#pe60dd363f9)" d="M 42.340625 485.8091 
L 711.940625 485.8091 
" style="fill:none;stroke:#ffffff;stroke-linecap:round;stroke-width:0.8;"/>
     </g>
     <g id="text_37">
      <!-- 0.3 -->
      <g style="fill:#262626;" transform="translate(20.340625 489.2466)scale(0.1 -0.1)">
       <use xlink:href="#SimHei-48"/>
       <use x="50" xlink:href="#SimHei-46"/>
       <use x="100" xlink:href="#SimHei-51"/>
      </g>
     </g>
    </g>
    <g id="ytick_14">
     <g id="line2d_36">
      <path clip-path="url(#pe60dd363f9)" d="M 42.340625 422.686716 
L 711.940625 422.686716 
" style="fill:none;stroke:#ffffff;stroke-linecap:round;stroke-width:0.8;"/>
     </g>
     <g id="text_38">
      <!-- 0.4 -->
      <g style="fill:#262626;" transform="translate(20.340625 426.124216)scale(0.1 -0.1)">
       <use xlink:href="#SimHei-48"/>
       <use x="50" xlink:href="#SimHei-46"/>
       <use x="100" xlink:href="#SimHei-52"/>
      </g>
     </g>
    </g>
    <g id="text_39">
     <!-- 退货率 -->
     <defs>
      <path d="M 85.15625 80.078125 
Q 84.765625 72.65625 84.765625 60.9375 
Q 84.765625 49.609375 85.15625 41.796875 
L 45.3125 41.796875 
L 45.3125 15.234375 
Q 53.125 19.53125 58.59375 22.265625 
Q 59.375 18.75 60.9375 14.453125 
Q 54.6875 12.109375 39.0625 3.515625 
L 33.984375 10.9375 
Q 37.5 13.671875 37.5 18.75 
L 37.5 65.234375 
Q 37.5 72.65625 37.109375 80.078125 
L 85.15625 80.078125 
z
M 24.609375 46.484375 
Q 23.828125 39.453125 23.828125 33.984375 
L 23.828125 9.375 
Q 36.328125 -0.390625 59.953125 -0.1875 
Q 83.59375 0 96.09375 3.125 
Q 94.140625 -1.5625 93.75 -6.640625 
Q 79.6875 -7.8125 69.53125 -8.203125 
Q 59.375 -8.59375 46.671875 -6.828125 
Q 33.984375 -5.078125 27.921875 -1.5625 
Q 21.875 1.953125 17.96875 -0.96875 
Q 14.0625 -3.90625 9.375 -9.375 
Q 6.640625 -5.078125 3.515625 -2.34375 
Q 10.546875 3.90625 16.40625 7.421875 
L 16.40625 39.0625 
Q 11.328125 39.0625 5.46875 38.671875 
L 5.46875 46.875 
Q 11.71875 46.484375 16.796875 46.484375 
z
M 90.625 34.765625 
Q 79.6875 27.734375 76.171875 23.828125 
Q 88.671875 14.84375 92.1875 12.109375 
Q 87.890625 9.375 85.546875 5.46875 
Q 78.125 12.109375 68.546875 19.328125 
Q 58.984375 26.5625 50.78125 32.421875 
Q 53.515625 34.765625 56.640625 37.5 
Q 67.1875 30.46875 70.703125 27.34375 
Q 76.171875 32.03125 82.03125 39.84375 
Q 85.546875 37.109375 90.625 34.765625 
z
M 77.34375 64.453125 
L 77.34375 73.4375 
L 45.3125 73.4375 
L 45.3125 64.453125 
z
M 77.34375 48.828125 
L 77.34375 57.8125 
L 45.3125 57.8125 
L 45.3125 48.828125 
z
M 19.921875 80.078125 
Q 25 67.1875 26.953125 60.9375 
Q 22.265625 60.546875 18.359375 58.203125 
Q 17.1875 64.84375 11.71875 78.125 
Q 15.625 78.90625 19.921875 80.078125 
z
" id="SimHei-36864"/>
      <path d="M 62.109375 79.296875 
Q 61.71875 74.21875 61.71875 64.0625 
Q 63.671875 65.234375 70.703125 68.359375 
Q 77.734375 71.484375 83.984375 76.5625 
Q 86.71875 72.265625 89.0625 68.75 
Q 84.765625 67.578125 77.921875 64.25 
Q 71.09375 60.9375 61.71875 57.03125 
L 61.71875 50.390625 
Q 61.71875 47.265625 67.1875 47.265625 
L 80.078125 47.265625 
Q 84.765625 47.265625 85.734375 49.21875 
Q 86.71875 51.171875 87.109375 56.640625 
Q 91.40625 53.90625 95.703125 52.734375 
Q 93.359375 44.921875 91.015625 42.96875 
Q 88.671875 41.015625 85.546875 41.015625 
L 62.5 41.015625 
Q 53.515625 41.015625 53.515625 48.828125 
L 53.515625 55.078125 
Q 45.3125 51.953125 40.234375 50.390625 
Q 37.890625 54.6875 36.71875 57.03125 
Q 42.96875 58.59375 53.515625 61.328125 
Q 53.515625 74.21875 53.125 79.296875 
L 62.109375 79.296875 
z
M 81.25 34.375 
Q 80.859375 28.515625 80.859375 22.265625 
Q 80.859375 16.40625 81.25 9.375 
L 72.265625 9.375 
L 72.265625 27.734375 
L 30.46875 27.734375 
L 30.46875 9.765625 
L 21.875 9.765625 
Q 22.265625 16.015625 22.265625 21.875 
Q 22.265625 28.125 21.875 34.375 
L 81.25 34.375 
z
M 41.015625 75.78125 
Q 37.890625 73.4375 32.03125 67.1875 
Q 32.03125 45.3125 32.421875 38.28125 
L 23.4375 38.28125 
Q 23.828125 45.3125 23.828125 59.765625 
Q 20.3125 56.640625 17.1875 53.515625 
Q 14.0625 50.390625 10.9375 47.65625 
Q 7.421875 50.78125 5.078125 53.125 
Q 13.28125 58.203125 20.703125 66.203125 
Q 28.125 74.21875 32.03125 80.859375 
Q 36.328125 76.953125 41.015625 75.78125 
z
M 55.46875 20.703125 
Q 53.515625 15.234375 51.75 10.734375 
Q 50 6.25 45.703125 2.140625 
Q 41.40625 -1.953125 33.59375 -5.078125 
Q 25.78125 -8.203125 12.5 -10.546875 
Q 11.328125 -6.25 7.421875 -1.5625 
Q 18.75 -1.171875 26.171875 0.390625 
Q 33.59375 1.953125 37.6875 5.078125 
Q 41.796875 8.203125 43.546875 12.109375 
Q 45.3125 16.015625 46.484375 21.875 
Q 50.78125 21.09375 55.46875 20.703125 
z
M 87.109375 -10.546875 
Q 80.078125 -6.25 72.65625 -2.921875 
Q 65.234375 0.390625 55.859375 3.90625 
Q 58.203125 7.8125 59.765625 11.328125 
Q 67.96875 7.8125 75 4.6875 
Q 82.03125 1.5625 91.796875 -2.734375 
Q 89.0625 -6.25 87.109375 -10.546875 
z
" id="SimHei-36135"/>
      <path d="M 51.953125 80.46875 
Q 53.515625 76.5625 55.46875 70.703125 
L 75 70.703125 
Q 82.03125 70.703125 90.625 71.09375 
L 90.625 64.453125 
Q 82.03125 65.234375 74.609375 65.234375 
L 43.75 65.234375 
Q 46.484375 63.28125 51.5625 60.9375 
Q 48.046875 58.59375 44.921875 55.265625 
Q 41.796875 51.953125 38.671875 48.828125 
L 51.171875 48.828125 
Q 55.859375 53.515625 58.984375 58.984375 
Q 62.5 56.25 66.796875 53.515625 
Q 61.71875 50.78125 56.25 44.921875 
Q 50.78125 39.0625 41.015625 31.25 
L 60.15625 32.8125 
Q 58.203125 35.15625 56.25 37.890625 
Q 58.59375 38.671875 62.5 41.40625 
Q 66.40625 36.71875 73.4375 26.5625 
Q 69.921875 25.390625 66.015625 22.65625 
Q 65.234375 25 62.890625 27.734375 
Q 57.8125 27.34375 53.515625 27.34375 
L 53.515625 16.40625 
L 80.46875 16.40625 
Q 88.671875 16.40625 95.3125 16.796875 
L 95.3125 10.15625 
Q 89.0625 10.546875 80.078125 10.546875 
L 53.515625 10.546875 
L 53.515625 2.734375 
Q 53.515625 -4.6875 53.90625 -9.765625 
L 45.3125 -9.765625 
Q 45.703125 -4.6875 45.703125 2.734375 
L 45.703125 10.546875 
L 20.703125 10.546875 
Q 12.890625 10.546875 5.078125 10.15625 
L 5.078125 16.796875 
Q 12.890625 16.40625 21.09375 16.40625 
L 45.703125 16.40625 
L 45.703125 26.5625 
Q 42.1875 26.171875 38.671875 25.578125 
Q 35.15625 25 31.640625 23.828125 
Q 30.46875 27.734375 28.90625 31.25 
Q 32.421875 31.640625 36.328125 34.375 
Q 40.234375 37.109375 46.484375 43.75 
Q 35.9375 42.578125 31.640625 41.015625 
Q 30.859375 44.921875 28.90625 49.609375 
Q 32.421875 49.609375 36.328125 54.484375 
Q 40.234375 59.375 42.96875 65.234375 
L 26.5625 65.234375 
Q 17.96875 65.234375 10.15625 64.453125 
L 10.15625 71.09375 
Q 17.96875 70.703125 24.21875 70.703125 
L 46.484375 70.703125 
Q 45.3125 75.390625 43.75 78.515625 
Q 47.265625 79.296875 51.953125 80.46875 
z
M 25.390625 40.234375 
Q 26.953125 37.5 28.515625 34.375 
Q 24.609375 32.03125 20.703125 29.09375 
Q 16.796875 26.171875 12.5 22.265625 
Q 9.765625 26.171875 7.421875 29.296875 
Q 12.5 31.640625 17.1875 34.5625 
Q 21.875 37.5 25.390625 40.234375 
z
M 75.78125 41.40625 
Q 80.078125 38.671875 83.390625 36.515625 
Q 86.71875 34.375 91.796875 30.46875 
Q 88.671875 28.125 85.9375 25 
Q 82.8125 27.734375 79.09375 30.859375 
Q 75.390625 33.984375 71.484375 36.328125 
Q 73.828125 38.671875 75.78125 41.40625 
z
M 89.453125 55.078125 
Q 86.71875 53.90625 82.8125 50.96875 
Q 78.90625 48.046875 75 44.140625 
Q 72.265625 47.65625 69.921875 49.609375 
Q 73.4375 51.953125 76.171875 54.484375 
Q 78.90625 57.03125 82.8125 61.328125 
Q 86.328125 57.8125 89.453125 55.078125 
z
M 16.40625 60.15625 
Q 22.265625 56.25 27.734375 51.171875 
Q 24.609375 48.4375 22.265625 45.703125 
Q 16.796875 51.5625 10.546875 55.078125 
Q 13.671875 57.8125 16.40625 60.15625 
z
" id="SimHei-29575"/>
     </defs>
     <g style="fill:#262626;" transform="translate(15.090625 541.921705)rotate(-90)scale(0.1 -0.1)">
      <use xlink:href="#SimHei-36864"/>
      <use x="100" xlink:href="#SimHei-36135"/>
      <use x="200" xlink:href="#SimHei-29575"/>
     </g>
    </g>
   </g>
   <g id="patch_18">
    <path clip-path="url(#pe60dd363f9)" d="M 72.776989 675.17625 
L 114.046634 675.17625 
L 114.046634 392.78664 
L 72.776989 392.78664 
z
" style="fill:#1f77b4;stroke:#ffffff;stroke-linejoin:miter;"/>
   </g>
   <g id="patch_19">
    <path clip-path="url(#pe60dd363f9)" d="M 124.364046 675.17625 
L 165.633691 675.17625 
L 165.633691 404.651749 
L 124.364046 404.651749 
z
" style="fill:#1f77b4;stroke:#ffffff;stroke-linejoin:miter;"/>
   </g>
   <g id="patch_20">
    <path clip-path="url(#pe60dd363f9)" d="M 175.951103 675.17625 
L 217.220748 675.17625 
L 217.220748 422.686716 
L 175.951103 422.686716 
z
" style="fill:#1f77b4;stroke:#ffffff;stroke-linejoin:miter;"/>
   </g>
   <g id="patch_21">
    <path clip-path="url(#pe60dd363f9)" d="M 227.53816 675.17625 
L 268.807805 675.17625 
L 268.807805 441.389644 
L 227.53816 441.389644 
z
" style="fill:#1f77b4;stroke:#ffffff;stroke-linejoin:miter;"/>
   </g>
   <g id="patch_22">
    <path clip-path="url(#pe60dd363f9)" d="M 279.125217 675.17625 
L 320.394862 675.17625 
L 320.394862 445.64031 
L 279.125217 445.64031 
z
" style="fill:#1f77b4;stroke:#ffffff;stroke-linejoin:miter;"/>
   </g>
   <g id="patch_23">
    <path clip-path="url(#pe60dd363f9)" d="M 330.712274 675.17625 
L 371.981919 675.17625 
L 371.981919 464.768305 
L 330.712274 464.768305 
z
" style="fill:#1f77b4;stroke:#ffffff;stroke-linejoin:miter;"/>
   </g>
   <g id="patch_24">
    <path clip-path="url(#pe60dd363f9)" d="M 382.299331 675.17625 
L 423.568976 675.17625 
L 423.568976 473.516119 
L 382.299331 473.516119 
z
" style="fill:#1f77b4;stroke:#ffffff;stroke-linejoin:miter;"/>
   </g>
   <g id="patch_25">
    <path clip-path="url(#pe60dd363f9)" d="M 433.886388 675.17625 
L 475.156033 675.17625 
L 475.156033 499.836296 
L 433.886388 499.836296 
z
" style="fill:#1f77b4;stroke:#ffffff;stroke-linejoin:miter;"/>
   </g>
   <g id="patch_26">
    <path clip-path="url(#pe60dd363f9)" d="M 485.473445 675.17625 
L 526.74309 675.17625 
L 526.74309 505.231371 
L 485.473445 505.231371 
z
" style="fill:#1f77b4;stroke:#ffffff;stroke-linejoin:miter;"/>
   </g>
   <g id="patch_27">
    <path clip-path="url(#pe60dd363f9)" d="M 537.060502 675.17625 
L 578.330147 675.17625 
L 578.330147 509.064714 
L 537.060502 509.064714 
z
" style="fill:#1f77b4;stroke:#ffffff;stroke-linejoin:miter;"/>
   </g>
   <g id="patch_28">
    <path clip-path="url(#pe60dd363f9)" d="M 588.647559 675.17625 
L 629.917204 675.17625 
L 629.917204 517.370291 
L 588.647559 517.370291 
z
" style="fill:#1f77b4;stroke:#ffffff;stroke-linejoin:miter;"/>
   </g>
   <g id="patch_29">
    <path clip-path="url(#pe60dd363f9)" d="M 640.234616 675.17625 
L 681.504261 675.17625 
L 681.504261 517.370291 
L 640.234616 517.370291 
z
" style="fill:#1f77b4;stroke:#ffffff;stroke-linejoin:miter;"/>
   </g>
   <g id="patch_30">
    <path d="M 42.340625 675.17625 
L 42.340625 378.667159 
" style="fill:none;stroke:#ffffff;stroke-linecap:square;stroke-linejoin:miter;stroke-width:0.8;"/>
   </g>
   <g id="patch_31">
    <path d="M 711.940625 675.17625 
L 711.940625 378.667159 
" style="fill:none;stroke:#ffffff;stroke-linecap:square;stroke-linejoin:miter;stroke-width:0.8;"/>
   </g>
   <g id="patch_32">
    <path d="M 42.340625 675.17625 
L 711.940625 675.17625 
" style="fill:none;stroke:#ffffff;stroke-linecap:square;stroke-linejoin:miter;stroke-width:0.8;"/>
   </g>
   <g id="patch_33">
    <path d="M 42.340625 378.667159 
L 711.940625 378.667159 
" style="fill:none;stroke:#ffffff;stroke-linecap:square;stroke-linejoin:miter;stroke-width:0.8;"/>
   </g>
   <g id="text_40">
    <!-- 退货率地理分布图 -->
    <defs>
     <path d="M 15.625 -10.15625 
Q 12.890625 -5.859375 8.984375 -3.515625 
Q 15.234375 -1.171875 20.3125 2.140625 
Q 25.390625 5.46875 29.296875 10.34375 
Q 33.203125 15.234375 35.15625 21.09375 
Q 37.109375 26.953125 37.890625 35.546875 
Q 28.90625 35.546875 23.4375 35.15625 
L 23.4375 43.359375 
Q 29.6875 42.96875 39.453125 42.96875 
L 78.515625 42.96875 
Q 77.734375 37.109375 77.34375 32.8125 
L 74.21875 3.90625 
Q 73.4375 -3.125 67.96875 -5.46875 
Q 62.5 -7.8125 55.859375 -8.203125 
Q 55.46875 -4.296875 51.953125 0.78125 
Q 60.15625 0.390625 63.078125 1.359375 
Q 66.015625 2.34375 66.796875 8.203125 
L 69.53125 35.546875 
L 46.09375 35.546875 
Q 44.921875 25.390625 42.765625 18.546875 
Q 40.625 11.71875 36.71875 6.640625 
Q 32.8125 1.5625 27.34375 -2.734375 
Q 21.875 -7.03125 15.625 -10.15625 
z
M 61.71875 80.859375 
Q 64.453125 72.65625 72.84375 62.109375 
Q 81.25 51.5625 96.484375 43.75 
Q 93.359375 41.015625 90.234375 35.546875 
Q 83.203125 40.625 77.921875 45.109375 
Q 72.65625 49.609375 69.140625 53.515625 
Q 65.625 57.421875 61.328125 64.640625 
Q 57.03125 71.875 54.296875 78.125 
Q 58.59375 79.296875 61.71875 80.859375 
z
M 42.1875 75.390625 
Q 38.671875 69.140625 36.328125 64.453125 
Q 33.984375 59.765625 31.640625 56.046875 
Q 29.296875 52.34375 24.609375 46.09375 
Q 19.921875 39.84375 13.28125 33.203125 
Q 9.765625 36.71875 6.25 38.671875 
Q 14.0625 45.703125 18.546875 51.5625 
Q 23.046875 57.421875 27.140625 64.25 
Q 31.25 71.09375 34.375 79.296875 
Q 37.5 76.953125 42.1875 75.390625 
z
" id="SimHei-20998"/>
     <path d="M 37.109375 66.015625 
Q 41.40625 74.609375 43.359375 82.8125 
Q 48.828125 80.859375 53.125 79.296875 
Q 51.171875 77.734375 46.09375 66.015625 
L 75 66.015625 
Q 86.71875 66.015625 94.140625 66.40625 
L 94.140625 59.375 
L 42.578125 59.375 
Q 36.328125 48.4375 30.859375 41.796875 
L 51.171875 41.796875 
Q 51.171875 50.390625 50.78125 55.859375 
L 58.984375 55.859375 
Q 58.59375 50.390625 58.59375 41.796875 
L 85.9375 41.796875 
Q 85.546875 34.765625 85.546875 27.734375 
L 85.546875 11.71875 
Q 85.546875 4.296875 81.4375 2.34375 
Q 77.34375 0.390625 69.53125 -0.390625 
Q 68.75 5.078125 66.015625 8.59375 
Q 75 8.59375 76.75 9.765625 
Q 78.515625 10.9375 78.125 16.015625 
L 78.125 35.15625 
L 58.59375 35.15625 
L 58.59375 8.59375 
Q 58.59375 0.390625 58.984375 -9.375 
L 50.78125 -9.375 
Q 51.171875 0.390625 51.171875 8.59375 
L 51.171875 35.15625 
L 32.8125 35.15625 
L 32.8125 0 
L 25 0 
Q 25.390625 8.203125 25.390625 16.015625 
L 25.390625 34.765625 
Q 20.3125 28.90625 10.15625 19.921875 
Q 7.421875 23.046875 3.125 25.78125 
Q 11.71875 31.640625 19.71875 40.03125 
Q 27.734375 48.4375 33.59375 59.375 
L 24.21875 59.375 
Q 14.453125 59.375 6.25 58.984375 
L 6.25 66.40625 
Q 14.453125 66.015625 24.21875 66.015625 
z
" id="SimHei-24067"/>
    </defs>
    <g style="fill:#262626;" transform="translate(329.140625 372.667159)scale(0.12 -0.12)">
     <use xlink:href="#SimHei-36864"/>
     <use x="100" xlink:href="#SimHei-36135"/>
     <use x="200" xlink:href="#SimHei-29575"/>
     <use x="300" xlink:href="#SimHei-22320"/>
     <use x="400" xlink:href="#SimHei-29702"/>
     <use x="500" xlink:href="#SimHei-20998"/>
     <use x="600" xlink:href="#SimHei-24067"/>
     <use x="700" xlink:href="#SimHei-22270"/>
    </g>
   </g>
  </g>
 </g>
 <defs>
  <clipPath id="p03786b1808">
   <rect height="296.509091" width="669.6" x="42.340625" y="22.85625"/>
  </clipPath>
  <clipPath id="pe60dd363f9">
   <rect height="296.509091" width="669.6" x="42.340625" y="378.667159"/>
  </clipPath>
 </defs>
</svg>
