<?xml version="1.0" encoding="utf-8" standalone="no"?>
<!DOCTYPE svg PUBLIC "-//W3C//DTD SVG 1.1//EN"
  "http://www.w3.org/Graphics/SVG/1.1/DTD/svg11.dtd">
<!-- Created with matplotlib (https://matplotlib.org/) -->
<svg height="253.7775pt" version="1.1" viewBox="0 0 354.162951 253.7775" width="354.162951pt" xmlns="http://www.w3.org/2000/svg" xmlns:xlink="http://www.w3.org/1999/xlink">
 <defs>
  <style type="text/css">
*{stroke-linecap:butt;stroke-linejoin:round;}
  </style>
 </defs>
 <g id="figure_1">
  <g id="patch_1">
   <path d="M 0 253.7775 
L 354.162951 253.7775 
L 354.162951 0 
L 0 0 
z
" style="fill:#ffffff;"/>
  </g>
  <g id="axes_1">
   <g id="patch_2">
    <path d="M 260.522697 138.236415 
C 260.522697 127.389277 258.493509 116.637247 254.540047 106.536229 
C 250.586585 96.435212 244.778178 87.16234 237.415132 79.197042 
C 230.052086 71.231744 221.263522 64.713701 211.503828 59.979909 
C 201.744134 55.246117 191.184457 52.37959 180.370757 51.528533 
C 169.557056 50.677476 158.678963 51.856814 148.298899 55.005572 
C 137.918834 58.15433 128.218825 63.217291 119.700383 69.932688 
C 111.181941 76.648086 103.994448 84.898158 98.509512 94.256357 
C 93.024576 103.614556 89.338383 113.916776 87.641516 124.630368 
C 85.944649 135.34396 86.266866 146.28105 88.591507 156.876165 
C 90.916147 167.47128 95.202447 177.538622 101.228793 186.557688 
C 107.25514 195.576755 114.915855 203.389385 123.814863 209.591649 
C 132.713871 215.793912 142.695117 220.277045 153.242548 222.80926 
C 163.789979 225.341475 174.718634 225.878366 185.463477 224.392175 
C 196.20832 222.905984 206.580927 219.422773 216.045013 214.122631 
C 225.509098 208.822489 233.898698 201.798361 240.78005 193.41341 
C 247.661403 185.028459 252.913835 175.429725 256.265786 165.113484 
L 173.546697 138.236415 
L 260.522697 138.236415 
z
" style="fill:#4c0000;opacity:0.5;stroke:#4c0000;stroke-linejoin:miter;"/>
   </g>
   <g id="patch_3">
    <path d="M 264.856304 166.474088 
C 266.264307 162.140702 267.329618 157.703366 268.042395 153.20307 
C 268.755172 148.702775 269.113214 144.153419 269.113215 139.597026 
L 182.137215 139.59702 
L 264.856304 166.474088 
z
" style="fill:#002600;opacity:0.5;stroke:#002600;stroke-linejoin:miter;"/>
   </g>
   <g id="patch_4">
    <path d="M 262.262217 136.496895 
C 262.262217 125.649757 260.233029 114.897727 256.279567 104.796709 
C 252.326105 94.695692 246.517698 85.42282 239.154652 77.457522 
C 231.791606 69.492224 223.003042 62.974181 213.243348 58.240389 
C 203.483654 53.506597 192.923977 50.64007 182.110277 49.789013 
C 171.296576 48.937956 160.418483 50.117294 150.038419 53.266052 
C 139.658354 56.41481 129.958345 61.477771 121.439903 68.193168 
C 112.921461 74.908566 105.733968 83.158638 100.249032 92.516837 
C 94.764096 101.875036 91.077903 112.177256 89.381036 122.890848 
C 87.684169 133.60444 88.006386 144.54153 90.331027 155.136645 
C 92.655667 165.73176 96.941967 175.799102 102.968313 184.818168 
C 108.99466 193.837235 116.655375 201.649865 125.554383 207.852129 
C 134.453391 214.054392 144.434637 218.537525 154.982068 221.06974 
C 165.529499 223.601955 176.458154 224.138846 187.202997 222.652655 
C 197.94784 221.166464 208.320447 217.683253 217.784533 212.383111 
C 227.248618 207.082969 235.638218 200.058841 242.51957 191.67389 
C 249.400923 183.288939 254.653355 173.690205 258.005306 163.373964 
L 175.286217 136.496895 
L 262.262217 136.496895 
z
" style="fill:#ff0000;"/>
   </g>
   <g id="patch_5">
    <path d="M 266.595824 164.734568 
C 268.003827 160.401182 269.069138 155.963846 269.781915 151.46355 
C 270.494692 146.963255 270.852734 142.413899 270.852735 137.857506 
L 183.876735 137.8575 
L 266.595824 164.734568 
z
" style="fill:#008000;"/>
   </g>
   <g id="matplotlib.axis_1"/>
   <g id="matplotlib.axis_2"/>
   <g id="text_1">
    <!-- 已注册用户-38 -->
    <defs>
     <path d="M 82.421875 73.828125 
Q 82.03125 66.796875 82.03125 60.15625 
L 82.03125 45.703125 
Q 82.03125 37.5 82.421875 29.6875 
L 73.828125 29.6875 
L 73.828125 35.546875 
L 22.265625 35.546875 
L 22.265625 9.375 
Q 21.484375 0 32.03125 0.390625 
L 70.703125 0.390625 
Q 77.34375 0 79.875 2.34375 
Q 82.421875 4.6875 83.59375 15.625 
Q 87.890625 12.890625 93.359375 11.328125 
Q 91.015625 0.78125 88.078125 -2.921875 
Q 85.15625 -6.640625 79.6875 -7.03125 
L 27.34375 -7.03125 
Q 13.28125 -7.421875 14.0625 5.078125 
L 14.0625 38.671875 
Q 14.0625 42.578125 13.671875 53.125 
L 23.046875 53.125 
Q 22.65625 47.65625 22.65625 42.1875 
L 73.828125 42.1875 
L 73.828125 66.796875 
L 30.46875 66.796875 
Q 21.484375 66.796875 10.15625 66.40625 
L 10.15625 74.21875 
Q 21.484375 73.828125 30.078125 73.828125 
z
" id="SimHei-24050"/>
     <path d="M 73.046875 63.28125 
Q 80.46875 63.28125 90.234375 63.671875 
L 90.234375 56.25 
Q 79.6875 56.640625 73.4375 56.640625 
L 65.625 56.640625 
L 65.625 35.15625 
L 73.046875 35.15625 
Q 79.6875 35.15625 88.671875 35.546875 
L 88.671875 28.125 
Q 80.078125 28.515625 73.046875 28.515625 
L 65.625 28.515625 
L 65.625 0 
L 75.390625 0 
Q 84.765625 0 94.921875 0.390625 
L 94.921875 -7.03125 
Q 84.765625 -6.640625 75.78125 -6.640625 
L 47.265625 -6.640625 
Q 37.109375 -6.640625 30.46875 -7.03125 
L 30.46875 0.390625 
Q 36.71875 0 47.65625 0 
L 57.8125 0 
L 57.8125 28.515625 
L 51.5625 28.515625 
Q 44.140625 28.515625 37.5 28.125 
L 37.5 35.546875 
Q 44.140625 35.15625 51.953125 35.15625 
L 57.8125 35.15625 
L 57.8125 56.640625 
L 50.390625 56.640625 
Q 42.578125 56.640625 34.765625 56.25 
L 34.765625 63.671875 
Q 42.578125 63.28125 50.78125 63.28125 
z
M 30.46875 22.265625 
Q 26.171875 15.234375 20.890625 4.484375 
Q 15.625 -6.25 13.671875 -10.546875 
Q 9.765625 -6.640625 5.078125 -3.90625 
Q 9.375 0 14.84375 9.5625 
Q 20.3125 19.140625 24.609375 28.125 
Q 27.34375 24.609375 30.46875 22.265625 
z
M 11.328125 52.34375 
Q 20.3125 46.484375 27.34375 41.796875 
Q 25 39.0625 22.265625 34.765625 
Q 14.84375 41.40625 6.640625 46.09375 
Q 8.984375 48.4375 11.328125 52.34375 
z
M 16.015625 78.515625 
Q 25.390625 71.484375 30.46875 66.015625 
Q 26.953125 63.28125 25 60.15625 
Q 18.359375 67.96875 10.546875 72.65625 
Q 13.28125 75.390625 16.015625 78.515625 
z
M 50.390625 77.34375 
Q 53.125 79.296875 55.859375 82.03125 
Q 60.9375 77.734375 68.359375 69.53125 
Q 65.234375 67.1875 62.109375 64.453125 
Q 55.46875 72.65625 50.390625 77.34375 
z
" id="SimHei-27880"/>
     <path d="M 44.53125 76.953125 
Q 44.140625 71.09375 44.140625 62.890625 
L 44.140625 39.84375 
L 56.25 39.84375 
L 56.25 63.28125 
Q 56.25 70.703125 55.859375 76.953125 
L 84.765625 76.953125 
Q 84.375 71.484375 84.375 62.890625 
L 84.375 39.84375 
Q 89.84375 39.84375 96.09375 40.234375 
L 96.09375 32.8125 
Q 89.453125 33.203125 84.375 33.203125 
L 84.375 2.734375 
Q 84.375 -4.296875 81.4375 -6.046875 
Q 78.515625 -7.8125 70.3125 -9.375 
Q 69.53125 -4.296875 66.796875 -0.390625 
Q 71.875 -0.390625 74.015625 0 
Q 76.171875 0.390625 76.953125 4.296875 
L 76.953125 33.203125 
L 63.28125 33.203125 
Q 62.5 5.859375 53.125 -10.15625 
Q 50 -7.03125 45.703125 -5.859375 
Q 55.078125 6.640625 55.859375 33.203125 
L 44.140625 33.203125 
L 44.140625 0.390625 
Q 44.140625 -5.46875 40.421875 -6.640625 
Q 36.71875 -7.8125 31.640625 -8.984375 
Q 30.46875 -5.078125 28.125 -0.390625 
Q 32.8125 -0.390625 34.5625 -0.1875 
Q 36.328125 0 36.71875 3.125 
L 36.71875 33.203125 
L 24.21875 33.203125 
Q 23.4375 6.640625 13.28125 -9.765625 
Q 9.765625 -7.03125 5.46875 -5.859375 
Q 16.015625 8.59375 16.40625 33.203125 
Q 11.328125 33.203125 4.296875 32.8125 
L 4.296875 40.234375 
Q 10.9375 39.84375 16.796875 39.84375 
L 16.796875 62.5 
Q 16.796875 71.09375 16.40625 76.953125 
L 44.53125 76.953125 
z
M 76.953125 39.84375 
L 76.953125 69.921875 
L 63.671875 69.921875 
L 63.671875 39.84375 
z
M 36.71875 39.84375 
L 36.71875 69.921875 
L 24.21875 69.921875 
L 24.21875 39.84375 
z
" id="SimHei-20876"/>
     <path d="M 5.46875 -4.6875 
Q 10.15625 1.953125 12.6875 9.375 
Q 15.234375 16.796875 15.8125 24.21875 
Q 16.40625 31.640625 16.40625 49.21875 
Q 16.40625 66.796875 16.015625 77.34375 
L 85.9375 77.34375 
Q 85.546875 66.015625 85.546875 57.03125 
L 85.546875 5.859375 
Q 85.546875 -2.34375 80.859375 -4.296875 
Q 76.171875 -6.25 69.921875 -7.03125 
Q 69.140625 -1.171875 67.1875 1.953125 
Q 75 1.5625 76.359375 2.53125 
Q 77.734375 3.515625 77.734375 6.25 
L 77.734375 25.78125 
L 53.90625 25.78125 
L 53.90625 10.546875 
Q 53.90625 1.953125 54.296875 -5.078125 
L 45.703125 -5.078125 
Q 46.09375 1.5625 46.09375 10.15625 
L 46.09375 25.78125 
L 23.828125 25.78125 
Q 22.265625 8.984375 13.28125 -8.203125 
Q 8.984375 -5.46875 5.46875 -4.6875 
z
M 77.734375 54.296875 
L 77.734375 71.09375 
L 53.90625 71.09375 
L 53.90625 54.296875 
z
M 77.734375 32.03125 
L 77.734375 48.4375 
L 53.90625 48.4375 
L 53.90625 32.03125 
z
M 46.09375 54.296875 
L 46.09375 71.09375 
L 23.828125 71.09375 
L 23.828125 54.296875 
z
M 46.09375 32.03125 
L 46.09375 48.4375 
L 23.828125 48.4375 
L 23.828125 32.03125 
z
" id="SimHei-29992"/>
     <path d="M 90.234375 63.28125 
Q 89.84375 53.90625 89.84375 41.796875 
Q 89.84375 30.078125 90.234375 23.4375 
L 81.640625 23.4375 
L 81.640625 29.296875 
L 27.34375 29.296875 
Q 25.78125 16.796875 23.4375 10.546875 
Q 21.09375 4.296875 18.359375 -0.578125 
Q 15.625 -5.46875 12.5 -9.765625 
Q 8.59375 -6.640625 3.90625 -5.078125 
Q 11.71875 3.125 14.640625 10.34375 
Q 17.578125 17.578125 18.546875 24.015625 
Q 19.53125 30.46875 19.53125 37.890625 
Q 19.53125 45.3125 19.140625 63.28125 
L 90.234375 63.28125 
z
M 81.25 36.328125 
L 81.25 56.25 
L 26.953125 56.25 
L 26.953125 36.328125 
z
M 53.125 82.421875 
Q 57.8125 73.046875 59.765625 67.578125 
Q 54.6875 66.40625 51.953125 64.84375 
Q 49.21875 73.046875 45.703125 79.296875 
Q 49.609375 80.46875 53.125 82.421875 
z
" id="SimHei-25143"/>
     <path d="M 46.484375 33.203125 
L 1.953125 33.203125 
L 1.953125 39.453125 
L 46.484375 39.453125 
z
" id="SimHei-45"/>
     <path d="M 3.90625 19.140625 
L 10.9375 20.3125 
Q 12.5 15.234375 16.015625 11.90625 
Q 19.53125 8.59375 24.796875 8.78125 
Q 30.078125 8.984375 33.203125 13.078125 
Q 36.328125 17.1875 35.9375 22.453125 
Q 35.546875 27.734375 31.828125 30.65625 
Q 28.125 33.59375 19.921875 34.765625 
L 19.921875 39.84375 
Q 28.125 40.625 31.828125 44.140625 
Q 35.546875 47.65625 35.15625 53.3125 
Q 34.765625 58.984375 30.078125 61.515625 
Q 25.390625 64.0625 20.109375 62.109375 
Q 14.84375 60.15625 11.71875 51.171875 
L 4.6875 52.34375 
Q 7.03125 59.375 11.125 64.0625 
Q 15.234375 68.75 22.265625 69.53125 
Q 29.296875 70.3125 34.5625 67.765625 
Q 39.84375 65.234375 41.984375 59.953125 
Q 44.140625 54.6875 42.578125 48.4375 
Q 41.015625 42.1875 33.59375 37.5 
Q 39.0625 35.15625 41.984375 30.46875 
Q 44.921875 25.78125 43.9375 18.15625 
Q 42.96875 10.546875 37.109375 5.859375 
Q 31.25 1.171875 23.828125 1.359375 
Q 16.40625 1.5625 10.9375 6.046875 
Q 5.46875 10.546875 3.90625 19.140625 
z
" id="SimHei-51"/>
     <path d="M 2.734375 16.796875 
Q 2.734375 26.171875 5.078125 30.65625 
Q 7.421875 35.15625 12.890625 37.890625 
Q 8.203125 40.625 6.640625 43.9375 
Q 5.078125 47.265625 4.875 51.5625 
Q 4.6875 55.859375 6.046875 58.984375 
Q 7.421875 62.109375 10.15625 64.84375 
Q 12.890625 67.578125 16.203125 68.546875 
Q 19.53125 69.53125 23.4375 69.53125 
Q 27.34375 69.53125 30.46875 68.75 
Q 33.59375 67.96875 37.109375 65.421875 
Q 40.625 62.890625 42.1875 58.203125 
Q 43.75 53.515625 41.984375 47.265625 
Q 40.234375 41.015625 32.8125 37.5 
Q 39.453125 35.546875 42.1875 31.4375 
Q 44.921875 27.34375 44.921875 21.484375 
Q 44.921875 15.625 43.15625 12.109375 
Q 41.40625 8.59375 39.25 6.25 
Q 37.109375 3.90625 33.390625 2.53125 
Q 29.6875 1.171875 24.015625 1.171875 
Q 18.359375 1.171875 14.25 2.53125 
Q 10.15625 3.90625 7.421875 6.640625 
Q 4.6875 9.375 3.703125 13.078125 
Q 2.734375 16.796875 2.734375 26.171875 
z
M 10.9375 26.5625 
Q 10.546875 17.1875 12.296875 13.671875 
Q 14.0625 10.15625 18.75 9.171875 
Q 23.4375 8.203125 28.515625 9.375 
Q 33.59375 10.546875 35.546875 14.84375 
Q 37.5 19.140625 36.90625 23.4375 
Q 36.328125 27.734375 32.03125 30.65625 
Q 27.734375 33.59375 22.65625 33.203125 
Q 17.578125 32.8125 14.25 29.6875 
Q 10.9375 26.5625 10.546875 17.1875 
z
M 12.109375 56.25 
Q 12.109375 48.4375 14.84375 44.921875 
Q 17.578125 41.40625 23.4375 41.40625 
Q 29.296875 41.40625 32.21875 44.921875 
Q 35.15625 48.4375 34.953125 53.3125 
Q 34.765625 58.203125 31.4375 60.546875 
Q 28.125 62.890625 22.453125 62.5 
Q 16.796875 62.109375 14.453125 59.171875 
Q 12.109375 56.25 12.109375 48.4375 
z
" id="SimHei-56"/>
    </defs>
    <g transform="translate(7.2 123.568076)scale(0.1 -0.1)">
     <use xlink:href="#SimHei-24050"/>
     <use x="100" xlink:href="#SimHei-27880"/>
     <use x="200" xlink:href="#SimHei-20876"/>
     <use x="300" xlink:href="#SimHei-29992"/>
     <use x="400" xlink:href="#SimHei-25143"/>
     <use x="500" xlink:href="#SimHei-45"/>
     <use x="550" xlink:href="#SimHei-51"/>
     <use x="600" xlink:href="#SimHei-56"/>
    </g>
   </g>
   <g id="text_2">
    <!-- 95.00% -->
    <defs>
     <path d="M 12.5 1.171875 
Q 21.09375 15.625 26.5625 27.34375 
Q 16.796875 25.78125 10.34375 29.875 
Q 3.90625 33.984375 2.53125 41.015625 
Q 1.171875 48.046875 2.734375 53.703125 
Q 4.296875 59.375 7.609375 63.078125 
Q 10.9375 66.796875 15.625 68.359375 
Q 20.3125 69.921875 24.015625 69.921875 
Q 27.734375 69.921875 31.640625 68.359375 
Q 35.546875 66.796875 38.671875 63.671875 
Q 41.796875 60.546875 42.96875 57.21875 
Q 44.140625 53.90625 44.140625 48.625 
Q 44.140625 43.359375 40.234375 35.15625 
Q 36.328125 26.953125 21.09375 1.171875 
z
M 9.765625 50 
Q 10.9375 39.84375 14.640625 36.515625 
Q 18.359375 33.203125 22.65625 33.59375 
Q 26.953125 33.984375 29.484375 35.9375 
Q 32.03125 37.890625 34.375 42.578125 
Q 35.9375 48.4375 35.15625 52.53125 
Q 34.375 56.640625 31.046875 59.375 
Q 27.734375 62.109375 23.828125 62.109375 
Q 21.484375 62.5 17.765625 60.9375 
Q 14.0625 59.375 11.90625 54.6875 
Q 9.765625 50 10.9375 39.84375 
z
" id="SimHei-57"/>
     <path d="M 8.59375 20.703125 
Q 11.328125 10.15625 17.96875 8.984375 
Q 24.609375 7.8125 28.703125 10.34375 
Q 32.8125 12.890625 34.5625 16.984375 
Q 36.328125 21.09375 36.125 26.171875 
Q 35.9375 31.25 33.390625 34.765625 
Q 30.859375 38.28125 26.953125 39.453125 
Q 23.046875 40.625 18.15625 39.453125 
Q 13.28125 38.28125 10.15625 33.984375 
L 3.515625 34.765625 
Q 4.296875 37.109375 10.9375 68.359375 
L 41.796875 68.359375 
L 41.796875 61.328125 
L 16.796875 61.328125 
Q 14.84375 50.78125 12.890625 44.53125 
Q 18.75 47.265625 23.828125 47.0625 
Q 28.90625 46.875 33.59375 44.71875 
Q 38.28125 42.578125 40.421875 38.859375 
Q 42.578125 35.15625 43.546875 31.4375 
Q 44.53125 27.734375 44.328125 23.4375 
Q 44.140625 19.140625 42.578125 14.640625 
Q 41.015625 10.15625 37.890625 7.21875 
Q 34.765625 4.296875 30.265625 2.53125 
Q 25.78125 0.78125 19.921875 1.171875 
Q 14.0625 1.5625 8.78125 5.46875 
Q 3.515625 9.375 1.5625 18.75 
z
" id="SimHei-53"/>
     <path d="M 16.796875 1.953125 
L 7.8125 1.953125 
L 7.8125 10.546875 
L 16.796875 10.546875 
z
" id="SimHei-46"/>
     <path d="M 3.125 29.296875 
Q 3.90625 50 6.4375 56.046875 
Q 8.984375 62.109375 13.671875 66.015625 
Q 18.359375 69.921875 25.1875 69.921875 
Q 32.03125 69.921875 37.109375 64.25 
Q 42.1875 58.59375 43.75 50 
Q 45.3125 41.40625 44.71875 30.265625 
Q 44.140625 19.140625 40.8125 12.109375 
Q 37.5 5.078125 30.859375 2.34375 
Q 24.21875 -0.390625 17.578125 2.921875 
Q 10.9375 6.25 8.203125 11.71875 
Q 5.46875 17.1875 4.296875 23.234375 
Q 3.125 29.296875 3.90625 50 
z
M 12.890625 52.734375 
Q 10.546875 31.25 12.5 22.84375 
Q 14.453125 14.453125 18.9375 10.9375 
Q 23.4375 7.421875 28.125 9.5625 
Q 32.8125 11.71875 34.953125 18.15625 
Q 37.109375 24.609375 37.109375 32.21875 
Q 37.109375 39.84375 36.515625 46.09375 
Q 35.9375 52.34375 33 57.421875 
Q 30.078125 62.5 25.1875 62.6875 
Q 20.3125 62.890625 16.59375 57.8125 
Q 12.890625 52.734375 10.546875 31.25 
z
" id="SimHei-48"/>
     <path d="M 21.875 51.953125 
Q 21.875 40.625 18.546875 37.5 
Q 15.234375 34.375 12.109375 34.375 
Q 8.984375 34.375 5.65625 37.5 
Q 2.34375 40.625 2.34375 51.953125 
Q 2.34375 63.28125 5.65625 66.40625 
Q 8.984375 69.53125 12.109375 69.53125 
Q 15.234375 69.53125 18.546875 66.40625 
Q 21.875 63.28125 21.875 51.953125 
z
M 41.015625 68.359375 
L 10.9375 1.171875 
L 7.8125 2.34375 
L 37.890625 69.53125 
z
M 46.484375 18.75 
Q 46.484375 7.421875 43.15625 4.296875 
Q 39.84375 1.171875 36.71875 1.171875 
Q 33.59375 1.171875 30.265625 4.296875 
Q 26.953125 7.421875 26.953125 18.75 
Q 26.953125 30.078125 30.265625 33.203125 
Q 33.59375 36.328125 36.71875 36.328125 
Q 39.84375 36.328125 43.15625 33.203125 
Q 46.484375 30.078125 46.484375 18.75 
z
M 15.625 51.953125 
Q 15.625 58.984375 14.84375 61.328125 
Q 14.0625 63.671875 12.109375 63.671875 
Q 10.15625 63.671875 9.375 61.328125 
Q 8.59375 58.984375 8.59375 51.953125 
Q 8.59375 44.921875 9.375 42.578125 
Q 10.15625 40.234375 12.109375 40.234375 
Q 14.0625 40.234375 14.84375 42.578125 
Q 15.625 44.921875 15.625 51.953125 
z
M 40.234375 18.75 
Q 40.234375 25.78125 39.453125 28.125 
Q 38.671875 30.46875 36.71875 30.46875 
Q 34.765625 30.46875 33.984375 28.125 
Q 33.203125 25.78125 33.203125 18.75 
Q 33.203125 11.71875 33.984375 9.375 
Q 34.765625 7.03125 36.71875 7.03125 
Q 38.671875 7.03125 39.453125 9.375 
Q 40.234375 11.71875 40.234375 18.75 
z
" id="SimHei-37"/>
    </defs>
    <g transform="translate(108.743108 131.145767)scale(0.1 -0.1)">
     <use xlink:href="#SimHei-57"/>
     <use x="50" xlink:href="#SimHei-53"/>
     <use x="100" xlink:href="#SimHei-46"/>
     <use x="150" xlink:href="#SimHei-48"/>
     <use x="200" xlink:href="#SimHei-48"/>
     <use x="250" xlink:href="#SimHei-37"/>
    </g>
   </g>
   <g id="text_3">
    <!-- 新注册用户-2 -->
    <defs>
     <path d="M 95.703125 72.65625 
Q 89.84375 72.65625 66.796875 70.3125 
L 66.796875 50.390625 
L 87.109375 50.390625 
Q 91.40625 50.390625 96.09375 50.78125 
L 96.09375 43.359375 
Q 90.625 43.75 86.71875 43.75 
L 86.71875 3.515625 
Q 86.71875 -3.125 87.109375 -10.546875 
L 78.90625 -10.546875 
Q 79.296875 -3.125 79.296875 3.125 
L 79.296875 43.75 
L 66.796875 43.75 
Q 66.796875 33.984375 66.015625 25 
Q 65.234375 16.015625 62.6875 7.21875 
Q 60.15625 -1.5625 55.078125 -10.9375 
Q 51.171875 -8.59375 47.265625 -7.03125 
Q 53.515625 1.953125 56.046875 11.90625 
Q 58.59375 21.875 58.984375 29.296875 
Q 59.375 36.71875 59.375 51.5625 
Q 59.375 66.796875 58.984375 75.78125 
Q 76.5625 76.5625 90.625 81.25 
Q 93.75 75 95.703125 72.65625 
z
M 46.484375 59.765625 
Q 43.75 58.203125 40.234375 47.65625 
Q 46.875 47.65625 53.90625 48.046875 
L 53.90625 40.234375 
Q 47.265625 40.625 33.984375 40.625 
L 33.984375 30.859375 
Q 46.09375 30.859375 53.125 31.25 
L 53.125 23.4375 
Q 46.09375 23.828125 33.984375 23.828125 
L 33.984375 0 
Q 33.984375 -5.859375 30.265625 -7.8125 
Q 26.5625 -9.765625 20.703125 -9.765625 
Q 19.140625 -5.078125 16.796875 -1.171875 
Q 22.265625 -1.5625 24.40625 -1.171875 
Q 26.5625 -0.78125 26.5625 2.34375 
L 26.5625 23.828125 
Q 14.0625 23.828125 7.03125 23.4375 
L 7.03125 31.25 
Q 14.453125 30.859375 26.5625 30.859375 
L 26.5625 40.625 
Q 12.109375 40.625 5.078125 40.234375 
L 5.078125 48.046875 
Q 12.109375 47.65625 18.359375 47.65625 
L 33.203125 47.65625 
Q 36.328125 57.03125 37.890625 62.109375 
Q 41.015625 61.328125 46.484375 59.765625 
z
M 33.203125 82.421875 
Q 35.15625 74.21875 35.546875 71.09375 
Q 44.53125 71.09375 52.34375 71.484375 
L 52.34375 63.671875 
Q 44.140625 64.0625 39.0625 64.0625 
L 20.3125 64.0625 
Q 13.671875 64.0625 7.421875 63.671875 
L 7.421875 71.484375 
Q 14.0625 71.09375 20.3125 71.09375 
L 27.34375 71.09375 
Q 26.5625 75.390625 25 80.078125 
Q 28.90625 81.25 33.203125 82.421875 
z
M 23.828125 16.40625 
Q 21.484375 13.671875 18.359375 9.5625 
Q 15.234375 5.46875 9.375 -1.953125 
Q 6.640625 0.78125 3.515625 2.734375 
Q 11.71875 11.71875 16.40625 21.484375 
Q 20.3125 18.359375 23.828125 16.40625 
z
M 42.578125 20.3125 
Q 47.265625 14.0625 51.171875 7.421875 
Q 47.265625 5.46875 44.921875 2.34375 
Q 41.796875 9.375 36.71875 16.015625 
Q 39.453125 18.359375 42.578125 20.3125 
z
M 19.921875 61.71875 
Q 22.65625 56.25 24.609375 50.78125 
Q 21.09375 50 17.96875 48.4375 
Q 16.015625 54.296875 13.671875 58.984375 
Q 16.40625 60.546875 19.921875 61.71875 
z
" id="SimHei-26032"/>
     <path d="M 4.6875 3.90625 
Q 5.078125 9.765625 10.15625 14.453125 
Q 15.234375 19.140625 23.046875 29.09375 
Q 30.859375 39.0625 33.203125 44.53125 
Q 35.546875 50 34.953125 53.90625 
Q 34.375 57.8125 31.25 60.34375 
Q 28.125 62.890625 24.015625 62.5 
Q 19.921875 62.109375 16.203125 59.375 
Q 12.5 56.640625 10.546875 51.171875 
L 3.125 52.34375 
Q 6.25 61.328125 11.125 65.421875 
Q 16.015625 69.53125 22.65625 69.921875 
Q 26.5625 70.3125 29.6875 69.71875 
Q 32.8125 69.140625 36.125 66.984375 
Q 39.453125 64.84375 41.59375 60.546875 
Q 43.75 56.25 43.15625 50.1875 
Q 42.578125 44.140625 37.109375 35.734375 
Q 31.640625 27.34375 16.015625 9.375 
L 44.140625 9.375 
L 44.140625 2.34375 
L 4.6875 2.34375 
z
" id="SimHei-50"/>
    </defs>
    <g transform="translate(286.962951 157.602729)scale(0.1 -0.1)">
     <use xlink:href="#SimHei-26032"/>
     <use x="100" xlink:href="#SimHei-27880"/>
     <use x="200" xlink:href="#SimHei-20876"/>
     <use x="300" xlink:href="#SimHei-29992"/>
     <use x="400" xlink:href="#SimHei-25143"/>
     <use x="500" xlink:href="#SimHei-45"/>
     <use x="550" xlink:href="#SimHei-50"/>
    </g>
   </g>
   <g id="text_4">
    <!-- 5.00% -->
    <g transform="translate(222.919843 148.83363)scale(0.1 -0.1)">
     <use xlink:href="#SimHei-53"/>
     <use x="50" xlink:href="#SimHei-46"/>
     <use x="100" xlink:href="#SimHei-48"/>
     <use x="150" xlink:href="#SimHei-48"/>
     <use x="200" xlink:href="#SimHei-37"/>
    </g>
   </g>
   <g id="text_5">
    <!-- 下单用户状态 -->
    <defs>
     <path d="M 78.125 73.4375 
Q 85.546875 73.4375 93.359375 73.828125 
L 93.359375 65.625 
Q 84.765625 66.015625 78.125 66.015625 
L 51.171875 66.015625 
L 51.171875 5.859375 
Q 51.171875 0.78125 51.5625 -7.03125 
L 42.578125 -7.03125 
Q 42.96875 0 42.96875 5.859375 
L 42.96875 66.015625 
L 21.484375 66.015625 
Q 13.671875 66.015625 6.25 65.625 
L 6.25 73.828125 
Q 13.671875 73.4375 21.484375 73.4375 
z
M 88.28125 21.875 
Q 84.375 19.140625 81.25 15.625 
Q 75 23.828125 57.03125 40.234375 
L 62.890625 46.09375 
Q 73.4375 37.5 88.28125 21.875 
z
" id="SimHei-19979"/>
     <path d="M 82.421875 63.671875 
L 82.421875 23.828125 
L 53.125 23.828125 
L 53.125 14.453125 
L 78.90625 14.453125 
Q 87.5 14.453125 93.75 14.84375 
L 93.75 7.03125 
Q 87.109375 7.421875 78.90625 7.421875 
L 53.125 7.421875 
Q 53.125 -4.6875 53.515625 -9.765625 
L 44.921875 -9.765625 
Q 45.703125 -4.6875 45.703125 7.421875 
L 20.3125 7.421875 
Q 10.9375 7.421875 6.640625 7.03125 
L 6.640625 14.84375 
Q 10.546875 14.453125 19.53125 14.453125 
L 45.703125 14.453125 
L 45.703125 23.828125 
L 17.578125 23.828125 
Q 17.96875 30.46875 17.96875 42.96875 
Q 17.96875 55.46875 17.578125 63.671875 
L 56.25 63.671875 
Q 60.546875 72.65625 63.671875 82.03125 
Q 67.578125 80.078125 72.65625 77.734375 
Q 71.09375 75.78125 68.75 71.671875 
Q 66.40625 67.578125 64.0625 63.671875 
z
M 74.609375 30.078125 
L 74.609375 40.625 
L 53.125 40.625 
L 53.125 30.078125 
z
M 74.609375 46.875 
L 74.609375 57.03125 
L 53.125 57.03125 
L 53.125 46.875 
z
M 45.703125 30.078125 
L 45.703125 40.625 
L 25.390625 40.625 
L 25.390625 30.078125 
z
M 45.703125 46.875 
L 45.703125 57.03125 
L 25.390625 57.03125 
L 25.390625 46.875 
z
M 32.8125 81.640625 
Q 36.71875 77.34375 41.796875 67.96875 
Q 37.5 66.015625 34.765625 64.453125 
Q 30.859375 73.046875 26.953125 77.734375 
Q 29.6875 79.296875 32.8125 81.640625 
z
" id="SimHei-21333"/>
     <path d="M 34.765625 -4.296875 
Q 41.796875 0.390625 46.484375 7.421875 
Q 51.171875 14.453125 53.90625 21.09375 
Q 56.640625 27.734375 57.8125 33.984375 
Q 58.984375 40.234375 59.375 44.921875 
L 50.390625 44.921875 
Q 44.53125 44.921875 39.0625 44.53125 
L 39.0625 51.953125 
Q 44.53125 51.5625 50 51.5625 
L 59.765625 51.5625 
Q 59.765625 62.109375 59.5625 68.359375 
Q 59.375 74.609375 58.984375 79.296875 
L 69.140625 79.296875 
Q 67.96875 74.21875 67.765625 68.9375 
Q 67.578125 63.671875 67.578125 51.5625 
L 83.59375 51.5625 
Q 87.890625 51.5625 93.359375 51.953125 
L 93.359375 44.53125 
Q 87.890625 44.921875 83.59375 44.921875 
L 68.359375 44.921875 
Q 73.046875 22.65625 78.3125 15.03125 
Q 83.59375 7.421875 87.890625 4.09375 
Q 92.1875 0.78125 95.703125 -1.171875 
Q 90.234375 -3.515625 87.890625 -8.203125 
Q 81.640625 -3.125 77.921875 1.75 
Q 74.21875 6.640625 71.671875 11.328125 
Q 69.140625 16.015625 67.375 20.890625 
Q 65.625 25.78125 64.453125 31.25 
Q 62.5 21.875 59.5625 15.234375 
Q 56.640625 8.59375 53.515625 3.703125 
Q 50.390625 -1.171875 42.96875 -9.765625 
Q 39.453125 -6.25 34.765625 -4.296875 
z
M 34.765625 81.25 
Q 34.375 75.390625 34.375 66.40625 
L 34.375 12.109375 
Q 34.375 0.78125 34.765625 -9.765625 
L 26.171875 -9.765625 
Q 26.5625 1.171875 26.5625 12.109375 
L 26.5625 30.46875 
Q 23.828125 27.34375 18.75 21.09375 
Q 13.671875 14.84375 10.9375 11.71875 
Q 7.8125 15.625 4.296875 17.96875 
Q 8.984375 21.484375 14.25 26.75 
Q 19.53125 32.03125 26.5625 40.625 
L 26.5625 66.40625 
Q 26.5625 75.390625 26.171875 81.25 
L 34.765625 81.25 
z
M 9.765625 67.578125 
Q 12.5 64.453125 15.625 60.546875 
Q 18.75 56.640625 21.484375 52.734375 
Q 18.359375 50.390625 16.40625 48.046875 
Q 13.28125 52.34375 3.90625 63.28125 
Q 6.25 65.234375 9.765625 67.578125 
z
M 85.546875 57.03125 
Q 82.03125 62.109375 73.4375 69.921875 
Q 76.5625 72.265625 78.515625 74.21875 
Q 82.03125 71.484375 84.765625 68.546875 
Q 87.5 65.625 91.015625 62.109375 
Q 87.890625 59.375 85.546875 57.03125 
z
" id="SimHei-29366"/>
     <path d="M 40.234375 67.578125 
Q 42.1875 75 42.578125 82.03125 
Q 48.046875 80.078125 52.34375 79.6875 
Q 50.390625 76.171875 48.4375 67.578125 
L 78.515625 67.578125 
Q 83.984375 67.578125 91.015625 68.359375 
L 91.015625 60.15625 
Q 83.59375 60.546875 78.125 60.546875 
L 62.109375 60.546875 
Q 66.015625 51.5625 71.484375 46.671875 
Q 76.953125 41.796875 82.03125 39.453125 
Q 87.109375 37.109375 95.3125 35.546875 
Q 90.625 32.421875 88.671875 27.734375 
Q 76.5625 32.8125 70.703125 37.6875 
Q 64.84375 42.578125 60.9375 48.046875 
Q 57.03125 53.515625 54.6875 60.546875 
L 46.484375 60.546875 
Q 41.796875 50 34.171875 41.984375 
Q 26.5625 33.984375 11.328125 25.390625 
Q 10.15625 28.90625 4.6875 32.421875 
Q 14.0625 35.546875 23.625 42.96875 
Q 33.203125 50.390625 37.890625 60.546875 
L 20.3125 60.546875 
Q 14.0625 60.546875 7.03125 60.15625 
L 7.03125 68.359375 
Q 13.671875 67.578125 20.3125 67.578125 
z
M 39.453125 21.09375 
Q 39.0625 13.671875 39.0625 8.984375 
Q 39.0625 4.6875 39.25 2.34375 
Q 39.453125 0 43.75 0 
L 59.765625 0 
Q 62.890625 -0.390625 65.234375 0.96875 
Q 67.578125 2.34375 68.75 9.765625 
Q 72.65625 7.03125 77.734375 5.859375 
Q 74.609375 -2.34375 72.265625 -4.875 
Q 69.921875 -7.421875 62.5 -7.03125 
L 39.0625 -7.03125 
Q 32.03125 -6.25 31.4375 -2.53125 
Q 30.859375 1.171875 30.859375 6.640625 
Q 30.859375 12.5 30.46875 21.09375 
L 39.453125 21.09375 
z
M 22.265625 18.359375 
Q 18.359375 7.03125 12.890625 -5.078125 
Q 9.765625 -2.734375 5.078125 -1.953125 
Q 12.109375 9.765625 13.671875 21.484375 
Q 18.359375 19.53125 22.265625 18.359375 
z
M 80.859375 23.828125 
Q 87.5 14.84375 94.53125 5.46875 
Q 90.625 2.734375 87.5 0 
Q 81.640625 10.9375 74.21875 19.53125 
Q 78.125 21.09375 80.859375 23.828125 
z
M 42.1875 47.65625 
Q 49.609375 41.796875 54.6875 36.328125 
Q 51.171875 33.984375 48.4375 30.859375 
Q 44.140625 36.71875 36.71875 42.1875 
L 42.1875 47.65625 
z
M 52.734375 27.34375 
Q 56.640625 21.09375 59.765625 14.453125 
Q 56.640625 12.5 52.734375 10.546875 
Q 50 18.359375 46.09375 23.828125 
Q 49.609375 25 52.734375 27.34375 
z
" id="SimHei-24577"/>
    </defs>
    <g transform="translate(123.876735 23.1375)scale(0.2 -0.2)">
     <use xlink:href="#SimHei-19979"/>
     <use x="100" xlink:href="#SimHei-21333"/>
     <use x="200" xlink:href="#SimHei-29992"/>
     <use x="300" xlink:href="#SimHei-25143"/>
     <use x="400" xlink:href="#SimHei-29366"/>
     <use x="500" xlink:href="#SimHei-24577"/>
    </g>
   </g>
  </g>
 </g>
</svg>
