<?xml version="1.0" encoding="utf-8" standalone="no"?>
<!DOCTYPE svg PUBLIC "-//W3C//DTD SVG 1.1//EN"
  "http://www.w3.org/Graphics/SVG/1.1/DTD/svg11.dtd">
<!-- Created with matplotlib (https://matplotlib.org/) -->
<svg height="333.004687pt" version="1.1" viewBox="0 0 711 333.004687" width="711pt" xmlns="http://www.w3.org/2000/svg" xmlns:xlink="http://www.w3.org/1999/xlink">
 <defs>
  <style type="text/css">
*{stroke-linecap:butt;stroke-linejoin:round;}
  </style>
 </defs>
 <g id="figure_1">
  <g id="patch_1">
   <path d="M 0 333.004687 
L 711 333.004687 
L 711 0 
L 0 0 
z
" style="fill:#ffffff;"/>
  </g>
  <g id="axes_1">
   <g id="patch_2">
    <path d="M 34.2 297.421875 
L 703.8 297.421875 
L 703.8 25.621875 
L 34.2 25.621875 
z
" style="fill:#eaeaf2;"/>
   </g>
   <g id="matplotlib.axis_1">
    <g id="xtick_1">
     <g id="line2d_1">
      <path clip-path="url(#pd388146591)" d="M 81.652666 297.421875 
L 81.652666 25.621875 
" style="fill:none;stroke:#ffffff;stroke-linecap:round;stroke-width:0.8;"/>
     </g>
     <g id="text_1">
      <!-- 0 -->
      <defs>
       <path d="M 3.125 29.296875 
Q 3.90625 50 6.4375 56.046875 
Q 8.984375 62.109375 13.671875 66.015625 
Q 18.359375 69.921875 25.1875 69.921875 
Q 32.03125 69.921875 37.109375 64.25 
Q 42.1875 58.59375 43.75 50 
Q 45.3125 41.40625 44.71875 30.265625 
Q 44.140625 19.140625 40.8125 12.109375 
Q 37.5 5.078125 30.859375 2.34375 
Q 24.21875 -0.390625 17.578125 2.921875 
Q 10.9375 6.25 8.203125 11.71875 
Q 5.46875 17.1875 4.296875 23.234375 
Q 3.125 29.296875 3.90625 50 
z
M 12.890625 52.734375 
Q 10.546875 31.25 12.5 22.84375 
Q 14.453125 14.453125 18.9375 10.9375 
Q 23.4375 7.421875 28.125 9.5625 
Q 32.8125 11.71875 34.953125 18.15625 
Q 37.109375 24.609375 37.109375 32.21875 
Q 37.109375 39.84375 36.515625 46.09375 
Q 35.9375 52.34375 33 57.421875 
Q 30.078125 62.5 25.1875 62.6875 
Q 20.3125 62.890625 16.59375 57.8125 
Q 12.890625 52.734375 10.546875 31.25 
z
" id="SimHei-48"/>
      </defs>
      <g style="fill:#262626;" transform="translate(79.152666 311.296875)scale(0.1 -0.1)">
       <use xlink:href="#SimHei-48"/>
      </g>
     </g>
    </g>
    <g id="xtick_2">
     <g id="line2d_2">
      <path clip-path="url(#pd388146591)" d="M 196.591599 297.421875 
L 196.591599 25.621875 
" style="fill:none;stroke:#ffffff;stroke-linecap:round;stroke-width:0.8;"/>
     </g>
     <g id="text_2">
      <!-- 5 -->
      <defs>
       <path d="M 8.59375 20.703125 
Q 11.328125 10.15625 17.96875 8.984375 
Q 24.609375 7.8125 28.703125 10.34375 
Q 32.8125 12.890625 34.5625 16.984375 
Q 36.328125 21.09375 36.125 26.171875 
Q 35.9375 31.25 33.390625 34.765625 
Q 30.859375 38.28125 26.953125 39.453125 
Q 23.046875 40.625 18.15625 39.453125 
Q 13.28125 38.28125 10.15625 33.984375 
L 3.515625 34.765625 
Q 4.296875 37.109375 10.9375 68.359375 
L 41.796875 68.359375 
L 41.796875 61.328125 
L 16.796875 61.328125 
Q 14.84375 50.78125 12.890625 44.53125 
Q 18.75 47.265625 23.828125 47.0625 
Q 28.90625 46.875 33.59375 44.71875 
Q 38.28125 42.578125 40.421875 38.859375 
Q 42.578125 35.15625 43.546875 31.4375 
Q 44.53125 27.734375 44.328125 23.4375 
Q 44.140625 19.140625 42.578125 14.640625 
Q 41.015625 10.15625 37.890625 7.21875 
Q 34.765625 4.296875 30.265625 2.53125 
Q 25.78125 0.78125 19.921875 1.171875 
Q 14.0625 1.5625 8.78125 5.46875 
Q 3.515625 9.375 1.5625 18.75 
z
" id="SimHei-53"/>
      </defs>
      <g style="fill:#262626;" transform="translate(194.091599 311.296875)scale(0.1 -0.1)">
       <use xlink:href="#SimHei-53"/>
      </g>
     </g>
    </g>
    <g id="xtick_3">
     <g id="line2d_3">
      <path clip-path="url(#pd388146591)" d="M 311.530533 297.421875 
L 311.530533 25.621875 
" style="fill:none;stroke:#ffffff;stroke-linecap:round;stroke-width:0.8;"/>
     </g>
     <g id="text_3">
      <!-- 10 -->
      <defs>
       <path d="M 21.875 56.25 
Q 16.796875 51.171875 8.984375 46.484375 
L 8.984375 53.90625 
Q 18.75 60.546875 25 69.53125 
L 29.6875 69.53125 
L 29.6875 2.34375 
L 21.875 2.34375 
z
" id="SimHei-49"/>
      </defs>
      <g style="fill:#262626;" transform="translate(306.530533 311.296875)scale(0.1 -0.1)">
       <use xlink:href="#SimHei-49"/>
       <use x="50" xlink:href="#SimHei-48"/>
      </g>
     </g>
    </g>
    <g id="xtick_4">
     <g id="line2d_4">
      <path clip-path="url(#pd388146591)" d="M 426.469467 297.421875 
L 426.469467 25.621875 
" style="fill:none;stroke:#ffffff;stroke-linecap:round;stroke-width:0.8;"/>
     </g>
     <g id="text_4">
      <!-- 15 -->
      <g style="fill:#262626;" transform="translate(421.469467 311.296875)scale(0.1 -0.1)">
       <use xlink:href="#SimHei-49"/>
       <use x="50" xlink:href="#SimHei-53"/>
      </g>
     </g>
    </g>
    <g id="xtick_5">
     <g id="line2d_5">
      <path clip-path="url(#pd388146591)" d="M 541.408401 297.421875 
L 541.408401 25.621875 
" style="fill:none;stroke:#ffffff;stroke-linecap:round;stroke-width:0.8;"/>
     </g>
     <g id="text_5">
      <!-- 20 -->
      <defs>
       <path d="M 4.6875 3.90625 
Q 5.078125 9.765625 10.15625 14.453125 
Q 15.234375 19.140625 23.046875 29.09375 
Q 30.859375 39.0625 33.203125 44.53125 
Q 35.546875 50 34.953125 53.90625 
Q 34.375 57.8125 31.25 60.34375 
Q 28.125 62.890625 24.015625 62.5 
Q 19.921875 62.109375 16.203125 59.375 
Q 12.5 56.640625 10.546875 51.171875 
L 3.125 52.34375 
Q 6.25 61.328125 11.125 65.421875 
Q 16.015625 69.53125 22.65625 69.921875 
Q 26.5625 70.3125 29.6875 69.71875 
Q 32.8125 69.140625 36.125 66.984375 
Q 39.453125 64.84375 41.59375 60.546875 
Q 43.75 56.25 43.15625 50.1875 
Q 42.578125 44.140625 37.109375 35.734375 
Q 31.640625 27.34375 16.015625 9.375 
L 44.140625 9.375 
L 44.140625 2.34375 
L 4.6875 2.34375 
z
" id="SimHei-50"/>
      </defs>
      <g style="fill:#262626;" transform="translate(536.408401 311.296875)scale(0.1 -0.1)">
       <use xlink:href="#SimHei-50"/>
       <use x="50" xlink:href="#SimHei-48"/>
      </g>
     </g>
    </g>
    <g id="xtick_6">
     <g id="line2d_6">
      <path clip-path="url(#pd388146591)" d="M 656.347334 297.421875 
L 656.347334 25.621875 
" style="fill:none;stroke:#ffffff;stroke-linecap:round;stroke-width:0.8;"/>
     </g>
     <g id="text_6">
      <!-- 25 -->
      <g style="fill:#262626;" transform="translate(651.347334 311.296875)scale(0.1 -0.1)">
       <use xlink:href="#SimHei-50"/>
       <use x="50" xlink:href="#SimHei-53"/>
      </g>
     </g>
    </g>
    <g id="text_7">
     <!-- 间隔时间（h） -->
     <defs>
      <path d="M 69.53125 55.46875 
Q 69.140625 48.046875 69.140625 42.578125 
L 69.140625 21.875 
Q 69.140625 16.796875 69.53125 9.765625 
L 30.078125 9.765625 
Q 30.46875 16.796875 30.46875 22.265625 
L 30.46875 42.578125 
Q 30.46875 48.046875 30.078125 55.46875 
L 69.53125 55.46875 
z
M 90.625 76.171875 
Q 90.234375 68.75 90.234375 61.328125 
L 90.234375 3.90625 
Q 90.625 -5.078125 85.34375 -7.03125 
Q 80.078125 -8.984375 73.828125 -9.765625 
Q 73.4375 -5.078125 70.703125 -0.390625 
Q 78.125 -0.78125 80.265625 0.390625 
Q 82.421875 1.5625 82.421875 5.46875 
L 82.421875 69.53125 
L 58.984375 69.53125 
Q 49.609375 69.53125 41.40625 69.140625 
L 41.40625 76.5625 
Q 49.609375 76.171875 58.984375 76.171875 
z
M 8.59375 -8.203125 
Q 9.375 -0.390625 9.375 8.203125 
L 9.375 49.21875 
Q 9.375 57.421875 8.59375 62.890625 
L 17.578125 62.890625 
Q 17.1875 57.03125 17.1875 51.5625 
L 17.1875 7.8125 
Q 17.1875 0 17.578125 -8.203125 
z
M 61.71875 16.015625 
L 61.71875 30.46875 
L 37.890625 30.46875 
L 37.890625 16.015625 
z
M 61.71875 36.71875 
L 61.71875 49.21875 
L 37.890625 49.21875 
L 37.890625 36.71875 
z
M 23.828125 82.8125 
Q 27.34375 78.125 34.765625 67.96875 
Q 30.46875 66.015625 26.5625 63.671875 
Q 22.65625 71.484375 16.796875 78.515625 
Q 21.09375 81.640625 23.828125 82.8125 
z
" id="SimHei-38388"/>
      <path d="M 14.0625 71.484375 
L 14.0625 -7.421875 
L 6.25 -7.421875 
Q 6.640625 2.734375 6.640625 13.28125 
L 6.640625 60.9375 
Q 6.640625 69.921875 6.25 77.34375 
L 36.328125 77.34375 
Q 34.765625 73.828125 32.21875 65.421875 
Q 29.6875 57.03125 27.34375 48.828125 
Q 33.59375 39.0625 35.34375 33.203125 
Q 37.109375 27.34375 35.9375 22.453125 
Q 34.765625 17.578125 30.078125 15.234375 
Q 25.390625 12.890625 20.703125 12.109375 
Q 19.921875 15.625 17.1875 20.703125 
Q 23.046875 20.703125 25.96875 22.0625 
Q 28.90625 23.4375 28.703125 28.3125 
Q 28.515625 33.203125 25.78125 38.28125 
Q 23.046875 43.359375 19.140625 48.046875 
Q 24.609375 63.28125 26.5625 71.484375 
z
M 94.140625 37.890625 
Q 93.75 32.8125 93.75 25 
L 93.75 2.734375 
Q 93.75 -3.125 90.03125 -4.875 
Q 86.328125 -6.640625 78.90625 -7.421875 
Q 78.90625 -3.125 76.171875 1.171875 
Q 82.421875 0.78125 84.171875 1.171875 
Q 85.9375 1.5625 86.328125 4.6875 
L 86.328125 32.03125 
L 46.484375 32.03125 
L 46.484375 -6.640625 
L 38.671875 -6.640625 
Q 39.0625 -1.171875 39.0625 15.234375 
Q 39.0625 32.03125 38.671875 37.890625 
L 94.140625 37.890625 
z
M 87.109375 64.84375 
Q 86.71875 60.15625 86.71875 55.46875 
Q 86.71875 50.78125 87.109375 44.921875 
L 44.140625 44.921875 
Q 44.53125 50.78125 44.53125 55.46875 
Q 44.53125 60.15625 44.140625 64.84375 
L 87.109375 64.84375 
z
M 80.078125 28.515625 
Q 78.515625 25.78125 77.140625 23.046875 
Q 75.78125 20.3125 74.609375 17.578125 
Q 77.734375 17.578125 82.8125 17.96875 
L 82.8125 10.9375 
Q 78.515625 11.328125 73.828125 11.328125 
L 69.140625 11.328125 
Q 69.140625 1.953125 69.53125 -2.734375 
L 61.328125 -2.734375 
Q 61.71875 1.953125 61.71875 11.328125 
L 60.15625 11.328125 
Q 54.6875 11.328125 50.390625 10.9375 
L 50.390625 17.96875 
Q 56.25 17.578125 60.546875 17.578125 
L 68.359375 17.578125 
Q 69.140625 20.3125 70.3125 23.4375 
Q 71.484375 26.5625 71.875 31.25 
L 80.078125 28.515625 
z
M 82.03125 77.34375 
Q 89.0625 77.34375 94.140625 77.734375 
L 94.140625 70.703125 
Q 89.0625 71.09375 82.421875 71.09375 
L 56.25 71.09375 
Q 46.484375 71.09375 39.84375 70.703125 
L 39.84375 77.734375 
Q 46.875 77.34375 56.25 77.34375 
z
M 79.296875 50.78125 
L 79.296875 58.984375 
L 52.34375 58.984375 
L 52.34375 50.78125 
z
M 57.8125 17.96875 
Q 55.078125 23.046875 52.34375 26.953125 
Q 54.6875 28.125 58.59375 30.46875 
L 64.0625 21.09375 
Q 60.9375 19.140625 57.8125 17.96875 
z
" id="SimHei-38548"/>
      <path d="M 39.453125 71.484375 
Q 39.0625 57.421875 39.0625 37.5 
Q 39.0625 17.578125 39.453125 6.25 
L 31.25 6.25 
L 31.25 13.671875 
L 15.625 13.671875 
L 15.625 0.78125 
L 7.421875 0.78125 
Q 7.8125 18.75 7.8125 36.71875 
Q 7.8125 55.078125 7.421875 71.484375 
L 39.453125 71.484375 
z
M 76.171875 59.765625 
Q 76.171875 71.484375 75.78125 81.640625 
L 84.375 81.640625 
Q 83.984375 71.484375 83.984375 59.765625 
Q 89.84375 59.765625 96.484375 60.15625 
L 96.484375 52.734375 
Q 89.84375 53.125 83.984375 53.125 
L 83.984375 0.78125 
Q 83.984375 -5.078125 79.296875 -6.640625 
Q 74.609375 -8.203125 67.1875 -8.984375 
Q 67.1875 -4.296875 62.890625 0 
Q 70.3125 -0.78125 73.234375 -0.390625 
Q 76.171875 0 76.171875 4.6875 
L 76.171875 53.125 
Q 56.640625 53.125 43.359375 52.734375 
L 43.359375 60.15625 
Q 55.859375 59.765625 76.171875 59.765625 
z
M 31.25 20.3125 
L 31.25 39.84375 
L 15.625 39.84375 
L 15.625 20.3125 
z
M 31.25 46.484375 
L 31.25 64.84375 
L 15.625 64.84375 
L 15.625 46.484375 
z
M 55.46875 42.578125 
Q 60.546875 34.375 65.234375 25 
Q 61.328125 23.828125 57.03125 21.484375 
Q 53.90625 30.859375 48.046875 39.0625 
Q 51.5625 40.625 55.46875 42.578125 
z
" id="SimHei-26102"/>
      <path d="M 84.765625 79.6875 
L 89.0625 74.609375 
Q 66.796875 58.203125 67.578125 36.71875 
Q 67.96875 16.015625 88.671875 0.78125 
L 84.375 -4.296875 
Q 60.546875 12.890625 61.328125 39.0625 
Q 61.328125 60.546875 84.765625 79.6875 
z
" id="SimHei-65288"/>
      <path d="M 43.75 1.953125 
L 35.9375 1.953125 
L 35.9375 30.078125 
Q 35.9375 34.765625 33.59375 37.5 
Q 31.25 40.234375 27.34375 40.234375 
Q 22.265625 40.234375 17.765625 34.953125 
Q 13.28125 29.6875 13.28125 21.875 
L 13.28125 1.953125 
L 5.46875 1.953125 
L 5.46875 68.75 
L 13.28125 68.75 
L 13.28125 37.5 
Q 16.40625 41.796875 20.109375 44.140625 
Q 23.828125 46.484375 29.6875 46.484375 
Q 36.71875 46.484375 40.234375 42.578125 
Q 43.75 38.671875 43.75 32.8125 
z
" id="SimHei-104"/>
      <path d="M 15.625 79.6875 
Q 39.0625 60.546875 39.0625 39.0625 
Q 39.84375 12.890625 16.015625 -4.296875 
L 11.71875 0.78125 
Q 32.421875 16.015625 32.8125 36.71875 
Q 33.59375 58.203125 11.328125 74.609375 
L 15.625 79.6875 
z
" id="SimHei-65289"/>
     </defs>
     <g style="fill:#262626;" transform="translate(336.5 324.554687)scale(0.1 -0.1)">
      <use xlink:href="#SimHei-38388"/>
      <use x="100" xlink:href="#SimHei-38548"/>
      <use x="200" xlink:href="#SimHei-26102"/>
      <use x="300" xlink:href="#SimHei-38388"/>
      <use x="400" xlink:href="#SimHei-65288"/>
      <use x="500" xlink:href="#SimHei-104"/>
      <use x="550" xlink:href="#SimHei-65289"/>
     </g>
    </g>
   </g>
   <g id="matplotlib.axis_2">
    <g id="ytick_1">
     <g id="line2d_7">
      <path clip-path="url(#pd388146591)" d="M 34.2 297.421875 
L 703.8 297.421875 
" style="fill:none;stroke:#ffffff;stroke-linecap:round;stroke-width:0.8;"/>
     </g>
     <g id="text_8">
      <!-- 0.00 -->
      <defs>
       <path d="M 16.796875 1.953125 
L 7.8125 1.953125 
L 7.8125 10.546875 
L 16.796875 10.546875 
z
" id="SimHei-46"/>
      </defs>
      <g style="fill:#262626;" transform="translate(7.2 300.859375)scale(0.1 -0.1)">
       <use xlink:href="#SimHei-48"/>
       <use x="50" xlink:href="#SimHei-46"/>
       <use x="100" xlink:href="#SimHei-48"/>
       <use x="150" xlink:href="#SimHei-48"/>
      </g>
     </g>
    </g>
    <g id="ytick_2">
     <g id="line2d_8">
      <path clip-path="url(#pd388146591)" d="M 34.2 242.43506 
L 703.8 242.43506 
" style="fill:none;stroke:#ffffff;stroke-linecap:round;stroke-width:0.8;"/>
     </g>
     <g id="text_9">
      <!-- 0.05 -->
      <g style="fill:#262626;" transform="translate(7.2 245.87256)scale(0.1 -0.1)">
       <use xlink:href="#SimHei-48"/>
       <use x="50" xlink:href="#SimHei-46"/>
       <use x="100" xlink:href="#SimHei-48"/>
       <use x="150" xlink:href="#SimHei-53"/>
      </g>
     </g>
    </g>
    <g id="ytick_3">
     <g id="line2d_9">
      <path clip-path="url(#pd388146591)" d="M 34.2 187.448245 
L 703.8 187.448245 
" style="fill:none;stroke:#ffffff;stroke-linecap:round;stroke-width:0.8;"/>
     </g>
     <g id="text_10">
      <!-- 0.10 -->
      <g style="fill:#262626;" transform="translate(7.2 190.885745)scale(0.1 -0.1)">
       <use xlink:href="#SimHei-48"/>
       <use x="50" xlink:href="#SimHei-46"/>
       <use x="100" xlink:href="#SimHei-49"/>
       <use x="150" xlink:href="#SimHei-48"/>
      </g>
     </g>
    </g>
    <g id="ytick_4">
     <g id="line2d_10">
      <path clip-path="url(#pd388146591)" d="M 34.2 132.461429 
L 703.8 132.461429 
" style="fill:none;stroke:#ffffff;stroke-linecap:round;stroke-width:0.8;"/>
     </g>
     <g id="text_11">
      <!-- 0.15 -->
      <g style="fill:#262626;" transform="translate(7.2 135.898929)scale(0.1 -0.1)">
       <use xlink:href="#SimHei-48"/>
       <use x="50" xlink:href="#SimHei-46"/>
       <use x="100" xlink:href="#SimHei-49"/>
       <use x="150" xlink:href="#SimHei-53"/>
      </g>
     </g>
    </g>
    <g id="ytick_5">
     <g id="line2d_11">
      <path clip-path="url(#pd388146591)" d="M 34.2 77.474614 
L 703.8 77.474614 
" style="fill:none;stroke:#ffffff;stroke-linecap:round;stroke-width:0.8;"/>
     </g>
     <g id="text_12">
      <!-- 0.20 -->
      <g style="fill:#262626;" transform="translate(7.2 80.912114)scale(0.1 -0.1)">
       <use xlink:href="#SimHei-48"/>
       <use x="50" xlink:href="#SimHei-46"/>
       <use x="100" xlink:href="#SimHei-50"/>
       <use x="150" xlink:href="#SimHei-48"/>
      </g>
     </g>
    </g>
   </g>
   <g id="PolyCollection_1">
    <defs>
     <path d="M 64.636364 -36.752617 
L 64.636364 -35.582813 
L 70.785124 -35.582813 
L 76.933884 -35.582813 
L 83.082645 -35.582813 
L 89.231405 -35.582813 
L 95.380165 -35.582813 
L 101.528926 -35.582813 
L 107.677686 -35.582813 
L 113.826446 -35.582813 
L 119.975207 -35.582813 
L 126.123967 -35.582813 
L 132.272727 -35.582813 
L 138.421488 -35.582813 
L 144.570248 -35.582813 
L 150.719008 -35.582813 
L 156.867769 -35.582813 
L 163.016529 -35.582813 
L 169.165289 -35.582813 
L 175.31405 -35.582813 
L 181.46281 -35.582813 
L 187.61157 -35.582813 
L 193.760331 -35.582813 
L 199.909091 -35.582813 
L 206.057851 -35.582813 
L 212.206612 -35.582813 
L 218.355372 -35.582813 
L 224.504132 -35.582813 
L 230.652893 -35.582813 
L 236.801653 -35.582813 
L 242.950413 -35.582813 
L 249.099174 -35.582813 
L 255.247934 -35.582813 
L 261.396694 -35.582813 
L 267.545455 -35.582813 
L 273.694215 -35.582813 
L 279.842975 -35.582813 
L 285.991736 -35.582813 
L 292.140496 -35.582813 
L 298.289256 -35.582813 
L 304.438017 -35.582813 
L 310.586777 -35.582813 
L 316.735537 -35.582813 
L 322.884298 -35.582813 
L 329.033058 -35.582813 
L 335.181818 -35.582813 
L 341.330579 -35.582813 
L 347.479339 -35.582813 
L 353.628099 -35.582813 
L 359.77686 -35.582813 
L 365.92562 -35.582813 
L 372.07438 -35.582813 
L 378.22314 -35.582813 
L 384.371901 -35.582813 
L 390.520661 -35.582813 
L 396.669421 -35.582813 
L 402.818182 -35.582813 
L 408.966942 -35.582813 
L 415.115702 -35.582813 
L 421.264463 -35.582813 
L 427.413223 -35.582813 
L 433.561983 -35.582813 
L 439.710744 -35.582813 
L 445.859504 -35.582813 
L 452.008264 -35.582813 
L 458.157025 -35.582813 
L 464.305785 -35.582813 
L 470.454545 -35.582813 
L 476.603306 -35.582813 
L 482.752066 -35.582813 
L 488.900826 -35.582813 
L 495.049587 -35.582813 
L 501.198347 -35.582813 
L 507.347107 -35.582813 
L 513.495868 -35.582813 
L 519.644628 -35.582813 
L 525.793388 -35.582813 
L 531.942149 -35.582813 
L 538.090909 -35.582813 
L 544.239669 -35.582813 
L 550.38843 -35.582813 
L 556.53719 -35.582813 
L 562.68595 -35.582813 
L 568.834711 -35.582813 
L 574.983471 -35.582813 
L 581.132231 -35.582813 
L 587.280992 -35.582813 
L 593.429752 -35.582813 
L 599.578512 -35.582813 
L 605.727273 -35.582813 
L 611.876033 -35.582813 
L 618.024793 -35.582813 
L 624.173554 -35.582813 
L 630.322314 -35.582813 
L 636.471074 -35.582813 
L 642.619835 -35.582813 
L 648.768595 -35.582813 
L 654.917355 -35.582813 
L 661.066116 -35.582813 
L 667.214876 -35.582813 
L 673.363636 -35.582813 
L 673.363636 -35.600946 
L 673.363636 -35.600946 
L 667.214876 -35.647868 
L 661.066116 -35.771643 
L 654.917355 -36.026643 
L 648.768595 -36.429182 
L 642.619835 -36.897835 
L 636.471074 -37.262824 
L 630.322314 -37.38213 
L 624.173554 -37.26222 
L 618.024793 -37.046262 
L 611.876033 -36.892351 
L 605.727273 -36.881499 
L 599.578512 -37.006309 
L 593.429752 -37.194058 
L 587.280992 -37.354061 
L 581.132231 -37.447038 
L 574.983471 -37.506382 
L 568.834711 -37.583319 
L 562.68595 -37.70273 
L 556.53719 -37.872032 
L 550.38843 -38.073564 
L 544.239669 -38.238959 
L 538.090909 -38.297141 
L 531.942149 -38.263894 
L 525.793388 -38.235717 
L 519.644628 -38.301914 
L 513.495868 -38.50202 
L 507.347107 -38.82181 
L 501.198347 -39.166299 
L 495.049587 -39.390291 
L 488.900826 -39.428517 
L 482.752066 -39.353124 
L 476.603306 -39.264759 
L 470.454545 -39.200831 
L 464.305785 -39.181913 
L 458.157025 -39.255473 
L 452.008264 -39.457134 
L 445.859504 -39.797833 
L 439.710744 -40.278297 
L 433.561983 -40.834943 
L 427.413223 -41.320895 
L 421.264463 -41.647684 
L 415.115702 -41.892651 
L 408.966942 -42.183543 
L 402.818182 -42.573252 
L 396.669421 -43.095887 
L 390.520661 -43.797176 
L 384.371901 -44.637863 
L 378.22314 -45.528105 
L 372.07438 -46.478917 
L 365.92562 -47.519545 
L 359.77686 -48.504643 
L 353.628099 -49.265369 
L 347.479339 -49.881897 
L 341.330579 -50.533762 
L 335.181818 -51.218079 
L 329.033058 -51.893776 
L 322.884298 -52.687095 
L 316.735537 -53.675186 
L 310.586777 -54.741448 
L 304.438017 -55.871277 
L 298.289256 -57.237468 
L 292.140496 -58.844995 
L 285.991736 -60.528375 
L 279.842975 -62.337985 
L 273.694215 -64.394455 
L 267.545455 -66.444327 
L 261.396694 -68.189773 
L 255.247934 -69.883732 
L 249.099174 -71.985747 
L 242.950413 -74.591016 
L 236.801653 -77.7763 
L 230.652893 -81.907199 
L 224.504132 -87.064746 
L 218.355372 -92.965949 
L 212.206612 -99.78334 
L 206.057851 -107.933363 
L 199.909091 -116.991385 
L 193.760331 -126.30909 
L 187.61157 -136.498048 
L 181.46281 -148.580946 
L 175.31405 -162.426476 
L 169.165289 -177.94952 
L 163.016529 -196.264129 
L 156.867769 -217.398832 
L 150.719008 -239.205867 
L 144.570248 -260.406989 
L 138.421488 -280.520346 
L 132.272727 -294.439955 
L 126.123967 -293.03024 
L 119.975207 -273.008021 
L 113.826446 -241.104736 
L 107.677686 -205.407767 
L 101.528926 -168.020922 
L 95.380165 -129.086761 
L 89.231405 -92.678164 
L 83.082645 -64.777914 
L 76.933884 -47.859518 
L 70.785124 -39.789811 
L 64.636364 -36.752617 
z
" id="m770cdfa3fd" style="stroke:#ffffff;stroke-opacity:0.5;"/>
    </defs>
    <g clip-path="url(#pd388146591)">
     <use style="fill:#008000;fill-opacity:0.5;stroke:#ffffff;stroke-opacity:0.5;" x="0" xlink:href="#m770cdfa3fd" y="333.004687"/>
    </g>
   </g>
   <g id="line2d_12">
    <path clip-path="url(#pd388146591)" d="M 64.636364 296.25207 
L 70.785124 293.214876 
L 76.933884 285.145169 
L 83.082645 268.226773 
L 89.231405 240.326523 
L 95.380165 203.917926 
L 101.528926 164.983765 
L 107.677686 127.59692 
L 113.826446 91.899951 
L 119.975207 59.996667 
L 126.123967 39.974448 
L 132.272727 38.564732 
L 138.421488 52.484341 
L 144.570248 72.597699 
L 150.719008 93.798821 
L 156.867769 115.605856 
L 163.016529 136.740559 
L 169.165289 155.055168 
L 175.31405 170.578212 
L 181.46281 184.423741 
L 187.61157 196.506639 
L 193.760331 206.695598 
L 199.909091 216.013302 
L 206.057851 225.071324 
L 212.206612 233.221348 
L 218.355372 240.038738 
L 224.504132 245.939942 
L 230.652893 251.097489 
L 236.801653 255.228388 
L 242.950413 258.413671 
L 249.099174 261.01894 
L 255.247934 263.120956 
L 261.396694 264.814914 
L 267.545455 266.560361 
L 273.694215 268.610233 
L 279.842975 270.666702 
L 285.991736 272.476313 
L 292.140496 274.159693 
L 298.289256 275.767219 
L 304.438017 277.133411 
L 310.586777 278.263239 
L 316.735537 279.329501 
L 322.884298 280.317592 
L 329.033058 281.110912 
L 335.181818 281.786608 
L 341.330579 282.470925 
L 347.479339 283.12279 
L 353.628099 283.739318 
L 359.77686 284.500045 
L 365.92562 285.485143 
L 372.07438 286.525771 
L 378.22314 287.476583 
L 384.371901 288.366825 
L 390.520661 289.207512 
L 396.669421 289.908801 
L 402.818182 290.431436 
L 408.966942 290.821144 
L 415.115702 291.112037 
L 421.264463 291.357003 
L 427.413223 291.683792 
L 433.561983 292.169744 
L 439.710744 292.72639 
L 445.859504 293.206855 
L 452.008264 293.547553 
L 458.157025 293.749215 
L 464.305785 293.822775 
L 470.454545 293.803856 
L 476.603306 293.739928 
L 482.752066 293.651564 
L 488.900826 293.57617 
L 495.049587 293.614396 
L 501.198347 293.838388 
L 507.347107 294.182878 
L 513.495868 294.502667 
L 519.644628 294.702774 
L 525.793388 294.76897 
L 531.942149 294.740793 
L 538.090909 294.707547 
L 544.239669 294.765729 
L 550.38843 294.931124 
L 556.53719 295.132655 
L 562.68595 295.301957 
L 568.834711 295.421369 
L 574.983471 295.498306 
L 581.132231 295.55765 
L 587.280992 295.650627 
L 593.429752 295.81063 
L 599.578512 295.998378 
L 605.727273 296.123188 
L 611.876033 296.112336 
L 618.024793 295.958425 
L 624.173554 295.742467 
L 630.322314 295.622557 
L 636.471074 295.741863 
L 642.619835 296.106853 
L 648.768595 296.575505 
L 654.917355 296.978044 
L 661.066116 297.233045 
L 667.214876 297.356819 
L 673.363636 297.403741 
" style="fill:none;stroke:#008000;stroke-linecap:round;stroke-opacity:0.5;stroke-width:1.5;"/>
   </g>
   <g id="patch_3">
    <path d="M 34.2 297.421875 
L 34.2 25.621875 
" style="fill:none;stroke:#ffffff;stroke-linecap:square;stroke-linejoin:miter;stroke-width:0.8;"/>
   </g>
   <g id="patch_4">
    <path d="M 703.8 297.421875 
L 703.8 25.621875 
" style="fill:none;stroke:#ffffff;stroke-linecap:square;stroke-linejoin:miter;stroke-width:0.8;"/>
   </g>
   <g id="patch_5">
    <path d="M 34.2 297.421875 
L 703.8 297.421875 
" style="fill:none;stroke:#ffffff;stroke-linecap:square;stroke-linejoin:miter;stroke-width:0.8;"/>
   </g>
   <g id="patch_6">
    <path d="M 34.2 25.621875 
L 703.8 25.621875 
" style="fill:none;stroke:#ffffff;stroke-linecap:square;stroke-linejoin:miter;stroke-width:0.8;"/>
   </g>
   <g id="text_13">
    <!-- 用户pv操作间隔 -->
    <defs>
     <path d="M 5.46875 -4.6875 
Q 10.15625 1.953125 12.6875 9.375 
Q 15.234375 16.796875 15.8125 24.21875 
Q 16.40625 31.640625 16.40625 49.21875 
Q 16.40625 66.796875 16.015625 77.34375 
L 85.9375 77.34375 
Q 85.546875 66.015625 85.546875 57.03125 
L 85.546875 5.859375 
Q 85.546875 -2.34375 80.859375 -4.296875 
Q 76.171875 -6.25 69.921875 -7.03125 
Q 69.140625 -1.171875 67.1875 1.953125 
Q 75 1.5625 76.359375 2.53125 
Q 77.734375 3.515625 77.734375 6.25 
L 77.734375 25.78125 
L 53.90625 25.78125 
L 53.90625 10.546875 
Q 53.90625 1.953125 54.296875 -5.078125 
L 45.703125 -5.078125 
Q 46.09375 1.5625 46.09375 10.15625 
L 46.09375 25.78125 
L 23.828125 25.78125 
Q 22.265625 8.984375 13.28125 -8.203125 
Q 8.984375 -5.46875 5.46875 -4.6875 
z
M 77.734375 54.296875 
L 77.734375 71.09375 
L 53.90625 71.09375 
L 53.90625 54.296875 
z
M 77.734375 32.03125 
L 77.734375 48.4375 
L 53.90625 48.4375 
L 53.90625 32.03125 
z
M 46.09375 54.296875 
L 46.09375 71.09375 
L 23.828125 71.09375 
L 23.828125 54.296875 
z
M 46.09375 32.03125 
L 46.09375 48.4375 
L 23.828125 48.4375 
L 23.828125 32.03125 
z
" id="SimHei-29992"/>
     <path d="M 90.234375 63.28125 
Q 89.84375 53.90625 89.84375 41.796875 
Q 89.84375 30.078125 90.234375 23.4375 
L 81.640625 23.4375 
L 81.640625 29.296875 
L 27.34375 29.296875 
Q 25.78125 16.796875 23.4375 10.546875 
Q 21.09375 4.296875 18.359375 -0.578125 
Q 15.625 -5.46875 12.5 -9.765625 
Q 8.59375 -6.640625 3.90625 -5.078125 
Q 11.71875 3.125 14.640625 10.34375 
Q 17.578125 17.578125 18.546875 24.015625 
Q 19.53125 30.46875 19.53125 37.890625 
Q 19.53125 45.3125 19.140625 63.28125 
L 90.234375 63.28125 
z
M 81.25 36.328125 
L 81.25 56.25 
L 26.953125 56.25 
L 26.953125 36.328125 
z
M 53.125 82.421875 
Q 57.8125 73.046875 59.765625 67.578125 
Q 54.6875 66.40625 51.953125 64.84375 
Q 49.21875 73.046875 45.703125 79.296875 
Q 49.609375 80.46875 53.125 82.421875 
z
" id="SimHei-25143"/>
     <path d="M 44.140625 23.828125 
Q 44.140625 12.5 38.671875 6.640625 
Q 33.203125 0.78125 25.390625 0.78125 
Q 21.09375 0.78125 17.96875 2.53125 
Q 14.84375 4.296875 12.5 7.8125 
L 12.5 -12.5 
L 4.6875 -12.5 
L 4.6875 45.703125 
L 12.5 45.703125 
L 12.5 39.84375 
Q 14.84375 43.359375 17.96875 44.921875 
Q 21.09375 46.484375 25.390625 46.484375 
Q 33.203125 46.484375 38.671875 40.8125 
Q 44.140625 35.15625 44.140625 23.828125 
z
M 35.546875 23.828125 
Q 35.546875 31.25 32.609375 35.34375 
Q 29.6875 39.453125 23.828125 39.453125 
Q 19.140625 39.453125 15.8125 35.34375 
Q 12.5 31.25 12.5 23.828125 
Q 12.5 16.40625 15.8125 12.109375 
Q 19.140625 7.8125 23.828125 7.8125 
Q 29.6875 7.8125 32.609375 12.109375 
Q 35.546875 16.40625 35.546875 23.828125 
z
" id="SimHei-112"/>
     <path d="M 44.921875 45.703125 
L 28.515625 1.171875 
L 19.921875 1.171875 
L 3.515625 45.703125 
L 11.71875 45.703125 
L 23.828125 11.71875 
L 24.609375 11.71875 
L 36.71875 45.703125 
z
" id="SimHei-118"/>
     <path d="M 60.9375 23.4375 
Q 60.9375 26.171875 60.546875 30.46875 
L 67.96875 30.46875 
Q 67.578125 26.171875 67.578125 23.4375 
Q 89.453125 23.4375 95.703125 23.828125 
L 95.703125 16.796875 
Q 88.671875 17.1875 73.828125 17.1875 
Q 81.25 5.078125 96.484375 1.171875 
Q 92.578125 -2.34375 90.625 -6.25 
Q 73.4375 1.953125 67.578125 16.796875 
Q 67.578125 -3.125 67.96875 -9.765625 
L 60.546875 -9.765625 
Q 60.9375 -2.734375 60.9375 16.015625 
Q 53.125 2.34375 38.28125 -7.8125 
Q 35.546875 -4.296875 31.640625 -1.5625 
Q 45.703125 4.6875 53.515625 17.1875 
Q 40.234375 17.1875 34.375 16.40625 
L 34.375 23.828125 
Q 40.625 23.4375 60.9375 23.4375 
z
M 18.75 60.9375 
Q 18.75 76.5625 18.359375 81.25 
L 26.171875 81.25 
Q 25 76.171875 25.390625 60.9375 
Q 29.6875 60.9375 35.546875 61.328125 
L 35.546875 54.296875 
Q 29.296875 54.6875 25.390625 54.6875 
L 25.390625 37.890625 
Q 29.6875 39.453125 34.765625 41.796875 
Q 34.765625 37.5 35.15625 35.15625 
Q 29.6875 32.421875 25.390625 30.859375 
L 25.390625 2.734375 
Q 25.390625 -4.296875 22.0625 -5.859375 
Q 18.75 -7.421875 11.328125 -8.984375 
Q 10.15625 -3.90625 7.8125 0 
Q 14.0625 0 16.40625 0.390625 
Q 18.75 0.78125 18.75 4.296875 
L 18.75 28.125 
Q 14.0625 26.5625 7.03125 21.875 
Q 5.46875 26.5625 3.90625 30.46875 
Q 8.59375 31.25 18.75 35.15625 
L 18.75 54.6875 
Q 11.328125 54.6875 5.46875 54.296875 
L 5.46875 61.328125 
Q 11.328125 60.9375 18.75 60.9375 
z
M 82.03125 79.6875 
Q 81.640625 74.609375 81.640625 69.53125 
Q 81.640625 64.453125 82.03125 58.984375 
L 46.09375 58.984375 
Q 46.484375 64.84375 46.484375 69.53125 
Q 46.484375 74.609375 46.09375 79.6875 
z
M 92.1875 52.34375 
Q 91.796875 47.265625 91.796875 41.796875 
Q 91.796875 36.71875 92.1875 31.25 
L 67.1875 31.25 
Q 67.578125 36.71875 67.578125 41.796875 
Q 67.578125 47.265625 67.1875 52.34375 
z
M 37.109375 31.25 
Q 37.5 36.71875 37.5 41.796875 
Q 37.5 47.265625 37.109375 52.34375 
L 60.9375 52.34375 
Q 60.546875 47.265625 60.546875 41.796875 
Q 60.546875 36.71875 60.9375 31.25 
z
M 75 64.84375 
L 75 74.21875 
L 52.734375 74.21875 
L 52.734375 64.84375 
z
M 85.546875 37.109375 
L 85.546875 46.484375 
L 73.4375 46.484375 
L 73.4375 37.109375 
z
M 54.296875 37.109375 
L 54.296875 46.484375 
L 43.359375 46.484375 
L 43.359375 37.109375 
z
" id="SimHei-25805"/>
     <path d="M 63.671875 78.90625 
Q 59.765625 75.78125 55.078125 64.0625 
L 80.859375 64.0625 
Q 89.453125 64.0625 94.53125 64.453125 
L 94.53125 57.421875 
Q 89.453125 57.8125 80.859375 57.8125 
L 62.890625 57.8125 
L 62.890625 42.578125 
L 78.90625 42.578125 
Q 85.546875 42.578125 89.84375 42.96875 
L 89.84375 35.546875 
Q 84.765625 35.9375 78.90625 35.9375 
L 62.890625 35.9375 
L 62.890625 18.359375 
L 79.6875 18.359375 
Q 87.5 18.359375 92.578125 18.75 
L 92.578125 11.328125 
Q 87.5 11.71875 80.078125 11.71875 
L 62.890625 11.71875 
L 62.890625 4.296875 
Q 62.890625 -6.640625 63.28125 -10.546875 
L 55.078125 -10.546875 
Q 55.46875 -6.25 55.46875 1.171875 
L 55.46875 57.8125 
L 51.5625 57.8125 
Q 45.703125 47.65625 40.234375 40.234375 
Q 35.9375 44.140625 32.8125 45.3125 
Q 38.28125 50.78125 44.140625 60.9375 
Q 50 71.09375 53.515625 82.8125 
Q 59.375 80.078125 63.671875 78.90625 
z
M 36.328125 77.34375 
Q 32.8125 74.609375 27.34375 60.546875 
L 27.34375 10.546875 
Q 27.34375 -1.953125 27.734375 -9.375 
L 18.75 -9.375 
Q 19.140625 -2.34375 19.140625 10.15625 
L 19.140625 46.875 
Q 13.671875 37.890625 8.59375 31.640625 
Q 5.46875 36.328125 3.125 38.28125 
Q 8.203125 43.75 15.421875 56.4375 
Q 22.65625 69.140625 26.171875 82.421875 
Q 30.46875 79.6875 36.328125 77.34375 
z
" id="SimHei-20316"/>
    </defs>
    <g style="fill:#262626;" transform="translate(316.5 19.621875)scale(0.15 -0.15)">
     <use xlink:href="#SimHei-29992"/>
     <use x="100" xlink:href="#SimHei-25143"/>
     <use x="200" xlink:href="#SimHei-112"/>
     <use x="250" xlink:href="#SimHei-118"/>
     <use x="300" xlink:href="#SimHei-25805"/>
     <use x="400" xlink:href="#SimHei-20316"/>
     <use x="500" xlink:href="#SimHei-38388"/>
     <use x="600" xlink:href="#SimHei-38548"/>
    </g>
   </g>
  </g>
 </g>
 <defs>
  <clipPath id="pd388146591">
   <rect height="271.8" width="669.6" x="34.2" y="25.621875"/>
  </clipPath>
 </defs>
</svg>
