<?xml version="1.0" encoding="utf-8" standalone="no"?>
<!DOCTYPE svg PUBLIC "-//W3C//DTD SVG 1.1//EN"
  "http://www.w3.org/Graphics/SVG/1.1/DTD/svg11.dtd">
<!-- Created with matplotlib (https://matplotlib.org/) -->
<svg height="228.442476pt" version="1.1" viewBox="0 0 258.994078 228.442476" width="258.994078pt" xmlns="http://www.w3.org/2000/svg" xmlns:xlink="http://www.w3.org/1999/xlink">
 <defs>
  <style type="text/css">
*{stroke-linecap:butt;stroke-linejoin:round;}
  </style>
 </defs>
 <g id="figure_1">
  <g id="patch_1">
   <path d="M 0 228.442476 
L 258.994078 228.442476 
L 258.994078 0 
L 0 0 
z
" style="fill:#ffffff;"/>
  </g>
  <g id="axes_1">
   <g id="matplotlib.axis_1"/>
   <g id="matplotlib.axis_2"/>
   <g id="patch_2">
    <path d="M 190.890051 120.399699 
C 190.890051 110.565877 189.055502 100.817803 185.48074 91.656737 
C 181.905978 82.49567 176.653344 74.081375 169.992937 66.846527 
L 111.82096 120.399699 
L 190.890051 120.399699 
z
" style="fill:#4c0000;opacity:0.5;stroke:#4c0000;stroke-linejoin:miter;"/>
   </g>
   <g id="patch_3">
    <path d="M 162.626959 69.720823 
C 159.180239 65.976834 155.380107 62.574324 151.279473 59.560667 
C 147.178839 56.54701 142.796823 53.936259 138.194439 51.764764 
L 104.454982 123.273995 
L 162.626959 69.720823 
z
" style="fill:#002600;opacity:0.5;stroke:#002600;stroke-linejoin:miter;"/>
   </g>
   <g id="patch_4">
    <path d="M 138.194439 51.764764 
C 126.088033 46.052724 112.727045 43.507545 99.368493 44.36868 
C 86.009941 45.229815 73.086319 49.469385 61.813498 56.688524 
C 50.540677 63.907664 41.283624 73.872648 34.913253 85.645959 
C 28.542883 97.419269 25.265441 110.619736 25.389274 124.005442 
L 104.454982 123.273995 
L 138.194439 51.764764 
z
" style="fill:#00004c;opacity:0.5;stroke:#00004c;stroke-linejoin:miter;"/>
   </g>
   <g id="patch_5">
    <path d="M 25.389274 124.005442 
C 25.582607 144.903693 34.053846 164.89581 48.933947 179.57085 
C 63.814049 194.245891 83.921787 202.438908 104.820708 202.342241 
C 125.719629 202.245574 145.750716 193.866897 160.494426 179.054833 
C 175.238137 164.242769 183.524072 144.173142 183.524073 123.273997 
L 104.454982 123.273995 
L 25.389274 124.005442 
z
" style="fill:#003939;opacity:0.5;stroke:#003939;stroke-linejoin:miter;"/>
   </g>
   <g id="patch_6">
    <path d="M 192.471433 118.818317 
C 192.471433 108.984495 190.636884 99.236421 187.062122 90.075355 
C 183.48736 80.914288 178.234726 72.499994 171.574319 65.265145 
L 113.402342 118.818317 
L 192.471433 118.818317 
z
" style="fill:#ff0000;stroke:#ffffff;stroke-linejoin:miter;"/>
   </g>
   <g id="patch_7">
    <path d="M 164.208341 68.139442 
C 160.761621 64.395453 156.961489 60.992942 152.860855 57.979285 
C 148.76022 54.965629 144.378205 52.354877 139.775821 50.183382 
L 106.036364 121.692614 
L 164.208341 68.139442 
z
" style="fill:#008000;stroke:#ffffff;stroke-linejoin:miter;"/>
   </g>
   <g id="patch_8">
    <path d="M 139.775821 50.183382 
C 127.669415 44.471343 114.308426 41.926163 100.949874 42.787298 
C 87.591323 43.648433 74.667701 47.888003 63.39488 55.107142 
C 52.122059 62.326282 42.865006 72.291266 36.494635 84.064577 
C 30.124265 95.837887 26.846823 109.038354 26.970656 122.42406 
L 106.036364 121.692614 
L 139.775821 50.183382 
z
" style="fill:#0000ff;stroke:#ffffff;stroke-linejoin:miter;"/>
   </g>
   <g id="patch_9">
    <path d="M 26.970656 122.42406 
C 27.163988 143.322311 35.635228 163.314428 50.515329 177.989469 
C 65.395431 192.664509 85.503169 200.857526 106.40209 200.760859 
C 127.301011 200.664192 147.332098 192.285515 162.075808 177.473451 
C 176.819518 162.661387 185.105454 142.59176 185.105455 121.692615 
L 106.036364 121.692614 
L 26.970656 122.42406 
z
" style="fill:#00bfbf;stroke:#ffffff;stroke-linejoin:miter;"/>
   </g>
   <g id="text_1">
    <!-- 高价值用户 -->
    <defs>
     <path d="M 91.015625 -0.390625 
Q 91.40625 -6.25 86.71875 -7.8125 
Q 82.03125 -9.375 77.734375 -9.765625 
Q 76.171875 -5.078125 73.828125 -1.5625 
Q 77.734375 -1.5625 80.859375 -1.359375 
Q 83.984375 -1.171875 83.59375 3.90625 
L 83.59375 28.515625 
L 17.1875 28.515625 
L 17.1875 -8.984375 
L 9.375 -8.984375 
Q 9.765625 -3.515625 9.765625 13.28125 
Q 9.765625 30.46875 9.375 34.375 
L 91.40625 34.375 
Q 91.015625 28.90625 91.015625 22.265625 
z
M 76.953125 59.375 
Q 76.5625 54.296875 76.5625 49.609375 
Q 76.5625 45.3125 76.953125 40.625 
L 21.875 40.625 
Q 22.265625 44.140625 22.265625 49.609375 
Q 22.265625 55.078125 21.875 59.375 
L 76.953125 59.375 
z
M 70.3125 21.875 
Q 69.921875 17.578125 69.921875 12.5 
Q 69.921875 7.8125 70.3125 3.125 
L 30.46875 3.125 
Q 31.25 7.8125 31.25 12.5 
Q 31.25 17.578125 30.46875 21.875 
L 70.3125 21.875 
z
M 6.640625 71.875 
Q 11.71875 71.484375 17.578125 71.484375 
L 45.703125 71.484375 
Q 44.53125 76.171875 42.96875 79.6875 
Q 47.65625 80.078125 52.34375 81.25 
Q 53.125 77.34375 55.078125 71.484375 
L 82.03125 71.484375 
Q 87.5 71.484375 93.359375 71.875 
L 93.359375 64.84375 
Q 87.5 65.234375 78.90625 65.234375 
L 17.96875 65.234375 
Q 11.71875 65.234375 6.640625 64.84375 
z
M 69.53125 46.484375 
L 69.53125 53.515625 
L 29.6875 53.515625 
L 29.6875 46.484375 
z
M 62.890625 8.59375 
L 62.890625 16.40625 
L 37.5 16.40625 
L 37.5 8.59375 
z
" id="SimHei-39640"/>
     <path d="M 34.375 77.734375 
Q 32.03125 73.828125 25.78125 58.984375 
L 25.78125 7.03125 
Q 25.78125 -3.515625 26.171875 -10.15625 
L 18.359375 -10.15625 
Q 18.359375 -3.515625 18.75 7.03125 
L 18.75 46.484375 
Q 14.0625 37.890625 10.15625 32.8125 
Q 8.203125 35.546875 3.515625 38.28125 
Q 11.71875 47.265625 17.578125 59.375 
Q 23.4375 71.484375 25.390625 80.859375 
Q 30.46875 78.515625 34.375 77.734375 
z
M 65.234375 73.4375 
Q 75.78125 55.078125 96.09375 46.09375 
Q 92.578125 42.96875 90.234375 39.0625 
Q 73.828125 48.4375 61.71875 67.1875 
Q 51.5625 48.828125 35.15625 36.71875 
Q 33.203125 39.453125 29.6875 42.578125 
Q 44.140625 51.953125 50.78125 63.28125 
Q 57.421875 74.609375 58.59375 80.46875 
Q 64.84375 77.34375 67.578125 76.5625 
z
M 54.296875 41.40625 
Q 53.125 32.421875 51.953125 16.984375 
Q 50.78125 1.5625 36.328125 -10.546875 
Q 33.984375 -7.03125 30.078125 -4.6875 
Q 44.53125 5.46875 45.5 19.71875 
Q 46.484375 33.984375 46.09375 42.1875 
Q 51.171875 41.40625 54.296875 41.40625 
z
M 79.296875 42.1875 
Q 78.90625 33.59375 78.90625 26.953125 
L 78.90625 2.34375 
Q 78.90625 -3.515625 79.296875 -10.15625 
L 71.09375 -10.15625 
Q 71.484375 -3.515625 71.484375 2.734375 
L 71.484375 29.296875 
Q 71.484375 33.59375 71.09375 42.1875 
L 79.296875 42.1875 
z
" id="SimHei-20215"/>
     <path d="M 57.421875 69.53125 
L 57.421875 79.6875 
Q 62.109375 79.296875 67.96875 78.90625 
Q 66.015625 76.171875 65.625 69.53125 
L 80.078125 69.53125 
Q 86.71875 69.53125 91.796875 69.921875 
L 91.796875 62.890625 
Q 86.328125 63.28125 80.078125 63.28125 
L 65.234375 63.28125 
L 64.453125 54.6875 
L 84.375 54.6875 
Q 83.984375 50 83.984375 42.1875 
L 83.984375 2.34375 
Q 91.796875 2.34375 95.3125 2.734375 
L 95.3125 -4.296875 
Q 90.234375 -3.90625 81.25 -3.90625 
L 44.53125 -3.90625 
Q 35.546875 -3.90625 29.6875 -4.296875 
L 29.6875 2.734375 
Q 33.203125 2.34375 40.625 2.34375 
L 40.625 42.1875 
Q 40.625 49.609375 40.234375 54.6875 
L 56.25 54.6875 
L 57.03125 63.28125 
L 50 63.28125 
Q 40.234375 63.28125 34.765625 62.890625 
L 34.765625 69.921875 
Q 39.84375 69.53125 50 69.53125 
z
M 34.765625 76.5625 
Q 31.640625 73.046875 25.78125 58.59375 
L 25.78125 7.03125 
Q 25.78125 -1.171875 26.171875 -8.59375 
L 17.96875 -8.59375 
Q 18.359375 -1.953125 18.359375 5.859375 
L 18.359375 46.09375 
Q 13.671875 38.28125 9.765625 33.59375 
Q 6.640625 37.890625 3.90625 40.234375 
Q 7.8125 44.140625 14.640625 55.265625 
Q 21.484375 66.40625 25.390625 80.46875 
Q 30.859375 77.734375 34.765625 76.5625 
z
M 76.953125 41.40625 
L 76.953125 49.21875 
L 48.046875 49.21875 
L 48.046875 41.40625 
z
M 76.953125 2.34375 
L 76.953125 9.765625 
L 48.046875 9.765625 
L 48.046875 2.34375 
z
M 76.953125 15.625 
L 76.953125 22.65625 
L 48.046875 22.65625 
L 48.046875 15.625 
z
M 76.953125 28.515625 
L 76.953125 35.546875 
L 48.046875 35.546875 
L 48.046875 28.515625 
z
" id="SimHei-20540"/>
     <path d="M 5.46875 -4.6875 
Q 10.15625 1.953125 12.6875 9.375 
Q 15.234375 16.796875 15.8125 24.21875 
Q 16.40625 31.640625 16.40625 49.21875 
Q 16.40625 66.796875 16.015625 77.34375 
L 85.9375 77.34375 
Q 85.546875 66.015625 85.546875 57.03125 
L 85.546875 5.859375 
Q 85.546875 -2.34375 80.859375 -4.296875 
Q 76.171875 -6.25 69.921875 -7.03125 
Q 69.140625 -1.171875 67.1875 1.953125 
Q 75 1.5625 76.359375 2.53125 
Q 77.734375 3.515625 77.734375 6.25 
L 77.734375 25.78125 
L 53.90625 25.78125 
L 53.90625 10.546875 
Q 53.90625 1.953125 54.296875 -5.078125 
L 45.703125 -5.078125 
Q 46.09375 1.5625 46.09375 10.15625 
L 46.09375 25.78125 
L 23.828125 25.78125 
Q 22.265625 8.984375 13.28125 -8.203125 
Q 8.984375 -5.46875 5.46875 -4.6875 
z
M 77.734375 54.296875 
L 77.734375 71.09375 
L 53.90625 71.09375 
L 53.90625 54.296875 
z
M 77.734375 32.03125 
L 77.734375 48.4375 
L 53.90625 48.4375 
L 53.90625 32.03125 
z
M 46.09375 54.296875 
L 46.09375 71.09375 
L 23.828125 71.09375 
L 23.828125 54.296875 
z
M 46.09375 32.03125 
L 46.09375 48.4375 
L 23.828125 48.4375 
L 23.828125 32.03125 
z
" id="SimHei-29992"/>
     <path d="M 90.234375 63.28125 
Q 89.84375 53.90625 89.84375 41.796875 
Q 89.84375 30.078125 90.234375 23.4375 
L 81.640625 23.4375 
L 81.640625 29.296875 
L 27.34375 29.296875 
Q 25.78125 16.796875 23.4375 10.546875 
Q 21.09375 4.296875 18.359375 -0.578125 
Q 15.625 -5.46875 12.5 -9.765625 
Q 8.59375 -6.640625 3.90625 -5.078125 
Q 11.71875 3.125 14.640625 10.34375 
Q 17.578125 17.578125 18.546875 24.015625 
Q 19.53125 30.46875 19.53125 37.890625 
Q 19.53125 45.3125 19.140625 63.28125 
L 90.234375 63.28125 
z
M 81.25 36.328125 
L 81.25 56.25 
L 26.953125 56.25 
L 26.953125 36.328125 
z
M 53.125 82.421875 
Q 57.8125 73.046875 59.765625 67.578125 
Q 54.6875 66.40625 51.953125 64.84375 
Q 49.21875 73.046875 45.703125 79.296875 
Q 49.609375 80.46875 53.125 82.421875 
z
" id="SimHei-25143"/>
    </defs>
    <g style="fill:#262626;" transform="translate(201.794078 87.7252)scale(0.1 -0.1)">
     <use xlink:href="#SimHei-39640"/>
     <use x="100" xlink:href="#SimHei-20215"/>
     <use x="200" xlink:href="#SimHei-20540"/>
     <use x="300" xlink:href="#SimHei-29992"/>
     <use x="400" xlink:href="#SimHei-25143"/>
    </g>
   </g>
   <g id="text_2">
    <!-- 11.84% -->
    <defs>
     <path d="M 21.875 56.25 
Q 16.796875 51.171875 8.984375 46.484375 
L 8.984375 53.90625 
Q 18.75 60.546875 25 69.53125 
L 29.6875 69.53125 
L 29.6875 2.34375 
L 21.875 2.34375 
z
" id="SimHei-49"/>
     <path d="M 16.796875 1.953125 
L 7.8125 1.953125 
L 7.8125 10.546875 
L 16.796875 10.546875 
z
" id="SimHei-46"/>
     <path d="M 2.734375 16.796875 
Q 2.734375 26.171875 5.078125 30.65625 
Q 7.421875 35.15625 12.890625 37.890625 
Q 8.203125 40.625 6.640625 43.9375 
Q 5.078125 47.265625 4.875 51.5625 
Q 4.6875 55.859375 6.046875 58.984375 
Q 7.421875 62.109375 10.15625 64.84375 
Q 12.890625 67.578125 16.203125 68.546875 
Q 19.53125 69.53125 23.4375 69.53125 
Q 27.34375 69.53125 30.46875 68.75 
Q 33.59375 67.96875 37.109375 65.421875 
Q 40.625 62.890625 42.1875 58.203125 
Q 43.75 53.515625 41.984375 47.265625 
Q 40.234375 41.015625 32.8125 37.5 
Q 39.453125 35.546875 42.1875 31.4375 
Q 44.921875 27.34375 44.921875 21.484375 
Q 44.921875 15.625 43.15625 12.109375 
Q 41.40625 8.59375 39.25 6.25 
Q 37.109375 3.90625 33.390625 2.53125 
Q 29.6875 1.171875 24.015625 1.171875 
Q 18.359375 1.171875 14.25 2.53125 
Q 10.15625 3.90625 7.421875 6.640625 
Q 4.6875 9.375 3.703125 13.078125 
Q 2.734375 16.796875 2.734375 26.171875 
z
M 10.9375 26.5625 
Q 10.546875 17.1875 12.296875 13.671875 
Q 14.0625 10.15625 18.75 9.171875 
Q 23.4375 8.203125 28.515625 9.375 
Q 33.59375 10.546875 35.546875 14.84375 
Q 37.5 19.140625 36.90625 23.4375 
Q 36.328125 27.734375 32.03125 30.65625 
Q 27.734375 33.59375 22.65625 33.203125 
Q 17.578125 32.8125 14.25 29.6875 
Q 10.9375 26.5625 10.546875 17.1875 
z
M 12.109375 56.25 
Q 12.109375 48.4375 14.84375 44.921875 
Q 17.578125 41.40625 23.4375 41.40625 
Q 29.296875 41.40625 32.21875 44.921875 
Q 35.15625 48.4375 34.953125 53.3125 
Q 34.765625 58.203125 31.4375 60.546875 
Q 28.125 62.890625 22.453125 62.5 
Q 16.796875 62.109375 14.453125 59.171875 
Q 12.109375 56.25 12.109375 48.4375 
z
" id="SimHei-56"/>
     <path d="M 31.25 17.1875 
L 1.171875 17.1875 
L 1.171875 23.828125 
L 32.8125 69.53125 
L 38.671875 69.53125 
L 38.671875 23.828125 
L 48.046875 23.828125 
L 48.046875 17.1875 
L 38.671875 17.1875 
L 38.671875 2.34375 
L 31.25 2.34375 
z
M 31.25 23.828125 
L 31.25 54.6875 
L 9.375 23.828125 
z
" id="SimHei-52"/>
     <path d="M 21.875 51.953125 
Q 21.875 40.625 18.546875 37.5 
Q 15.234375 34.375 12.109375 34.375 
Q 8.984375 34.375 5.65625 37.5 
Q 2.34375 40.625 2.34375 51.953125 
Q 2.34375 63.28125 5.65625 66.40625 
Q 8.984375 69.53125 12.109375 69.53125 
Q 15.234375 69.53125 18.546875 66.40625 
Q 21.875 63.28125 21.875 51.953125 
z
M 41.015625 68.359375 
L 10.9375 1.171875 
L 7.8125 2.34375 
L 37.890625 69.53125 
z
M 46.484375 18.75 
Q 46.484375 7.421875 43.15625 4.296875 
Q 39.84375 1.171875 36.71875 1.171875 
Q 33.59375 1.171875 30.265625 4.296875 
Q 26.953125 7.421875 26.953125 18.75 
Q 26.953125 30.078125 30.265625 33.203125 
Q 33.59375 36.328125 36.71875 36.328125 
Q 39.84375 36.328125 43.15625 33.203125 
Q 46.484375 30.078125 46.484375 18.75 
z
M 15.625 51.953125 
Q 15.625 58.984375 14.84375 61.328125 
Q 14.0625 63.671875 12.109375 63.671875 
Q 10.15625 63.671875 9.375 61.328125 
Q 8.59375 58.984375 8.59375 51.953125 
Q 8.59375 44.921875 9.375 42.578125 
Q 10.15625 40.234375 12.109375 40.234375 
Q 14.0625 40.234375 14.84375 42.578125 
Q 15.625 44.921875 15.625 51.953125 
z
M 40.234375 18.75 
Q 40.234375 25.78125 39.453125 28.125 
Q 38.671875 30.46875 36.71875 30.46875 
Q 34.765625 30.46875 33.984375 28.125 
Q 33.203125 25.78125 33.203125 18.75 
Q 33.203125 11.71875 33.984375 9.375 
Q 34.765625 7.03125 36.71875 7.03125 
Q 38.671875 7.03125 39.453125 9.375 
Q 40.234375 11.71875 40.234375 18.75 
z
" id="SimHei-37"/>
    </defs>
    <g style="fill:#262626;" transform="translate(142.59821 104.38504)scale(0.1 -0.1)">
     <use xlink:href="#SimHei-49"/>
     <use x="50" xlink:href="#SimHei-49"/>
     <use x="100" xlink:href="#SimHei-46"/>
     <use x="150" xlink:href="#SimHei-56"/>
     <use x="200" xlink:href="#SimHei-52"/>
     <use x="250" xlink:href="#SimHei-37"/>
    </g>
   </g>
   <g id="text_3">
    <!-- 流失用户 -->
    <defs>
     <path d="M 58.203125 82.03125 
Q 62.109375 76.171875 66.015625 69.53125 
L 78.515625 69.53125 
Q 84.765625 69.53125 92.578125 69.921875 
L 92.578125 62.890625 
Q 83.203125 63.28125 78.515625 63.28125 
L 53.515625 63.28125 
Q 56.640625 60.9375 58.984375 59.765625 
Q 57.03125 58.203125 53.90625 54.296875 
Q 50.78125 50.390625 44.53125 43.359375 
Q 58.59375 43.75 74.609375 44.53125 
Q 70.703125 49.21875 66.796875 52.734375 
Q 70.703125 55.46875 72.265625 57.421875 
Q 83.203125 46.09375 90.625 37.109375 
Q 87.109375 34.375 84.375 32.03125 
Q 81.25 36.328125 78.90625 39.453125 
Q 70.3125 38.671875 55.65625 37.6875 
Q 41.015625 36.71875 35.9375 35.15625 
Q 34.765625 38.671875 32.421875 41.796875 
Q 36.328125 42.96875 41.796875 49.609375 
Q 47.265625 56.25 50.78125 63.28125 
L 46.484375 63.28125 
Q 39.453125 63.28125 32.03125 62.5 
L 32.03125 69.921875 
Q 39.453125 69.53125 46.484375 69.53125 
L 57.421875 69.53125 
Q 54.296875 75 51.953125 78.125 
Q 55.859375 80.078125 58.203125 82.03125 
z
M 78.515625 31.640625 
Q 78.125 26.5625 78.125 21.484375 
L 78.125 2.34375 
Q 78.125 -1.171875 81.640625 -1.171875 
L 85.546875 -1.171875 
Q 88.671875 -1.171875 89.0625 7.8125 
Q 92.1875 5.46875 96.875 4.296875 
Q 94.53125 -5.46875 91.984375 -6.640625 
Q 89.453125 -7.8125 85.9375 -7.8125 
L 78.515625 -7.8125 
Q 71.09375 -7.8125 71.09375 -0.390625 
L 71.09375 22.265625 
Q 71.09375 26.953125 70.703125 31.640625 
L 78.515625 31.640625 
z
M 48.828125 30.859375 
Q 48.046875 26.953125 47.453125 18.9375 
Q 46.875 10.9375 43.9375 3.515625 
Q 41.015625 -3.90625 30.46875 -10.9375 
Q 27.734375 -7.421875 24.609375 -5.078125 
Q 32.421875 -1.5625 36.125 4.484375 
Q 39.84375 10.546875 40.234375 18.15625 
Q 40.625 25.78125 40.234375 31.640625 
Q 44.140625 30.859375 48.828125 30.859375 
z
M 62.5 31.640625 
Q 62.109375 29.296875 62.109375 21.875 
L 62.109375 4.6875 
Q 62.109375 -0.390625 62.5 -7.8125 
L 54.296875 -7.8125 
Q 54.6875 -0.78125 54.6875 4.6875 
L 54.6875 21.875 
Q 54.6875 28.515625 54.296875 31.640625 
L 62.5 31.640625 
z
M 29.6875 25.390625 
Q 25.78125 18.75 21.09375 8.78125 
Q 16.40625 -1.171875 13.28125 -6.640625 
Q 9.765625 -3.90625 5.078125 -1.953125 
Q 8.984375 2.734375 14.0625 11.71875 
Q 19.140625 20.703125 22.65625 30.46875 
Q 25.78125 27.734375 29.6875 25.390625 
z
M 9.765625 53.90625 
Q 18.75 48.4375 26.953125 42.578125 
Q 23.828125 39.453125 21.484375 35.546875 
Q 14.453125 42.1875 5.078125 46.875 
Q 7.421875 50 9.765625 53.90625 
z
M 14.453125 77.734375 
Q 23.4375 72.265625 29.6875 67.1875 
Q 26.953125 63.671875 24.21875 60.546875 
Q 17.96875 66.796875 9.765625 71.484375 
Q 12.5 75 14.453125 77.734375 
z
" id="SimHei-27969"/>
     <path d="M 32.03125 69.53125 
Q 30.078125 67.578125 26.171875 58.59375 
L 46.09375 58.59375 
Q 46.09375 72.65625 45.703125 79.6875 
Q 49.609375 79.296875 54.6875 78.90625 
Q 53.90625 73.4375 53.703125 69.140625 
Q 53.515625 64.84375 53.515625 58.59375 
L 71.875 58.59375 
Q 78.125 58.59375 84.765625 58.984375 
L 84.765625 51.5625 
Q 78.515625 51.953125 71.875 51.953125 
L 53.515625 51.953125 
Q 53.515625 43.359375 52.734375 34.375 
L 78.90625 34.375 
Q 84.765625 34.375 91.796875 34.765625 
L 91.796875 27.34375 
Q 84.765625 27.734375 78.90625 27.734375 
L 55.859375 27.734375 
Q 60.546875 17.1875 71.875 10.546875 
Q 83.203125 3.90625 94.140625 1.5625 
Q 91.015625 -2.34375 88.671875 -7.421875 
Q 77.34375 -3.125 66.40625 4.484375 
Q 55.46875 12.109375 50 23.046875 
Q 45.3125 12.890625 36.328125 4.6875 
Q 27.34375 -3.515625 12.109375 -10.15625 
Q 10.15625 -6.25 6.25 -2.734375 
Q 19.53125 0.78125 29.875 9.171875 
Q 40.234375 17.578125 43.359375 27.734375 
L 20.703125 27.734375 
Q 14.453125 27.734375 7.03125 27.34375 
L 7.03125 34.765625 
Q 14.453125 34.375 20.703125 34.375 
L 44.921875 34.375 
Q 46.09375 42.578125 46.09375 51.953125 
L 23.4375 51.953125 
Q 18.75 43.75 15.234375 38.28125 
Q 12.109375 40.234375 7.8125 41.796875 
Q 14.84375 50.390625 18.546875 58.59375 
Q 22.265625 66.796875 23.4375 73.046875 
Q 28.125 70.703125 32.03125 69.53125 
z
" id="SimHei-22833"/>
    </defs>
    <g style="fill:#262626;" transform="translate(162.225753 48.654589)scale(0.1 -0.1)">
     <use xlink:href="#SimHei-27969"/>
     <use x="100" xlink:href="#SimHei-22833"/>
     <use x="200" xlink:href="#SimHei-29992"/>
     <use x="300" xlink:href="#SimHei-25143"/>
    </g>
   </g>
   <g id="text_4">
    <!-- 6.14% -->
    <defs>
     <path d="M 3.515625 19.53125 
Q 4.296875 30.859375 6.046875 34.765625 
Q 7.8125 38.671875 11.328125 44.53125 
L 27.34375 69.53125 
L 36.328125 69.53125 
L 19.921875 43.75 
Q 30.46875 46.484375 36.71875 42.96875 
Q 42.96875 39.453125 45.109375 34.953125 
Q 47.265625 30.46875 47.453125 25.1875 
Q 47.65625 19.921875 45.890625 14.84375 
Q 44.140625 9.765625 39.640625 5.65625 
Q 35.15625 1.5625 27.140625 1.171875 
Q 19.140625 0.78125 13.46875 4.09375 
Q 7.8125 7.421875 5.65625 13.46875 
Q 3.515625 19.53125 4.296875 30.859375 
z
M 12.5 16.015625 
Q 19.53125 8.59375 25.390625 8.203125 
Q 31.25 7.8125 35.15625 12.109375 
Q 39.0625 16.40625 39.0625 24.609375 
Q 39.0625 32.8125 34.171875 35.9375 
Q 29.296875 39.0625 23.234375 38.28125 
Q 17.1875 37.5 14.453125 32.421875 
Q 11.71875 27.34375 12.109375 21.671875 
Q 12.5 16.015625 19.53125 8.59375 
z
" id="SimHei-54"/>
    </defs>
    <g style="fill:#262626;" transform="translate(121.631058 86.277117)scale(0.1 -0.1)">
     <use xlink:href="#SimHei-54"/>
     <use x="50" xlink:href="#SimHei-46"/>
     <use x="100" xlink:href="#SimHei-49"/>
     <use x="150" xlink:href="#SimHei-52"/>
     <use x="200" xlink:href="#SimHei-37"/>
    </g>
   </g>
   <g id="text_5">
    <!-- 发展用户 -->
    <defs>
     <path d="M 54.296875 76.953125 
Q 52.34375 72.65625 51.171875 68.15625 
Q 50 63.671875 48.046875 55.859375 
L 79.296875 55.859375 
Q 83.203125 55.859375 91.015625 56.25 
L 91.015625 48.828125 
Q 83.203125 49.21875 79.296875 49.21875 
L 46.484375 49.21875 
Q 44.140625 43.359375 41.40625 37.5 
L 82.8125 37.5 
Q 75.390625 19.53125 62.109375 7.421875 
Q 72.65625 0 92.96875 -2.34375 
Q 90.234375 -5.46875 88.28125 -10.15625 
Q 80.46875 -8.59375 72.265625 -5.65625 
Q 64.0625 -2.734375 56.25 2.734375 
Q 50 -1.171875 41.015625 -4.875 
Q 32.03125 -8.59375 22.65625 -10.9375 
Q 21.875 -7.03125 18.75 -3.515625 
Q 27.34375 -2.34375 35.9375 0.578125 
Q 44.53125 3.515625 51.171875 7.8125 
Q 44.53125 14.453125 36.328125 26.953125 
Q 32.03125 19.921875 25.390625 13.28125 
Q 18.75 6.640625 10.9375 1.171875 
Q 9.375 3.90625 4.6875 7.03125 
Q 10.546875 10.15625 16.203125 15.234375 
Q 21.875 20.3125 28.125 28.703125 
Q 34.375 37.109375 38.671875 49.21875 
Q 28.515625 49.21875 23.046875 48.828125 
Q 17.578125 48.4375 14.84375 47.265625 
Q 13.671875 50.78125 11.71875 54.6875 
Q 15.625 55.46875 17.375 60.546875 
Q 19.140625 65.625 21.09375 76.171875 
Q 24.21875 74.609375 29.6875 73.046875 
Q 27.734375 69.140625 26.171875 65.03125 
Q 24.609375 60.9375 22.65625 55.859375 
L 40.625 55.859375 
Q 43.75 68.359375 45.3125 79.6875 
Q 49.609375 77.34375 54.296875 76.953125 
z
M 41.796875 31.25 
Q 47.265625 21.484375 57.03125 11.71875 
Q 65.625 18.75 72.265625 31.25 
L 41.796875 31.25 
z
M 68.75 79.296875 
Q 75.390625 71.875 82.03125 64.0625 
Q 79.296875 62.5 75.390625 58.984375 
Q 69.140625 67.96875 63.28125 74.21875 
Q 66.015625 76.171875 68.75 79.296875 
z
" id="SimHei-21457"/>
     <path d="M 85.15625 78.125 
Q 84.765625 72.265625 84.765625 66.796875 
Q 84.765625 61.328125 85.15625 55.859375 
L 68.359375 55.859375 
L 68.359375 46.484375 
L 75 46.484375 
Q 78.90625 46.484375 84.375 46.875 
L 84.375 39.84375 
Q 77.734375 40.234375 75.390625 40.234375 
L 68.359375 40.234375 
L 68.359375 30.859375 
L 82.421875 30.859375 
Q 85.9375 30.859375 92.1875 31.25 
L 92.1875 24.21875 
Q 85.9375 24.609375 82.8125 24.609375 
L 58.203125 24.609375 
Q 60.9375 15.234375 67.578125 9.765625 
Q 73.828125 16.40625 77.734375 23.046875 
Q 80.859375 20.703125 85.15625 18.359375 
Q 81.640625 16.015625 72.265625 5.859375 
Q 81.25 -0.390625 94.140625 -2.34375 
Q 91.015625 -5.078125 89.0625 -9.765625 
Q 78.125 -6.25 71.28125 -2.34375 
Q 64.453125 1.5625 59.375 7.8125 
Q 54.296875 14.0625 51.171875 24.609375 
L 40.625 24.609375 
L 40.625 2.34375 
Q 48.828125 7.03125 51.5625 9.375 
Q 52.34375 5.078125 53.90625 1.5625 
Q 51.5625 0.390625 45.890625 -3.125 
Q 40.234375 -6.640625 35.9375 -10.546875 
Q 33.203125 -6.640625 30.859375 -3.90625 
Q 33.59375 -0.78125 33.59375 4.6875 
L 33.59375 24.609375 
L 21.09375 24.609375 
Q 19.921875 12.5 16.984375 3.515625 
Q 14.0625 -5.46875 11.328125 -9.765625 
Q 8.203125 -7.03125 5.078125 -5.46875 
Q 8.59375 1.171875 10.734375 8.203125 
Q 12.890625 15.234375 13.671875 23.046875 
Q 14.453125 30.859375 14.25 40.421875 
Q 14.0625 50 14.0625 57.03125 
Q 14.0625 64.453125 13.671875 78.125 
L 85.15625 78.125 
z
M 77.734375 62.109375 
L 77.734375 71.484375 
L 21.09375 71.484375 
L 21.09375 62.109375 
z
M 39.0625 30.859375 
L 39.0625 40.234375 
L 35.15625 40.234375 
Q 31.640625 40.234375 25.390625 39.84375 
L 25.390625 46.875 
Q 31.640625 46.484375 35.15625 46.484375 
L 39.0625 46.484375 
L 39.0625 55.859375 
L 21.09375 55.859375 
L 21.09375 30.859375 
z
M 61.328125 46.484375 
L 61.328125 55.859375 
L 46.09375 55.859375 
L 46.09375 46.484375 
z
M 61.328125 30.859375 
L 61.328125 40.234375 
L 46.09375 40.234375 
L 46.09375 30.859375 
z
" id="SimHei-23637"/>
    </defs>
    <g style="fill:#262626;" transform="translate(14.866583 45.208017)scale(0.1 -0.1)">
     <use xlink:href="#SimHei-21457"/>
     <use x="100" xlink:href="#SimHei-23637"/>
     <use x="200" xlink:href="#SimHei-29992"/>
     <use x="300" xlink:href="#SimHei-25143"/>
    </g>
   </g>
   <g id="text_6">
    <!-- 32.16% -->
    <defs>
     <path d="M 3.90625 19.140625 
L 10.9375 20.3125 
Q 12.5 15.234375 16.015625 11.90625 
Q 19.53125 8.59375 24.796875 8.78125 
Q 30.078125 8.984375 33.203125 13.078125 
Q 36.328125 17.1875 35.9375 22.453125 
Q 35.546875 27.734375 31.828125 30.65625 
Q 28.125 33.59375 19.921875 34.765625 
L 19.921875 39.84375 
Q 28.125 40.625 31.828125 44.140625 
Q 35.546875 47.65625 35.15625 53.3125 
Q 34.765625 58.984375 30.078125 61.515625 
Q 25.390625 64.0625 20.109375 62.109375 
Q 14.84375 60.15625 11.71875 51.171875 
L 4.6875 52.34375 
Q 7.03125 59.375 11.125 64.0625 
Q 15.234375 68.75 22.265625 69.53125 
Q 29.296875 70.3125 34.5625 67.765625 
Q 39.84375 65.234375 41.984375 59.953125 
Q 44.140625 54.6875 42.578125 48.4375 
Q 41.015625 42.1875 33.59375 37.5 
Q 39.0625 35.15625 41.984375 30.46875 
Q 44.921875 25.78125 43.9375 18.15625 
Q 42.96875 10.546875 37.109375 5.859375 
Q 31.25 1.171875 23.828125 1.359375 
Q 16.40625 1.5625 10.9375 6.046875 
Q 5.46875 10.546875 3.90625 19.140625 
z
" id="SimHei-51"/>
     <path d="M 4.6875 3.90625 
Q 5.078125 9.765625 10.15625 14.453125 
Q 15.234375 19.140625 23.046875 29.09375 
Q 30.859375 39.0625 33.203125 44.53125 
Q 35.546875 50 34.953125 53.90625 
Q 34.375 57.8125 31.25 60.34375 
Q 28.125 62.890625 24.015625 62.5 
Q 19.921875 62.109375 16.203125 59.375 
Q 12.5 56.640625 10.546875 51.171875 
L 3.125 52.34375 
Q 6.25 61.328125 11.125 65.421875 
Q 16.015625 69.53125 22.65625 69.921875 
Q 26.5625 70.3125 29.6875 69.71875 
Q 32.8125 69.140625 36.125 66.984375 
Q 39.453125 64.84375 41.59375 60.546875 
Q 43.75 56.25 43.15625 50.1875 
Q 42.578125 44.140625 37.109375 35.734375 
Q 31.640625 27.34375 16.015625 9.375 
L 44.140625 9.375 
L 44.140625 2.34375 
L 4.6875 2.34375 
z
" id="SimHei-50"/>
    </defs>
    <g style="fill:#262626;" transform="translate(65.451473 84.553831)scale(0.1 -0.1)">
     <use xlink:href="#SimHei-51"/>
     <use x="50" xlink:href="#SimHei-50"/>
     <use x="100" xlink:href="#SimHei-46"/>
     <use x="150" xlink:href="#SimHei-49"/>
     <use x="200" xlink:href="#SimHei-54"/>
     <use x="250" xlink:href="#SimHei-37"/>
    </g>
   </g>
   <g id="text_7">
    <!-- 一般价值用户 -->
    <defs>
     <path d="M 76.171875 41.796875 
Q 86.328125 41.796875 94.53125 42.1875 
L 94.53125 32.03125 
Q 86.328125 32.421875 76.5625 32.421875 
L 25 32.421875 
Q 14.84375 32.421875 5.46875 32.03125 
L 5.46875 42.1875 
Q 14.84375 41.796875 25 41.796875 
z
" id="SimHei-19968"/>
     <path d="M 32.421875 78.515625 
Q 29.6875 72.65625 28.515625 68.359375 
L 44.921875 68.359375 
Q 44.53125 62.109375 44.53125 55.859375 
L 44.53125 2.34375 
Q 44.53125 -3.90625 41.796875 -5.46875 
Q 39.0625 -7.03125 30.46875 -8.984375 
Q 29.296875 -4.296875 26.953125 -0.78125 
Q 33.203125 -0.78125 35.34375 0 
Q 37.5 0.78125 37.890625 5.078125 
L 37.890625 31.25 
L 18.75 31.25 
Q 18.75 19.140625 16.40625 8 
Q 14.0625 -3.125 9.375 -10.546875 
Q 6.640625 -7.8125 3.515625 -5.859375 
Q 8.59375 2.734375 10.34375 11.90625 
Q 12.109375 21.09375 12.109375 31.25 
Q 8.59375 31.25 5.078125 30.859375 
L 5.078125 37.5 
Q 8.984375 37.109375 12.109375 37.109375 
L 12.109375 56.25 
Q 12.109375 62.5 11.71875 68.359375 
L 21.484375 68.359375 
Q 23.046875 74.609375 23.828125 80.859375 
Q 28.515625 78.90625 32.421875 78.515625 
z
M 89.84375 39.0625 
Q 87.5 30.078125 84.375 23.234375 
Q 81.25 16.40625 76.171875 9.375 
Q 84.765625 0.78125 96.484375 -2.734375 
Q 93.75 -5.859375 91.40625 -9.765625 
Q 86.328125 -7.8125 80.46875 -3.703125 
Q 74.609375 0.390625 71.09375 4.6875 
Q 62.109375 -4.6875 49.609375 -10.9375 
Q 48.046875 -7.8125 44.53125 -5.078125 
Q 58.59375 0.390625 66.015625 9.765625 
Q 58.59375 19.140625 54.296875 33.203125 
Q 51.5625 32.8125 49.21875 32.8125 
L 49.21875 39.453125 
Q 58.984375 39.0625 65.625 39.0625 
z
M 83.203125 75 
Q 82.8125 69.921875 82.8125 64.84375 
L 82.8125 55.859375 
Q 82.421875 51.953125 84.5625 51.359375 
Q 86.71875 50.78125 96.484375 51.171875 
Q 94.921875 48.828125 94.53125 44.53125 
L 84.765625 44.53125 
Q 75.78125 44.53125 75.78125 53.125 
L 75.78125 69.140625 
L 63.671875 69.140625 
Q 63.671875 59.375 61.90625 53.703125 
Q 60.15625 48.046875 52.34375 40.625 
Q 49.609375 43.75 46.484375 45.703125 
Q 55.46875 51.953125 56.25 60.546875 
Q 57.03125 69.140625 56.25 75 
L 83.203125 75 
z
M 37.890625 37.109375 
L 37.890625 62.890625 
L 18.75 62.890625 
L 18.75 37.109375 
z
M 61.328125 33.203125 
Q 66.015625 20.703125 71.484375 14.84375 
Q 77.34375 21.875 80.46875 33.203125 
L 64.84375 33.203125 
z
M 28.515625 26.171875 
Q 33.203125 17.578125 34.765625 11.71875 
Q 31.640625 10.9375 28.515625 8.59375 
Q 25.78125 16.796875 22.265625 23.046875 
Q 25 24.21875 28.515625 26.171875 
z
M 28.515625 57.8125 
Q 31.640625 52.34375 33.984375 44.53125 
Q 30.46875 42.96875 27.734375 41.40625 
Q 26.5625 46.875 22.65625 54.6875 
Q 25.78125 55.859375 28.515625 57.8125 
z
" id="SimHei-33324"/>
    </defs>
    <g style="fill:#262626;" transform="translate(106.475235 219.992476)scale(0.1 -0.1)">
     <use xlink:href="#SimHei-19968"/>
     <use x="100" xlink:href="#SimHei-33324"/>
     <use x="200" xlink:href="#SimHei-20215"/>
     <use x="300" xlink:href="#SimHei-20540"/>
     <use x="400" xlink:href="#SimHei-29992"/>
     <use x="500" xlink:href="#SimHei-25143"/>
    </g>
   </g>
   <g id="text_8">
    <!-- 49.85% -->
    <defs>
     <path d="M 12.5 1.171875 
Q 21.09375 15.625 26.5625 27.34375 
Q 16.796875 25.78125 10.34375 29.875 
Q 3.90625 33.984375 2.53125 41.015625 
Q 1.171875 48.046875 2.734375 53.703125 
Q 4.296875 59.375 7.609375 63.078125 
Q 10.9375 66.796875 15.625 68.359375 
Q 20.3125 69.921875 24.015625 69.921875 
Q 27.734375 69.921875 31.640625 68.359375 
Q 35.546875 66.796875 38.671875 63.671875 
Q 41.796875 60.546875 42.96875 57.21875 
Q 44.140625 53.90625 44.140625 48.625 
Q 44.140625 43.359375 40.234375 35.15625 
Q 36.328125 26.953125 21.09375 1.171875 
z
M 9.765625 50 
Q 10.9375 39.84375 14.640625 36.515625 
Q 18.359375 33.203125 22.65625 33.59375 
Q 26.953125 33.984375 29.484375 35.9375 
Q 32.03125 37.890625 34.375 42.578125 
Q 35.9375 48.4375 35.15625 52.53125 
Q 34.375 56.640625 31.046875 59.375 
Q 27.734375 62.109375 23.828125 62.109375 
Q 21.484375 62.5 17.765625 60.9375 
Q 14.0625 59.375 11.90625 54.6875 
Q 9.765625 50 10.9375 39.84375 
z
" id="SimHei-57"/>
     <path d="M 8.59375 20.703125 
Q 11.328125 10.15625 17.96875 8.984375 
Q 24.609375 7.8125 28.703125 10.34375 
Q 32.8125 12.890625 34.5625 16.984375 
Q 36.328125 21.09375 36.125 26.171875 
Q 35.9375 31.25 33.390625 34.765625 
Q 30.859375 38.28125 26.953125 39.453125 
Q 23.046875 40.625 18.15625 39.453125 
Q 13.28125 38.28125 10.15625 33.984375 
L 3.515625 34.765625 
Q 4.296875 37.109375 10.9375 68.359375 
L 41.796875 68.359375 
L 41.796875 61.328125 
L 16.796875 61.328125 
Q 14.84375 50.78125 12.890625 44.53125 
Q 18.75 47.265625 23.828125 47.0625 
Q 28.90625 46.875 33.59375 44.71875 
Q 38.28125 42.578125 40.421875 38.859375 
Q 42.578125 35.15625 43.546875 31.4375 
Q 44.53125 27.734375 44.328125 23.4375 
Q 44.140625 19.140625 42.578125 14.640625 
Q 41.015625 10.15625 37.890625 7.21875 
Q 34.765625 4.296875 30.265625 2.53125 
Q 25.78125 0.78125 19.921875 1.171875 
Q 14.0625 1.5625 8.78125 5.46875 
Q 3.515625 9.375 1.5625 18.75 
z
" id="SimHei-53"/>
    </defs>
    <g style="fill:#262626;" transform="translate(91.255799 171.946061)scale(0.1 -0.1)">
     <use xlink:href="#SimHei-52"/>
     <use x="50" xlink:href="#SimHei-57"/>
     <use x="100" xlink:href="#SimHei-46"/>
     <use x="150" xlink:href="#SimHei-56"/>
     <use x="200" xlink:href="#SimHei-53"/>
     <use x="250" xlink:href="#SimHei-37"/>
    </g>
   </g>
   <g id="text_9">
    <!-- rfm用户价值模型 -->
    <defs>
     <path d="M 39.0625 37.890625 
Q 31.640625 39.0625 26.5625 35.734375 
Q 21.484375 32.421875 17.96875 24.21875 
L 17.96875 1.953125 
L 10.15625 1.953125 
L 10.15625 45.703125 
L 17.96875 45.703125 
L 17.96875 34.375 
Q 21.484375 40.625 26.75 43.546875 
Q 32.03125 46.484375 39.0625 46.484375 
z
" id="SimHei-114"/>
     <path d="M 44.53125 59.765625 
Q 42.578125 60.9375 39.84375 61.71875 
Q 37.109375 62.5 32.8125 62.5 
Q 28.515625 62.5 26.953125 60.34375 
Q 25.390625 58.203125 25.390625 55.078125 
L 25.390625 45.703125 
L 41.40625 45.703125 
L 41.40625 39.453125 
L 25.390625 39.453125 
L 25.390625 1.953125 
L 17.578125 1.953125 
L 17.578125 39.453125 
L 4.296875 39.453125 
L 4.296875 45.703125 
L 17.578125 45.703125 
L 17.578125 54.6875 
Q 17.578125 61.71875 21.875 65.625 
Q 26.171875 69.53125 33.203125 69.53125 
Q 37.5 69.53125 40.03125 68.9375 
Q 42.578125 68.359375 44.53125 67.578125 
z
" id="SimHei-102"/>
     <path d="M 47.65625 1.953125 
L 39.84375 1.953125 
L 39.84375 33.59375 
Q 39.84375 35.9375 39.0625 37.5 
Q 38.28125 39.0625 35.9375 39.0625 
Q 33.203125 39.0625 30.859375 36.125 
Q 28.515625 33.203125 28.515625 28.515625 
L 28.515625 1.953125 
L 20.703125 1.953125 
L 20.703125 33.59375 
Q 20.703125 35.9375 19.921875 37.5 
Q 19.140625 39.0625 16.796875 39.0625 
Q 14.0625 39.0625 11.71875 36.125 
Q 9.375 33.203125 9.375 28.515625 
L 9.375 1.953125 
L 1.5625 1.953125 
L 1.5625 45.703125 
L 9.375 45.703125 
L 9.375 39.84375 
Q 11.328125 42.96875 14.0625 44.71875 
Q 16.796875 46.484375 19.921875 46.484375 
Q 23.046875 46.484375 25.1875 44.71875 
Q 27.34375 42.96875 28.125 39.84375 
Q 30.078125 42.96875 32.609375 44.71875 
Q 35.15625 46.484375 38.28125 46.484375 
Q 42.96875 46.484375 45.3125 43.9375 
Q 47.65625 41.40625 47.65625 36.71875 
z
" id="SimHei-109"/>
     <path d="M 89.0625 57.421875 
Q 88.671875 53.125 88.671875 42.578125 
Q 88.671875 32.03125 89.0625 26.953125 
L 68.359375 26.953125 
Q 67.96875 22.65625 67.578125 18.75 
L 81.640625 18.75 
Q 89.84375 18.75 94.140625 19.140625 
L 94.140625 12.890625 
Q 89.453125 13.28125 81.640625 13.28125 
L 73.4375 13.28125 
Q 79.296875 5.859375 84.953125 2.140625 
Q 90.625 -1.5625 96.875 -3.125 
Q 93.359375 -5.859375 91.40625 -9.765625 
Q 82.421875 -6.25 75.96875 0.390625 
Q 69.53125 7.03125 67.1875 12.109375 
L 66.015625 12.109375 
Q 62.5 4.296875 55.265625 -0.96875 
Q 48.046875 -6.25 38.671875 -9.765625 
Q 36.71875 -5.859375 33.203125 -3.125 
Q 43.359375 -1.171875 50 3.125 
Q 56.640625 7.421875 58.984375 13.28125 
L 51.953125 13.28125 
Q 43.75 13.28125 37.5 12.890625 
L 37.5 19.140625 
Q 43.75 18.75 52.34375 18.75 
L 60.546875 18.75 
Q 61.328125 23.046875 61.328125 26.953125 
L 42.96875 26.953125 
Q 43.359375 32.421875 43.359375 42.1875 
Q 43.359375 52.34375 42.96875 57.421875 
L 89.0625 57.421875 
z
M 33.984375 25.78125 
Q 31.640625 30.859375 26.171875 39.453125 
L 26.171875 4.6875 
Q 26.171875 -4.6875 26.5625 -8.59375 
L 18.359375 -8.59375 
Q 18.75 -4.296875 18.75 3.90625 
L 18.75 34.765625 
Q 17.578125 31.25 15.03125 26.75 
Q 12.5 22.265625 9.375 16.40625 
Q 7.03125 19.921875 3.125 22.265625 
Q 9.375 28.515625 13.28125 37.890625 
Q 17.1875 47.265625 18.359375 53.515625 
L 14.84375 53.515625 
Q 10.9375 53.515625 6.25 53.125 
L 6.25 59.765625 
Q 10.546875 59.375 12.890625 59.375 
L 18.75 59.375 
L 18.75 67.96875 
Q 18.75 74.609375 18.359375 80.46875 
L 26.5625 80.46875 
Q 26.171875 75.390625 26.171875 69.140625 
L 26.171875 59.375 
Q 32.421875 59.375 37.109375 59.765625 
L 37.109375 53.125 
Q 32.03125 53.515625 26.171875 53.515625 
L 26.171875 40.234375 
Q 28.90625 41.796875 31.25 43.359375 
Q 33.59375 39.453125 35.734375 36.328125 
Q 37.890625 33.203125 39.84375 30.078125 
Q 36.328125 27.734375 33.984375 25.78125 
z
M 52.734375 67.1875 
L 49.609375 67.1875 
Q 42.1875 67.1875 37.890625 66.796875 
L 37.890625 73.046875 
Q 42.1875 72.65625 49.21875 72.65625 
L 52.734375 72.65625 
Q 52.734375 78.125 52.34375 81.640625 
L 59.765625 81.640625 
Q 59.375 78.125 59.375 72.65625 
L 71.09375 72.65625 
Q 71.09375 77.734375 70.703125 81.25 
L 78.515625 81.25 
Q 78.125 76.953125 78.125 72.65625 
L 83.984375 72.65625 
Q 88.28125 72.65625 92.96875 73.046875 
L 92.96875 66.796875 
Q 88.28125 67.1875 83.984375 67.1875 
L 78.125 67.1875 
L 78.125 60.15625 
L 71.09375 60.15625 
L 71.09375 67.1875 
L 59.375 67.1875 
L 59.375 60.546875 
L 52.734375 60.546875 
z
M 82.421875 32.421875 
L 82.421875 39.453125 
L 50 39.453125 
L 50 32.421875 
z
M 82.421875 44.921875 
L 82.421875 51.953125 
L 50 51.953125 
L 50 44.921875 
z
" id="SimHei-27169"/>
     <path d="M 41.015625 27.734375 
Q 41.40625 36.328125 41.40625 42.1875 
L 41.40625 46.875 
L 28.515625 46.875 
Q 26.953125 37.109375 22.265625 31.25 
Q 17.578125 25.390625 12.109375 22.265625 
Q 10.15625 25.78125 5.859375 29.6875 
Q 13.28125 32.421875 16.59375 36.90625 
Q 19.921875 41.40625 21.09375 46.875 
Q 14.0625 46.875 5.859375 46.484375 
L 5.859375 53.90625 
Q 14.453125 53.515625 21.875 53.515625 
Q 22.265625 61.71875 22.265625 69.921875 
Q 16.796875 69.921875 10.9375 69.53125 
L 10.9375 76.5625 
Q 16.40625 76.171875 23.828125 76.171875 
L 46.875 76.171875 
Q 51.171875 76.171875 57.03125 76.5625 
L 57.03125 69.53125 
Q 51.953125 69.921875 48.828125 69.921875 
L 48.828125 53.515625 
Q 53.90625 53.515625 59.765625 53.90625 
L 59.765625 46.484375 
Q 53.90625 46.875 48.828125 46.875 
L 48.828125 41.796875 
Q 48.828125 34.765625 49.21875 27.734375 
z
M 46.875 18.359375 
Q 46.875 21.484375 46.484375 26.953125 
L 54.6875 26.953125 
Q 54.296875 21.484375 54.296875 18.359375 
L 71.09375 18.359375 
Q 78.90625 18.359375 85.15625 18.75 
L 85.15625 11.328125 
Q 77.734375 11.71875 71.09375 11.71875 
L 54.296875 11.71875 
L 54.296875 -0.78125 
L 82.421875 -0.78125 
Q 89.0625 -0.78125 95.3125 -0.390625 
L 95.3125 -7.8125 
Q 89.453125 -7.421875 82.8125 -7.421875 
L 19.53125 -7.421875 
Q 12.109375 -7.421875 6.25 -7.8125 
L 6.25 -0.390625 
Q 12.109375 -0.78125 19.53125 -0.78125 
L 46.875 -0.78125 
L 46.875 11.71875 
L 31.640625 11.71875 
Q 23.4375 11.71875 15.234375 11.328125 
L 16.40625 18.75 
Q 23.4375 18.359375 31.640625 18.359375 
z
M 90.234375 81.25 
Q 89.84375 74.609375 89.84375 67.578125 
L 89.84375 37.5 
Q 90.234375 30.46875 87.6875 27.734375 
Q 85.15625 25 76.5625 23.828125 
Q 75.390625 27.734375 73.046875 32.8125 
Q 80.859375 32.421875 81.828125 33.59375 
Q 82.8125 34.765625 82.8125 39.453125 
L 82.8125 67.578125 
Q 82.8125 74.609375 82.421875 81.25 
L 90.234375 81.25 
z
M 71.875 74.21875 
Q 71.484375 69.53125 71.484375 62.109375 
L 71.484375 50 
Q 71.484375 44.140625 71.875 37.890625 
L 64.0625 37.890625 
Q 64.453125 44.140625 64.453125 50 
L 64.453125 62.109375 
Q 64.453125 69.53125 64.0625 74.21875 
L 71.875 74.21875 
z
M 41.40625 53.515625 
L 41.40625 69.921875 
L 29.296875 69.921875 
Q 28.90625 58.59375 28.90625 53.515625 
z
" id="SimHei-22411"/>
    </defs>
    <g style="fill:#262626;" transform="translate(61.036364 16.85625)scale(0.12 -0.12)">
     <use xlink:href="#SimHei-114"/>
     <use x="50" xlink:href="#SimHei-102"/>
     <use x="100" xlink:href="#SimHei-109"/>
     <use x="150" xlink:href="#SimHei-29992"/>
     <use x="250" xlink:href="#SimHei-25143"/>
     <use x="350" xlink:href="#SimHei-20215"/>
     <use x="450" xlink:href="#SimHei-20540"/>
     <use x="550" xlink:href="#SimHei-27169"/>
     <use x="650" xlink:href="#SimHei-22411"/>
    </g>
   </g>
  </g>
 </g>
</svg>
