<?xml version="1.0" encoding="utf-8" standalone="no"?>
<!DOCTYPE svg PUBLIC "-//W3C//DTD SVG 1.1//EN"
  "http://www.w3.org/Graphics/SVG/1.1/DTD/svg11.dtd">
<!-- Created with matplotlib (https://matplotlib.org/) -->
<svg height="490.639375pt" version="1.1" viewBox="0 0 962.95 490.639375" width="962.95pt" xmlns="http://www.w3.org/2000/svg" xmlns:xlink="http://www.w3.org/1999/xlink">
 <defs>
  <style type="text/css">
*{stroke-linecap:butt;stroke-linejoin:round;}
  </style>
 </defs>
 <g id="figure_1">
  <g id="patch_1">
   <path d="M 0 490.639375 
L 962.95 490.639375 
L 962.95 0 
L 0 0 
z
" style="fill:#ffffff;"/>
  </g>
  <g id="axes_1">
   <g id="patch_2">
    <path d="M 51.7 464.251875 
L 944.5 464.251875 
L 944.5 29.371875 
L 51.7 29.371875 
z
" style="fill:#eaeaf2;"/>
   </g>
   <g id="matplotlib.axis_1">
    <g id="xtick_1">
     <g id="line2d_1">
      <path clip-path="url(#pa0d337c0c2)" d="M 99.343772 464.251875 
L 99.343772 29.371875 
" style="fill:none;stroke:#ffffff;stroke-linecap:round;stroke-width:0.8;"/>
     </g>
     <g id="text_1">
      <!-- -25 -->
      <defs>
       <path d="M 46.484375 33.203125 
L 1.953125 33.203125 
L 1.953125 39.453125 
L 46.484375 39.453125 
z
" id="SimHei-45"/>
       <path d="M 4.6875 3.90625 
Q 5.078125 9.765625 10.15625 14.453125 
Q 15.234375 19.140625 23.046875 29.09375 
Q 30.859375 39.0625 33.203125 44.53125 
Q 35.546875 50 34.953125 53.90625 
Q 34.375 57.8125 31.25 60.34375 
Q 28.125 62.890625 24.015625 62.5 
Q 19.921875 62.109375 16.203125 59.375 
Q 12.5 56.640625 10.546875 51.171875 
L 3.125 52.34375 
Q 6.25 61.328125 11.125 65.421875 
Q 16.015625 69.53125 22.65625 69.921875 
Q 26.5625 70.3125 29.6875 69.71875 
Q 32.8125 69.140625 36.125 66.984375 
Q 39.453125 64.84375 41.59375 60.546875 
Q 43.75 56.25 43.15625 50.1875 
Q 42.578125 44.140625 37.109375 35.734375 
Q 31.640625 27.34375 16.015625 9.375 
L 44.140625 9.375 
L 44.140625 2.34375 
L 4.6875 2.34375 
z
" id="SimHei-50"/>
       <path d="M 8.59375 20.703125 
Q 11.328125 10.15625 17.96875 8.984375 
Q 24.609375 7.8125 28.703125 10.34375 
Q 32.8125 12.890625 34.5625 16.984375 
Q 36.328125 21.09375 36.125 26.171875 
Q 35.9375 31.25 33.390625 34.765625 
Q 30.859375 38.28125 26.953125 39.453125 
Q 23.046875 40.625 18.15625 39.453125 
Q 13.28125 38.28125 10.15625 33.984375 
L 3.515625 34.765625 
Q 4.296875 37.109375 10.9375 68.359375 
L 41.796875 68.359375 
L 41.796875 61.328125 
L 16.796875 61.328125 
Q 14.84375 50.78125 12.890625 44.53125 
Q 18.75 47.265625 23.828125 47.0625 
Q 28.90625 46.875 33.59375 44.71875 
Q 38.28125 42.578125 40.421875 38.859375 
Q 42.578125 35.15625 43.546875 31.4375 
Q 44.53125 27.734375 44.328125 23.4375 
Q 44.140625 19.140625 42.578125 14.640625 
Q 41.015625 10.15625 37.890625 7.21875 
Q 34.765625 4.296875 30.265625 2.53125 
Q 25.78125 0.78125 19.921875 1.171875 
Q 14.0625 1.5625 8.78125 5.46875 
Q 3.515625 9.375 1.5625 18.75 
z
" id="SimHei-53"/>
      </defs>
      <g style="fill:#262626;" transform="translate(88.093772 481.564375)scale(0.15 -0.15)">
       <use xlink:href="#SimHei-45"/>
       <use x="50" xlink:href="#SimHei-50"/>
       <use x="100" xlink:href="#SimHei-53"/>
      </g>
     </g>
    </g>
    <g id="xtick_2">
     <g id="line2d_2">
      <path clip-path="url(#pa0d337c0c2)" d="M 164.355789 464.251875 
L 164.355789 29.371875 
" style="fill:none;stroke:#ffffff;stroke-linecap:round;stroke-width:0.8;"/>
     </g>
     <g id="text_2">
      <!-- 0 -->
      <defs>
       <path d="M 3.125 29.296875 
Q 3.90625 50 6.4375 56.046875 
Q 8.984375 62.109375 13.671875 66.015625 
Q 18.359375 69.921875 25.1875 69.921875 
Q 32.03125 69.921875 37.109375 64.25 
Q 42.1875 58.59375 43.75 50 
Q 45.3125 41.40625 44.71875 30.265625 
Q 44.140625 19.140625 40.8125 12.109375 
Q 37.5 5.078125 30.859375 2.34375 
Q 24.21875 -0.390625 17.578125 2.921875 
Q 10.9375 6.25 8.203125 11.71875 
Q 5.46875 17.1875 4.296875 23.234375 
Q 3.125 29.296875 3.90625 50 
z
M 12.890625 52.734375 
Q 10.546875 31.25 12.5 22.84375 
Q 14.453125 14.453125 18.9375 10.9375 
Q 23.4375 7.421875 28.125 9.5625 
Q 32.8125 11.71875 34.953125 18.15625 
Q 37.109375 24.609375 37.109375 32.21875 
Q 37.109375 39.84375 36.515625 46.09375 
Q 35.9375 52.34375 33 57.421875 
Q 30.078125 62.5 25.1875 62.6875 
Q 20.3125 62.890625 16.59375 57.8125 
Q 12.890625 52.734375 10.546875 31.25 
z
" id="SimHei-48"/>
      </defs>
      <g style="fill:#262626;" transform="translate(160.605789 481.564375)scale(0.15 -0.15)">
       <use xlink:href="#SimHei-48"/>
      </g>
     </g>
    </g>
    <g id="xtick_3">
     <g id="line2d_3">
      <path clip-path="url(#pa0d337c0c2)" d="M 229.367807 464.251875 
L 229.367807 29.371875 
" style="fill:none;stroke:#ffffff;stroke-linecap:round;stroke-width:0.8;"/>
     </g>
     <g id="text_3">
      <!-- 25 -->
      <g style="fill:#262626;" transform="translate(221.867807 481.564375)scale(0.15 -0.15)">
       <use xlink:href="#SimHei-50"/>
       <use x="50" xlink:href="#SimHei-53"/>
      </g>
     </g>
    </g>
    <g id="xtick_4">
     <g id="line2d_4">
      <path clip-path="url(#pa0d337c0c2)" d="M 294.379824 464.251875 
L 294.379824 29.371875 
" style="fill:none;stroke:#ffffff;stroke-linecap:round;stroke-width:0.8;"/>
     </g>
     <g id="text_4">
      <!-- 50 -->
      <g style="fill:#262626;" transform="translate(286.879824 481.564375)scale(0.15 -0.15)">
       <use xlink:href="#SimHei-53"/>
       <use x="50" xlink:href="#SimHei-48"/>
      </g>
     </g>
    </g>
    <g id="xtick_5">
     <g id="line2d_5">
      <path clip-path="url(#pa0d337c0c2)" d="M 359.391842 464.251875 
L 359.391842 29.371875 
" style="fill:none;stroke:#ffffff;stroke-linecap:round;stroke-width:0.8;"/>
     </g>
     <g id="text_5">
      <!-- 75 -->
      <defs>
       <path d="M 13.28125 2.34375 
Q 20.3125 32.03125 37.890625 61.328125 
L 4.296875 61.328125 
L 4.296875 68.359375 
L 46.09375 68.359375 
L 46.09375 61.71875 
Q 27.734375 32.03125 21.875 2.34375 
L 13.28125 2.34375 
z
" id="SimHei-55"/>
      </defs>
      <g style="fill:#262626;" transform="translate(351.891842 481.564375)scale(0.15 -0.15)">
       <use xlink:href="#SimHei-55"/>
       <use x="50" xlink:href="#SimHei-53"/>
      </g>
     </g>
    </g>
    <g id="xtick_6">
     <g id="line2d_6">
      <path clip-path="url(#pa0d337c0c2)" d="M 424.403859 464.251875 
L 424.403859 29.371875 
" style="fill:none;stroke:#ffffff;stroke-linecap:round;stroke-width:0.8;"/>
     </g>
     <g id="text_6">
      <!-- 100 -->
      <defs>
       <path d="M 21.875 56.25 
Q 16.796875 51.171875 8.984375 46.484375 
L 8.984375 53.90625 
Q 18.75 60.546875 25 69.53125 
L 29.6875 69.53125 
L 29.6875 2.34375 
L 21.875 2.34375 
z
" id="SimHei-49"/>
      </defs>
      <g style="fill:#262626;" transform="translate(413.153859 481.564375)scale(0.15 -0.15)">
       <use xlink:href="#SimHei-49"/>
       <use x="50" xlink:href="#SimHei-48"/>
       <use x="100" xlink:href="#SimHei-48"/>
      </g>
     </g>
    </g>
    <g id="xtick_7">
     <g id="line2d_7">
      <path clip-path="url(#pa0d337c0c2)" d="M 489.415877 464.251875 
L 489.415877 29.371875 
" style="fill:none;stroke:#ffffff;stroke-linecap:round;stroke-width:0.8;"/>
     </g>
     <g id="text_7">
      <!-- 125 -->
      <g style="fill:#262626;" transform="translate(478.165877 481.564375)scale(0.15 -0.15)">
       <use xlink:href="#SimHei-49"/>
       <use x="50" xlink:href="#SimHei-50"/>
       <use x="100" xlink:href="#SimHei-53"/>
      </g>
     </g>
    </g>
    <g id="xtick_8">
     <g id="line2d_8">
      <path clip-path="url(#pa0d337c0c2)" d="M 554.427895 464.251875 
L 554.427895 29.371875 
" style="fill:none;stroke:#ffffff;stroke-linecap:round;stroke-width:0.8;"/>
     </g>
     <g id="text_8">
      <!-- 150 -->
      <g style="fill:#262626;" transform="translate(543.177895 481.564375)scale(0.15 -0.15)">
       <use xlink:href="#SimHei-49"/>
       <use x="50" xlink:href="#SimHei-53"/>
       <use x="100" xlink:href="#SimHei-48"/>
      </g>
     </g>
    </g>
    <g id="xtick_9">
     <g id="line2d_9">
      <path clip-path="url(#pa0d337c0c2)" d="M 619.439912 464.251875 
L 619.439912 29.371875 
" style="fill:none;stroke:#ffffff;stroke-linecap:round;stroke-width:0.8;"/>
     </g>
     <g id="text_9">
      <!-- 175 -->
      <g style="fill:#262626;" transform="translate(608.189912 481.564375)scale(0.15 -0.15)">
       <use xlink:href="#SimHei-49"/>
       <use x="50" xlink:href="#SimHei-55"/>
       <use x="100" xlink:href="#SimHei-53"/>
      </g>
     </g>
    </g>
    <g id="xtick_10">
     <g id="line2d_10">
      <path clip-path="url(#pa0d337c0c2)" d="M 684.45193 464.251875 
L 684.45193 29.371875 
" style="fill:none;stroke:#ffffff;stroke-linecap:round;stroke-width:0.8;"/>
     </g>
     <g id="text_10">
      <!-- 200 -->
      <g style="fill:#262626;" transform="translate(673.20193 481.564375)scale(0.15 -0.15)">
       <use xlink:href="#SimHei-50"/>
       <use x="50" xlink:href="#SimHei-48"/>
       <use x="100" xlink:href="#SimHei-48"/>
      </g>
     </g>
    </g>
    <g id="xtick_11">
     <g id="line2d_11">
      <path clip-path="url(#pa0d337c0c2)" d="M 749.463947 464.251875 
L 749.463947 29.371875 
" style="fill:none;stroke:#ffffff;stroke-linecap:round;stroke-width:0.8;"/>
     </g>
     <g id="text_11">
      <!-- 225 -->
      <g style="fill:#262626;" transform="translate(738.213947 481.564375)scale(0.15 -0.15)">
       <use xlink:href="#SimHei-50"/>
       <use x="50" xlink:href="#SimHei-50"/>
       <use x="100" xlink:href="#SimHei-53"/>
      </g>
     </g>
    </g>
    <g id="xtick_12">
     <g id="line2d_12">
      <path clip-path="url(#pa0d337c0c2)" d="M 814.475965 464.251875 
L 814.475965 29.371875 
" style="fill:none;stroke:#ffffff;stroke-linecap:round;stroke-width:0.8;"/>
     </g>
     <g id="text_12">
      <!-- 250 -->
      <g style="fill:#262626;" transform="translate(803.225965 481.564375)scale(0.15 -0.15)">
       <use xlink:href="#SimHei-50"/>
       <use x="50" xlink:href="#SimHei-53"/>
       <use x="100" xlink:href="#SimHei-48"/>
      </g>
     </g>
    </g>
    <g id="xtick_13">
     <g id="line2d_13">
      <path clip-path="url(#pa0d337c0c2)" d="M 879.487982 464.251875 
L 879.487982 29.371875 
" style="fill:none;stroke:#ffffff;stroke-linecap:round;stroke-width:0.8;"/>
     </g>
     <g id="text_13">
      <!-- 275 -->
      <g style="fill:#262626;" transform="translate(868.237982 481.564375)scale(0.15 -0.15)">
       <use xlink:href="#SimHei-50"/>
       <use x="50" xlink:href="#SimHei-55"/>
       <use x="100" xlink:href="#SimHei-53"/>
      </g>
     </g>
    </g>
    <g id="xtick_14">
     <g id="line2d_14">
      <path clip-path="url(#pa0d337c0c2)" d="M 944.5 464.251875 
L 944.5 29.371875 
" style="fill:none;stroke:#ffffff;stroke-linecap:round;stroke-width:0.8;"/>
     </g>
     <g id="text_14">
      <!-- 300 -->
      <defs>
       <path d="M 3.90625 19.140625 
L 10.9375 20.3125 
Q 12.5 15.234375 16.015625 11.90625 
Q 19.53125 8.59375 24.796875 8.78125 
Q 30.078125 8.984375 33.203125 13.078125 
Q 36.328125 17.1875 35.9375 22.453125 
Q 35.546875 27.734375 31.828125 30.65625 
Q 28.125 33.59375 19.921875 34.765625 
L 19.921875 39.84375 
Q 28.125 40.625 31.828125 44.140625 
Q 35.546875 47.65625 35.15625 53.3125 
Q 34.765625 58.984375 30.078125 61.515625 
Q 25.390625 64.0625 20.109375 62.109375 
Q 14.84375 60.15625 11.71875 51.171875 
L 4.6875 52.34375 
Q 7.03125 59.375 11.125 64.0625 
Q 15.234375 68.75 22.265625 69.53125 
Q 29.296875 70.3125 34.5625 67.765625 
Q 39.84375 65.234375 41.984375 59.953125 
Q 44.140625 54.6875 42.578125 48.4375 
Q 41.015625 42.1875 33.59375 37.5 
Q 39.0625 35.15625 41.984375 30.46875 
Q 44.921875 25.78125 43.9375 18.15625 
Q 42.96875 10.546875 37.109375 5.859375 
Q 31.25 1.171875 23.828125 1.359375 
Q 16.40625 1.5625 10.9375 6.046875 
Q 5.46875 10.546875 3.90625 19.140625 
z
" id="SimHei-51"/>
      </defs>
      <g style="fill:#262626;" transform="translate(933.25 481.564375)scale(0.15 -0.15)">
       <use xlink:href="#SimHei-51"/>
       <use x="50" xlink:href="#SimHei-48"/>
       <use x="100" xlink:href="#SimHei-48"/>
      </g>
     </g>
    </g>
   </g>
   <g id="matplotlib.axis_2">
    <g id="ytick_1">
     <g id="line2d_15">
      <path clip-path="url(#pa0d337c0c2)" d="M 51.7 464.251875 
L 944.5 464.251875 
" style="fill:none;stroke:#ffffff;stroke-linecap:round;stroke-width:0.8;"/>
     </g>
     <g id="text_15">
      <!-- 0.000 -->
      <defs>
       <path d="M 16.796875 1.953125 
L 7.8125 1.953125 
L 7.8125 10.546875 
L 16.796875 10.546875 
z
" id="SimHei-46"/>
      </defs>
      <g style="fill:#262626;" transform="translate(7.2 469.408125)scale(0.15 -0.15)">
       <use xlink:href="#SimHei-48"/>
       <use x="50" xlink:href="#SimHei-46"/>
       <use x="100" xlink:href="#SimHei-48"/>
       <use x="150" xlink:href="#SimHei-48"/>
       <use x="200" xlink:href="#SimHei-48"/>
      </g>
     </g>
    </g>
    <g id="ytick_2">
     <g id="line2d_16">
      <path clip-path="url(#pa0d337c0c2)" d="M 51.7 403.926204 
L 944.5 403.926204 
" style="fill:none;stroke:#ffffff;stroke-linecap:round;stroke-width:0.8;"/>
     </g>
     <g id="text_16">
      <!-- 0.002 -->
      <g style="fill:#262626;" transform="translate(7.2 409.082454)scale(0.15 -0.15)">
       <use xlink:href="#SimHei-48"/>
       <use x="50" xlink:href="#SimHei-46"/>
       <use x="100" xlink:href="#SimHei-48"/>
       <use x="150" xlink:href="#SimHei-48"/>
       <use x="200" xlink:href="#SimHei-50"/>
      </g>
     </g>
    </g>
    <g id="ytick_3">
     <g id="line2d_17">
      <path clip-path="url(#pa0d337c0c2)" d="M 51.7 343.600534 
L 944.5 343.600534 
" style="fill:none;stroke:#ffffff;stroke-linecap:round;stroke-width:0.8;"/>
     </g>
     <g id="text_17">
      <!-- 0.004 -->
      <defs>
       <path d="M 31.25 17.1875 
L 1.171875 17.1875 
L 1.171875 23.828125 
L 32.8125 69.53125 
L 38.671875 69.53125 
L 38.671875 23.828125 
L 48.046875 23.828125 
L 48.046875 17.1875 
L 38.671875 17.1875 
L 38.671875 2.34375 
L 31.25 2.34375 
z
M 31.25 23.828125 
L 31.25 54.6875 
L 9.375 23.828125 
z
" id="SimHei-52"/>
      </defs>
      <g style="fill:#262626;" transform="translate(7.2 348.756784)scale(0.15 -0.15)">
       <use xlink:href="#SimHei-48"/>
       <use x="50" xlink:href="#SimHei-46"/>
       <use x="100" xlink:href="#SimHei-48"/>
       <use x="150" xlink:href="#SimHei-48"/>
       <use x="200" xlink:href="#SimHei-52"/>
      </g>
     </g>
    </g>
    <g id="ytick_4">
     <g id="line2d_18">
      <path clip-path="url(#pa0d337c0c2)" d="M 51.7 283.274863 
L 944.5 283.274863 
" style="fill:none;stroke:#ffffff;stroke-linecap:round;stroke-width:0.8;"/>
     </g>
     <g id="text_18">
      <!-- 0.006 -->
      <defs>
       <path d="M 3.515625 19.53125 
Q 4.296875 30.859375 6.046875 34.765625 
Q 7.8125 38.671875 11.328125 44.53125 
L 27.34375 69.53125 
L 36.328125 69.53125 
L 19.921875 43.75 
Q 30.46875 46.484375 36.71875 42.96875 
Q 42.96875 39.453125 45.109375 34.953125 
Q 47.265625 30.46875 47.453125 25.1875 
Q 47.65625 19.921875 45.890625 14.84375 
Q 44.140625 9.765625 39.640625 5.65625 
Q 35.15625 1.5625 27.140625 1.171875 
Q 19.140625 0.78125 13.46875 4.09375 
Q 7.8125 7.421875 5.65625 13.46875 
Q 3.515625 19.53125 4.296875 30.859375 
z
M 12.5 16.015625 
Q 19.53125 8.59375 25.390625 8.203125 
Q 31.25 7.8125 35.15625 12.109375 
Q 39.0625 16.40625 39.0625 24.609375 
Q 39.0625 32.8125 34.171875 35.9375 
Q 29.296875 39.0625 23.234375 38.28125 
Q 17.1875 37.5 14.453125 32.421875 
Q 11.71875 27.34375 12.109375 21.671875 
Q 12.5 16.015625 19.53125 8.59375 
z
" id="SimHei-54"/>
      </defs>
      <g style="fill:#262626;" transform="translate(7.2 288.431113)scale(0.15 -0.15)">
       <use xlink:href="#SimHei-48"/>
       <use x="50" xlink:href="#SimHei-46"/>
       <use x="100" xlink:href="#SimHei-48"/>
       <use x="150" xlink:href="#SimHei-48"/>
       <use x="200" xlink:href="#SimHei-54"/>
      </g>
     </g>
    </g>
    <g id="ytick_5">
     <g id="line2d_19">
      <path clip-path="url(#pa0d337c0c2)" d="M 51.7 222.949193 
L 944.5 222.949193 
" style="fill:none;stroke:#ffffff;stroke-linecap:round;stroke-width:0.8;"/>
     </g>
     <g id="text_19">
      <!-- 0.008 -->
      <defs>
       <path d="M 2.734375 16.796875 
Q 2.734375 26.171875 5.078125 30.65625 
Q 7.421875 35.15625 12.890625 37.890625 
Q 8.203125 40.625 6.640625 43.9375 
Q 5.078125 47.265625 4.875 51.5625 
Q 4.6875 55.859375 6.046875 58.984375 
Q 7.421875 62.109375 10.15625 64.84375 
Q 12.890625 67.578125 16.203125 68.546875 
Q 19.53125 69.53125 23.4375 69.53125 
Q 27.34375 69.53125 30.46875 68.75 
Q 33.59375 67.96875 37.109375 65.421875 
Q 40.625 62.890625 42.1875 58.203125 
Q 43.75 53.515625 41.984375 47.265625 
Q 40.234375 41.015625 32.8125 37.5 
Q 39.453125 35.546875 42.1875 31.4375 
Q 44.921875 27.34375 44.921875 21.484375 
Q 44.921875 15.625 43.15625 12.109375 
Q 41.40625 8.59375 39.25 6.25 
Q 37.109375 3.90625 33.390625 2.53125 
Q 29.6875 1.171875 24.015625 1.171875 
Q 18.359375 1.171875 14.25 2.53125 
Q 10.15625 3.90625 7.421875 6.640625 
Q 4.6875 9.375 3.703125 13.078125 
Q 2.734375 16.796875 2.734375 26.171875 
z
M 10.9375 26.5625 
Q 10.546875 17.1875 12.296875 13.671875 
Q 14.0625 10.15625 18.75 9.171875 
Q 23.4375 8.203125 28.515625 9.375 
Q 33.59375 10.546875 35.546875 14.84375 
Q 37.5 19.140625 36.90625 23.4375 
Q 36.328125 27.734375 32.03125 30.65625 
Q 27.734375 33.59375 22.65625 33.203125 
Q 17.578125 32.8125 14.25 29.6875 
Q 10.9375 26.5625 10.546875 17.1875 
z
M 12.109375 56.25 
Q 12.109375 48.4375 14.84375 44.921875 
Q 17.578125 41.40625 23.4375 41.40625 
Q 29.296875 41.40625 32.21875 44.921875 
Q 35.15625 48.4375 34.953125 53.3125 
Q 34.765625 58.203125 31.4375 60.546875 
Q 28.125 62.890625 22.453125 62.5 
Q 16.796875 62.109375 14.453125 59.171875 
Q 12.109375 56.25 12.109375 48.4375 
z
" id="SimHei-56"/>
      </defs>
      <g style="fill:#262626;" transform="translate(7.2 228.105443)scale(0.15 -0.15)">
       <use xlink:href="#SimHei-48"/>
       <use x="50" xlink:href="#SimHei-46"/>
       <use x="100" xlink:href="#SimHei-48"/>
       <use x="150" xlink:href="#SimHei-48"/>
       <use x="200" xlink:href="#SimHei-56"/>
      </g>
     </g>
    </g>
    <g id="ytick_6">
     <g id="line2d_20">
      <path clip-path="url(#pa0d337c0c2)" d="M 51.7 162.623522 
L 944.5 162.623522 
" style="fill:none;stroke:#ffffff;stroke-linecap:round;stroke-width:0.8;"/>
     </g>
     <g id="text_20">
      <!-- 0.010 -->
      <g style="fill:#262626;" transform="translate(7.2 167.779772)scale(0.15 -0.15)">
       <use xlink:href="#SimHei-48"/>
       <use x="50" xlink:href="#SimHei-46"/>
       <use x="100" xlink:href="#SimHei-48"/>
       <use x="150" xlink:href="#SimHei-49"/>
       <use x="200" xlink:href="#SimHei-48"/>
      </g>
     </g>
    </g>
    <g id="ytick_7">
     <g id="line2d_21">
      <path clip-path="url(#pa0d337c0c2)" d="M 51.7 102.297852 
L 944.5 102.297852 
" style="fill:none;stroke:#ffffff;stroke-linecap:round;stroke-width:0.8;"/>
     </g>
     <g id="text_21">
      <!-- 0.012 -->
      <g style="fill:#262626;" transform="translate(7.2 107.454102)scale(0.15 -0.15)">
       <use xlink:href="#SimHei-48"/>
       <use x="50" xlink:href="#SimHei-46"/>
       <use x="100" xlink:href="#SimHei-48"/>
       <use x="150" xlink:href="#SimHei-49"/>
       <use x="200" xlink:href="#SimHei-50"/>
      </g>
     </g>
    </g>
    <g id="ytick_8">
     <g id="line2d_22">
      <path clip-path="url(#pa0d337c0c2)" d="M 51.7 41.972181 
L 944.5 41.972181 
" style="fill:none;stroke:#ffffff;stroke-linecap:round;stroke-width:0.8;"/>
     </g>
     <g id="text_22">
      <!-- 0.014 -->
      <g style="fill:#262626;" transform="translate(7.2 47.128431)scale(0.15 -0.15)">
       <use xlink:href="#SimHei-48"/>
       <use x="50" xlink:href="#SimHei-46"/>
       <use x="100" xlink:href="#SimHei-48"/>
       <use x="150" xlink:href="#SimHei-49"/>
       <use x="200" xlink:href="#SimHei-52"/>
      </g>
     </g>
    </g>
   </g>
   <g id="line2d_23">
    <path clip-path="url(#pa0d337c0c2)" d="M 89.128279 463.465113 
L 96.689548 462.311101 
L 104.250816 459.821972 
L 111.812085 454.885918 
L 119.373353 445.887389 
L 126.934622 430.809274 
L 134.49589 407.594357 
L 142.057159 374.770515 
L 149.618427 332.190917 
L 157.179696 281.59639 
L 164.740964 226.681847 
L 172.302233 172.507557 
L 179.863501 124.387951 
L 187.42477 86.655829 
L 194.986038 61.771945 
L 202.547307 50.078569 
L 210.108575 50.185872 
L 217.669844 59.715793 
L 225.231112 76.045019 
L 232.792381 96.795632 
L 240.353649 120.018502 
L 247.914918 144.172902 
L 255.476186 168.051761 
L 263.037455 190.746083 
L 270.598723 211.65336 
L 278.159992 230.482832 
L 285.72126 247.218077 
L 293.282529 262.037055 
L 300.843797 275.218633 
L 308.405066 287.063571 
L 315.966334 297.839263 
L 323.527603 307.743978 
L 331.088871 316.886882 
L 338.65014 325.286877 
L 346.211408 332.894934 
L 353.772677 339.637643 
L 361.333945 345.469547 
L 368.895214 350.415504 
L 376.456482 354.586551 
L 384.017751 358.163514 
L 391.579019 361.35731 
L 399.140288 364.365151 
L 406.701556 367.340936 
L 414.262825 370.386485 
L 421.824093 373.556855 
L 429.385362 376.867642 
L 436.94663 380.297469 
L 444.507899 383.788416 
L 452.069167 387.252157 
L 459.630436 390.586431 
L 467.191704 393.699018 
L 474.752973 396.530994 
L 482.314241 399.07112 
L 489.87551 401.357212 
L 497.436778 403.464639 
L 504.998047 405.484989 
L 512.559315 407.500061 
L 520.120584 409.558484 
L 527.681852 411.662995 
L 535.243121 413.77356 
L 542.804389 415.825241 
L 550.365658 417.753406 
L 557.926926 419.516581 
L 565.488195 421.109927 
L 573.049463 422.567219 
L 580.610732 423.953057 
L 588.172 425.348394 
L 595.733269 426.832305 
L 603.294537 428.462451 
L 610.855806 430.256679 
L 618.417074 432.179005 
L 625.978343 434.135163 
L 633.539611 435.984226 
L 641.10088 437.569958 
L 648.662148 438.766393 
L 656.223417 439.520658 
L 663.784685 439.871731 
L 671.345954 439.933591 
L 678.907222 439.851337 
L 686.468491 439.755553 
L 694.029759 439.740255 
L 701.591028 439.872322 
L 709.152296 440.217996 
L 716.713565 440.861323 
L 724.274833 441.89709 
L 731.836102 443.399858 
L 739.39737 445.386598 
L 746.958639 447.793472 
L 754.519907 450.478207 
L 762.081176 453.246669 
L 769.642444 455.893272 
L 777.203713 458.242148 
L 784.764981 460.177667 
L 792.32625 461.657222 
L 799.887518 462.704947 
L 807.448787 463.391127 
L 815.010055 463.80609 
L 822.571324 464.037478 
L 830.132592 464.156307 
L 837.693861 464.212455 
" style="fill:none;stroke:#1f77b4;stroke-linecap:round;stroke-width:1.5;"/>
   </g>
   <g id="patch_3">
    <path d="M 51.7 464.251875 
L 51.7 29.371875 
" style="fill:none;stroke:#ffffff;stroke-linecap:square;stroke-linejoin:miter;stroke-width:0.8;"/>
   </g>
   <g id="patch_4">
    <path d="M 944.5 464.251875 
L 944.5 29.371875 
" style="fill:none;stroke:#ffffff;stroke-linecap:square;stroke-linejoin:miter;stroke-width:0.8;"/>
   </g>
   <g id="patch_5">
    <path d="M 51.7 464.251875 
L 944.5 464.251875 
" style="fill:none;stroke:#ffffff;stroke-linecap:square;stroke-linejoin:miter;stroke-width:0.8;"/>
   </g>
   <g id="patch_6">
    <path d="M 51.7 29.371875 
L 944.5 29.371875 
" style="fill:none;stroke:#ffffff;stroke-linecap:square;stroke-linejoin:miter;stroke-width:0.8;"/>
   </g>
   <g id="text_23">
    <!-- 偏度：1.32 -->
    <defs>
     <path d="M 25.78125 8.203125 
Q 35.546875 24.21875 37.5 40.625 
Q 39.453125 57.03125 38.28125 72.265625 
L 61.328125 72.265625 
Q 60.546875 76.5625 58.203125 81.25 
Q 62.109375 82.03125 65.234375 82.8125 
Q 66.796875 79.296875 69.140625 72.265625 
L 88.671875 72.265625 
Q 88.28125 67.1875 88.28125 60.9375 
Q 88.28125 54.6875 88.671875 50 
L 45.3125 50 
Q 44.921875 45.703125 44.53125 41.015625 
L 93.359375 41.015625 
Q 92.96875 34.375 92.96875 27.34375 
L 92.96875 -1.5625 
Q 92.96875 -6.25 90.03125 -7.609375 
Q 87.109375 -8.984375 81.25 -10.15625 
Q 80.46875 -6.25 77.734375 -1.953125 
Q 86.328125 -2.34375 86.328125 1.5625 
L 86.328125 16.796875 
L 76.953125 16.796875 
Q 76.953125 6.640625 77.34375 0 
L 69.921875 0 
Q 70.703125 6.25 70.703125 16.796875 
L 62.5 16.796875 
Q 62.5 5.46875 62.890625 -0.390625 
L 55.46875 -0.390625 
Q 55.859375 5.46875 55.859375 16.796875 
L 47.265625 16.796875 
L 47.265625 -9.375 
L 40.234375 -9.375 
L 40.234375 24.609375 
Q 37.890625 16.40625 31.25 4.296875 
Q 27.734375 7.421875 25.78125 8.203125 
z
M 3.515625 38.28125 
Q 12.890625 49.21875 18.75 60.9375 
Q 24.609375 72.65625 25.78125 79.296875 
Q 29.296875 76.953125 35.15625 75.390625 
Q 32.421875 73.828125 24.609375 54.296875 
L 24.609375 8.59375 
Q 24.609375 -0.78125 25 -8.984375 
L 17.1875 -8.984375 
Q 17.578125 -1.171875 17.578125 8.59375 
L 17.578125 45.3125 
Q 14.453125 40.234375 9.765625 33.59375 
Q 7.421875 36.71875 3.515625 38.28125 
z
M 81.640625 55.859375 
L 81.640625 66.40625 
L 45.3125 66.40625 
L 45.3125 55.859375 
z
M 86.328125 22.265625 
L 86.328125 35.15625 
L 76.953125 35.15625 
L 76.953125 22.265625 
z
M 55.859375 22.265625 
L 55.859375 35.15625 
L 47.265625 35.15625 
L 47.265625 22.265625 
z
M 70.703125 22.265625 
L 70.703125 35.15625 
L 62.5 35.15625 
L 62.5 22.265625 
z
" id="SimHei-20559"/>
     <path d="M 27.34375 26.171875 
Q 38.28125 25.78125 44.921875 25.78125 
L 81.25 25.78125 
Q 77.734375 19.53125 72.65625 13.28125 
Q 67.578125 7.03125 62.890625 3.125 
Q 67.96875 0.78125 77.34375 -0.78125 
Q 86.71875 -2.34375 95.3125 -2.34375 
Q 92.96875 -4.6875 91.015625 -10.15625 
Q 79.6875 -8.59375 71.09375 -6.4375 
Q 62.5 -4.296875 56.640625 -1.5625 
Q 48.4375 -5.078125 40.421875 -7.21875 
Q 32.421875 -9.375 23.828125 -10.546875 
Q 22.65625 -7.421875 19.140625 -3.90625 
Q 26.171875 -3.90625 35.15625 -1.953125 
Q 44.140625 0 50.78125 3.125 
Q 44.140625 8.59375 37.5 19.921875 
L 27.34375 19.53125 
z
M 46.484375 79.296875 
Q 50.78125 80.46875 54.296875 82.03125 
Q 56.640625 77.734375 58.984375 70.703125 
L 73.4375 70.703125 
Q 77.734375 70.703125 89.0625 71.09375 
L 89.0625 64.0625 
Q 78.125 64.453125 72.65625 64.453125 
L 21.484375 64.453125 
Q 21.484375 46.875 21.09375 36.125 
Q 20.703125 25.390625 18.9375 14.84375 
Q 17.1875 4.296875 11.328125 -8.203125 
Q 7.8125 -5.859375 3.90625 -4.6875 
Q 10.15625 6.25 11.90625 16.796875 
Q 13.671875 27.34375 13.859375 43.75 
Q 14.0625 60.15625 13.671875 70.703125 
L 50 70.703125 
Q 48.4375 75.78125 46.484375 79.296875 
z
M 38.671875 51.5625 
Q 38.671875 57.8125 38.28125 61.328125 
L 46.484375 61.328125 
Q 46.09375 58.203125 46.09375 51.5625 
L 67.1875 51.5625 
Q 67.1875 57.8125 66.796875 61.71875 
L 75 61.71875 
Q 74.609375 57.03125 74.609375 51.5625 
Q 83.203125 51.5625 89.453125 51.953125 
L 89.453125 45.3125 
Q 83.59375 45.703125 74.609375 45.703125 
Q 74.609375 35.15625 75 30.46875 
L 38.28125 30.46875 
Q 38.671875 36.71875 38.671875 45.703125 
Q 33.984375 45.703125 25 45.3125 
L 25 51.953125 
Q 33.984375 51.5625 38.671875 51.5625 
z
M 67.1875 36.71875 
L 67.1875 45.703125 
L 46.09375 45.703125 
L 46.09375 36.71875 
z
M 44.921875 19.921875 
Q 50 12.109375 57.03125 6.640625 
Q 62.890625 10.9375 69.140625 19.921875 
L 45.3125 19.921875 
z
" id="SimHei-24230"/>
     <path d="M 18.75 37.890625 
L 31.640625 37.890625 
L 31.640625 25 
L 18.75 25 
z
M 18.75 12.890625 
L 31.640625 12.890625 
L 31.640625 0 
L 18.75 0 
z
" id="SimHei-65306"/>
    </defs>
    <g style="fill:#262626;" transform="translate(840.480772 72.135017)scale(0.15 -0.15)">
     <use xlink:href="#SimHei-20559"/>
     <use x="100" xlink:href="#SimHei-24230"/>
     <use x="200" xlink:href="#SimHei-65306"/>
     <use x="300" xlink:href="#SimHei-49"/>
     <use x="350" xlink:href="#SimHei-46"/>
     <use x="400" xlink:href="#SimHei-51"/>
     <use x="450" xlink:href="#SimHei-50"/>
    </g>
   </g>
   <g id="text_24">
    <!-- 峰度：1.06 -->
    <defs>
     <path d="M 6.25 45.703125 
Q 6.25 51.5625 5.859375 58.59375 
L 13.28125 58.59375 
Q 12.890625 49.21875 12.890625 45.703125 
L 12.890625 9.375 
L 19.53125 10.9375 
L 19.53125 64.453125 
Q 19.53125 71.484375 19.140625 77.34375 
L 26.5625 77.34375 
Q 26.171875 67.96875 26.171875 64.453125 
L 26.171875 11.71875 
L 32.03125 12.890625 
L 32.03125 46.875 
Q 32.03125 53.515625 31.640625 58.59375 
L 39.453125 58.59375 
Q 39.0625 50 39.0625 46.875 
L 39.0625 14.453125 
Q 39.0625 10.9375 39.453125 -0.390625 
L 32.03125 -0.390625 
L 32.03125 6.640625 
L 5.859375 1.5625 
Q 6.25 8.59375 6.25 15.234375 
z
M 68.359375 78.125 
Q 66.015625 75.390625 63.671875 71.875 
L 88.671875 71.875 
Q 85.9375 67.1875 82.421875 61.71875 
Q 78.90625 56.25 75 52.734375 
Q 85.546875 47.65625 96.875 47.265625 
Q 93.75 42.578125 92.96875 38.671875 
Q 84.765625 40.625 80.078125 42.96875 
Q 75.390625 45.3125 69.53125 48.4375 
Q 65.234375 45.703125 59.375 42.96875 
Q 53.515625 40.234375 45.3125 37.109375 
Q 43.359375 40.625 40.625 44.140625 
Q 47.265625 45.3125 52.734375 47.265625 
Q 58.203125 49.21875 64.0625 52.734375 
Q 60.15625 56.640625 56.640625 62.109375 
Q 51.953125 55.46875 48.4375 51.953125 
Q 46.09375 54.296875 42.96875 56.640625 
Q 48.4375 61.71875 52.53125 67.96875 
Q 56.640625 74.21875 59.765625 82.03125 
Q 63.671875 80.078125 68.359375 78.125 
z
M 78.90625 34.765625 
Q 82.03125 34.765625 89.0625 35.15625 
L 89.0625 28.515625 
Q 82.03125 28.90625 79.296875 28.90625 
L 72.265625 28.90625 
L 72.265625 21.484375 
L 76.5625 21.484375 
Q 79.6875 21.484375 87.109375 21.875 
L 87.109375 15.234375 
Q 82.421875 15.625 77.34375 15.625 
L 72.265625 15.625 
L 72.265625 8.203125 
L 80.46875 8.203125 
Q 85.9375 8.203125 91.40625 8.59375 
L 91.40625 1.953125 
Q 87.109375 2.34375 80.859375 2.34375 
L 72.265625 2.34375 
Q 72.265625 -3.515625 72.65625 -10.15625 
L 65.234375 -10.15625 
Q 65.625 -3.125 65.625 2.34375 
L 57.03125 2.34375 
Q 54.296875 2.34375 46.484375 1.953125 
L 46.484375 8.59375 
Q 51.953125 8.203125 57.03125 8.203125 
L 65.234375 8.203125 
L 65.234375 15.625 
L 60.15625 15.625 
Q 54.6875 15.625 48.828125 15.234375 
L 48.828125 21.875 
Q 54.6875 21.484375 60.15625 21.484375 
L 65.234375 21.484375 
L 65.234375 28.90625 
L 60.546875 28.90625 
Q 54.296875 28.90625 48.046875 28.515625 
L 48.046875 35.15625 
Q 54.296875 34.765625 60.546875 34.765625 
L 65.234375 34.765625 
Q 65.234375 38.671875 64.84375 42.96875 
L 72.65625 42.96875 
Q 72.265625 38.671875 72.265625 34.765625 
z
M 69.53125 56.640625 
Q 73.4375 59.375 77.34375 66.015625 
L 61.328125 66.015625 
Q 66.015625 58.984375 69.53125 56.640625 
z
" id="SimHei-23792"/>
    </defs>
    <g style="fill:#262626;" transform="translate(840.480772 96.265285)scale(0.15 -0.15)">
     <use xlink:href="#SimHei-23792"/>
     <use x="100" xlink:href="#SimHei-24230"/>
     <use x="200" xlink:href="#SimHei-65306"/>
     <use x="300" xlink:href="#SimHei-49"/>
     <use x="350" xlink:href="#SimHei-46"/>
     <use x="400" xlink:href="#SimHei-48"/>
     <use x="450" xlink:href="#SimHei-54"/>
    </g>
   </g>
   <g id="text_25">
    <!-- 用户下单数概率密度图 -->
    <defs>
     <path d="M 5.46875 -4.6875 
Q 10.15625 1.953125 12.6875 9.375 
Q 15.234375 16.796875 15.8125 24.21875 
Q 16.40625 31.640625 16.40625 49.21875 
Q 16.40625 66.796875 16.015625 77.34375 
L 85.9375 77.34375 
Q 85.546875 66.015625 85.546875 57.03125 
L 85.546875 5.859375 
Q 85.546875 -2.34375 80.859375 -4.296875 
Q 76.171875 -6.25 69.921875 -7.03125 
Q 69.140625 -1.171875 67.1875 1.953125 
Q 75 1.5625 76.359375 2.53125 
Q 77.734375 3.515625 77.734375 6.25 
L 77.734375 25.78125 
L 53.90625 25.78125 
L 53.90625 10.546875 
Q 53.90625 1.953125 54.296875 -5.078125 
L 45.703125 -5.078125 
Q 46.09375 1.5625 46.09375 10.15625 
L 46.09375 25.78125 
L 23.828125 25.78125 
Q 22.265625 8.984375 13.28125 -8.203125 
Q 8.984375 -5.46875 5.46875 -4.6875 
z
M 77.734375 54.296875 
L 77.734375 71.09375 
L 53.90625 71.09375 
L 53.90625 54.296875 
z
M 77.734375 32.03125 
L 77.734375 48.4375 
L 53.90625 48.4375 
L 53.90625 32.03125 
z
M 46.09375 54.296875 
L 46.09375 71.09375 
L 23.828125 71.09375 
L 23.828125 54.296875 
z
M 46.09375 32.03125 
L 46.09375 48.4375 
L 23.828125 48.4375 
L 23.828125 32.03125 
z
" id="SimHei-29992"/>
     <path d="M 90.234375 63.28125 
Q 89.84375 53.90625 89.84375 41.796875 
Q 89.84375 30.078125 90.234375 23.4375 
L 81.640625 23.4375 
L 81.640625 29.296875 
L 27.34375 29.296875 
Q 25.78125 16.796875 23.4375 10.546875 
Q 21.09375 4.296875 18.359375 -0.578125 
Q 15.625 -5.46875 12.5 -9.765625 
Q 8.59375 -6.640625 3.90625 -5.078125 
Q 11.71875 3.125 14.640625 10.34375 
Q 17.578125 17.578125 18.546875 24.015625 
Q 19.53125 30.46875 19.53125 37.890625 
Q 19.53125 45.3125 19.140625 63.28125 
L 90.234375 63.28125 
z
M 81.25 36.328125 
L 81.25 56.25 
L 26.953125 56.25 
L 26.953125 36.328125 
z
M 53.125 82.421875 
Q 57.8125 73.046875 59.765625 67.578125 
Q 54.6875 66.40625 51.953125 64.84375 
Q 49.21875 73.046875 45.703125 79.296875 
Q 49.609375 80.46875 53.125 82.421875 
z
" id="SimHei-25143"/>
     <path d="M 78.125 73.4375 
Q 85.546875 73.4375 93.359375 73.828125 
L 93.359375 65.625 
Q 84.765625 66.015625 78.125 66.015625 
L 51.171875 66.015625 
L 51.171875 5.859375 
Q 51.171875 0.78125 51.5625 -7.03125 
L 42.578125 -7.03125 
Q 42.96875 0 42.96875 5.859375 
L 42.96875 66.015625 
L 21.484375 66.015625 
Q 13.671875 66.015625 6.25 65.625 
L 6.25 73.828125 
Q 13.671875 73.4375 21.484375 73.4375 
z
M 88.28125 21.875 
Q 84.375 19.140625 81.25 15.625 
Q 75 23.828125 57.03125 40.234375 
L 62.890625 46.09375 
Q 73.4375 37.5 88.28125 21.875 
z
" id="SimHei-19979"/>
     <path d="M 82.421875 63.671875 
L 82.421875 23.828125 
L 53.125 23.828125 
L 53.125 14.453125 
L 78.90625 14.453125 
Q 87.5 14.453125 93.75 14.84375 
L 93.75 7.03125 
Q 87.109375 7.421875 78.90625 7.421875 
L 53.125 7.421875 
Q 53.125 -4.6875 53.515625 -9.765625 
L 44.921875 -9.765625 
Q 45.703125 -4.6875 45.703125 7.421875 
L 20.3125 7.421875 
Q 10.9375 7.421875 6.640625 7.03125 
L 6.640625 14.84375 
Q 10.546875 14.453125 19.53125 14.453125 
L 45.703125 14.453125 
L 45.703125 23.828125 
L 17.578125 23.828125 
Q 17.96875 30.46875 17.96875 42.96875 
Q 17.96875 55.46875 17.578125 63.671875 
L 56.25 63.671875 
Q 60.546875 72.65625 63.671875 82.03125 
Q 67.578125 80.078125 72.65625 77.734375 
Q 71.09375 75.78125 68.75 71.671875 
Q 66.40625 67.578125 64.0625 63.671875 
z
M 74.609375 30.078125 
L 74.609375 40.625 
L 53.125 40.625 
L 53.125 30.078125 
z
M 74.609375 46.875 
L 74.609375 57.03125 
L 53.125 57.03125 
L 53.125 46.875 
z
M 45.703125 30.078125 
L 45.703125 40.625 
L 25.390625 40.625 
L 25.390625 30.078125 
z
M 45.703125 46.875 
L 45.703125 57.03125 
L 25.390625 57.03125 
L 25.390625 46.875 
z
M 32.8125 81.640625 
Q 36.71875 77.34375 41.796875 67.96875 
Q 37.5 66.015625 34.765625 64.453125 
Q 30.859375 73.046875 26.953125 77.734375 
Q 29.6875 79.296875 32.8125 81.640625 
z
" id="SimHei-21333"/>
     <path d="M 70.703125 76.953125 
Q 69.921875 75 68.75 71.671875 
Q 67.578125 68.359375 65.234375 59.765625 
L 83.203125 59.765625 
Q 87.109375 59.765625 92.578125 60.15625 
L 92.578125 53.125 
Q 88.28125 53.515625 85.9375 53.515625 
Q 85.9375 47.265625 83.78125 33.78125 
Q 81.640625 20.3125 76.171875 10.546875 
Q 80.078125 5.859375 84.953125 2.140625 
Q 89.84375 -1.5625 94.140625 -3.125 
Q 89.453125 -6.640625 87.890625 -9.765625 
Q 83.203125 -7.03125 79.296875 -3.515625 
Q 75.390625 0 71.484375 5.078125 
Q 67.1875 0.390625 62.296875 -2.921875 
Q 57.421875 -6.25 50 -10.15625 
Q 48.046875 -6.640625 44.53125 -4.6875 
Q 50.390625 -2.34375 57.03125 1.953125 
Q 63.671875 6.25 67.1875 10.546875 
Q 64.453125 16.015625 61.90625 22.265625 
Q 59.375 28.515625 57.421875 38.671875 
Q 56.25 35.546875 53.515625 30.46875 
Q 50.78125 32.03125 46.875 33.59375 
Q 53.125 44.53125 57.03125 57.421875 
Q 60.9375 70.3125 62.109375 79.6875 
Q 66.796875 77.734375 70.703125 76.953125 
z
M 32.8125 35.15625 
Q 31.25 33.59375 29.296875 30.078125 
L 50.78125 30.078125 
Q 48.4375 20.3125 42.578125 10.546875 
Q 48.828125 8.203125 52.34375 6.25 
Q 50.390625 3.515625 48.828125 0.390625 
Q 45.3125 2.734375 38.28125 5.078125 
Q 30.46875 -3.515625 11.328125 -10.15625 
Q 9.375 -5.859375 6.25 -4.296875 
Q 24.609375 0 31.25 7.421875 
Q 20.3125 10.15625 13.28125 12.109375 
Q 15.625 15.625 19.53125 23.828125 
Q 15.625 23.828125 6.640625 23.4375 
L 6.640625 30.46875 
Q 14.0625 30.078125 21.875 30.078125 
Q 23.4375 33.59375 24.21875 37.890625 
Q 28.515625 36.328125 32.8125 35.15625 
z
M 27.734375 61.71875 
Q 27.734375 71.09375 27.34375 79.6875 
L 35.15625 79.6875 
Q 34.765625 71.484375 34.765625 61.71875 
Q 48.046875 61.71875 53.515625 62.109375 
L 53.515625 55.078125 
Q 48.046875 55.46875 34.765625 55.46875 
Q 34.765625 44.140625 35.15625 37.890625 
L 27.34375 37.890625 
Q 27.734375 43.359375 27.734375 51.5625 
Q 25.78125 48.4375 20.3125 43.546875 
Q 14.84375 38.671875 10.15625 35.9375 
Q 8.203125 39.453125 4.296875 41.015625 
Q 7.8125 42.1875 13.671875 46.484375 
Q 19.53125 50.78125 22.65625 55.46875 
Q 14.84375 55.46875 7.8125 55.078125 
L 7.8125 62.109375 
Q 14.453125 61.71875 27.734375 61.71875 
z
M 62.109375 49.609375 
Q 65.625 26.5625 71.875 17.578125 
Q 75.78125 26.5625 77.140625 35.734375 
Q 78.515625 44.921875 78.90625 53.515625 
L 63.671875 53.515625 
L 62.109375 49.609375 
z
M 22.65625 15.625 
Q 27.34375 14.453125 35.546875 12.5 
Q 38.671875 16.40625 41.40625 23.828125 
L 26.953125 23.828125 
Q 25 19.921875 22.65625 15.625 
z
M 51.953125 75.390625 
Q 50 72.265625 48.828125 69.53125 
Q 47.65625 66.796875 45.703125 62.890625 
Q 42.578125 64.453125 39.453125 65.234375 
Q 42.578125 70.3125 45.3125 78.125 
Q 49.21875 76.171875 51.953125 75.390625 
z
M 40.234375 52.734375 
Q 45.3125 47.65625 50 42.578125 
Q 47.65625 40.625 44.921875 37.890625 
Q 39.453125 44.53125 35.9375 48.4375 
Q 38.28125 50.390625 40.234375 52.734375 
z
M 14.453125 78.125 
Q 19.921875 72.65625 23.4375 67.1875 
L 17.578125 63.671875 
Q 14.84375 69.140625 9.375 73.828125 
Q 12.890625 76.171875 14.453125 78.125 
z
" id="SimHei-25968"/>
     <path d="M 48.4375 17.96875 
Q 46.875 21.09375 45.3125 23.046875 
Q 48.046875 25 51.171875 26.953125 
Q 53.515625 23.046875 55.265625 19.71875 
Q 57.03125 16.40625 59.765625 11.71875 
Q 57.421875 9.765625 53.515625 7.03125 
Q 52.734375 9.375 51.171875 12.5 
Q 48.046875 9.765625 43.359375 6.4375 
Q 38.671875 3.125 35.15625 -0.78125 
Q 32.421875 3.125 30.078125 5.46875 
Q 32.8125 8.203125 33.203125 13.671875 
L 33.203125 62.5 
Q 33.203125 69.140625 32.8125 73.4375 
L 55.859375 73.4375 
Q 55.46875 67.578125 55.46875 54.296875 
Q 55.46875 41.40625 55.859375 34.375 
L 39.84375 34.375 
L 39.84375 11.71875 
Q 42.578125 13.28125 48.4375 17.96875 
z
M 51.953125 -10.9375 
Q 50 -7.8125 46.09375 -5.078125 
Q 53.125 -1.171875 60.15625 9.953125 
Q 67.1875 21.09375 70.3125 36.71875 
L 59.375 36.71875 
Q 59.765625 42.578125 59.765625 48.046875 
Q 59.765625 53.515625 59.375 58.59375 
L 66.796875 58.59375 
Q 66.015625 55.46875 66.015625 50.78125 
L 66.015625 42.578125 
L 71.875 42.578125 
Q 73.046875 54.6875 73.046875 68.75 
L 69.140625 68.75 
Q 63.671875 68.75 59.375 68.359375 
L 59.375 75 
Q 64.0625 74.609375 69.140625 74.609375 
L 80.46875 74.609375 
Q 87.890625 74.609375 91.40625 75 
L 91.40625 68.359375 
Q 88.28125 68.75 79.6875 68.75 
Q 79.6875 57.8125 78.515625 42.578125 
L 83.984375 42.578125 
Q 87.5 42.578125 92.578125 42.96875 
L 92.578125 36.328125 
Q 87.5 36.71875 84.765625 36.71875 
L 77.34375 36.71875 
Q 72.265625 16.796875 66.984375 7.21875 
Q 61.71875 -2.34375 51.953125 -10.9375 
z
M 15.625 69.140625 
Q 15.625 74.21875 15.234375 78.90625 
L 23.046875 78.90625 
Q 22.265625 73.828125 22.265625 67.1875 
L 22.265625 59.375 
Q 25.390625 59.375 30.078125 59.765625 
L 30.078125 53.125 
Q 25 53.515625 22.265625 53.515625 
L 22.265625 41.40625 
Q 24.21875 42.578125 26.5625 44.140625 
Q 29.6875 36.71875 32.421875 29.296875 
Q 28.90625 28.515625 26.5625 26.5625 
Q 25 32.03125 22.265625 38.28125 
L 22.265625 4.6875 
Q 22.265625 -1.953125 22.65625 -8.984375 
L 15.234375 -8.984375 
Q 15.625 -0.78125 15.625 4.6875 
L 15.625 31.640625 
Q 12.890625 22.65625 8.59375 14.84375 
Q 7.03125 17.96875 2.734375 21.09375 
Q 7.8125 28.515625 10.34375 35.546875 
Q 12.890625 42.578125 14.84375 53.515625 
Q 7.8125 53.515625 5.46875 53.125 
L 5.46875 59.765625 
Q 8.59375 59.375 15.625 59.375 
z
M 82.8125 26.953125 
Q 82.421875 16.40625 82.421875 3.515625 
Q 82.421875 -0.78125 84.5625 -1.171875 
Q 86.71875 -1.5625 87.890625 -1.359375 
Q 89.0625 -1.171875 89.640625 0.578125 
Q 90.234375 2.34375 90.234375 7.421875 
Q 93.75 5.46875 97.65625 4.6875 
Q 96.09375 -3.515625 94.53125 -5.46875 
Q 92.96875 -7.421875 88.28125 -7.421875 
L 83.59375 -7.421875 
Q 75 -7.03125 75.78125 0.78125 
Q 75.78125 14.453125 75.78125 26.953125 
L 82.8125 26.953125 
z
M 48.828125 40.234375 
L 48.828125 51.171875 
L 39.84375 51.171875 
L 39.84375 40.234375 
z
M 48.828125 57.03125 
L 48.828125 67.578125 
L 39.84375 67.578125 
L 39.84375 57.03125 
z
" id="SimHei-27010"/>
     <path d="M 51.953125 80.46875 
Q 53.515625 76.5625 55.46875 70.703125 
L 75 70.703125 
Q 82.03125 70.703125 90.625 71.09375 
L 90.625 64.453125 
Q 82.03125 65.234375 74.609375 65.234375 
L 43.75 65.234375 
Q 46.484375 63.28125 51.5625 60.9375 
Q 48.046875 58.59375 44.921875 55.265625 
Q 41.796875 51.953125 38.671875 48.828125 
L 51.171875 48.828125 
Q 55.859375 53.515625 58.984375 58.984375 
Q 62.5 56.25 66.796875 53.515625 
Q 61.71875 50.78125 56.25 44.921875 
Q 50.78125 39.0625 41.015625 31.25 
L 60.15625 32.8125 
Q 58.203125 35.15625 56.25 37.890625 
Q 58.59375 38.671875 62.5 41.40625 
Q 66.40625 36.71875 73.4375 26.5625 
Q 69.921875 25.390625 66.015625 22.65625 
Q 65.234375 25 62.890625 27.734375 
Q 57.8125 27.34375 53.515625 27.34375 
L 53.515625 16.40625 
L 80.46875 16.40625 
Q 88.671875 16.40625 95.3125 16.796875 
L 95.3125 10.15625 
Q 89.0625 10.546875 80.078125 10.546875 
L 53.515625 10.546875 
L 53.515625 2.734375 
Q 53.515625 -4.6875 53.90625 -9.765625 
L 45.3125 -9.765625 
Q 45.703125 -4.6875 45.703125 2.734375 
L 45.703125 10.546875 
L 20.703125 10.546875 
Q 12.890625 10.546875 5.078125 10.15625 
L 5.078125 16.796875 
Q 12.890625 16.40625 21.09375 16.40625 
L 45.703125 16.40625 
L 45.703125 26.5625 
Q 42.1875 26.171875 38.671875 25.578125 
Q 35.15625 25 31.640625 23.828125 
Q 30.46875 27.734375 28.90625 31.25 
Q 32.421875 31.640625 36.328125 34.375 
Q 40.234375 37.109375 46.484375 43.75 
Q 35.9375 42.578125 31.640625 41.015625 
Q 30.859375 44.921875 28.90625 49.609375 
Q 32.421875 49.609375 36.328125 54.484375 
Q 40.234375 59.375 42.96875 65.234375 
L 26.5625 65.234375 
Q 17.96875 65.234375 10.15625 64.453125 
L 10.15625 71.09375 
Q 17.96875 70.703125 24.21875 70.703125 
L 46.484375 70.703125 
Q 45.3125 75.390625 43.75 78.515625 
Q 47.265625 79.296875 51.953125 80.46875 
z
M 25.390625 40.234375 
Q 26.953125 37.5 28.515625 34.375 
Q 24.609375 32.03125 20.703125 29.09375 
Q 16.796875 26.171875 12.5 22.265625 
Q 9.765625 26.171875 7.421875 29.296875 
Q 12.5 31.640625 17.1875 34.5625 
Q 21.875 37.5 25.390625 40.234375 
z
M 75.78125 41.40625 
Q 80.078125 38.671875 83.390625 36.515625 
Q 86.71875 34.375 91.796875 30.46875 
Q 88.671875 28.125 85.9375 25 
Q 82.8125 27.734375 79.09375 30.859375 
Q 75.390625 33.984375 71.484375 36.328125 
Q 73.828125 38.671875 75.78125 41.40625 
z
M 89.453125 55.078125 
Q 86.71875 53.90625 82.8125 50.96875 
Q 78.90625 48.046875 75 44.140625 
Q 72.265625 47.65625 69.921875 49.609375 
Q 73.4375 51.953125 76.171875 54.484375 
Q 78.90625 57.03125 82.8125 61.328125 
Q 86.328125 57.8125 89.453125 55.078125 
z
M 16.40625 60.15625 
Q 22.265625 56.25 27.734375 51.171875 
Q 24.609375 48.4375 22.265625 45.703125 
Q 16.796875 51.5625 10.546875 55.078125 
Q 13.671875 57.8125 16.40625 60.15625 
z
" id="SimHei-29575"/>
     <path d="M 75.390625 52.34375 
Q 69.921875 48.828125 61.90625 42.96875 
Q 53.90625 37.109375 43.359375 31.640625 
L 62.890625 31.640625 
Q 71.09375 31.640625 71.09375 40.625 
Q 75 38.28125 80.46875 36.328125 
Q 76.5625 27.734375 73.625 26.359375 
Q 70.703125 25 65.625 25 
L 44.921875 25 
Q 34.765625 24.609375 33.984375 26.171875 
Q 17.578125 20.703125 8.984375 18.359375 
Q 7.421875 22.265625 3.90625 26.171875 
Q 13.28125 26.953125 19.71875 28.90625 
Q 26.171875 30.859375 31.25 32.8125 
L 31.25 42.96875 
Q 31.25 46.875 30.859375 53.125 
L 39.84375 53.125 
Q 39.453125 47.265625 39.453125 43.359375 
L 39.453125 36.71875 
Q 45.3125 39.453125 53.515625 45.109375 
Q 61.71875 50.78125 67.578125 58.984375 
Q 69.921875 56.640625 75.390625 52.34375 
z
M 19.140625 8.59375 
Q 19.140625 12.890625 18.75 17.578125 
L 27.34375 17.578125 
Q 26.953125 12.109375 26.953125 8.203125 
L 26.953125 0 
L 48.046875 0 
L 48.046875 10.9375 
Q 48.046875 14.84375 47.265625 21.484375 
L 56.25 21.484375 
Q 55.859375 17.1875 55.859375 10.546875 
L 55.859375 0 
L 77.734375 0 
L 77.734375 9.765625 
Q 77.734375 13.671875 77.34375 18.75 
L 85.9375 18.75 
Q 85.546875 14.0625 85.546875 9.375 
L 85.546875 -3.515625 
Q 85.546875 -6.640625 85.9375 -10.9375 
L 77.734375 -10.9375 
L 77.734375 -6.25 
L 18.75 -6.25 
Q 19.140625 -2.34375 19.140625 1.171875 
z
M 83.984375 55.859375 
L 83.984375 64.84375 
L 17.96875 64.84375 
L 17.96875 55.46875 
L 9.375 55.46875 
Q 9.765625 57.8125 9.765625 62.5 
Q 9.765625 67.1875 9.375 71.484375 
L 46.484375 71.484375 
Q 45.3125 75 43.359375 78.90625 
Q 46.875 80.078125 51.953125 81.640625 
Q 53.515625 79.296875 55.859375 71.484375 
L 92.578125 71.484375 
Q 92.1875 66.40625 92.1875 62.890625 
Q 92.1875 59.765625 92.578125 55.859375 
z
M 25.78125 51.171875 
Q 23.4375 44.53125 19.140625 35.15625 
Q 14.0625 36.71875 10.546875 37.5 
Q 14.84375 43.75 17.1875 53.125 
Q 21.09375 51.953125 25.78125 51.171875 
z
M 85.15625 51.953125 
Q 90.234375 45.703125 95.3125 38.28125 
Q 91.015625 36.71875 87.890625 34.375 
Q 83.59375 41.796875 78.125 47.65625 
Q 81.25 49.609375 85.15625 51.953125 
z
M 50.390625 49.21875 
Q 44.921875 56.25 40.234375 59.765625 
Q 43.359375 61.71875 46.484375 64.453125 
Q 49.609375 62.109375 57.03125 54.296875 
Q 53.90625 51.5625 50.390625 49.21875 
z
" id="SimHei-23494"/>
     <path d="M 90.625 77.734375 
Q 90.234375 67.96875 90.234375 56.25 
L 90.234375 14.453125 
Q 90.234375 2.34375 90.625 -9.375 
L 82.8125 -9.375 
L 82.8125 -4.296875 
L 17.578125 -4.296875 
L 17.578125 -10.15625 
L 9.765625 -10.15625 
Q 10.15625 1.953125 10.15625 14.84375 
L 10.15625 56.25 
Q 10.15625 67.578125 9.765625 77.734375 
L 90.625 77.734375 
z
M 82.8125 2.34375 
L 82.8125 71.484375 
L 17.578125 71.484375 
L 17.578125 2.34375 
z
M 50.390625 66.40625 
Q 48.046875 64.0625 46.09375 61.328125 
L 72.265625 61.328125 
Q 70.703125 57.8125 67.1875 52.734375 
Q 63.671875 47.65625 56.25 40.625 
Q 67.96875 34.765625 79.296875 33.59375 
Q 76.5625 30.078125 74.609375 26.171875 
Q 60.15625 30.46875 50.390625 36.71875 
Q 39.0625 29.296875 26.171875 25.78125 
Q 25 29.296875 21.875 32.421875 
Q 34.375 34.375 44.921875 40.625 
Q 39.453125 45.703125 37.109375 49.21875 
Q 33.59375 45.3125 29.6875 41.40625 
Q 26.953125 44.53125 23.828125 46.09375 
Q 30.46875 51.5625 35.15625 58.390625 
Q 39.84375 65.234375 41.796875 69.921875 
Q 45.703125 67.96875 50.390625 66.40625 
z
M 38.28125 19.921875 
Q 55.46875 14.84375 64.0625 11.328125 
Q 62.109375 8.203125 60.15625 4.6875 
Q 44.140625 11.328125 35.546875 13.28125 
Q 37.109375 16.40625 38.28125 19.921875 
z
M 45.703125 32.03125 
Q 58.984375 26.5625 63.671875 25 
Q 61.71875 21.875 60.15625 17.96875 
Q 46.875 24.21875 42.1875 25.78125 
Q 44.140625 28.515625 45.703125 32.03125 
z
M 41.015625 53.90625 
Q 46.875 47.265625 51.171875 44.53125 
Q 56.25 48.4375 60.546875 55.078125 
L 41.796875 55.078125 
L 41.015625 53.90625 
z
" id="SimHei-22270"/>
    </defs>
    <g style="fill:#262626;" transform="translate(398.1 23.371875)scale(0.2 -0.2)">
     <use xlink:href="#SimHei-29992"/>
     <use x="100" xlink:href="#SimHei-25143"/>
     <use x="200" xlink:href="#SimHei-19979"/>
     <use x="300" xlink:href="#SimHei-21333"/>
     <use x="400" xlink:href="#SimHei-25968"/>
     <use x="500" xlink:href="#SimHei-27010"/>
     <use x="600" xlink:href="#SimHei-29575"/>
     <use x="700" xlink:href="#SimHei-23494"/>
     <use x="800" xlink:href="#SimHei-24230"/>
     <use x="900" xlink:href="#SimHei-22270"/>
    </g>
   </g>
  </g>
 </g>
 <defs>
  <clipPath id="pa0d337c0c2">
   <rect height="434.88" width="892.8" x="51.7" y="29.371875"/>
  </clipPath>
 </defs>
</svg>
