<?xml version="1.0" encoding="utf-8" standalone="no"?>
<!DOCTYPE svg PUBLIC "-//W3C//DTD SVG 1.1//EN"
  "http://www.w3.org/Graphics/SVG/1.1/DTD/svg11.dtd">
<!-- Created with matplotlib (https://matplotlib.org/) -->
<svg height="1140.735938pt" version="1.1" viewBox="0 0 1757.8875 1140.735938" width="1757.8875pt" xmlns="http://www.w3.org/2000/svg" xmlns:xlink="http://www.w3.org/1999/xlink">
 <defs>
  <style type="text/css">
*{stroke-linecap:butt;stroke-linejoin:round;}
  </style>
 </defs>
 <g id="figure_1">
  <g id="patch_1">
   <path d="M 0 1140.735938 
L 1757.8875 1140.735938 
L 1757.8875 0 
L 0 0 
z
" style="fill:#ffffff;"/>
  </g>
  <g id="axes_1">
   <g id="patch_2">
    <path d="M 76.6875 501.381818 
L 1750.6875 501.381818 
L 1750.6875 7.2 
L 76.6875 7.2 
z
" style="fill:#ffffff;"/>
   </g>
   <g id="matplotlib.axis_1">
    <g id="xtick_1">
     <g id="text_1">
      <!-- (18.15, 28.3] -->
      <defs>
       <path d="M 46.484375 -3.125 
L 42.1875 -7.421875 
Q 32.421875 1.953125 27.53125 12.109375 
Q 22.65625 22.265625 22.65625 35.15625 
Q 22.65625 48.046875 27.53125 58.203125 
Q 32.421875 68.359375 42.1875 78.125 
L 46.484375 73.828125 
Q 37.5 65.234375 33 56.046875 
Q 28.515625 46.875 28.515625 35.15625 
Q 28.515625 23.4375 33 14.25 
Q 37.5 5.078125 46.484375 -3.125 
z
" id="SimHei-40"/>
       <path d="M 21.875 56.25 
Q 16.796875 51.171875 8.984375 46.484375 
L 8.984375 53.90625 
Q 18.75 60.546875 25 69.53125 
L 29.6875 69.53125 
L 29.6875 2.34375 
L 21.875 2.34375 
z
" id="SimHei-49"/>
       <path d="M 2.734375 16.796875 
Q 2.734375 26.171875 5.078125 30.65625 
Q 7.421875 35.15625 12.890625 37.890625 
Q 8.203125 40.625 6.640625 43.9375 
Q 5.078125 47.265625 4.875 51.5625 
Q 4.6875 55.859375 6.046875 58.984375 
Q 7.421875 62.109375 10.15625 64.84375 
Q 12.890625 67.578125 16.203125 68.546875 
Q 19.53125 69.53125 23.4375 69.53125 
Q 27.34375 69.53125 30.46875 68.75 
Q 33.59375 67.96875 37.109375 65.421875 
Q 40.625 62.890625 42.1875 58.203125 
Q 43.75 53.515625 41.984375 47.265625 
Q 40.234375 41.015625 32.8125 37.5 
Q 39.453125 35.546875 42.1875 31.4375 
Q 44.921875 27.34375 44.921875 21.484375 
Q 44.921875 15.625 43.15625 12.109375 
Q 41.40625 8.59375 39.25 6.25 
Q 37.109375 3.90625 33.390625 2.53125 
Q 29.6875 1.171875 24.015625 1.171875 
Q 18.359375 1.171875 14.25 2.53125 
Q 10.15625 3.90625 7.421875 6.640625 
Q 4.6875 9.375 3.703125 13.078125 
Q 2.734375 16.796875 2.734375 26.171875 
z
M 10.9375 26.5625 
Q 10.546875 17.1875 12.296875 13.671875 
Q 14.0625 10.15625 18.75 9.171875 
Q 23.4375 8.203125 28.515625 9.375 
Q 33.59375 10.546875 35.546875 14.84375 
Q 37.5 19.140625 36.90625 23.4375 
Q 36.328125 27.734375 32.03125 30.65625 
Q 27.734375 33.59375 22.65625 33.203125 
Q 17.578125 32.8125 14.25 29.6875 
Q 10.9375 26.5625 10.546875 17.1875 
z
M 12.109375 56.25 
Q 12.109375 48.4375 14.84375 44.921875 
Q 17.578125 41.40625 23.4375 41.40625 
Q 29.296875 41.40625 32.21875 44.921875 
Q 35.15625 48.4375 34.953125 53.3125 
Q 34.765625 58.203125 31.4375 60.546875 
Q 28.125 62.890625 22.453125 62.5 
Q 16.796875 62.109375 14.453125 59.171875 
Q 12.109375 56.25 12.109375 48.4375 
z
" id="SimHei-56"/>
       <path d="M 16.796875 1.953125 
L 7.8125 1.953125 
L 7.8125 10.546875 
L 16.796875 10.546875 
z
" id="SimHei-46"/>
       <path d="M 8.59375 20.703125 
Q 11.328125 10.15625 17.96875 8.984375 
Q 24.609375 7.8125 28.703125 10.34375 
Q 32.8125 12.890625 34.5625 16.984375 
Q 36.328125 21.09375 36.125 26.171875 
Q 35.9375 31.25 33.390625 34.765625 
Q 30.859375 38.28125 26.953125 39.453125 
Q 23.046875 40.625 18.15625 39.453125 
Q 13.28125 38.28125 10.15625 33.984375 
L 3.515625 34.765625 
Q 4.296875 37.109375 10.9375 68.359375 
L 41.796875 68.359375 
L 41.796875 61.328125 
L 16.796875 61.328125 
Q 14.84375 50.78125 12.890625 44.53125 
Q 18.75 47.265625 23.828125 47.0625 
Q 28.90625 46.875 33.59375 44.71875 
Q 38.28125 42.578125 40.421875 38.859375 
Q 42.578125 35.15625 43.546875 31.4375 
Q 44.53125 27.734375 44.328125 23.4375 
Q 44.140625 19.140625 42.578125 14.640625 
Q 41.015625 10.15625 37.890625 7.21875 
Q 34.765625 4.296875 30.265625 2.53125 
Q 25.78125 0.78125 19.921875 1.171875 
Q 14.0625 1.5625 8.78125 5.46875 
Q 3.515625 9.375 1.5625 18.75 
z
" id="SimHei-53"/>
       <path d="M 17.1875 1.953125 
L 12.109375 -8.59375 
L 8.203125 -8.59375 
L 12.109375 1.953125 
L 8.203125 1.953125 
L 8.203125 10.546875 
L 17.1875 10.546875 
z
" id="SimHei-44"/>
       <path id="SimHei-32"/>
       <path d="M 4.6875 3.90625 
Q 5.078125 9.765625 10.15625 14.453125 
Q 15.234375 19.140625 23.046875 29.09375 
Q 30.859375 39.0625 33.203125 44.53125 
Q 35.546875 50 34.953125 53.90625 
Q 34.375 57.8125 31.25 60.34375 
Q 28.125 62.890625 24.015625 62.5 
Q 19.921875 62.109375 16.203125 59.375 
Q 12.5 56.640625 10.546875 51.171875 
L 3.125 52.34375 
Q 6.25 61.328125 11.125 65.421875 
Q 16.015625 69.53125 22.65625 69.921875 
Q 26.5625 70.3125 29.6875 69.71875 
Q 32.8125 69.140625 36.125 66.984375 
Q 39.453125 64.84375 41.59375 60.546875 
Q 43.75 56.25 43.15625 50.1875 
Q 42.578125 44.140625 37.109375 35.734375 
Q 31.640625 27.34375 16.015625 9.375 
L 44.140625 9.375 
L 44.140625 2.34375 
L 4.6875 2.34375 
z
" id="SimHei-50"/>
       <path d="M 3.90625 19.140625 
L 10.9375 20.3125 
Q 12.5 15.234375 16.015625 11.90625 
Q 19.53125 8.59375 24.796875 8.78125 
Q 30.078125 8.984375 33.203125 13.078125 
Q 36.328125 17.1875 35.9375 22.453125 
Q 35.546875 27.734375 31.828125 30.65625 
Q 28.125 33.59375 19.921875 34.765625 
L 19.921875 39.84375 
Q 28.125 40.625 31.828125 44.140625 
Q 35.546875 47.65625 35.15625 53.3125 
Q 34.765625 58.984375 30.078125 61.515625 
Q 25.390625 64.0625 20.109375 62.109375 
Q 14.84375 60.15625 11.71875 51.171875 
L 4.6875 52.34375 
Q 7.03125 59.375 11.125 64.0625 
Q 15.234375 68.75 22.265625 69.53125 
Q 29.296875 70.3125 34.5625 67.765625 
Q 39.84375 65.234375 41.984375 59.953125 
Q 44.140625 54.6875 42.578125 48.4375 
Q 41.015625 42.1875 33.59375 37.5 
Q 39.0625 35.15625 41.984375 30.46875 
Q 44.921875 25.78125 43.9375 18.15625 
Q 42.96875 10.546875 37.109375 5.859375 
Q 31.25 1.171875 23.828125 1.359375 
Q 16.40625 1.5625 10.9375 6.046875 
Q 5.46875 10.546875 3.90625 19.140625 
z
" id="SimHei-51"/>
       <path d="M 29.296875 -8.203125 
L 4.6875 -8.203125 
L 4.6875 -1.953125 
L 22.65625 -1.953125 
L 22.65625 72.65625 
L 4.6875 72.65625 
L 4.6875 78.90625 
L 29.296875 78.90625 
z
" id="SimHei-93"/>
      </defs>
      <g style="fill:#262626;" transform="translate(111.6375 520.931818)scale(0.15 -0.15)">
       <use xlink:href="#SimHei-40"/>
       <use x="50" xlink:href="#SimHei-49"/>
       <use x="100" xlink:href="#SimHei-56"/>
       <use x="150" xlink:href="#SimHei-46"/>
       <use x="200" xlink:href="#SimHei-49"/>
       <use x="250" xlink:href="#SimHei-53"/>
       <use x="300" xlink:href="#SimHei-44"/>
       <use x="350" xlink:href="#SimHei-32"/>
       <use x="400" xlink:href="#SimHei-50"/>
       <use x="450" xlink:href="#SimHei-56"/>
       <use x="500" xlink:href="#SimHei-46"/>
       <use x="550" xlink:href="#SimHei-51"/>
       <use x="600" xlink:href="#SimHei-93"/>
      </g>
     </g>
    </g>
    <g id="xtick_2">
     <g id="text_2">
      <!-- (28.3, 38.35] -->
      <g style="fill:#262626;" transform="translate(279.0375 520.931818)scale(0.15 -0.15)">
       <use xlink:href="#SimHei-40"/>
       <use x="50" xlink:href="#SimHei-50"/>
       <use x="100" xlink:href="#SimHei-56"/>
       <use x="150" xlink:href="#SimHei-46"/>
       <use x="200" xlink:href="#SimHei-51"/>
       <use x="250" xlink:href="#SimHei-44"/>
       <use x="300" xlink:href="#SimHei-32"/>
       <use x="350" xlink:href="#SimHei-51"/>
       <use x="400" xlink:href="#SimHei-56"/>
       <use x="450" xlink:href="#SimHei-46"/>
       <use x="500" xlink:href="#SimHei-51"/>
       <use x="550" xlink:href="#SimHei-53"/>
       <use x="600" xlink:href="#SimHei-93"/>
      </g>
     </g>
    </g>
    <g id="xtick_3">
     <g id="text_3">
      <!-- (38.35, 48.4] -->
      <defs>
       <path d="M 31.25 17.1875 
L 1.171875 17.1875 
L 1.171875 23.828125 
L 32.8125 69.53125 
L 38.671875 69.53125 
L 38.671875 23.828125 
L 48.046875 23.828125 
L 48.046875 17.1875 
L 38.671875 17.1875 
L 38.671875 2.34375 
L 31.25 2.34375 
z
M 31.25 23.828125 
L 31.25 54.6875 
L 9.375 23.828125 
z
" id="SimHei-52"/>
      </defs>
      <g style="fill:#262626;" transform="translate(446.4375 520.931818)scale(0.15 -0.15)">
       <use xlink:href="#SimHei-40"/>
       <use x="50" xlink:href="#SimHei-51"/>
       <use x="100" xlink:href="#SimHei-56"/>
       <use x="150" xlink:href="#SimHei-46"/>
       <use x="200" xlink:href="#SimHei-51"/>
       <use x="250" xlink:href="#SimHei-53"/>
       <use x="300" xlink:href="#SimHei-44"/>
       <use x="350" xlink:href="#SimHei-32"/>
       <use x="400" xlink:href="#SimHei-52"/>
       <use x="450" xlink:href="#SimHei-56"/>
       <use x="500" xlink:href="#SimHei-46"/>
       <use x="550" xlink:href="#SimHei-52"/>
       <use x="600" xlink:href="#SimHei-93"/>
      </g>
     </g>
    </g>
    <g id="xtick_4">
     <g id="text_4">
      <!-- (48.4, 58.45] -->
      <g style="fill:#262626;" transform="translate(613.8375 520.931818)scale(0.15 -0.15)">
       <use xlink:href="#SimHei-40"/>
       <use x="50" xlink:href="#SimHei-52"/>
       <use x="100" xlink:href="#SimHei-56"/>
       <use x="150" xlink:href="#SimHei-46"/>
       <use x="200" xlink:href="#SimHei-52"/>
       <use x="250" xlink:href="#SimHei-44"/>
       <use x="300" xlink:href="#SimHei-32"/>
       <use x="350" xlink:href="#SimHei-53"/>
       <use x="400" xlink:href="#SimHei-56"/>
       <use x="450" xlink:href="#SimHei-46"/>
       <use x="500" xlink:href="#SimHei-52"/>
       <use x="550" xlink:href="#SimHei-53"/>
       <use x="600" xlink:href="#SimHei-93"/>
      </g>
     </g>
    </g>
    <g id="xtick_5">
     <g id="text_5">
      <!-- (58.45, 68.5] -->
      <defs>
       <path d="M 3.515625 19.53125 
Q 4.296875 30.859375 6.046875 34.765625 
Q 7.8125 38.671875 11.328125 44.53125 
L 27.34375 69.53125 
L 36.328125 69.53125 
L 19.921875 43.75 
Q 30.46875 46.484375 36.71875 42.96875 
Q 42.96875 39.453125 45.109375 34.953125 
Q 47.265625 30.46875 47.453125 25.1875 
Q 47.65625 19.921875 45.890625 14.84375 
Q 44.140625 9.765625 39.640625 5.65625 
Q 35.15625 1.5625 27.140625 1.171875 
Q 19.140625 0.78125 13.46875 4.09375 
Q 7.8125 7.421875 5.65625 13.46875 
Q 3.515625 19.53125 4.296875 30.859375 
z
M 12.5 16.015625 
Q 19.53125 8.59375 25.390625 8.203125 
Q 31.25 7.8125 35.15625 12.109375 
Q 39.0625 16.40625 39.0625 24.609375 
Q 39.0625 32.8125 34.171875 35.9375 
Q 29.296875 39.0625 23.234375 38.28125 
Q 17.1875 37.5 14.453125 32.421875 
Q 11.71875 27.34375 12.109375 21.671875 
Q 12.5 16.015625 19.53125 8.59375 
z
" id="SimHei-54"/>
      </defs>
      <g style="fill:#262626;" transform="translate(781.2375 520.931818)scale(0.15 -0.15)">
       <use xlink:href="#SimHei-40"/>
       <use x="50" xlink:href="#SimHei-53"/>
       <use x="100" xlink:href="#SimHei-56"/>
       <use x="150" xlink:href="#SimHei-46"/>
       <use x="200" xlink:href="#SimHei-52"/>
       <use x="250" xlink:href="#SimHei-53"/>
       <use x="300" xlink:href="#SimHei-44"/>
       <use x="350" xlink:href="#SimHei-32"/>
       <use x="400" xlink:href="#SimHei-54"/>
       <use x="450" xlink:href="#SimHei-56"/>
       <use x="500" xlink:href="#SimHei-46"/>
       <use x="550" xlink:href="#SimHei-53"/>
       <use x="600" xlink:href="#SimHei-93"/>
      </g>
     </g>
    </g>
    <g id="xtick_6">
     <g id="text_6">
      <!-- (68.5, 78.55] -->
      <defs>
       <path d="M 13.28125 2.34375 
Q 20.3125 32.03125 37.890625 61.328125 
L 4.296875 61.328125 
L 4.296875 68.359375 
L 46.09375 68.359375 
L 46.09375 61.71875 
Q 27.734375 32.03125 21.875 2.34375 
L 13.28125 2.34375 
z
" id="SimHei-55"/>
      </defs>
      <g style="fill:#262626;" transform="translate(948.6375 520.931818)scale(0.15 -0.15)">
       <use xlink:href="#SimHei-40"/>
       <use x="50" xlink:href="#SimHei-54"/>
       <use x="100" xlink:href="#SimHei-56"/>
       <use x="150" xlink:href="#SimHei-46"/>
       <use x="200" xlink:href="#SimHei-53"/>
       <use x="250" xlink:href="#SimHei-44"/>
       <use x="300" xlink:href="#SimHei-32"/>
       <use x="350" xlink:href="#SimHei-55"/>
       <use x="400" xlink:href="#SimHei-56"/>
       <use x="450" xlink:href="#SimHei-46"/>
       <use x="500" xlink:href="#SimHei-53"/>
       <use x="550" xlink:href="#SimHei-53"/>
       <use x="600" xlink:href="#SimHei-93"/>
      </g>
     </g>
    </g>
    <g id="xtick_7">
     <g id="text_7">
      <!-- (78.55, 88.6] -->
      <g style="fill:#262626;" transform="translate(1116.0375 520.931818)scale(0.15 -0.15)">
       <use xlink:href="#SimHei-40"/>
       <use x="50" xlink:href="#SimHei-55"/>
       <use x="100" xlink:href="#SimHei-56"/>
       <use x="150" xlink:href="#SimHei-46"/>
       <use x="200" xlink:href="#SimHei-53"/>
       <use x="250" xlink:href="#SimHei-53"/>
       <use x="300" xlink:href="#SimHei-44"/>
       <use x="350" xlink:href="#SimHei-32"/>
       <use x="400" xlink:href="#SimHei-56"/>
       <use x="450" xlink:href="#SimHei-56"/>
       <use x="500" xlink:href="#SimHei-46"/>
       <use x="550" xlink:href="#SimHei-54"/>
       <use x="600" xlink:href="#SimHei-93"/>
      </g>
     </g>
    </g>
    <g id="xtick_8">
     <g id="text_8">
      <!-- (88.6, 98.65] -->
      <defs>
       <path d="M 12.5 1.171875 
Q 21.09375 15.625 26.5625 27.34375 
Q 16.796875 25.78125 10.34375 29.875 
Q 3.90625 33.984375 2.53125 41.015625 
Q 1.171875 48.046875 2.734375 53.703125 
Q 4.296875 59.375 7.609375 63.078125 
Q 10.9375 66.796875 15.625 68.359375 
Q 20.3125 69.921875 24.015625 69.921875 
Q 27.734375 69.921875 31.640625 68.359375 
Q 35.546875 66.796875 38.671875 63.671875 
Q 41.796875 60.546875 42.96875 57.21875 
Q 44.140625 53.90625 44.140625 48.625 
Q 44.140625 43.359375 40.234375 35.15625 
Q 36.328125 26.953125 21.09375 1.171875 
z
M 9.765625 50 
Q 10.9375 39.84375 14.640625 36.515625 
Q 18.359375 33.203125 22.65625 33.59375 
Q 26.953125 33.984375 29.484375 35.9375 
Q 32.03125 37.890625 34.375 42.578125 
Q 35.9375 48.4375 35.15625 52.53125 
Q 34.375 56.640625 31.046875 59.375 
Q 27.734375 62.109375 23.828125 62.109375 
Q 21.484375 62.5 17.765625 60.9375 
Q 14.0625 59.375 11.90625 54.6875 
Q 9.765625 50 10.9375 39.84375 
z
" id="SimHei-57"/>
      </defs>
      <g style="fill:#262626;" transform="translate(1283.4375 520.931818)scale(0.15 -0.15)">
       <use xlink:href="#SimHei-40"/>
       <use x="50" xlink:href="#SimHei-56"/>
       <use x="100" xlink:href="#SimHei-56"/>
       <use x="150" xlink:href="#SimHei-46"/>
       <use x="200" xlink:href="#SimHei-54"/>
       <use x="250" xlink:href="#SimHei-44"/>
       <use x="300" xlink:href="#SimHei-32"/>
       <use x="350" xlink:href="#SimHei-57"/>
       <use x="400" xlink:href="#SimHei-56"/>
       <use x="450" xlink:href="#SimHei-46"/>
       <use x="500" xlink:href="#SimHei-54"/>
       <use x="550" xlink:href="#SimHei-53"/>
       <use x="600" xlink:href="#SimHei-93"/>
      </g>
     </g>
    </g>
    <g id="xtick_9">
     <g id="text_9">
      <!-- (98.65, 108.7] -->
      <defs>
       <path d="M 3.125 29.296875 
Q 3.90625 50 6.4375 56.046875 
Q 8.984375 62.109375 13.671875 66.015625 
Q 18.359375 69.921875 25.1875 69.921875 
Q 32.03125 69.921875 37.109375 64.25 
Q 42.1875 58.59375 43.75 50 
Q 45.3125 41.40625 44.71875 30.265625 
Q 44.140625 19.140625 40.8125 12.109375 
Q 37.5 5.078125 30.859375 2.34375 
Q 24.21875 -0.390625 17.578125 2.921875 
Q 10.9375 6.25 8.203125 11.71875 
Q 5.46875 17.1875 4.296875 23.234375 
Q 3.125 29.296875 3.90625 50 
z
M 12.890625 52.734375 
Q 10.546875 31.25 12.5 22.84375 
Q 14.453125 14.453125 18.9375 10.9375 
Q 23.4375 7.421875 28.125 9.5625 
Q 32.8125 11.71875 34.953125 18.15625 
Q 37.109375 24.609375 37.109375 32.21875 
Q 37.109375 39.84375 36.515625 46.09375 
Q 35.9375 52.34375 33 57.421875 
Q 30.078125 62.5 25.1875 62.6875 
Q 20.3125 62.890625 16.59375 57.8125 
Q 12.890625 52.734375 10.546875 31.25 
z
" id="SimHei-48"/>
      </defs>
      <g style="fill:#262626;" transform="translate(1447.0875 520.931818)scale(0.15 -0.15)">
       <use xlink:href="#SimHei-40"/>
       <use x="50" xlink:href="#SimHei-57"/>
       <use x="100" xlink:href="#SimHei-56"/>
       <use x="150" xlink:href="#SimHei-46"/>
       <use x="200" xlink:href="#SimHei-54"/>
       <use x="250" xlink:href="#SimHei-53"/>
       <use x="300" xlink:href="#SimHei-44"/>
       <use x="350" xlink:href="#SimHei-32"/>
       <use x="400" xlink:href="#SimHei-49"/>
       <use x="450" xlink:href="#SimHei-48"/>
       <use x="500" xlink:href="#SimHei-56"/>
       <use x="550" xlink:href="#SimHei-46"/>
       <use x="600" xlink:href="#SimHei-55"/>
       <use x="650" xlink:href="#SimHei-93"/>
      </g>
     </g>
    </g>
    <g id="xtick_10">
     <g id="text_10">
      <!-- (108.7, 118.75] -->
      <g style="fill:#262626;" transform="translate(1610.7375 520.931818)scale(0.15 -0.15)">
       <use xlink:href="#SimHei-40"/>
       <use x="50" xlink:href="#SimHei-49"/>
       <use x="100" xlink:href="#SimHei-48"/>
       <use x="150" xlink:href="#SimHei-56"/>
       <use x="200" xlink:href="#SimHei-46"/>
       <use x="250" xlink:href="#SimHei-55"/>
       <use x="300" xlink:href="#SimHei-44"/>
       <use x="350" xlink:href="#SimHei-32"/>
       <use x="400" xlink:href="#SimHei-49"/>
       <use x="450" xlink:href="#SimHei-49"/>
       <use x="500" xlink:href="#SimHei-56"/>
       <use x="550" xlink:href="#SimHei-46"/>
       <use x="600" xlink:href="#SimHei-55"/>
       <use x="650" xlink:href="#SimHei-53"/>
       <use x="700" xlink:href="#SimHei-93"/>
      </g>
     </g>
    </g>
    <g id="text_11">
     <!-- 月费用 -->
     <defs>
      <path d="M 82.03125 75.390625 
Q 81.25 66.015625 81.25 58.59375 
L 81.25 3.125 
Q 81.25 -4.296875 77.34375 -5.859375 
Q 73.4375 -7.421875 62.109375 -8.203125 
Q 61.328125 -3.515625 58.59375 0.78125 
Q 67.1875 0.390625 70.5 0.78125 
Q 73.828125 1.171875 73.828125 6.25 
L 73.828125 25 
L 28.90625 25 
Q 26.953125 12.109375 22.65625 3.515625 
Q 18.359375 -5.078125 14.0625 -8.984375 
Q 10.9375 -6.25 6.25 -5.078125 
Q 12.5 0.390625 16.203125 8 
Q 19.921875 15.625 20.890625 23.046875 
Q 21.875 30.46875 21.875 39.453125 
L 21.875 56.640625 
Q 21.875 65.234375 21.484375 75.390625 
L 82.03125 75.390625 
z
M 73.828125 53.125 
L 73.828125 69.53125 
L 29.296875 69.53125 
L 29.296875 53.125 
z
M 73.828125 31.25 
L 73.828125 47.265625 
L 29.296875 47.265625 
L 29.296875 31.25 
z
" id="SimHei-26376"/>
      <path d="M 35.15625 81.640625 
Q 39.453125 80.859375 44.140625 80.46875 
Q 43.359375 78.515625 42.96875 73.046875 
L 56.640625 73.046875 
Q 56.640625 76.953125 56.25 81.25 
L 63.671875 81.25 
Q 63.28125 76.953125 63.28125 73.046875 
L 88.671875 73.046875 
Q 88.28125 68.359375 88.28125 63.28125 
Q 88.28125 58.203125 88.671875 53.90625 
L 63.28125 53.90625 
L 63.28125 46.875 
L 94.140625 46.875 
Q 93.75 40.234375 93.546875 35.9375 
Q 93.359375 31.640625 91.203125 30.078125 
Q 89.0625 28.515625 81.640625 26.953125 
Q 80.859375 30.859375 78.125 34.765625 
Q 83.203125 34.765625 84.765625 35.34375 
Q 86.328125 35.9375 86.328125 41.015625 
L 63.28125 41.015625 
L 63.28125 32.03125 
L 79.6875 32.03125 
L 79.6875 18.359375 
Q 79.6875 14.0625 80.078125 8.203125 
L 71.875 8.203125 
L 71.875 26.171875 
L 29.6875 26.171875 
L 29.6875 5.46875 
L 21.875 5.46875 
Q 22.265625 12.109375 22.265625 17.1875 
L 22.265625 26.953125 
Q 18.359375 24.609375 9.375 21.09375 
Q 7.421875 25 4.6875 28.90625 
Q 9.765625 29.296875 18.15625 32.609375 
Q 26.5625 35.9375 31.25 41.015625 
L 13.671875 41.015625 
Q 15.234375 52.34375 15.234375 59.765625 
L 35.9375 59.765625 
L 35.9375 67.1875 
Q 18.75 67.1875 13.28125 66.796875 
L 13.28125 73.4375 
Q 19.140625 73.046875 35.9375 73.046875 
Q 35.9375 76.5625 35.15625 81.640625 
z
M 57.03125 20.3125 
Q 55.078125 16.015625 52.53125 10.15625 
Q 50 4.296875 45.703125 0.78125 
Q 41.40625 -2.734375 33.59375 -5.65625 
Q 25.78125 -8.59375 13.28125 -9.765625 
Q 12.109375 -5.859375 9.375 -1.5625 
Q 17.578125 -1.5625 25 -0.1875 
Q 32.421875 1.171875 38.859375 5.859375 
Q 45.3125 10.546875 47.65625 22.65625 
Q 51.5625 21.09375 57.03125 20.3125 
z
M 60.9375 10.9375 
Q 68.75 7.8125 75.96875 4.6875 
Q 83.203125 1.5625 89.84375 -1.5625 
Q 86.328125 -5.859375 84.375 -8.984375 
Q 76.953125 -5.078125 71.875 -2.53125 
Q 66.796875 0 56.640625 3.90625 
Q 58.203125 6.25 60.9375 10.9375 
z
M 56.25 32.03125 
L 56.25 41.015625 
L 41.015625 41.015625 
Q 36.328125 34.375 32.03125 32.03125 
z
M 80.46875 59.765625 
L 80.46875 67.1875 
L 63.28125 67.1875 
L 63.28125 59.765625 
z
M 56.25 59.765625 
L 56.25 67.1875 
L 42.96875 67.1875 
L 42.96875 59.765625 
z
M 56.25 46.875 
L 56.25 53.90625 
L 42.96875 53.90625 
Q 42.578125 49.609375 42.1875 46.875 
z
M 34.375 46.875 
Q 35.546875 51.171875 35.546875 53.90625 
L 22.65625 53.90625 
L 22.265625 46.875 
z
" id="SimHei-36153"/>
      <path d="M 5.46875 -4.6875 
Q 10.15625 1.953125 12.6875 9.375 
Q 15.234375 16.796875 15.8125 24.21875 
Q 16.40625 31.640625 16.40625 49.21875 
Q 16.40625 66.796875 16.015625 77.34375 
L 85.9375 77.34375 
Q 85.546875 66.015625 85.546875 57.03125 
L 85.546875 5.859375 
Q 85.546875 -2.34375 80.859375 -4.296875 
Q 76.171875 -6.25 69.921875 -7.03125 
Q 69.140625 -1.171875 67.1875 1.953125 
Q 75 1.5625 76.359375 2.53125 
Q 77.734375 3.515625 77.734375 6.25 
L 77.734375 25.78125 
L 53.90625 25.78125 
L 53.90625 10.546875 
Q 53.90625 1.953125 54.296875 -5.078125 
L 45.703125 -5.078125 
Q 46.09375 1.5625 46.09375 10.15625 
L 46.09375 25.78125 
L 23.828125 25.78125 
Q 22.265625 8.984375 13.28125 -8.203125 
Q 8.984375 -5.46875 5.46875 -4.6875 
z
M 77.734375 54.296875 
L 77.734375 71.09375 
L 53.90625 71.09375 
L 53.90625 54.296875 
z
M 77.734375 32.03125 
L 77.734375 48.4375 
L 53.90625 48.4375 
L 53.90625 32.03125 
z
M 46.09375 54.296875 
L 46.09375 71.09375 
L 23.828125 71.09375 
L 23.828125 54.296875 
z
M 46.09375 32.03125 
L 46.09375 48.4375 
L 23.828125 48.4375 
L 23.828125 32.03125 
z
" id="SimHei-29992"/>
     </defs>
     <g style="fill:#262626;" transform="translate(891.1875 538.642756)scale(0.15 -0.15)">
      <use xlink:href="#SimHei-26376"/>
      <use x="100" xlink:href="#SimHei-36153"/>
      <use x="200" xlink:href="#SimHei-29992"/>
     </g>
    </g>
   </g>
   <g id="matplotlib.axis_2">
    <g id="ytick_1">
     <g id="line2d_1">
      <path clip-path="url(#p097bb5677a)" d="M 76.6875 501.381818 
L 1750.6875 501.381818 
" style="fill:none;stroke:#cccccc;stroke-linecap:round;stroke-width:0.8;"/>
     </g>
     <g id="text_12">
      <!-- 0.0 -->
      <g style="fill:#262626;" transform="translate(45.8875 506.538068)scale(0.15 -0.15)">
       <use xlink:href="#SimHei-48"/>
       <use x="50" xlink:href="#SimHei-46"/>
       <use x="100" xlink:href="#SimHei-48"/>
      </g>
     </g>
    </g>
    <g id="ytick_2">
     <g id="line2d_2">
      <path clip-path="url(#p097bb5677a)" d="M 76.6875 436.820865 
L 1750.6875 436.820865 
" style="fill:none;stroke:#cccccc;stroke-linecap:round;stroke-width:0.8;"/>
     </g>
     <g id="text_13">
      <!-- 200.0 -->
      <g style="fill:#262626;" transform="translate(30.8875 441.977115)scale(0.15 -0.15)">
       <use xlink:href="#SimHei-50"/>
       <use x="50" xlink:href="#SimHei-48"/>
       <use x="100" xlink:href="#SimHei-48"/>
       <use x="150" xlink:href="#SimHei-46"/>
       <use x="200" xlink:href="#SimHei-48"/>
      </g>
     </g>
    </g>
    <g id="ytick_3">
     <g id="line2d_3">
      <path clip-path="url(#p097bb5677a)" d="M 76.6875 372.259911 
L 1750.6875 372.259911 
" style="fill:none;stroke:#cccccc;stroke-linecap:round;stroke-width:0.8;"/>
     </g>
     <g id="text_14">
      <!-- 400.0 -->
      <g style="fill:#262626;" transform="translate(30.8875 377.416161)scale(0.15 -0.15)">
       <use xlink:href="#SimHei-52"/>
       <use x="50" xlink:href="#SimHei-48"/>
       <use x="100" xlink:href="#SimHei-48"/>
       <use x="150" xlink:href="#SimHei-46"/>
       <use x="200" xlink:href="#SimHei-48"/>
      </g>
     </g>
    </g>
    <g id="ytick_4">
     <g id="line2d_4">
      <path clip-path="url(#p097bb5677a)" d="M 76.6875 307.698958 
L 1750.6875 307.698958 
" style="fill:none;stroke:#cccccc;stroke-linecap:round;stroke-width:0.8;"/>
     </g>
     <g id="text_15">
      <!-- 600.0 -->
      <g style="fill:#262626;" transform="translate(30.8875 312.855208)scale(0.15 -0.15)">
       <use xlink:href="#SimHei-54"/>
       <use x="50" xlink:href="#SimHei-48"/>
       <use x="100" xlink:href="#SimHei-48"/>
       <use x="150" xlink:href="#SimHei-46"/>
       <use x="200" xlink:href="#SimHei-48"/>
      </g>
     </g>
    </g>
    <g id="ytick_5">
     <g id="line2d_5">
      <path clip-path="url(#p097bb5677a)" d="M 76.6875 243.138004 
L 1750.6875 243.138004 
" style="fill:none;stroke:#cccccc;stroke-linecap:round;stroke-width:0.8;"/>
     </g>
     <g id="text_16">
      <!-- 800.0 -->
      <g style="fill:#262626;" transform="translate(30.8875 248.294254)scale(0.15 -0.15)">
       <use xlink:href="#SimHei-56"/>
       <use x="50" xlink:href="#SimHei-48"/>
       <use x="100" xlink:href="#SimHei-48"/>
       <use x="150" xlink:href="#SimHei-46"/>
       <use x="200" xlink:href="#SimHei-48"/>
      </g>
     </g>
    </g>
    <g id="ytick_6">
     <g id="line2d_6">
      <path clip-path="url(#p097bb5677a)" d="M 76.6875 178.577051 
L 1750.6875 178.577051 
" style="fill:none;stroke:#cccccc;stroke-linecap:round;stroke-width:0.8;"/>
     </g>
     <g id="text_17">
      <!-- 1000.0 -->
      <g style="fill:#262626;" transform="translate(23.3875 183.733301)scale(0.15 -0.15)">
       <use xlink:href="#SimHei-49"/>
       <use x="50" xlink:href="#SimHei-48"/>
       <use x="100" xlink:href="#SimHei-48"/>
       <use x="150" xlink:href="#SimHei-48"/>
       <use x="200" xlink:href="#SimHei-46"/>
       <use x="250" xlink:href="#SimHei-48"/>
      </g>
     </g>
    </g>
    <g id="ytick_7">
     <g id="line2d_7">
      <path clip-path="url(#p097bb5677a)" d="M 76.6875 114.016097 
L 1750.6875 114.016097 
" style="fill:none;stroke:#cccccc;stroke-linecap:round;stroke-width:0.8;"/>
     </g>
     <g id="text_18">
      <!-- 1200.0 -->
      <g style="fill:#262626;" transform="translate(23.3875 119.172347)scale(0.15 -0.15)">
       <use xlink:href="#SimHei-49"/>
       <use x="50" xlink:href="#SimHei-50"/>
       <use x="100" xlink:href="#SimHei-48"/>
       <use x="150" xlink:href="#SimHei-48"/>
       <use x="200" xlink:href="#SimHei-46"/>
       <use x="250" xlink:href="#SimHei-48"/>
      </g>
     </g>
    </g>
    <g id="ytick_8">
     <g id="line2d_8">
      <path clip-path="url(#p097bb5677a)" d="M 76.6875 49.455144 
L 1750.6875 49.455144 
" style="fill:none;stroke:#cccccc;stroke-linecap:round;stroke-width:0.8;"/>
     </g>
     <g id="text_19">
      <!-- 1400.0 -->
      <g style="fill:#262626;" transform="translate(23.3875 54.611394)scale(0.15 -0.15)">
       <use xlink:href="#SimHei-49"/>
       <use x="50" xlink:href="#SimHei-52"/>
       <use x="100" xlink:href="#SimHei-48"/>
       <use x="150" xlink:href="#SimHei-48"/>
       <use x="200" xlink:href="#SimHei-46"/>
       <use x="250" xlink:href="#SimHei-48"/>
      </g>
     </g>
    </g>
    <g id="text_20">
     <!-- count -->
     <defs>
      <path d="M 44.53125 19.53125 
Q 44.53125 11.328125 38.859375 6.25 
Q 33.203125 1.171875 24.609375 1.171875 
Q 16.015625 1.171875 9.765625 7.21875 
Q 3.515625 13.28125 3.515625 23.828125 
Q 3.515625 34.375 9.765625 40.421875 
Q 16.015625 46.484375 24.609375 46.484375 
Q 33.203125 46.484375 38.28125 41.984375 
Q 43.359375 37.5 43.359375 31.25 
L 34.765625 31.25 
Q 34.375 35.9375 31.4375 37.6875 
Q 28.515625 39.453125 24.609375 39.453125 
Q 19.921875 39.453125 16.015625 35.734375 
Q 12.109375 32.03125 12.109375 23.828125 
Q 12.109375 15.625 16.015625 11.90625 
Q 19.921875 8.203125 24.609375 8.203125 
Q 29.6875 8.203125 32.8125 10.9375 
Q 35.9375 13.671875 35.9375 19.53125 
z
" id="SimHei-99"/>
      <path d="M 45.703125 23.828125 
Q 45.703125 13.671875 39.453125 7.421875 
Q 33.203125 1.171875 24.609375 1.171875 
Q 16.015625 1.171875 9.765625 7.421875 
Q 3.515625 13.671875 3.515625 23.828125 
Q 3.515625 33.984375 9.765625 40.234375 
Q 16.015625 46.484375 24.609375 46.484375 
Q 33.203125 46.484375 39.453125 40.234375 
Q 45.703125 33.984375 45.703125 23.828125 
z
M 37.109375 23.828125 
Q 37.109375 31.640625 33.203125 35.546875 
Q 29.296875 39.453125 24.609375 39.453125 
Q 19.921875 39.453125 16.015625 35.546875 
Q 12.109375 31.640625 12.109375 23.828125 
Q 12.109375 16.015625 16.015625 12.109375 
Q 19.921875 8.203125 24.609375 8.203125 
Q 29.296875 8.203125 33.203125 12.109375 
Q 37.109375 16.015625 37.109375 23.828125 
z
" id="SimHei-111"/>
      <path d="M 43.75 1.953125 
L 35.9375 1.953125 
L 35.9375 10.15625 
Q 32.8125 5.859375 29.09375 3.515625 
Q 25.390625 1.171875 19.53125 1.171875 
Q 12.5 1.171875 8.984375 5.078125 
Q 5.46875 8.984375 5.46875 14.84375 
L 5.46875 45.703125 
L 13.28125 45.703125 
L 13.28125 17.578125 
Q 13.28125 12.890625 15.625 10.15625 
Q 17.96875 7.421875 21.875 7.421875 
Q 26.953125 7.421875 31.4375 12.6875 
Q 35.9375 17.96875 35.9375 25.78125 
L 35.9375 45.703125 
L 43.75 45.703125 
z
" id="SimHei-117"/>
      <path d="M 43.75 1.953125 
L 35.9375 1.953125 
L 35.9375 30.078125 
Q 35.9375 34.765625 33.59375 37.5 
Q 31.25 40.234375 27.34375 40.234375 
Q 22.265625 40.234375 17.765625 34.953125 
Q 13.28125 29.6875 13.28125 21.875 
L 13.28125 1.953125 
L 5.46875 1.953125 
L 5.46875 45.703125 
L 13.28125 45.703125 
L 13.28125 37.5 
Q 16.40625 41.796875 20.109375 44.140625 
Q 23.828125 46.484375 29.6875 46.484375 
Q 36.71875 46.484375 40.234375 42.578125 
Q 43.75 38.671875 43.75 32.8125 
z
" id="SimHei-110"/>
      <path d="M 42.96875 3.125 
Q 41.015625 2.34375 38.46875 1.75 
Q 35.9375 1.171875 31.640625 1.171875 
Q 24.609375 1.171875 20.3125 5.078125 
Q 16.015625 8.984375 16.015625 16.015625 
L 16.015625 39.453125 
L 2.734375 39.453125 
L 2.734375 45.703125 
L 16.015625 45.703125 
L 16.015625 60.9375 
L 23.828125 60.9375 
L 23.828125 45.703125 
L 39.84375 45.703125 
L 39.84375 39.453125 
L 23.828125 39.453125 
L 23.828125 15.625 
Q 23.828125 12.5 25.390625 10.34375 
Q 26.953125 8.203125 31.25 8.203125 
Q 35.546875 8.203125 38.28125 8.984375 
Q 41.015625 9.765625 42.96875 10.9375 
z
" id="SimHei-116"/>
     </defs>
     <g style="fill:#262626;" transform="translate(17.5125 273.040909)rotate(-90)scale(0.15 -0.15)">
      <use xlink:href="#SimHei-99"/>
      <use x="50" xlink:href="#SimHei-111"/>
      <use x="100" xlink:href="#SimHei-117"/>
      <use x="150" xlink:href="#SimHei-110"/>
      <use x="200" xlink:href="#SimHei-116"/>
     </g>
    </g>
   </g>
   <g id="patch_3">
    <path clip-path="url(#p097bb5677a)" d="M 93.4275 501.381818 
L 160.3875 501.381818 
L 160.3875 30.732468 
L 93.4275 30.732468 
z
" style="fill:#36839d;stroke:#ffffff;stroke-linejoin:miter;stroke-width:0.8;"/>
   </g>
   <g id="patch_4">
    <path clip-path="url(#p097bb5677a)" d="M 260.8275 501.381818 
L 327.7875 501.381818 
L 327.7875 458.125979 
L 260.8275 458.125979 
z
" style="fill:#36839d;stroke:#ffffff;stroke-linejoin:miter;stroke-width:0.8;"/>
   </g>
   <g id="patch_5">
    <path clip-path="url(#p097bb5677a)" d="M 428.2275 501.381818 
L 495.1875 501.381818 
L 495.1875 421.971845 
L 428.2275 421.971845 
z
" style="fill:#36839d;stroke:#ffffff;stroke-linejoin:miter;stroke-width:0.8;"/>
   </g>
   <g id="patch_6">
    <path clip-path="url(#p097bb5677a)" d="M 595.6275 501.381818 
L 662.5875 501.381818 
L 662.5875 343.853092 
L 595.6275 343.853092 
z
" style="fill:#36839d;stroke:#ffffff;stroke-linejoin:miter;stroke-width:0.8;"/>
   </g>
   <g id="patch_7">
    <path clip-path="url(#p097bb5677a)" d="M 763.0275 501.381818 
L 829.9875 501.381818 
L 829.9875 365.803816 
L 763.0275 365.803816 
z
" style="fill:#36839d;stroke:#ffffff;stroke-linejoin:miter;stroke-width:0.8;"/>
   </g>
   <g id="patch_8">
    <path clip-path="url(#p097bb5677a)" d="M 930.4275 501.381818 
L 997.3875 501.381818 
L 997.3875 325.776025 
L 930.4275 325.776025 
z
" style="fill:#36839d;stroke:#ffffff;stroke-linejoin:miter;stroke-width:0.8;"/>
   </g>
   <g id="patch_9">
    <path clip-path="url(#p097bb5677a)" d="M 1097.8275 501.381818 
L 1164.7875 501.381818 
L 1164.7875 308.344567 
L 1097.8275 308.344567 
z
" style="fill:#36839d;stroke:#ffffff;stroke-linejoin:miter;stroke-width:0.8;"/>
   </g>
   <g id="patch_10">
    <path clip-path="url(#p097bb5677a)" d="M 1265.2275 501.381818 
L 1332.1875 501.381818 
L 1332.1875 322.870782 
L 1265.2275 322.870782 
z
" style="fill:#36839d;stroke:#ffffff;stroke-linejoin:miter;stroke-width:0.8;"/>
   </g>
   <g id="patch_11">
    <path clip-path="url(#p097bb5677a)" d="M 1432.6275 501.381818 
L 1499.5875 501.381818 
L 1499.5875 345.78992 
L 1432.6275 345.78992 
z
" style="fill:#36839d;stroke:#ffffff;stroke-linejoin:miter;stroke-width:0.8;"/>
   </g>
   <g id="patch_12">
    <path clip-path="url(#p097bb5677a)" d="M 1600.0275 501.381818 
L 1666.9875 501.381818 
L 1666.9875 420.357822 
L 1600.0275 420.357822 
z
" style="fill:#36839d;stroke:#ffffff;stroke-linejoin:miter;stroke-width:0.8;"/>
   </g>
   <g id="patch_13">
    <path clip-path="url(#p097bb5677a)" d="M 160.3875 501.381818 
L 227.3475 501.381818 
L 227.3475 453.606713 
L 160.3875 453.606713 
z
" style="fill:#b9c5d9;stroke:#ffffff;stroke-linejoin:miter;stroke-width:0.8;"/>
   </g>
   <g id="patch_14">
    <path clip-path="url(#p097bb5677a)" d="M 327.7875 501.381818 
L 394.7475 501.381818 
L 394.7475 482.981946 
L 327.7875 482.981946 
z
" style="fill:#b9c5d9;stroke:#ffffff;stroke-linejoin:miter;stroke-width:0.8;"/>
   </g>
   <g id="patch_15">
    <path clip-path="url(#p097bb5677a)" d="M 495.1875 501.381818 
L 562.1475 501.381818 
L 562.1475 462.968051 
L 495.1875 462.968051 
z
" style="fill:#b9c5d9;stroke:#ffffff;stroke-linejoin:miter;stroke-width:0.8;"/>
   </g>
   <g id="patch_16">
    <path clip-path="url(#p097bb5677a)" d="M 662.5875 501.381818 
L 729.5475 501.381818 
L 729.5475 452.315494 
L 662.5875 452.315494 
z
" style="fill:#b9c5d9;stroke:#ffffff;stroke-linejoin:miter;stroke-width:0.8;"/>
   </g>
   <g id="patch_17">
    <path clip-path="url(#p097bb5677a)" d="M 829.9875 501.381818 
L 896.9475 501.381818 
L 896.9475 483.950361 
L 829.9875 483.950361 
z
" style="fill:#b9c5d9;stroke:#ffffff;stroke-linejoin:miter;stroke-width:0.8;"/>
   </g>
   <g id="patch_18">
    <path clip-path="url(#p097bb5677a)" d="M 997.3875 501.381818 
L 1064.3475 501.381818 
L 1064.3475 388.722954 
L 997.3875 388.722954 
z
" style="fill:#b9c5d9;stroke:#ffffff;stroke-linejoin:miter;stroke-width:0.8;"/>
   </g>
   <g id="patch_19">
    <path clip-path="url(#p097bb5677a)" d="M 1164.7875 501.381818 
L 1231.7475 501.381818 
L 1231.7475 386.786126 
L 1164.7875 386.786126 
z
" style="fill:#b9c5d9;stroke:#ffffff;stroke-linejoin:miter;stroke-width:0.8;"/>
   </g>
   <g id="patch_20">
    <path clip-path="url(#p097bb5677a)" d="M 1332.1875 501.381818 
L 1399.1475 501.381818 
L 1399.1475 398.084293 
L 1332.1875 398.084293 
z
" style="fill:#b9c5d9;stroke:#ffffff;stroke-linejoin:miter;stroke-width:0.8;"/>
   </g>
   <g id="patch_21">
    <path clip-path="url(#p097bb5677a)" d="M 1499.5875 501.381818 
L 1566.5475 501.381818 
L 1566.5475 413.578921 
L 1499.5875 413.578921 
z
" style="fill:#b9c5d9;stroke:#ffffff;stroke-linejoin:miter;stroke-width:0.8;"/>
   </g>
   <g id="patch_22">
    <path clip-path="url(#p097bb5677a)" d="M 1666.9875 501.381818 
L 1733.9475 501.381818 
L 1733.9475 487.501213 
L 1666.9875 487.501213 
z
" style="fill:#b9c5d9;stroke:#ffffff;stroke-linejoin:miter;stroke-width:0.8;"/>
   </g>
   <g id="patch_23">
    <path d="M 76.6875 501.381818 
L 76.6875 7.2 
" style="fill:none;stroke:#cccccc;stroke-linecap:square;stroke-linejoin:miter;"/>
   </g>
   <g id="patch_24">
    <path d="M 1750.6875 501.381818 
L 1750.6875 7.2 
" style="fill:none;stroke:#cccccc;stroke-linecap:square;stroke-linejoin:miter;"/>
   </g>
   <g id="patch_25">
    <path d="M 76.6875 501.381818 
L 1750.6875 501.381818 
" style="fill:none;stroke:#cccccc;stroke-linecap:square;stroke-linejoin:miter;"/>
   </g>
   <g id="patch_26">
    <path d="M 76.6875 7.2 
L 1750.6875 7.2 
" style="fill:none;stroke:#cccccc;stroke-linecap:square;stroke-linejoin:miter;"/>
   </g>
   <g id="legend_1">
    <g id="patch_27">
     <path d="M 1669.6875 58.95 
L 1740.1875 58.95 
Q 1743.1875 58.95 1743.1875 55.95 
L 1743.1875 17.7 
Q 1743.1875 14.7 1740.1875 14.7 
L 1669.6875 14.7 
Q 1666.6875 14.7 1666.6875 17.7 
L 1666.6875 55.95 
Q 1666.6875 58.95 1669.6875 58.95 
z
" style="fill:#ffffff;opacity:0.8;stroke:#cccccc;stroke-linejoin:miter;stroke-width:0.8;"/>
    </g>
    <g id="patch_28">
     <path d="M 1672.6875 31.2 
L 1702.6875 31.2 
L 1702.6875 20.7 
L 1672.6875 20.7 
z
" style="fill:#36839d;stroke:#ffffff;stroke-linejoin:miter;stroke-width:0.8;"/>
    </g>
    <g id="text_21">
     <!-- No -->
     <defs>
      <path d="M 44.53125 1.953125 
L 34.765625 1.953125 
L 13.28125 50.390625 
L 12.890625 50.390625 
L 12.890625 1.953125 
L 3.90625 1.953125 
L 3.90625 68.75 
L 13.671875 68.75 
L 35.15625 20.3125 
L 35.546875 20.3125 
L 35.546875 68.75 
L 44.53125 68.75 
z
" id="SimHei-78"/>
     </defs>
     <g style="fill:#262626;" transform="translate(1714.6875 31.2)scale(0.15 -0.15)">
      <use xlink:href="#SimHei-78"/>
      <use x="50" xlink:href="#SimHei-111"/>
     </g>
    </g>
    <g id="patch_29">
     <path d="M 1672.6875 51.075 
L 1702.6875 51.075 
L 1702.6875 40.575 
L 1672.6875 40.575 
z
" style="fill:#b9c5d9;stroke:#ffffff;stroke-linejoin:miter;stroke-width:0.8;"/>
    </g>
    <g id="text_22">
     <!-- Yes -->
     <defs>
      <path d="M 47.265625 68.75 
L 28.90625 32.03125 
L 28.90625 1.953125 
L 19.921875 1.953125 
L 19.921875 32.03125 
L 1.5625 68.75 
L 10.546875 68.75 
L 24.21875 40.234375 
L 24.609375 40.234375 
L 38.28125 68.75 
z
" id="SimHei-89"/>
      <path d="M 44.53125 16.796875 
Q 43.75 9.765625 38.28125 5.46875 
Q 32.8125 1.171875 25.390625 1.171875 
Q 16.015625 1.171875 9.953125 7.21875 
Q 3.90625 13.28125 3.90625 23.828125 
Q 3.90625 34.375 9.953125 40.421875 
Q 16.015625 46.484375 25.390625 46.484375 
Q 33.59375 46.484375 38.859375 41.203125 
Q 44.140625 35.9375 44.140625 23.828125 
L 12.5 23.828125 
Q 12.5 15.234375 16.203125 11.71875 
Q 19.921875 8.203125 25.390625 8.203125 
Q 29.6875 8.203125 32.421875 10.34375 
Q 35.15625 12.5 35.9375 16.796875 
z
M 35.15625 30.078125 
Q 34.375 35.546875 31.640625 37.6875 
Q 28.90625 39.84375 24.609375 39.84375 
Q 20.703125 39.84375 17.578125 37.6875 
Q 14.453125 35.546875 12.890625 30.078125 
z
" id="SimHei-101"/>
      <path d="M 42.96875 14.0625 
Q 42.96875 7.8125 38.078125 4.484375 
Q 33.203125 1.171875 25.78125 1.171875 
Q 16.40625 1.171875 11.328125 4.875 
Q 6.25 8.59375 6.25 15.625 
L 14.0625 15.625 
Q 14.0625 10.9375 17.375 9.375 
Q 20.703125 7.8125 25.390625 7.8125 
Q 30.078125 7.8125 32.421875 9.5625 
Q 34.765625 11.328125 34.765625 14.0625 
Q 34.765625 16.015625 32.8125 17.96875 
Q 30.859375 19.921875 23.046875 21.09375 
Q 14.0625 22.265625 10.734375 25.578125 
Q 7.421875 28.90625 7.421875 34.375 
Q 7.421875 39.0625 11.90625 42.765625 
Q 16.40625 46.484375 25 46.484375 
Q 32.8125 46.484375 37.296875 42.96875 
Q 41.796875 39.453125 41.796875 33.59375 
L 33.984375 33.59375 
Q 33.984375 37.109375 31.4375 38.46875 
Q 28.90625 39.84375 25 39.84375 
Q 19.921875 39.84375 17.765625 38.078125 
Q 15.625 36.328125 15.625 33.984375 
Q 15.625 31.25 17.578125 29.6875 
Q 19.53125 28.125 25.78125 27.34375 
Q 35.9375 25.78125 39.453125 22.453125 
Q 42.96875 19.140625 42.96875 14.0625 
z
" id="SimHei-115"/>
     </defs>
     <g style="fill:#262626;" transform="translate(1714.6875 51.075)scale(0.15 -0.15)">
      <use xlink:href="#SimHei-89"/>
      <use x="50" xlink:href="#SimHei-101"/>
      <use x="100" xlink:href="#SimHei-115"/>
     </g>
    </g>
   </g>
  </g>
  <g id="axes_2">
   <g id="patch_30">
    <path d="M 76.6875 1094.4 
L 1750.6875 1094.4 
L 1750.6875 600.218182 
L 76.6875 600.218182 
z
" style="fill:#ffffff;"/>
   </g>
   <g id="matplotlib.axis_3">
    <g id="xtick_11">
     <g id="text_23">
      <!-- (-8.685, 868.48] -->
      <defs>
       <path d="M 46.484375 33.203125 
L 1.953125 33.203125 
L 1.953125 39.453125 
L 46.484375 39.453125 
z
" id="SimHei-45"/>
      </defs>
      <g style="fill:#262626;" transform="translate(100.3875 1113.95)scale(0.15 -0.15)">
       <use xlink:href="#SimHei-40"/>
       <use x="50" xlink:href="#SimHei-45"/>
       <use x="100" xlink:href="#SimHei-56"/>
       <use x="150" xlink:href="#SimHei-46"/>
       <use x="200" xlink:href="#SimHei-54"/>
       <use x="250" xlink:href="#SimHei-56"/>
       <use x="300" xlink:href="#SimHei-53"/>
       <use x="350" xlink:href="#SimHei-44"/>
       <use x="400" xlink:href="#SimHei-32"/>
       <use x="450" xlink:href="#SimHei-56"/>
       <use x="500" xlink:href="#SimHei-54"/>
       <use x="550" xlink:href="#SimHei-56"/>
       <use x="600" xlink:href="#SimHei-46"/>
       <use x="650" xlink:href="#SimHei-52"/>
       <use x="700" xlink:href="#SimHei-56"/>
       <use x="750" xlink:href="#SimHei-93"/>
      </g>
     </g>
    </g>
    <g id="xtick_12">
     <g id="text_24">
      <!-- (868.48, 1736.96] -->
      <g style="fill:#262626;" transform="translate(264.0375 1113.95)scale(0.15 -0.15)">
       <use xlink:href="#SimHei-40"/>
       <use x="50" xlink:href="#SimHei-56"/>
       <use x="100" xlink:href="#SimHei-54"/>
       <use x="150" xlink:href="#SimHei-56"/>
       <use x="200" xlink:href="#SimHei-46"/>
       <use x="250" xlink:href="#SimHei-52"/>
       <use x="300" xlink:href="#SimHei-56"/>
       <use x="350" xlink:href="#SimHei-44"/>
       <use x="400" xlink:href="#SimHei-32"/>
       <use x="450" xlink:href="#SimHei-49"/>
       <use x="500" xlink:href="#SimHei-55"/>
       <use x="550" xlink:href="#SimHei-51"/>
       <use x="600" xlink:href="#SimHei-54"/>
       <use x="650" xlink:href="#SimHei-46"/>
       <use x="700" xlink:href="#SimHei-57"/>
       <use x="750" xlink:href="#SimHei-54"/>
       <use x="800" xlink:href="#SimHei-93"/>
      </g>
     </g>
    </g>
    <g id="xtick_13">
     <g id="text_25">
      <!-- (1736.96, 2605.44] -->
      <g style="fill:#262626;" transform="translate(427.6875 1113.95)scale(0.15 -0.15)">
       <use xlink:href="#SimHei-40"/>
       <use x="50" xlink:href="#SimHei-49"/>
       <use x="100" xlink:href="#SimHei-55"/>
       <use x="150" xlink:href="#SimHei-51"/>
       <use x="200" xlink:href="#SimHei-54"/>
       <use x="250" xlink:href="#SimHei-46"/>
       <use x="300" xlink:href="#SimHei-57"/>
       <use x="350" xlink:href="#SimHei-54"/>
       <use x="400" xlink:href="#SimHei-44"/>
       <use x="450" xlink:href="#SimHei-32"/>
       <use x="500" xlink:href="#SimHei-50"/>
       <use x="550" xlink:href="#SimHei-54"/>
       <use x="600" xlink:href="#SimHei-48"/>
       <use x="650" xlink:href="#SimHei-53"/>
       <use x="700" xlink:href="#SimHei-46"/>
       <use x="750" xlink:href="#SimHei-52"/>
       <use x="800" xlink:href="#SimHei-52"/>
       <use x="850" xlink:href="#SimHei-93"/>
      </g>
     </g>
    </g>
    <g id="xtick_14">
     <g id="text_26">
      <!-- (2605.44, 3473.92] -->
      <g style="fill:#262626;" transform="translate(595.0875 1113.95)scale(0.15 -0.15)">
       <use xlink:href="#SimHei-40"/>
       <use x="50" xlink:href="#SimHei-50"/>
       <use x="100" xlink:href="#SimHei-54"/>
       <use x="150" xlink:href="#SimHei-48"/>
       <use x="200" xlink:href="#SimHei-53"/>
       <use x="250" xlink:href="#SimHei-46"/>
       <use x="300" xlink:href="#SimHei-52"/>
       <use x="350" xlink:href="#SimHei-52"/>
       <use x="400" xlink:href="#SimHei-44"/>
       <use x="450" xlink:href="#SimHei-32"/>
       <use x="500" xlink:href="#SimHei-51"/>
       <use x="550" xlink:href="#SimHei-52"/>
       <use x="600" xlink:href="#SimHei-55"/>
       <use x="650" xlink:href="#SimHei-51"/>
       <use x="700" xlink:href="#SimHei-46"/>
       <use x="750" xlink:href="#SimHei-57"/>
       <use x="800" xlink:href="#SimHei-50"/>
       <use x="850" xlink:href="#SimHei-93"/>
      </g>
     </g>
    </g>
    <g id="xtick_15">
     <g id="text_27">
      <!-- (3473.92, 4342.4] -->
      <g style="fill:#262626;" transform="translate(766.2375 1113.95)scale(0.15 -0.15)">
       <use xlink:href="#SimHei-40"/>
       <use x="50" xlink:href="#SimHei-51"/>
       <use x="100" xlink:href="#SimHei-52"/>
       <use x="150" xlink:href="#SimHei-55"/>
       <use x="200" xlink:href="#SimHei-51"/>
       <use x="250" xlink:href="#SimHei-46"/>
       <use x="300" xlink:href="#SimHei-57"/>
       <use x="350" xlink:href="#SimHei-50"/>
       <use x="400" xlink:href="#SimHei-44"/>
       <use x="450" xlink:href="#SimHei-32"/>
       <use x="500" xlink:href="#SimHei-52"/>
       <use x="550" xlink:href="#SimHei-51"/>
       <use x="600" xlink:href="#SimHei-52"/>
       <use x="650" xlink:href="#SimHei-50"/>
       <use x="700" xlink:href="#SimHei-46"/>
       <use x="750" xlink:href="#SimHei-52"/>
       <use x="800" xlink:href="#SimHei-93"/>
      </g>
     </g>
    </g>
    <g id="xtick_16">
     <g id="text_28">
      <!-- (4342.4, 5210.88] -->
      <g style="fill:#262626;" transform="translate(933.6375 1113.95)scale(0.15 -0.15)">
       <use xlink:href="#SimHei-40"/>
       <use x="50" xlink:href="#SimHei-52"/>
       <use x="100" xlink:href="#SimHei-51"/>
       <use x="150" xlink:href="#SimHei-52"/>
       <use x="200" xlink:href="#SimHei-50"/>
       <use x="250" xlink:href="#SimHei-46"/>
       <use x="300" xlink:href="#SimHei-52"/>
       <use x="350" xlink:href="#SimHei-44"/>
       <use x="400" xlink:href="#SimHei-32"/>
       <use x="450" xlink:href="#SimHei-53"/>
       <use x="500" xlink:href="#SimHei-50"/>
       <use x="550" xlink:href="#SimHei-49"/>
       <use x="600" xlink:href="#SimHei-48"/>
       <use x="650" xlink:href="#SimHei-46"/>
       <use x="700" xlink:href="#SimHei-56"/>
       <use x="750" xlink:href="#SimHei-56"/>
       <use x="800" xlink:href="#SimHei-93"/>
      </g>
     </g>
    </g>
    <g id="xtick_17">
     <g id="text_29">
      <!-- (5210.88, 6079.36] -->
      <g style="fill:#262626;" transform="translate(1097.2875 1113.95)scale(0.15 -0.15)">
       <use xlink:href="#SimHei-40"/>
       <use x="50" xlink:href="#SimHei-53"/>
       <use x="100" xlink:href="#SimHei-50"/>
       <use x="150" xlink:href="#SimHei-49"/>
       <use x="200" xlink:href="#SimHei-48"/>
       <use x="250" xlink:href="#SimHei-46"/>
       <use x="300" xlink:href="#SimHei-56"/>
       <use x="350" xlink:href="#SimHei-56"/>
       <use x="400" xlink:href="#SimHei-44"/>
       <use x="450" xlink:href="#SimHei-32"/>
       <use x="500" xlink:href="#SimHei-54"/>
       <use x="550" xlink:href="#SimHei-48"/>
       <use x="600" xlink:href="#SimHei-55"/>
       <use x="650" xlink:href="#SimHei-57"/>
       <use x="700" xlink:href="#SimHei-46"/>
       <use x="750" xlink:href="#SimHei-51"/>
       <use x="800" xlink:href="#SimHei-54"/>
       <use x="850" xlink:href="#SimHei-93"/>
      </g>
     </g>
    </g>
    <g id="xtick_18">
     <g id="text_30">
      <!-- (6079.36, 6947.84] -->
      <g style="fill:#262626;" transform="translate(1264.6875 1113.95)scale(0.15 -0.15)">
       <use xlink:href="#SimHei-40"/>
       <use x="50" xlink:href="#SimHei-54"/>
       <use x="100" xlink:href="#SimHei-48"/>
       <use x="150" xlink:href="#SimHei-55"/>
       <use x="200" xlink:href="#SimHei-57"/>
       <use x="250" xlink:href="#SimHei-46"/>
       <use x="300" xlink:href="#SimHei-51"/>
       <use x="350" xlink:href="#SimHei-54"/>
       <use x="400" xlink:href="#SimHei-44"/>
       <use x="450" xlink:href="#SimHei-32"/>
       <use x="500" xlink:href="#SimHei-54"/>
       <use x="550" xlink:href="#SimHei-57"/>
       <use x="600" xlink:href="#SimHei-52"/>
       <use x="650" xlink:href="#SimHei-55"/>
       <use x="700" xlink:href="#SimHei-46"/>
       <use x="750" xlink:href="#SimHei-56"/>
       <use x="800" xlink:href="#SimHei-52"/>
       <use x="850" xlink:href="#SimHei-93"/>
      </g>
     </g>
    </g>
    <g id="xtick_19">
     <g id="text_31">
      <!-- (6947.84, 7816.32] -->
      <g style="fill:#262626;" transform="translate(1432.0875 1113.95)scale(0.15 -0.15)">
       <use xlink:href="#SimHei-40"/>
       <use x="50" xlink:href="#SimHei-54"/>
       <use x="100" xlink:href="#SimHei-57"/>
       <use x="150" xlink:href="#SimHei-52"/>
       <use x="200" xlink:href="#SimHei-55"/>
       <use x="250" xlink:href="#SimHei-46"/>
       <use x="300" xlink:href="#SimHei-56"/>
       <use x="350" xlink:href="#SimHei-52"/>
       <use x="400" xlink:href="#SimHei-44"/>
       <use x="450" xlink:href="#SimHei-32"/>
       <use x="500" xlink:href="#SimHei-55"/>
       <use x="550" xlink:href="#SimHei-56"/>
       <use x="600" xlink:href="#SimHei-49"/>
       <use x="650" xlink:href="#SimHei-54"/>
       <use x="700" xlink:href="#SimHei-46"/>
       <use x="750" xlink:href="#SimHei-51"/>
       <use x="800" xlink:href="#SimHei-50"/>
       <use x="850" xlink:href="#SimHei-93"/>
      </g>
     </g>
    </g>
    <g id="xtick_20">
     <g id="text_32">
      <!-- (7816.32, 8684.8] -->
      <g style="fill:#262626;" transform="translate(1603.2375 1113.95)scale(0.15 -0.15)">
       <use xlink:href="#SimHei-40"/>
       <use x="50" xlink:href="#SimHei-55"/>
       <use x="100" xlink:href="#SimHei-56"/>
       <use x="150" xlink:href="#SimHei-49"/>
       <use x="200" xlink:href="#SimHei-54"/>
       <use x="250" xlink:href="#SimHei-46"/>
       <use x="300" xlink:href="#SimHei-51"/>
       <use x="350" xlink:href="#SimHei-50"/>
       <use x="400" xlink:href="#SimHei-44"/>
       <use x="450" xlink:href="#SimHei-32"/>
       <use x="500" xlink:href="#SimHei-56"/>
       <use x="550" xlink:href="#SimHei-54"/>
       <use x="600" xlink:href="#SimHei-56"/>
       <use x="650" xlink:href="#SimHei-52"/>
       <use x="700" xlink:href="#SimHei-46"/>
       <use x="750" xlink:href="#SimHei-56"/>
       <use x="800" xlink:href="#SimHei-93"/>
      </g>
     </g>
    </g>
    <g id="text_33">
     <!-- 累计费用 -->
     <defs>
      <path d="M 85.546875 78.125 
Q 85.15625 71.875 85.15625 62.109375 
Q 85.15625 52.34375 85.546875 46.09375 
L 73.046875 46.09375 
Q 75.78125 43.359375 79.296875 40.625 
Q 75 39.453125 66.203125 35.546875 
Q 57.421875 31.640625 50.96875 28.703125 
Q 44.53125 25.78125 37.5 22.265625 
Q 60.15625 23.828125 72.65625 24.609375 
Q 69.140625 26.953125 65.625 28.90625 
Q 68.359375 31.25 70.3125 33.984375 
Q 80.078125 28.125 92.1875 20.3125 
Q 89.84375 17.578125 87.109375 14.0625 
Q 83.984375 16.796875 79.6875 19.53125 
Q 66.40625 18.359375 54.296875 17.578125 
L 54.296875 0.78125 
Q 54.296875 -5.46875 50.1875 -7.21875 
Q 46.09375 -8.984375 40.625 -9.375 
Q 40.234375 -5.859375 37.109375 -0.78125 
Q 43.75 -1.171875 45.3125 -0.390625 
Q 46.875 0.390625 46.875 1.953125 
L 46.875 16.796875 
Q 37.5 16.40625 31.046875 15.8125 
Q 24.609375 15.234375 13.28125 13.671875 
Q 12.109375 17.578125 10.9375 21.09375 
Q 17.96875 21.875 24.609375 23.625 
Q 31.25 25.390625 47.265625 33.203125 
Q 27.734375 31.640625 19.53125 30.078125 
Q 18.75 34.375 17.1875 37.109375 
Q 20.703125 37.109375 27.140625 39.640625 
Q 33.59375 42.1875 38.671875 46.09375 
L 14.84375 46.09375 
Q 15.234375 52.734375 15.234375 62.109375 
Q 15.234375 71.875 14.84375 78.125 
L 85.546875 78.125 
z
M 37.890625 8.203125 
Q 34.375 6.25 27.53125 2.140625 
Q 20.703125 -1.953125 13.28125 -6.640625 
Q 10.9375 -3.515625 7.8125 -0.390625 
Q 13.28125 1.953125 19.53125 5.65625 
Q 25.78125 9.375 31.640625 14.0625 
Q 33.59375 11.328125 37.890625 8.203125 
z
M 46.484375 64.0625 
L 46.484375 72.65625 
L 22.65625 72.65625 
L 22.65625 64.0625 
z
M 77.734375 64.0625 
L 77.734375 72.65625 
L 53.90625 72.65625 
L 53.90625 64.0625 
z
M 66.796875 13.28125 
Q 74.21875 10.15625 78.90625 7.8125 
L 91.40625 1.5625 
Q 88.671875 -1.953125 87.109375 -5.859375 
Q 80.46875 -1.5625 74.609375 1.5625 
Q 68.75 4.6875 63.28125 7.03125 
Q 65.625 10.546875 66.796875 13.28125 
z
M 46.484375 51.171875 
L 46.484375 58.59375 
L 22.65625 58.59375 
L 22.65625 51.171875 
z
M 77.734375 51.171875 
L 77.734375 58.59375 
L 53.90625 58.59375 
L 53.90625 51.171875 
z
M 57.8125 38.671875 
Q 65.625 42.1875 71.484375 46.09375 
L 50.390625 46.09375 
Q 45.3125 42.96875 35.9375 37.890625 
Q 48.046875 38.28125 57.8125 38.671875 
z
" id="SimHei-32047"/>
      <path d="M 61.328125 48.4375 
L 61.328125 67.96875 
Q 61.328125 75.78125 60.9375 80.078125 
L 69.140625 80.078125 
Q 68.75 75 68.75 71.09375 
L 68.75 48.4375 
L 84.765625 48.4375 
Q 89.453125 48.4375 94.921875 48.828125 
L 94.921875 41.40625 
Q 89.0625 41.796875 85.15625 41.796875 
L 68.75 41.796875 
L 68.75 2.734375 
Q 68.75 -1.953125 69.140625 -8.59375 
L 60.9375 -8.59375 
Q 61.328125 -1.953125 61.328125 2.34375 
L 61.328125 41.796875 
L 46.09375 41.796875 
Q 40.234375 41.796875 34.375 41.40625 
L 34.375 48.828125 
Q 40.234375 48.4375 45.3125 48.4375 
z
M 27.734375 49.21875 
Q 27.34375 41.796875 27.34375 33.59375 
L 27.34375 9.765625 
Q 33.984375 16.40625 37.890625 21.875 
Q 40.234375 18.75 43.359375 15.625 
L 32.421875 4.6875 
Q 27.34375 -0.390625 22.65625 -5.46875 
Q 19.921875 -1.953125 17.578125 0.78125 
Q 20.3125 3.90625 19.921875 10.15625 
L 19.921875 42.578125 
Q 9.375 42.578125 4.296875 42.1875 
L 4.296875 49.609375 
Q 10.546875 49.21875 12.890625 49.21875 
z
M 17.96875 78.90625 
Q 23.046875 73.828125 33.984375 62.5 
Q 30.46875 59.375 27.34375 56.640625 
Q 22.265625 64.0625 12.109375 74.21875 
Q 14.84375 76.171875 17.96875 78.90625 
z
" id="SimHei-35745"/>
     </defs>
     <g style="fill:#262626;" transform="translate(883.6875 1131.660938)scale(0.15 -0.15)">
      <use xlink:href="#SimHei-32047"/>
      <use x="100" xlink:href="#SimHei-35745"/>
      <use x="200" xlink:href="#SimHei-36153"/>
      <use x="300" xlink:href="#SimHei-29992"/>
     </g>
    </g>
   </g>
   <g id="matplotlib.axis_4">
    <g id="ytick_9">
     <g id="line2d_9">
      <path clip-path="url(#p52d2152a26)" d="M 76.6875 1094.4 
L 1750.6875 1094.4 
" style="fill:none;stroke:#cccccc;stroke-linecap:round;stroke-width:0.8;"/>
     </g>
     <g id="text_34">
      <!-- 0.0 -->
      <g style="fill:#262626;" transform="translate(45.8875 1099.55625)scale(0.15 -0.15)">
       <use xlink:href="#SimHei-48"/>
       <use x="50" xlink:href="#SimHei-46"/>
       <use x="100" xlink:href="#SimHei-48"/>
      </g>
     </g>
    </g>
    <g id="ytick_10">
     <g id="line2d_10">
      <path clip-path="url(#p52d2152a26)" d="M 76.6875 1038.47019 
L 1750.6875 1038.47019 
" style="fill:none;stroke:#cccccc;stroke-linecap:round;stroke-width:0.8;"/>
     </g>
     <g id="text_35">
      <!-- 200.0 -->
      <g style="fill:#262626;" transform="translate(30.8875 1043.62644)scale(0.15 -0.15)">
       <use xlink:href="#SimHei-50"/>
       <use x="50" xlink:href="#SimHei-48"/>
       <use x="100" xlink:href="#SimHei-48"/>
       <use x="150" xlink:href="#SimHei-46"/>
       <use x="200" xlink:href="#SimHei-48"/>
      </g>
     </g>
    </g>
    <g id="ytick_11">
     <g id="line2d_11">
      <path clip-path="url(#p52d2152a26)" d="M 76.6875 982.54038 
L 1750.6875 982.54038 
" style="fill:none;stroke:#cccccc;stroke-linecap:round;stroke-width:0.8;"/>
     </g>
     <g id="text_36">
      <!-- 400.0 -->
      <g style="fill:#262626;" transform="translate(30.8875 987.69663)scale(0.15 -0.15)">
       <use xlink:href="#SimHei-52"/>
       <use x="50" xlink:href="#SimHei-48"/>
       <use x="100" xlink:href="#SimHei-48"/>
       <use x="150" xlink:href="#SimHei-46"/>
       <use x="200" xlink:href="#SimHei-48"/>
      </g>
     </g>
    </g>
    <g id="ytick_12">
     <g id="line2d_12">
      <path clip-path="url(#p52d2152a26)" d="M 76.6875 926.61057 
L 1750.6875 926.61057 
" style="fill:none;stroke:#cccccc;stroke-linecap:round;stroke-width:0.8;"/>
     </g>
     <g id="text_37">
      <!-- 600.0 -->
      <g style="fill:#262626;" transform="translate(30.8875 931.76682)scale(0.15 -0.15)">
       <use xlink:href="#SimHei-54"/>
       <use x="50" xlink:href="#SimHei-48"/>
       <use x="100" xlink:href="#SimHei-48"/>
       <use x="150" xlink:href="#SimHei-46"/>
       <use x="200" xlink:href="#SimHei-48"/>
      </g>
     </g>
    </g>
    <g id="ytick_13">
     <g id="line2d_13">
      <path clip-path="url(#p52d2152a26)" d="M 76.6875 870.68076 
L 1750.6875 870.68076 
" style="fill:none;stroke:#cccccc;stroke-linecap:round;stroke-width:0.8;"/>
     </g>
     <g id="text_38">
      <!-- 800.0 -->
      <g style="fill:#262626;" transform="translate(30.8875 875.83701)scale(0.15 -0.15)">
       <use xlink:href="#SimHei-56"/>
       <use x="50" xlink:href="#SimHei-48"/>
       <use x="100" xlink:href="#SimHei-48"/>
       <use x="150" xlink:href="#SimHei-46"/>
       <use x="200" xlink:href="#SimHei-48"/>
      </g>
     </g>
    </g>
    <g id="ytick_14">
     <g id="line2d_14">
      <path clip-path="url(#p52d2152a26)" d="M 76.6875 814.75095 
L 1750.6875 814.75095 
" style="fill:none;stroke:#cccccc;stroke-linecap:round;stroke-width:0.8;"/>
     </g>
     <g id="text_39">
      <!-- 1000.0 -->
      <g style="fill:#262626;" transform="translate(23.3875 819.9072)scale(0.15 -0.15)">
       <use xlink:href="#SimHei-49"/>
       <use x="50" xlink:href="#SimHei-48"/>
       <use x="100" xlink:href="#SimHei-48"/>
       <use x="150" xlink:href="#SimHei-48"/>
       <use x="200" xlink:href="#SimHei-46"/>
       <use x="250" xlink:href="#SimHei-48"/>
      </g>
     </g>
    </g>
    <g id="ytick_15">
     <g id="line2d_15">
      <path clip-path="url(#p52d2152a26)" d="M 76.6875 758.82114 
L 1750.6875 758.82114 
" style="fill:none;stroke:#cccccc;stroke-linecap:round;stroke-width:0.8;"/>
     </g>
     <g id="text_40">
      <!-- 1200.0 -->
      <g style="fill:#262626;" transform="translate(23.3875 763.97739)scale(0.15 -0.15)">
       <use xlink:href="#SimHei-49"/>
       <use x="50" xlink:href="#SimHei-50"/>
       <use x="100" xlink:href="#SimHei-48"/>
       <use x="150" xlink:href="#SimHei-48"/>
       <use x="200" xlink:href="#SimHei-46"/>
       <use x="250" xlink:href="#SimHei-48"/>
      </g>
     </g>
    </g>
    <g id="ytick_16">
     <g id="line2d_16">
      <path clip-path="url(#p52d2152a26)" d="M 76.6875 702.89133 
L 1750.6875 702.89133 
" style="fill:none;stroke:#cccccc;stroke-linecap:round;stroke-width:0.8;"/>
     </g>
     <g id="text_41">
      <!-- 1400.0 -->
      <g style="fill:#262626;" transform="translate(23.3875 708.04758)scale(0.15 -0.15)">
       <use xlink:href="#SimHei-49"/>
       <use x="50" xlink:href="#SimHei-52"/>
       <use x="100" xlink:href="#SimHei-48"/>
       <use x="150" xlink:href="#SimHei-48"/>
       <use x="200" xlink:href="#SimHei-46"/>
       <use x="250" xlink:href="#SimHei-48"/>
      </g>
     </g>
    </g>
    <g id="ytick_17">
     <g id="line2d_17">
      <path clip-path="url(#p52d2152a26)" d="M 76.6875 646.96152 
L 1750.6875 646.96152 
" style="fill:none;stroke:#cccccc;stroke-linecap:round;stroke-width:0.8;"/>
     </g>
     <g id="text_42">
      <!-- 1600.0 -->
      <g style="fill:#262626;" transform="translate(23.3875 652.11777)scale(0.15 -0.15)">
       <use xlink:href="#SimHei-49"/>
       <use x="50" xlink:href="#SimHei-54"/>
       <use x="100" xlink:href="#SimHei-48"/>
       <use x="150" xlink:href="#SimHei-48"/>
       <use x="200" xlink:href="#SimHei-46"/>
       <use x="250" xlink:href="#SimHei-48"/>
      </g>
     </g>
    </g>
    <g id="text_43">
     <!-- count -->
     <g style="fill:#262626;" transform="translate(17.5125 866.059091)rotate(-90)scale(0.15 -0.15)">
      <use xlink:href="#SimHei-99"/>
      <use x="50" xlink:href="#SimHei-111"/>
      <use x="100" xlink:href="#SimHei-117"/>
      <use x="150" xlink:href="#SimHei-110"/>
      <use x="200" xlink:href="#SimHei-116"/>
     </g>
    </g>
   </g>
   <g id="patch_31">
    <path clip-path="url(#p52d2152a26)" d="M 93.4275 1094.4 
L 160.3875 1094.4 
L 160.3875 623.750649 
L 93.4275 623.750649 
z
" style="fill:#36839d;stroke:#ffffff;stroke-linejoin:miter;stroke-width:0.8;"/>
   </g>
   <g id="patch_32">
    <path clip-path="url(#p52d2152a26)" d="M 260.8275 1094.4 
L 327.7875 1094.4 
L 327.7875 827.335158 
L 260.8275 827.335158 
z
" style="fill:#36839d;stroke:#ffffff;stroke-linejoin:miter;stroke-width:0.8;"/>
   </g>
   <g id="patch_33">
    <path clip-path="url(#p52d2152a26)" d="M 428.2275 1094.4 
L 495.1875 1094.4 
L 495.1875 950.660388 
L 428.2275 950.660388 
z
" style="fill:#36839d;stroke:#ffffff;stroke-linejoin:miter;stroke-width:0.8;"/>
   </g>
   <g id="patch_34">
    <path clip-path="url(#p52d2152a26)" d="M 595.6275 1094.4 
L 662.5875 1094.4 
L 662.5875 987.574063 
L 595.6275 987.574063 
z
" style="fill:#36839d;stroke:#ffffff;stroke-linejoin:miter;stroke-width:0.8;"/>
   </g>
   <g id="patch_35">
    <path clip-path="url(#p52d2152a26)" d="M 763.0275 1094.4 
L 829.9875 1094.4 
L 829.9875 986.455467 
L 763.0275 986.455467 
z
" style="fill:#36839d;stroke:#ffffff;stroke-linejoin:miter;stroke-width:0.8;"/>
   </g>
   <g id="patch_36">
    <path clip-path="url(#p52d2152a26)" d="M 930.4275 1094.4 
L 997.3875 1094.4 
L 997.3875 998.760025 
L 930.4275 998.760025 
z
" style="fill:#36839d;stroke:#ffffff;stroke-linejoin:miter;stroke-width:0.8;"/>
   </g>
   <g id="patch_37">
    <path clip-path="url(#p52d2152a26)" d="M 1097.8275 1094.4 
L 1164.7875 1094.4 
L 1164.7875 999.878621 
L 1097.8275 999.878621 
z
" style="fill:#36839d;stroke:#ffffff;stroke-linejoin:miter;stroke-width:0.8;"/>
   </g>
   <g id="patch_38">
    <path clip-path="url(#p52d2152a26)" d="M 1265.2275 1094.4 
L 1332.1875 1094.4 
L 1332.1875 1020.293002 
L 1265.2275 1020.293002 
z
" style="fill:#36839d;stroke:#ffffff;stroke-linejoin:miter;stroke-width:0.8;"/>
   </g>
   <g id="patch_39">
    <path clip-path="url(#p52d2152a26)" d="M 1432.6275 1094.4 
L 1499.5875 1094.4 
L 1499.5875 1040.707382 
L 1432.6275 1040.707382 
z
" style="fill:#36839d;stroke:#ffffff;stroke-linejoin:miter;stroke-width:0.8;"/>
   </g>
   <g id="patch_40">
    <path clip-path="url(#p52d2152a26)" d="M 1600.0275 1094.4 
L 1666.9875 1094.4 
L 1666.9875 1061.681061 
L 1600.0275 1061.681061 
z
" style="fill:#36839d;stroke:#ffffff;stroke-linejoin:miter;stroke-width:0.8;"/>
   </g>
   <g id="patch_41">
    <path clip-path="url(#p52d2152a26)" d="M 160.3875 1094.4 
L 227.3475 1094.4 
L 227.3475 809.717267 
L 160.3875 809.717267 
z
" style="fill:#b9c5d9;stroke:#ffffff;stroke-linejoin:miter;stroke-width:0.8;"/>
   </g>
   <g id="patch_42">
    <path clip-path="url(#p52d2152a26)" d="M 327.7875 1094.4 
L 394.7475 1094.4 
L 394.7475 1018.335458 
L 327.7875 1018.335458 
z
" style="fill:#b9c5d9;stroke:#ffffff;stroke-linejoin:miter;stroke-width:0.8;"/>
   </g>
   <g id="patch_43">
    <path clip-path="url(#p52d2152a26)" d="M 495.1875 1094.4 
L 562.1475 1094.4 
L 562.1475 1046.580013 
L 495.1875 1046.580013 
z
" style="fill:#b9c5d9;stroke:#ffffff;stroke-linejoin:miter;stroke-width:0.8;"/>
   </g>
   <g id="patch_44">
    <path clip-path="url(#p52d2152a26)" d="M 662.5875 1094.4 
L 729.5475 1094.4 
L 729.5475 1060.562465 
L 662.5875 1060.562465 
z
" style="fill:#b9c5d9;stroke:#ffffff;stroke-linejoin:miter;stroke-width:0.8;"/>
   </g>
   <g id="patch_45">
    <path clip-path="url(#p52d2152a26)" d="M 829.9875 1094.4 
L 896.9475 1094.4 
L 896.9475 1073.70597 
L 829.9875 1073.70597 
z
" style="fill:#b9c5d9;stroke:#ffffff;stroke-linejoin:miter;stroke-width:0.8;"/>
   </g>
   <g id="patch_46">
    <path clip-path="url(#p52d2152a26)" d="M 997.3875 1094.4 
L 1064.3475 1094.4 
L 1064.3475 1074.265268 
L 997.3875 1074.265268 
z
" style="fill:#b9c5d9;stroke:#ffffff;stroke-linejoin:miter;stroke-width:0.8;"/>
   </g>
   <g id="patch_47">
    <path clip-path="url(#p52d2152a26)" d="M 1164.7875 1094.4 
L 1231.7475 1094.4 
L 1231.7475 1078.180355 
L 1164.7875 1078.180355 
z
" style="fill:#b9c5d9;stroke:#ffffff;stroke-linejoin:miter;stroke-width:0.8;"/>
   </g>
   <g id="patch_48">
    <path clip-path="url(#p52d2152a26)" d="M 1332.1875 1094.4 
L 1399.1475 1094.4 
L 1399.1475 1081.536144 
L 1332.1875 1081.536144 
z
" style="fill:#b9c5d9;stroke:#ffffff;stroke-linejoin:miter;stroke-width:0.8;"/>
   </g>
   <g id="patch_49">
    <path clip-path="url(#p52d2152a26)" d="M 1499.5875 1094.4 
L 1566.5475 1094.4 
L 1566.5475 1085.45123 
L 1499.5875 1085.45123 
z
" style="fill:#b9c5d9;stroke:#ffffff;stroke-linejoin:miter;stroke-width:0.8;"/>
   </g>
   <g id="patch_50">
    <path clip-path="url(#p52d2152a26)" d="M 1666.9875 1094.4 
L 1733.9475 1094.4 
L 1733.9475 1093.001755 
L 1666.9875 1093.001755 
z
" style="fill:#b9c5d9;stroke:#ffffff;stroke-linejoin:miter;stroke-width:0.8;"/>
   </g>
   <g id="patch_51">
    <path d="M 76.6875 1094.4 
L 76.6875 600.218182 
" style="fill:none;stroke:#cccccc;stroke-linecap:square;stroke-linejoin:miter;"/>
   </g>
   <g id="patch_52">
    <path d="M 1750.6875 1094.4 
L 1750.6875 600.218182 
" style="fill:none;stroke:#cccccc;stroke-linecap:square;stroke-linejoin:miter;"/>
   </g>
   <g id="patch_53">
    <path d="M 76.6875 1094.4 
L 1750.6875 1094.4 
" style="fill:none;stroke:#cccccc;stroke-linecap:square;stroke-linejoin:miter;"/>
   </g>
   <g id="patch_54">
    <path d="M 76.6875 600.218182 
L 1750.6875 600.218182 
" style="fill:none;stroke:#cccccc;stroke-linecap:square;stroke-linejoin:miter;"/>
   </g>
   <g id="legend_2">
    <g id="patch_55">
     <path d="M 1669.6875 651.968182 
L 1740.1875 651.968182 
Q 1743.1875 651.968182 1743.1875 648.968182 
L 1743.1875 610.718182 
Q 1743.1875 607.718182 1740.1875 607.718182 
L 1669.6875 607.718182 
Q 1666.6875 607.718182 1666.6875 610.718182 
L 1666.6875 648.968182 
Q 1666.6875 651.968182 1669.6875 651.968182 
z
" style="fill:#ffffff;opacity:0.8;stroke:#cccccc;stroke-linejoin:miter;stroke-width:0.8;"/>
    </g>
    <g id="patch_56">
     <path d="M 1672.6875 624.218182 
L 1702.6875 624.218182 
L 1702.6875 613.718182 
L 1672.6875 613.718182 
z
" style="fill:#36839d;stroke:#ffffff;stroke-linejoin:miter;stroke-width:0.8;"/>
    </g>
    <g id="text_44">
     <!-- No -->
     <g style="fill:#262626;" transform="translate(1714.6875 624.218182)scale(0.15 -0.15)">
      <use xlink:href="#SimHei-78"/>
      <use x="50" xlink:href="#SimHei-111"/>
     </g>
    </g>
    <g id="patch_57">
     <path d="M 1672.6875 644.093182 
L 1702.6875 644.093182 
L 1702.6875 633.593182 
L 1672.6875 633.593182 
z
" style="fill:#b9c5d9;stroke:#ffffff;stroke-linejoin:miter;stroke-width:0.8;"/>
    </g>
    <g id="text_45">
     <!-- Yes -->
     <g style="fill:#262626;" transform="translate(1714.6875 644.093182)scale(0.15 -0.15)">
      <use xlink:href="#SimHei-89"/>
      <use x="50" xlink:href="#SimHei-101"/>
      <use x="100" xlink:href="#SimHei-115"/>
     </g>
    </g>
   </g>
  </g>
 </g>
 <defs>
  <clipPath id="p097bb5677a">
   <rect height="494.181818" width="1674" x="76.6875" y="7.2"/>
  </clipPath>
  <clipPath id="p52d2152a26">
   <rect height="494.181818" width="1674" x="76.6875" y="600.218182"/>
  </clipPath>
 </defs>
</svg>
