<?xml version="1.0" encoding="utf-8" standalone="no"?>
<!DOCTYPE svg PUBLIC "-//W3C//DTD SVG 1.1//EN"
  "http://www.w3.org/Graphics/SVG/1.1/DTD/svg11.dtd">
<!-- Created with matplotlib (https://matplotlib.org/) -->
<svg height="642.125pt" version="1.1" viewBox="0 0 873.4 642.125" width="873.4pt" xmlns="http://www.w3.org/2000/svg" xmlns:xlink="http://www.w3.org/1999/xlink">
 <defs>
  <style type="text/css">
*{stroke-linecap:butt;stroke-linejoin:round;}
  </style>
 </defs>
 <g id="figure_1">
  <g id="patch_1">
   <path d="M 0 642.125 
L 873.4 642.125 
L 873.4 0 
L 0 0 
z
" style="fill:#ffffff;"/>
  </g>
  <g id="axes_1">
   <g id="patch_2">
    <path d="M 29.2 158.1 
L 866.2 158.1 
L 866.2 22.2 
L 29.2 22.2 
z
" style="fill:#eaeaf2;"/>
   </g>
   <g id="matplotlib.axis_1">
    <g id="xtick_1">
     <g id="line2d_1">
      <path clip-path="url(#pe0d3cb38e4)" d="M 67.245455 158.1 
L 67.245455 22.2 
" style="fill:none;stroke:#ffffff;stroke-linecap:round;stroke-width:0.8;"/>
     </g>
     <g id="text_1">
      <!-- 2017-11-24 -->
      <defs>
       <path d="M 4.6875 3.90625 
Q 5.078125 9.765625 10.15625 14.453125 
Q 15.234375 19.140625 23.046875 29.09375 
Q 30.859375 39.0625 33.203125 44.53125 
Q 35.546875 50 34.953125 53.90625 
Q 34.375 57.8125 31.25 60.34375 
Q 28.125 62.890625 24.015625 62.5 
Q 19.921875 62.109375 16.203125 59.375 
Q 12.5 56.640625 10.546875 51.171875 
L 3.125 52.34375 
Q 6.25 61.328125 11.125 65.421875 
Q 16.015625 69.53125 22.65625 69.921875 
Q 26.5625 70.3125 29.6875 69.71875 
Q 32.8125 69.140625 36.125 66.984375 
Q 39.453125 64.84375 41.59375 60.546875 
Q 43.75 56.25 43.15625 50.1875 
Q 42.578125 44.140625 37.109375 35.734375 
Q 31.640625 27.34375 16.015625 9.375 
L 44.140625 9.375 
L 44.140625 2.34375 
L 4.6875 2.34375 
z
" id="SimHei-50"/>
       <path d="M 3.125 29.296875 
Q 3.90625 50 6.4375 56.046875 
Q 8.984375 62.109375 13.671875 66.015625 
Q 18.359375 69.921875 25.1875 69.921875 
Q 32.03125 69.921875 37.109375 64.25 
Q 42.1875 58.59375 43.75 50 
Q 45.3125 41.40625 44.71875 30.265625 
Q 44.140625 19.140625 40.8125 12.109375 
Q 37.5 5.078125 30.859375 2.34375 
Q 24.21875 -0.390625 17.578125 2.921875 
Q 10.9375 6.25 8.203125 11.71875 
Q 5.46875 17.1875 4.296875 23.234375 
Q 3.125 29.296875 3.90625 50 
z
M 12.890625 52.734375 
Q 10.546875 31.25 12.5 22.84375 
Q 14.453125 14.453125 18.9375 10.9375 
Q 23.4375 7.421875 28.125 9.5625 
Q 32.8125 11.71875 34.953125 18.15625 
Q 37.109375 24.609375 37.109375 32.21875 
Q 37.109375 39.84375 36.515625 46.09375 
Q 35.9375 52.34375 33 57.421875 
Q 30.078125 62.5 25.1875 62.6875 
Q 20.3125 62.890625 16.59375 57.8125 
Q 12.890625 52.734375 10.546875 31.25 
z
" id="SimHei-48"/>
       <path d="M 21.875 56.25 
Q 16.796875 51.171875 8.984375 46.484375 
L 8.984375 53.90625 
Q 18.75 60.546875 25 69.53125 
L 29.6875 69.53125 
L 29.6875 2.34375 
L 21.875 2.34375 
z
" id="SimHei-49"/>
       <path d="M 13.28125 2.34375 
Q 20.3125 32.03125 37.890625 61.328125 
L 4.296875 61.328125 
L 4.296875 68.359375 
L 46.09375 68.359375 
L 46.09375 61.71875 
Q 27.734375 32.03125 21.875 2.34375 
L 13.28125 2.34375 
z
" id="SimHei-55"/>
       <path d="M 46.484375 33.203125 
L 1.953125 33.203125 
L 1.953125 39.453125 
L 46.484375 39.453125 
z
" id="SimHei-45"/>
       <path d="M 31.25 17.1875 
L 1.171875 17.1875 
L 1.171875 23.828125 
L 32.8125 69.53125 
L 38.671875 69.53125 
L 38.671875 23.828125 
L 48.046875 23.828125 
L 48.046875 17.1875 
L 38.671875 17.1875 
L 38.671875 2.34375 
L 31.25 2.34375 
z
M 31.25 23.828125 
L 31.25 54.6875 
L 9.375 23.828125 
z
" id="SimHei-52"/>
      </defs>
      <g style="fill:#262626;" transform="translate(42.245455 171.975)scale(0.1 -0.1)">
       <use xlink:href="#SimHei-50"/>
       <use x="50" xlink:href="#SimHei-48"/>
       <use x="100" xlink:href="#SimHei-49"/>
       <use x="150" xlink:href="#SimHei-55"/>
       <use x="200" xlink:href="#SimHei-45"/>
       <use x="250" xlink:href="#SimHei-49"/>
       <use x="300" xlink:href="#SimHei-49"/>
       <use x="350" xlink:href="#SimHei-45"/>
       <use x="400" xlink:href="#SimHei-50"/>
       <use x="450" xlink:href="#SimHei-52"/>
      </g>
     </g>
    </g>
    <g id="xtick_2">
     <g id="line2d_2">
      <path clip-path="url(#pe0d3cb38e4)" d="M 151.790909 158.1 
L 151.790909 22.2 
" style="fill:none;stroke:#ffffff;stroke-linecap:round;stroke-width:0.8;"/>
     </g>
     <g id="text_2">
      <!-- 2017-11-25 -->
      <defs>
       <path d="M 8.59375 20.703125 
Q 11.328125 10.15625 17.96875 8.984375 
Q 24.609375 7.8125 28.703125 10.34375 
Q 32.8125 12.890625 34.5625 16.984375 
Q 36.328125 21.09375 36.125 26.171875 
Q 35.9375 31.25 33.390625 34.765625 
Q 30.859375 38.28125 26.953125 39.453125 
Q 23.046875 40.625 18.15625 39.453125 
Q 13.28125 38.28125 10.15625 33.984375 
L 3.515625 34.765625 
Q 4.296875 37.109375 10.9375 68.359375 
L 41.796875 68.359375 
L 41.796875 61.328125 
L 16.796875 61.328125 
Q 14.84375 50.78125 12.890625 44.53125 
Q 18.75 47.265625 23.828125 47.0625 
Q 28.90625 46.875 33.59375 44.71875 
Q 38.28125 42.578125 40.421875 38.859375 
Q 42.578125 35.15625 43.546875 31.4375 
Q 44.53125 27.734375 44.328125 23.4375 
Q 44.140625 19.140625 42.578125 14.640625 
Q 41.015625 10.15625 37.890625 7.21875 
Q 34.765625 4.296875 30.265625 2.53125 
Q 25.78125 0.78125 19.921875 1.171875 
Q 14.0625 1.5625 8.78125 5.46875 
Q 3.515625 9.375 1.5625 18.75 
z
" id="SimHei-53"/>
      </defs>
      <g style="fill:#262626;" transform="translate(126.790909 171.975)scale(0.1 -0.1)">
       <use xlink:href="#SimHei-50"/>
       <use x="50" xlink:href="#SimHei-48"/>
       <use x="100" xlink:href="#SimHei-49"/>
       <use x="150" xlink:href="#SimHei-55"/>
       <use x="200" xlink:href="#SimHei-45"/>
       <use x="250" xlink:href="#SimHei-49"/>
       <use x="300" xlink:href="#SimHei-49"/>
       <use x="350" xlink:href="#SimHei-45"/>
       <use x="400" xlink:href="#SimHei-50"/>
       <use x="450" xlink:href="#SimHei-53"/>
      </g>
     </g>
    </g>
    <g id="xtick_3">
     <g id="line2d_3">
      <path clip-path="url(#pe0d3cb38e4)" d="M 236.336364 158.1 
L 236.336364 22.2 
" style="fill:none;stroke:#ffffff;stroke-linecap:round;stroke-width:0.8;"/>
     </g>
     <g id="text_3">
      <!-- 2017-11-26 -->
      <defs>
       <path d="M 3.515625 19.53125 
Q 4.296875 30.859375 6.046875 34.765625 
Q 7.8125 38.671875 11.328125 44.53125 
L 27.34375 69.53125 
L 36.328125 69.53125 
L 19.921875 43.75 
Q 30.46875 46.484375 36.71875 42.96875 
Q 42.96875 39.453125 45.109375 34.953125 
Q 47.265625 30.46875 47.453125 25.1875 
Q 47.65625 19.921875 45.890625 14.84375 
Q 44.140625 9.765625 39.640625 5.65625 
Q 35.15625 1.5625 27.140625 1.171875 
Q 19.140625 0.78125 13.46875 4.09375 
Q 7.8125 7.421875 5.65625 13.46875 
Q 3.515625 19.53125 4.296875 30.859375 
z
M 12.5 16.015625 
Q 19.53125 8.59375 25.390625 8.203125 
Q 31.25 7.8125 35.15625 12.109375 
Q 39.0625 16.40625 39.0625 24.609375 
Q 39.0625 32.8125 34.171875 35.9375 
Q 29.296875 39.0625 23.234375 38.28125 
Q 17.1875 37.5 14.453125 32.421875 
Q 11.71875 27.34375 12.109375 21.671875 
Q 12.5 16.015625 19.53125 8.59375 
z
" id="SimHei-54"/>
      </defs>
      <g style="fill:#262626;" transform="translate(211.336364 171.975)scale(0.1 -0.1)">
       <use xlink:href="#SimHei-50"/>
       <use x="50" xlink:href="#SimHei-48"/>
       <use x="100" xlink:href="#SimHei-49"/>
       <use x="150" xlink:href="#SimHei-55"/>
       <use x="200" xlink:href="#SimHei-45"/>
       <use x="250" xlink:href="#SimHei-49"/>
       <use x="300" xlink:href="#SimHei-49"/>
       <use x="350" xlink:href="#SimHei-45"/>
       <use x="400" xlink:href="#SimHei-50"/>
       <use x="450" xlink:href="#SimHei-54"/>
      </g>
     </g>
    </g>
    <g id="xtick_4">
     <g id="line2d_4">
      <path clip-path="url(#pe0d3cb38e4)" d="M 320.881818 158.1 
L 320.881818 22.2 
" style="fill:none;stroke:#ffffff;stroke-linecap:round;stroke-width:0.8;"/>
     </g>
     <g id="text_4">
      <!-- 2017-11-27 -->
      <g style="fill:#262626;" transform="translate(295.881818 171.975)scale(0.1 -0.1)">
       <use xlink:href="#SimHei-50"/>
       <use x="50" xlink:href="#SimHei-48"/>
       <use x="100" xlink:href="#SimHei-49"/>
       <use x="150" xlink:href="#SimHei-55"/>
       <use x="200" xlink:href="#SimHei-45"/>
       <use x="250" xlink:href="#SimHei-49"/>
       <use x="300" xlink:href="#SimHei-49"/>
       <use x="350" xlink:href="#SimHei-45"/>
       <use x="400" xlink:href="#SimHei-50"/>
       <use x="450" xlink:href="#SimHei-55"/>
      </g>
     </g>
    </g>
    <g id="xtick_5">
     <g id="line2d_5">
      <path clip-path="url(#pe0d3cb38e4)" d="M 405.427273 158.1 
L 405.427273 22.2 
" style="fill:none;stroke:#ffffff;stroke-linecap:round;stroke-width:0.8;"/>
     </g>
     <g id="text_5">
      <!-- 2017-11-28 -->
      <defs>
       <path d="M 2.734375 16.796875 
Q 2.734375 26.171875 5.078125 30.65625 
Q 7.421875 35.15625 12.890625 37.890625 
Q 8.203125 40.625 6.640625 43.9375 
Q 5.078125 47.265625 4.875 51.5625 
Q 4.6875 55.859375 6.046875 58.984375 
Q 7.421875 62.109375 10.15625 64.84375 
Q 12.890625 67.578125 16.203125 68.546875 
Q 19.53125 69.53125 23.4375 69.53125 
Q 27.34375 69.53125 30.46875 68.75 
Q 33.59375 67.96875 37.109375 65.421875 
Q 40.625 62.890625 42.1875 58.203125 
Q 43.75 53.515625 41.984375 47.265625 
Q 40.234375 41.015625 32.8125 37.5 
Q 39.453125 35.546875 42.1875 31.4375 
Q 44.921875 27.34375 44.921875 21.484375 
Q 44.921875 15.625 43.15625 12.109375 
Q 41.40625 8.59375 39.25 6.25 
Q 37.109375 3.90625 33.390625 2.53125 
Q 29.6875 1.171875 24.015625 1.171875 
Q 18.359375 1.171875 14.25 2.53125 
Q 10.15625 3.90625 7.421875 6.640625 
Q 4.6875 9.375 3.703125 13.078125 
Q 2.734375 16.796875 2.734375 26.171875 
z
M 10.9375 26.5625 
Q 10.546875 17.1875 12.296875 13.671875 
Q 14.0625 10.15625 18.75 9.171875 
Q 23.4375 8.203125 28.515625 9.375 
Q 33.59375 10.546875 35.546875 14.84375 
Q 37.5 19.140625 36.90625 23.4375 
Q 36.328125 27.734375 32.03125 30.65625 
Q 27.734375 33.59375 22.65625 33.203125 
Q 17.578125 32.8125 14.25 29.6875 
Q 10.9375 26.5625 10.546875 17.1875 
z
M 12.109375 56.25 
Q 12.109375 48.4375 14.84375 44.921875 
Q 17.578125 41.40625 23.4375 41.40625 
Q 29.296875 41.40625 32.21875 44.921875 
Q 35.15625 48.4375 34.953125 53.3125 
Q 34.765625 58.203125 31.4375 60.546875 
Q 28.125 62.890625 22.453125 62.5 
Q 16.796875 62.109375 14.453125 59.171875 
Q 12.109375 56.25 12.109375 48.4375 
z
" id="SimHei-56"/>
      </defs>
      <g style="fill:#262626;" transform="translate(380.427273 171.975)scale(0.1 -0.1)">
       <use xlink:href="#SimHei-50"/>
       <use x="50" xlink:href="#SimHei-48"/>
       <use x="100" xlink:href="#SimHei-49"/>
       <use x="150" xlink:href="#SimHei-55"/>
       <use x="200" xlink:href="#SimHei-45"/>
       <use x="250" xlink:href="#SimHei-49"/>
       <use x="300" xlink:href="#SimHei-49"/>
       <use x="350" xlink:href="#SimHei-45"/>
       <use x="400" xlink:href="#SimHei-50"/>
       <use x="450" xlink:href="#SimHei-56"/>
      </g>
     </g>
    </g>
    <g id="xtick_6">
     <g id="line2d_6">
      <path clip-path="url(#pe0d3cb38e4)" d="M 489.972727 158.1 
L 489.972727 22.2 
" style="fill:none;stroke:#ffffff;stroke-linecap:round;stroke-width:0.8;"/>
     </g>
     <g id="text_6">
      <!-- 2017-11-29 -->
      <defs>
       <path d="M 12.5 1.171875 
Q 21.09375 15.625 26.5625 27.34375 
Q 16.796875 25.78125 10.34375 29.875 
Q 3.90625 33.984375 2.53125 41.015625 
Q 1.171875 48.046875 2.734375 53.703125 
Q 4.296875 59.375 7.609375 63.078125 
Q 10.9375 66.796875 15.625 68.359375 
Q 20.3125 69.921875 24.015625 69.921875 
Q 27.734375 69.921875 31.640625 68.359375 
Q 35.546875 66.796875 38.671875 63.671875 
Q 41.796875 60.546875 42.96875 57.21875 
Q 44.140625 53.90625 44.140625 48.625 
Q 44.140625 43.359375 40.234375 35.15625 
Q 36.328125 26.953125 21.09375 1.171875 
z
M 9.765625 50 
Q 10.9375 39.84375 14.640625 36.515625 
Q 18.359375 33.203125 22.65625 33.59375 
Q 26.953125 33.984375 29.484375 35.9375 
Q 32.03125 37.890625 34.375 42.578125 
Q 35.9375 48.4375 35.15625 52.53125 
Q 34.375 56.640625 31.046875 59.375 
Q 27.734375 62.109375 23.828125 62.109375 
Q 21.484375 62.5 17.765625 60.9375 
Q 14.0625 59.375 11.90625 54.6875 
Q 9.765625 50 10.9375 39.84375 
z
" id="SimHei-57"/>
      </defs>
      <g style="fill:#262626;" transform="translate(464.972727 171.975)scale(0.1 -0.1)">
       <use xlink:href="#SimHei-50"/>
       <use x="50" xlink:href="#SimHei-48"/>
       <use x="100" xlink:href="#SimHei-49"/>
       <use x="150" xlink:href="#SimHei-55"/>
       <use x="200" xlink:href="#SimHei-45"/>
       <use x="250" xlink:href="#SimHei-49"/>
       <use x="300" xlink:href="#SimHei-49"/>
       <use x="350" xlink:href="#SimHei-45"/>
       <use x="400" xlink:href="#SimHei-50"/>
       <use x="450" xlink:href="#SimHei-57"/>
      </g>
     </g>
    </g>
    <g id="xtick_7">
     <g id="line2d_7">
      <path clip-path="url(#pe0d3cb38e4)" d="M 574.518182 158.1 
L 574.518182 22.2 
" style="fill:none;stroke:#ffffff;stroke-linecap:round;stroke-width:0.8;"/>
     </g>
     <g id="text_7">
      <!-- 2017-11-30 -->
      <defs>
       <path d="M 3.90625 19.140625 
L 10.9375 20.3125 
Q 12.5 15.234375 16.015625 11.90625 
Q 19.53125 8.59375 24.796875 8.78125 
Q 30.078125 8.984375 33.203125 13.078125 
Q 36.328125 17.1875 35.9375 22.453125 
Q 35.546875 27.734375 31.828125 30.65625 
Q 28.125 33.59375 19.921875 34.765625 
L 19.921875 39.84375 
Q 28.125 40.625 31.828125 44.140625 
Q 35.546875 47.65625 35.15625 53.3125 
Q 34.765625 58.984375 30.078125 61.515625 
Q 25.390625 64.0625 20.109375 62.109375 
Q 14.84375 60.15625 11.71875 51.171875 
L 4.6875 52.34375 
Q 7.03125 59.375 11.125 64.0625 
Q 15.234375 68.75 22.265625 69.53125 
Q 29.296875 70.3125 34.5625 67.765625 
Q 39.84375 65.234375 41.984375 59.953125 
Q 44.140625 54.6875 42.578125 48.4375 
Q 41.015625 42.1875 33.59375 37.5 
Q 39.0625 35.15625 41.984375 30.46875 
Q 44.921875 25.78125 43.9375 18.15625 
Q 42.96875 10.546875 37.109375 5.859375 
Q 31.25 1.171875 23.828125 1.359375 
Q 16.40625 1.5625 10.9375 6.046875 
Q 5.46875 10.546875 3.90625 19.140625 
z
" id="SimHei-51"/>
      </defs>
      <g style="fill:#262626;" transform="translate(549.518182 171.975)scale(0.1 -0.1)">
       <use xlink:href="#SimHei-50"/>
       <use x="50" xlink:href="#SimHei-48"/>
       <use x="100" xlink:href="#SimHei-49"/>
       <use x="150" xlink:href="#SimHei-55"/>
       <use x="200" xlink:href="#SimHei-45"/>
       <use x="250" xlink:href="#SimHei-49"/>
       <use x="300" xlink:href="#SimHei-49"/>
       <use x="350" xlink:href="#SimHei-45"/>
       <use x="400" xlink:href="#SimHei-51"/>
       <use x="450" xlink:href="#SimHei-48"/>
      </g>
     </g>
    </g>
    <g id="xtick_8">
     <g id="line2d_8">
      <path clip-path="url(#pe0d3cb38e4)" d="M 659.063636 158.1 
L 659.063636 22.2 
" style="fill:none;stroke:#ffffff;stroke-linecap:round;stroke-width:0.8;"/>
     </g>
     <g id="text_8">
      <!-- 2017-12-01 -->
      <g style="fill:#262626;" transform="translate(634.063636 171.975)scale(0.1 -0.1)">
       <use xlink:href="#SimHei-50"/>
       <use x="50" xlink:href="#SimHei-48"/>
       <use x="100" xlink:href="#SimHei-49"/>
       <use x="150" xlink:href="#SimHei-55"/>
       <use x="200" xlink:href="#SimHei-45"/>
       <use x="250" xlink:href="#SimHei-49"/>
       <use x="300" xlink:href="#SimHei-50"/>
       <use x="350" xlink:href="#SimHei-45"/>
       <use x="400" xlink:href="#SimHei-48"/>
       <use x="450" xlink:href="#SimHei-49"/>
      </g>
     </g>
    </g>
    <g id="xtick_9">
     <g id="line2d_9">
      <path clip-path="url(#pe0d3cb38e4)" d="M 743.609091 158.1 
L 743.609091 22.2 
" style="fill:none;stroke:#ffffff;stroke-linecap:round;stroke-width:0.8;"/>
     </g>
     <g id="text_9">
      <!-- 2017-12-02 -->
      <g style="fill:#262626;" transform="translate(718.609091 171.975)scale(0.1 -0.1)">
       <use xlink:href="#SimHei-50"/>
       <use x="50" xlink:href="#SimHei-48"/>
       <use x="100" xlink:href="#SimHei-49"/>
       <use x="150" xlink:href="#SimHei-55"/>
       <use x="200" xlink:href="#SimHei-45"/>
       <use x="250" xlink:href="#SimHei-49"/>
       <use x="300" xlink:href="#SimHei-50"/>
       <use x="350" xlink:href="#SimHei-45"/>
       <use x="400" xlink:href="#SimHei-48"/>
       <use x="450" xlink:href="#SimHei-50"/>
      </g>
     </g>
    </g>
    <g id="xtick_10">
     <g id="line2d_10">
      <path clip-path="url(#pe0d3cb38e4)" d="M 828.154545 158.1 
L 828.154545 22.2 
" style="fill:none;stroke:#ffffff;stroke-linecap:round;stroke-width:0.8;"/>
     </g>
     <g id="text_10">
      <!-- 2017-12-03 -->
      <g style="fill:#262626;" transform="translate(803.154545 171.975)scale(0.1 -0.1)">
       <use xlink:href="#SimHei-50"/>
       <use x="50" xlink:href="#SimHei-48"/>
       <use x="100" xlink:href="#SimHei-49"/>
       <use x="150" xlink:href="#SimHei-55"/>
       <use x="200" xlink:href="#SimHei-45"/>
       <use x="250" xlink:href="#SimHei-49"/>
       <use x="300" xlink:href="#SimHei-50"/>
       <use x="350" xlink:href="#SimHei-45"/>
       <use x="400" xlink:href="#SimHei-48"/>
       <use x="450" xlink:href="#SimHei-51"/>
      </g>
     </g>
    </g>
   </g>
   <g id="matplotlib.axis_2">
    <g id="ytick_1">
     <g id="line2d_11">
      <path clip-path="url(#pe0d3cb38e4)" d="M 29.2 149.493348 
L 866.2 149.493348 
" style="fill:none;stroke:#ffffff;stroke-linecap:round;stroke-width:0.8;"/>
     </g>
     <g id="text_11">
      <!-- 0.2 -->
      <defs>
       <path d="M 16.796875 1.953125 
L 7.8125 1.953125 
L 7.8125 10.546875 
L 16.796875 10.546875 
z
" id="SimHei-46"/>
      </defs>
      <g style="fill:#262626;" transform="translate(7.2 152.930848)scale(0.1 -0.1)">
       <use xlink:href="#SimHei-48"/>
       <use x="50" xlink:href="#SimHei-46"/>
       <use x="100" xlink:href="#SimHei-50"/>
      </g>
     </g>
    </g>
    <g id="ytick_2">
     <g id="line2d_12">
      <path clip-path="url(#pe0d3cb38e4)" d="M 29.2 116.22257 
L 866.2 116.22257 
" style="fill:none;stroke:#ffffff;stroke-linecap:round;stroke-width:0.8;"/>
     </g>
     <g id="text_12">
      <!-- 0.4 -->
      <g style="fill:#262626;" transform="translate(7.2 119.66007)scale(0.1 -0.1)">
       <use xlink:href="#SimHei-48"/>
       <use x="50" xlink:href="#SimHei-46"/>
       <use x="100" xlink:href="#SimHei-52"/>
      </g>
     </g>
    </g>
    <g id="ytick_3">
     <g id="line2d_13">
      <path clip-path="url(#pe0d3cb38e4)" d="M 29.2 82.951792 
L 866.2 82.951792 
" style="fill:none;stroke:#ffffff;stroke-linecap:round;stroke-width:0.8;"/>
     </g>
     <g id="text_13">
      <!-- 0.6 -->
      <g style="fill:#262626;" transform="translate(7.2 86.389292)scale(0.1 -0.1)">
       <use xlink:href="#SimHei-48"/>
       <use x="50" xlink:href="#SimHei-46"/>
       <use x="100" xlink:href="#SimHei-54"/>
      </g>
     </g>
    </g>
    <g id="ytick_4">
     <g id="line2d_14">
      <path clip-path="url(#pe0d3cb38e4)" d="M 29.2 49.681013 
L 866.2 49.681013 
" style="fill:none;stroke:#ffffff;stroke-linecap:round;stroke-width:0.8;"/>
     </g>
     <g id="text_14">
      <!-- 0.8 -->
      <g style="fill:#262626;" transform="translate(7.2 53.118513)scale(0.1 -0.1)">
       <use xlink:href="#SimHei-48"/>
       <use x="50" xlink:href="#SimHei-46"/>
       <use x="100" xlink:href="#SimHei-56"/>
      </g>
     </g>
    </g>
   </g>
   <g id="line2d_15">
    <path clip-path="url(#pe0d3cb38e4)" d="M 67.245455 151.922727 
L 151.790909 66.818215 
L 236.336364 65.524719 
L 320.881818 66.380739 
L 405.427273 66.592209 
L 489.972727 64.761502 
L 574.518182 62.774603 
L 659.063636 59.100005 
L 743.609091 28.377273 
L 828.154545 32.926823 
" style="fill:none;stroke:#ff0000;stroke-linecap:round;stroke-opacity:0.6;stroke-width:1.5;"/>
   </g>
   <g id="patch_3">
    <path d="M 29.2 158.1 
L 29.2 22.2 
" style="fill:none;stroke:#ffffff;stroke-linecap:square;stroke-linejoin:miter;stroke-width:0.8;"/>
   </g>
   <g id="patch_4">
    <path d="M 866.2 158.1 
L 866.2 22.2 
" style="fill:none;stroke:#ffffff;stroke-linecap:square;stroke-linejoin:miter;stroke-width:0.8;"/>
   </g>
   <g id="patch_5">
    <path d="M 29.2 158.1 
L 866.2 158.1 
" style="fill:none;stroke:#ffffff;stroke-linecap:square;stroke-linejoin:miter;stroke-width:0.8;"/>
   </g>
   <g id="patch_6">
    <path d="M 29.2 22.2 
L 866.2 22.2 
" style="fill:none;stroke:#ffffff;stroke-linecap:square;stroke-linejoin:miter;stroke-width:0.8;"/>
   </g>
   <g id="text_15">
    <!-- 日活 -->
    <defs>
     <path d="M 83.984375 78.125 
Q 83.59375 58.984375 83.59375 35.546875 
Q 83.59375 12.109375 83.984375 -7.03125 
L 75 -7.03125 
L 75 2.734375 
L 28.125 2.734375 
L 28.125 -8.984375 
L 19.53125 -8.984375 
Q 19.921875 8.984375 19.921875 33.203125 
Q 19.921875 57.421875 19.53125 78.125 
L 83.984375 78.125 
z
M 75 9.375 
L 75 37.109375 
L 28.125 37.109375 
L 28.125 9.375 
z
M 75 43.75 
L 75 71.09375 
L 28.125 71.09375 
L 28.125 43.75 
z
" id="SimHei-26085"/>
     <path d="M 83.984375 78.125 
Q 85.9375 74.609375 89.453125 70.703125 
Q 83.203125 69.921875 77.921875 69.140625 
Q 72.65625 68.359375 66.40625 67.578125 
L 66.40625 51.171875 
L 83.203125 51.171875 
Q 89.453125 51.171875 94.921875 51.5625 
L 94.921875 44.53125 
Q 90.234375 44.921875 83.203125 44.921875 
L 66.40625 44.921875 
L 66.40625 28.515625 
L 88.28125 28.515625 
Q 87.890625 21.09375 87.890625 8.59375 
Q 87.890625 -3.90625 88.28125 -8.59375 
L 80.46875 -8.59375 
L 80.46875 -1.171875 
L 46.484375 -1.171875 
L 46.484375 -8.984375 
L 39.0625 -8.984375 
Q 39.453125 -3.90625 39.453125 9.765625 
Q 39.453125 23.828125 39.0625 28.515625 
L 58.984375 28.515625 
L 58.984375 44.921875 
L 46.484375 44.921875 
Q 37.890625 44.921875 31.640625 44.53125 
L 31.640625 51.5625 
Q 38.28125 51.171875 46.875 51.171875 
L 58.984375 51.171875 
L 58.984375 66.015625 
Q 48.4375 64.84375 38.671875 63.28125 
Q 38.28125 67.578125 35.546875 70.703125 
Q 44.140625 70.3125 61.90625 73.046875 
Q 79.6875 75.78125 83.984375 78.125 
z
M 80.46875 5.078125 
L 80.46875 22.265625 
L 46.484375 22.265625 
L 46.484375 5.078125 
z
M 32.421875 26.953125 
Q 26.5625 15.625 21.875 5.859375 
Q 17.1875 -3.90625 14.84375 -8.203125 
Q 10.9375 -5.078125 6.25 -3.125 
Q 9.375 0.390625 14.0625 7.8125 
Q 18.75 15.234375 25.78125 32.03125 
Q 29.296875 28.515625 32.421875 26.953125 
z
M 11.328125 54.296875 
Q 19.53125 48.828125 29.6875 41.796875 
Q 26.953125 38.671875 24.21875 35.15625 
Q 14.84375 42.578125 6.25 48.046875 
Q 8.984375 51.171875 11.328125 54.296875 
z
M 17.1875 78.515625 
Q 25.390625 73.046875 33.59375 66.015625 
Q 29.6875 62.890625 27.734375 59.765625 
Q 21.875 66.015625 11.71875 72.65625 
Q 14.453125 75.390625 17.1875 78.515625 
z
" id="SimHei-27963"/>
    </defs>
    <g style="fill:#262626;" transform="translate(435.7 16.2)scale(0.12 -0.12)">
     <use xlink:href="#SimHei-26085"/>
     <use x="100" xlink:href="#SimHei-27963"/>
    </g>
   </g>
  </g>
  <g id="axes_2">
   <g id="patch_7">
    <path d="M 29.2 565.8 
L 866.2 565.8 
L 866.2 226.05 
L 29.2 226.05 
z
" style="fill:#eaeaf2;"/>
   </g>
   <g id="matplotlib.axis_3">
    <g id="xtick_11">
     <g id="line2d_16">
      <path clip-path="url(#pbb4c07c2fb)" d="M 71.05 565.8 
L 71.05 226.05 
" style="fill:none;stroke:#ffffff;stroke-linecap:round;stroke-width:0.8;"/>
     </g>
     <g id="text_16">
      <!-- 2017-11-24 -->
      <g style="fill:#262626;" transform="translate(73.8625 622.8)rotate(-90)scale(0.1 -0.1)">
       <use xlink:href="#SimHei-50"/>
       <use x="50" xlink:href="#SimHei-48"/>
       <use x="100" xlink:href="#SimHei-49"/>
       <use x="150" xlink:href="#SimHei-55"/>
       <use x="200" xlink:href="#SimHei-45"/>
       <use x="250" xlink:href="#SimHei-49"/>
       <use x="300" xlink:href="#SimHei-49"/>
       <use x="350" xlink:href="#SimHei-45"/>
       <use x="400" xlink:href="#SimHei-50"/>
       <use x="450" xlink:href="#SimHei-52"/>
      </g>
     </g>
    </g>
    <g id="xtick_12">
     <g id="line2d_17">
      <path clip-path="url(#pbb4c07c2fb)" d="M 154.75 565.8 
L 154.75 226.05 
" style="fill:none;stroke:#ffffff;stroke-linecap:round;stroke-width:0.8;"/>
     </g>
     <g id="text_17">
      <!-- 2017-11-25 -->
      <g style="fill:#262626;" transform="translate(157.5625 622.8)rotate(-90)scale(0.1 -0.1)">
       <use xlink:href="#SimHei-50"/>
       <use x="50" xlink:href="#SimHei-48"/>
       <use x="100" xlink:href="#SimHei-49"/>
       <use x="150" xlink:href="#SimHei-55"/>
       <use x="200" xlink:href="#SimHei-45"/>
       <use x="250" xlink:href="#SimHei-49"/>
       <use x="300" xlink:href="#SimHei-49"/>
       <use x="350" xlink:href="#SimHei-45"/>
       <use x="400" xlink:href="#SimHei-50"/>
       <use x="450" xlink:href="#SimHei-53"/>
      </g>
     </g>
    </g>
    <g id="xtick_13">
     <g id="line2d_18">
      <path clip-path="url(#pbb4c07c2fb)" d="M 238.45 565.8 
L 238.45 226.05 
" style="fill:none;stroke:#ffffff;stroke-linecap:round;stroke-width:0.8;"/>
     </g>
     <g id="text_18">
      <!-- 2017-11-26 -->
      <g style="fill:#262626;" transform="translate(241.2625 622.8)rotate(-90)scale(0.1 -0.1)">
       <use xlink:href="#SimHei-50"/>
       <use x="50" xlink:href="#SimHei-48"/>
       <use x="100" xlink:href="#SimHei-49"/>
       <use x="150" xlink:href="#SimHei-55"/>
       <use x="200" xlink:href="#SimHei-45"/>
       <use x="250" xlink:href="#SimHei-49"/>
       <use x="300" xlink:href="#SimHei-49"/>
       <use x="350" xlink:href="#SimHei-45"/>
       <use x="400" xlink:href="#SimHei-50"/>
       <use x="450" xlink:href="#SimHei-54"/>
      </g>
     </g>
    </g>
    <g id="xtick_14">
     <g id="line2d_19">
      <path clip-path="url(#pbb4c07c2fb)" d="M 322.15 565.8 
L 322.15 226.05 
" style="fill:none;stroke:#ffffff;stroke-linecap:round;stroke-width:0.8;"/>
     </g>
     <g id="text_19">
      <!-- 2017-11-27 -->
      <g style="fill:#262626;" transform="translate(324.9625 622.8)rotate(-90)scale(0.1 -0.1)">
       <use xlink:href="#SimHei-50"/>
       <use x="50" xlink:href="#SimHei-48"/>
       <use x="100" xlink:href="#SimHei-49"/>
       <use x="150" xlink:href="#SimHei-55"/>
       <use x="200" xlink:href="#SimHei-45"/>
       <use x="250" xlink:href="#SimHei-49"/>
       <use x="300" xlink:href="#SimHei-49"/>
       <use x="350" xlink:href="#SimHei-45"/>
       <use x="400" xlink:href="#SimHei-50"/>
       <use x="450" xlink:href="#SimHei-55"/>
      </g>
     </g>
    </g>
    <g id="xtick_15">
     <g id="line2d_20">
      <path clip-path="url(#pbb4c07c2fb)" d="M 405.85 565.8 
L 405.85 226.05 
" style="fill:none;stroke:#ffffff;stroke-linecap:round;stroke-width:0.8;"/>
     </g>
     <g id="text_20">
      <!-- 2017-11-28 -->
      <g style="fill:#262626;" transform="translate(408.6625 622.8)rotate(-90)scale(0.1 -0.1)">
       <use xlink:href="#SimHei-50"/>
       <use x="50" xlink:href="#SimHei-48"/>
       <use x="100" xlink:href="#SimHei-49"/>
       <use x="150" xlink:href="#SimHei-55"/>
       <use x="200" xlink:href="#SimHei-45"/>
       <use x="250" xlink:href="#SimHei-49"/>
       <use x="300" xlink:href="#SimHei-49"/>
       <use x="350" xlink:href="#SimHei-45"/>
       <use x="400" xlink:href="#SimHei-50"/>
       <use x="450" xlink:href="#SimHei-56"/>
      </g>
     </g>
    </g>
    <g id="xtick_16">
     <g id="line2d_21">
      <path clip-path="url(#pbb4c07c2fb)" d="M 489.55 565.8 
L 489.55 226.05 
" style="fill:none;stroke:#ffffff;stroke-linecap:round;stroke-width:0.8;"/>
     </g>
     <g id="text_21">
      <!-- 2017-11-29 -->
      <g style="fill:#262626;" transform="translate(492.3625 622.8)rotate(-90)scale(0.1 -0.1)">
       <use xlink:href="#SimHei-50"/>
       <use x="50" xlink:href="#SimHei-48"/>
       <use x="100" xlink:href="#SimHei-49"/>
       <use x="150" xlink:href="#SimHei-55"/>
       <use x="200" xlink:href="#SimHei-45"/>
       <use x="250" xlink:href="#SimHei-49"/>
       <use x="300" xlink:href="#SimHei-49"/>
       <use x="350" xlink:href="#SimHei-45"/>
       <use x="400" xlink:href="#SimHei-50"/>
       <use x="450" xlink:href="#SimHei-57"/>
      </g>
     </g>
    </g>
    <g id="xtick_17">
     <g id="line2d_22">
      <path clip-path="url(#pbb4c07c2fb)" d="M 573.25 565.8 
L 573.25 226.05 
" style="fill:none;stroke:#ffffff;stroke-linecap:round;stroke-width:0.8;"/>
     </g>
     <g id="text_22">
      <!-- 2017-11-30 -->
      <g style="fill:#262626;" transform="translate(576.0625 622.8)rotate(-90)scale(0.1 -0.1)">
       <use xlink:href="#SimHei-50"/>
       <use x="50" xlink:href="#SimHei-48"/>
       <use x="100" xlink:href="#SimHei-49"/>
       <use x="150" xlink:href="#SimHei-55"/>
       <use x="200" xlink:href="#SimHei-45"/>
       <use x="250" xlink:href="#SimHei-49"/>
       <use x="300" xlink:href="#SimHei-49"/>
       <use x="350" xlink:href="#SimHei-45"/>
       <use x="400" xlink:href="#SimHei-51"/>
       <use x="450" xlink:href="#SimHei-48"/>
      </g>
     </g>
    </g>
    <g id="xtick_18">
     <g id="line2d_23">
      <path clip-path="url(#pbb4c07c2fb)" d="M 656.95 565.8 
L 656.95 226.05 
" style="fill:none;stroke:#ffffff;stroke-linecap:round;stroke-width:0.8;"/>
     </g>
     <g id="text_23">
      <!-- 2017-12-01 -->
      <g style="fill:#262626;" transform="translate(659.7625 622.8)rotate(-90)scale(0.1 -0.1)">
       <use xlink:href="#SimHei-50"/>
       <use x="50" xlink:href="#SimHei-48"/>
       <use x="100" xlink:href="#SimHei-49"/>
       <use x="150" xlink:href="#SimHei-55"/>
       <use x="200" xlink:href="#SimHei-45"/>
       <use x="250" xlink:href="#SimHei-49"/>
       <use x="300" xlink:href="#SimHei-50"/>
       <use x="350" xlink:href="#SimHei-45"/>
       <use x="400" xlink:href="#SimHei-48"/>
       <use x="450" xlink:href="#SimHei-49"/>
      </g>
     </g>
    </g>
    <g id="xtick_19">
     <g id="line2d_24">
      <path clip-path="url(#pbb4c07c2fb)" d="M 740.65 565.8 
L 740.65 226.05 
" style="fill:none;stroke:#ffffff;stroke-linecap:round;stroke-width:0.8;"/>
     </g>
     <g id="text_24">
      <!-- 2017-12-02 -->
      <g style="fill:#262626;" transform="translate(743.4625 622.8)rotate(-90)scale(0.1 -0.1)">
       <use xlink:href="#SimHei-50"/>
       <use x="50" xlink:href="#SimHei-48"/>
       <use x="100" xlink:href="#SimHei-49"/>
       <use x="150" xlink:href="#SimHei-55"/>
       <use x="200" xlink:href="#SimHei-45"/>
       <use x="250" xlink:href="#SimHei-49"/>
       <use x="300" xlink:href="#SimHei-50"/>
       <use x="350" xlink:href="#SimHei-45"/>
       <use x="400" xlink:href="#SimHei-48"/>
       <use x="450" xlink:href="#SimHei-50"/>
      </g>
     </g>
    </g>
    <g id="xtick_20">
     <g id="line2d_25">
      <path clip-path="url(#pbb4c07c2fb)" d="M 824.35 565.8 
L 824.35 226.05 
" style="fill:none;stroke:#ffffff;stroke-linecap:round;stroke-width:0.8;"/>
     </g>
     <g id="text_25">
      <!-- 2017-12-03 -->
      <g style="fill:#262626;" transform="translate(827.1625 622.8)rotate(-90)scale(0.1 -0.1)">
       <use xlink:href="#SimHei-50"/>
       <use x="50" xlink:href="#SimHei-48"/>
       <use x="100" xlink:href="#SimHei-49"/>
       <use x="150" xlink:href="#SimHei-55"/>
       <use x="200" xlink:href="#SimHei-45"/>
       <use x="250" xlink:href="#SimHei-49"/>
       <use x="300" xlink:href="#SimHei-50"/>
       <use x="350" xlink:href="#SimHei-45"/>
       <use x="400" xlink:href="#SimHei-48"/>
       <use x="450" xlink:href="#SimHei-51"/>
      </g>
     </g>
    </g>
    <g id="text_26">
     <!-- date -->
     <defs>
      <path d="M 42.96875 1.953125 
L 35.15625 1.953125 
L 35.15625 7.8125 
Q 32.8125 4.296875 29.6875 2.734375 
Q 26.5625 1.171875 22.265625 1.171875 
Q 14.453125 1.171875 8.984375 6.828125 
Q 3.515625 12.5 3.515625 23.828125 
Q 3.515625 35.15625 8.984375 41.015625 
Q 14.453125 46.875 22.265625 46.875 
Q 26.5625 46.875 29.6875 45.109375 
Q 32.8125 43.359375 35.15625 39.84375 
L 35.15625 68.75 
L 42.96875 68.75 
z
M 35.15625 23.828125 
Q 35.15625 31.25 31.828125 35.546875 
Q 28.515625 39.84375 23.828125 39.84375 
Q 17.96875 39.84375 15.03125 35.546875 
Q 12.109375 31.25 12.109375 23.828125 
Q 12.109375 16.40625 15.03125 12.296875 
Q 17.96875 8.203125 23.828125 8.203125 
Q 28.515625 8.203125 31.828125 12.296875 
Q 35.15625 16.40625 35.15625 23.828125 
z
" id="SimHei-100"/>
      <path d="M 44.921875 1.953125 
L 35.546875 1.953125 
Q 34.765625 2.734375 34.375 4.09375 
Q 33.984375 5.46875 33.984375 7.421875 
Q 31.25 4.296875 27.34375 2.734375 
Q 23.4375 1.171875 19.140625 1.171875 
Q 12.890625 1.171875 8.59375 4.296875 
Q 4.296875 7.421875 4.296875 13.28125 
Q 4.296875 19.140625 8.203125 22.65625 
Q 12.109375 26.171875 20.3125 27.34375 
Q 25.78125 28.125 29.875 29.296875 
Q 33.984375 30.46875 33.984375 32.421875 
Q 33.984375 34.765625 32.21875 37.109375 
Q 30.46875 39.453125 24.609375 39.453125 
Q 19.921875 39.453125 17.765625 37.6875 
Q 15.625 35.9375 14.84375 32.8125 
L 6.25 32.8125 
Q 7.03125 39.0625 11.90625 42.765625 
Q 16.796875 46.484375 24.609375 46.484375 
Q 33.203125 46.484375 37.5 42.578125 
Q 41.796875 38.671875 41.796875 31.640625 
L 41.796875 10.15625 
Q 41.796875 7.8125 42.578125 5.859375 
Q 43.359375 3.90625 44.921875 1.953125 
z
M 33.984375 16.40625 
L 33.984375 24.21875 
Q 31.640625 23.4375 29.484375 22.84375 
Q 27.34375 22.265625 22.265625 21.484375 
Q 16.40625 20.703125 14.640625 18.75 
Q 12.890625 16.796875 12.890625 14.0625 
Q 12.890625 11.71875 14.640625 9.953125 
Q 16.40625 8.203125 19.921875 8.203125 
Q 23.4375 8.203125 27.53125 10.15625 
Q 31.640625 12.109375 33.984375 16.40625 
z
" id="SimHei-97"/>
      <path d="M 42.96875 3.125 
Q 41.015625 2.34375 38.46875 1.75 
Q 35.9375 1.171875 31.640625 1.171875 
Q 24.609375 1.171875 20.3125 5.078125 
Q 16.015625 8.984375 16.015625 16.015625 
L 16.015625 39.453125 
L 2.734375 39.453125 
L 2.734375 45.703125 
L 16.015625 45.703125 
L 16.015625 60.9375 
L 23.828125 60.9375 
L 23.828125 45.703125 
L 39.84375 45.703125 
L 39.84375 39.453125 
L 23.828125 39.453125 
L 23.828125 15.625 
Q 23.828125 12.5 25.390625 10.34375 
Q 26.953125 8.203125 31.25 8.203125 
Q 35.546875 8.203125 38.28125 8.984375 
Q 41.015625 9.765625 42.96875 10.9375 
z
" id="SimHei-116"/>
      <path d="M 44.53125 16.796875 
Q 43.75 9.765625 38.28125 5.46875 
Q 32.8125 1.171875 25.390625 1.171875 
Q 16.015625 1.171875 9.953125 7.21875 
Q 3.90625 13.28125 3.90625 23.828125 
Q 3.90625 34.375 9.953125 40.421875 
Q 16.015625 46.484375 25.390625 46.484375 
Q 33.59375 46.484375 38.859375 41.203125 
Q 44.140625 35.9375 44.140625 23.828125 
L 12.5 23.828125 
Q 12.5 15.234375 16.203125 11.71875 
Q 19.921875 8.203125 25.390625 8.203125 
Q 29.6875 8.203125 32.421875 10.34375 
Q 35.15625 12.5 35.9375 16.796875 
z
M 35.15625 30.078125 
Q 34.375 35.546875 31.640625 37.6875 
Q 28.90625 39.84375 24.609375 39.84375 
Q 20.703125 39.84375 17.578125 37.6875 
Q 14.453125 35.546875 12.890625 30.078125 
z
" id="SimHei-101"/>
     </defs>
     <g style="fill:#262626;" transform="translate(437.7 633.675)scale(0.1 -0.1)">
      <use xlink:href="#SimHei-100"/>
      <use x="50" xlink:href="#SimHei-97"/>
      <use x="100" xlink:href="#SimHei-116"/>
      <use x="150" xlink:href="#SimHei-101"/>
     </g>
    </g>
   </g>
   <g id="matplotlib.axis_4">
    <g id="ytick_5">
     <g id="line2d_26">
      <path clip-path="url(#pbb4c07c2fb)" d="M 29.2 565.8 
L 866.2 565.8 
" style="fill:none;stroke:#ffffff;stroke-linecap:round;stroke-width:0.8;"/>
     </g>
     <g id="text_27">
      <!-- 0.0 -->
      <g style="fill:#262626;" transform="translate(7.2 569.2375)scale(0.1 -0.1)">
       <use xlink:href="#SimHei-48"/>
       <use x="50" xlink:href="#SimHei-46"/>
       <use x="100" xlink:href="#SimHei-48"/>
      </g>
     </g>
    </g>
    <g id="ytick_6">
     <g id="line2d_27">
      <path clip-path="url(#pbb4c07c2fb)" d="M 29.2 500.040667 
L 866.2 500.040667 
" style="fill:none;stroke:#ffffff;stroke-linecap:round;stroke-width:0.8;"/>
     </g>
     <g id="text_28">
      <!-- 0.2 -->
      <g style="fill:#262626;" transform="translate(7.2 503.478167)scale(0.1 -0.1)">
       <use xlink:href="#SimHei-48"/>
       <use x="50" xlink:href="#SimHei-46"/>
       <use x="100" xlink:href="#SimHei-50"/>
      </g>
     </g>
    </g>
    <g id="ytick_7">
     <g id="line2d_28">
      <path clip-path="url(#pbb4c07c2fb)" d="M 29.2 434.281334 
L 866.2 434.281334 
" style="fill:none;stroke:#ffffff;stroke-linecap:round;stroke-width:0.8;"/>
     </g>
     <g id="text_29">
      <!-- 0.4 -->
      <g style="fill:#262626;" transform="translate(7.2 437.718834)scale(0.1 -0.1)">
       <use xlink:href="#SimHei-48"/>
       <use x="50" xlink:href="#SimHei-46"/>
       <use x="100" xlink:href="#SimHei-52"/>
      </g>
     </g>
    </g>
    <g id="ytick_8">
     <g id="line2d_29">
      <path clip-path="url(#pbb4c07c2fb)" d="M 29.2 368.522001 
L 866.2 368.522001 
" style="fill:none;stroke:#ffffff;stroke-linecap:round;stroke-width:0.8;"/>
     </g>
     <g id="text_30">
      <!-- 0.6 -->
      <g style="fill:#262626;" transform="translate(7.2 371.959501)scale(0.1 -0.1)">
       <use xlink:href="#SimHei-48"/>
       <use x="50" xlink:href="#SimHei-46"/>
       <use x="100" xlink:href="#SimHei-54"/>
      </g>
     </g>
    </g>
    <g id="ytick_9">
     <g id="line2d_30">
      <path clip-path="url(#pbb4c07c2fb)" d="M 29.2 302.762668 
L 866.2 302.762668 
" style="fill:none;stroke:#ffffff;stroke-linecap:round;stroke-width:0.8;"/>
     </g>
     <g id="text_31">
      <!-- 0.8 -->
      <g style="fill:#262626;" transform="translate(7.2 306.200168)scale(0.1 -0.1)">
       <use xlink:href="#SimHei-48"/>
       <use x="50" xlink:href="#SimHei-46"/>
       <use x="100" xlink:href="#SimHei-56"/>
      </g>
     </g>
    </g>
    <g id="ytick_10">
     <g id="line2d_31">
      <path clip-path="url(#pbb4c07c2fb)" d="M 29.2 237.003335 
L 866.2 237.003335 
" style="fill:none;stroke:#ffffff;stroke-linecap:round;stroke-width:0.8;"/>
     </g>
     <g id="text_32">
      <!-- 1.0 -->
      <g style="fill:#262626;" transform="translate(7.2 240.440835)scale(0.1 -0.1)">
       <use xlink:href="#SimHei-49"/>
       <use x="50" xlink:href="#SimHei-46"/>
       <use x="100" xlink:href="#SimHei-48"/>
      </g>
     </g>
    </g>
    <g id="text_33">
     <!-- 1e6 -->
     <g style="fill:#262626;" transform="translate(29.2 223.05)scale(0.1 -0.1)">
      <use xlink:href="#SimHei-49"/>
      <use x="50" xlink:href="#SimHei-101"/>
      <use x="100" xlink:href="#SimHei-54"/>
     </g>
    </g>
   </g>
   <g id="patch_8">
    <path clip-path="url(#pbb4c07c2fb)" d="M 50.125 565.8 
L 91.975 565.8 
L 91.975 302.217523 
L 50.125 302.217523 
z
" style="fill:#08306b;stroke:#ffffff;stroke-linejoin:miter;"/>
   </g>
   <g id="patch_9">
    <path clip-path="url(#pbb4c07c2fb)" d="M 133.825 565.8 
L 175.675 565.8 
L 175.675 467.752506 
L 133.825 467.752506 
z
" style="fill:#08306b;stroke:#ffffff;stroke-linejoin:miter;"/>
   </g>
   <g id="patch_10">
    <path clip-path="url(#pbb4c07c2fb)" d="M 217.525 565.8 
L 259.375 565.8 
L 259.375 470.268458 
L 217.525 470.268458 
z
" style="fill:#08306b;stroke:#ffffff;stroke-linejoin:miter;"/>
   </g>
   <g id="patch_11">
    <path clip-path="url(#pbb4c07c2fb)" d="M 301.225 565.8 
L 343.075 565.8 
L 343.075 468.603431 
L 301.225 468.603431 
z
" style="fill:#08306b;stroke:#ffffff;stroke-linejoin:miter;"/>
   </g>
   <g id="patch_12">
    <path clip-path="url(#pbb4c07c2fb)" d="M 384.925 565.8 
L 426.775 565.8 
L 426.775 468.192107 
L 384.925 468.192107 
z
" style="fill:#08306b;stroke:#ffffff;stroke-linejoin:miter;"/>
   </g>
   <g id="patch_13">
    <path clip-path="url(#pbb4c07c2fb)" d="M 468.625 565.8 
L 510.475 565.8 
L 510.475 471.752975 
L 468.625 471.752975 
z
" style="fill:#08306b;stroke:#ffffff;stroke-linejoin:miter;"/>
   </g>
   <g id="patch_14">
    <path clip-path="url(#pbb4c07c2fb)" d="M 552.325 565.8 
L 594.175 565.8 
L 594.175 475.617651 
L 552.325 475.617651 
z
" style="fill:#08306b;stroke:#ffffff;stroke-linejoin:miter;"/>
   </g>
   <g id="patch_15">
    <path clip-path="url(#pbb4c07c2fb)" d="M 636.025 565.8 
L 677.875 565.8 
L 677.875 482.765033 
L 636.025 482.765033 
z
" style="fill:#08306b;stroke:#ffffff;stroke-linejoin:miter;"/>
   </g>
   <g id="patch_16">
    <path clip-path="url(#pbb4c07c2fb)" d="M 719.725 565.8 
L 761.575 565.8 
L 761.575 542.523169 
L 719.725 542.523169 
z
" style="fill:#08306b;stroke:#ffffff;stroke-linejoin:miter;"/>
   </g>
   <g id="patch_17">
    <path clip-path="url(#pbb4c07c2fb)" d="M 803.425 565.8 
L 845.275 565.8 
L 845.275 533.673935 
L 803.425 533.673935 
z
" style="fill:#08306b;stroke:#ffffff;stroke-linejoin:miter;"/>
   </g>
   <g id="patch_18">
    <path clip-path="url(#pbb4c07c2fb)" d="M 50.125 302.217523 
L 91.975 302.217523 
L 91.975 245.572434 
L 50.125 245.572434 
z
" style="fill:#3787c0;stroke:#ffffff;stroke-linejoin:miter;"/>
   </g>
   <g id="patch_19">
    <path clip-path="url(#pbb4c07c2fb)" d="M 133.825 467.752506 
L 175.675 467.752506 
L 175.675 289.544056 
L 133.825 289.544056 
z
" style="fill:#3787c0;stroke:#ffffff;stroke-linejoin:miter;"/>
   </g>
   <g id="patch_20">
    <path clip-path="url(#pbb4c07c2fb)" d="M 217.525 470.268458 
L 259.375 470.268458 
L 259.375 289.834712 
L 217.525 289.834712 
z
" style="fill:#3787c0;stroke:#ffffff;stroke-linejoin:miter;"/>
   </g>
   <g id="patch_21">
    <path clip-path="url(#pbb4c07c2fb)" d="M 301.225 468.603431 
L 343.075 468.603431 
L 343.075 286.70128 
L 301.225 286.70128 
z
" style="fill:#3787c0;stroke:#ffffff;stroke-linejoin:miter;"/>
   </g>
   <g id="patch_22">
    <path clip-path="url(#pbb4c07c2fb)" d="M 384.925 468.192107 
L 426.775 468.192107 
L 426.775 285.87337 
L 384.925 285.87337 
z
" style="fill:#3787c0;stroke:#ffffff;stroke-linejoin:miter;"/>
   </g>
   <g id="patch_23">
    <path clip-path="url(#pbb4c07c2fb)" d="M 468.625 471.752975 
L 510.475 471.752975 
L 510.475 288.202236 
L 468.625 288.202236 
z
" style="fill:#3787c0;stroke:#ffffff;stroke-linejoin:miter;"/>
   </g>
   <g id="patch_24">
    <path clip-path="url(#pbb4c07c2fb)" d="M 552.325 475.617651 
L 594.175 475.617651 
L 594.175 289.220848 
L 552.325 289.220848 
z
" style="fill:#3787c0;stroke:#ffffff;stroke-linejoin:miter;"/>
   </g>
   <g id="patch_25">
    <path clip-path="url(#pbb4c07c2fb)" d="M 636.025 482.765033 
L 677.875 482.765033 
L 677.875 292.369734 
L 636.025 292.369734 
z
" style="fill:#3787c0;stroke:#ffffff;stroke-linejoin:miter;"/>
   </g>
   <g id="patch_26">
    <path clip-path="url(#pbb4c07c2fb)" d="M 719.725 542.523169 
L 761.575 542.523169 
L 761.575 304.153478 
L 719.725 304.153478 
z
" style="fill:#3787c0;stroke:#ffffff;stroke-linejoin:miter;"/>
   </g>
   <g id="patch_27">
    <path clip-path="url(#pbb4c07c2fb)" d="M 803.425 533.673935 
L 845.275 533.673935 
L 845.275 293.36829 
L 803.425 293.36829 
z
" style="fill:#3787c0;stroke:#ffffff;stroke-linejoin:miter;"/>
   </g>
   <g id="patch_28">
    <path clip-path="url(#pbb4c07c2fb)" d="M 50.125 245.572434 
L 91.975 245.572434 
L 91.975 242.87663 
L 50.125 242.87663 
z
" style="fill:#abd0e6;stroke:#ffffff;stroke-linejoin:miter;"/>
   </g>
   <g id="patch_29">
    <path clip-path="url(#pbb4c07c2fb)" d="M 133.825 289.544056 
L 175.675 289.544056 
L 175.675 258.085777 
L 133.825 258.085777 
z
" style="fill:#abd0e6;stroke:#ffffff;stroke-linejoin:miter;"/>
   </g>
   <g id="patch_30">
    <path clip-path="url(#pbb4c07c2fb)" d="M 217.525 289.834712 
L 259.375 289.834712 
L 259.375 257.940778 
L 217.525 257.940778 
z
" style="fill:#abd0e6;stroke:#ffffff;stroke-linejoin:miter;"/>
   </g>
   <g id="patch_31">
    <path clip-path="url(#pbb4c07c2fb)" d="M 301.225 286.70128 
L 343.075 286.70128 
L 343.075 256.238597 
L 301.225 256.238597 
z
" style="fill:#abd0e6;stroke:#ffffff;stroke-linejoin:miter;"/>
   </g>
   <g id="patch_32">
    <path clip-path="url(#pbb4c07c2fb)" d="M 384.925 285.87337 
L 426.775 285.87337 
L 426.775 255.736525 
L 384.925 255.736525 
z
" style="fill:#abd0e6;stroke:#ffffff;stroke-linejoin:miter;"/>
   </g>
   <g id="patch_33">
    <path clip-path="url(#pbb4c07c2fb)" d="M 468.625 288.202236 
L 510.475 288.202236 
L 510.475 256.816622 
L 468.625 256.816622 
z
" style="fill:#abd0e6;stroke:#ffffff;stroke-linejoin:miter;"/>
   </g>
   <g id="patch_34">
    <path clip-path="url(#pbb4c07c2fb)" d="M 552.325 289.220848 
L 594.175 289.220848 
L 594.175 257.203944 
L 552.325 257.203944 
z
" style="fill:#abd0e6;stroke:#ffffff;stroke-linejoin:miter;"/>
   </g>
   <g id="patch_35">
    <path clip-path="url(#pbb4c07c2fb)" d="M 636.025 292.369734 
L 677.875 292.369734 
L 677.875 258.496115 
L 636.025 258.496115 
z
" style="fill:#abd0e6;stroke:#ffffff;stroke-linejoin:miter;"/>
   </g>
   <g id="patch_36">
    <path clip-path="url(#pbb4c07c2fb)" d="M 719.725 304.153478 
L 761.575 304.153478 
L 761.575 262.900018 
L 719.725 262.900018 
z
" style="fill:#abd0e6;stroke:#ffffff;stroke-linejoin:miter;"/>
   </g>
   <g id="patch_37">
    <path clip-path="url(#pbb4c07c2fb)" d="M 803.425 293.36829 
L 845.275 293.36829 
L 845.275 258.262341 
L 803.425 258.262341 
z
" style="fill:#abd0e6;stroke:#ffffff;stroke-linejoin:miter;"/>
   </g>
   <g id="patch_38">
    <path clip-path="url(#pbb4c07c2fb)" d="M 50.125 242.87663 
L 91.975 242.87663 
L 91.975 242.228571 
L 50.125 242.228571 
z
" style="fill:#f7fbff;stroke:#ffffff;stroke-linejoin:miter;"/>
   </g>
   <g id="patch_39">
    <path clip-path="url(#pbb4c07c2fb)" d="M 133.825 258.085777 
L 175.675 258.085777 
L 175.675 242.228571 
L 133.825 242.228571 
z
" style="fill:#f7fbff;stroke:#ffffff;stroke-linejoin:miter;"/>
   </g>
   <g id="patch_40">
    <path clip-path="url(#pbb4c07c2fb)" d="M 217.525 257.940778 
L 259.375 257.940778 
L 259.375 242.228571 
L 217.525 242.228571 
z
" style="fill:#f7fbff;stroke:#ffffff;stroke-linejoin:miter;"/>
   </g>
   <g id="patch_41">
    <path clip-path="url(#pbb4c07c2fb)" d="M 301.225 256.238597 
L 343.075 256.238597 
L 343.075 242.228571 
L 301.225 242.228571 
z
" style="fill:#f7fbff;stroke:#ffffff;stroke-linejoin:miter;"/>
   </g>
   <g id="patch_42">
    <path clip-path="url(#pbb4c07c2fb)" d="M 384.925 255.736525 
L 426.775 255.736525 
L 426.775 242.228571 
L 384.925 242.228571 
z
" style="fill:#f7fbff;stroke:#ffffff;stroke-linejoin:miter;"/>
   </g>
   <g id="patch_43">
    <path clip-path="url(#pbb4c07c2fb)" d="M 468.625 256.816622 
L 510.475 256.816622 
L 510.475 242.228571 
L 468.625 242.228571 
z
" style="fill:#f7fbff;stroke:#ffffff;stroke-linejoin:miter;"/>
   </g>
   <g id="patch_44">
    <path clip-path="url(#pbb4c07c2fb)" d="M 552.325 257.203944 
L 594.175 257.203944 
L 594.175 242.228571 
L 552.325 242.228571 
z
" style="fill:#f7fbff;stroke:#ffffff;stroke-linejoin:miter;"/>
   </g>
   <g id="patch_45">
    <path clip-path="url(#pbb4c07c2fb)" d="M 636.025 258.496115 
L 677.875 258.496115 
L 677.875 242.228571 
L 636.025 242.228571 
z
" style="fill:#f7fbff;stroke:#ffffff;stroke-linejoin:miter;"/>
   </g>
   <g id="patch_46">
    <path clip-path="url(#pbb4c07c2fb)" d="M 719.725 262.900018 
L 761.575 262.900018 
L 761.575 242.228571 
L 719.725 242.228571 
z
" style="fill:#f7fbff;stroke:#ffffff;stroke-linejoin:miter;"/>
   </g>
   <g id="patch_47">
    <path clip-path="url(#pbb4c07c2fb)" d="M 803.425 258.262341 
L 845.275 258.262341 
L 845.275 242.228571 
L 803.425 242.228571 
z
" style="fill:#f7fbff;stroke:#ffffff;stroke-linejoin:miter;"/>
   </g>
   <g id="patch_48">
    <path d="M 29.2 565.8 
L 29.2 226.05 
" style="fill:none;stroke:#ffffff;stroke-linecap:square;stroke-linejoin:miter;stroke-width:0.8;"/>
   </g>
   <g id="patch_49">
    <path d="M 866.2 565.8 
L 866.2 226.05 
" style="fill:none;stroke:#ffffff;stroke-linecap:square;stroke-linejoin:miter;stroke-width:0.8;"/>
   </g>
   <g id="patch_50">
    <path d="M 29.2 565.8 
L 866.2 565.8 
" style="fill:none;stroke:#ffffff;stroke-linecap:square;stroke-linejoin:miter;stroke-width:0.8;"/>
   </g>
   <g id="patch_51">
    <path d="M 29.2 226.05 
L 866.2 226.05 
" style="fill:none;stroke:#ffffff;stroke-linecap:square;stroke-linejoin:miter;stroke-width:0.8;"/>
   </g>
   <g id="text_34">
    <!-- 用户活跃度 -->
    <defs>
     <path d="M 5.46875 -4.6875 
Q 10.15625 1.953125 12.6875 9.375 
Q 15.234375 16.796875 15.8125 24.21875 
Q 16.40625 31.640625 16.40625 49.21875 
Q 16.40625 66.796875 16.015625 77.34375 
L 85.9375 77.34375 
Q 85.546875 66.015625 85.546875 57.03125 
L 85.546875 5.859375 
Q 85.546875 -2.34375 80.859375 -4.296875 
Q 76.171875 -6.25 69.921875 -7.03125 
Q 69.140625 -1.171875 67.1875 1.953125 
Q 75 1.5625 76.359375 2.53125 
Q 77.734375 3.515625 77.734375 6.25 
L 77.734375 25.78125 
L 53.90625 25.78125 
L 53.90625 10.546875 
Q 53.90625 1.953125 54.296875 -5.078125 
L 45.703125 -5.078125 
Q 46.09375 1.5625 46.09375 10.15625 
L 46.09375 25.78125 
L 23.828125 25.78125 
Q 22.265625 8.984375 13.28125 -8.203125 
Q 8.984375 -5.46875 5.46875 -4.6875 
z
M 77.734375 54.296875 
L 77.734375 71.09375 
L 53.90625 71.09375 
L 53.90625 54.296875 
z
M 77.734375 32.03125 
L 77.734375 48.4375 
L 53.90625 48.4375 
L 53.90625 32.03125 
z
M 46.09375 54.296875 
L 46.09375 71.09375 
L 23.828125 71.09375 
L 23.828125 54.296875 
z
M 46.09375 32.03125 
L 46.09375 48.4375 
L 23.828125 48.4375 
L 23.828125 32.03125 
z
" id="SimHei-29992"/>
     <path d="M 90.234375 63.28125 
Q 89.84375 53.90625 89.84375 41.796875 
Q 89.84375 30.078125 90.234375 23.4375 
L 81.640625 23.4375 
L 81.640625 29.296875 
L 27.34375 29.296875 
Q 25.78125 16.796875 23.4375 10.546875 
Q 21.09375 4.296875 18.359375 -0.578125 
Q 15.625 -5.46875 12.5 -9.765625 
Q 8.59375 -6.640625 3.90625 -5.078125 
Q 11.71875 3.125 14.640625 10.34375 
Q 17.578125 17.578125 18.546875 24.015625 
Q 19.53125 30.46875 19.53125 37.890625 
Q 19.53125 45.3125 19.140625 63.28125 
L 90.234375 63.28125 
z
M 81.25 36.328125 
L 81.25 56.25 
L 26.953125 56.25 
L 26.953125 36.328125 
z
M 53.125 82.421875 
Q 57.8125 73.046875 59.765625 67.578125 
Q 54.6875 66.40625 51.953125 64.84375 
Q 49.21875 73.046875 45.703125 79.296875 
Q 49.609375 80.46875 53.125 82.421875 
z
" id="SimHei-25143"/>
     <path d="M 9.765625 30.46875 
Q 9.765625 34.765625 9.375 39.453125 
L 17.1875 39.453125 
Q 16.796875 34.765625 16.796875 30.46875 
L 16.796875 8.203125 
L 23.828125 9.375 
L 23.828125 47.65625 
L 11.328125 47.65625 
Q 11.71875 55.078125 11.71875 62.890625 
Q 11.71875 71.09375 11.328125 78.515625 
L 41.796875 78.515625 
Q 41.40625 71.09375 41.40625 62.890625 
Q 41.40625 55.078125 41.796875 47.65625 
L 30.859375 47.65625 
L 30.859375 34.765625 
Q 35.9375 34.765625 41.796875 35.15625 
L 41.796875 28.515625 
Q 35.9375 28.90625 30.859375 28.90625 
L 30.859375 10.9375 
L 43.359375 14.0625 
L 43.359375 7.421875 
Q 20.703125 1.953125 16.015625 0.578125 
Q 11.328125 -0.78125 6.640625 -2.734375 
Q 5.078125 1.953125 3.515625 5.859375 
Q 6.640625 6.25 9.765625 7.03125 
z
M 33.984375 -4.6875 
Q 40.625 -1.171875 45.5 3.515625 
Q 50.390625 8.203125 53.703125 13.859375 
Q 57.03125 19.53125 58.984375 25.96875 
Q 60.9375 32.421875 61.71875 39.0625 
Q 47.65625 39.0625 42.578125 38.671875 
L 42.578125 45.3125 
Q 50.390625 44.921875 62.5 44.921875 
L 62.5 67.96875 
Q 56.640625 67.1875 47.265625 65.234375 
Q 46.875 69.140625 44.53125 72.265625 
Q 53.515625 72.65625 65.8125 75 
Q 78.125 77.34375 82.03125 80.078125 
Q 83.984375 76.953125 87.890625 73.046875 
Q 83.59375 71.875 69.53125 69.53125 
L 69.53125 44.921875 
Q 86.328125 44.921875 92.1875 45.3125 
L 92.1875 38.671875 
Q 85.9375 39.0625 70.703125 39.0625 
Q 71.09375 32.421875 75.96875 21.671875 
Q 80.859375 10.9375 86.328125 5.46875 
Q 91.796875 0 96.484375 -2.734375 
Q 92.1875 -4.296875 89.453125 -8.59375 
Q 81.640625 -1.953125 77.34375 4.296875 
Q 73.046875 10.546875 70.703125 15.625 
Q 68.359375 20.703125 66.796875 26.953125 
Q 64.0625 16.40625 59.171875 8.59375 
Q 54.296875 0.78125 41.40625 -9.765625 
Q 37.890625 -7.03125 33.984375 -4.6875 
z
M 34.765625 53.90625 
L 34.765625 72.265625 
L 18.359375 72.265625 
L 18.359375 53.90625 
z
" id="SimHei-36291"/>
     <path d="M 27.34375 26.171875 
Q 38.28125 25.78125 44.921875 25.78125 
L 81.25 25.78125 
Q 77.734375 19.53125 72.65625 13.28125 
Q 67.578125 7.03125 62.890625 3.125 
Q 67.96875 0.78125 77.34375 -0.78125 
Q 86.71875 -2.34375 95.3125 -2.34375 
Q 92.96875 -4.6875 91.015625 -10.15625 
Q 79.6875 -8.59375 71.09375 -6.4375 
Q 62.5 -4.296875 56.640625 -1.5625 
Q 48.4375 -5.078125 40.421875 -7.21875 
Q 32.421875 -9.375 23.828125 -10.546875 
Q 22.65625 -7.421875 19.140625 -3.90625 
Q 26.171875 -3.90625 35.15625 -1.953125 
Q 44.140625 0 50.78125 3.125 
Q 44.140625 8.59375 37.5 19.921875 
L 27.34375 19.53125 
z
M 46.484375 79.296875 
Q 50.78125 80.46875 54.296875 82.03125 
Q 56.640625 77.734375 58.984375 70.703125 
L 73.4375 70.703125 
Q 77.734375 70.703125 89.0625 71.09375 
L 89.0625 64.0625 
Q 78.125 64.453125 72.65625 64.453125 
L 21.484375 64.453125 
Q 21.484375 46.875 21.09375 36.125 
Q 20.703125 25.390625 18.9375 14.84375 
Q 17.1875 4.296875 11.328125 -8.203125 
Q 7.8125 -5.859375 3.90625 -4.6875 
Q 10.15625 6.25 11.90625 16.796875 
Q 13.671875 27.34375 13.859375 43.75 
Q 14.0625 60.15625 13.671875 70.703125 
L 50 70.703125 
Q 48.4375 75.78125 46.484375 79.296875 
z
M 38.671875 51.5625 
Q 38.671875 57.8125 38.28125 61.328125 
L 46.484375 61.328125 
Q 46.09375 58.203125 46.09375 51.5625 
L 67.1875 51.5625 
Q 67.1875 57.8125 66.796875 61.71875 
L 75 61.71875 
Q 74.609375 57.03125 74.609375 51.5625 
Q 83.203125 51.5625 89.453125 51.953125 
L 89.453125 45.3125 
Q 83.59375 45.703125 74.609375 45.703125 
Q 74.609375 35.15625 75 30.46875 
L 38.28125 30.46875 
Q 38.671875 36.71875 38.671875 45.703125 
Q 33.984375 45.703125 25 45.3125 
L 25 51.953125 
Q 33.984375 51.5625 38.671875 51.5625 
z
M 67.1875 36.71875 
L 67.1875 45.703125 
L 46.09375 45.703125 
L 46.09375 36.71875 
z
M 44.921875 19.921875 
Q 50 12.109375 57.03125 6.640625 
Q 62.890625 10.9375 69.140625 19.921875 
L 45.3125 19.921875 
z
" id="SimHei-24230"/>
    </defs>
    <g style="fill:#262626;" transform="translate(417.7 220.05)scale(0.12 -0.12)">
     <use xlink:href="#SimHei-29992"/>
     <use x="100" xlink:href="#SimHei-25143"/>
     <use x="200" xlink:href="#SimHei-27963"/>
     <use x="300" xlink:href="#SimHei-36291"/>
     <use x="400" xlink:href="#SimHei-24230"/>
    </g>
   </g>
   <g id="legend_1">
    <g id="patch_52">
     <path d="M 36.2 560.8 
L 128.2 560.8 
Q 130.2 560.8 130.2 558.8 
L 130.2 489.370312 
Q 130.2 487.370312 128.2 487.370312 
L 36.2 487.370312 
Q 34.2 487.370312 34.2 489.370312 
L 34.2 558.8 
Q 34.2 560.8 36.2 560.8 
z
" style="fill:#eaeaf2;opacity:0.8;stroke:#cccccc;stroke-linejoin:miter;"/>
    </g>
    <g id="text_35">
     <!-- user_type -->
     <defs>
      <path d="M 43.75 1.953125 
L 35.9375 1.953125 
L 35.9375 10.15625 
Q 32.8125 5.859375 29.09375 3.515625 
Q 25.390625 1.171875 19.53125 1.171875 
Q 12.5 1.171875 8.984375 5.078125 
Q 5.46875 8.984375 5.46875 14.84375 
L 5.46875 45.703125 
L 13.28125 45.703125 
L 13.28125 17.578125 
Q 13.28125 12.890625 15.625 10.15625 
Q 17.96875 7.421875 21.875 7.421875 
Q 26.953125 7.421875 31.4375 12.6875 
Q 35.9375 17.96875 35.9375 25.78125 
L 35.9375 45.703125 
L 43.75 45.703125 
z
" id="SimHei-117"/>
      <path d="M 42.96875 14.0625 
Q 42.96875 7.8125 38.078125 4.484375 
Q 33.203125 1.171875 25.78125 1.171875 
Q 16.40625 1.171875 11.328125 4.875 
Q 6.25 8.59375 6.25 15.625 
L 14.0625 15.625 
Q 14.0625 10.9375 17.375 9.375 
Q 20.703125 7.8125 25.390625 7.8125 
Q 30.078125 7.8125 32.421875 9.5625 
Q 34.765625 11.328125 34.765625 14.0625 
Q 34.765625 16.015625 32.8125 17.96875 
Q 30.859375 19.921875 23.046875 21.09375 
Q 14.0625 22.265625 10.734375 25.578125 
Q 7.421875 28.90625 7.421875 34.375 
Q 7.421875 39.0625 11.90625 42.765625 
Q 16.40625 46.484375 25 46.484375 
Q 32.8125 46.484375 37.296875 42.96875 
Q 41.796875 39.453125 41.796875 33.59375 
L 33.984375 33.59375 
Q 33.984375 37.109375 31.4375 38.46875 
Q 28.90625 39.84375 25 39.84375 
Q 19.921875 39.84375 17.765625 38.078125 
Q 15.625 36.328125 15.625 33.984375 
Q 15.625 31.25 17.578125 29.6875 
Q 19.53125 28.125 25.78125 27.34375 
Q 35.9375 25.78125 39.453125 22.453125 
Q 42.96875 19.140625 42.96875 14.0625 
z
" id="SimHei-115"/>
      <path d="M 39.0625 37.890625 
Q 31.640625 39.0625 26.5625 35.734375 
Q 21.484375 32.421875 17.96875 24.21875 
L 17.96875 1.953125 
L 10.15625 1.953125 
L 10.15625 45.703125 
L 17.96875 45.703125 
L 17.96875 34.375 
Q 21.484375 40.625 26.75 43.546875 
Q 32.03125 46.484375 39.0625 46.484375 
z
" id="SimHei-114"/>
      <path d="M 49.21875 -13.28125 
L 0 -13.28125 
L 0 -8.59375 
L 49.21875 -8.59375 
z
" id="SimHei-95"/>
      <path d="M 45.3125 45.703125 
L 27.34375 -1.5625 
Q 25.78125 -7.03125 22.65625 -9.765625 
Q 19.53125 -12.5 14.84375 -12.5 
Q 12.890625 -12.5 11.125 -12.296875 
Q 9.375 -12.109375 7.8125 -11.328125 
L 7.8125 -3.515625 
Q 9.375 -4.296875 10.9375 -4.6875 
Q 12.5 -5.078125 13.671875 -5.078125 
Q 16.796875 -5.078125 17.96875 -4.09375 
Q 19.140625 -3.125 20.3125 0.390625 
L 3.125 45.703125 
L 11.71875 45.703125 
L 24.21875 11.328125 
L 24.609375 11.328125 
L 36.71875 45.703125 
z
" id="SimHei-121"/>
      <path d="M 44.140625 23.828125 
Q 44.140625 12.5 38.671875 6.640625 
Q 33.203125 0.78125 25.390625 0.78125 
Q 21.09375 0.78125 17.96875 2.53125 
Q 14.84375 4.296875 12.5 7.8125 
L 12.5 -12.5 
L 4.6875 -12.5 
L 4.6875 45.703125 
L 12.5 45.703125 
L 12.5 39.84375 
Q 14.84375 43.359375 17.96875 44.921875 
Q 21.09375 46.484375 25.390625 46.484375 
Q 33.203125 46.484375 38.671875 40.8125 
Q 44.140625 35.15625 44.140625 23.828125 
z
M 35.546875 23.828125 
Q 35.546875 31.25 32.609375 35.34375 
Q 29.6875 39.453125 23.828125 39.453125 
Q 19.140625 39.453125 15.8125 35.34375 
Q 12.5 31.25 12.5 23.828125 
Q 12.5 16.40625 15.8125 12.109375 
Q 19.140625 7.8125 23.828125 7.8125 
Q 29.6875 7.8125 32.609375 12.109375 
Q 35.546875 16.40625 35.546875 23.828125 
z
" id="SimHei-112"/>
     </defs>
     <g style="fill:#262626;" transform="translate(59.7 498.245312)scale(0.1 -0.1)">
      <use xlink:href="#SimHei-117"/>
      <use x="50" xlink:href="#SimHei-115"/>
      <use x="100" xlink:href="#SimHei-101"/>
      <use x="150" xlink:href="#SimHei-114"/>
      <use x="200" xlink:href="#SimHei-95"/>
      <use x="250" xlink:href="#SimHei-116"/>
      <use x="300" xlink:href="#SimHei-121"/>
      <use x="350" xlink:href="#SimHei-112"/>
      <use x="400" xlink:href="#SimHei-101"/>
     </g>
    </g>
    <g id="patch_53">
     <path d="M 38.2 512.620312 
L 58.2 512.620312 
L 58.2 505.620312 
L 38.2 505.620312 
z
" style="fill:#08306b;stroke:#ffffff;stroke-linejoin:miter;"/>
    </g>
    <g id="text_36">
     <!-- 未使用用户 -->
     <defs>
      <path d="M 44.921875 64.84375 
Q 44.921875 76.5625 44.53125 81.640625 
L 53.125 81.640625 
Q 52.734375 76.953125 52.734375 64.84375 
L 69.921875 64.84375 
Q 77.34375 64.84375 83.984375 65.234375 
L 83.984375 58.203125 
Q 77.34375 58.59375 69.921875 58.59375 
L 52.734375 58.59375 
L 52.734375 42.96875 
L 75.78125 42.96875 
Q 84.375 42.96875 91.796875 43.359375 
L 91.796875 36.328125 
Q 84.375 36.71875 76.171875 36.71875 
L 57.421875 36.71875 
Q 64.453125 26.171875 72.84375 18.546875 
Q 81.25 10.9375 96.484375 6.640625 
Q 91.40625 4.296875 89.453125 -1.5625 
Q 78.90625 2.34375 69.71875 10.15625 
Q 60.546875 17.96875 52.734375 32.03125 
L 52.734375 4.6875 
Q 52.734375 -2.734375 53.125 -8.984375 
L 44.140625 -8.984375 
Q 44.921875 -2.734375 44.921875 4.6875 
L 44.921875 33.203125 
Q 35.546875 17.96875 26.5625 10.15625 
Q 17.578125 2.34375 10.546875 -2.34375 
Q 8.984375 1.171875 3.515625 4.6875 
Q 10.15625 7.03125 20.5 15.625 
Q 30.859375 24.21875 38.671875 36.71875 
L 19.140625 36.71875 
Q 10.546875 36.71875 5.859375 36.328125 
L 5.859375 43.359375 
Q 11.71875 42.96875 19.921875 42.96875 
L 44.921875 42.96875 
L 44.921875 58.59375 
L 28.515625 58.59375 
Q 19.140625 58.59375 13.28125 58.203125 
L 13.28125 65.234375 
Q 19.140625 64.84375 27.734375 64.84375 
z
" id="SimHei-26410"/>
      <path d="M 57.8125 68.359375 
Q 57.8125 76.953125 57.421875 82.03125 
Q 62.5 81.25 66.40625 80.859375 
Q 65.234375 76.953125 65.234375 68.359375 
L 77.734375 68.359375 
Q 86.328125 68.359375 93.359375 68.75 
L 93.359375 61.71875 
Q 85.9375 62.109375 77.734375 62.109375 
L 65.234375 62.109375 
L 65.234375 53.515625 
L 89.0625 53.515625 
Q 88.671875 48.046875 88.671875 41.796875 
Q 88.671875 35.9375 89.0625 29.6875 
L 64.84375 29.6875 
Q 64.0625 17.1875 60.546875 9.375 
Q 71.484375 -0.390625 95.3125 -0.78125 
Q 92.578125 -2.734375 91.015625 -8.203125 
Q 70.3125 -7.421875 55.859375 3.515625 
Q 46.875 -5.859375 33.984375 -10.546875 
Q 33.59375 -7.8125 28.515625 -4.6875 
Q 43.359375 -0.390625 50.390625 7.8125 
Q 43.75 14.453125 36.328125 23.4375 
Q 38.671875 24.609375 41.796875 27.734375 
Q 48.046875 19.140625 54.6875 14.0625 
Q 57.03125 20.703125 57.421875 29.6875 
L 34.375 29.6875 
Q 34.765625 35.9375 34.765625 42.1875 
Q 34.765625 48.4375 34.375 53.515625 
L 57.8125 53.515625 
L 57.8125 62.109375 
L 44.921875 62.109375 
Q 36.71875 62.109375 30.859375 61.71875 
L 30.859375 68.75 
Q 36.328125 68.359375 44.53125 68.359375 
z
M 30.078125 77.734375 
Q 28.125 75.390625 23.828125 63.28125 
L 23.828125 9.375 
Q 23.828125 0.78125 24.21875 -8.984375 
L 16.40625 -8.984375 
Q 16.796875 0.390625 16.796875 8.59375 
L 16.796875 50 
Q 11.328125 38.671875 9.375 35.15625 
Q 7.421875 38.671875 3.515625 41.015625 
Q 7.8125 46.875 13.859375 59.5625 
Q 19.921875 72.265625 21.09375 81.25 
L 30.078125 77.734375 
z
M 81.25 35.9375 
L 81.25 47.65625 
L 65.234375 47.65625 
L 65.234375 35.9375 
z
M 57.8125 35.9375 
L 57.8125 47.65625 
L 42.1875 47.65625 
L 42.1875 35.9375 
z
" id="SimHei-20351"/>
     </defs>
     <g style="fill:#262626;" transform="translate(66.2 512.620312)scale(0.1 -0.1)">
      <use xlink:href="#SimHei-26410"/>
      <use x="100" xlink:href="#SimHei-20351"/>
      <use x="200" xlink:href="#SimHei-29992"/>
      <use x="300" xlink:href="#SimHei-29992"/>
      <use x="400" xlink:href="#SimHei-25143"/>
     </g>
    </g>
    <g id="patch_54">
     <path d="M 38.2 526.917187 
L 58.2 526.917187 
L 58.2 519.917187 
L 38.2 519.917187 
z
" style="fill:#3787c0;stroke:#ffffff;stroke-linejoin:miter;"/>
    </g>
    <g id="text_37">
     <!-- 轻度使用用户 -->
     <defs>
      <path d="M 45.703125 15.234375 
Q 40.234375 14.0625 35.15625 12.890625 
Q 35.15625 -1.953125 35.546875 -10.546875 
L 27.734375 -10.546875 
Q 28.125 -2.734375 28.125 11.71875 
Q 13.28125 8.59375 8.984375 6.25 
Q 8.59375 9.765625 5.859375 14.84375 
Q 8.984375 14.84375 28.125 18.359375 
L 28.125 32.421875 
Q 23.4375 32.421875 19.328125 32.21875 
Q 15.234375 32.03125 9.765625 30.859375 
L 7.03125 37.890625 
Q 10.9375 39.453125 13.859375 46.875 
Q 16.796875 54.296875 18.75 61.328125 
Q 12.890625 61.328125 6.25 60.9375 
L 6.25 67.96875 
Q 12.890625 67.578125 20.3125 67.578125 
Q 21.875 74.21875 22.65625 82.03125 
Q 28.125 80.46875 32.8125 79.296875 
Q 30.078125 76.953125 27.734375 67.578125 
Q 37.5 67.578125 44.921875 67.96875 
L 44.921875 60.9375 
Q 37.890625 61.328125 26.171875 61.328125 
Q 21.875 47.265625 17.96875 38.671875 
L 28.125 38.671875 
Q 28.125 46.875 27.734375 52.734375 
L 35.9375 52.734375 
Q 35.15625 47.65625 35.15625 38.671875 
Q 39.453125 38.671875 43.75 39.0625 
L 43.75 32.03125 
Q 39.453125 32.421875 35.15625 32.421875 
L 35.15625 19.53125 
Q 40.234375 20.3125 45.3125 21.875 
Q 45.3125 19.140625 45.703125 15.234375 
z
M 44.140625 39.0625 
Q 54.6875 45.3125 62.109375 52.921875 
Q 69.53125 60.546875 73.4375 67.96875 
L 61.71875 67.96875 
Q 54.296875 67.96875 47.265625 67.578125 
L 47.265625 75 
Q 55.46875 74.609375 61.71875 74.609375 
L 85.9375 74.609375 
Q 80.46875 63.28125 75 56.25 
Q 88.28125 48.4375 95.703125 41.796875 
Q 92.1875 38.671875 90.234375 35.546875 
Q 82.421875 43.359375 70.703125 50 
Q 61.71875 41.015625 50.390625 33.203125 
Q 47.265625 37.109375 44.140625 39.0625 
z
M 96.09375 -5.46875 
Q 86.71875 -5.078125 77.734375 -5.078125 
L 62.5 -5.078125 
Q 55.078125 -5.078125 44.921875 -5.46875 
L 44.921875 1.953125 
Q 54.6875 1.5625 66.796875 1.5625 
L 66.796875 24.21875 
Q 55.859375 24.21875 50.390625 23.828125 
L 50.390625 30.859375 
Q 56.25 30.46875 68.75 30.46875 
Q 81.640625 30.46875 90.234375 30.859375 
L 90.234375 23.828125 
Q 85.15625 24.21875 73.828125 24.21875 
L 73.828125 1.5625 
Q 89.453125 1.5625 96.09375 1.953125 
z
" id="SimHei-36731"/>
     </defs>
     <g style="fill:#262626;" transform="translate(66.2 526.917187)scale(0.1 -0.1)">
      <use xlink:href="#SimHei-36731"/>
      <use x="100" xlink:href="#SimHei-24230"/>
      <use x="200" xlink:href="#SimHei-20351"/>
      <use x="300" xlink:href="#SimHei-29992"/>
      <use x="400" xlink:href="#SimHei-29992"/>
      <use x="500" xlink:href="#SimHei-25143"/>
     </g>
    </g>
    <g id="patch_55">
     <path d="M 38.2 541.253125 
L 58.2 541.253125 
L 58.2 534.253125 
L 38.2 534.253125 
z
" style="fill:#abd0e6;stroke:#ffffff;stroke-linejoin:miter;"/>
    </g>
    <g id="text_38">
     <!-- 中等使用用户 -->
     <defs>
      <path d="M 54.296875 81.25 
Q 53.90625 70.3125 53.90625 60.546875 
L 87.890625 60.546875 
Q 87.5 52.734375 87.5 39.0625 
Q 87.5 25.78125 87.890625 19.140625 
L 79.296875 19.140625 
L 79.296875 25 
L 53.90625 25 
L 53.90625 8.203125 
Q 53.90625 3.515625 54.296875 -9.375 
L 44.921875 -9.375 
Q 45.703125 -2.34375 45.703125 7.03125 
L 45.703125 25 
L 20.3125 25 
L 20.3125 19.140625 
L 11.71875 19.140625 
Q 12.109375 25 12.109375 39.0625 
Q 12.109375 53.515625 11.71875 60.546875 
L 45.703125 60.546875 
Q 45.703125 71.09375 45.3125 81.25 
z
M 79.296875 31.25 
L 79.296875 54.296875 
L 53.90625 54.296875 
L 53.90625 31.25 
z
M 45.703125 31.25 
L 45.703125 54.296875 
L 20.3125 54.296875 
L 20.3125 31.25 
z
" id="SimHei-20013"/>
      <path d="M 45.703125 53.90625 
Q 45.703125 56.640625 45.3125 61.71875 
L 53.90625 61.71875 
Q 53.515625 56.640625 53.515625 53.90625 
L 69.921875 53.90625 
Q 75.78125 53.90625 83.59375 54.296875 
L 83.59375 47.65625 
Q 76.171875 48.046875 70.3125 48.046875 
L 53.515625 48.046875 
L 53.515625 37.5 
L 81.640625 37.5 
Q 87.890625 37.5 95.703125 37.890625 
L 95.703125 30.859375 
Q 88.28125 31.25 81.640625 31.25 
L 73.4375 31.25 
L 73.4375 21.09375 
Q 83.203125 21.09375 89.84375 21.484375 
L 89.84375 14.453125 
Q 82.03125 14.84375 73.4375 14.84375 
L 73.4375 1.953125 
Q 73.828125 -5.078125 69.328125 -6.828125 
Q 64.84375 -8.59375 55.46875 -9.765625 
Q 54.6875 -5.078125 52.34375 -1.171875 
Q 58.984375 -1.5625 62.109375 -1.171875 
Q 65.234375 -0.78125 65.234375 4.296875 
L 65.234375 14.84375 
L 24.21875 14.84375 
Q 19.140625 14.84375 10.9375 14.453125 
L 10.9375 21.484375 
Q 18.75 21.09375 25.78125 21.09375 
L 65.234375 21.09375 
L 65.234375 31.25 
L 16.796875 31.25 
Q 11.71875 31.25 3.125 30.859375 
L 3.125 37.890625 
Q 11.71875 37.5 16.796875 37.5 
L 45.703125 37.5 
L 45.703125 48.046875 
L 30.078125 48.046875 
Q 24.609375 48.046875 16.40625 47.65625 
L 16.40625 54.296875 
Q 26.953125 53.90625 30.078125 53.90625 
z
M 28.515625 79.6875 
Q 26.171875 78.125 23.4375 73.828125 
L 37.5 73.828125 
Q 45.703125 73.828125 51.171875 74.21875 
L 51.171875 67.96875 
Q 46.875 68.359375 40.234375 68.359375 
L 35.546875 68.359375 
Q 37.5 65.234375 40.234375 60.15625 
Q 35.546875 58.59375 31.640625 57.421875 
Q 31.640625 58.203125 27.734375 68.359375 
L 20.703125 68.359375 
Q 17.578125 63.671875 11.71875 56.640625 
Q 8.203125 59.375 4.296875 60.9375 
Q 9.765625 65.234375 13.28125 70.703125 
Q 16.796875 76.171875 19.53125 82.8125 
Q 24.21875 80.859375 28.515625 79.6875 
z
M 57.8125 60.546875 
Q 54.6875 62.5 50.390625 63.671875 
Q 54.296875 66.796875 57.03125 71.484375 
Q 59.765625 76.171875 62.109375 82.03125 
Q 66.40625 80.46875 71.09375 78.90625 
Q 67.96875 76.171875 66.40625 73.4375 
L 82.421875 73.4375 
Q 85.15625 73.4375 95.703125 73.828125 
L 95.703125 67.578125 
Q 88.28125 67.96875 81.25 67.96875 
Q 85.546875 60.9375 87.5 58.203125 
Q 82.03125 57.03125 78.515625 55.859375 
Q 77.734375 59.375 73.4375 67.96875 
L 63.28125 67.96875 
Q 61.328125 64.84375 57.8125 60.546875 
z
M 40.234375 1.171875 
Q 36.71875 -0.78125 33.203125 -3.125 
Q 29.6875 3.515625 23.828125 9.765625 
Q 26.5625 11.328125 30.078125 14.0625 
Q 35.9375 7.8125 40.234375 1.171875 
z
" id="SimHei-31561"/>
     </defs>
     <g style="fill:#262626;" transform="translate(66.2 541.253125)scale(0.1 -0.1)">
      <use xlink:href="#SimHei-20013"/>
      <use x="100" xlink:href="#SimHei-31561"/>
      <use x="200" xlink:href="#SimHei-20351"/>
      <use x="300" xlink:href="#SimHei-29992"/>
      <use x="400" xlink:href="#SimHei-29992"/>
      <use x="500" xlink:href="#SimHei-25143"/>
     </g>
    </g>
    <g id="patch_56">
     <path d="M 38.2 555.55 
L 58.2 555.55 
L 58.2 548.55 
L 38.2 548.55 
z
" style="fill:#f7fbff;stroke:#ffffff;stroke-linejoin:miter;"/>
    </g>
    <g id="text_39">
     <!-- 重度使用用户 -->
     <defs>
      <path d="M 82.8125 71.484375 
Q 60.9375 69.53125 53.515625 68.75 
L 53.515625 60.546875 
L 80.46875 60.546875 
Q 85.9375 60.546875 93.75 60.9375 
L 93.75 53.90625 
Q 85.9375 54.296875 80.46875 54.296875 
L 53.515625 54.296875 
L 53.515625 47.65625 
L 80.46875 47.65625 
Q 80.078125 41.796875 80.078125 33.203125 
Q 80.078125 24.609375 80.46875 18.359375 
L 53.515625 18.359375 
L 53.515625 11.71875 
L 71.09375 11.71875 
Q 78.125 11.71875 85.9375 12.109375 
L 85.9375 5.859375 
Q 78.515625 6.25 71.484375 6.25 
L 53.515625 6.25 
L 53.515625 -0.78125 
L 78.90625 -0.78125 
Q 85.546875 -0.78125 93.359375 -0.390625 
L 93.359375 -7.03125 
Q 85.546875 -6.640625 79.296875 -6.640625 
L 23.046875 -6.640625 
Q 15.234375 -6.640625 7.03125 -7.03125 
L 7.03125 -0.390625 
Q 15.234375 -0.78125 22.65625 -0.78125 
L 45.703125 -0.78125 
L 45.703125 6.25 
L 32.03125 6.25 
Q 22.65625 6.25 14.84375 5.859375 
L 14.84375 12.109375 
Q 25 11.71875 32.421875 11.71875 
L 45.703125 11.71875 
L 45.703125 18.359375 
L 19.53125 18.359375 
Q 19.921875 28.125 19.921875 33.203125 
Q 19.921875 38.28125 19.53125 47.65625 
L 45.703125 47.65625 
L 45.703125 54.296875 
L 19.140625 54.296875 
Q 13.671875 54.296875 6.25 53.90625 
L 6.25 60.9375 
Q 13.671875 60.546875 19.140625 60.546875 
L 45.703125 60.546875 
L 45.703125 68.359375 
Q 37.890625 67.96875 16.796875 66.40625 
Q 15.625 69.921875 13.671875 73.046875 
Q 35.546875 73.4375 52.53125 75.1875 
Q 69.53125 76.953125 76.953125 79.296875 
Q 78.515625 75.390625 82.8125 71.484375 
z
M 72.65625 35.9375 
L 72.65625 41.40625 
L 53.515625 41.40625 
L 53.515625 35.9375 
z
M 45.703125 35.9375 
L 45.703125 41.40625 
L 27.34375 41.40625 
L 27.34375 35.9375 
z
M 72.265625 24.609375 
L 72.265625 29.6875 
L 53.515625 29.6875 
L 53.515625 24.609375 
z
M 45.703125 24.609375 
L 45.703125 29.6875 
L 27.34375 29.6875 
L 27.34375 24.609375 
z
" id="SimHei-37325"/>
     </defs>
     <g style="fill:#262626;" transform="translate(66.2 555.55)scale(0.1 -0.1)">
      <use xlink:href="#SimHei-37325"/>
      <use x="100" xlink:href="#SimHei-24230"/>
      <use x="200" xlink:href="#SimHei-20351"/>
      <use x="300" xlink:href="#SimHei-29992"/>
      <use x="400" xlink:href="#SimHei-29992"/>
      <use x="500" xlink:href="#SimHei-25143"/>
     </g>
    </g>
   </g>
  </g>
 </g>
 <defs>
  <clipPath id="pe0d3cb38e4">
   <rect height="135.9" width="837" x="29.2" y="22.2"/>
  </clipPath>
  <clipPath id="pbb4c07c2fb">
   <rect height="339.75" width="837" x="29.2" y="226.05"/>
  </clipPath>
 </defs>
</svg>
