<?xml version="1.0" encoding="utf-8" standalone="no"?>
<!DOCTYPE svg PUBLIC "-//W3C//DTD SVG 1.1//EN"
  "http://www.w3.org/Graphics/SVG/1.1/DTD/svg11.dtd">
<!-- Created with matplotlib (https://matplotlib.org/) -->
<svg height="273.715pt" version="1.1" viewBox="0 0 383.3625 273.715" width="383.3625pt" xmlns="http://www.w3.org/2000/svg" xmlns:xlink="http://www.w3.org/1999/xlink">
 <defs>
  <style type="text/css">
*{stroke-linecap:butt;stroke-linejoin:round;}
  </style>
 </defs>
 <g id="figure_1">
  <g id="patch_1">
   <path d="M 0 273.715 
L 383.3625 273.715 
L 383.3625 0 
L 0 0 
z
" style="fill:#ffffff;"/>
  </g>
  <g id="axes_1">
   <g id="patch_2">
    <path d="M 41.3625 238.3275 
L 376.1625 238.3275 
L 376.1625 20.8875 
L 41.3625 20.8875 
z
" style="fill:#ffffff;"/>
   </g>
   <g id="matplotlib.axis_1">
    <g id="xtick_1">
     <g id="line2d_1">
      <path clip-path="url(#pfd5057544f)" d="M 56.580682 238.3275 
L 56.580682 20.8875 
" style="fill:none;stroke:#cccccc;stroke-linecap:round;stroke-width:0.8;"/>
     </g>
     <g id="text_1">
      <!-- 0.0 -->
      <defs>
       <path d="M 3.125 29.296875 
Q 3.90625 50 6.4375 56.046875 
Q 8.984375 62.109375 13.671875 66.015625 
Q 18.359375 69.921875 25.1875 69.921875 
Q 32.03125 69.921875 37.109375 64.25 
Q 42.1875 58.59375 43.75 50 
Q 45.3125 41.40625 44.71875 30.265625 
Q 44.140625 19.140625 40.8125 12.109375 
Q 37.5 5.078125 30.859375 2.34375 
Q 24.21875 -0.390625 17.578125 2.921875 
Q 10.9375 6.25 8.203125 11.71875 
Q 5.46875 17.1875 4.296875 23.234375 
Q 3.125 29.296875 3.90625 50 
z
M 12.890625 52.734375 
Q 10.546875 31.25 12.5 22.84375 
Q 14.453125 14.453125 18.9375 10.9375 
Q 23.4375 7.421875 28.125 9.5625 
Q 32.8125 11.71875 34.953125 18.15625 
Q 37.109375 24.609375 37.109375 32.21875 
Q 37.109375 39.84375 36.515625 46.09375 
Q 35.9375 52.34375 33 57.421875 
Q 30.078125 62.5 25.1875 62.6875 
Q 20.3125 62.890625 16.59375 57.8125 
Q 12.890625 52.734375 10.546875 31.25 
z
" id="SimHei-48"/>
       <path d="M 16.796875 1.953125 
L 7.8125 1.953125 
L 7.8125 10.546875 
L 16.796875 10.546875 
z
" id="SimHei-46"/>
      </defs>
      <g style="fill:#262626;" transform="translate(49.980682 252.6775)scale(0.088 -0.088)">
       <use xlink:href="#SimHei-48"/>
       <use x="50" xlink:href="#SimHei-46"/>
       <use x="100" xlink:href="#SimHei-48"/>
      </g>
     </g>
    </g>
    <g id="xtick_2">
     <g id="line2d_2">
      <path clip-path="url(#pfd5057544f)" d="M 117.453409 238.3275 
L 117.453409 20.8875 
" style="fill:none;stroke:#cccccc;stroke-linecap:round;stroke-width:0.8;"/>
     </g>
     <g id="text_2">
      <!-- 0.2 -->
      <defs>
       <path d="M 4.6875 3.90625 
Q 5.078125 9.765625 10.15625 14.453125 
Q 15.234375 19.140625 23.046875 29.09375 
Q 30.859375 39.0625 33.203125 44.53125 
Q 35.546875 50 34.953125 53.90625 
Q 34.375 57.8125 31.25 60.34375 
Q 28.125 62.890625 24.015625 62.5 
Q 19.921875 62.109375 16.203125 59.375 
Q 12.5 56.640625 10.546875 51.171875 
L 3.125 52.34375 
Q 6.25 61.328125 11.125 65.421875 
Q 16.015625 69.53125 22.65625 69.921875 
Q 26.5625 70.3125 29.6875 69.71875 
Q 32.8125 69.140625 36.125 66.984375 
Q 39.453125 64.84375 41.59375 60.546875 
Q 43.75 56.25 43.15625 50.1875 
Q 42.578125 44.140625 37.109375 35.734375 
Q 31.640625 27.34375 16.015625 9.375 
L 44.140625 9.375 
L 44.140625 2.34375 
L 4.6875 2.34375 
z
" id="SimHei-50"/>
      </defs>
      <g style="fill:#262626;" transform="translate(110.853409 252.6775)scale(0.088 -0.088)">
       <use xlink:href="#SimHei-48"/>
       <use x="50" xlink:href="#SimHei-46"/>
       <use x="100" xlink:href="#SimHei-50"/>
      </g>
     </g>
    </g>
    <g id="xtick_3">
     <g id="line2d_3">
      <path clip-path="url(#pfd5057544f)" d="M 178.326136 238.3275 
L 178.326136 20.8875 
" style="fill:none;stroke:#cccccc;stroke-linecap:round;stroke-width:0.8;"/>
     </g>
     <g id="text_3">
      <!-- 0.4 -->
      <defs>
       <path d="M 31.25 17.1875 
L 1.171875 17.1875 
L 1.171875 23.828125 
L 32.8125 69.53125 
L 38.671875 69.53125 
L 38.671875 23.828125 
L 48.046875 23.828125 
L 48.046875 17.1875 
L 38.671875 17.1875 
L 38.671875 2.34375 
L 31.25 2.34375 
z
M 31.25 23.828125 
L 31.25 54.6875 
L 9.375 23.828125 
z
" id="SimHei-52"/>
      </defs>
      <g style="fill:#262626;" transform="translate(171.726136 252.6775)scale(0.088 -0.088)">
       <use xlink:href="#SimHei-48"/>
       <use x="50" xlink:href="#SimHei-46"/>
       <use x="100" xlink:href="#SimHei-52"/>
      </g>
     </g>
    </g>
    <g id="xtick_4">
     <g id="line2d_4">
      <path clip-path="url(#pfd5057544f)" d="M 239.198864 238.3275 
L 239.198864 20.8875 
" style="fill:none;stroke:#cccccc;stroke-linecap:round;stroke-width:0.8;"/>
     </g>
     <g id="text_4">
      <!-- 0.6 -->
      <defs>
       <path d="M 3.515625 19.53125 
Q 4.296875 30.859375 6.046875 34.765625 
Q 7.8125 38.671875 11.328125 44.53125 
L 27.34375 69.53125 
L 36.328125 69.53125 
L 19.921875 43.75 
Q 30.46875 46.484375 36.71875 42.96875 
Q 42.96875 39.453125 45.109375 34.953125 
Q 47.265625 30.46875 47.453125 25.1875 
Q 47.65625 19.921875 45.890625 14.84375 
Q 44.140625 9.765625 39.640625 5.65625 
Q 35.15625 1.5625 27.140625 1.171875 
Q 19.140625 0.78125 13.46875 4.09375 
Q 7.8125 7.421875 5.65625 13.46875 
Q 3.515625 19.53125 4.296875 30.859375 
z
M 12.5 16.015625 
Q 19.53125 8.59375 25.390625 8.203125 
Q 31.25 7.8125 35.15625 12.109375 
Q 39.0625 16.40625 39.0625 24.609375 
Q 39.0625 32.8125 34.171875 35.9375 
Q 29.296875 39.0625 23.234375 38.28125 
Q 17.1875 37.5 14.453125 32.421875 
Q 11.71875 27.34375 12.109375 21.671875 
Q 12.5 16.015625 19.53125 8.59375 
z
" id="SimHei-54"/>
      </defs>
      <g style="fill:#262626;" transform="translate(232.598864 252.6775)scale(0.088 -0.088)">
       <use xlink:href="#SimHei-48"/>
       <use x="50" xlink:href="#SimHei-46"/>
       <use x="100" xlink:href="#SimHei-54"/>
      </g>
     </g>
    </g>
    <g id="xtick_5">
     <g id="line2d_5">
      <path clip-path="url(#pfd5057544f)" d="M 300.071591 238.3275 
L 300.071591 20.8875 
" style="fill:none;stroke:#cccccc;stroke-linecap:round;stroke-width:0.8;"/>
     </g>
     <g id="text_5">
      <!-- 0.8 -->
      <defs>
       <path d="M 2.734375 16.796875 
Q 2.734375 26.171875 5.078125 30.65625 
Q 7.421875 35.15625 12.890625 37.890625 
Q 8.203125 40.625 6.640625 43.9375 
Q 5.078125 47.265625 4.875 51.5625 
Q 4.6875 55.859375 6.046875 58.984375 
Q 7.421875 62.109375 10.15625 64.84375 
Q 12.890625 67.578125 16.203125 68.546875 
Q 19.53125 69.53125 23.4375 69.53125 
Q 27.34375 69.53125 30.46875 68.75 
Q 33.59375 67.96875 37.109375 65.421875 
Q 40.625 62.890625 42.1875 58.203125 
Q 43.75 53.515625 41.984375 47.265625 
Q 40.234375 41.015625 32.8125 37.5 
Q 39.453125 35.546875 42.1875 31.4375 
Q 44.921875 27.34375 44.921875 21.484375 
Q 44.921875 15.625 43.15625 12.109375 
Q 41.40625 8.59375 39.25 6.25 
Q 37.109375 3.90625 33.390625 2.53125 
Q 29.6875 1.171875 24.015625 1.171875 
Q 18.359375 1.171875 14.25 2.53125 
Q 10.15625 3.90625 7.421875 6.640625 
Q 4.6875 9.375 3.703125 13.078125 
Q 2.734375 16.796875 2.734375 26.171875 
z
M 10.9375 26.5625 
Q 10.546875 17.1875 12.296875 13.671875 
Q 14.0625 10.15625 18.75 9.171875 
Q 23.4375 8.203125 28.515625 9.375 
Q 33.59375 10.546875 35.546875 14.84375 
Q 37.5 19.140625 36.90625 23.4375 
Q 36.328125 27.734375 32.03125 30.65625 
Q 27.734375 33.59375 22.65625 33.203125 
Q 17.578125 32.8125 14.25 29.6875 
Q 10.9375 26.5625 10.546875 17.1875 
z
M 12.109375 56.25 
Q 12.109375 48.4375 14.84375 44.921875 
Q 17.578125 41.40625 23.4375 41.40625 
Q 29.296875 41.40625 32.21875 44.921875 
Q 35.15625 48.4375 34.953125 53.3125 
Q 34.765625 58.203125 31.4375 60.546875 
Q 28.125 62.890625 22.453125 62.5 
Q 16.796875 62.109375 14.453125 59.171875 
Q 12.109375 56.25 12.109375 48.4375 
z
" id="SimHei-56"/>
      </defs>
      <g style="fill:#262626;" transform="translate(293.471591 252.6775)scale(0.088 -0.088)">
       <use xlink:href="#SimHei-48"/>
       <use x="50" xlink:href="#SimHei-46"/>
       <use x="100" xlink:href="#SimHei-56"/>
      </g>
     </g>
    </g>
    <g id="xtick_6">
     <g id="line2d_6">
      <path clip-path="url(#pfd5057544f)" d="M 360.944318 238.3275 
L 360.944318 20.8875 
" style="fill:none;stroke:#cccccc;stroke-linecap:round;stroke-width:0.8;"/>
     </g>
     <g id="text_6">
      <!-- 1.0 -->
      <defs>
       <path d="M 21.875 56.25 
Q 16.796875 51.171875 8.984375 46.484375 
L 8.984375 53.90625 
Q 18.75 60.546875 25 69.53125 
L 29.6875 69.53125 
L 29.6875 2.34375 
L 21.875 2.34375 
z
" id="SimHei-49"/>
      </defs>
      <g style="fill:#262626;" transform="translate(354.344318 252.6775)scale(0.088 -0.088)">
       <use xlink:href="#SimHei-49"/>
       <use x="50" xlink:href="#SimHei-46"/>
       <use x="100" xlink:href="#SimHei-48"/>
      </g>
     </g>
    </g>
    <g id="text_7">
     <!-- 假正率 -->
     <defs>
      <path d="M 59.375 75 
Q 58.984375 70.703125 58.984375 62.109375 
Q 58.984375 53.515625 59.375 48.046875 
L 39.0625 48.046875 
L 39.0625 37.5 
L 47.265625 37.5 
Q 50.78125 37.5 56.640625 37.890625 
L 56.640625 30.859375 
Q 50.78125 31.25 47.265625 31.25 
L 39.0625 31.25 
L 39.0625 19.53125 
L 46.484375 19.53125 
Q 52.34375 19.53125 57.03125 19.921875 
L 57.03125 12.890625 
Q 52.734375 13.28125 46.484375 13.28125 
L 39.0625 13.28125 
L 39.0625 -8.984375 
L 32.421875 -8.984375 
Q 32.8125 -2.734375 32.8125 3.90625 
L 32.8125 63.28125 
Q 32.8125 71.484375 32.421875 75 
z
M 90.625 39.453125 
Q 88.671875 21.484375 80.46875 7.03125 
Q 87.5 -0.390625 96.09375 -4.296875 
Q 92.96875 -7.03125 90.625 -10.546875 
Q 84.375 -6.640625 76.171875 1.953125 
Q 67.96875 -5.859375 57.8125 -10.546875 
Q 55.859375 -7.03125 52.734375 -4.296875 
Q 64.453125 -0.78125 72.265625 7.421875 
Q 66.40625 17.1875 63.28125 33.203125 
L 61.328125 32.8125 
L 61.328125 39.84375 
Q 66.015625 39.453125 75 39.453125 
z
M 16.796875 45.703125 
Q 14.0625 39.84375 10.15625 32.8125 
Q 7.8125 35.15625 3.90625 38.28125 
Q 8.59375 42.1875 14.25 55.859375 
Q 19.921875 69.53125 21.875 79.6875 
Q 25.78125 77.34375 30.859375 76.171875 
Q 29.296875 75 27.53125 70.5 
Q 25.78125 66.015625 23.4375 58.59375 
L 23.4375 7.421875 
Q 23.4375 -2.734375 23.828125 -8.984375 
L 16.40625 -8.984375 
Q 16.796875 -1.953125 16.796875 7.8125 
z
M 90.234375 75.78125 
Q 89.84375 71.484375 89.640625 62.109375 
Q 89.453125 52.734375 90.234375 48.046875 
L 78.90625 48.046875 
Q 70.703125 48.046875 64.0625 47.65625 
L 64.0625 54.296875 
Q 70.3125 53.90625 78.515625 53.90625 
L 82.8125 53.90625 
L 82.8125 69.921875 
L 78.90625 69.921875 
Q 69.921875 69.921875 64.84375 69.53125 
L 64.84375 76.171875 
Q 70.3125 75.78125 77.34375 75.78125 
z
M 52.34375 54.296875 
L 52.34375 68.75 
L 39.0625 68.75 
L 39.0625 54.296875 
z
M 69.53125 33.203125 
Q 72.65625 18.75 76.5625 13.28125 
Q 81.640625 21.875 82.8125 33.203125 
L 69.53125 33.203125 
z
" id="SimHei-20551"/>
      <path d="M 75.390625 72.265625 
Q 82.8125 72.265625 88.671875 72.65625 
L 88.671875 64.84375 
Q 82.8125 65.234375 74.609375 65.234375 
L 55.859375 65.234375 
L 55.859375 40.625 
L 75.78125 40.625 
Q 82.03125 40.625 86.71875 41.015625 
L 86.71875 33.59375 
Q 82.03125 33.984375 75.78125 33.984375 
L 55.859375 33.984375 
L 55.859375 2.34375 
L 75.78125 2.34375 
Q 83.984375 2.34375 92.1875 2.734375 
L 92.1875 -5.078125 
Q 83.984375 -4.6875 77.734375 -4.6875 
L 18.359375 -4.6875 
Q 10.9375 -4.6875 5.859375 -5.078125 
L 5.859375 2.734375 
Q 10.9375 2.34375 18.359375 2.34375 
L 20.703125 2.34375 
L 20.703125 36.71875 
Q 20.703125 43.75 20.3125 48.828125 
L 29.296875 48.828125 
Q 28.90625 44.140625 28.90625 36.71875 
L 28.90625 2.34375 
L 48.046875 2.34375 
L 48.046875 65.234375 
L 25.390625 65.234375 
Q 17.96875 65.234375 12.5 64.84375 
L 12.5 72.65625 
Q 17.96875 72.265625 25.390625 72.265625 
z
" id="SimHei-27491"/>
      <path d="M 51.953125 80.46875 
Q 53.515625 76.5625 55.46875 70.703125 
L 75 70.703125 
Q 82.03125 70.703125 90.625 71.09375 
L 90.625 64.453125 
Q 82.03125 65.234375 74.609375 65.234375 
L 43.75 65.234375 
Q 46.484375 63.28125 51.5625 60.9375 
Q 48.046875 58.59375 44.921875 55.265625 
Q 41.796875 51.953125 38.671875 48.828125 
L 51.171875 48.828125 
Q 55.859375 53.515625 58.984375 58.984375 
Q 62.5 56.25 66.796875 53.515625 
Q 61.71875 50.78125 56.25 44.921875 
Q 50.78125 39.0625 41.015625 31.25 
L 60.15625 32.8125 
Q 58.203125 35.15625 56.25 37.890625 
Q 58.59375 38.671875 62.5 41.40625 
Q 66.40625 36.71875 73.4375 26.5625 
Q 69.921875 25.390625 66.015625 22.65625 
Q 65.234375 25 62.890625 27.734375 
Q 57.8125 27.34375 53.515625 27.34375 
L 53.515625 16.40625 
L 80.46875 16.40625 
Q 88.671875 16.40625 95.3125 16.796875 
L 95.3125 10.15625 
Q 89.0625 10.546875 80.078125 10.546875 
L 53.515625 10.546875 
L 53.515625 2.734375 
Q 53.515625 -4.6875 53.90625 -9.765625 
L 45.3125 -9.765625 
Q 45.703125 -4.6875 45.703125 2.734375 
L 45.703125 10.546875 
L 20.703125 10.546875 
Q 12.890625 10.546875 5.078125 10.15625 
L 5.078125 16.796875 
Q 12.890625 16.40625 21.09375 16.40625 
L 45.703125 16.40625 
L 45.703125 26.5625 
Q 42.1875 26.171875 38.671875 25.578125 
Q 35.15625 25 31.640625 23.828125 
Q 30.46875 27.734375 28.90625 31.25 
Q 32.421875 31.640625 36.328125 34.375 
Q 40.234375 37.109375 46.484375 43.75 
Q 35.9375 42.578125 31.640625 41.015625 
Q 30.859375 44.921875 28.90625 49.609375 
Q 32.421875 49.609375 36.328125 54.484375 
Q 40.234375 59.375 42.96875 65.234375 
L 26.5625 65.234375 
Q 17.96875 65.234375 10.15625 64.453125 
L 10.15625 71.09375 
Q 17.96875 70.703125 24.21875 70.703125 
L 46.484375 70.703125 
Q 45.3125 75.390625 43.75 78.515625 
Q 47.265625 79.296875 51.953125 80.46875 
z
M 25.390625 40.234375 
Q 26.953125 37.5 28.515625 34.375 
Q 24.609375 32.03125 20.703125 29.09375 
Q 16.796875 26.171875 12.5 22.265625 
Q 9.765625 26.171875 7.421875 29.296875 
Q 12.5 31.640625 17.1875 34.5625 
Q 21.875 37.5 25.390625 40.234375 
z
M 75.78125 41.40625 
Q 80.078125 38.671875 83.390625 36.515625 
Q 86.71875 34.375 91.796875 30.46875 
Q 88.671875 28.125 85.9375 25 
Q 82.8125 27.734375 79.09375 30.859375 
Q 75.390625 33.984375 71.484375 36.328125 
Q 73.828125 38.671875 75.78125 41.40625 
z
M 89.453125 55.078125 
Q 86.71875 53.90625 82.8125 50.96875 
Q 78.90625 48.046875 75 44.140625 
Q 72.265625 47.65625 69.921875 49.609375 
Q 73.4375 51.953125 76.171875 54.484375 
Q 78.90625 57.03125 82.8125 61.328125 
Q 86.328125 57.8125 89.453125 55.078125 
z
M 16.40625 60.15625 
Q 22.265625 56.25 27.734375 51.171875 
Q 24.609375 48.4375 22.265625 45.703125 
Q 16.796875 51.5625 10.546875 55.078125 
Q 13.671875 57.8125 16.40625 60.15625 
z
" id="SimHei-29575"/>
     </defs>
     <g style="fill:#262626;" transform="translate(194.3625 265.315)scale(0.096 -0.096)">
      <use xlink:href="#SimHei-20551"/>
      <use x="100" xlink:href="#SimHei-27491"/>
      <use x="200" xlink:href="#SimHei-29575"/>
     </g>
    </g>
   </g>
   <g id="matplotlib.axis_2">
    <g id="ytick_1">
     <g id="line2d_7">
      <path clip-path="url(#pfd5057544f)" d="M 41.3625 228.443864 
L 376.1625 228.443864 
" style="fill:none;stroke:#cccccc;stroke-linecap:round;stroke-width:0.8;"/>
     </g>
     <g id="text_8">
      <!-- 0.0 -->
      <g style="fill:#262626;" transform="translate(19.8625 231.468864)scale(0.088 -0.088)">
       <use xlink:href="#SimHei-48"/>
       <use x="50" xlink:href="#SimHei-46"/>
       <use x="100" xlink:href="#SimHei-48"/>
      </g>
     </g>
    </g>
    <g id="ytick_2">
     <g id="line2d_8">
      <path clip-path="url(#pfd5057544f)" d="M 41.3625 188.909318 
L 376.1625 188.909318 
" style="fill:none;stroke:#cccccc;stroke-linecap:round;stroke-width:0.8;"/>
     </g>
     <g id="text_9">
      <!-- 0.2 -->
      <g style="fill:#262626;" transform="translate(19.8625 191.934318)scale(0.088 -0.088)">
       <use xlink:href="#SimHei-48"/>
       <use x="50" xlink:href="#SimHei-46"/>
       <use x="100" xlink:href="#SimHei-50"/>
      </g>
     </g>
    </g>
    <g id="ytick_3">
     <g id="line2d_9">
      <path clip-path="url(#pfd5057544f)" d="M 41.3625 149.374773 
L 376.1625 149.374773 
" style="fill:none;stroke:#cccccc;stroke-linecap:round;stroke-width:0.8;"/>
     </g>
     <g id="text_10">
      <!-- 0.4 -->
      <g style="fill:#262626;" transform="translate(19.8625 152.399773)scale(0.088 -0.088)">
       <use xlink:href="#SimHei-48"/>
       <use x="50" xlink:href="#SimHei-46"/>
       <use x="100" xlink:href="#SimHei-52"/>
      </g>
     </g>
    </g>
    <g id="ytick_4">
     <g id="line2d_10">
      <path clip-path="url(#pfd5057544f)" d="M 41.3625 109.840227 
L 376.1625 109.840227 
" style="fill:none;stroke:#cccccc;stroke-linecap:round;stroke-width:0.8;"/>
     </g>
     <g id="text_11">
      <!-- 0.6 -->
      <g style="fill:#262626;" transform="translate(19.8625 112.865227)scale(0.088 -0.088)">
       <use xlink:href="#SimHei-48"/>
       <use x="50" xlink:href="#SimHei-46"/>
       <use x="100" xlink:href="#SimHei-54"/>
      </g>
     </g>
    </g>
    <g id="ytick_5">
     <g id="line2d_11">
      <path clip-path="url(#pfd5057544f)" d="M 41.3625 70.305682 
L 376.1625 70.305682 
" style="fill:none;stroke:#cccccc;stroke-linecap:round;stroke-width:0.8;"/>
     </g>
     <g id="text_12">
      <!-- 0.8 -->
      <g style="fill:#262626;" transform="translate(19.8625 73.330682)scale(0.088 -0.088)">
       <use xlink:href="#SimHei-48"/>
       <use x="50" xlink:href="#SimHei-46"/>
       <use x="100" xlink:href="#SimHei-56"/>
      </g>
     </g>
    </g>
    <g id="ytick_6">
     <g id="line2d_12">
      <path clip-path="url(#pfd5057544f)" d="M 41.3625 30.771136 
L 376.1625 30.771136 
" style="fill:none;stroke:#cccccc;stroke-linecap:round;stroke-width:0.8;"/>
     </g>
     <g id="text_13">
      <!-- 1.0 -->
      <g style="fill:#262626;" transform="translate(19.8625 33.796136)scale(0.088 -0.088)">
       <use xlink:href="#SimHei-49"/>
       <use x="50" xlink:href="#SimHei-46"/>
       <use x="100" xlink:href="#SimHei-48"/>
      </g>
     </g>
    </g>
    <g id="text_14">
     <!-- 真正率 -->
     <defs>
      <path d="M 55.46875 79.6875 
Q 53.90625 76.953125 53.125 72.265625 
L 75.78125 72.265625 
Q 80.859375 72.265625 89.453125 72.65625 
L 89.453125 66.40625 
Q 81.25 66.796875 75.78125 66.796875 
L 52.34375 66.796875 
L 51.5625 60.15625 
L 78.90625 60.15625 
Q 78.515625 55.46875 78.515625 49.21875 
L 78.515625 16.796875 
L 84.375 16.796875 
Q 90.625 16.796875 94.921875 17.1875 
L 94.921875 9.765625 
Q 87.109375 10.15625 76.5625 10.15625 
L 22.65625 10.15625 
Q 12.109375 10.15625 5.46875 9.765625 
L 5.46875 17.1875 
Q 11.328125 16.796875 17.1875 16.796875 
L 22.265625 16.796875 
L 22.265625 48.046875 
Q 22.265625 53.90625 21.875 60.15625 
L 44.140625 60.15625 
L 44.53125 66.796875 
L 21.875 66.796875 
Q 16.40625 66.796875 9.765625 66.40625 
L 9.765625 72.65625 
Q 18.359375 72.265625 21.484375 72.265625 
L 45.703125 72.265625 
Q 46.09375 76.171875 46.09375 80.078125 
Q 51.5625 79.6875 55.46875 79.6875 
z
M 63.671875 8.203125 
Q 70.3125 6.640625 76.953125 3.90625 
Q 83.59375 1.171875 91.015625 -2.34375 
Q 86.71875 -6.640625 85.15625 -8.984375 
Q 78.515625 -4.6875 71.09375 -1.5625 
Q 63.671875 1.5625 59.375 2.734375 
Q 61.328125 5.46875 63.671875 8.203125 
z
M 70.703125 49.21875 
L 70.703125 54.296875 
L 30.078125 54.296875 
L 30.078125 49.21875 
z
M 70.703125 16.796875 
L 70.703125 21.875 
L 30.078125 21.875 
L 30.078125 16.796875 
z
M 43.359375 3.125 
Q 37.109375 -0.390625 29.296875 -3.515625 
Q 21.484375 -6.640625 14.84375 -8.984375 
Q 12.109375 -6.25 9.375 -3.90625 
Q 19.140625 -0.78125 25.390625 2.140625 
Q 31.640625 5.078125 36.71875 8.203125 
Q 39.84375 5.46875 43.359375 3.125 
z
M 70.703125 27.734375 
L 70.703125 32.421875 
L 30.078125 32.421875 
L 30.078125 27.734375 
z
M 70.703125 38.671875 
L 70.703125 43.359375 
L 30.078125 43.359375 
L 30.078125 38.671875 
z
" id="SimHei-30495"/>
     </defs>
     <g style="fill:#262626;" transform="translate(14.6625 144.0075)rotate(-90)scale(0.096 -0.096)">
      <use xlink:href="#SimHei-30495"/>
      <use x="100" xlink:href="#SimHei-27491"/>
      <use x="200" xlink:href="#SimHei-29575"/>
     </g>
    </g>
   </g>
   <g id="line2d_13">
    <path clip-path="url(#pfd5057544f)" d="M 56.580682 228.443864 
L 56.639507 224.319072 
L 56.698333 224.319072 
L 56.757159 222.309557 
L 56.87481 222.203794 
L 56.933635 220.828863 
L 56.992461 220.828863 
L 56.992461 220.19428 
L 57.110112 220.19428 
L 57.168938 219.136641 
L 57.227763 219.136641 
L 57.227763 218.184765 
L 57.40424 218.079002 
L 57.463066 217.23289 
L 57.521891 217.23289 
L 57.580717 216.069487 
L 57.639543 216.069487 
L 57.698368 215.434904 
L 57.757194 215.434904 
L 57.816019 213.319626 
L 57.874845 213.319626 
L 57.933671 212.261987 
L 57.992496 212.261987 
L 57.992496 212.050459 
L 58.110147 212.050459 
L 58.168973 209.406362 
L 58.463101 209.300598 
L 58.521927 208.983306 
L 58.639578 208.877542 
L 58.698403 207.291084 
L 58.757229 207.291084 
L 58.757229 207.079556 
L 58.992531 206.973792 
L 59.051357 206.233445 
L 59.110182 206.233445 
L 59.169008 205.810389 
L 59.286659 205.704625 
L 59.345485 204.858514 
L 59.40431 204.858514 
L 59.463136 204.223931 
L 59.521962 204.223931 
L 59.580787 200.204903 
L 59.639613 200.204903 
L 59.639613 199.781847 
L 59.874915 199.676083 
L 59.933741 199.0415 
L 59.992566 199.0415 
L 60.051392 198.301152 
L 60.169043 198.195389 
L 60.227869 197.243513 
L 60.404346 197.13775 
L 60.463171 196.60893 
L 60.521997 196.60893 
L 60.580822 196.291638 
L 60.639648 196.291638 
L 60.698474 195.233999 
L 60.816125 195.128235 
L 60.87495 194.810944 
L 60.933776 194.810944 
L 60.933776 194.493652 
L 61.110253 194.387888 
L 61.169078 193.436013 
L 61.227904 193.436013 
L 61.28673 192.378374 
L 61.345555 192.378374 
L 61.345555 191.532263 
L 61.463206 191.532263 
L 61.522032 190.791916 
L 61.639683 190.686152 
L 61.698509 190.36886 
L 61.757334 190.36886 
L 61.81616 190.051568 
L 62.169113 189.311221 
L 62.227939 188.46511 
L 62.286765 188.46511 
L 62.34559 187.407471 
L 62.404416 187.407471 
L 62.404416 187.195943 
L 62.580893 187.090179 
L 62.639718 186.772887 
L 62.698544 186.772887 
L 62.698544 186.138304 
L 62.875021 186.138304 
L 62.933846 185.292193 
L 62.992672 185.292193 
L 62.992672 185.186429 
L 63.169149 184.763373 
L 63.227974 183.811498 
L 63.404451 183.811498 
L 63.463277 182.119276 
L 63.522102 182.119276 
L 63.580928 180.744345 
L 63.698579 180.744345 
L 63.698579 180.427053 
L 64.051533 180.32129 
L 64.110358 180.109762 
L 64.169184 180.109762 
L 64.228009 179.263651 
L 64.345661 179.263651 
L 64.404486 178.734831 
L 64.580963 178.629067 
L 64.639789 177.148373 
L 64.75744 177.042609 
L 64.816265 176.831081 
L 65.051568 176.725317 
L 65.051568 176.196498 
L 65.228045 176.196498 
L 65.228045 175.879206 
L 65.404521 175.773442 
L 65.463347 175.45615 
L 65.522172 175.45615 
L 65.522172 174.927331 
L 65.639824 174.927331 
L 65.639824 174.292747 
L 65.8163 174.186983 
L 65.875126 173.869692 
L 66.051603 173.869692 
L 66.110428 173.129344 
L 66.169254 173.129344 
L 66.169254 172.812053 
L 66.463382 172.812053 
L 66.463382 172.388997 
L 66.581033 172.388997 
L 66.581033 171.860178 
L 66.698684 171.860178 
L 66.698684 171.542886 
L 66.933987 171.437122 
L 66.933987 171.331358 
L 67.051638 171.331358 
L 67.051638 171.11983 
L 67.28694 171.014066 
L 67.345766 170.485247 
L 67.463417 170.485247 
L 67.522243 169.956427 
L 67.69872 169.956427 
L 67.757545 169.321844 
L 67.875196 169.21608 
L 67.934022 168.475733 
L 68.110499 168.369969 
L 68.169324 167.946913 
L 68.345801 167.946913 
L 68.345801 167.418094 
L 68.463452 167.418094 
L 68.463452 166.995038 
L 68.581104 166.995038 
L 68.639929 166.571983 
L 68.698755 166.571983 
L 68.698755 166.360455 
L 68.875231 166.254691 
L 68.934057 165.725872 
L 69.110534 165.620108 
L 69.110534 165.514344 
L 69.228185 165.514344 
L 69.287011 164.668233 
L 69.463487 164.562469 
L 69.522313 164.245177 
L 69.639964 164.245177 
L 69.639964 163.822121 
L 69.816441 163.822121 
L 69.875267 162.870246 
L 69.992918 162.870246 
L 70.051743 162.552955 
L 70.169395 162.447191 
L 70.22822 162.129899 
L 70.404697 162.024135 
L 70.463523 161.601079 
L 70.522348 161.601079 
L 70.522348 161.389552 
L 70.698825 161.389552 
L 70.757651 160.226149 
L 70.875302 160.120385 
L 70.934127 159.485801 
L 71.051779 159.380038 
L 71.110604 158.63969 
L 71.228255 158.533926 
L 71.287081 158.005107 
L 71.345907 158.005107 
L 71.404732 157.687815 
L 71.522383 157.687815 
L 71.581209 157.370523 
L 71.640035 157.370523 
L 71.640035 157.158996 
L 71.816511 157.158996 
L 71.875337 156.73594 
L 71.934163 156.73594 
L 71.934163 156.524412 
L 72.051814 156.524412 
L 72.110639 156.101357 
L 72.22829 156.101357 
L 72.22829 155.889829 
L 72.522418 155.784065 
L 72.581244 155.255246 
L 72.757721 155.149482 
L 72.757721 155.043718 
L 72.875372 155.043718 
L 72.934198 154.514898 
L 73.1695 154.409134 
L 73.228326 153.880315 
L 73.816582 153.774551 
L 73.875407 153.245731 
L 73.993058 153.139968 
L 74.051884 152.188092 
L 74.11071 152.188092 
L 74.11071 151.870801 
L 74.463663 151.765037 
L 74.463663 151.447745 
L 74.698966 151.341981 
L 74.757791 151.02469 
L 74.816617 151.02469 
L 74.816617 150.178578 
L 74.993094 150.072814 
L 75.051919 149.438231 
L 75.16957 149.438231 
L 75.228396 148.909412 
L 75.287222 148.909412 
L 75.287222 148.169064 
L 75.404873 148.169064 
L 75.463698 147.640245 
L 75.581349 147.534481 
L 75.640175 147.005661 
L 75.699001 147.005661 
L 75.757826 146.265314 
L 75.816652 146.265314 
L 75.816652 145.948022 
L 75.934303 145.948022 
L 75.993129 145.524967 
L 76.169605 145.524967 
L 76.228431 145.207675 
L 76.404908 145.101911 
L 76.463733 144.150036 
L 76.581385 144.150036 
L 76.64021 143.726981 
L 76.757861 143.726981 
L 76.816687 143.092397 
L 76.934338 142.986633 
L 76.934338 142.880869 
L 77.169641 142.880869 
L 77.169641 141.928994 
L 77.287292 141.928994 
L 77.346117 141.505939 
L 77.463769 141.400175 
L 77.463769 141.188647 
L 77.640245 141.082883 
L 77.699071 140.871355 
L 77.875548 140.765591 
L 77.934373 140.342536 
L 78.052025 140.342536 
L 78.11085 139.602188 
L 78.287327 139.496425 
L 78.346153 139.179133 
L 78.404978 139.179133 
L 78.404978 138.650313 
L 78.581455 138.544549 
L 78.640281 138.333022 
L 78.816757 138.333022 
L 78.816757 138.121494 
L 78.993234 138.121494 
L 79.05206 137.169619 
L 79.228536 137.063855 
L 79.228536 136.852327 
L 79.346188 136.852327 
L 79.405013 136.11198 
L 79.699141 136.006216 
L 79.699141 135.794688 
L 79.816792 135.794688 
L 79.875618 135.160105 
L 80.11092 135.160105 
L 80.169746 134.631285 
L 80.581525 134.525521 
L 80.640351 134.20823 
L 81.05213 134.102466 
L 81.05213 133.785174 
L 81.169781 133.785174 
L 81.169781 133.256355 
L 81.405084 133.150591 
L 81.405084 133.044827 
L 81.522735 133.044827 
L 81.58156 131.987188 
L 81.99334 131.881424 
L 81.99334 131.77566 
L 82.169816 131.669896 
L 82.169816 131.564132 
L 82.287467 131.564132 
L 82.287467 131.352604 
L 82.758072 131.24684 
L 82.758072 131.141077 
L 82.934549 131.035313 
L 82.993375 130.294965 
L 83.111026 130.294965 
L 83.169851 129.554618 
L 83.405154 129.448854 
L 83.463979 129.131562 
L 83.816933 129.025799 
L 83.875759 128.708507 
L 83.934584 128.708507 
L 83.934584 128.496979 
L 84.169887 128.391215 
L 84.169887 128.179687 
L 84.405189 128.073923 
L 84.405189 127.96816 
L 84.640491 127.862396 
L 84.640491 127.43934 
L 84.875794 127.333576 
L 84.934619 127.122048 
L 85.287573 127.016284 
L 85.346399 126.487465 
L 85.46405 126.381701 
L 85.46405 126.275937 
L 85.581701 126.275937 
L 85.581701 126.064409 
L 85.699352 126.064409 
L 85.699352 125.852882 
L 85.817003 125.852882 
L 85.875829 125.429826 
L 85.934654 125.429826 
L 85.99348 125.112534 
L 86.169957 125.112534 
L 86.169957 124.795243 
L 86.405259 124.689479 
L 86.464085 124.160659 
L 87.111166 124.054895 
L 87.111166 123.737604 
L 87.405294 123.737604 
L 87.405294 123.526076 
L 87.640597 123.526076 
L 87.640597 123.314548 
L 87.875899 123.208784 
L 87.934725 122.574201 
L 87.99355 122.574201 
L 88.052376 122.151145 
L 88.111202 122.151145 
L 88.170027 121.72809 
L 88.287678 121.72809 
L 88.287678 121.410798 
L 88.640632 121.305034 
L 88.699458 121.093506 
L 88.875934 120.987742 
L 88.875934 120.881978 
L 89.346539 120.776214 
L 89.405365 120.353159 
L 89.640667 120.247395 
L 89.699493 119.930103 
L 89.758318 119.930103 
L 89.817144 119.401284 
L 89.993621 119.401284 
L 90.052446 119.083992 
L 90.287749 118.978228 
L 90.287749 118.872464 
L 90.464225 118.7667 
L 90.464225 118.555173 
L 90.581877 118.555173 
L 90.640702 118.237881 
L 90.817179 118.237881 
L 90.876005 117.814825 
L 91.111307 117.814825 
L 91.111307 117.603297 
L 91.228958 117.603297 
L 91.228958 117.286006 
L 91.405435 117.286006 
L 91.464261 116.651422 
L 91.581912 116.651422 
L 91.640737 116.334131 
L 91.758389 116.334131 
L 91.817214 115.699547 
L 92.111342 115.593783 
L 92.111342 115.488019 
L 92.40547 115.382256 
L 92.40547 115.276492 
L 92.817249 115.276492 
L 92.817249 115.064964 
L 93.170203 114.9592 
L 93.229028 114.43038 
L 93.87611 114.324617 
L 93.87611 114.007325 
L 94.40554 113.901561 
L 94.464366 113.690033 
L 94.582017 113.690033 
L 94.640843 113.372742 
L 94.934971 113.372742 
L 94.934971 113.161214 
L 95.464401 113.05545 
L 95.523227 112.420866 
L 96.052657 112.315103 
L 96.052657 111.892047 
L 96.229134 111.786283 
L 96.287959 111.468991 
L 96.640913 111.363227 
L 96.640913 111.257464 
L 96.758564 111.257464 
L 96.81739 110.517116 
L 97.405646 110.411352 
L 97.464471 110.199825 
L 98.052727 110.094061 
L 98.052727 109.988297 
L 98.346855 109.882533 
L 98.346855 109.776769 
L 98.582158 109.671005 
L 98.582158 109.565241 
L 98.699809 109.565241 
L 98.699809 109.353713 
L 98.993937 109.247949 
L 98.993937 109.036422 
L 99.288065 108.930658 
L 99.288065 108.824894 
L 99.582193 108.71913 
L 99.641018 108.507602 
L 100.229274 107.449963 
L 100.699879 107.449963 
L 100.758705 106.81538 
L 100.81753 106.81538 
L 100.81753 106.603852 
L 100.935182 106.603852 
L 100.935182 106.28656 
L 101.170484 106.28656 
L 101.22931 105.546213 
L 101.699914 105.440449 
L 101.699914 105.228921 
L 101.994042 105.123157 
L 102.052868 104.91163 
L 102.229345 104.805866 
L 102.229345 104.700102 
L 102.405822 104.700102 
L 102.464647 104.171282 
L 102.758775 104.065518 
L 102.758775 103.853991 
L 102.935252 103.853991 
L 102.935252 103.642463 
L 103.052903 103.642463 
L 103.111729 103.325171 
L 103.464682 103.219407 
L 103.523508 102.796352 
L 103.582333 102.796352 
L 103.582333 102.161768 
L 103.876461 102.056004 
L 103.935287 101.738713 
L 104.170589 101.632949 
L 104.229415 101.421421 
L 104.641194 101.315657 
L 104.70002 100.998365 
L 104.935322 100.892601 
L 104.935322 100.681074 
L 105.22945 100.57531 
L 105.22945 100.469546 
L 105.817706 100.363782 
L 105.876532 99.834962 
L 105.935357 99.834962 
L 105.935357 99.411907 
L 106.17066 99.306143 
L 106.17066 99.200379 
L 106.70009 99.094615 
L 106.70009 98.988851 
L 106.817741 98.988851 
L 106.876567 98.67156 
L 106.994218 98.565796 
L 107.053044 98.036976 
L 107.347172 97.931212 
L 107.347172 97.719684 
L 108.17073 97.613921 
L 108.17073 97.508157 
L 108.70016 97.402393 
L 108.70016 97.296629 
L 109.406067 97.190865 
L 109.406067 97.085101 
L 109.523719 97.085101 
L 109.582544 96.556282 
L 110.1708 96.450518 
L 110.229626 96.23899 
L 110.523754 96.133226 
L 110.523754 96.027462 
L 110.700231 96.027462 
L 110.700231 95.815934 
L 110.817882 95.815934 
L 110.876707 95.498643 
L 111.053184 95.498643 
L 111.11201 94.969823 
L 111.700266 94.864059 
L 111.759091 94.546767 
L 112.406173 94.441004 
L 112.464999 93.912184 
L 112.523824 93.912184 
L 112.58265 93.594892 
L 112.641475 93.594892 
L 112.700301 93.277601 
L 113.053254 93.171837 
L 113.11208 92.854545 
L 113.817987 92.748781 
L 113.817987 92.643017 
L 114.112115 92.537253 
L 114.112115 92.431489 
L 114.759197 92.325726 
L 114.759197 92.008434 
L 114.994499 91.90267 
L 114.994499 91.796906 
L 115.288627 91.796906 
L 115.288627 91.373851 
L 115.582755 91.268087 
L 115.641581 90.950795 
L 115.994534 90.845031 
L 115.994534 90.633503 
L 116.112185 90.633503 
L 116.112185 90.210448 
L 116.465139 90.104684 
L 116.465139 89.99892 
L 116.700441 89.99892 
L 116.700441 89.787392 
L 116.818093 89.787392 
L 116.876918 89.364336 
L 116.935744 89.364336 
L 116.935744 89.152809 
L 117.229872 89.152809 
L 117.229872 88.729753 
L 117.347523 88.729753 
L 117.406349 88.412461 
L 117.582825 88.412461 
L 117.582825 87.883642 
L 117.876953 87.777878 
L 117.876953 87.672114 
L 118.05343 87.672114 
L 118.05343 87.460586 
L 118.171081 87.460586 
L 118.171081 87.249058 
L 118.288733 87.249058 
L 118.288733 86.931767 
L 118.582861 86.826003 
L 118.641686 86.614475 
L 118.700512 86.614475 
L 118.700512 86.402947 
L 118.935814 86.402947 
L 118.99464 85.979892 
L 119.641721 85.979892 
L 119.641721 85.768364 
L 119.877024 85.6626 
L 119.935849 85.451072 
L 120.347628 85.345308 
L 120.347628 85.239544 
L 120.582931 85.239544 
L 120.582931 84.922253 
L 121.288838 84.816489 
L 121.347664 84.393433 
L 121.877094 84.287669 
L 121.93592 84.076141 
L 122.053571 83.970378 
L 122.053571 83.864614 
L 122.406524 83.75885 
L 122.46535 83.335794 
L 122.700652 83.23003 
L 122.700652 83.018502 
L 123.288908 82.912739 
L 123.288908 82.701211 
L 123.465385 82.595447 
L 123.465385 82.383919 
L 123.700687 82.383919 
L 123.700687 82.172391 
L 123.93599 82.066627 
L 123.93599 81.8551 
L 125.053676 81.749336 
L 125.053676 81.643572 
L 125.288979 81.643572 
L 125.288979 81.432044 
L 125.40663 81.432044 
L 125.40663 81.32628 
L 125.465455 81.220516 
L 125.524281 80.797461 
L 125.641932 80.797461 
L 125.641932 80.374405 
L 125.759583 80.374405 
L 125.759583 80.162877 
L 126.406665 80.162877 
L 126.46549 79.634058 
L 126.524316 79.634058 
L 126.524316 79.42253 
L 127.4067 79.316766 
L 127.4067 79.211002 
L 127.818479 79.105238 
L 127.818479 78.89371 
L 128.465561 78.787947 
L 128.465561 78.470655 
L 128.700863 78.470655 
L 128.759689 77.941835 
L 129.112642 77.836071 
L 129.112642 77.730308 
L 129.583247 77.624544 
L 129.642073 77.307252 
L 129.759724 77.201488 
L 129.759724 76.98996 
L 129.877375 76.98996 
L 129.877375 76.778432 
L 130.700933 76.672669 
L 130.759759 75.826557 
L 131.053887 75.720793 
L 131.053887 75.61503 
L 131.348015 75.61503 
L 131.406841 75.297738 
L 131.936271 75.191974 
L 131.995097 74.980446 
L 132.053922 74.980446 
L 132.053922 74.768918 
L 132.289225 74.663154 
L 132.289225 74.451627 
L 132.642178 74.345863 
L 132.701004 73.922807 
L 133.112783 73.817043 
L 133.112783 73.711279 
L 133.701039 73.711279 
L 133.759864 73.393988 
L 133.877516 73.288224 
L 133.877516 73.076696 
L 134.524597 72.970932 
L 134.524597 72.865168 
L 135.112853 72.865168 
L 135.112853 72.65364 
L 135.230504 72.65364 
L 135.230504 72.442113 
L 135.642284 72.336349 
L 135.642284 72.124821 
L 135.877586 72.124821 
L 135.877586 71.913293 
L 136.348191 71.807529 
L 136.348191 71.701765 
L 136.701144 71.596001 
L 136.701144 71.490237 
L 136.995272 71.384474 
L 137.054098 71.067182 
L 137.465877 70.961418 
L 137.465877 70.855654 
L 137.936482 70.74989 
L 137.936482 70.644126 
L 138.701215 70.538362 
L 138.701215 70.432598 
L 138.936517 70.432598 
L 138.995343 70.115307 
L 139.936552 70.009543 
L 139.995378 69.692251 
L 140.171854 69.586487 
L 140.171854 69.480723 
L 140.348331 69.37496 
L 140.348331 69.269196 
L 141.230715 69.163432 
L 141.289541 68.951904 
L 141.818971 68.84614 
L 141.877797 68.528848 
L 142.23075 68.423084 
L 142.23075 68.317321 
L 143.17196 68.211557 
L 143.17196 68.105793 
L 143.760216 68.000029 
L 143.819041 67.788501 
L 144.113169 67.788501 
L 144.113169 67.576973 
L 144.289646 67.576973 
L 144.348472 67.259682 
L 144.524949 67.153918 
L 144.524949 67.048154 
L 145.348507 66.94239 
L 145.348507 66.836626 
L 145.524984 66.836626 
L 145.524984 66.625098 
L 146.11324 66.519334 
L 146.11324 66.41357 
L 146.701496 66.307806 
L 146.760321 66.096279 
L 146.936798 65.990515 
L 147.054449 65.673223 
L 147.58388 65.567459 
L 147.642705 65.355931 
L 147.701531 65.355931 
L 147.701531 65.144404 
L 148.230961 65.03864 
L 148.289787 64.827112 
L 148.525089 64.721348 
L 148.583915 64.615584 
L 148.995694 64.50982 
L 149.05452 64.404056 
L 149.819252 64.298292 
L 149.819252 64.192528 
L 150.583985 64.086765 
L 150.583985 63.981001 
L 151.05459 63.875237 
L 151.172241 63.769473 
L 151.995799 63.663709 
L 151.995799 63.557945 
L 152.760532 63.452181 
L 152.760532 63.240653 
L 153.348788 63.134889 
L 153.58409 62.817598 
L 154.231172 62.711834 
L 154.289998 62.500306 
L 154.466474 62.394542 
L 154.466474 62.288778 
L 154.760602 62.183014 
L 154.760602 61.971487 
L 155.407684 61.865723 
L 156.113591 61.442667 
L 157.172452 61.336903 
L 157.231277 61.125375 
L 157.701882 61.019611 
L 157.760708 60.808084 
L 158.290138 60.70232 
L 158.348964 60.385028 
L 158.643092 60.279264 
L 158.701917 60.067736 
L 159.231348 59.961972 
L 159.290173 59.856209 
L 159.99608 59.750445 
L 160.054906 59.433153 
L 160.878464 59.327389 
L 160.878464 59.221625 
L 161.407895 59.221625 
L 161.407895 59.010097 
L 162.525581 58.904334 
L 162.584407 58.692806 
L 162.702058 58.587042 
L 162.760884 58.375514 
L 162.996186 58.26975 
L 162.996186 58.163986 
L 163.290314 58.058222 
L 163.290314 57.952458 
L 163.937395 57.952458 
L 163.996221 57.529403 
L 165.34921 57.423639 
L 165.34921 57.317875 
L 166.408071 57.212111 
L 166.466896 57.000583 
L 167.408106 56.894819 
L 167.408106 56.789056 
L 168.172838 56.683292 
L 168.231664 56.366 
L 168.643443 56.260236 
L 168.643443 56.048708 
L 169.702304 55.942944 
L 169.702304 55.83718 
L 170.996467 55.731417 
L 170.996467 55.519889 
L 171.231769 55.414125 
L 171.231769 55.308361 
L 171.820025 55.202597 
L 171.820025 55.096833 
L 171.937677 55.096833 
L 171.937677 54.885305 
L 172.702409 54.779541 
L 172.702409 54.673778 
L 172.937712 54.673778 
L 172.937712 54.46225 
L 173.290665 54.356486 
L 173.290665 54.250722 
L 174.996608 54.144958 
L 174.996608 54.039194 
L 175.408387 53.93343 
L 175.408387 53.827666 
L 175.820166 53.827666 
L 175.820166 53.616139 
L 176.349596 53.510375 
L 176.349596 53.404611 
L 176.996678 53.298847 
L 177.055503 53.087319 
L 177.173155 52.981555 
L 177.23198 52.346972 
L 179.467353 52.241208 
L 179.526179 51.712388 
L 179.996783 51.606624 
L 179.996783 51.395097 
L 180.349737 51.395097 
L 180.349737 51.183569 
L 180.761516 51.077805 
L 180.761516 50.972041 
L 181.585074 50.866277 
L 181.585074 50.760513 
L 181.938028 50.760513 
L 181.938028 50.548985 
L 182.408633 50.443222 
L 182.408633 50.337458 
L 183.820447 50.231694 
L 183.820447 50.12593 
L 184.291052 50.020166 
L 184.349877 49.702874 
L 184.820482 49.702874 
L 184.820482 49.491346 
L 185.11461 49.385583 
L 185.11461 49.174055 
L 186.408773 49.068291 
L 186.408773 48.962527 
L 186.938204 48.856763 
L 186.938204 48.750999 
L 187.702936 48.750999 
L 187.702936 48.539471 
L 189.585356 48.433708 
L 189.585356 48.327944 
L 191.408949 48.22218 
L 191.467775 48.010652 
L 191.761903 47.904888 
L 191.761903 47.799124 
L 192.114856 47.69336 
L 192.114856 47.481832 
L 193.409019 47.376069 
L 193.409019 47.270305 
L 194.114926 47.164541 
L 194.114926 47.058777 
L 194.46788 46.953013 
L 194.46788 46.847249 
L 196.526776 46.741485 
L 196.526776 46.635721 
L 197.820939 46.529957 
L 197.820939 46.424193 
L 199.938661 46.31843 
L 199.938661 46.212666 
L 200.644568 46.106902 
L 200.644568 45.78961 
L 202.938766 45.683846 
L 202.938766 45.578082 
L 203.232894 45.472318 
L 203.232894 45.366554 
L 204.35058 45.260791 
L 204.35058 45.155027 
L 205.585918 45.049263 
L 205.644743 44.837735 
L 206.527127 44.731971 
L 206.527127 44.626207 
L 206.644779 44.626207 
L 206.703604 44.308915 
L 208.938977 44.203152 
L 208.938977 44.097388 
L 209.174279 44.097388 
L 209.174279 43.88586 
L 211.233175 43.780096 
L 211.233175 43.674332 
L 212.056733 43.568568 
L 212.056733 43.462804 
L 212.527338 43.35704 
L 212.527338 43.251276 
L 213.409722 43.145513 
L 213.409722 43.039749 
L 217.409863 42.933985 
L 217.409863 42.828221 
L 218.939328 42.722457 
L 218.939328 42.616693 
L 221.351178 42.510929 
L 221.351178 42.405165 
L 222.351213 42.299401 
L 222.351213 42.193637 
L 223.292422 42.087874 
L 223.351248 41.876346 
L 225.880749 41.770582 
L 225.880749 41.664818 
L 228.645552 41.559054 
L 228.704377 41.347526 
L 231.233878 41.241762 
L 231.233878 41.135998 
L 231.645657 41.030235 
L 231.645657 40.924471 
L 231.998611 40.818707 
L 231.998611 40.712943 
L 232.822169 40.607179 
L 232.822169 40.501415 
L 234.763414 40.395651 
L 234.763414 40.289887 
L 236.175228 40.184123 
L 236.175228 40.078359 
L 236.645833 40.078359 
L 236.645833 39.866832 
L 236.998786 39.761068 
L 236.998786 39.655304 
L 237.998821 39.54954 
L 238.057647 39.338012 
L 239.645938 39.232248 
L 239.645938 39.02072 
L 242.469567 38.914957 
L 242.469567 38.703429 
L 243.116648 38.597665 
L 243.116648 38.491901 
L 243.76373 38.386137 
L 243.76373 38.280373 
L 244.587288 38.174609 
L 244.587288 38.068845 
L 245.646149 37.963081 
L 245.646149 37.857318 
L 247.410917 37.751554 
L 247.410917 37.64579 
L 250.058069 37.540026 
L 250.058069 37.434262 
L 253.940558 37.328498 
L 253.940558 37.222734 
L 255.293547 37.11697 
L 255.293547 37.011206 
L 257.52892 36.905443 
L 257.587745 36.693915 
L 258.470129 36.588151 
L 258.470129 36.482387 
L 261.470234 36.376623 
L 261.470234 36.270859 
L 264.176212 36.165095 
L 264.176212 35.953567 
L 264.823293 35.847804 
L 264.823293 35.74204 
L 268.47048 35.636276 
L 268.47048 35.530512 
L 270.705853 35.424748 
L 270.705853 35.318984 
L 271.764714 35.21322 
L 271.764714 35.107456 
L 273.117703 35.001692 
L 273.117703 34.895928 
L 275.117773 34.790165 
L 275.117773 34.684401 
L 277.470797 34.578637 
L 277.470797 34.472873 
L 280.529728 34.367109 
L 280.529728 34.261345 
L 285.471078 34.155581 
L 285.471078 34.049817 
L 286.941718 33.944053 
L 286.941718 33.838289 
L 287.882927 33.732526 
L 287.941753 33.520998 
L 294.412569 33.415234 
L 294.412569 33.30947 
L 297.177372 33.203706 
L 297.177372 33.097942 
L 303.295234 32.992178 
L 303.295234 32.886414 
L 305.707083 32.78065 
L 305.707083 32.674887 
L 308.589537 32.569123 
L 308.589537 32.463359 
L 310.648433 32.357595 
L 310.648433 32.251831 
L 312.589678 32.146067 
L 312.589678 32.040303 
L 326.943123 31.934539 
L 326.943123 31.828775 
L 329.53145 31.723011 
L 329.53145 31.617248 
L 332.943334 31.511484 
L 332.943334 31.40572 
L 333.766893 31.299956 
L 333.766893 31.194192 
L 343.41429 31.088428 
L 343.41429 30.982664 
L 356.767701 30.8769 
L 356.767701 30.771136 
L 360.944318 30.771136 
L 360.944318 30.771136 
" style="fill:none;stroke:#1f77b4;stroke-linecap:round;stroke-width:1.2;"/>
   </g>
   <g id="patch_3">
    <path d="M 41.3625 238.3275 
L 41.3625 20.8875 
" style="fill:none;stroke:#cccccc;stroke-linecap:square;stroke-linejoin:miter;"/>
   </g>
   <g id="patch_4">
    <path d="M 376.1625 238.3275 
L 376.1625 20.8875 
" style="fill:none;stroke:#cccccc;stroke-linecap:square;stroke-linejoin:miter;"/>
   </g>
   <g id="patch_5">
    <path d="M 41.3625 238.3275 
L 376.1625 238.3275 
" style="fill:none;stroke:#cccccc;stroke-linecap:square;stroke-linejoin:miter;"/>
   </g>
   <g id="patch_6">
    <path d="M 41.3625 20.8875 
L 376.1625 20.8875 
" style="fill:none;stroke:#cccccc;stroke-linecap:square;stroke-linejoin:miter;"/>
   </g>
   <g id="text_15">
    <!-- linear-SVM ROC曲线 -->
    <defs>
     <path d="M 28.515625 1.953125 
L 20.703125 1.953125 
L 20.703125 68.75 
L 28.515625 68.75 
z
" id="SimHei-108"/>
     <path d="M 28.125 58.203125 
L 20.3125 58.203125 
L 20.3125 68.359375 
L 28.125 68.359375 
z
M 28.125 1.953125 
L 20.3125 1.953125 
L 20.3125 45.703125 
L 28.125 45.703125 
z
" id="SimHei-105"/>
     <path d="M 43.75 1.953125 
L 35.9375 1.953125 
L 35.9375 30.078125 
Q 35.9375 34.765625 33.59375 37.5 
Q 31.25 40.234375 27.34375 40.234375 
Q 22.265625 40.234375 17.765625 34.953125 
Q 13.28125 29.6875 13.28125 21.875 
L 13.28125 1.953125 
L 5.46875 1.953125 
L 5.46875 45.703125 
L 13.28125 45.703125 
L 13.28125 37.5 
Q 16.40625 41.796875 20.109375 44.140625 
Q 23.828125 46.484375 29.6875 46.484375 
Q 36.71875 46.484375 40.234375 42.578125 
Q 43.75 38.671875 43.75 32.8125 
z
" id="SimHei-110"/>
     <path d="M 44.53125 16.796875 
Q 43.75 9.765625 38.28125 5.46875 
Q 32.8125 1.171875 25.390625 1.171875 
Q 16.015625 1.171875 9.953125 7.21875 
Q 3.90625 13.28125 3.90625 23.828125 
Q 3.90625 34.375 9.953125 40.421875 
Q 16.015625 46.484375 25.390625 46.484375 
Q 33.59375 46.484375 38.859375 41.203125 
Q 44.140625 35.9375 44.140625 23.828125 
L 12.5 23.828125 
Q 12.5 15.234375 16.203125 11.71875 
Q 19.921875 8.203125 25.390625 8.203125 
Q 29.6875 8.203125 32.421875 10.34375 
Q 35.15625 12.5 35.9375 16.796875 
z
M 35.15625 30.078125 
Q 34.375 35.546875 31.640625 37.6875 
Q 28.90625 39.84375 24.609375 39.84375 
Q 20.703125 39.84375 17.578125 37.6875 
Q 14.453125 35.546875 12.890625 30.078125 
z
" id="SimHei-101"/>
     <path d="M 44.921875 1.953125 
L 35.546875 1.953125 
Q 34.765625 2.734375 34.375 4.09375 
Q 33.984375 5.46875 33.984375 7.421875 
Q 31.25 4.296875 27.34375 2.734375 
Q 23.4375 1.171875 19.140625 1.171875 
Q 12.890625 1.171875 8.59375 4.296875 
Q 4.296875 7.421875 4.296875 13.28125 
Q 4.296875 19.140625 8.203125 22.65625 
Q 12.109375 26.171875 20.3125 27.34375 
Q 25.78125 28.125 29.875 29.296875 
Q 33.984375 30.46875 33.984375 32.421875 
Q 33.984375 34.765625 32.21875 37.109375 
Q 30.46875 39.453125 24.609375 39.453125 
Q 19.921875 39.453125 17.765625 37.6875 
Q 15.625 35.9375 14.84375 32.8125 
L 6.25 32.8125 
Q 7.03125 39.0625 11.90625 42.765625 
Q 16.796875 46.484375 24.609375 46.484375 
Q 33.203125 46.484375 37.5 42.578125 
Q 41.796875 38.671875 41.796875 31.640625 
L 41.796875 10.15625 
Q 41.796875 7.8125 42.578125 5.859375 
Q 43.359375 3.90625 44.921875 1.953125 
z
M 33.984375 16.40625 
L 33.984375 24.21875 
Q 31.640625 23.4375 29.484375 22.84375 
Q 27.34375 22.265625 22.265625 21.484375 
Q 16.40625 20.703125 14.640625 18.75 
Q 12.890625 16.796875 12.890625 14.0625 
Q 12.890625 11.71875 14.640625 9.953125 
Q 16.40625 8.203125 19.921875 8.203125 
Q 23.4375 8.203125 27.53125 10.15625 
Q 31.640625 12.109375 33.984375 16.40625 
z
" id="SimHei-97"/>
     <path d="M 39.0625 37.890625 
Q 31.640625 39.0625 26.5625 35.734375 
Q 21.484375 32.421875 17.96875 24.21875 
L 17.96875 1.953125 
L 10.15625 1.953125 
L 10.15625 45.703125 
L 17.96875 45.703125 
L 17.96875 34.375 
Q 21.484375 40.625 26.75 43.546875 
Q 32.03125 46.484375 39.0625 46.484375 
z
" id="SimHei-114"/>
     <path d="M 46.484375 33.203125 
L 1.953125 33.203125 
L 1.953125 39.453125 
L 46.484375 39.453125 
z
" id="SimHei-45"/>
     <path d="M 45.3125 20.703125 
Q 45.3125 11.71875 39.640625 6.4375 
Q 33.984375 1.171875 24.21875 1.171875 
Q 14.453125 1.171875 8.984375 6.640625 
Q 3.515625 12.109375 3.515625 20.3125 
L 3.515625 23.046875 
L 12.5 23.046875 
L 12.5 20.703125 
Q 12.5 14.84375 16.015625 11.71875 
Q 19.53125 8.59375 24.21875 8.59375 
Q 30.46875 8.59375 33.390625 11.90625 
Q 36.328125 15.234375 36.328125 19.921875 
Q 36.328125 23.828125 32.8125 27.140625 
Q 29.296875 30.46875 22.65625 33.203125 
Q 13.28125 36.71875 9.171875 41.015625 
Q 5.078125 45.3125 5.078125 51.171875 
Q 5.078125 59.375 10.734375 64.453125 
Q 16.40625 69.53125 24.21875 69.53125 
Q 34.375 69.53125 38.859375 63.46875 
Q 43.359375 57.421875 43.359375 50.390625 
L 34.375 50.390625 
Q 34.765625 54.6875 32.03125 58.203125 
Q 29.296875 61.71875 24.21875 61.71875 
Q 19.53125 61.71875 16.796875 59.171875 
Q 14.0625 56.640625 14.0625 52.34375 
Q 14.0625 48.828125 16.203125 46.28125 
Q 18.359375 43.75 27.34375 40.234375 
Q 35.9375 36.71875 40.625 31.828125 
Q 45.3125 26.953125 45.3125 20.703125 
z
" id="SimHei-83"/>
     <path d="M 47.65625 68.75 
L 28.125 1.171875 
L 20.3125 1.171875 
L 0.78125 68.75 
L 10.15625 68.75 
L 23.828125 17.578125 
L 24.609375 17.578125 
L 38.28125 68.75 
z
" id="SimHei-86"/>
     <path d="M 45.703125 1.953125 
L 37.890625 1.953125 
L 37.890625 49.609375 
L 37.109375 49.609375 
L 27.734375 1.953125 
L 21.484375 1.953125 
L 12.109375 49.609375 
L 11.328125 49.609375 
L 11.328125 1.953125 
L 3.515625 1.953125 
L 3.515625 68.75 
L 15.625 68.75 
L 24.21875 24.609375 
L 25 24.609375 
L 33.59375 68.75 
L 45.703125 68.75 
z
" id="SimHei-77"/>
     <path id="SimHei-32"/>
     <path d="M 46.875 1.953125 
L 37.5 1.953125 
L 23.4375 30.859375 
L 13.28125 30.859375 
L 13.28125 1.953125 
L 4.296875 1.953125 
L 4.296875 68.75 
L 23.828125 68.75 
Q 33.203125 68.75 39.0625 64.25 
Q 44.921875 59.765625 44.921875 49.609375 
Q 44.921875 41.796875 41.015625 37.5 
Q 37.109375 33.203125 32.03125 32.03125 
z
M 35.9375 49.609375 
Q 35.9375 55.078125 32.609375 58.203125 
Q 29.296875 61.328125 21.875 61.328125 
L 13.28125 61.328125 
L 13.28125 38.28125 
L 24.21875 38.28125 
Q 28.90625 38.28125 32.421875 40.8125 
Q 35.9375 43.359375 35.9375 49.609375 
z
" id="SimHei-82"/>
     <path d="M 46.09375 35.546875 
Q 46.09375 17.1875 40.421875 9.171875 
Q 34.765625 1.171875 24.609375 1.171875 
Q 14.453125 1.171875 8.59375 9.171875 
Q 2.734375 17.1875 2.734375 35.546875 
Q 2.734375 53.90625 8.59375 61.71875 
Q 14.453125 69.53125 24.609375 69.53125 
Q 34.765625 69.53125 40.421875 61.71875 
Q 46.09375 53.90625 46.09375 35.546875 
z
M 36.71875 35.546875 
Q 36.71875 51.953125 33.203125 57.03125 
Q 29.6875 62.109375 24.609375 62.109375 
Q 19.53125 62.109375 15.8125 57.03125 
Q 12.109375 51.953125 12.109375 35.546875 
Q 12.109375 19.140625 15.8125 13.859375 
Q 19.53125 8.59375 24.609375 8.59375 
Q 29.6875 8.59375 33.203125 13.859375 
Q 36.71875 19.140625 36.71875 35.546875 
z
" id="SimHei-79"/>
     <path d="M 46.484375 28.515625 
Q 46.09375 13.671875 40.234375 7.421875 
Q 34.375 1.171875 26.171875 1.171875 
Q 16.796875 1.171875 10.15625 8.78125 
Q 3.515625 16.40625 3.515625 33.203125 
Q 3.515625 51.5625 9.953125 60.546875 
Q 16.40625 69.53125 26.5625 69.53125 
Q 35.15625 69.53125 40.8125 63.078125 
Q 46.484375 56.640625 46.09375 44.921875 
L 37.5 44.921875 
Q 37.5 53.515625 34.765625 57.8125 
Q 32.03125 62.109375 26.5625 62.109375 
Q 20.3125 62.109375 16.59375 55.65625 
Q 12.890625 49.21875 12.890625 33.984375 
Q 12.890625 19.921875 16.59375 14.25 
Q 20.3125 8.59375 26.171875 8.59375 
Q 30.46875 8.59375 33.984375 12.6875 
Q 37.5 16.796875 37.5 28.515625 
z
" id="SimHei-67"/>
     <path d="M 91.015625 7.8125 
Q 91.015625 -3.125 91.40625 -8.59375 
L 82.421875 -8.59375 
L 82.421875 -0.78125 
L 17.96875 -0.78125 
L 17.96875 -8.59375 
L 8.984375 -8.59375 
Q 9.375 1.953125 9.375 8.59375 
L 9.375 43.359375 
Q 9.375 53.515625 8.984375 60.9375 
L 33.59375 60.9375 
L 33.59375 69.53125 
Q 33.203125 75.78125 33.203125 80.46875 
L 42.1875 80.46875 
Q 41.40625 75.390625 41.40625 69.921875 
L 41.40625 60.9375 
L 57.8125 60.9375 
L 57.8125 70.703125 
Q 57.8125 75.78125 57.421875 80.859375 
L 66.40625 80.859375 
Q 66.015625 76.171875 66.015625 71.09375 
L 66.015625 60.9375 
L 91.40625 60.9375 
Q 91.015625 55.078125 91.015625 42.96875 
z
M 57.8125 5.078125 
L 57.8125 29.296875 
L 41.40625 29.296875 
L 41.40625 5.078125 
z
M 82.421875 5.078125 
L 82.421875 29.296875 
L 66.015625 29.296875 
L 66.015625 5.078125 
z
M 33.59375 5.078125 
L 33.59375 29.296875 
L 17.96875 29.296875 
L 17.96875 5.078125 
z
M 57.8125 35.15625 
L 57.8125 55.078125 
L 41.40625 55.078125 
L 41.40625 35.15625 
z
M 82.421875 35.15625 
L 82.421875 55.078125 
L 66.015625 55.078125 
L 66.015625 35.15625 
z
M 33.59375 35.15625 
L 33.59375 55.078125 
L 17.96875 55.078125 
L 17.96875 35.15625 
z
" id="SimHei-26354"/>
     <path d="M 53.90625 67.1875 
Q 53.90625 73.046875 52.734375 80.078125 
Q 57.8125 79.6875 63.28125 78.90625 
Q 62.109375 76.5625 61.71875 71.28125 
Q 61.328125 66.015625 61.71875 56.25 
L 75 58.59375 
Q 81.640625 60.15625 88.28125 62.109375 
L 89.84375 54.6875 
Q 83.203125 53.90625 76.171875 52.734375 
L 62.109375 50 
Q 62.109375 43.75 62.890625 39.0625 
L 78.125 41.796875 
Q 85.9375 43.359375 92.96875 45.703125 
L 94.140625 38.28125 
Q 87.109375 37.109375 79.296875 35.546875 
L 64.0625 32.8125 
Q 64.84375 25 67.96875 18.359375 
Q 71.484375 21.09375 74.796875 24.609375 
Q 78.125 28.125 80.859375 32.421875 
Q 86.71875 27.734375 89.84375 26.171875 
Q 84.765625 23.828125 81.828125 20.890625 
Q 78.90625 17.96875 72.265625 11.71875 
Q 76.953125 3.90625 80.65625 1.75 
Q 84.375 -0.390625 85.9375 1.5625 
Q 87.5 3.515625 88.671875 9.765625 
Q 92.1875 7.03125 96.875 5.46875 
Q 90.234375 -11.71875 82.421875 -8.390625 
Q 74.609375 -5.078125 66.015625 7.03125 
Q 60.546875 2.734375 55.265625 -0.96875 
Q 50 -4.6875 42.1875 -8.59375 
Q 40.234375 -4.6875 36.328125 -1.5625 
Q 44.140625 1.171875 49.609375 4.296875 
Q 55.078125 7.421875 62.109375 13.28125 
Q 58.59375 21.09375 57.03125 31.640625 
Q 45.3125 29.6875 40.625 28.125 
L 39.453125 35.546875 
Q 44.140625 35.546875 55.46875 37.890625 
Q 54.6875 44.140625 54.6875 48.4375 
Q 44.140625 46.09375 40.234375 44.921875 
L 38.671875 52.34375 
Q 42.578125 52.34375 53.90625 54.6875 
z
M 30.46875 76.171875 
Q 26.5625 72.65625 22.84375 66.203125 
Q 19.140625 59.765625 12.890625 50.390625 
Q 22.265625 50.78125 25.78125 50.78125 
Q 29.296875 56.640625 32.03125 63.671875 
Q 35.9375 60.9375 40.625 59.375 
Q 36.71875 55.46875 32.609375 48.828125 
Q 28.515625 42.1875 18.359375 26.171875 
Q 28.90625 26.953125 37.109375 27.734375 
Q 35.9375 23.828125 35.9375 21.09375 
Q 33.203125 21.09375 23.828125 20.109375 
Q 14.453125 19.140625 8.59375 17.578125 
Q 8.203125 21.484375 6.25 25.78125 
Q 10.9375 26.953125 14.84375 32.03125 
Q 18.75 37.109375 23.046875 44.921875 
Q 10.15625 44.140625 6.640625 41.796875 
Q 5.46875 46.09375 3.125 50.390625 
Q 8.203125 53.90625 12.890625 61.90625 
Q 17.578125 69.921875 21.484375 80.46875 
Q 25.390625 77.734375 30.46875 76.171875 
z
M 40.234375 13.671875 
Q 39.84375 9.375 40.234375 7.03125 
Q 30.46875 5.078125 22.65625 3.125 
Q 14.84375 1.171875 8.203125 -1.171875 
Q 7.03125 3.125 3.90625 7.421875 
Q 14.84375 8.59375 20.703125 9.5625 
Q 26.5625 10.546875 40.234375 13.671875 
z
M 75.78125 62.890625 
Q 73.046875 67.1875 68.359375 73.046875 
L 74.609375 76.171875 
Q 76.171875 74.21875 82.421875 66.796875 
Q 78.515625 65.234375 75.78125 62.890625 
z
" id="SimHei-32447"/>
    </defs>
    <g style="fill:#262626;" transform="translate(165.5625 14.8875)scale(0.096 -0.096)">
     <use xlink:href="#SimHei-108"/>
     <use x="50" xlink:href="#SimHei-105"/>
     <use x="100" xlink:href="#SimHei-110"/>
     <use x="150" xlink:href="#SimHei-101"/>
     <use x="200" xlink:href="#SimHei-97"/>
     <use x="250" xlink:href="#SimHei-114"/>
     <use x="300" xlink:href="#SimHei-45"/>
     <use x="350" xlink:href="#SimHei-83"/>
     <use x="400" xlink:href="#SimHei-86"/>
     <use x="450" xlink:href="#SimHei-77"/>
     <use x="500" xlink:href="#SimHei-32"/>
     <use x="550" xlink:href="#SimHei-82"/>
     <use x="600" xlink:href="#SimHei-79"/>
     <use x="650" xlink:href="#SimHei-67"/>
     <use x="700" xlink:href="#SimHei-26354"/>
     <use x="800" xlink:href="#SimHei-32447"/>
    </g>
   </g>
  </g>
 </g>
 <defs>
  <clipPath id="pfd5057544f">
   <rect height="217.44" width="334.8" x="41.3625" y="20.8875"/>
  </clipPath>
 </defs>
</svg>
