<?xml version="1.0" encoding="utf-8" standalone="no"?>
<!DOCTYPE svg PUBLIC "-//W3C//DTD SVG 1.1//EN"
  "http://www.w3.org/Graphics/SVG/1.1/DTD/svg11.dtd">
<!-- Created with matplotlib (https://matplotlib.org/) -->
<svg height="247.59pt" version="1.1" viewBox="0 0 253.16808 247.59" width="253.16808pt" xmlns="http://www.w3.org/2000/svg" xmlns:xlink="http://www.w3.org/1999/xlink">
 <defs>
  <style type="text/css">
*{stroke-linecap:butt;stroke-linejoin:round;}
  </style>
 </defs>
 <g id="figure_1">
  <g id="patch_1">
   <path d="M 0 247.59 
L 253.16808 247.59 
L 253.16808 0 
L 0 0 
z
" style="fill:#ffffff;"/>
  </g>
  <g id="axes_1">
   <g id="matplotlib.axis_1"/>
   <g id="matplotlib.axis_2"/>
   <g id="patch_2">
    <path d="M 229.215724 133.40952 
C 229.215724 113.198094 223.344827 93.415277 212.319637 76.475769 
C 201.294447 59.536261 185.582571 46.158509 167.101807 37.97541 
C 148.621044 29.79231 128.155209 27.150927 108.202373 30.373671 
C 88.249537 33.596414 69.65595 42.546599 54.691154 56.131761 
C 39.726358 69.716923 29.025048 87.360881 23.893432 106.910005 
C 18.761815 126.459129 19.417537 147.084292 25.780559 166.267975 
C 32.14358 185.451658 43.944031 202.380233 59.741541 214.98739 
C 75.539051 227.594548 94.663609 235.345586 114.780861 237.294409 
L 124.844524 133.40952 
L 229.215724 133.40952 
z
" style="fill:#092436;opacity:0.5;stroke:#092436;stroke-linejoin:miter;stroke-width:0.8;"/>
   </g>
   <g id="patch_3">
    <path d="M 114.780861 237.294409 
C 129.267439 238.69777 143.888667 237.055544 157.702975 232.473487 
C 171.517283 227.89143 184.22163 220.470057 194.997888 210.687285 
C 205.774145 200.904514 214.385918 188.974946 220.278629 175.666816 
C 226.17134 162.358687 229.215722 147.963932 229.215724 133.40954 
L 124.844524 133.40952 
L 114.780861 237.294409 
z
" style="fill:#4c2604;opacity:0.5;stroke:#4c2604;stroke-linejoin:miter;stroke-width:0.8;"/>
   </g>
   <g id="patch_4">
    <path d="M 230.955244 131.67 
C 230.955244 111.458574 225.084347 91.675757 214.059157 74.736249 
C 203.033967 57.796741 187.322091 44.418989 168.841327 36.23589 
C 150.360564 28.05279 129.894729 25.411407 109.941893 28.634151 
C 89.989057 31.856894 71.39547 40.807079 56.430674 54.392241 
C 41.465878 67.977403 30.764568 85.621361 25.632952 105.170485 
C 20.501335 124.719609 21.157057 145.344772 27.520079 164.528455 
C 33.8831 183.712138 45.683551 200.640713 61.481061 213.24787 
C 77.278571 225.855028 96.403129 233.606066 116.520381 235.554889 
L 126.584044 131.67 
L 230.955244 131.67 
z
" style="fill:#1f77b4;stroke:#ffffff;stroke-linejoin:miter;stroke-width:0.8;"/>
   </g>
   <g id="patch_5">
    <path d="M 116.520381 235.554889 
C 131.006959 236.95825 145.628187 235.316024 159.442495 230.733967 
C 173.256803 226.15191 185.96115 218.730537 196.737408 208.947765 
C 207.513665 199.164994 216.125438 187.235426 222.018149 173.927296 
C 227.91086 160.619167 230.955242 146.224412 230.955244 131.67002 
L 126.584044 131.67 
L 116.520381 235.554889 
z
" style="fill:#ff7f0e;stroke:#ffffff;stroke-linejoin:miter;stroke-width:0.8;"/>
   </g>
   <g id="text_1">
    <!-- 存留客户 -->
    <defs>
     <path d="M 26.5625 48.4375 
Q 31.25 54.296875 35.15625 61.71875 
L 25.78125 61.71875 
Q 18.75 61.71875 10.546875 61.328125 
L 10.546875 68.75 
Q 18.75 68.359375 25.78125 68.359375 
L 37.5 68.359375 
Q 40.625 75.390625 42.1875 82.421875 
Q 47.65625 80.078125 52.34375 79.296875 
Q 48.828125 75.78125 45.703125 68.359375 
L 76.171875 68.359375 
Q 82.421875 68.359375 90.625 68.75 
L 90.625 61.328125 
Q 82.421875 61.71875 75.78125 61.71875 
L 42.96875 61.71875 
Q 37.5 51.171875 29.296875 39.84375 
L 29.296875 3.90625 
Q 29.296875 -2.734375 29.6875 -8.984375 
L 21.875 -8.984375 
Q 22.265625 -1.5625 22.265625 3.90625 
L 22.265625 32.03125 
Q 16.015625 25.390625 11.328125 21.09375 
Q 8.203125 24.609375 4.6875 26.171875 
Q 9.375 30.078125 13.859375 33.984375 
Q 18.359375 37.890625 22.265625 42.96875 
L 21.484375 48.4375 
z
M 87.890625 49.21875 
L 87.890625 41.796875 
L 78.125 35.9375 
Q 74.21875 33.59375 69.921875 30.46875 
L 69.921875 25.78125 
L 80.859375 25.78125 
Q 87.5 25.78125 94.53125 26.171875 
L 94.53125 18.75 
Q 87.5 19.140625 80.859375 19.140625 
L 69.921875 19.140625 
L 69.921875 1.171875 
Q 70.3125 -6.640625 65.421875 -8.390625 
Q 60.546875 -10.15625 54.296875 -10.546875 
Q 53.515625 -6.25 51.5625 -1.953125 
Q 57.421875 -2.34375 59.953125 -1.75 
Q 62.5 -1.171875 62.5 1.5625 
L 62.5 19.140625 
L 48.828125 19.140625 
Q 42.1875 19.140625 35.15625 18.75 
L 35.15625 26.171875 
Q 42.1875 25.78125 48.828125 25.78125 
L 62.5 25.78125 
Q 62.5 29.6875 61.71875 33.203125 
Q 65.234375 34.765625 68.75 37.109375 
Q 72.265625 39.453125 75.390625 42.578125 
L 52.734375 42.578125 
Q 47.65625 42.578125 41.796875 42.1875 
L 41.796875 49.609375 
Q 48.046875 49.21875 52.34375 49.21875 
z
" id="SimHei-23384"/>
     <path d="M 87.109375 35.9375 
Q 86.71875 29.6875 86.71875 19.921875 
L 86.71875 5.859375 
Q 86.71875 -0.78125 87.109375 -10.15625 
L 78.90625 -10.15625 
L 78.90625 -2.34375 
L 23.4375 -2.34375 
L 23.4375 -10.15625 
L 15.234375 -10.15625 
Q 15.625 1.5625 15.625 7.03125 
L 15.625 19.921875 
Q 15.625 30.078125 15.234375 35.9375 
L 87.109375 35.9375 
z
M 52.34375 38.671875 
Q 50.78125 41.40625 45.3125 44.53125 
Q 51.953125 47.65625 56.640625 53.125 
Q 61.328125 58.59375 62.890625 69.53125 
Q 57.421875 69.53125 50.390625 68.75 
L 50.390625 76.171875 
Q 57.421875 75.78125 63.28125 75.78125 
L 92.96875 75.78125 
Q 91.796875 69.140625 91.015625 61.125 
Q 90.234375 53.125 89.453125 48.828125 
Q 88.671875 44.53125 85.34375 43.359375 
Q 82.03125 42.1875 74.609375 40.625 
Q 73.046875 46.09375 70.703125 50 
Q 76.5625 50 79.296875 50.390625 
Q 82.03125 50.78125 82.609375 53.125 
Q 83.203125 55.46875 83.984375 69.53125 
L 70.703125 69.53125 
Q 69.140625 57.421875 64.25 50.78125 
Q 59.375 44.140625 52.34375 38.671875 
z
M 34.375 55.859375 
Q 32.03125 59.375 29.296875 62.109375 
Q 33.203125 64.0625 35.546875 66.40625 
Q 41.40625 58.59375 46.875 50.78125 
Q 43.75 48.4375 40.234375 46.09375 
Q 39.0625 48.4375 37.5 50.78125 
Q 31.25 48.046875 24.796875 44.71875 
Q 18.359375 41.40625 12.5 37.890625 
Q 10.546875 41.40625 7.8125 44.53125 
Q 10.546875 46.875 10.546875 53.515625 
L 10.546875 64.453125 
Q 10.546875 71.09375 10.15625 75.78125 
Q 16.796875 75.78125 24.609375 76.953125 
Q 32.421875 78.125 39.84375 81.640625 
Q 41.40625 77.734375 46.09375 73.4375 
Q 43.359375 73.4375 35.734375 71.875 
Q 28.125 70.3125 18.359375 69.53125 
L 18.359375 48.828125 
Q 25 51.5625 34.375 55.859375 
z
M 48.046875 3.90625 
L 48.046875 13.671875 
L 23.4375 13.671875 
L 23.4375 3.90625 
z
M 48.046875 19.921875 
L 48.046875 29.6875 
L 23.4375 29.6875 
L 23.4375 19.921875 
z
M 78.90625 19.921875 
L 78.90625 29.6875 
L 55.46875 29.6875 
L 55.46875 19.921875 
z
M 78.90625 3.90625 
L 78.90625 13.671875 
L 55.46875 13.671875 
L 55.46875 3.90625 
z
" id="SimHei-30041"/>
     <path d="M 80.078125 4.296875 
Q 80.078125 -1.5625 80.859375 -9.765625 
L 72.65625 -9.765625 
L 72.65625 -3.90625 
L 32.421875 -3.90625 
L 32.421875 -10.15625 
L 24.21875 -10.15625 
Q 24.609375 -1.953125 24.609375 3.515625 
L 24.609375 12.5 
Q 24.609375 14.84375 24.21875 19.53125 
Q 21.484375 18.359375 7.421875 14.0625 
Q 6.25 18.75 3.515625 23.046875 
Q 17.578125 25 26.953125 27.34375 
Q 36.328125 29.6875 44.53125 33.984375 
Q 39.84375 36.328125 30.46875 44.140625 
Q 25.78125 39.453125 19.921875 34.765625 
Q 17.1875 38.671875 13.28125 40.625 
Q 21.484375 45.703125 27.53125 52.140625 
Q 33.59375 58.59375 36.328125 65.234375 
Q 41.40625 62.890625 46.484375 61.328125 
Q 44.140625 59.765625 41.015625 56.25 
L 78.515625 56.25 
Q 74.21875 49.609375 70.3125 45.109375 
Q 66.40625 40.625 58.203125 33.984375 
Q 63.671875 31.640625 72.84375 29.296875 
Q 82.03125 26.953125 96.484375 26.171875 
Q 93.75 21.484375 92.96875 16.40625 
Q 85.546875 18.359375 80.859375 19.53125 
Q 80.078125 15.625 80.078125 11.328125 
z
M 92.96875 73.4375 
Q 92.578125 66.796875 92.578125 63.671875 
Q 92.578125 60.9375 92.96875 55.078125 
L 84.765625 55.078125 
L 84.765625 66.40625 
L 16.40625 66.40625 
L 16.40625 54.6875 
L 7.8125 54.6875 
Q 8.203125 58.59375 8.203125 62.109375 
Q 8.203125 65.625 7.8125 73.4375 
L 47.265625 73.4375 
Q 46.09375 77.34375 44.140625 80.859375 
Q 50 82.03125 53.515625 82.8125 
Q 56.25 75 56.640625 73.4375 
z
M 72.65625 1.953125 
L 72.65625 13.28125 
L 32.421875 13.28125 
L 32.421875 1.953125 
z
M 37.890625 23.4375 
Q 31.640625 21.09375 25 19.53125 
L 80.078125 19.53125 
Q 67.96875 22.265625 61.90625 24.609375 
Q 55.859375 26.953125 50.78125 28.90625 
Q 44.140625 25.78125 37.890625 23.4375 
z
M 35.9375 50 
Q 35.546875 49.609375 35.15625 48.828125 
Q 44.921875 40.625 51.953125 37.890625 
Q 59.375 43.359375 64.84375 50 
L 35.9375 50 
z
" id="SimHei-23458"/>
     <path d="M 90.234375 63.28125 
Q 89.84375 53.90625 89.84375 41.796875 
Q 89.84375 30.078125 90.234375 23.4375 
L 81.640625 23.4375 
L 81.640625 29.296875 
L 27.34375 29.296875 
Q 25.78125 16.796875 23.4375 10.546875 
Q 21.09375 4.296875 18.359375 -0.578125 
Q 15.625 -5.46875 12.5 -9.765625 
Q 8.59375 -6.640625 3.90625 -5.078125 
Q 11.71875 3.125 14.640625 10.34375 
Q 17.578125 17.578125 18.546875 24.015625 
Q 19.53125 30.46875 19.53125 37.890625 
Q 19.53125 45.3125 19.140625 63.28125 
L 90.234375 63.28125 
z
M 81.25 36.328125 
L 81.25 56.25 
L 26.953125 56.25 
L 26.953125 36.328125 
z
M 53.125 82.421875 
Q 57.8125 73.046875 59.765625 67.578125 
Q 54.6875 66.40625 51.953125 64.84375 
Q 49.21875 73.046875 45.703125 79.296875 
Q 49.609375 80.46875 53.125 82.421875 
z
" id="SimHei-25143"/>
    </defs>
    <g style="fill:#262626;" transform="translate(7.2 41.944502)scale(0.088 -0.088)">
     <use xlink:href="#SimHei-23384"/>
     <use x="100" xlink:href="#SimHei-30041"/>
     <use x="200" xlink:href="#SimHei-23458"/>
     <use x="300" xlink:href="#SimHei-25143"/>
    </g>
   </g>
   <g id="text_2">
    <!-- 73.46% -->
    <defs>
     <path d="M 13.28125 2.34375 
Q 20.3125 32.03125 37.890625 61.328125 
L 4.296875 61.328125 
L 4.296875 68.359375 
L 46.09375 68.359375 
L 46.09375 61.71875 
Q 27.734375 32.03125 21.875 2.34375 
L 13.28125 2.34375 
z
" id="SimHei-55"/>
     <path d="M 3.90625 19.140625 
L 10.9375 20.3125 
Q 12.5 15.234375 16.015625 11.90625 
Q 19.53125 8.59375 24.796875 8.78125 
Q 30.078125 8.984375 33.203125 13.078125 
Q 36.328125 17.1875 35.9375 22.453125 
Q 35.546875 27.734375 31.828125 30.65625 
Q 28.125 33.59375 19.921875 34.765625 
L 19.921875 39.84375 
Q 28.125 40.625 31.828125 44.140625 
Q 35.546875 47.65625 35.15625 53.3125 
Q 34.765625 58.984375 30.078125 61.515625 
Q 25.390625 64.0625 20.109375 62.109375 
Q 14.84375 60.15625 11.71875 51.171875 
L 4.6875 52.34375 
Q 7.03125 59.375 11.125 64.0625 
Q 15.234375 68.75 22.265625 69.53125 
Q 29.296875 70.3125 34.5625 67.765625 
Q 39.84375 65.234375 41.984375 59.953125 
Q 44.140625 54.6875 42.578125 48.4375 
Q 41.015625 42.1875 33.59375 37.5 
Q 39.0625 35.15625 41.984375 30.46875 
Q 44.921875 25.78125 43.9375 18.15625 
Q 42.96875 10.546875 37.109375 5.859375 
Q 31.25 1.171875 23.828125 1.359375 
Q 16.40625 1.5625 10.9375 6.046875 
Q 5.46875 10.546875 3.90625 19.140625 
z
" id="SimHei-51"/>
     <path d="M 16.796875 1.953125 
L 7.8125 1.953125 
L 7.8125 10.546875 
L 16.796875 10.546875 
z
" id="SimHei-46"/>
     <path d="M 31.25 17.1875 
L 1.171875 17.1875 
L 1.171875 23.828125 
L 32.8125 69.53125 
L 38.671875 69.53125 
L 38.671875 23.828125 
L 48.046875 23.828125 
L 48.046875 17.1875 
L 38.671875 17.1875 
L 38.671875 2.34375 
L 31.25 2.34375 
z
M 31.25 23.828125 
L 31.25 54.6875 
L 9.375 23.828125 
z
" id="SimHei-52"/>
     <path d="M 3.515625 19.53125 
Q 4.296875 30.859375 6.046875 34.765625 
Q 7.8125 38.671875 11.328125 44.53125 
L 27.34375 69.53125 
L 36.328125 69.53125 
L 19.921875 43.75 
Q 30.46875 46.484375 36.71875 42.96875 
Q 42.96875 39.453125 45.109375 34.953125 
Q 47.265625 30.46875 47.453125 25.1875 
Q 47.65625 19.921875 45.890625 14.84375 
Q 44.140625 9.765625 39.640625 5.65625 
Q 35.15625 1.5625 27.140625 1.171875 
Q 19.140625 0.78125 13.46875 4.09375 
Q 7.8125 7.421875 5.65625 13.46875 
Q 3.515625 19.53125 4.296875 30.859375 
z
M 12.5 16.015625 
Q 19.53125 8.59375 25.390625 8.203125 
Q 31.25 7.8125 35.15625 12.109375 
Q 39.0625 16.40625 39.0625 24.609375 
Q 39.0625 32.8125 34.171875 35.9375 
Q 29.296875 39.0625 23.234375 38.28125 
Q 17.1875 37.5 14.453125 32.421875 
Q 11.71875 27.34375 12.109375 21.671875 
Q 12.5 16.015625 19.53125 8.59375 
z
" id="SimHei-54"/>
     <path d="M 21.875 51.953125 
Q 21.875 40.625 18.546875 37.5 
Q 15.234375 34.375 12.109375 34.375 
Q 8.984375 34.375 5.65625 37.5 
Q 2.34375 40.625 2.34375 51.953125 
Q 2.34375 63.28125 5.65625 66.40625 
Q 8.984375 69.53125 12.109375 69.53125 
Q 15.234375 69.53125 18.546875 66.40625 
Q 21.875 63.28125 21.875 51.953125 
z
M 41.015625 68.359375 
L 10.9375 1.171875 
L 7.8125 2.34375 
L 37.890625 69.53125 
z
M 46.484375 18.75 
Q 46.484375 7.421875 43.15625 4.296875 
Q 39.84375 1.171875 36.71875 1.171875 
Q 33.59375 1.171875 30.265625 4.296875 
Q 26.953125 7.421875 26.953125 18.75 
Q 26.953125 30.078125 30.265625 33.203125 
Q 33.59375 36.328125 36.71875 36.328125 
Q 39.84375 36.328125 43.15625 33.203125 
Q 46.484375 30.078125 46.484375 18.75 
z
M 15.625 51.953125 
Q 15.625 58.984375 14.84375 61.328125 
Q 14.0625 63.671875 12.109375 63.671875 
Q 10.15625 63.671875 9.375 61.328125 
Q 8.59375 58.984375 8.59375 51.953125 
Q 8.59375 44.921875 9.375 42.578125 
Q 10.15625 40.234375 12.109375 40.234375 
Q 14.0625 40.234375 14.84375 42.578125 
Q 15.625 44.921875 15.625 51.953125 
z
M 40.234375 18.75 
Q 40.234375 25.78125 39.453125 28.125 
Q 38.671875 30.46875 36.71875 30.46875 
Q 34.765625 30.46875 33.984375 28.125 
Q 33.203125 25.78125 33.203125 18.75 
Q 33.203125 11.71875 33.984375 9.375 
Q 34.765625 7.03125 36.71875 7.03125 
Q 38.671875 7.03125 39.453125 9.375 
Q 40.234375 11.71875 40.234375 18.75 
z
" id="SimHei-37"/>
    </defs>
    <g style="fill:#262626;" transform="translate(70.092022 88.003345)scale(0.096 -0.096)">
     <use xlink:href="#SimHei-55"/>
     <use x="50" xlink:href="#SimHei-51"/>
     <use x="100" xlink:href="#SimHei-46"/>
     <use x="150" xlink:href="#SimHei-52"/>
     <use x="200" xlink:href="#SimHei-54"/>
     <use x="250" xlink:href="#SimHei-37"/>
    </g>
   </g>
   <g id="text_3">
    <!-- 流失客户 -->
    <defs>
     <path d="M 58.203125 82.03125 
Q 62.109375 76.171875 66.015625 69.53125 
L 78.515625 69.53125 
Q 84.765625 69.53125 92.578125 69.921875 
L 92.578125 62.890625 
Q 83.203125 63.28125 78.515625 63.28125 
L 53.515625 63.28125 
Q 56.640625 60.9375 58.984375 59.765625 
Q 57.03125 58.203125 53.90625 54.296875 
Q 50.78125 50.390625 44.53125 43.359375 
Q 58.59375 43.75 74.609375 44.53125 
Q 70.703125 49.21875 66.796875 52.734375 
Q 70.703125 55.46875 72.265625 57.421875 
Q 83.203125 46.09375 90.625 37.109375 
Q 87.109375 34.375 84.375 32.03125 
Q 81.25 36.328125 78.90625 39.453125 
Q 70.3125 38.671875 55.65625 37.6875 
Q 41.015625 36.71875 35.9375 35.15625 
Q 34.765625 38.671875 32.421875 41.796875 
Q 36.328125 42.96875 41.796875 49.609375 
Q 47.265625 56.25 50.78125 63.28125 
L 46.484375 63.28125 
Q 39.453125 63.28125 32.03125 62.5 
L 32.03125 69.921875 
Q 39.453125 69.53125 46.484375 69.53125 
L 57.421875 69.53125 
Q 54.296875 75 51.953125 78.125 
Q 55.859375 80.078125 58.203125 82.03125 
z
M 78.515625 31.640625 
Q 78.125 26.5625 78.125 21.484375 
L 78.125 2.34375 
Q 78.125 -1.171875 81.640625 -1.171875 
L 85.546875 -1.171875 
Q 88.671875 -1.171875 89.0625 7.8125 
Q 92.1875 5.46875 96.875 4.296875 
Q 94.53125 -5.46875 91.984375 -6.640625 
Q 89.453125 -7.8125 85.9375 -7.8125 
L 78.515625 -7.8125 
Q 71.09375 -7.8125 71.09375 -0.390625 
L 71.09375 22.265625 
Q 71.09375 26.953125 70.703125 31.640625 
L 78.515625 31.640625 
z
M 48.828125 30.859375 
Q 48.046875 26.953125 47.453125 18.9375 
Q 46.875 10.9375 43.9375 3.515625 
Q 41.015625 -3.90625 30.46875 -10.9375 
Q 27.734375 -7.421875 24.609375 -5.078125 
Q 32.421875 -1.5625 36.125 4.484375 
Q 39.84375 10.546875 40.234375 18.15625 
Q 40.625 25.78125 40.234375 31.640625 
Q 44.140625 30.859375 48.828125 30.859375 
z
M 62.5 31.640625 
Q 62.109375 29.296875 62.109375 21.875 
L 62.109375 4.6875 
Q 62.109375 -0.390625 62.5 -7.8125 
L 54.296875 -7.8125 
Q 54.6875 -0.78125 54.6875 4.6875 
L 54.6875 21.875 
Q 54.6875 28.515625 54.296875 31.640625 
L 62.5 31.640625 
z
M 29.6875 25.390625 
Q 25.78125 18.75 21.09375 8.78125 
Q 16.40625 -1.171875 13.28125 -6.640625 
Q 9.765625 -3.90625 5.078125 -1.953125 
Q 8.984375 2.734375 14.0625 11.71875 
Q 19.140625 20.703125 22.65625 30.46875 
Q 25.78125 27.734375 29.6875 25.390625 
z
M 9.765625 53.90625 
Q 18.75 48.4375 26.953125 42.578125 
Q 23.828125 39.453125 21.484375 35.546875 
Q 14.453125 42.1875 5.078125 46.875 
Q 7.421875 50 9.765625 53.90625 
z
M 14.453125 77.734375 
Q 23.4375 72.265625 29.6875 67.1875 
Q 26.953125 63.671875 24.21875 60.546875 
Q 17.96875 66.796875 9.765625 71.484375 
Q 12.5 75 14.453125 77.734375 
z
" id="SimHei-27969"/>
     <path d="M 32.03125 69.53125 
Q 30.078125 67.578125 26.171875 58.59375 
L 46.09375 58.59375 
Q 46.09375 72.65625 45.703125 79.6875 
Q 49.609375 79.296875 54.6875 78.90625 
Q 53.90625 73.4375 53.703125 69.140625 
Q 53.515625 64.84375 53.515625 58.59375 
L 71.875 58.59375 
Q 78.125 58.59375 84.765625 58.984375 
L 84.765625 51.5625 
Q 78.515625 51.953125 71.875 51.953125 
L 53.515625 51.953125 
Q 53.515625 43.359375 52.734375 34.375 
L 78.90625 34.375 
Q 84.765625 34.375 91.796875 34.765625 
L 91.796875 27.34375 
Q 84.765625 27.734375 78.90625 27.734375 
L 55.859375 27.734375 
Q 60.546875 17.1875 71.875 10.546875 
Q 83.203125 3.90625 94.140625 1.5625 
Q 91.015625 -2.34375 88.671875 -7.421875 
Q 77.34375 -3.125 66.40625 4.484375 
Q 55.46875 12.109375 50 23.046875 
Q 45.3125 12.890625 36.328125 4.6875 
Q 27.34375 -3.515625 12.109375 -10.15625 
Q 10.15625 -6.25 6.25 -2.734375 
Q 19.53125 0.78125 29.875 9.171875 
Q 40.234375 17.578125 43.359375 27.734375 
L 20.703125 27.734375 
Q 14.453125 27.734375 7.03125 27.34375 
L 7.03125 34.765625 
Q 14.453125 34.375 20.703125 34.375 
L 44.921875 34.375 
Q 46.09375 42.578125 46.09375 51.953125 
L 23.4375 51.953125 
Q 18.75 43.75 15.234375 38.28125 
Q 12.109375 40.234375 7.8125 41.796875 
Q 14.84375 50.390625 18.546875 58.59375 
Q 22.265625 66.796875 23.4375 73.046875 
Q 28.125 70.703125 32.03125 69.53125 
z
" id="SimHei-22833"/>
    </defs>
    <g style="fill:#262626;" transform="translate(210.76808 227.428318)scale(0.088 -0.088)">
     <use xlink:href="#SimHei-27969"/>
     <use x="100" xlink:href="#SimHei-22833"/>
     <use x="200" xlink:href="#SimHei-23458"/>
     <use x="300" xlink:href="#SimHei-25143"/>
    </g>
   </g>
   <g id="text_4">
    <!-- 26.54% -->
    <defs>
     <path d="M 4.6875 3.90625 
Q 5.078125 9.765625 10.15625 14.453125 
Q 15.234375 19.140625 23.046875 29.09375 
Q 30.859375 39.0625 33.203125 44.53125 
Q 35.546875 50 34.953125 53.90625 
Q 34.375 57.8125 31.25 60.34375 
Q 28.125 62.890625 24.015625 62.5 
Q 19.921875 62.109375 16.203125 59.375 
Q 12.5 56.640625 10.546875 51.171875 
L 3.125 52.34375 
Q 6.25 61.328125 11.125 65.421875 
Q 16.015625 69.53125 22.65625 69.921875 
Q 26.5625 70.3125 29.6875 69.71875 
Q 32.8125 69.140625 36.125 66.984375 
Q 39.453125 64.84375 41.59375 60.546875 
Q 43.75 56.25 43.15625 50.1875 
Q 42.578125 44.140625 37.109375 35.734375 
Q 31.640625 27.34375 16.015625 9.375 
L 44.140625 9.375 
L 44.140625 2.34375 
L 4.6875 2.34375 
z
" id="SimHei-50"/>
     <path d="M 8.59375 20.703125 
Q 11.328125 10.15625 17.96875 8.984375 
Q 24.609375 7.8125 28.703125 10.34375 
Q 32.8125 12.890625 34.5625 16.984375 
Q 36.328125 21.09375 36.125 26.171875 
Q 35.9375 31.25 33.390625 34.765625 
Q 30.859375 38.28125 26.953125 39.453125 
Q 23.046875 40.625 18.15625 39.453125 
Q 13.28125 38.28125 10.15625 33.984375 
L 3.515625 34.765625 
Q 4.296875 37.109375 10.9375 68.359375 
L 41.796875 68.359375 
L 41.796875 61.328125 
L 16.796875 61.328125 
Q 14.84375 50.78125 12.890625 44.53125 
Q 18.75 47.265625 23.828125 47.0625 
Q 28.90625 46.875 33.59375 44.71875 
Q 38.28125 42.578125 40.421875 38.859375 
Q 42.578125 35.15625 43.546875 31.4375 
Q 44.53125 27.734375 44.328125 23.4375 
Q 44.140625 19.140625 42.578125 14.640625 
Q 41.015625 10.15625 37.890625 7.21875 
Q 34.765625 4.296875 30.265625 2.53125 
Q 25.78125 0.78125 19.921875 1.171875 
Q 14.0625 1.5625 8.78125 5.46875 
Q 3.515625 9.375 1.5625 18.75 
z
" id="SimHei-53"/>
    </defs>
    <g style="fill:#262626;" transform="translate(154.276062 180.736659)scale(0.096 -0.096)">
     <use xlink:href="#SimHei-50"/>
     <use x="50" xlink:href="#SimHei-54"/>
     <use x="100" xlink:href="#SimHei-46"/>
     <use x="150" xlink:href="#SimHei-53"/>
     <use x="200" xlink:href="#SimHei-52"/>
     <use x="250" xlink:href="#SimHei-37"/>
    </g>
   </g>
   <g id="text_5">
    <!-- 电信客户流失占比 -->
    <defs>
     <path d="M 96.09375 5.078125 
Q 93.359375 -3.90625 91.015625 -6.4375 
Q 88.671875 -8.984375 83.203125 -8.984375 
L 52.734375 -8.984375 
Q 42.1875 -9.375 41.796875 1.5625 
L 41.796875 15.234375 
L 19.140625 15.234375 
L 19.140625 7.8125 
L 10.15625 7.8125 
Q 10.546875 11.71875 10.546875 34.765625 
Q 10.546875 57.8125 10.15625 64.84375 
L 41.796875 64.84375 
Q 41.796875 75.390625 41.40625 81.25 
L 50 81.25 
Q 49.609375 76.171875 49.609375 64.84375 
L 81.25 64.84375 
Q 80.859375 58.984375 80.859375 40.625 
Q 80.859375 22.65625 81.25 15.234375 
L 49.609375 15.234375 
L 49.609375 4.6875 
Q 49.609375 -2.34375 57.03125 -2.34375 
L 77.734375 -2.34375 
Q 83.984375 -2.34375 85.15625 0.390625 
Q 86.328125 3.125 87.109375 8.984375 
Q 91.015625 6.25 96.09375 5.078125 
z
M 73.046875 21.875 
L 73.046875 37.5 
L 49.609375 37.5 
L 49.609375 21.875 
z
M 41.796875 21.875 
L 41.796875 37.5 
L 19.140625 37.5 
L 19.140625 21.875 
z
M 73.046875 43.75 
L 73.046875 58.203125 
L 49.609375 58.203125 
L 49.609375 43.75 
z
M 41.796875 43.75 
L 41.796875 58.203125 
L 19.140625 58.203125 
L 19.140625 43.75 
z
" id="SimHei-30005"/>
     <path d="M 88.28125 24.609375 
Q 87.890625 19.921875 87.890625 8.984375 
Q 87.890625 -1.5625 88.28125 -7.03125 
L 80.859375 -7.03125 
L 80.859375 -0.390625 
L 47.265625 -0.390625 
L 47.265625 -8.59375 
L 39.453125 -8.59375 
Q 39.84375 -2.734375 39.84375 7.8125 
Q 39.84375 18.75 39.453125 24.609375 
L 88.28125 24.609375 
z
M 33.203125 77.734375 
Q 30.859375 75.390625 25.78125 62.109375 
L 25.78125 8.59375 
Q 25.78125 -3.125 26.171875 -9.765625 
L 17.578125 -9.765625 
Q 18.75 -2.734375 18.75 8.984375 
L 18.75 48.4375 
Q 14.0625 39.0625 9.765625 32.8125 
Q 7.421875 36.71875 3.90625 39.0625 
Q 8.203125 43.75 14.453125 55.65625 
Q 20.703125 67.578125 23.828125 80.859375 
Q 28.125 79.296875 33.203125 77.734375 
z
M 80.859375 5.859375 
L 80.859375 19.140625 
L 47.265625 19.140625 
L 47.265625 5.859375 
z
M 94.921875 60.9375 
Q 87.109375 61.328125 64.0625 61.328125 
Q 41.015625 61.328125 32.8125 60.9375 
L 32.8125 67.578125 
L 94.921875 67.578125 
z
M 89.0625 46.875 
Q 82.421875 47.265625 64.84375 47.265625 
Q 47.265625 47.265625 38.671875 46.875 
L 38.671875 53.515625 
Q 46.09375 53.125 64.0625 53.125 
Q 82.421875 53.125 89.0625 53.515625 
z
M 89.0625 33.203125 
Q 83.59375 33.59375 65.234375 33.59375 
Q 47.265625 33.59375 38.671875 33.203125 
L 38.671875 39.84375 
Q 46.875 39.453125 65.234375 39.453125 
Q 83.984375 39.453125 89.0625 39.84375 
z
M 62.890625 81.25 
Q 64.0625 78.90625 65.234375 76.171875 
Q 66.40625 73.4375 67.578125 70.3125 
Q 64.0625 69.140625 60.546875 68.359375 
Q 57.8125 76.5625 55.859375 78.515625 
Q 59.765625 80.078125 62.890625 81.25 
z
" id="SimHei-20449"/>
     <path d="M 42.578125 68.75 
Q 42.578125 75 42.1875 79.296875 
L 52.734375 79.296875 
Q 52.34375 74.609375 52.34375 68.75 
L 52.34375 62.5 
L 82.03125 62.5 
Q 92.1875 62.5 96.09375 62.890625 
L 96.09375 55.078125 
Q 92.1875 55.46875 82.8125 55.46875 
L 52.34375 55.46875 
L 52.34375 36.328125 
L 85.15625 36.328125 
Q 84.375 31.25 84.375 23.828125 
L 84.375 5.078125 
Q 84.375 -3.90625 85.15625 -8.59375 
L 75.78125 -8.59375 
L 75.78125 -0.390625 
L 23.046875 -0.390625 
L 23.046875 -8.59375 
L 13.671875 -8.59375 
Q 14.0625 -2.34375 14.0625 2.734375 
L 14.0625 24.21875 
Q 14.0625 31.25 13.671875 36.328125 
L 42.578125 36.328125 
z
M 75.78125 6.640625 
L 75.78125 29.296875 
L 23.046875 29.296875 
L 23.046875 6.640625 
z
" id="SimHei-21344"/>
     <path d="M 58.984375 79.6875 
Q 58.59375 71.484375 58.59375 64.0625 
L 58.59375 47.65625 
Q 76.953125 56.25 85.546875 65.234375 
Q 88.671875 60.9375 92.1875 57.421875 
Q 87.5 54.6875 78.703125 49.796875 
Q 69.921875 44.921875 58.59375 39.84375 
L 58.59375 7.03125 
Q 58.59375 1.5625 63.28125 1.5625 
L 78.125 1.5625 
Q 80.859375 1.5625 82.21875 3.90625 
Q 83.59375 6.25 85.15625 14.0625 
Q 88.28125 12.109375 94.140625 10.546875 
Q 91.40625 0 88.28125 -2.734375 
Q 85.15625 -5.46875 81.640625 -5.46875 
L 60.9375 -5.46875 
Q 50.78125 -5.46875 50.78125 4.296875 
L 50.78125 62.5 
Q 50.78125 71.09375 50.390625 79.6875 
L 58.984375 79.6875 
z
M 19.921875 77.734375 
Q 19.53125 71.484375 19.53125 62.5 
L 19.53125 49.21875 
L 28.90625 49.21875 
Q 36.328125 49.21875 44.921875 49.609375 
L 44.921875 41.40625 
Q 36.328125 41.796875 28.90625 41.796875 
L 19.53125 41.796875 
L 19.53125 7.421875 
Q 25.78125 10.15625 30.65625 12.6875 
Q 35.546875 15.234375 44.53125 19.921875 
Q 45.3125 14.84375 46.09375 11.71875 
Q 37.109375 7.421875 27.53125 2.734375 
Q 17.96875 -1.953125 14.453125 -5.078125 
Q 11.71875 -1.5625 8.984375 3.125 
Q 10.9375 4.6875 11.71875 9.375 
L 11.71875 61.71875 
Q 11.71875 71.09375 11.328125 77.734375 
L 19.921875 77.734375 
z
" id="SimHei-27604"/>
    </defs>
    <g style="fill:#262626;" transform="translate(78.584044 16.95)scale(0.12 -0.12)">
     <use xlink:href="#SimHei-30005"/>
     <use x="100" xlink:href="#SimHei-20449"/>
     <use x="200" xlink:href="#SimHei-23458"/>
     <use x="300" xlink:href="#SimHei-25143"/>
     <use x="400" xlink:href="#SimHei-27969"/>
     <use x="500" xlink:href="#SimHei-22833"/>
     <use x="600" xlink:href="#SimHei-21344"/>
     <use x="700" xlink:href="#SimHei-27604"/>
    </g>
   </g>
  </g>
 </g>
</svg>
