<?xml version="1.0" encoding="utf-8" standalone="no"?>
<!DOCTYPE svg PUBLIC "-//W3C//DTD SVG 1.1//EN"
  "http://www.w3.org/Graphics/SVG/1.1/DTD/svg11.dtd">
<!-- Created with matplotlib (https://matplotlib.org/) -->
<svg height="265.093906pt" version="1.1" viewBox="0 0 364.325 265.093906" width="364.325pt" xmlns="http://www.w3.org/2000/svg" xmlns:xlink="http://www.w3.org/1999/xlink">
 <defs>
  <style type="text/css">
*{stroke-linecap:butt;stroke-linejoin:round;}
  </style>
 </defs>
 <g id="figure_1">
  <g id="patch_1">
   <path d="M 0 265.093906 
L 364.325 265.093906 
L 364.325 0 
L 0 0 
z
" style="fill:#ffffff;"/>
  </g>
  <g id="axes_1">
   <g id="patch_2">
    <path d="M 22.325 242.768906 
L 357.125 242.768906 
L 357.125 25.328906 
L 22.325 25.328906 
z
" style="fill:#eaeaf2;"/>
   </g>
   <g id="matplotlib.axis_1">
    <g id="xtick_1">
     <g id="text_1">
      <!-- buy -->
      <defs>
       <path d="M 44.140625 23.828125 
Q 44.140625 12.5 38.671875 6.828125 
Q 33.203125 1.171875 25.390625 1.171875 
Q 21.09375 1.171875 17.96875 2.734375 
Q 14.84375 4.296875 12.5 7.8125 
L 12.5 1.953125 
L 4.6875 1.953125 
L 4.6875 68.75 
L 12.5 68.75 
L 12.5 39.84375 
Q 14.84375 43.359375 17.96875 45.109375 
Q 21.09375 46.875 25.390625 46.875 
Q 33.203125 46.875 38.671875 41.015625 
Q 44.140625 35.15625 44.140625 23.828125 
z
M 35.546875 23.828125 
Q 35.546875 31.25 32.609375 35.546875 
Q 29.6875 39.84375 23.828125 39.84375 
Q 19.140625 39.84375 15.8125 35.546875 
Q 12.5 31.25 12.5 23.828125 
Q 12.5 16.40625 15.8125 12.296875 
Q 19.140625 8.203125 23.828125 8.203125 
Q 29.6875 8.203125 32.609375 12.296875 
Q 35.546875 16.40625 35.546875 23.828125 
z
" id="SimHei-98"/>
       <path d="M 43.75 1.953125 
L 35.9375 1.953125 
L 35.9375 10.15625 
Q 32.8125 5.859375 29.09375 3.515625 
Q 25.390625 1.171875 19.53125 1.171875 
Q 12.5 1.171875 8.984375 5.078125 
Q 5.46875 8.984375 5.46875 14.84375 
L 5.46875 45.703125 
L 13.28125 45.703125 
L 13.28125 17.578125 
Q 13.28125 12.890625 15.625 10.15625 
Q 17.96875 7.421875 21.875 7.421875 
Q 26.953125 7.421875 31.4375 12.6875 
Q 35.9375 17.96875 35.9375 25.78125 
L 35.9375 45.703125 
L 43.75 45.703125 
z
" id="SimHei-117"/>
       <path d="M 45.3125 45.703125 
L 27.34375 -1.5625 
Q 25.78125 -7.03125 22.65625 -9.765625 
Q 19.53125 -12.5 14.84375 -12.5 
Q 12.890625 -12.5 11.125 -12.296875 
Q 9.375 -12.109375 7.8125 -11.328125 
L 7.8125 -3.515625 
Q 9.375 -4.296875 10.9375 -4.6875 
Q 12.5 -5.078125 13.671875 -5.078125 
Q 16.796875 -5.078125 17.96875 -4.09375 
Q 19.140625 -3.125 20.3125 0.390625 
L 3.125 45.703125 
L 11.71875 45.703125 
L 24.21875 11.328125 
L 24.609375 11.328125 
L 36.71875 45.703125 
z
" id="SimHei-121"/>
      </defs>
      <g style="fill:#262626;" transform="translate(56.675 256.643906)scale(0.1 -0.1)">
       <use xlink:href="#SimHei-98"/>
       <use x="50" xlink:href="#SimHei-117"/>
       <use x="100" xlink:href="#SimHei-121"/>
      </g>
     </g>
    </g>
    <g id="xtick_2">
     <g id="text_2">
      <!-- cart -->
      <defs>
       <path d="M 44.53125 19.53125 
Q 44.53125 11.328125 38.859375 6.25 
Q 33.203125 1.171875 24.609375 1.171875 
Q 16.015625 1.171875 9.765625 7.21875 
Q 3.515625 13.28125 3.515625 23.828125 
Q 3.515625 34.375 9.765625 40.421875 
Q 16.015625 46.484375 24.609375 46.484375 
Q 33.203125 46.484375 38.28125 41.984375 
Q 43.359375 37.5 43.359375 31.25 
L 34.765625 31.25 
Q 34.375 35.9375 31.4375 37.6875 
Q 28.515625 39.453125 24.609375 39.453125 
Q 19.921875 39.453125 16.015625 35.734375 
Q 12.109375 32.03125 12.109375 23.828125 
Q 12.109375 15.625 16.015625 11.90625 
Q 19.921875 8.203125 24.609375 8.203125 
Q 29.6875 8.203125 32.8125 10.9375 
Q 35.9375 13.671875 35.9375 19.53125 
z
" id="SimHei-99"/>
       <path d="M 44.921875 1.953125 
L 35.546875 1.953125 
Q 34.765625 2.734375 34.375 4.09375 
Q 33.984375 5.46875 33.984375 7.421875 
Q 31.25 4.296875 27.34375 2.734375 
Q 23.4375 1.171875 19.140625 1.171875 
Q 12.890625 1.171875 8.59375 4.296875 
Q 4.296875 7.421875 4.296875 13.28125 
Q 4.296875 19.140625 8.203125 22.65625 
Q 12.109375 26.171875 20.3125 27.34375 
Q 25.78125 28.125 29.875 29.296875 
Q 33.984375 30.46875 33.984375 32.421875 
Q 33.984375 34.765625 32.21875 37.109375 
Q 30.46875 39.453125 24.609375 39.453125 
Q 19.921875 39.453125 17.765625 37.6875 
Q 15.625 35.9375 14.84375 32.8125 
L 6.25 32.8125 
Q 7.03125 39.0625 11.90625 42.765625 
Q 16.796875 46.484375 24.609375 46.484375 
Q 33.203125 46.484375 37.5 42.578125 
Q 41.796875 38.671875 41.796875 31.640625 
L 41.796875 10.15625 
Q 41.796875 7.8125 42.578125 5.859375 
Q 43.359375 3.90625 44.921875 1.953125 
z
M 33.984375 16.40625 
L 33.984375 24.21875 
Q 31.640625 23.4375 29.484375 22.84375 
Q 27.34375 22.265625 22.265625 21.484375 
Q 16.40625 20.703125 14.640625 18.75 
Q 12.890625 16.796875 12.890625 14.0625 
Q 12.890625 11.71875 14.640625 9.953125 
Q 16.40625 8.203125 19.921875 8.203125 
Q 23.4375 8.203125 27.53125 10.15625 
Q 31.640625 12.109375 33.984375 16.40625 
z
" id="SimHei-97"/>
       <path d="M 39.0625 37.890625 
Q 31.640625 39.0625 26.5625 35.734375 
Q 21.484375 32.421875 17.96875 24.21875 
L 17.96875 1.953125 
L 10.15625 1.953125 
L 10.15625 45.703125 
L 17.96875 45.703125 
L 17.96875 34.375 
Q 21.484375 40.625 26.75 43.546875 
Q 32.03125 46.484375 39.0625 46.484375 
z
" id="SimHei-114"/>
       <path d="M 42.96875 3.125 
Q 41.015625 2.34375 38.46875 1.75 
Q 35.9375 1.171875 31.640625 1.171875 
Q 24.609375 1.171875 20.3125 5.078125 
Q 16.015625 8.984375 16.015625 16.015625 
L 16.015625 39.453125 
L 2.734375 39.453125 
L 2.734375 45.703125 
L 16.015625 45.703125 
L 16.015625 60.9375 
L 23.828125 60.9375 
L 23.828125 45.703125 
L 39.84375 45.703125 
L 39.84375 39.453125 
L 23.828125 39.453125 
L 23.828125 15.625 
Q 23.828125 12.5 25.390625 10.34375 
Q 26.953125 8.203125 31.25 8.203125 
Q 35.546875 8.203125 38.28125 8.984375 
Q 41.015625 9.765625 42.96875 10.9375 
z
" id="SimHei-116"/>
      </defs>
      <g style="fill:#262626;" transform="translate(137.875 256.643906)scale(0.1 -0.1)">
       <use xlink:href="#SimHei-99"/>
       <use x="50" xlink:href="#SimHei-97"/>
       <use x="100" xlink:href="#SimHei-114"/>
       <use x="150" xlink:href="#SimHei-116"/>
      </g>
     </g>
    </g>
    <g id="xtick_3">
     <g id="text_3">
      <!-- fav -->
      <defs>
       <path d="M 44.53125 59.765625 
Q 42.578125 60.9375 39.84375 61.71875 
Q 37.109375 62.5 32.8125 62.5 
Q 28.515625 62.5 26.953125 60.34375 
Q 25.390625 58.203125 25.390625 55.078125 
L 25.390625 45.703125 
L 41.40625 45.703125 
L 41.40625 39.453125 
L 25.390625 39.453125 
L 25.390625 1.953125 
L 17.578125 1.953125 
L 17.578125 39.453125 
L 4.296875 39.453125 
L 4.296875 45.703125 
L 17.578125 45.703125 
L 17.578125 54.6875 
Q 17.578125 61.71875 21.875 65.625 
Q 26.171875 69.53125 33.203125 69.53125 
Q 37.5 69.53125 40.03125 68.9375 
Q 42.578125 68.359375 44.53125 67.578125 
z
" id="SimHei-102"/>
       <path d="M 44.921875 45.703125 
L 28.515625 1.171875 
L 19.921875 1.171875 
L 3.515625 45.703125 
L 11.71875 45.703125 
L 23.828125 11.71875 
L 24.609375 11.71875 
L 36.71875 45.703125 
z
" id="SimHei-118"/>
      </defs>
      <g style="fill:#262626;" transform="translate(224.075 256.643906)scale(0.1 -0.1)">
       <use xlink:href="#SimHei-102"/>
       <use x="50" xlink:href="#SimHei-97"/>
       <use x="100" xlink:href="#SimHei-118"/>
      </g>
     </g>
    </g>
    <g id="xtick_4">
     <g id="text_4">
      <!-- pv -->
      <defs>
       <path d="M 44.140625 23.828125 
Q 44.140625 12.5 38.671875 6.640625 
Q 33.203125 0.78125 25.390625 0.78125 
Q 21.09375 0.78125 17.96875 2.53125 
Q 14.84375 4.296875 12.5 7.8125 
L 12.5 -12.5 
L 4.6875 -12.5 
L 4.6875 45.703125 
L 12.5 45.703125 
L 12.5 39.84375 
Q 14.84375 43.359375 17.96875 44.921875 
Q 21.09375 46.484375 25.390625 46.484375 
Q 33.203125 46.484375 38.671875 40.8125 
Q 44.140625 35.15625 44.140625 23.828125 
z
M 35.546875 23.828125 
Q 35.546875 31.25 32.609375 35.34375 
Q 29.6875 39.453125 23.828125 39.453125 
Q 19.140625 39.453125 15.8125 35.34375 
Q 12.5 31.25 12.5 23.828125 
Q 12.5 16.40625 15.8125 12.109375 
Q 19.140625 7.8125 23.828125 7.8125 
Q 29.6875 7.8125 32.609375 12.109375 
Q 35.546875 16.40625 35.546875 23.828125 
z
" id="SimHei-112"/>
      </defs>
      <g style="fill:#262626;" transform="translate(310.275 256.643906)scale(0.1 -0.1)">
       <use xlink:href="#SimHei-112"/>
       <use x="50" xlink:href="#SimHei-118"/>
      </g>
     </g>
    </g>
   </g>
   <g id="matplotlib.axis_2">
    <g id="ytick_1">
     <g id="text_5">
      <!-- buy -->
      <g style="fill:#262626;" transform="translate(14.075 64.071406)rotate(-90)scale(0.1 -0.1)">
       <use xlink:href="#SimHei-98"/>
       <use x="50" xlink:href="#SimHei-117"/>
       <use x="100" xlink:href="#SimHei-121"/>
      </g>
     </g>
    </g>
    <g id="ytick_2">
     <g id="text_6">
      <!-- cart -->
      <g style="fill:#262626;" transform="translate(14.075 123.431406)rotate(-90)scale(0.1 -0.1)">
       <use xlink:href="#SimHei-99"/>
       <use x="50" xlink:href="#SimHei-97"/>
       <use x="100" xlink:href="#SimHei-114"/>
       <use x="150" xlink:href="#SimHei-116"/>
      </g>
     </g>
    </g>
    <g id="ytick_3">
     <g id="text_7">
      <!-- fav -->
      <g style="fill:#262626;" transform="translate(14.075 172.791406)rotate(-90)scale(0.1 -0.1)">
       <use xlink:href="#SimHei-102"/>
       <use x="50" xlink:href="#SimHei-97"/>
       <use x="100" xlink:href="#SimHei-118"/>
      </g>
     </g>
    </g>
    <g id="ytick_4">
     <g id="text_8">
      <!-- pv -->
      <g style="fill:#262626;" transform="translate(14.075 222.151406)rotate(-90)scale(0.1 -0.1)">
       <use xlink:href="#SimHei-112"/>
       <use x="50" xlink:href="#SimHei-118"/>
      </g>
     </g>
    </g>
   </g>
   <g id="QuadMesh_1">
    <path clip-path="url(#pff83f068d0)" d="M 22.325 25.328906 
L 106.025 25.328906 
L 106.025 79.688906 
L 22.325 79.688906 
L 22.325 25.328906 
" style="fill:#00441b;stroke:#ffffff;stroke-width:0.2;"/>
    <path clip-path="url(#pff83f068d0)" d="M 106.025 25.328906 
L 189.725 25.328906 
L 189.725 79.688906 
L 106.025 79.688906 
L 106.025 25.328906 
" style="fill:#f7fcf5;stroke:#ffffff;stroke-width:0.2;"/>
    <path clip-path="url(#pff83f068d0)" d="M 189.725 25.328906 
L 273.425 25.328906 
L 273.425 79.688906 
L 189.725 79.688906 
L 189.725 25.328906 
" style="fill:#c9eac2;stroke:#ffffff;stroke-width:0.2;"/>
    <path clip-path="url(#pff83f068d0)" d="M 273.425 25.328906 
L 357.125 25.328906 
L 357.125 79.688906 
L 273.425 79.688906 
L 273.425 25.328906 
" style="fill:#ddf2d8;stroke:#ffffff;stroke-width:0.2;"/>
    <path clip-path="url(#pff83f068d0)" d="M 22.325 79.688906 
L 106.025 79.688906 
L 106.025 134.048906 
L 22.325 134.048906 
L 22.325 79.688906 
" style="fill:#f7fcf5;stroke:#ffffff;stroke-width:0.2;"/>
    <path clip-path="url(#pff83f068d0)" d="M 106.025 79.688906 
L 189.725 79.688906 
L 189.725 134.048906 
L 106.025 134.048906 
L 106.025 79.688906 
" style="fill:#00441b;stroke:#ffffff;stroke-width:0.2;"/>
    <path clip-path="url(#pff83f068d0)" d="M 189.725 79.688906 
L 273.425 79.688906 
L 273.425 134.048906 
L 189.725 134.048906 
L 189.725 79.688906 
" style="fill:#03702e;stroke:#ffffff;stroke-width:0.2;"/>
    <path clip-path="url(#pff83f068d0)" d="M 273.425 79.688906 
L 357.125 79.688906 
L 357.125 134.048906 
L 273.425 134.048906 
L 273.425 79.688906 
" style="fill:#005020;stroke:#ffffff;stroke-width:0.2;"/>
    <path clip-path="url(#pff83f068d0)" d="M 22.325 134.048906 
L 106.025 134.048906 
L 106.025 188.408906 
L 22.325 188.408906 
L 22.325 134.048906 
" style="fill:#c9eac2;stroke:#ffffff;stroke-width:0.2;"/>
    <path clip-path="url(#pff83f068d0)" d="M 106.025 134.048906 
L 189.725 134.048906 
L 189.725 188.408906 
L 106.025 188.408906 
L 106.025 134.048906 
" style="fill:#03702e;stroke:#ffffff;stroke-width:0.2;"/>
    <path clip-path="url(#pff83f068d0)" d="M 189.725 134.048906 
L 273.425 134.048906 
L 273.425 188.408906 
L 189.725 188.408906 
L 189.725 134.048906 
" style="fill:#00441b;stroke:#ffffff;stroke-width:0.2;"/>
    <path clip-path="url(#pff83f068d0)" d="M 273.425 134.048906 
L 357.125 134.048906 
L 357.125 188.408906 
L 273.425 188.408906 
L 273.425 134.048906 
" style="fill:#005120;stroke:#ffffff;stroke-width:0.2;"/>
    <path clip-path="url(#pff83f068d0)" d="M 22.325 188.408906 
L 106.025 188.408906 
L 106.025 242.768906 
L 22.325 242.768906 
L 22.325 188.408906 
" style="fill:#ddf2d8;stroke:#ffffff;stroke-width:0.2;"/>
    <path clip-path="url(#pff83f068d0)" d="M 106.025 188.408906 
L 189.725 188.408906 
L 189.725 242.768906 
L 106.025 242.768906 
L 106.025 188.408906 
" style="fill:#005020;stroke:#ffffff;stroke-width:0.2;"/>
    <path clip-path="url(#pff83f068d0)" d="M 189.725 188.408906 
L 273.425 188.408906 
L 273.425 242.768906 
L 189.725 242.768906 
L 189.725 188.408906 
" style="fill:#005120;stroke:#ffffff;stroke-width:0.2;"/>
    <path clip-path="url(#pff83f068d0)" d="M 273.425 188.408906 
L 357.125 188.408906 
L 357.125 242.768906 
L 273.425 242.768906 
L 273.425 188.408906 
" style="fill:#00441b;stroke:#ffffff;stroke-width:0.2;"/>
   </g>
   <g id="text_9">
    <!-- 1.00 -->
    <defs>
     <path d="M 21.875 56.25 
Q 16.796875 51.171875 8.984375 46.484375 
L 8.984375 53.90625 
Q 18.75 60.546875 25 69.53125 
L 29.6875 69.53125 
L 29.6875 2.34375 
L 21.875 2.34375 
z
" id="SimHei-49"/>
     <path d="M 16.796875 1.953125 
L 7.8125 1.953125 
L 7.8125 10.546875 
L 16.796875 10.546875 
z
" id="SimHei-46"/>
     <path d="M 3.125 29.296875 
Q 3.90625 50 6.4375 56.046875 
Q 8.984375 62.109375 13.671875 66.015625 
Q 18.359375 69.921875 25.1875 69.921875 
Q 32.03125 69.921875 37.109375 64.25 
Q 42.1875 58.59375 43.75 50 
Q 45.3125 41.40625 44.71875 30.265625 
Q 44.140625 19.140625 40.8125 12.109375 
Q 37.5 5.078125 30.859375 2.34375 
Q 24.21875 -0.390625 17.578125 2.921875 
Q 10.9375 6.25 8.203125 11.71875 
Q 5.46875 17.1875 4.296875 23.234375 
Q 3.125 29.296875 3.90625 50 
z
M 12.890625 52.734375 
Q 10.546875 31.25 12.5 22.84375 
Q 14.453125 14.453125 18.9375 10.9375 
Q 23.4375 7.421875 28.125 9.5625 
Q 32.8125 11.71875 34.953125 18.15625 
Q 37.109375 24.609375 37.109375 32.21875 
Q 37.109375 39.84375 36.515625 46.09375 
Q 35.9375 52.34375 33 57.421875 
Q 30.078125 62.5 25.1875 62.6875 
Q 20.3125 62.890625 16.59375 57.8125 
Q 12.890625 52.734375 10.546875 31.25 
z
" id="SimHei-48"/>
    </defs>
    <g style="fill:#ffffff;" transform="translate(54.175 55.321406)scale(0.1 -0.1)">
     <use xlink:href="#SimHei-49"/>
     <use x="50" xlink:href="#SimHei-46"/>
     <use x="100" xlink:href="#SimHei-48"/>
     <use x="150" xlink:href="#SimHei-48"/>
    </g>
   </g>
   <g id="text_10">
    <!-- 0.84 -->
    <defs>
     <path d="M 2.734375 16.796875 
Q 2.734375 26.171875 5.078125 30.65625 
Q 7.421875 35.15625 12.890625 37.890625 
Q 8.203125 40.625 6.640625 43.9375 
Q 5.078125 47.265625 4.875 51.5625 
Q 4.6875 55.859375 6.046875 58.984375 
Q 7.421875 62.109375 10.15625 64.84375 
Q 12.890625 67.578125 16.203125 68.546875 
Q 19.53125 69.53125 23.4375 69.53125 
Q 27.34375 69.53125 30.46875 68.75 
Q 33.59375 67.96875 37.109375 65.421875 
Q 40.625 62.890625 42.1875 58.203125 
Q 43.75 53.515625 41.984375 47.265625 
Q 40.234375 41.015625 32.8125 37.5 
Q 39.453125 35.546875 42.1875 31.4375 
Q 44.921875 27.34375 44.921875 21.484375 
Q 44.921875 15.625 43.15625 12.109375 
Q 41.40625 8.59375 39.25 6.25 
Q 37.109375 3.90625 33.390625 2.53125 
Q 29.6875 1.171875 24.015625 1.171875 
Q 18.359375 1.171875 14.25 2.53125 
Q 10.15625 3.90625 7.421875 6.640625 
Q 4.6875 9.375 3.703125 13.078125 
Q 2.734375 16.796875 2.734375 26.171875 
z
M 10.9375 26.5625 
Q 10.546875 17.1875 12.296875 13.671875 
Q 14.0625 10.15625 18.75 9.171875 
Q 23.4375 8.203125 28.515625 9.375 
Q 33.59375 10.546875 35.546875 14.84375 
Q 37.5 19.140625 36.90625 23.4375 
Q 36.328125 27.734375 32.03125 30.65625 
Q 27.734375 33.59375 22.65625 33.203125 
Q 17.578125 32.8125 14.25 29.6875 
Q 10.9375 26.5625 10.546875 17.1875 
z
M 12.109375 56.25 
Q 12.109375 48.4375 14.84375 44.921875 
Q 17.578125 41.40625 23.4375 41.40625 
Q 29.296875 41.40625 32.21875 44.921875 
Q 35.15625 48.4375 34.953125 53.3125 
Q 34.765625 58.203125 31.4375 60.546875 
Q 28.125 62.890625 22.453125 62.5 
Q 16.796875 62.109375 14.453125 59.171875 
Q 12.109375 56.25 12.109375 48.4375 
z
" id="SimHei-56"/>
     <path d="M 31.25 17.1875 
L 1.171875 17.1875 
L 1.171875 23.828125 
L 32.8125 69.53125 
L 38.671875 69.53125 
L 38.671875 23.828125 
L 48.046875 23.828125 
L 48.046875 17.1875 
L 38.671875 17.1875 
L 38.671875 2.34375 
L 31.25 2.34375 
z
M 31.25 23.828125 
L 31.25 54.6875 
L 9.375 23.828125 
z
" id="SimHei-52"/>
    </defs>
    <g style="fill:#262626;" transform="translate(137.875 55.321406)scale(0.1 -0.1)">
     <use xlink:href="#SimHei-48"/>
     <use x="50" xlink:href="#SimHei-46"/>
     <use x="100" xlink:href="#SimHei-56"/>
     <use x="150" xlink:href="#SimHei-52"/>
    </g>
   </g>
   <g id="text_11">
    <!-- 0.88 -->
    <g style="fill:#262626;" transform="translate(221.575 55.321406)scale(0.1 -0.1)">
     <use xlink:href="#SimHei-48"/>
     <use x="50" xlink:href="#SimHei-46"/>
     <use x="100" xlink:href="#SimHei-56"/>
     <use x="150" xlink:href="#SimHei-56"/>
    </g>
   </g>
   <g id="text_12">
    <!-- 0.87 -->
    <defs>
     <path d="M 13.28125 2.34375 
Q 20.3125 32.03125 37.890625 61.328125 
L 4.296875 61.328125 
L 4.296875 68.359375 
L 46.09375 68.359375 
L 46.09375 61.71875 
Q 27.734375 32.03125 21.875 2.34375 
L 13.28125 2.34375 
z
" id="SimHei-55"/>
    </defs>
    <g style="fill:#262626;" transform="translate(305.275 55.321406)scale(0.1 -0.1)">
     <use xlink:href="#SimHei-48"/>
     <use x="50" xlink:href="#SimHei-46"/>
     <use x="100" xlink:href="#SimHei-56"/>
     <use x="150" xlink:href="#SimHei-55"/>
    </g>
   </g>
   <g id="text_13">
    <!-- 0.84 -->
    <g style="fill:#262626;" transform="translate(54.175 109.681406)scale(0.1 -0.1)">
     <use xlink:href="#SimHei-48"/>
     <use x="50" xlink:href="#SimHei-46"/>
     <use x="100" xlink:href="#SimHei-56"/>
     <use x="150" xlink:href="#SimHei-52"/>
    </g>
   </g>
   <g id="text_14">
    <!-- 1.00 -->
    <g style="fill:#ffffff;" transform="translate(137.875 109.681406)scale(0.1 -0.1)">
     <use xlink:href="#SimHei-49"/>
     <use x="50" xlink:href="#SimHei-46"/>
     <use x="100" xlink:href="#SimHei-48"/>
     <use x="150" xlink:href="#SimHei-48"/>
    </g>
   </g>
   <g id="text_15">
    <!-- 0.98 -->
    <defs>
     <path d="M 12.5 1.171875 
Q 21.09375 15.625 26.5625 27.34375 
Q 16.796875 25.78125 10.34375 29.875 
Q 3.90625 33.984375 2.53125 41.015625 
Q 1.171875 48.046875 2.734375 53.703125 
Q 4.296875 59.375 7.609375 63.078125 
Q 10.9375 66.796875 15.625 68.359375 
Q 20.3125 69.921875 24.015625 69.921875 
Q 27.734375 69.921875 31.640625 68.359375 
Q 35.546875 66.796875 38.671875 63.671875 
Q 41.796875 60.546875 42.96875 57.21875 
Q 44.140625 53.90625 44.140625 48.625 
Q 44.140625 43.359375 40.234375 35.15625 
Q 36.328125 26.953125 21.09375 1.171875 
z
M 9.765625 50 
Q 10.9375 39.84375 14.640625 36.515625 
Q 18.359375 33.203125 22.65625 33.59375 
Q 26.953125 33.984375 29.484375 35.9375 
Q 32.03125 37.890625 34.375 42.578125 
Q 35.9375 48.4375 35.15625 52.53125 
Q 34.375 56.640625 31.046875 59.375 
Q 27.734375 62.109375 23.828125 62.109375 
Q 21.484375 62.5 17.765625 60.9375 
Q 14.0625 59.375 11.90625 54.6875 
Q 9.765625 50 10.9375 39.84375 
z
" id="SimHei-57"/>
    </defs>
    <g style="fill:#ffffff;" transform="translate(221.575 109.681406)scale(0.1 -0.1)">
     <use xlink:href="#SimHei-48"/>
     <use x="50" xlink:href="#SimHei-46"/>
     <use x="100" xlink:href="#SimHei-57"/>
     <use x="150" xlink:href="#SimHei-56"/>
    </g>
   </g>
   <g id="text_16">
    <!-- 0.99 -->
    <g style="fill:#ffffff;" transform="translate(305.275 109.681406)scale(0.1 -0.1)">
     <use xlink:href="#SimHei-48"/>
     <use x="50" xlink:href="#SimHei-46"/>
     <use x="100" xlink:href="#SimHei-57"/>
     <use x="150" xlink:href="#SimHei-57"/>
    </g>
   </g>
   <g id="text_17">
    <!-- 0.88 -->
    <g style="fill:#262626;" transform="translate(54.175 164.041406)scale(0.1 -0.1)">
     <use xlink:href="#SimHei-48"/>
     <use x="50" xlink:href="#SimHei-46"/>
     <use x="100" xlink:href="#SimHei-56"/>
     <use x="150" xlink:href="#SimHei-56"/>
    </g>
   </g>
   <g id="text_18">
    <!-- 0.98 -->
    <g style="fill:#ffffff;" transform="translate(137.875 164.041406)scale(0.1 -0.1)">
     <use xlink:href="#SimHei-48"/>
     <use x="50" xlink:href="#SimHei-46"/>
     <use x="100" xlink:href="#SimHei-57"/>
     <use x="150" xlink:href="#SimHei-56"/>
    </g>
   </g>
   <g id="text_19">
    <!-- 1.00 -->
    <g style="fill:#ffffff;" transform="translate(221.575 164.041406)scale(0.1 -0.1)">
     <use xlink:href="#SimHei-49"/>
     <use x="50" xlink:href="#SimHei-46"/>
     <use x="100" xlink:href="#SimHei-48"/>
     <use x="150" xlink:href="#SimHei-48"/>
    </g>
   </g>
   <g id="text_20">
    <!-- 0.99 -->
    <g style="fill:#ffffff;" transform="translate(305.275 164.041406)scale(0.1 -0.1)">
     <use xlink:href="#SimHei-48"/>
     <use x="50" xlink:href="#SimHei-46"/>
     <use x="100" xlink:href="#SimHei-57"/>
     <use x="150" xlink:href="#SimHei-57"/>
    </g>
   </g>
   <g id="text_21">
    <!-- 0.87 -->
    <g style="fill:#262626;" transform="translate(54.175 218.401406)scale(0.1 -0.1)">
     <use xlink:href="#SimHei-48"/>
     <use x="50" xlink:href="#SimHei-46"/>
     <use x="100" xlink:href="#SimHei-56"/>
     <use x="150" xlink:href="#SimHei-55"/>
    </g>
   </g>
   <g id="text_22">
    <!-- 0.99 -->
    <g style="fill:#ffffff;" transform="translate(137.875 218.401406)scale(0.1 -0.1)">
     <use xlink:href="#SimHei-48"/>
     <use x="50" xlink:href="#SimHei-46"/>
     <use x="100" xlink:href="#SimHei-57"/>
     <use x="150" xlink:href="#SimHei-57"/>
    </g>
   </g>
   <g id="text_23">
    <!-- 0.99 -->
    <g style="fill:#ffffff;" transform="translate(221.575 218.401406)scale(0.1 -0.1)">
     <use xlink:href="#SimHei-48"/>
     <use x="50" xlink:href="#SimHei-46"/>
     <use x="100" xlink:href="#SimHei-57"/>
     <use x="150" xlink:href="#SimHei-57"/>
    </g>
   </g>
   <g id="text_24">
    <!-- 1.00 -->
    <g style="fill:#ffffff;" transform="translate(305.275 218.401406)scale(0.1 -0.1)">
     <use xlink:href="#SimHei-49"/>
     <use x="50" xlink:href="#SimHei-46"/>
     <use x="100" xlink:href="#SimHei-48"/>
     <use x="150" xlink:href="#SimHei-48"/>
    </g>
   </g>
   <g id="text_25">
    <!-- 用户行为相关性分析 -->
    <defs>
     <path d="M 5.46875 -4.6875 
Q 10.15625 1.953125 12.6875 9.375 
Q 15.234375 16.796875 15.8125 24.21875 
Q 16.40625 31.640625 16.40625 49.21875 
Q 16.40625 66.796875 16.015625 77.34375 
L 85.9375 77.34375 
Q 85.546875 66.015625 85.546875 57.03125 
L 85.546875 5.859375 
Q 85.546875 -2.34375 80.859375 -4.296875 
Q 76.171875 -6.25 69.921875 -7.03125 
Q 69.140625 -1.171875 67.1875 1.953125 
Q 75 1.5625 76.359375 2.53125 
Q 77.734375 3.515625 77.734375 6.25 
L 77.734375 25.78125 
L 53.90625 25.78125 
L 53.90625 10.546875 
Q 53.90625 1.953125 54.296875 -5.078125 
L 45.703125 -5.078125 
Q 46.09375 1.5625 46.09375 10.15625 
L 46.09375 25.78125 
L 23.828125 25.78125 
Q 22.265625 8.984375 13.28125 -8.203125 
Q 8.984375 -5.46875 5.46875 -4.6875 
z
M 77.734375 54.296875 
L 77.734375 71.09375 
L 53.90625 71.09375 
L 53.90625 54.296875 
z
M 77.734375 32.03125 
L 77.734375 48.4375 
L 53.90625 48.4375 
L 53.90625 32.03125 
z
M 46.09375 54.296875 
L 46.09375 71.09375 
L 23.828125 71.09375 
L 23.828125 54.296875 
z
M 46.09375 32.03125 
L 46.09375 48.4375 
L 23.828125 48.4375 
L 23.828125 32.03125 
z
" id="SimHei-29992"/>
     <path d="M 90.234375 63.28125 
Q 89.84375 53.90625 89.84375 41.796875 
Q 89.84375 30.078125 90.234375 23.4375 
L 81.640625 23.4375 
L 81.640625 29.296875 
L 27.34375 29.296875 
Q 25.78125 16.796875 23.4375 10.546875 
Q 21.09375 4.296875 18.359375 -0.578125 
Q 15.625 -5.46875 12.5 -9.765625 
Q 8.59375 -6.640625 3.90625 -5.078125 
Q 11.71875 3.125 14.640625 10.34375 
Q 17.578125 17.578125 18.546875 24.015625 
Q 19.53125 30.46875 19.53125 37.890625 
Q 19.53125 45.3125 19.140625 63.28125 
L 90.234375 63.28125 
z
M 81.25 36.328125 
L 81.25 56.25 
L 26.953125 56.25 
L 26.953125 36.328125 
z
M 53.125 82.421875 
Q 57.8125 73.046875 59.765625 67.578125 
Q 54.6875 66.40625 51.953125 64.84375 
Q 49.21875 73.046875 45.703125 79.296875 
Q 49.609375 80.46875 53.125 82.421875 
z
" id="SimHei-25143"/>
     <path d="M 82.8125 48.4375 
Q 90.234375 48.4375 96.484375 48.828125 
L 96.484375 41.015625 
Q 90.234375 41.40625 83.203125 41.40625 
L 77.734375 41.40625 
L 77.734375 -1.171875 
Q 78.125 -5.859375 74.796875 -7.609375 
Q 71.484375 -9.375 61.71875 -10.546875 
Q 60.9375 -5.859375 57.421875 -1.171875 
Q 64.0625 -1.953125 66.796875 -1.75 
Q 69.53125 -1.5625 69.921875 2.34375 
L 69.921875 41.40625 
L 54.296875 41.40625 
Q 46.875 41.40625 40.234375 41.015625 
L 40.234375 48.828125 
Q 47.265625 48.4375 54.296875 48.4375 
z
M 35.9375 53.125 
Q 32.421875 51.171875 30.65625 48.046875 
Q 28.90625 44.921875 25.78125 40.234375 
L 25.78125 5.078125 
Q 25.78125 0 26.171875 -10.546875 
L 17.96875 -10.546875 
Q 18.359375 1.171875 18.359375 7.03125 
L 18.359375 32.03125 
Q 14.84375 26.171875 8.984375 20.3125 
Q 6.25 24.21875 3.90625 26.953125 
Q 12.890625 35.546875 17.96875 43.359375 
Q 23.046875 51.171875 26.953125 58.203125 
Q 30.859375 55.859375 35.9375 53.125 
z
M 76.171875 75 
Q 82.8125 75 89.84375 75.390625 
L 89.84375 67.96875 
Q 82.8125 68.359375 75.390625 68.359375 
L 60.9375 68.359375 
Q 52.34375 68.359375 46.09375 67.96875 
L 46.09375 75.390625 
Q 52.34375 75 60.9375 75 
z
M 32.421875 76.953125 
Q 29.296875 76.5625 24.21875 68.546875 
Q 19.140625 60.546875 10.15625 50.78125 
Q 7.8125 53.90625 5.078125 56.640625 
Q 11.328125 62.890625 16.40625 70.109375 
Q 21.484375 77.34375 23.828125 82.8125 
Q 27.734375 80.46875 32.421875 76.953125 
z
" id="SimHei-34892"/>
     <path d="M 55.078125 80.078125 
Q 53.515625 76.5625 52.921875 69.921875 
Q 52.34375 63.28125 51.171875 52.34375 
L 91.40625 52.34375 
Q 90.625 45.703125 90.234375 41.015625 
L 85.9375 1.953125 
Q 84.765625 -5.078125 78.515625 -7.03125 
Q 72.265625 -8.984375 62.890625 -9.375 
Q 61.71875 -3.90625 58.984375 0 
Q 70.703125 -0.78125 74.21875 0.390625 
Q 77.734375 1.5625 78.515625 7.421875 
L 82.421875 45.703125 
L 50.390625 45.703125 
Q 46.875 27.734375 37.296875 14.453125 
Q 27.734375 1.171875 13.28125 -9.375 
Q 9.375 -4.296875 6.25 -2.34375 
Q 18.75 3.90625 28.703125 16.203125 
Q 38.671875 28.515625 42.1875 45.703125 
L 29.296875 45.703125 
Q 22.65625 45.703125 12.109375 45.3125 
L 12.109375 52.734375 
Q 22.65625 52.34375 26.5625 52.34375 
L 43.359375 52.34375 
Q 44.921875 65.625 44.921875 81.640625 
Q 51.171875 80.46875 55.078125 80.078125 
z
M 54.6875 33.984375 
Q 64.453125 27.734375 74.21875 21.09375 
Q 71.875 18.75 68.75 13.28125 
Q 60.15625 21.09375 50.78125 26.953125 
Q 53.515625 31.25 54.6875 33.984375 
z
M 17.578125 71.09375 
Q 21.09375 73.828125 23.4375 76.5625 
Q 34.375 66.015625 38.28125 61.328125 
Q 35.15625 58.59375 31.640625 55.46875 
Q 27.34375 61.71875 17.578125 71.09375 
z
" id="SimHei-20026"/>
     <path d="M 92.1875 75.390625 
Q 91.796875 66.015625 91.796875 55.859375 
L 91.796875 11.71875 
Q 91.796875 1.171875 92.1875 -8.984375 
L 84.375 -8.984375 
L 84.375 -1.5625 
L 55.078125 -1.5625 
L 55.078125 -9.765625 
L 47.265625 -9.765625 
Q 47.65625 1.953125 47.65625 10.546875 
L 47.65625 56.25 
Q 47.65625 66.40625 47.265625 75.390625 
L 92.1875 75.390625 
z
M 21.875 59.765625 
Q 21.875 75.78125 21.484375 81.25 
L 30.078125 81.25 
Q 29.6875 75.390625 29.6875 59.765625 
Q 39.0625 59.765625 44.140625 60.15625 
L 44.140625 52.734375 
Q 39.453125 53.125 29.6875 53.125 
L 29.6875 38.28125 
Q 31.640625 40.234375 33.984375 42.96875 
Q 41.015625 35.546875 46.09375 28.515625 
Q 43.75 26.953125 40.234375 23.4375 
Q 35.9375 30.859375 29.6875 37.109375 
L 29.6875 7.421875 
Q 29.6875 0.78125 30.078125 -9.765625 
L 21.484375 -9.765625 
Q 21.875 0.78125 21.875 7.03125 
L 21.875 33.59375 
Q 16.796875 19.140625 10.15625 10.546875 
Q 7.421875 14.84375 4.6875 17.1875 
Q 7.421875 19.53125 12.5 29.484375 
Q 17.578125 39.453125 20.3125 53.125 
Q 11.71875 53.125 6.25 52.734375 
L 6.25 60.15625 
Q 13.28125 59.765625 21.875 59.765625 
z
M 84.375 5.078125 
L 84.375 23.046875 
L 55.078125 23.046875 
L 55.078125 5.078125 
z
M 84.375 51.5625 
L 84.375 68.75 
L 55.078125 68.75 
L 55.078125 51.5625 
z
M 84.375 29.6875 
L 84.375 45.3125 
L 55.078125 45.3125 
L 55.078125 29.6875 
z
" id="SimHei-30456"/>
     <path d="M 73.046875 75.78125 
Q 70.703125 73.046875 68.15625 68.359375 
Q 65.625 63.671875 63.671875 59.765625 
L 72.265625 59.765625 
Q 80.46875 59.765625 86.71875 60.15625 
L 86.71875 52.734375 
Q 81.640625 53.125 73.4375 53.125 
L 53.125 53.125 
L 53.125 33.59375 
L 77.734375 33.59375 
Q 85.546875 33.59375 91.796875 33.984375 
L 91.796875 26.5625 
Q 85.546875 26.953125 78.515625 26.953125 
L 54.6875 26.953125 
Q 66.40625 7.03125 93.75 1.171875 
Q 90.234375 -2.734375 87.5 -8.203125 
Q 62.890625 0 50.390625 20.3125 
Q 43.75 3.125 13.671875 -9.375 
Q 12.109375 -5.46875 7.8125 -2.34375 
Q 37.890625 5.859375 44.921875 26.953125 
L 24.21875 26.953125 
Q 15.234375 26.953125 9.375 26.5625 
L 9.375 33.59375 
Q 13.671875 33.203125 22.65625 33.203125 
L 45.703125 33.203125 
L 45.703125 53.125 
L 27.34375 53.125 
Q 19.921875 53.125 14.0625 52.734375 
L 14.0625 60.15625 
Q 19.921875 59.765625 27.734375 59.765625 
L 55.859375 59.765625 
Q 61.328125 72.265625 63.671875 80.46875 
Q 67.578125 78.125 73.046875 75.78125 
z
M 33.203125 80.078125 
Q 38.28125 73.828125 43.75 65.234375 
Q 39.0625 62.890625 36.328125 60.546875 
Q 31.640625 69.53125 26.953125 75.390625 
Q 30.46875 77.734375 33.203125 80.078125 
z
" id="SimHei-20851"/>
     <path d="M 53.90625 70.703125 
Q 51.953125 63.671875 51.171875 58.59375 
L 63.28125 58.59375 
L 63.28125 66.796875 
Q 63.28125 73.4375 62.890625 79.6875 
L 71.09375 79.6875 
Q 70.703125 73.4375 70.703125 66.796875 
L 70.703125 58.59375 
L 78.515625 58.59375 
Q 83.59375 58.59375 90.625 58.984375 
L 90.625 51.5625 
Q 83.59375 51.953125 78.515625 51.953125 
L 70.703125 51.953125 
L 70.703125 31.25 
L 77.734375 31.25 
Q 83.59375 31.25 89.453125 31.640625 
L 89.453125 24.21875 
Q 83.59375 24.609375 77.734375 24.609375 
L 70.703125 24.609375 
L 70.703125 0.390625 
L 81.25 0.390625 
Q 87.890625 0.390625 94.140625 0.78125 
L 94.140625 -6.25 
Q 87.890625 -5.859375 81.25 -5.859375 
L 51.171875 -5.859375 
Q 44.140625 -5.859375 37.5 -6.25 
L 37.5 0.78125 
Q 44.140625 0.390625 50.78125 0.390625 
L 63.28125 0.390625 
L 63.28125 24.609375 
L 56.640625 24.609375 
Q 51.5625 24.609375 44.921875 24.21875 
L 44.921875 31.640625 
Q 50 31.25 56.640625 31.25 
L 63.28125 31.25 
L 63.28125 51.953125 
L 49.609375 51.953125 
Q 48.4375 46.09375 43.359375 34.765625 
Q 39.0625 37.109375 36.328125 37.5 
Q 41.796875 48.828125 43.359375 57.03125 
Q 44.921875 65.234375 46.09375 72.65625 
Q 50 71.484375 53.90625 70.703125 
z
M 26.5625 80.46875 
Q 26.171875 72.65625 26.171875 65.234375 
L 26.171875 6.640625 
Q 26.171875 -1.5625 26.5625 -9.765625 
L 18.359375 -9.765625 
Q 18.75 -1.5625 18.75 6.640625 
L 18.75 65.234375 
Q 18.75 73.4375 18.359375 80.46875 
L 26.5625 80.46875 
z
M 15.234375 58.203125 
Q 12.890625 41.796875 10.9375 33.59375 
Q 7.03125 34.375 3.90625 35.15625 
Q 6.640625 45.3125 8.203125 59.375 
Q 11.328125 58.984375 15.234375 58.203125 
z
M 33.203125 62.890625 
Q 36.328125 56.640625 39.453125 46.875 
Q 35.9375 45.703125 33.203125 44.140625 
Q 30.46875 52.734375 27.34375 60.15625 
Q 30.46875 61.71875 33.203125 62.890625 
z
" id="SimHei-24615"/>
     <path d="M 15.625 -10.15625 
Q 12.890625 -5.859375 8.984375 -3.515625 
Q 15.234375 -1.171875 20.3125 2.140625 
Q 25.390625 5.46875 29.296875 10.34375 
Q 33.203125 15.234375 35.15625 21.09375 
Q 37.109375 26.953125 37.890625 35.546875 
Q 28.90625 35.546875 23.4375 35.15625 
L 23.4375 43.359375 
Q 29.6875 42.96875 39.453125 42.96875 
L 78.515625 42.96875 
Q 77.734375 37.109375 77.34375 32.8125 
L 74.21875 3.90625 
Q 73.4375 -3.125 67.96875 -5.46875 
Q 62.5 -7.8125 55.859375 -8.203125 
Q 55.46875 -4.296875 51.953125 0.78125 
Q 60.15625 0.390625 63.078125 1.359375 
Q 66.015625 2.34375 66.796875 8.203125 
L 69.53125 35.546875 
L 46.09375 35.546875 
Q 44.921875 25.390625 42.765625 18.546875 
Q 40.625 11.71875 36.71875 6.640625 
Q 32.8125 1.5625 27.34375 -2.734375 
Q 21.875 -7.03125 15.625 -10.15625 
z
M 61.71875 80.859375 
Q 64.453125 72.65625 72.84375 62.109375 
Q 81.25 51.5625 96.484375 43.75 
Q 93.359375 41.015625 90.234375 35.546875 
Q 83.203125 40.625 77.921875 45.109375 
Q 72.65625 49.609375 69.140625 53.515625 
Q 65.625 57.421875 61.328125 64.640625 
Q 57.03125 71.875 54.296875 78.125 
Q 58.59375 79.296875 61.71875 80.859375 
z
M 42.1875 75.390625 
Q 38.671875 69.140625 36.328125 64.453125 
Q 33.984375 59.765625 31.640625 56.046875 
Q 29.296875 52.34375 24.609375 46.09375 
Q 19.921875 39.84375 13.28125 33.203125 
Q 9.765625 36.71875 6.25 38.671875 
Q 14.0625 45.703125 18.546875 51.5625 
Q 23.046875 57.421875 27.140625 64.25 
Q 31.25 71.09375 34.375 79.296875 
Q 37.5 76.953125 42.1875 75.390625 
z
" id="SimHei-20998"/>
     <path d="M 92.1875 71.09375 
Q 87.109375 70.703125 79.484375 69.53125 
Q 71.875 68.359375 58.203125 66.796875 
L 58.203125 48.046875 
L 84.375 48.046875 
Q 89.453125 48.046875 96.09375 48.4375 
L 96.09375 41.40625 
Q 89.0625 41.796875 82.03125 41.796875 
L 82.03125 5.46875 
Q 82.03125 -1.5625 82.421875 -7.421875 
L 74.21875 -7.421875 
Q 74.609375 -1.171875 74.609375 5.859375 
L 74.609375 41.796875 
L 58.203125 41.796875 
Q 58.203125 33.984375 57.03125 25.578125 
Q 55.859375 17.1875 53.703125 9.953125 
Q 51.5625 2.734375 44.53125 -7.8125 
Q 41.796875 -4.6875 35.546875 -2.34375 
Q 44.140625 5.078125 47.65625 17.375 
Q 51.171875 29.6875 50.96875 46.875 
Q 50.78125 64.0625 50.390625 72.65625 
Q 62.109375 73.4375 71.28125 75 
Q 80.46875 76.5625 85.9375 78.90625 
Q 88.671875 74.21875 92.1875 71.09375 
z
M 29.6875 8.203125 
Q 29.6875 3.125 30.078125 -8.203125 
L 21.875 -8.203125 
Q 22.265625 0.390625 22.265625 8.203125 
L 22.265625 35.15625 
Q 18.359375 25.390625 9.375 12.5 
Q 6.640625 16.796875 3.125 19.140625 
Q 10.15625 26.953125 15.03125 37.296875 
Q 19.921875 47.65625 21.484375 53.515625 
Q 14.453125 53.515625 7.03125 53.125 
L 7.03125 60.15625 
Q 14.453125 59.765625 22.265625 59.765625 
L 22.265625 69.53125 
Q 22.265625 74.609375 21.875 80.078125 
L 30.46875 80.078125 
Q 29.6875 75.390625 29.6875 69.53125 
L 29.6875 59.765625 
Q 35.9375 59.765625 43.359375 60.15625 
L 43.359375 53.125 
Q 35.9375 53.515625 29.6875 53.515625 
L 29.6875 8.203125 
z
M 37.109375 42.96875 
Q 43.75 32.03125 45.703125 28.125 
Q 42.1875 26.5625 38.28125 24.21875 
Q 35.9375 29.6875 30.46875 39.453125 
Q 33.984375 41.015625 37.109375 42.96875 
z
" id="SimHei-26512"/>
    </defs>
    <g style="fill:#262626;" transform="translate(122.225 19.328906)scale(0.15 -0.15)">
     <use xlink:href="#SimHei-29992"/>
     <use x="100" xlink:href="#SimHei-25143"/>
     <use x="200" xlink:href="#SimHei-34892"/>
     <use x="300" xlink:href="#SimHei-20026"/>
     <use x="400" xlink:href="#SimHei-30456"/>
     <use x="500" xlink:href="#SimHei-20851"/>
     <use x="600" xlink:href="#SimHei-24615"/>
     <use x="700" xlink:href="#SimHei-20998"/>
     <use x="800" xlink:href="#SimHei-26512"/>
    </g>
   </g>
  </g>
 </g>
 <defs>
  <clipPath id="pff83f068d0">
   <rect height="217.44" width="334.8" x="22.325" y="25.328906"/>
  </clipPath>
 </defs>
</svg>
