<?xml version="1.0" encoding="utf-8" standalone="no"?>
<!DOCTYPE svg PUBLIC "-//W3C//DTD SVG 1.1//EN"
  "http://www.w3.org/Graphics/SVG/1.1/DTD/svg11.dtd">
<!-- Created with matplotlib (https://matplotlib.org/) -->
<svg height="360.740909pt" version="1.1" viewBox="0 0 718 360.740909" width="718pt" xmlns="http://www.w3.org/2000/svg" xmlns:xlink="http://www.w3.org/1999/xlink">
 <defs>
  <style type="text/css">
*{stroke-linecap:butt;stroke-linejoin:round;}
  </style>
 </defs>
 <g id="figure_1">
  <g id="patch_1">
   <path d="M 0 360.740909 
L 718 360.740909 
L 718 0 
L 0 0 
z
" style="fill:#ffffff;"/>
  </g>
  <g id="axes_1">
   <g id="patch_2">
    <path d="M 19.2 326.290909 
L 688.8 326.290909 
L 688.8 79.2 
L 19.2 79.2 
z
" style="fill:#eaeaf2;"/>
   </g>
   <g id="matplotlib.axis_1">
    <g id="xtick_1">
     <g id="line2d_1">
      <path clip-path="url(#p3c699525d4)" d="M 49.636364 326.290909 
L 49.636364 79.2 
" style="fill:none;stroke:#ffffff;stroke-linecap:round;stroke-width:0.8;"/>
     </g>
     <g id="text_1">
      <!-- 0 -->
      <defs>
       <path d="M 3.125 29.296875 
Q 3.90625 50 6.4375 56.046875 
Q 8.984375 62.109375 13.671875 66.015625 
Q 18.359375 69.921875 25.1875 69.921875 
Q 32.03125 69.921875 37.109375 64.25 
Q 42.1875 58.59375 43.75 50 
Q 45.3125 41.40625 44.71875 30.265625 
Q 44.140625 19.140625 40.8125 12.109375 
Q 37.5 5.078125 30.859375 2.34375 
Q 24.21875 -0.390625 17.578125 2.921875 
Q 10.9375 6.25 8.203125 11.71875 
Q 5.46875 17.1875 4.296875 23.234375 
Q 3.125 29.296875 3.90625 50 
z
M 12.890625 52.734375 
Q 10.546875 31.25 12.5 22.84375 
Q 14.453125 14.453125 18.9375 10.9375 
Q 23.4375 7.421875 28.125 9.5625 
Q 32.8125 11.71875 34.953125 18.15625 
Q 37.109375 24.609375 37.109375 32.21875 
Q 37.109375 39.84375 36.515625 46.09375 
Q 35.9375 52.34375 33 57.421875 
Q 30.078125 62.5 25.1875 62.6875 
Q 20.3125 62.890625 16.59375 57.8125 
Q 12.890625 52.734375 10.546875 31.25 
z
" id="SimHei-48"/>
      </defs>
      <g style="fill:#262626;" transform="translate(47.136364 340.165909)scale(0.1 -0.1)">
       <use xlink:href="#SimHei-48"/>
      </g>
     </g>
    </g>
    <g id="xtick_2">
     <g id="line2d_2">
      <path clip-path="url(#p3c699525d4)" d="M 76.102767 326.290909 
L 76.102767 79.2 
" style="fill:none;stroke:#ffffff;stroke-linecap:round;stroke-width:0.8;"/>
     </g>
     <g id="text_2">
      <!-- 1 -->
      <defs>
       <path d="M 21.875 56.25 
Q 16.796875 51.171875 8.984375 46.484375 
L 8.984375 53.90625 
Q 18.75 60.546875 25 69.53125 
L 29.6875 69.53125 
L 29.6875 2.34375 
L 21.875 2.34375 
z
" id="SimHei-49"/>
      </defs>
      <g style="fill:#262626;" transform="translate(73.602767 340.165909)scale(0.1 -0.1)">
       <use xlink:href="#SimHei-49"/>
      </g>
     </g>
    </g>
    <g id="xtick_3">
     <g id="line2d_3">
      <path clip-path="url(#p3c699525d4)" d="M 102.56917 326.290909 
L 102.56917 79.2 
" style="fill:none;stroke:#ffffff;stroke-linecap:round;stroke-width:0.8;"/>
     </g>
     <g id="text_3">
      <!-- 2 -->
      <defs>
       <path d="M 4.6875 3.90625 
Q 5.078125 9.765625 10.15625 14.453125 
Q 15.234375 19.140625 23.046875 29.09375 
Q 30.859375 39.0625 33.203125 44.53125 
Q 35.546875 50 34.953125 53.90625 
Q 34.375 57.8125 31.25 60.34375 
Q 28.125 62.890625 24.015625 62.5 
Q 19.921875 62.109375 16.203125 59.375 
Q 12.5 56.640625 10.546875 51.171875 
L 3.125 52.34375 
Q 6.25 61.328125 11.125 65.421875 
Q 16.015625 69.53125 22.65625 69.921875 
Q 26.5625 70.3125 29.6875 69.71875 
Q 32.8125 69.140625 36.125 66.984375 
Q 39.453125 64.84375 41.59375 60.546875 
Q 43.75 56.25 43.15625 50.1875 
Q 42.578125 44.140625 37.109375 35.734375 
Q 31.640625 27.34375 16.015625 9.375 
L 44.140625 9.375 
L 44.140625 2.34375 
L 4.6875 2.34375 
z
" id="SimHei-50"/>
      </defs>
      <g style="fill:#262626;" transform="translate(100.06917 340.165909)scale(0.1 -0.1)">
       <use xlink:href="#SimHei-50"/>
      </g>
     </g>
    </g>
    <g id="xtick_4">
     <g id="line2d_4">
      <path clip-path="url(#p3c699525d4)" d="M 129.035573 326.290909 
L 129.035573 79.2 
" style="fill:none;stroke:#ffffff;stroke-linecap:round;stroke-width:0.8;"/>
     </g>
     <g id="text_4">
      <!-- 3 -->
      <defs>
       <path d="M 3.90625 19.140625 
L 10.9375 20.3125 
Q 12.5 15.234375 16.015625 11.90625 
Q 19.53125 8.59375 24.796875 8.78125 
Q 30.078125 8.984375 33.203125 13.078125 
Q 36.328125 17.1875 35.9375 22.453125 
Q 35.546875 27.734375 31.828125 30.65625 
Q 28.125 33.59375 19.921875 34.765625 
L 19.921875 39.84375 
Q 28.125 40.625 31.828125 44.140625 
Q 35.546875 47.65625 35.15625 53.3125 
Q 34.765625 58.984375 30.078125 61.515625 
Q 25.390625 64.0625 20.109375 62.109375 
Q 14.84375 60.15625 11.71875 51.171875 
L 4.6875 52.34375 
Q 7.03125 59.375 11.125 64.0625 
Q 15.234375 68.75 22.265625 69.53125 
Q 29.296875 70.3125 34.5625 67.765625 
Q 39.84375 65.234375 41.984375 59.953125 
Q 44.140625 54.6875 42.578125 48.4375 
Q 41.015625 42.1875 33.59375 37.5 
Q 39.0625 35.15625 41.984375 30.46875 
Q 44.921875 25.78125 43.9375 18.15625 
Q 42.96875 10.546875 37.109375 5.859375 
Q 31.25 1.171875 23.828125 1.359375 
Q 16.40625 1.5625 10.9375 6.046875 
Q 5.46875 10.546875 3.90625 19.140625 
z
" id="SimHei-51"/>
      </defs>
      <g style="fill:#262626;" transform="translate(126.535573 340.165909)scale(0.1 -0.1)">
       <use xlink:href="#SimHei-51"/>
      </g>
     </g>
    </g>
    <g id="xtick_5">
     <g id="line2d_5">
      <path clip-path="url(#p3c699525d4)" d="M 155.501976 326.290909 
L 155.501976 79.2 
" style="fill:none;stroke:#ffffff;stroke-linecap:round;stroke-width:0.8;"/>
     </g>
     <g id="text_5">
      <!-- 4 -->
      <defs>
       <path d="M 31.25 17.1875 
L 1.171875 17.1875 
L 1.171875 23.828125 
L 32.8125 69.53125 
L 38.671875 69.53125 
L 38.671875 23.828125 
L 48.046875 23.828125 
L 48.046875 17.1875 
L 38.671875 17.1875 
L 38.671875 2.34375 
L 31.25 2.34375 
z
M 31.25 23.828125 
L 31.25 54.6875 
L 9.375 23.828125 
z
" id="SimHei-52"/>
      </defs>
      <g style="fill:#262626;" transform="translate(153.001976 340.165909)scale(0.1 -0.1)">
       <use xlink:href="#SimHei-52"/>
      </g>
     </g>
    </g>
    <g id="xtick_6">
     <g id="line2d_6">
      <path clip-path="url(#p3c699525d4)" d="M 181.968379 326.290909 
L 181.968379 79.2 
" style="fill:none;stroke:#ffffff;stroke-linecap:round;stroke-width:0.8;"/>
     </g>
     <g id="text_6">
      <!-- 5 -->
      <defs>
       <path d="M 8.59375 20.703125 
Q 11.328125 10.15625 17.96875 8.984375 
Q 24.609375 7.8125 28.703125 10.34375 
Q 32.8125 12.890625 34.5625 16.984375 
Q 36.328125 21.09375 36.125 26.171875 
Q 35.9375 31.25 33.390625 34.765625 
Q 30.859375 38.28125 26.953125 39.453125 
Q 23.046875 40.625 18.15625 39.453125 
Q 13.28125 38.28125 10.15625 33.984375 
L 3.515625 34.765625 
Q 4.296875 37.109375 10.9375 68.359375 
L 41.796875 68.359375 
L 41.796875 61.328125 
L 16.796875 61.328125 
Q 14.84375 50.78125 12.890625 44.53125 
Q 18.75 47.265625 23.828125 47.0625 
Q 28.90625 46.875 33.59375 44.71875 
Q 38.28125 42.578125 40.421875 38.859375 
Q 42.578125 35.15625 43.546875 31.4375 
Q 44.53125 27.734375 44.328125 23.4375 
Q 44.140625 19.140625 42.578125 14.640625 
Q 41.015625 10.15625 37.890625 7.21875 
Q 34.765625 4.296875 30.265625 2.53125 
Q 25.78125 0.78125 19.921875 1.171875 
Q 14.0625 1.5625 8.78125 5.46875 
Q 3.515625 9.375 1.5625 18.75 
z
" id="SimHei-53"/>
      </defs>
      <g style="fill:#262626;" transform="translate(179.468379 340.165909)scale(0.1 -0.1)">
       <use xlink:href="#SimHei-53"/>
      </g>
     </g>
    </g>
    <g id="xtick_7">
     <g id="line2d_7">
      <path clip-path="url(#p3c699525d4)" d="M 208.434783 326.290909 
L 208.434783 79.2 
" style="fill:none;stroke:#ffffff;stroke-linecap:round;stroke-width:0.8;"/>
     </g>
     <g id="text_7">
      <!-- 6 -->
      <defs>
       <path d="M 3.515625 19.53125 
Q 4.296875 30.859375 6.046875 34.765625 
Q 7.8125 38.671875 11.328125 44.53125 
L 27.34375 69.53125 
L 36.328125 69.53125 
L 19.921875 43.75 
Q 30.46875 46.484375 36.71875 42.96875 
Q 42.96875 39.453125 45.109375 34.953125 
Q 47.265625 30.46875 47.453125 25.1875 
Q 47.65625 19.921875 45.890625 14.84375 
Q 44.140625 9.765625 39.640625 5.65625 
Q 35.15625 1.5625 27.140625 1.171875 
Q 19.140625 0.78125 13.46875 4.09375 
Q 7.8125 7.421875 5.65625 13.46875 
Q 3.515625 19.53125 4.296875 30.859375 
z
M 12.5 16.015625 
Q 19.53125 8.59375 25.390625 8.203125 
Q 31.25 7.8125 35.15625 12.109375 
Q 39.0625 16.40625 39.0625 24.609375 
Q 39.0625 32.8125 34.171875 35.9375 
Q 29.296875 39.0625 23.234375 38.28125 
Q 17.1875 37.5 14.453125 32.421875 
Q 11.71875 27.34375 12.109375 21.671875 
Q 12.5 16.015625 19.53125 8.59375 
z
" id="SimHei-54"/>
      </defs>
      <g style="fill:#262626;" transform="translate(205.934783 340.165909)scale(0.1 -0.1)">
       <use xlink:href="#SimHei-54"/>
      </g>
     </g>
    </g>
    <g id="xtick_8">
     <g id="line2d_8">
      <path clip-path="url(#p3c699525d4)" d="M 234.901186 326.290909 
L 234.901186 79.2 
" style="fill:none;stroke:#ffffff;stroke-linecap:round;stroke-width:0.8;"/>
     </g>
     <g id="text_8">
      <!-- 7 -->
      <defs>
       <path d="M 13.28125 2.34375 
Q 20.3125 32.03125 37.890625 61.328125 
L 4.296875 61.328125 
L 4.296875 68.359375 
L 46.09375 68.359375 
L 46.09375 61.71875 
Q 27.734375 32.03125 21.875 2.34375 
L 13.28125 2.34375 
z
" id="SimHei-55"/>
      </defs>
      <g style="fill:#262626;" transform="translate(232.401186 340.165909)scale(0.1 -0.1)">
       <use xlink:href="#SimHei-55"/>
      </g>
     </g>
    </g>
    <g id="xtick_9">
     <g id="line2d_9">
      <path clip-path="url(#p3c699525d4)" d="M 261.367589 326.290909 
L 261.367589 79.2 
" style="fill:none;stroke:#ffffff;stroke-linecap:round;stroke-width:0.8;"/>
     </g>
     <g id="text_9">
      <!-- 8 -->
      <defs>
       <path d="M 2.734375 16.796875 
Q 2.734375 26.171875 5.078125 30.65625 
Q 7.421875 35.15625 12.890625 37.890625 
Q 8.203125 40.625 6.640625 43.9375 
Q 5.078125 47.265625 4.875 51.5625 
Q 4.6875 55.859375 6.046875 58.984375 
Q 7.421875 62.109375 10.15625 64.84375 
Q 12.890625 67.578125 16.203125 68.546875 
Q 19.53125 69.53125 23.4375 69.53125 
Q 27.34375 69.53125 30.46875 68.75 
Q 33.59375 67.96875 37.109375 65.421875 
Q 40.625 62.890625 42.1875 58.203125 
Q 43.75 53.515625 41.984375 47.265625 
Q 40.234375 41.015625 32.8125 37.5 
Q 39.453125 35.546875 42.1875 31.4375 
Q 44.921875 27.34375 44.921875 21.484375 
Q 44.921875 15.625 43.15625 12.109375 
Q 41.40625 8.59375 39.25 6.25 
Q 37.109375 3.90625 33.390625 2.53125 
Q 29.6875 1.171875 24.015625 1.171875 
Q 18.359375 1.171875 14.25 2.53125 
Q 10.15625 3.90625 7.421875 6.640625 
Q 4.6875 9.375 3.703125 13.078125 
Q 2.734375 16.796875 2.734375 26.171875 
z
M 10.9375 26.5625 
Q 10.546875 17.1875 12.296875 13.671875 
Q 14.0625 10.15625 18.75 9.171875 
Q 23.4375 8.203125 28.515625 9.375 
Q 33.59375 10.546875 35.546875 14.84375 
Q 37.5 19.140625 36.90625 23.4375 
Q 36.328125 27.734375 32.03125 30.65625 
Q 27.734375 33.59375 22.65625 33.203125 
Q 17.578125 32.8125 14.25 29.6875 
Q 10.9375 26.5625 10.546875 17.1875 
z
M 12.109375 56.25 
Q 12.109375 48.4375 14.84375 44.921875 
Q 17.578125 41.40625 23.4375 41.40625 
Q 29.296875 41.40625 32.21875 44.921875 
Q 35.15625 48.4375 34.953125 53.3125 
Q 34.765625 58.203125 31.4375 60.546875 
Q 28.125 62.890625 22.453125 62.5 
Q 16.796875 62.109375 14.453125 59.171875 
Q 12.109375 56.25 12.109375 48.4375 
z
" id="SimHei-56"/>
      </defs>
      <g style="fill:#262626;" transform="translate(258.867589 340.165909)scale(0.1 -0.1)">
       <use xlink:href="#SimHei-56"/>
      </g>
     </g>
    </g>
    <g id="xtick_10">
     <g id="line2d_10">
      <path clip-path="url(#p3c699525d4)" d="M 287.833992 326.290909 
L 287.833992 79.2 
" style="fill:none;stroke:#ffffff;stroke-linecap:round;stroke-width:0.8;"/>
     </g>
     <g id="text_10">
      <!-- 9 -->
      <defs>
       <path d="M 12.5 1.171875 
Q 21.09375 15.625 26.5625 27.34375 
Q 16.796875 25.78125 10.34375 29.875 
Q 3.90625 33.984375 2.53125 41.015625 
Q 1.171875 48.046875 2.734375 53.703125 
Q 4.296875 59.375 7.609375 63.078125 
Q 10.9375 66.796875 15.625 68.359375 
Q 20.3125 69.921875 24.015625 69.921875 
Q 27.734375 69.921875 31.640625 68.359375 
Q 35.546875 66.796875 38.671875 63.671875 
Q 41.796875 60.546875 42.96875 57.21875 
Q 44.140625 53.90625 44.140625 48.625 
Q 44.140625 43.359375 40.234375 35.15625 
Q 36.328125 26.953125 21.09375 1.171875 
z
M 9.765625 50 
Q 10.9375 39.84375 14.640625 36.515625 
Q 18.359375 33.203125 22.65625 33.59375 
Q 26.953125 33.984375 29.484375 35.9375 
Q 32.03125 37.890625 34.375 42.578125 
Q 35.9375 48.4375 35.15625 52.53125 
Q 34.375 56.640625 31.046875 59.375 
Q 27.734375 62.109375 23.828125 62.109375 
Q 21.484375 62.5 17.765625 60.9375 
Q 14.0625 59.375 11.90625 54.6875 
Q 9.765625 50 10.9375 39.84375 
z
" id="SimHei-57"/>
      </defs>
      <g style="fill:#262626;" transform="translate(285.333992 340.165909)scale(0.1 -0.1)">
       <use xlink:href="#SimHei-57"/>
      </g>
     </g>
    </g>
    <g id="xtick_11">
     <g id="line2d_11">
      <path clip-path="url(#p3c699525d4)" d="M 314.300395 326.290909 
L 314.300395 79.2 
" style="fill:none;stroke:#ffffff;stroke-linecap:round;stroke-width:0.8;"/>
     </g>
     <g id="text_11">
      <!-- 10 -->
      <g style="fill:#262626;" transform="translate(309.300395 340.165909)scale(0.1 -0.1)">
       <use xlink:href="#SimHei-49"/>
       <use x="50" xlink:href="#SimHei-48"/>
      </g>
     </g>
    </g>
    <g id="xtick_12">
     <g id="line2d_12">
      <path clip-path="url(#p3c699525d4)" d="M 340.766798 326.290909 
L 340.766798 79.2 
" style="fill:none;stroke:#ffffff;stroke-linecap:round;stroke-width:0.8;"/>
     </g>
     <g id="text_12">
      <!-- 11 -->
      <g style="fill:#262626;" transform="translate(335.766798 340.165909)scale(0.1 -0.1)">
       <use xlink:href="#SimHei-49"/>
       <use x="50" xlink:href="#SimHei-49"/>
      </g>
     </g>
    </g>
    <g id="xtick_13">
     <g id="line2d_13">
      <path clip-path="url(#p3c699525d4)" d="M 367.233202 326.290909 
L 367.233202 79.2 
" style="fill:none;stroke:#ffffff;stroke-linecap:round;stroke-width:0.8;"/>
     </g>
     <g id="text_13">
      <!-- 12 -->
      <g style="fill:#262626;" transform="translate(362.233202 340.165909)scale(0.1 -0.1)">
       <use xlink:href="#SimHei-49"/>
       <use x="50" xlink:href="#SimHei-50"/>
      </g>
     </g>
    </g>
    <g id="xtick_14">
     <g id="line2d_14">
      <path clip-path="url(#p3c699525d4)" d="M 393.699605 326.290909 
L 393.699605 79.2 
" style="fill:none;stroke:#ffffff;stroke-linecap:round;stroke-width:0.8;"/>
     </g>
     <g id="text_14">
      <!-- 13 -->
      <g style="fill:#262626;" transform="translate(388.699605 340.165909)scale(0.1 -0.1)">
       <use xlink:href="#SimHei-49"/>
       <use x="50" xlink:href="#SimHei-51"/>
      </g>
     </g>
    </g>
    <g id="xtick_15">
     <g id="line2d_15">
      <path clip-path="url(#p3c699525d4)" d="M 420.166008 326.290909 
L 420.166008 79.2 
" style="fill:none;stroke:#ffffff;stroke-linecap:round;stroke-width:0.8;"/>
     </g>
     <g id="text_15">
      <!-- 14 -->
      <g style="fill:#262626;" transform="translate(415.166008 340.165909)scale(0.1 -0.1)">
       <use xlink:href="#SimHei-49"/>
       <use x="50" xlink:href="#SimHei-52"/>
      </g>
     </g>
    </g>
    <g id="xtick_16">
     <g id="line2d_16">
      <path clip-path="url(#p3c699525d4)" d="M 446.632411 326.290909 
L 446.632411 79.2 
" style="fill:none;stroke:#ffffff;stroke-linecap:round;stroke-width:0.8;"/>
     </g>
     <g id="text_16">
      <!-- 15 -->
      <g style="fill:#262626;" transform="translate(441.632411 340.165909)scale(0.1 -0.1)">
       <use xlink:href="#SimHei-49"/>
       <use x="50" xlink:href="#SimHei-53"/>
      </g>
     </g>
    </g>
    <g id="xtick_17">
     <g id="line2d_17">
      <path clip-path="url(#p3c699525d4)" d="M 473.098814 326.290909 
L 473.098814 79.2 
" style="fill:none;stroke:#ffffff;stroke-linecap:round;stroke-width:0.8;"/>
     </g>
     <g id="text_17">
      <!-- 16 -->
      <g style="fill:#262626;" transform="translate(468.098814 340.165909)scale(0.1 -0.1)">
       <use xlink:href="#SimHei-49"/>
       <use x="50" xlink:href="#SimHei-54"/>
      </g>
     </g>
    </g>
    <g id="xtick_18">
     <g id="line2d_18">
      <path clip-path="url(#p3c699525d4)" d="M 499.565217 326.290909 
L 499.565217 79.2 
" style="fill:none;stroke:#ffffff;stroke-linecap:round;stroke-width:0.8;"/>
     </g>
     <g id="text_18">
      <!-- 17 -->
      <g style="fill:#262626;" transform="translate(494.565217 340.165909)scale(0.1 -0.1)">
       <use xlink:href="#SimHei-49"/>
       <use x="50" xlink:href="#SimHei-55"/>
      </g>
     </g>
    </g>
    <g id="xtick_19">
     <g id="line2d_19">
      <path clip-path="url(#p3c699525d4)" d="M 526.031621 326.290909 
L 526.031621 79.2 
" style="fill:none;stroke:#ffffff;stroke-linecap:round;stroke-width:0.8;"/>
     </g>
     <g id="text_19">
      <!-- 18 -->
      <g style="fill:#262626;" transform="translate(521.031621 340.165909)scale(0.1 -0.1)">
       <use xlink:href="#SimHei-49"/>
       <use x="50" xlink:href="#SimHei-56"/>
      </g>
     </g>
    </g>
    <g id="xtick_20">
     <g id="line2d_20">
      <path clip-path="url(#p3c699525d4)" d="M 552.498024 326.290909 
L 552.498024 79.2 
" style="fill:none;stroke:#ffffff;stroke-linecap:round;stroke-width:0.8;"/>
     </g>
     <g id="text_20">
      <!-- 19 -->
      <g style="fill:#262626;" transform="translate(547.498024 340.165909)scale(0.1 -0.1)">
       <use xlink:href="#SimHei-49"/>
       <use x="50" xlink:href="#SimHei-57"/>
      </g>
     </g>
    </g>
    <g id="xtick_21">
     <g id="line2d_21">
      <path clip-path="url(#p3c699525d4)" d="M 578.964427 326.290909 
L 578.964427 79.2 
" style="fill:none;stroke:#ffffff;stroke-linecap:round;stroke-width:0.8;"/>
     </g>
     <g id="text_21">
      <!-- 20 -->
      <g style="fill:#262626;" transform="translate(573.964427 340.165909)scale(0.1 -0.1)">
       <use xlink:href="#SimHei-50"/>
       <use x="50" xlink:href="#SimHei-48"/>
      </g>
     </g>
    </g>
    <g id="xtick_22">
     <g id="line2d_22">
      <path clip-path="url(#p3c699525d4)" d="M 605.43083 326.290909 
L 605.43083 79.2 
" style="fill:none;stroke:#ffffff;stroke-linecap:round;stroke-width:0.8;"/>
     </g>
     <g id="text_22">
      <!-- 21 -->
      <g style="fill:#262626;" transform="translate(600.43083 340.165909)scale(0.1 -0.1)">
       <use xlink:href="#SimHei-50"/>
       <use x="50" xlink:href="#SimHei-49"/>
      </g>
     </g>
    </g>
    <g id="xtick_23">
     <g id="line2d_23">
      <path clip-path="url(#p3c699525d4)" d="M 631.897233 326.290909 
L 631.897233 79.2 
" style="fill:none;stroke:#ffffff;stroke-linecap:round;stroke-width:0.8;"/>
     </g>
     <g id="text_23">
      <!-- 22 -->
      <g style="fill:#262626;" transform="translate(626.897233 340.165909)scale(0.1 -0.1)">
       <use xlink:href="#SimHei-50"/>
       <use x="50" xlink:href="#SimHei-50"/>
      </g>
     </g>
    </g>
    <g id="xtick_24">
     <g id="line2d_24">
      <path clip-path="url(#p3c699525d4)" d="M 658.363636 326.290909 
L 658.363636 79.2 
" style="fill:none;stroke:#ffffff;stroke-linecap:round;stroke-width:0.8;"/>
     </g>
     <g id="text_24">
      <!-- 23 -->
      <g style="fill:#262626;" transform="translate(653.363636 340.165909)scale(0.1 -0.1)">
       <use xlink:href="#SimHei-50"/>
       <use x="50" xlink:href="#SimHei-51"/>
      </g>
     </g>
    </g>
    <g id="xtick_25">
     <g id="line2d_25">
      <path clip-path="url(#p3c699525d4)" d="M 684.83004 326.290909 
L 684.83004 79.2 
" style="fill:none;stroke:#ffffff;stroke-linecap:round;stroke-width:0.8;"/>
     </g>
     <g id="text_25">
      <!-- 24 -->
      <g style="fill:#262626;" transform="translate(679.83004 340.165909)scale(0.1 -0.1)">
       <use xlink:href="#SimHei-50"/>
       <use x="50" xlink:href="#SimHei-52"/>
      </g>
     </g>
    </g>
    <g id="text_26">
     <!-- timestamp -->
     <defs>
      <path d="M 42.96875 3.125 
Q 41.015625 2.34375 38.46875 1.75 
Q 35.9375 1.171875 31.640625 1.171875 
Q 24.609375 1.171875 20.3125 5.078125 
Q 16.015625 8.984375 16.015625 16.015625 
L 16.015625 39.453125 
L 2.734375 39.453125 
L 2.734375 45.703125 
L 16.015625 45.703125 
L 16.015625 60.9375 
L 23.828125 60.9375 
L 23.828125 45.703125 
L 39.84375 45.703125 
L 39.84375 39.453125 
L 23.828125 39.453125 
L 23.828125 15.625 
Q 23.828125 12.5 25.390625 10.34375 
Q 26.953125 8.203125 31.25 8.203125 
Q 35.546875 8.203125 38.28125 8.984375 
Q 41.015625 9.765625 42.96875 10.9375 
z
" id="SimHei-116"/>
      <path d="M 28.125 58.203125 
L 20.3125 58.203125 
L 20.3125 68.359375 
L 28.125 68.359375 
z
M 28.125 1.953125 
L 20.3125 1.953125 
L 20.3125 45.703125 
L 28.125 45.703125 
z
" id="SimHei-105"/>
      <path d="M 47.65625 1.953125 
L 39.84375 1.953125 
L 39.84375 33.59375 
Q 39.84375 35.9375 39.0625 37.5 
Q 38.28125 39.0625 35.9375 39.0625 
Q 33.203125 39.0625 30.859375 36.125 
Q 28.515625 33.203125 28.515625 28.515625 
L 28.515625 1.953125 
L 20.703125 1.953125 
L 20.703125 33.59375 
Q 20.703125 35.9375 19.921875 37.5 
Q 19.140625 39.0625 16.796875 39.0625 
Q 14.0625 39.0625 11.71875 36.125 
Q 9.375 33.203125 9.375 28.515625 
L 9.375 1.953125 
L 1.5625 1.953125 
L 1.5625 45.703125 
L 9.375 45.703125 
L 9.375 39.84375 
Q 11.328125 42.96875 14.0625 44.71875 
Q 16.796875 46.484375 19.921875 46.484375 
Q 23.046875 46.484375 25.1875 44.71875 
Q 27.34375 42.96875 28.125 39.84375 
Q 30.078125 42.96875 32.609375 44.71875 
Q 35.15625 46.484375 38.28125 46.484375 
Q 42.96875 46.484375 45.3125 43.9375 
Q 47.65625 41.40625 47.65625 36.71875 
z
" id="SimHei-109"/>
      <path d="M 44.53125 16.796875 
Q 43.75 9.765625 38.28125 5.46875 
Q 32.8125 1.171875 25.390625 1.171875 
Q 16.015625 1.171875 9.953125 7.21875 
Q 3.90625 13.28125 3.90625 23.828125 
Q 3.90625 34.375 9.953125 40.421875 
Q 16.015625 46.484375 25.390625 46.484375 
Q 33.59375 46.484375 38.859375 41.203125 
Q 44.140625 35.9375 44.140625 23.828125 
L 12.5 23.828125 
Q 12.5 15.234375 16.203125 11.71875 
Q 19.921875 8.203125 25.390625 8.203125 
Q 29.6875 8.203125 32.421875 10.34375 
Q 35.15625 12.5 35.9375 16.796875 
z
M 35.15625 30.078125 
Q 34.375 35.546875 31.640625 37.6875 
Q 28.90625 39.84375 24.609375 39.84375 
Q 20.703125 39.84375 17.578125 37.6875 
Q 14.453125 35.546875 12.890625 30.078125 
z
" id="SimHei-101"/>
      <path d="M 42.96875 14.0625 
Q 42.96875 7.8125 38.078125 4.484375 
Q 33.203125 1.171875 25.78125 1.171875 
Q 16.40625 1.171875 11.328125 4.875 
Q 6.25 8.59375 6.25 15.625 
L 14.0625 15.625 
Q 14.0625 10.9375 17.375 9.375 
Q 20.703125 7.8125 25.390625 7.8125 
Q 30.078125 7.8125 32.421875 9.5625 
Q 34.765625 11.328125 34.765625 14.0625 
Q 34.765625 16.015625 32.8125 17.96875 
Q 30.859375 19.921875 23.046875 21.09375 
Q 14.0625 22.265625 10.734375 25.578125 
Q 7.421875 28.90625 7.421875 34.375 
Q 7.421875 39.0625 11.90625 42.765625 
Q 16.40625 46.484375 25 46.484375 
Q 32.8125 46.484375 37.296875 42.96875 
Q 41.796875 39.453125 41.796875 33.59375 
L 33.984375 33.59375 
Q 33.984375 37.109375 31.4375 38.46875 
Q 28.90625 39.84375 25 39.84375 
Q 19.921875 39.84375 17.765625 38.078125 
Q 15.625 36.328125 15.625 33.984375 
Q 15.625 31.25 17.578125 29.6875 
Q 19.53125 28.125 25.78125 27.34375 
Q 35.9375 25.78125 39.453125 22.453125 
Q 42.96875 19.140625 42.96875 14.0625 
z
" id="SimHei-115"/>
      <path d="M 44.921875 1.953125 
L 35.546875 1.953125 
Q 34.765625 2.734375 34.375 4.09375 
Q 33.984375 5.46875 33.984375 7.421875 
Q 31.25 4.296875 27.34375 2.734375 
Q 23.4375 1.171875 19.140625 1.171875 
Q 12.890625 1.171875 8.59375 4.296875 
Q 4.296875 7.421875 4.296875 13.28125 
Q 4.296875 19.140625 8.203125 22.65625 
Q 12.109375 26.171875 20.3125 27.34375 
Q 25.78125 28.125 29.875 29.296875 
Q 33.984375 30.46875 33.984375 32.421875 
Q 33.984375 34.765625 32.21875 37.109375 
Q 30.46875 39.453125 24.609375 39.453125 
Q 19.921875 39.453125 17.765625 37.6875 
Q 15.625 35.9375 14.84375 32.8125 
L 6.25 32.8125 
Q 7.03125 39.0625 11.90625 42.765625 
Q 16.796875 46.484375 24.609375 46.484375 
Q 33.203125 46.484375 37.5 42.578125 
Q 41.796875 38.671875 41.796875 31.640625 
L 41.796875 10.15625 
Q 41.796875 7.8125 42.578125 5.859375 
Q 43.359375 3.90625 44.921875 1.953125 
z
M 33.984375 16.40625 
L 33.984375 24.21875 
Q 31.640625 23.4375 29.484375 22.84375 
Q 27.34375 22.265625 22.265625 21.484375 
Q 16.40625 20.703125 14.640625 18.75 
Q 12.890625 16.796875 12.890625 14.0625 
Q 12.890625 11.71875 14.640625 9.953125 
Q 16.40625 8.203125 19.921875 8.203125 
Q 23.4375 8.203125 27.53125 10.15625 
Q 31.640625 12.109375 33.984375 16.40625 
z
" id="SimHei-97"/>
      <path d="M 44.140625 23.828125 
Q 44.140625 12.5 38.671875 6.640625 
Q 33.203125 0.78125 25.390625 0.78125 
Q 21.09375 0.78125 17.96875 2.53125 
Q 14.84375 4.296875 12.5 7.8125 
L 12.5 -12.5 
L 4.6875 -12.5 
L 4.6875 45.703125 
L 12.5 45.703125 
L 12.5 39.84375 
Q 14.84375 43.359375 17.96875 44.921875 
Q 21.09375 46.484375 25.390625 46.484375 
Q 33.203125 46.484375 38.671875 40.8125 
Q 44.140625 35.15625 44.140625 23.828125 
z
M 35.546875 23.828125 
Q 35.546875 31.25 32.609375 35.34375 
Q 29.6875 39.453125 23.828125 39.453125 
Q 19.140625 39.453125 15.8125 35.34375 
Q 12.5 31.25 12.5 23.828125 
Q 12.5 16.40625 15.8125 12.109375 
Q 19.140625 7.8125 23.828125 7.8125 
Q 29.6875 7.8125 32.609375 12.109375 
Q 35.546875 16.40625 35.546875 23.828125 
z
" id="SimHei-112"/>
     </defs>
     <g style="fill:#262626;" transform="translate(331.5 352.290909)scale(0.1 -0.1)">
      <use xlink:href="#SimHei-116"/>
      <use x="50" xlink:href="#SimHei-105"/>
      <use x="100" xlink:href="#SimHei-109"/>
      <use x="150" xlink:href="#SimHei-101"/>
      <use x="200" xlink:href="#SimHei-115"/>
      <use x="250" xlink:href="#SimHei-116"/>
      <use x="300" xlink:href="#SimHei-97"/>
      <use x="350" xlink:href="#SimHei-109"/>
      <use x="400" xlink:href="#SimHei-112"/>
     </g>
    </g>
   </g>
   <g id="matplotlib.axis_2">
    <g id="ytick_1">
     <g id="line2d_26">
      <path clip-path="url(#p3c699525d4)" d="M 19.2 326.290909 
L 688.8 326.290909 
" style="fill:none;stroke:#ffffff;stroke-linecap:round;stroke-width:0.8;"/>
     </g>
     <g id="line2d_27">
      <defs>
       <path d="M 0 0 
L -3.5 0 
" id="m4f17ab5ea3" style="stroke:#262626;stroke-width:0.8;"/>
      </defs>
      <g>
       <use style="fill:#262626;stroke:#262626;stroke-width:0.8;" x="19.2" xlink:href="#m4f17ab5ea3" y="326.290909"/>
      </g>
     </g>
     <g id="text_27">
      <!-- 0 -->
      <g style="fill:#262626;" transform="translate(7.2 329.728409)scale(0.1 -0.1)">
       <use xlink:href="#SimHei-48"/>
      </g>
     </g>
    </g>
    <g id="ytick_2">
     <g id="line2d_28">
      <path clip-path="url(#p3c699525d4)" d="M 19.2 298.190021 
L 688.8 298.190021 
" style="fill:none;stroke:#ffffff;stroke-linecap:round;stroke-width:0.8;"/>
     </g>
     <g id="line2d_29">
      <g>
       <use style="fill:#262626;stroke:#262626;stroke-width:0.8;" x="19.2" xlink:href="#m4f17ab5ea3" y="298.190021"/>
      </g>
     </g>
     <g id="text_28">
      <!-- 1 -->
      <g style="fill:#262626;" transform="translate(7.2 301.627521)scale(0.1 -0.1)">
       <use xlink:href="#SimHei-49"/>
      </g>
     </g>
    </g>
    <g id="ytick_3">
     <g id="line2d_30">
      <path clip-path="url(#p3c699525d4)" d="M 19.2 270.089133 
L 688.8 270.089133 
" style="fill:none;stroke:#ffffff;stroke-linecap:round;stroke-width:0.8;"/>
     </g>
     <g id="line2d_31">
      <g>
       <use style="fill:#262626;stroke:#262626;stroke-width:0.8;" x="19.2" xlink:href="#m4f17ab5ea3" y="270.089133"/>
      </g>
     </g>
     <g id="text_29">
      <!-- 2 -->
      <g style="fill:#262626;" transform="translate(7.2 273.526633)scale(0.1 -0.1)">
       <use xlink:href="#SimHei-50"/>
      </g>
     </g>
    </g>
    <g id="ytick_4">
     <g id="line2d_32">
      <path clip-path="url(#p3c699525d4)" d="M 19.2 241.988245 
L 688.8 241.988245 
" style="fill:none;stroke:#ffffff;stroke-linecap:round;stroke-width:0.8;"/>
     </g>
     <g id="line2d_33">
      <g>
       <use style="fill:#262626;stroke:#262626;stroke-width:0.8;" x="19.2" xlink:href="#m4f17ab5ea3" y="241.988245"/>
      </g>
     </g>
     <g id="text_30">
      <!-- 3 -->
      <g style="fill:#262626;" transform="translate(7.2 245.425745)scale(0.1 -0.1)">
       <use xlink:href="#SimHei-51"/>
      </g>
     </g>
    </g>
    <g id="ytick_5">
     <g id="line2d_34">
      <path clip-path="url(#p3c699525d4)" d="M 19.2 213.887358 
L 688.8 213.887358 
" style="fill:none;stroke:#ffffff;stroke-linecap:round;stroke-width:0.8;"/>
     </g>
     <g id="line2d_35">
      <g>
       <use style="fill:#262626;stroke:#262626;stroke-width:0.8;" x="19.2" xlink:href="#m4f17ab5ea3" y="213.887358"/>
      </g>
     </g>
     <g id="text_31">
      <!-- 4 -->
      <g style="fill:#262626;" transform="translate(7.2 217.324858)scale(0.1 -0.1)">
       <use xlink:href="#SimHei-52"/>
      </g>
     </g>
    </g>
    <g id="ytick_6">
     <g id="line2d_36">
      <path clip-path="url(#p3c699525d4)" d="M 19.2 185.78647 
L 688.8 185.78647 
" style="fill:none;stroke:#ffffff;stroke-linecap:round;stroke-width:0.8;"/>
     </g>
     <g id="line2d_37">
      <g>
       <use style="fill:#262626;stroke:#262626;stroke-width:0.8;" x="19.2" xlink:href="#m4f17ab5ea3" y="185.78647"/>
      </g>
     </g>
     <g id="text_32">
      <!-- 5 -->
      <g style="fill:#262626;" transform="translate(7.2 189.22397)scale(0.1 -0.1)">
       <use xlink:href="#SimHei-53"/>
      </g>
     </g>
    </g>
    <g id="ytick_7">
     <g id="line2d_38">
      <path clip-path="url(#p3c699525d4)" d="M 19.2 157.685582 
L 688.8 157.685582 
" style="fill:none;stroke:#ffffff;stroke-linecap:round;stroke-width:0.8;"/>
     </g>
     <g id="line2d_39">
      <g>
       <use style="fill:#262626;stroke:#262626;stroke-width:0.8;" x="19.2" xlink:href="#m4f17ab5ea3" y="157.685582"/>
      </g>
     </g>
     <g id="text_33">
      <!-- 6 -->
      <g style="fill:#262626;" transform="translate(7.2 161.123082)scale(0.1 -0.1)">
       <use xlink:href="#SimHei-54"/>
      </g>
     </g>
    </g>
    <g id="ytick_8">
     <g id="line2d_40">
      <path clip-path="url(#p3c699525d4)" d="M 19.2 129.584694 
L 688.8 129.584694 
" style="fill:none;stroke:#ffffff;stroke-linecap:round;stroke-width:0.8;"/>
     </g>
     <g id="line2d_41">
      <g>
       <use style="fill:#262626;stroke:#262626;stroke-width:0.8;" x="19.2" xlink:href="#m4f17ab5ea3" y="129.584694"/>
      </g>
     </g>
     <g id="text_34">
      <!-- 7 -->
      <g style="fill:#262626;" transform="translate(7.2 133.022194)scale(0.1 -0.1)">
       <use xlink:href="#SimHei-55"/>
      </g>
     </g>
    </g>
    <g id="ytick_9">
     <g id="line2d_42">
      <path clip-path="url(#p3c699525d4)" d="M 19.2 101.483806 
L 688.8 101.483806 
" style="fill:none;stroke:#ffffff;stroke-linecap:round;stroke-width:0.8;"/>
     </g>
     <g id="line2d_43">
      <g>
       <use style="fill:#262626;stroke:#262626;stroke-width:0.8;" x="19.2" xlink:href="#m4f17ab5ea3" y="101.483806"/>
      </g>
     </g>
     <g id="text_35">
      <!-- 8 -->
      <g style="fill:#262626;" transform="translate(7.2 104.921306)scale(0.1 -0.1)">
       <use xlink:href="#SimHei-56"/>
      </g>
     </g>
    </g>
    <g id="text_36">
     <!-- 1e6 -->
     <g style="fill:#262626;" transform="translate(19.2 76.2)scale(0.1 -0.1)">
      <use xlink:href="#SimHei-49"/>
      <use x="50" xlink:href="#SimHei-101"/>
      <use x="100" xlink:href="#SimHei-54"/>
     </g>
    </g>
   </g>
   <g id="PolyCollection_1">
    <defs>
     <path d="M 49.636364 -36.274225 
L 49.636364 -34.45 
L 76.102767 -34.45 
L 102.56917 -34.45 
L 129.035573 -34.45 
L 155.501976 -34.45 
L 181.968379 -34.45 
L 208.434783 -34.45 
L 234.901186 -34.45 
L 261.367589 -34.45 
L 287.833992 -34.45 
L 314.300395 -34.45 
L 340.766798 -34.45 
L 367.233202 -34.45 
L 393.699605 -34.45 
L 420.166008 -34.45 
L 446.632411 -34.45 
L 473.098814 -34.45 
L 499.565217 -34.45 
L 526.031621 -34.45 
L 552.498024 -34.45 
L 578.964427 -34.45 
L 605.43083 -34.45 
L 631.897233 -34.45 
L 658.363636 -34.45 
L 658.363636 -35.508813 
L 658.363636 -35.508813 
L 631.897233 -34.956209 
L 605.43083 -34.678601 
L 578.964427 -34.639625 
L 552.498024 -34.675538 
L 526.031621 -34.787548 
L 499.565217 -35.101069 
L 473.098814 -36.073557 
L 446.632411 -37.262196 
L 420.166008 -38.335454 
L 393.699605 -38.536796 
L 367.233202 -38.211669 
L 340.766798 -37.682501 
L 314.300395 -37.145072 
L 287.833992 -37.296648 
L 261.367589 -37.722236 
L 234.901186 -37.898906 
L 208.434783 -37.883142 
L 181.968379 -37.918408 
L 155.501976 -37.782512 
L 129.035573 -37.879657 
L 102.56917 -38.045031 
L 76.102767 -37.151451 
L 49.636364 -36.274225 
z
" id="m3b7ab959a5" style="stroke:#00441b;stroke-opacity:0.5;"/>
    </defs>
    <g clip-path="url(#p3c699525d4)">
     <use style="fill:#00441b;fill-opacity:0.5;stroke:#00441b;stroke-opacity:0.5;" x="0" xlink:href="#m3b7ab959a5" y="360.740909"/>
    </g>
   </g>
   <g id="PolyCollection_2">
    <defs>
     <path d="M 49.636364 -41.670607 
L 49.636364 -36.274225 
L 76.102767 -37.151451 
L 102.56917 -38.045031 
L 129.035573 -37.879657 
L 155.501976 -37.782512 
L 181.968379 -37.918408 
L 208.434783 -37.883142 
L 234.901186 -37.898906 
L 261.367589 -37.722236 
L 287.833992 -37.296648 
L 314.300395 -37.145072 
L 340.766798 -37.682501 
L 367.233202 -38.211669 
L 393.699605 -38.536796 
L 420.166008 -38.335454 
L 446.632411 -37.262196 
L 473.098814 -36.073557 
L 499.565217 -35.101069 
L 526.031621 -34.787548 
L 552.498024 -34.675538 
L 578.964427 -34.639625 
L 605.43083 -34.678601 
L 631.897233 -34.956209 
L 658.363636 -35.508813 
L 658.363636 -39.640937 
L 658.363636 -39.640937 
L 631.897233 -37.240952 
L 605.43083 -35.725752 
L 578.964427 -35.44154 
L 552.498024 -35.590278 
L 526.031621 -36.084544 
L 499.565217 -37.501223 
L 473.098814 -41.182495 
L 446.632411 -48.3879 
L 420.166008 -51.999482 
L 393.699605 -51.629675 
L 367.233202 -49.261191 
L 340.766798 -46.52793 
L 314.300395 -44.26002 
L 287.833992 -44.471985 
L 261.367589 -45.563367 
L 234.901186 -45.887118 
L 208.434783 -45.669701 
L 181.968379 -45.781852 
L 155.501976 -44.971029 
L 129.035573 -45.20924 
L 102.56917 -45.546928 
L 76.102767 -43.611564 
L 49.636364 -41.670607 
z
" id="m3e54ea648d" style="stroke:#37a055;stroke-opacity:0.5;"/>
    </defs>
    <g clip-path="url(#p3c699525d4)">
     <use style="fill:#37a055;fill-opacity:0.5;stroke:#37a055;stroke-opacity:0.5;" x="0" xlink:href="#m3e54ea648d" y="360.740909"/>
    </g>
   </g>
   <g id="PolyCollection_3">
    <defs>
     <path d="M 49.636364 -44.58526 
L 49.636364 -41.670607 
L 76.102767 -43.611564 
L 102.56917 -45.546928 
L 129.035573 -45.20924 
L 155.501976 -44.971029 
L 181.968379 -45.781852 
L 208.434783 -45.669701 
L 234.901186 -45.887118 
L 261.367589 -45.563367 
L 287.833992 -44.471985 
L 314.300395 -44.26002 
L 340.766798 -46.52793 
L 367.233202 -49.261191 
L 393.699605 -51.629675 
L 420.166008 -51.999482 
L 446.632411 -48.3879 
L 473.098814 -41.182495 
L 499.565217 -37.501223 
L 526.031621 -36.084544 
L 552.498024 -35.590278 
L 578.964427 -35.44154 
L 605.43083 -35.725752 
L 631.897233 -37.240952 
L 658.363636 -39.640937 
L 658.363636 -41.739117 
L 658.363636 -41.739117 
L 631.897233 -38.379712 
L 605.43083 -36.259444 
L 578.964427 -35.857236 
L 552.498024 -36.106885 
L 526.031621 -36.865496 
L 499.565217 -38.944878 
L 473.098814 -44.152225 
L 446.632411 -53.876846 
L 420.166008 -58.525127 
L 393.699605 -57.811139 
L 367.233202 -54.63987 
L 340.766798 -51.053775 
L 314.300395 -48.0048 
L 287.833992 -48.339538 
L 261.367589 -49.742587 
L 234.901186 -50.139372 
L 208.434783 -49.844397 
L 181.968379 -50.020702 
L 155.501976 -48.929376 
L 129.035573 -49.295446 
L 102.56917 -49.698891 
L 76.102767 -47.207803 
L 49.636364 -44.58526 
z
" id="m47011b7d13" style="stroke:#aedea7;stroke-opacity:0.5;"/>
    </defs>
    <g clip-path="url(#p3c699525d4)">
     <use style="fill:#aedea7;fill-opacity:0.5;stroke:#aedea7;stroke-opacity:0.5;" x="0" xlink:href="#m47011b7d13" y="360.740909"/>
    </g>
   </g>
   <g id="PolyCollection_4">
    <defs>
     <path d="M 49.636364 -130.087719 
L 49.636364 -44.58526 
L 76.102767 -47.207803 
L 102.56917 -49.698891 
L 129.035573 -49.295446 
L 155.501976 -48.929376 
L 181.968379 -50.020702 
L 208.434783 -49.844397 
L 234.901186 -50.139372 
L 261.367589 -49.742587 
L 287.833992 -48.339538 
L 314.300395 -48.0048 
L 340.766798 -51.053775 
L 367.233202 -54.63987 
L 393.699605 -57.811139 
L 420.166008 -58.525127 
L 446.632411 -53.876846 
L 473.098814 -44.152225 
L 499.565217 -38.944878 
L 526.031621 -36.865496 
L 552.498024 -36.106885 
L 578.964427 -35.857236 
L 605.43083 -36.259444 
L 631.897233 -38.379712 
L 658.363636 -41.739117 
L 658.363636 -104.375744 
L 658.363636 -104.375744 
L 631.897233 -72.851072 
L 605.43083 -52.605984 
L 578.964427 -48.492548 
L 552.498024 -50.8603 
L 526.031621 -58.483088 
L 499.565217 -78.897568 
L 473.098814 -130.068891 
L 446.632411 -211.556829 
L 420.166008 -267.84732 
L 393.699605 -269.774675 
L 367.233202 -239.811654 
L 340.766798 -203.73905 
L 314.300395 -169.268674 
L 287.833992 -166.507818 
L 261.367589 -179.265031 
L 234.901186 -185.247008 
L 208.434783 -180.319601 
L 181.968379 -180.830223 
L 155.501976 -168.54502 
L 129.035573 -167.72425 
L 102.56917 -171.529616 
L 76.102767 -151.995199 
L 49.636364 -130.087719 
z
" id="m187891c0ab" style="stroke:#f7fcf5;stroke-opacity:0.5;"/>
    </defs>
    <g clip-path="url(#p3c699525d4)">
     <use style="fill:#f7fcf5;fill-opacity:0.5;stroke:#f7fcf5;stroke-opacity:0.5;" x="0" xlink:href="#m187891c0ab" y="360.740909"/>
    </g>
   </g>
   <g id="line2d_44">
    <path clip-path="url(#p3c699525d4)" d="M 49.636364 324.466684 
L 76.102767 323.589458 
L 102.56917 322.695878 
L 129.035573 322.861252 
L 155.501976 322.958397 
L 181.968379 322.822501 
L 208.434783 322.857767 
L 234.901186 322.842003 
L 261.367589 323.018673 
L 287.833992 323.444261 
L 314.300395 323.595837 
L 340.766798 323.058408 
L 367.233202 322.52924 
L 393.699605 322.204113 
L 420.166008 322.405456 
L 446.632411 323.478713 
L 473.098814 324.667352 
L 499.565217 325.63984 
L 526.031621 325.953361 
L 552.498024 326.065371 
L 578.964427 326.101284 
L 605.43083 326.062308 
L 631.897233 325.7847 
L 658.363636 325.232096 
" style="fill:none;stroke:#00441b;stroke-linecap:round;stroke-opacity:0.5;stroke-width:1.5;"/>
   </g>
   <g id="line2d_45">
    <path clip-path="url(#p3c699525d4)" d="M 49.636364 319.070302 
L 76.102767 317.129345 
L 102.56917 315.193981 
L 129.035573 315.531669 
L 155.501976 315.76988 
L 181.968379 314.959057 
L 208.434783 315.071208 
L 234.901186 314.853792 
L 261.367589 315.177542 
L 287.833992 316.268924 
L 314.300395 316.480889 
L 340.766798 314.212979 
L 367.233202 311.479718 
L 393.699605 309.111235 
L 420.166008 308.741427 
L 446.632411 312.353009 
L 473.098814 319.558414 
L 499.565217 323.239687 
L 526.031621 324.656365 
L 552.498024 325.150631 
L 578.964427 325.299369 
L 605.43083 325.015157 
L 631.897233 323.499957 
L 658.363636 321.099973 
" style="fill:none;stroke:#37a055;stroke-linecap:round;stroke-opacity:0.5;stroke-width:1.5;"/>
   </g>
   <g id="line2d_46">
    <path clip-path="url(#p3c699525d4)" d="M 49.636364 316.155649 
L 76.102767 313.533106 
L 102.56917 311.042018 
L 129.035573 311.445463 
L 155.501976 311.811533 
L 181.968379 310.720207 
L 208.434783 310.896512 
L 234.901186 310.601537 
L 261.367589 310.998322 
L 287.833992 312.401371 
L 314.300395 312.736109 
L 340.766798 309.687134 
L 367.233202 306.101039 
L 393.699605 302.92977 
L 420.166008 302.215783 
L 446.632411 306.864063 
L 473.098814 316.588684 
L 499.565217 321.796032 
L 526.031621 323.875413 
L 552.498024 324.634025 
L 578.964427 324.883673 
L 605.43083 324.481465 
L 631.897233 322.361197 
L 658.363636 319.001792 
" style="fill:none;stroke:#aedea7;stroke-linecap:round;stroke-opacity:0.5;stroke-width:1.5;"/>
   </g>
   <g id="line2d_47">
    <path clip-path="url(#p3c699525d4)" d="M 49.636364 230.65319 
L 76.102767 208.74571 
L 102.56917 189.211293 
L 129.035573 193.016659 
L 155.501976 192.195889 
L 181.968379 179.910686 
L 208.434783 180.421308 
L 234.901186 175.493901 
L 261.367589 181.475878 
L 287.833992 194.233091 
L 314.300395 191.472235 
L 340.766798 157.001859 
L 367.233202 120.929255 
L 393.699605 90.966234 
L 420.166008 92.893589 
L 446.632411 149.18408 
L 473.098814 230.672018 
L 499.565217 281.843341 
L 526.031621 302.257821 
L 552.498024 309.880609 
L 578.964427 312.248361 
L 605.43083 308.134925 
L 631.897233 287.889837 
L 658.363636 256.365165 
" style="fill:none;stroke:#f7fcf5;stroke-linecap:round;stroke-opacity:0.5;stroke-width:1.5;"/>
   </g>
   <g id="patch_3">
    <path d="M 19.2 326.290909 
L 19.2 79.2 
" style="fill:none;stroke:#ffffff;stroke-linecap:square;stroke-linejoin:miter;stroke-width:0.8;"/>
   </g>
   <g id="patch_4">
    <path d="M 688.8 326.290909 
L 688.8 79.2 
" style="fill:none;stroke:#ffffff;stroke-linecap:square;stroke-linejoin:miter;stroke-width:0.8;"/>
   </g>
   <g id="patch_5">
    <path d="M 19.2 326.290909 
L 688.8 326.290909 
" style="fill:none;stroke:#ffffff;stroke-linecap:square;stroke-linejoin:miter;stroke-width:0.8;"/>
   </g>
   <g id="patch_6">
    <path d="M 19.2 79.2 
L 688.8 79.2 
" style="fill:none;stroke:#ffffff;stroke-linecap:square;stroke-linejoin:miter;stroke-width:0.8;"/>
   </g>
  </g>
  <g id="axes_2">
   <g id="matplotlib.axis_3">
    <g id="ytick_10">
     <g id="line2d_48">
      <defs>
       <path d="M 0 0 
L 3.5 0 
" id="mdeba724ec9" style="stroke:#262626;stroke-width:0.8;"/>
      </defs>
      <g>
       <use style="fill:#262626;stroke:#262626;stroke-width:0.8;" x="688.8" xlink:href="#mdeba724ec9" y="315.059504"/>
      </g>
     </g>
     <g id="text_37">
      <!-- 1.4 -->
      <defs>
       <path d="M 16.796875 1.953125 
L 7.8125 1.953125 
L 7.8125 10.546875 
L 16.796875 10.546875 
z
" id="SimHei-46"/>
      </defs>
      <g style="fill:#262626;" transform="translate(695.8 318.497004)scale(0.1 -0.1)">
       <use xlink:href="#SimHei-49"/>
       <use x="50" xlink:href="#SimHei-46"/>
       <use x="100" xlink:href="#SimHei-52"/>
      </g>
     </g>
    </g>
    <g id="ytick_11">
     <g id="line2d_49">
      <g>
       <use style="fill:#262626;stroke:#262626;stroke-width:0.8;" x="688.8" xlink:href="#mdeba724ec9" y="286.075233"/>
      </g>
     </g>
     <g id="text_38">
      <!-- 1.6 -->
      <g style="fill:#262626;" transform="translate(695.8 289.512733)scale(0.1 -0.1)">
       <use xlink:href="#SimHei-49"/>
       <use x="50" xlink:href="#SimHei-46"/>
       <use x="100" xlink:href="#SimHei-54"/>
      </g>
     </g>
    </g>
    <g id="ytick_12">
     <g id="line2d_50">
      <g>
       <use style="fill:#262626;stroke:#262626;stroke-width:0.8;" x="688.8" xlink:href="#mdeba724ec9" y="257.090962"/>
      </g>
     </g>
     <g id="text_39">
      <!-- 1.8 -->
      <g style="fill:#262626;" transform="translate(695.8 260.528462)scale(0.1 -0.1)">
       <use xlink:href="#SimHei-49"/>
       <use x="50" xlink:href="#SimHei-46"/>
       <use x="100" xlink:href="#SimHei-56"/>
      </g>
     </g>
    </g>
    <g id="ytick_13">
     <g id="line2d_51">
      <g>
       <use style="fill:#262626;stroke:#262626;stroke-width:0.8;" x="688.8" xlink:href="#mdeba724ec9" y="228.106692"/>
      </g>
     </g>
     <g id="text_40">
      <!-- 2.0 -->
      <g style="fill:#262626;" transform="translate(695.8 231.544192)scale(0.1 -0.1)">
       <use xlink:href="#SimHei-50"/>
       <use x="50" xlink:href="#SimHei-46"/>
       <use x="100" xlink:href="#SimHei-48"/>
      </g>
     </g>
    </g>
    <g id="ytick_14">
     <g id="line2d_52">
      <g>
       <use style="fill:#262626;stroke:#262626;stroke-width:0.8;" x="688.8" xlink:href="#mdeba724ec9" y="199.122421"/>
      </g>
     </g>
     <g id="text_41">
      <!-- 2.2 -->
      <g style="fill:#262626;" transform="translate(695.8 202.559921)scale(0.1 -0.1)">
       <use xlink:href="#SimHei-50"/>
       <use x="50" xlink:href="#SimHei-46"/>
       <use x="100" xlink:href="#SimHei-50"/>
      </g>
     </g>
    </g>
    <g id="ytick_15">
     <g id="line2d_53">
      <g>
       <use style="fill:#262626;stroke:#262626;stroke-width:0.8;" x="688.8" xlink:href="#mdeba724ec9" y="170.13815"/>
      </g>
     </g>
     <g id="text_42">
      <!-- 2.4 -->
      <g style="fill:#262626;" transform="translate(695.8 173.57565)scale(0.1 -0.1)">
       <use xlink:href="#SimHei-50"/>
       <use x="50" xlink:href="#SimHei-46"/>
       <use x="100" xlink:href="#SimHei-52"/>
      </g>
     </g>
    </g>
    <g id="ytick_16">
     <g id="line2d_54">
      <g>
       <use style="fill:#262626;stroke:#262626;stroke-width:0.8;" x="688.8" xlink:href="#mdeba724ec9" y="141.153879"/>
      </g>
     </g>
     <g id="text_43">
      <!-- 2.6 -->
      <g style="fill:#262626;" transform="translate(695.8 144.591379)scale(0.1 -0.1)">
       <use xlink:href="#SimHei-50"/>
       <use x="50" xlink:href="#SimHei-46"/>
       <use x="100" xlink:href="#SimHei-54"/>
      </g>
     </g>
    </g>
    <g id="ytick_17">
     <g id="line2d_55">
      <g>
       <use style="fill:#262626;stroke:#262626;stroke-width:0.8;" x="688.8" xlink:href="#mdeba724ec9" y="112.169608"/>
      </g>
     </g>
     <g id="text_44">
      <!-- 2.8 -->
      <g style="fill:#262626;" transform="translate(695.8 115.607108)scale(0.1 -0.1)">
       <use xlink:href="#SimHei-50"/>
       <use x="50" xlink:href="#SimHei-46"/>
       <use x="100" xlink:href="#SimHei-56"/>
      </g>
     </g>
    </g>
    <g id="ytick_18">
     <g id="line2d_56">
      <g>
       <use style="fill:#262626;stroke:#262626;stroke-width:0.8;" x="688.8" xlink:href="#mdeba724ec9" y="83.185337"/>
      </g>
     </g>
     <g id="text_45">
      <!-- 3.0 -->
      <g style="fill:#262626;" transform="translate(695.8 86.622837)scale(0.1 -0.1)">
       <use xlink:href="#SimHei-51"/>
       <use x="50" xlink:href="#SimHei-46"/>
       <use x="100" xlink:href="#SimHei-48"/>
      </g>
     </g>
    </g>
   </g>
   <g id="line2d_57">
    <path clip-path="url(#p3c699525d4)" d="M 49.636364 209.266915 
L 76.102767 144.052306 
L 102.56917 90.431405 
L 129.035573 97.677473 
L 155.501976 113.618822 
L 181.968379 133.907811 
L 208.434783 136.806238 
L 234.901186 148.399947 
L 261.367589 151.298374 
L 287.833992 168.688936 
L 314.300395 196.223994 
L 340.766798 210.716129 
L 367.233202 223.759051 
L 393.699605 238.251186 
L 420.166008 248.395681 
L 446.632411 259.989389 
L 473.098814 244.048041 
L 499.565217 281.727593 
L 526.031621 291.872087 
L 552.498024 296.219728 
L 578.964427 300.567369 
L 605.43083 315.059504 
L 631.897233 304.915009 
L 658.363636 273.032311 
" style="fill:none;stroke:#ff0000;stroke-linecap:round;stroke-width:1.5;"/>
   </g>
   <g id="patch_7">
    <path d="M 19.2 326.290909 
L 19.2 79.2 
" style="fill:none;stroke:#ffffff;stroke-linecap:square;stroke-linejoin:miter;stroke-width:0.8;"/>
   </g>
   <g id="patch_8">
    <path d="M 688.8 326.290909 
L 688.8 79.2 
" style="fill:none;stroke:#ffffff;stroke-linecap:square;stroke-linejoin:miter;stroke-width:0.8;"/>
   </g>
   <g id="patch_9">
    <path d="M 19.2 326.290909 
L 688.8 326.290909 
" style="fill:none;stroke:#ffffff;stroke-linecap:square;stroke-linejoin:miter;stroke-width:0.8;"/>
   </g>
   <g id="patch_10">
    <path d="M 19.2 79.2 
L 688.8 79.2 
" style="fill:none;stroke:#ffffff;stroke-linecap:square;stroke-linejoin:miter;stroke-width:0.8;"/>
   </g>
  </g>
  <g id="text_46">
   <!-- 下单转化率变化图（时） -->
   <defs>
    <path d="M 78.125 73.4375 
Q 85.546875 73.4375 93.359375 73.828125 
L 93.359375 65.625 
Q 84.765625 66.015625 78.125 66.015625 
L 51.171875 66.015625 
L 51.171875 5.859375 
Q 51.171875 0.78125 51.5625 -7.03125 
L 42.578125 -7.03125 
Q 42.96875 0 42.96875 5.859375 
L 42.96875 66.015625 
L 21.484375 66.015625 
Q 13.671875 66.015625 6.25 65.625 
L 6.25 73.828125 
Q 13.671875 73.4375 21.484375 73.4375 
z
M 88.28125 21.875 
Q 84.375 19.140625 81.25 15.625 
Q 75 23.828125 57.03125 40.234375 
L 62.890625 46.09375 
Q 73.4375 37.5 88.28125 21.875 
z
" id="SimHei-19979"/>
    <path d="M 82.421875 63.671875 
L 82.421875 23.828125 
L 53.125 23.828125 
L 53.125 14.453125 
L 78.90625 14.453125 
Q 87.5 14.453125 93.75 14.84375 
L 93.75 7.03125 
Q 87.109375 7.421875 78.90625 7.421875 
L 53.125 7.421875 
Q 53.125 -4.6875 53.515625 -9.765625 
L 44.921875 -9.765625 
Q 45.703125 -4.6875 45.703125 7.421875 
L 20.3125 7.421875 
Q 10.9375 7.421875 6.640625 7.03125 
L 6.640625 14.84375 
Q 10.546875 14.453125 19.53125 14.453125 
L 45.703125 14.453125 
L 45.703125 23.828125 
L 17.578125 23.828125 
Q 17.96875 30.46875 17.96875 42.96875 
Q 17.96875 55.46875 17.578125 63.671875 
L 56.25 63.671875 
Q 60.546875 72.65625 63.671875 82.03125 
Q 67.578125 80.078125 72.65625 77.734375 
Q 71.09375 75.78125 68.75 71.671875 
Q 66.40625 67.578125 64.0625 63.671875 
z
M 74.609375 30.078125 
L 74.609375 40.625 
L 53.125 40.625 
L 53.125 30.078125 
z
M 74.609375 46.875 
L 74.609375 57.03125 
L 53.125 57.03125 
L 53.125 46.875 
z
M 45.703125 30.078125 
L 45.703125 40.625 
L 25.390625 40.625 
L 25.390625 30.078125 
z
M 45.703125 46.875 
L 45.703125 57.03125 
L 25.390625 57.03125 
L 25.390625 46.875 
z
M 32.8125 81.640625 
Q 36.71875 77.34375 41.796875 67.96875 
Q 37.5 66.015625 34.765625 64.453125 
Q 30.859375 73.046875 26.953125 77.734375 
Q 29.6875 79.296875 32.8125 81.640625 
z
" id="SimHei-21333"/>
    <path d="M 77.734375 -10.546875 
Q 71.09375 -5.078125 62.5 0.578125 
Q 53.90625 6.25 47.265625 8.984375 
Q 49.609375 11.71875 51.5625 14.84375 
Q 55.859375 12.5 64.0625 7.8125 
Q 71.875 17.1875 78.125 25 
L 50.390625 25 
L 55.078125 41.40625 
L 53.125 41.40625 
Q 48.4375 41.40625 42.578125 41.015625 
L 42.578125 48.046875 
Q 47.65625 47.65625 52.34375 47.65625 
L 56.640625 47.65625 
L 59.375 59.765625 
L 55.859375 59.765625 
Q 48.828125 59.765625 45.3125 59.375 
L 45.3125 66.40625 
Q 51.171875 65.625 54.6875 65.625 
L 60.15625 65.625 
Q 61.71875 74.609375 62.109375 80.859375 
L 71.484375 79.296875 
Q 69.53125 76.171875 68.9375 73.4375 
Q 68.359375 70.703125 67.1875 65.625 
L 81.25 65.625 
Q 86.328125 65.625 91.015625 66.015625 
L 91.015625 59.375 
Q 84.375 59.765625 80.078125 59.765625 
L 66.40625 59.765625 
L 63.671875 47.65625 
L 80.078125 47.65625 
Q 86.328125 47.65625 94.140625 48.046875 
L 94.140625 41.015625 
Q 86.71875 41.40625 79.296875 41.40625 
L 62.109375 41.40625 
L 59.375 30.46875 
L 89.0625 30.46875 
L 89.0625 24.21875 
Q 86.328125 22.65625 81.828125 17.96875 
Q 77.34375 13.28125 70.3125 3.90625 
Q 76.953125 -0.390625 82.421875 -4.296875 
L 77.734375 -10.546875 
z
M 31.640625 20.3125 
Q 36.71875 21.09375 42.578125 21.875 
L 42.578125 15.234375 
Q 39.0625 14.84375 31.640625 13.671875 
Q 31.640625 -1.953125 32.03125 -8.984375 
L 24.21875 -8.984375 
Q 24.609375 3.125 24.609375 12.109375 
Q 8.984375 9.765625 4.6875 8.59375 
Q 3.90625 12.890625 3.125 16.796875 
Q 8.59375 17.1875 24.609375 18.75 
L 24.609375 32.03125 
Q 12.109375 32.03125 6.640625 30.46875 
L 3.90625 38.28125 
Q 7.421875 41.015625 10.34375 47.265625 
Q 13.28125 53.515625 15.234375 60.15625 
Q 11.328125 60.15625 4.296875 59.765625 
L 4.296875 66.796875 
Q 10.546875 66.40625 16.796875 66.40625 
Q 19.53125 74.609375 20.3125 80.859375 
Q 26.953125 78.90625 29.296875 78.125 
Q 26.953125 74.21875 23.828125 66.40625 
L 40.625 66.40625 
L 40.625 59.765625 
Q 34.375 60.15625 30.078125 60.15625 
L 22.265625 60.15625 
Q 20.3125 54.296875 13.28125 38.28125 
L 24.609375 38.28125 
Q 24.609375 46.875 24.21875 52.34375 
L 32.03125 52.34375 
Q 31.640625 47.65625 31.640625 38.28125 
Q 36.71875 38.28125 41.40625 38.671875 
L 41.40625 31.640625 
Q 37.109375 32.03125 31.640625 32.03125 
z
" id="SimHei-36716"/>
    <path d="M 61.328125 78.515625 
Q 60.9375 76.5625 60.9375 68.75 
L 60.9375 41.015625 
Q 68.359375 47.265625 74.609375 53.90625 
Q 80.859375 60.546875 84.375 67.1875 
Q 87.5 64.0625 92.1875 61.328125 
Q 89.0625 57.8125 81.640625 50.1875 
Q 74.21875 42.578125 70.109375 39.25 
Q 66.015625 35.9375 60.9375 31.640625 
L 60.9375 7.03125 
Q 60.9375 0.78125 66.015625 0.78125 
L 81.25 0.78125 
Q 84.375 1.171875 85.34375 4.09375 
Q 86.328125 7.03125 87.109375 13.28125 
Q 90.625 10.15625 96.09375 9.375 
Q 93.75 -1.5625 91.015625 -3.90625 
Q 88.28125 -6.25 83.59375 -6.25 
L 61.71875 -6.25 
Q 53.515625 -6.25 53.125 3.125 
L 53.125 26.171875 
Q 50.390625 23.828125 46.28125 21.09375 
Q 42.1875 18.359375 37.109375 15.234375 
Q 34.765625 19.140625 31.640625 21.875 
Q 36.71875 24.21875 42.765625 27.921875 
Q 48.828125 31.640625 53.125 35.15625 
L 53.125 70.3125 
Q 53.125 75 52.734375 78.515625 
L 61.328125 78.515625 
z
M 37.5 75.78125 
Q 33.984375 71.09375 32.421875 67.765625 
Q 30.859375 64.453125 28.515625 58.984375 
L 28.515625 10.546875 
Q 28.515625 -1.171875 28.90625 -8.59375 
L 20.703125 -8.59375 
Q 21.09375 -1.953125 21.09375 10.15625 
L 21.09375 47.65625 
Q 17.578125 42.578125 15.03125 39.453125 
Q 12.5 36.328125 10.546875 33.984375 
Q 7.8125 37.109375 4.296875 39.453125 
Q 9.765625 44.53125 13.671875 50.1875 
Q 17.578125 55.859375 20.5 61.125 
Q 23.4375 66.40625 25.390625 71.484375 
Q 27.34375 76.5625 28.515625 79.6875 
Q 30.859375 77.734375 37.5 75.78125 
z
" id="SimHei-21270"/>
    <path d="M 51.953125 80.46875 
Q 53.515625 76.5625 55.46875 70.703125 
L 75 70.703125 
Q 82.03125 70.703125 90.625 71.09375 
L 90.625 64.453125 
Q 82.03125 65.234375 74.609375 65.234375 
L 43.75 65.234375 
Q 46.484375 63.28125 51.5625 60.9375 
Q 48.046875 58.59375 44.921875 55.265625 
Q 41.796875 51.953125 38.671875 48.828125 
L 51.171875 48.828125 
Q 55.859375 53.515625 58.984375 58.984375 
Q 62.5 56.25 66.796875 53.515625 
Q 61.71875 50.78125 56.25 44.921875 
Q 50.78125 39.0625 41.015625 31.25 
L 60.15625 32.8125 
Q 58.203125 35.15625 56.25 37.890625 
Q 58.59375 38.671875 62.5 41.40625 
Q 66.40625 36.71875 73.4375 26.5625 
Q 69.921875 25.390625 66.015625 22.65625 
Q 65.234375 25 62.890625 27.734375 
Q 57.8125 27.34375 53.515625 27.34375 
L 53.515625 16.40625 
L 80.46875 16.40625 
Q 88.671875 16.40625 95.3125 16.796875 
L 95.3125 10.15625 
Q 89.0625 10.546875 80.078125 10.546875 
L 53.515625 10.546875 
L 53.515625 2.734375 
Q 53.515625 -4.6875 53.90625 -9.765625 
L 45.3125 -9.765625 
Q 45.703125 -4.6875 45.703125 2.734375 
L 45.703125 10.546875 
L 20.703125 10.546875 
Q 12.890625 10.546875 5.078125 10.15625 
L 5.078125 16.796875 
Q 12.890625 16.40625 21.09375 16.40625 
L 45.703125 16.40625 
L 45.703125 26.5625 
Q 42.1875 26.171875 38.671875 25.578125 
Q 35.15625 25 31.640625 23.828125 
Q 30.46875 27.734375 28.90625 31.25 
Q 32.421875 31.640625 36.328125 34.375 
Q 40.234375 37.109375 46.484375 43.75 
Q 35.9375 42.578125 31.640625 41.015625 
Q 30.859375 44.921875 28.90625 49.609375 
Q 32.421875 49.609375 36.328125 54.484375 
Q 40.234375 59.375 42.96875 65.234375 
L 26.5625 65.234375 
Q 17.96875 65.234375 10.15625 64.453125 
L 10.15625 71.09375 
Q 17.96875 70.703125 24.21875 70.703125 
L 46.484375 70.703125 
Q 45.3125 75.390625 43.75 78.515625 
Q 47.265625 79.296875 51.953125 80.46875 
z
M 25.390625 40.234375 
Q 26.953125 37.5 28.515625 34.375 
Q 24.609375 32.03125 20.703125 29.09375 
Q 16.796875 26.171875 12.5 22.265625 
Q 9.765625 26.171875 7.421875 29.296875 
Q 12.5 31.640625 17.1875 34.5625 
Q 21.875 37.5 25.390625 40.234375 
z
M 75.78125 41.40625 
Q 80.078125 38.671875 83.390625 36.515625 
Q 86.71875 34.375 91.796875 30.46875 
Q 88.671875 28.125 85.9375 25 
Q 82.8125 27.734375 79.09375 30.859375 
Q 75.390625 33.984375 71.484375 36.328125 
Q 73.828125 38.671875 75.78125 41.40625 
z
M 89.453125 55.078125 
Q 86.71875 53.90625 82.8125 50.96875 
Q 78.90625 48.046875 75 44.140625 
Q 72.265625 47.65625 69.921875 49.609375 
Q 73.4375 51.953125 76.171875 54.484375 
Q 78.90625 57.03125 82.8125 61.328125 
Q 86.328125 57.8125 89.453125 55.078125 
z
M 16.40625 60.15625 
Q 22.265625 56.25 27.734375 51.171875 
Q 24.609375 48.4375 22.265625 45.703125 
Q 16.796875 51.5625 10.546875 55.078125 
Q 13.671875 57.8125 16.40625 60.15625 
z
" id="SimHei-29575"/>
    <path d="M 81.25 30.859375 
Q 77.34375 25 70.890625 17.765625 
Q 64.453125 10.546875 57.421875 5.859375 
Q 61.328125 3.515625 71.875 1.359375 
Q 82.421875 -0.78125 93.75 -1.171875 
Q 89.0625 -6.25 88.28125 -9.765625 
Q 75.78125 -8.203125 65.8125 -4.875 
Q 55.859375 -1.5625 50.390625 1.953125 
Q 43.75 -1.953125 33.59375 -5.078125 
Q 23.4375 -8.203125 10.9375 -10.546875 
Q 9.375 -6.640625 6.25 -2.734375 
Q 14.84375 -2.34375 26.359375 0.1875 
Q 37.890625 2.734375 44.140625 5.859375 
Q 35.546875 12.109375 26.171875 24.609375 
Q 21.09375 24.609375 15.625 24.21875 
L 15.625 31.25 
Q 22.65625 30.859375 32.421875 30.859375 
z
M 50.390625 82.421875 
Q 53.125 76.5625 55.46875 69.921875 
L 73.046875 69.921875 
Q 84.375 69.921875 93.359375 70.3125 
L 93.359375 62.890625 
Q 83.984375 63.28125 73.828125 63.28125 
L 64.453125 63.28125 
L 64.453125 46.09375 
Q 64.453125 39.84375 64.84375 33.59375 
L 56.25 33.59375 
Q 56.640625 39.84375 56.640625 46.09375 
L 56.640625 63.28125 
L 42.96875 63.28125 
L 42.96875 46.09375 
Q 42.96875 41.796875 43.359375 33.59375 
L 34.765625 33.59375 
Q 35.15625 41.796875 35.15625 46.09375 
L 35.15625 63.28125 
L 26.5625 63.28125 
Q 15.234375 63.28125 6.640625 62.890625 
L 6.640625 70.3125 
Q 14.84375 69.921875 26.5625 69.921875 
L 46.484375 69.921875 
Q 45.703125 73.046875 42.1875 80.078125 
Q 46.09375 80.46875 50.390625 82.421875 
z
M 34.375 24.609375 
Q 41.40625 15.234375 50.78125 9.375 
Q 60.15625 15.625 66.796875 24.609375 
L 34.375 24.609375 
z
M 75.78125 58.59375 
Q 83.984375 51.171875 92.96875 41.796875 
Q 89.84375 39.453125 85.9375 35.9375 
Q 79.296875 43.75 69.53125 53.125 
Q 73.046875 55.859375 75.78125 58.59375 
z
M 28.515625 54.6875 
Q 26.5625 52.734375 22.265625 47.265625 
Q 17.96875 41.796875 12.890625 35.9375 
Q 8.984375 38.671875 5.859375 40.625 
Q 15.234375 49.21875 20.3125 59.765625 
Q 23.828125 57.03125 28.515625 54.6875 
z
" id="SimHei-21464"/>
    <path d="M 90.625 77.734375 
Q 90.234375 67.96875 90.234375 56.25 
L 90.234375 14.453125 
Q 90.234375 2.34375 90.625 -9.375 
L 82.8125 -9.375 
L 82.8125 -4.296875 
L 17.578125 -4.296875 
L 17.578125 -10.15625 
L 9.765625 -10.15625 
Q 10.15625 1.953125 10.15625 14.84375 
L 10.15625 56.25 
Q 10.15625 67.578125 9.765625 77.734375 
L 90.625 77.734375 
z
M 82.8125 2.34375 
L 82.8125 71.484375 
L 17.578125 71.484375 
L 17.578125 2.34375 
z
M 50.390625 66.40625 
Q 48.046875 64.0625 46.09375 61.328125 
L 72.265625 61.328125 
Q 70.703125 57.8125 67.1875 52.734375 
Q 63.671875 47.65625 56.25 40.625 
Q 67.96875 34.765625 79.296875 33.59375 
Q 76.5625 30.078125 74.609375 26.171875 
Q 60.15625 30.46875 50.390625 36.71875 
Q 39.0625 29.296875 26.171875 25.78125 
Q 25 29.296875 21.875 32.421875 
Q 34.375 34.375 44.921875 40.625 
Q 39.453125 45.703125 37.109375 49.21875 
Q 33.59375 45.3125 29.6875 41.40625 
Q 26.953125 44.53125 23.828125 46.09375 
Q 30.46875 51.5625 35.15625 58.390625 
Q 39.84375 65.234375 41.796875 69.921875 
Q 45.703125 67.96875 50.390625 66.40625 
z
M 38.28125 19.921875 
Q 55.46875 14.84375 64.0625 11.328125 
Q 62.109375 8.203125 60.15625 4.6875 
Q 44.140625 11.328125 35.546875 13.28125 
Q 37.109375 16.40625 38.28125 19.921875 
z
M 45.703125 32.03125 
Q 58.984375 26.5625 63.671875 25 
Q 61.71875 21.875 60.15625 17.96875 
Q 46.875 24.21875 42.1875 25.78125 
Q 44.140625 28.515625 45.703125 32.03125 
z
M 41.015625 53.90625 
Q 46.875 47.265625 51.171875 44.53125 
Q 56.25 48.4375 60.546875 55.078125 
L 41.796875 55.078125 
L 41.015625 53.90625 
z
" id="SimHei-22270"/>
    <path d="M 84.765625 79.6875 
L 89.0625 74.609375 
Q 66.796875 58.203125 67.578125 36.71875 
Q 67.96875 16.015625 88.671875 0.78125 
L 84.375 -4.296875 
Q 60.546875 12.890625 61.328125 39.0625 
Q 61.328125 60.546875 84.765625 79.6875 
z
" id="SimHei-65288"/>
    <path d="M 39.453125 71.484375 
Q 39.0625 57.421875 39.0625 37.5 
Q 39.0625 17.578125 39.453125 6.25 
L 31.25 6.25 
L 31.25 13.671875 
L 15.625 13.671875 
L 15.625 0.78125 
L 7.421875 0.78125 
Q 7.8125 18.75 7.8125 36.71875 
Q 7.8125 55.078125 7.421875 71.484375 
L 39.453125 71.484375 
z
M 76.171875 59.765625 
Q 76.171875 71.484375 75.78125 81.640625 
L 84.375 81.640625 
Q 83.984375 71.484375 83.984375 59.765625 
Q 89.84375 59.765625 96.484375 60.15625 
L 96.484375 52.734375 
Q 89.84375 53.125 83.984375 53.125 
L 83.984375 0.78125 
Q 83.984375 -5.078125 79.296875 -6.640625 
Q 74.609375 -8.203125 67.1875 -8.984375 
Q 67.1875 -4.296875 62.890625 0 
Q 70.3125 -0.78125 73.234375 -0.390625 
Q 76.171875 0 76.171875 4.6875 
L 76.171875 53.125 
Q 56.640625 53.125 43.359375 52.734375 
L 43.359375 60.15625 
Q 55.859375 59.765625 76.171875 59.765625 
z
M 31.25 20.3125 
L 31.25 39.84375 
L 15.625 39.84375 
L 15.625 20.3125 
z
M 31.25 46.484375 
L 31.25 64.84375 
L 15.625 64.84375 
L 15.625 46.484375 
z
M 55.46875 42.578125 
Q 60.546875 34.375 65.234375 25 
Q 61.328125 23.828125 57.03125 21.484375 
Q 53.90625 30.859375 48.046875 39.0625 
Q 51.5625 40.625 55.46875 42.578125 
z
" id="SimHei-26102"/>
    <path d="M 15.625 79.6875 
Q 39.0625 60.546875 39.0625 39.0625 
Q 39.84375 12.890625 16.015625 -4.296875 
L 11.71875 0.78125 
Q 32.421875 16.015625 32.8125 36.71875 
Q 33.59375 58.203125 11.328125 74.609375 
L 15.625 79.6875 
z
" id="SimHei-65289"/>
   </defs>
   <g style="fill:#262626;" transform="translate(260.7 19.270312)scale(0.15 -0.15)">
    <use xlink:href="#SimHei-19979"/>
    <use x="100" xlink:href="#SimHei-21333"/>
    <use x="200" xlink:href="#SimHei-36716"/>
    <use x="300" xlink:href="#SimHei-21270"/>
    <use x="400" xlink:href="#SimHei-29575"/>
    <use x="500" xlink:href="#SimHei-21464"/>
    <use x="600" xlink:href="#SimHei-21270"/>
    <use x="700" xlink:href="#SimHei-22270"/>
    <use x="800" xlink:href="#SimHei-65288"/>
    <use x="900" xlink:href="#SimHei-26102"/>
    <use x="1000" xlink:href="#SimHei-65289"/>
   </g>
  </g>
 </g>
 <defs>
  <clipPath id="p3c699525d4">
   <rect height="247.090909" width="669.6" x="19.2" y="79.2"/>
  </clipPath>
 </defs>
</svg>
